<?xml version="1.0" encoding="utf-8"?>
<!-- Generator: Adobe Illustrator 24.0.0, SVG Export Plug-In . SVG Version: 6.00 Build 0)  -->
<svg version="1.1" id="Layer_1" xmlns="http://www.w3.org/2000/svg" xmlns:xlink="http://www.w3.org/1999/xlink" x="0px" y="0px"
	 viewBox="0 0 650 150" style="enable-background:new 0 0 650 150;" xml:space="preserve">
<style type="text/css">
	.st0{fill:#3A2D55;}
	.st1{fill:#57D1E5;}
	.st2{fill:#FFFFFF;}
</style>
<g>
	<path class="st0" d="M202.1,68.1c0-4.6,5.3-6.3,9.1-6.3c3.3,0,7.6,1.3,9.8,4.1l9.3-10.2c-5.2-4.6-11.9-6.4-18.9-6.4
		c-12.1,0-23.5,6.9-23.5,20c0,20.5,28.9,14.4,28.9,25.7c0,4.3-5,6.4-9.4,6.4c-4.5,0-9-2.2-11.8-5.8l-9.6,10.6
		c5.8,5.4,12.8,7.7,20.7,7.7c12.7,0,23.7-6.5,23.7-20.3C230.5,72.1,202.1,79.4,202.1,68.1"/>
	<path class="st0" d="M273.9,81.6c0-11.5,7.6-19.8,17.8-19.8c5,0,9,1.8,11.7,5l10.4-8.5c-5.2-6.7-13.9-9-20.8-9
		c-19.2,0-33.2,12.6-33.2,32.3s14,32.3,33.2,32.3c8.4,0,17.1-3.4,22.3-10.7L304,94.8c-2.8,4.2-7.2,6.6-12.7,6.6
		C281.5,101.4,273.9,93.1,273.9,81.6"/>
	<polygon class="st0" points="374,86.1 397.1,50.8 381.1,50.8 367.2,73.9 354.2,50.8 337.3,50.8 360.4,86.1 360.4,112.4 374,112.4
		"/>
	<polygon class="st0" points="424.8,112.4 463.5,112.4 463.5,99.9 438.3,99.9 438.3,50.8 424.8,50.8 	"/>
	<polygon class="st0" points="494.1,112.4 532.8,112.4 532.8,99.9 507.6,99.9 507.6,50.8 494.1,50.8 	"/>
	<polygon class="st0" points="621.1,112.4 594.3,50.8 583.1,50.8 556.5,112.4 571.5,112.4 576.6,99.4 580.9,87.9 588.3,68.7
		595.9,87.9 600.5,99.4 605.8,112.4 	"/>
</g>
<g>
	<path class="st1" d="M85.3,6.8C53,6.8,30,27.1,30,56c0,13.8,14.4,81.4,14.4,81.4c0.9,4,4.8,6.7,8.9,6.1c0.9-0.2,1.8-0.5,2.5-0.9
		l0.6,0c1.4,0.8,3.1,1.2,4.9,1c1.4-0.2,2.7-0.7,3.8-1.5l1.8-0.1c1.4,1.1,3.3,1.8,5.3,1.7c2-0.1,3.8-1,5.1-2.3l3.1-0.2
		c1.4,1.5,3.3,2.4,5.5,2.5c2.3,0.1,4.4-0.9,5.9-2.4l3.2,0.2c1.2,1.2,2.8,2,4.6,2.2c2.1,0.2,4.1-0.4,5.7-1.6l1.9,0.1
		c0.9,0.7,2,1.2,3.2,1.4c1.7,0.3,3.3,0,4.8-0.7c0.6,0.3,1.3,0.5,2,0.6c4.1,0.7,8-2,8.9-6.1c0,0,14.4-67.5,14.4-81.4
		C140.5,27.1,117.5,6.8,85.3,6.8z"/>
	<g>
		<circle class="st2" cx="67.4" cy="51" r="24.6"/>
		<path class="st0" d="M67.4,77c-14.3,0-26-11.7-26-26s11.7-26,26-26c14.3,0,26,11.7,26,26S81.7,77,67.4,77z M67.4,27.7
			c-12.8,0-23.3,10.5-23.3,23.3s10.5,23.3,23.3,23.3c12.8,0,23.3-10.5,23.3-23.3S80.3,27.7,67.4,27.7z"/>
	</g>
	<path class="st0" d="M72.5,34.8C68.3,35.7,67.4,45,70,47.6c1.7,1.7,5.1,2.2,5.1,3.4c0,1.2-3.4,1.7-5.1,3.4
		c-2.5,2.5-1.7,11.9,2.5,12.7c5.1,1,12.7-5.1,12.7-16.1S77.6,33.8,72.5,34.8z"/>
	<path class="st2" d="M55.3,84.6c0.8,2.5,3.6,7.4,7,6.5c1.6-0.4,2.5-2.5,2.5-5.9"/>
	<path class="st2" d="M77.6,82.4c0.8,3.4,1.7,5.9,4.2,5.9c2.5,0,5.9-3.4,5.1-9.3"/>
	<path class="st0" d="M99,70.7c-1.1-1.2-2.6-2-4.2-2.3l0,0c0,0-0.1,0-0.1,0c-0.7-0.1-1.4,0.5-1.4,1.2s0.5,1.4,1.2,1.4
		c0.7,0.1,1.4,0.3,2.1,0.6C90,76,82.6,79.3,75,81.1c-8,1.9-16.3,2.3-24.4,1.1c-0.6-0.1-1.2,0.3-1.3,0.9c-0.1,0.6,0.3,1.2,0.9,1.3
		c1.3,0.2,2.5,0.3,3.8,0.5c0,0,0,0.1,0,0.1c1.1,3.2,3.9,7.6,7.5,7.6c0.4,0,0.7,0,1.1-0.1c1.3-0.3,3.6-1.7,3.6-7.2c0-0.1,0-0.2,0-0.2
		c3.2-0.3,6.3-0.7,9.4-1.5c0.3-0.1,0.6-0.2,0.9-0.2c0.7,2.9,1.8,6.5,5.4,6.5c1.5,0,3.1-0.8,4.3-2.2c1-1.2,2.7-3.9,2.1-8.3
		c3.5-1.6,6.9-3.5,10.2-5.7c0.3,0.5,0.6,1.1,0.7,1.7l0,0c0.1,0.4,0.5,0.7,1,0.7c0.5,0,0.9-0.5,0.8-1C100.8,73.4,100.1,71.9,99,70.7z
		 M63.5,85.2c0,2.6-0.6,4.4-1.5,4.6c-2,0.5-4-2.5-5-4.7C59.1,85.2,61.3,85.2,63.5,85.2C63.5,85.1,63.5,85.1,63.5,85.2z M84.1,85.7
		c-0.7,0.8-1.6,1.3-2.3,1.3c-1.3,0-1.9-1.1-2.8-4.5c2.3-0.6,4.5-1.4,6.7-2.3C85.8,82.5,85.3,84.4,84.1,85.7z"/>
	<g>
		<path class="st0" d="M126.4,19.7c-10.2-9.1-24.7-14.1-40.6-14.1c-16,0-30.4,5-40.6,14.1c-10.3,9.2-16,22.1-16,36.5
			c0,13.8,13.8,78.9,14.4,81.7c1,4.3,4.7,7.2,9,7.2c0.5,0,1,0,1.5-0.1c0.9-0.1,1.7-0.4,2.5-0.8c1.7,0.8,3.7,1.1,5.6,0.7
			c1.4-0.3,2.8-0.9,3.9-1.8c1,0.8,2.1,1.4,3.4,1.7c2,0.5,4.2,0.3,6.1-0.5c1.3-0.6,2.5-1.5,3.4-2.6c0.7,0.8,1.5,1.6,2.4,2.1
			c0.7,0.4,1.5,0.8,2.3,1c0.8,0.2,1.7,0.3,2.5,0.3c0.8,0,1.7-0.1,2.5-0.3c0.8-0.3,1.6-0.6,2.3-1c0.7-0.4,1.4-1,1.9-1.6
			c0.2-0.2,0.3-0.3,0.4-0.5c0,0,0,0,0,0c1.4,1.8,3.5,3,5.8,3.3c2.2,0.4,4.6-0.2,6.5-1.5c0.2-0.1,0.4-0.3,0.5-0.4
			c1.1,0.9,2.4,1.5,3.7,1.8c1,0.2,1.9,0.3,2.9,0.1c0.9-0.1,1.7-0.3,2.5-0.7c0.7,0.3,1.4,0.5,2.2,0.7c4.8,0.8,9.4-2.3,10.5-7.1
			c0.6-2.8,14.4-67.8,14.4-81.6C142.3,41.9,136.7,28.9,126.4,19.7z M125.3,137.3c-0.7,3.3-3.8,5.4-7.1,5.1c0.6-0.6,1.2-1.3,1.6-2.1
			c0.5-0.9,0.8-1.8,1-2.7l0.4-2.5l1.6-9.9c0.5-3.3,1-6.6,1.5-9.9c0.1-0.5-0.2-0.9-0.7-1c-0.5-0.1-1,0.2-1.1,0.7
			c-0.7,3.3-1.4,6.5-2,9.8l-1.9,9.8l-0.5,2.4c-0.1,0.7-0.4,1.3-0.7,1.9c-0.3,0.6-0.8,1.1-1.3,1.6c-0.5,0.5-1.1,0.9-1.7,1.1
			c-0.6,0.3-1.3,0.5-2,0.5c-0.7,0.1-1.4,0-2-0.1c-0.9-0.2-1.7-0.5-2.4-1c0.6-0.9,1.1-2,1.4-3.1c0.1-0.3,0.1-0.6,0.2-0.8
			c0-0.1,0-0.3,0.1-0.4l0-0.4l0.1-1.4l0.3-2.9l0.6-5.8c0.4-3.9,0.7-7.7,1-11.6c0-0.5-0.3-0.9-0.8-1c-0.5-0.1-0.9,0.3-1,0.8
			c-0.6,3.8-1.1,7.7-1.6,11.5l-0.7,5.8l-0.4,2.9c-0.1,0.9-0.2,2-0.4,2.7c-0.4,1.6-1.4,2.9-2.7,3.8c-1.3,0.9-3,1.2-4.6,1
			c-1.6-0.2-3-1.1-4.1-2.3c-0.2-0.3-0.5-0.6-0.7-1c0.1-0.4,0.2-0.8,0.3-1.2c0.2-0.8,0.2-1.7,0.2-2.4l0.1-4.3
			c0.1-2.9,0.1-5.7,0.1-8.6c0-2.9,0-5.7,0-8.6c0-0.5-0.4-0.9-0.8-0.9c-0.5,0-0.9,0.3-0.9,0.8c-0.2,2.8-0.3,5.7-0.5,8.5
			c-0.1,2.8-0.3,5.7-0.4,8.5l-0.2,4.3c0,0.3,0,0.7-0.1,1c0,0.3-0.1,0.6-0.1,0.9c-0.1,0.6-0.3,1.1-0.6,1.7c-1.1,2.1-3.4,3.5-5.8,3.4
			c-0.6,0-1.2-0.1-1.7-0.2c-0.6-0.1-1.1-0.4-1.6-0.7c-1-0.6-1.8-1.5-2.4-2.5c-0.3-0.5-0.5-1.1-0.6-1.6c-0.1-0.6-0.2-1.1-0.2-1.9
			l-0.2-4.3c-0.1-2.8-0.2-5.7-0.4-8.5c-0.1-2.8-0.3-5.7-0.5-8.5c0-0.5-0.4-0.8-0.9-0.8c-0.5,0-0.9,0.4-0.9,0.9c0,2.9,0,5.7,0,8.6
			c0,2.9,0.1,5.7,0.1,8.6l0.1,4.3c0,0.7,0,1.6,0.2,2.4c0.1,0.4,0.2,0.8,0.4,1.3c-0.7,1.2-1.8,2.2-3,2.7c-1.3,0.6-2.8,0.7-4.2,0.4
			c-1.4-0.4-2.7-1.2-3.6-2.4c-0.4-0.6-0.8-1.2-1-1.9c-0.1-0.3-0.2-0.7-0.3-1.1c0-0.2-0.1-0.4-0.1-0.6l-0.1-0.7l-1.3-10.5
			c-0.5-3.5-0.9-7-1.5-10.5c-0.1-0.5-0.5-0.8-0.9-0.8c-0.5,0-0.9,0.5-0.8,1c0.3,3.5,0.6,7,0.9,10.5l1,10.5l0.1,0.7
			c0,0.2,0,0.4,0.1,0.7c0.1,0.5,0.2,1,0.3,1.5c0.3,0.9,0.7,1.7,1.2,2.4c-0.8,0.5-1.6,0.9-2.6,1.1c-1.3,0.2-2.7,0.1-4-0.5
			c-1.2-0.6-2.3-1.6-2.9-2.8c-0.3-0.6-0.6-1.2-0.7-1.9l-0.5-2.4l-1.9-9.7c-0.7-3.2-1.3-6.5-2-9.7c-0.1-0.4-0.5-0.8-1-0.7
			c-0.5,0.1-0.8,0.5-0.8,1c0.4,3.3,0.9,6.6,1.5,9.8l1.6,9.8l0.4,2.4c0.2,1,0.5,1.9,0.9,2.7c0.4,0.8,1,1.5,1.6,2.1
			c-0.1,0-0.2,0.1-0.3,0.1c-3.4,0.6-6.7-1.6-7.4-5c-0.1-0.7-14.4-67.6-14.4-81.1c0-13.6,5.3-25.8,15.1-34.5
			C56.7,13,70.5,8.3,85.8,8.3c15.3,0,29.1,4.8,38.8,13.5c9.7,8.7,15.1,20.9,15.1,34.5C139.7,69.7,125.4,136.6,125.3,137.3z"/>
	</g>
</g>
</svg>
