<svg xmlns="http://www.w3.org/2000/svg" viewBox="0 0 25 25"><defs><style>.cls-1{fill:none;stroke:gray;stroke-linecap:round;stroke-linejoin:round;}.cls-2{fill:gray;}</style></defs><title>icon-open-source</title><g id="Calque_4" data-name="Calque 4"><path class="cls-1" d="M.31,21.51,5,19.69a2.37,2.37,0,0,1,1.88.19l5.24,1.68a2.23,2.23,0,0,0,2-.12l9.5-4.75c.8-.44,1.64-1.31,1.13-1.91a2.34,2.34,0,0,0-2.64-.42L18,16.09"/><path class="cls-1" d="M.25,15.69l4.88-1.21c1.25-.3,2.17-.63,3.44-.13a15.21,15.21,0,0,0,4,1.1c.09,0,.17,0,.26,0h4.26c.85,0,.95.54.95,1.13a1,1,0,0,1-1.08,1,65.86,65.86,0,0,1-7-.31"/><path class="cls-2" d="M8.56,9.68c0-.17,0-.61,0-.81,0-.91-.38-1.21-1.29-1.21H7V6.3h.31C8.22,6.3,8.6,6,8.6,5.09c0-.2,0-.64,0-.81,0-1.2.66-1.92,2.82-2.3V3.14c-1.24.35-1.43.68-1.43,1.4,0,.23,0,.62,0,.87A1.52,1.52,0,0,1,8.75,7,1.52,1.52,0,0,1,10,8.56c0,.24,0,.63,0,.87,0,.71.19,1,1.43,1.4V12C9.22,11.65,8.56,10.88,8.56,9.68Z"/><path class="cls-2" d="M17.43,4.3c0,.17,0,.61,0,.81,0,.91.37,1.21,1.29,1.21H19V7.68h-.31c-.92,0-1.29.3-1.29,1.21,0,.2,0,.64,0,.81,0,1.2-.65,2-2.81,2.35v-1.2c1.25-.36,1.44-.69,1.44-1.4,0-.24,0-.63,0-.87A1.53,1.53,0,0,1,17.25,7,1.53,1.53,0,0,1,16,5.43c0-.25,0-.64,0-.87,0-.72-.19-1-1.44-1.4V2C16.78,2.38,17.43,3.1,17.43,4.3Z"/></g></svg>
