<svg id="Calque_1" data-name="Calque 1" xmlns="http://www.w3.org/2000/svg" viewBox="0 0 25 25"><defs><style>.cls-1{fill:none;stroke:gray;stroke-linecap:round;stroke-linejoin:round;}</style></defs><title>icon-partners</title><polyline class="cls-1" points="18.5 8.26 13.78 8.26 12.55 9.53"/><polygon class="cls-1" points="2.39 15.09 0.15 13.74 5.02 5.32 7.26 6.66 2.39 15.09"/><polygon class="cls-1" points="22.59 15.09 24.83 13.74 19.97 5.32 17.73 6.66 22.59 15.09"/><line class="cls-1" x1="10.71" y1="15.26" x2="7.78" y2="17.47"/><line class="cls-1" x1="12.18" y1="16.4" x2="9.25" y2="18.61"/><line class="cls-1" x1="13.68" y1="17.53" x2="10.75" y2="19.75"/><path class="cls-1" d="M6.38,8.3h3.78a2.27,2.27,0,0,1,1.37.47c1.26,1,4.09,3.18,4.48,3.56s-1.14,1.68-2.27,1.1a18.34,18.34,0,0,0-2.11-.92.57.57,0,0,0-.56.09L6.28,16.49,12.33,21l9.46-7.09"/><line class="cls-1" x1="3.24" y1="14.22" x2="6.64" y2="16.07"/></svg>
