<?xml version="1.0" encoding="UTF-8"?><svg id="Layer_2" xmlns="http://www.w3.org/2000/svg" viewBox="0 0 26.38 32.43"><defs><style>.cls-1,.cls-2{fill:none;stroke:#000;stroke-linecap:round;stroke-linejoin:round;}.cls-2{stroke-width:.9px;}</style></defs><g id="Layer_3"><path class="cls-1" d="m6.55,31.64c-.2.13-.43.22-.69.26-.95.16-1.85-.46-2.06-1.39,0,0-3.31-15.52-3.31-18.69C.5,5.19,5.77.5,13.19.5s12.69,4.69,12.69,11.32c0,3.18-3.31,18.69-3.31,18.69-.21.93-1.11,1.55-2.06,1.39-.2-.03-.39-.1-.56-.19"/><path d="m21.86,25.36c-.28,1.9-.37,3.86-.91,5.71-.61,1.41-2.68,1.75-3.66.55-.41-.47.31-1.11.73-.66.71.76,2.04.29,2.16-.73.32-1.66.65-3.33,1.04-4.98.09-.39.7-.28.65.11h0Z"/><path class="cls-2" d="m14.8,10.57c0,3.13-2.53,5.66-5.66,5.66s-5.47-2.53-5.47-5.66,2.34-5.66,5.47-5.66,5.66,2.53,5.66,5.66Z"/><path d="m10.31,6.86c-.98.2-1.17,2.34-.59,2.93.38.38,1.17.51,1.17.78s-.79.4-1.17.78c-.59.59-.39,2.73.59,2.93,1.16.23,2.93-1.17,2.93-3.71s-1.76-3.94-2.93-3.71Z"/><path d="m6.82,18.51c3.49.89,6.97-.5,9.51-2.93.47-.44,1.16.31.68.74-1.38,1.23-2.98,2.29-4.79,2.87-1.8.59-3.77.58-5.58.14-.22-.05-.36-.28-.31-.5.05-.22.28-.36.5-.31h0Z"/><path d="m16.73,16.67c-.12-.46-.51-.83-.99-.83-.75-.02-.59-1.17.14-.99.81.16,1.43.85,1.5,1.66.08.4-.54.54-.65.15h0Z"/><path d="m9.03,31.7c-1.26,1.36-3.62.45-3.8-1.35,0,0-.09-.55-.09-.55-.21-1.48-.45-2.95-.6-4.44-.02-.18.11-.34.29-.36.17-.02.32.09.35.25.39,1.63.71,3.28,1.03,4.93.09,1.02,1.38,1.54,2.12.81.45-.44,1.14.26.69.7h0Z"/><path d="m11.96,31.16c-1,1.98-4.04,1.3-4.21-.88-.15-1.69-.3-3.38-.39-5.07,0-.18.13-.34.31-.34.17,0,.31.11.34.27.28,1.67.5,3.35.72,5.03.09,1.2,1.77,1.59,2.36.51.31-.56,1.16-.09.87.47h0Z"/><path d="m19.03,25.21c-.08,1.69-.24,3.38-.39,5.07-.04.37-.17.75-.38,1.06-.86,1.4-3.11,1.31-3.83-.17-.3-.56.55-1.03.86-.48.59,1.08,2.27.69,2.35-.52.22-1.68.43-3.36.72-5.03.06-.4.68-.33.65.07h0Z"/><path d="m15.43,25.02c.04,1.31.02,2.61.02,3.91-.03.67.11,1.48-.23,2.13-.74,1.69-3.29,1.69-4.03,0-.34-.65-.21-1.47-.24-2.13,0-1.3-.02-2.61.02-3.91,0-.18.16-.32.34-.32.17,0,.3.14.32.3.11,1.3.17,2.6.24,3.91.05.45,0,1.35.21,1.72.21.43.66.71,1.12.7.46.02.91-.27,1.12-.69.22-.36.16-1.28.21-1.72.07-1.3.13-2.61.24-3.91.02-.4.66-.38.66.02h0Z"/></g></svg>