<svg xmlns="http://www.w3.org/2000/svg" viewBox="9.75 38.56 263.77 211.15"><defs><style>.cls-1{isolation:isolate;}.cls-2,.cls-3{fill:#57d1e5;}.cls-2,.cls-5,.cls-6{stroke:#3b2d55;}.cls-10,.cls-2,.cls-5,.cls-6{stroke-linecap:round;stroke-linejoin:round;}.cls-2,.cls-5{stroke-width:3.74px;}.cls-4{fill:#3b2d55;}.cls-5,.cls-6,.cls-8{fill:#fff;}.cls-6{stroke-width:3.12px;}.cls-7{fill:#f2f2f2;}.cls-9{fill:#476cb3;}.cls-10{fill:none;stroke:#fff;stroke-width:3.41px;opacity:0.7;mix-blend-mode:overlay;}</style></defs><title>scylla-operator</title><g class="cls-1"><g id="Layer_1" data-name="Layer 1"><path class="cls-2" d="M58.11,230.62A11.55,11.55,0,0,1,35.43,235S14.29,135.8,14.29,115.48c0-42.43,33.7-72.39,81.13-72.39s81.13,30,81.13,72.39c0,20.32-21.14,119.52-21.14,119.52a11.55,11.55,0,0,1-22.67-4.38"/><path class="cls-3" d="M150.21,202.2l-5.77,32.31a11.55,11.55,0,0,1-22.84-3.4"/><path class="cls-4" d="M151.43,202.42l-1.26,8.46-1.34,8.45-1.38,8.45-.7,4.22a40.24,40.24,0,0,1-.85,4.41,13.41,13.41,0,0,1-23.79,3.92,13.5,13.5,0,0,1-2.37-9.44,1.87,1.87,0,0,1,3.72.44,9.7,9.7,0,0,0,1.82,6.74,9.54,9.54,0,0,0,5.81,3.79,9.73,9.73,0,0,0,6.86-1.1,9.55,9.55,0,0,0,4.36-5.44c.31-1,.55-2.6.83-4l.8-4.2,1.62-8.4,1.68-8.39L149,202a1.24,1.24,0,0,1,2.45.44Z"/><circle class="cls-5" cx="67.96" cy="108" r="36.2"/><path class="cls-4" d="M75.45,84.28c-6.24,1.25-7.49,15-3.74,18.72,2.46,2.46,7.49,3.28,7.49,5s-5,2.53-7.49,5c-3.75,3.74-2.5,17.47,3.74,18.72,7.45,1.49,18.73-7.49,18.73-23.71S82.9,82.79,75.45,84.28Z"/><path class="cls-6" d="M50.49,156.67c1.25,3.75,5,10,10,8.74,2.42-.61,3.74-3.74,3.74-8.74"/><path class="cls-5" d="M82.94,154.18c1.25,5,2.5,8.73,6.24,8.73s8.74-5,7.49-13.73"/><path class="cls-4" d="M43.23,153.88a96.1,96.1,0,0,0,68.6-16.22,1.87,1.87,0,1,1,2.14,3.07h0A99.47,99.47,0,0,1,42.77,157a1.56,1.56,0,0,1,.46-3.09Z"/><path class="cls-4" d="M114.64,143.6a8,8,0,0,0-2.52-4.39,7.66,7.66,0,0,0-4.48-1.9,1.88,1.88,0,1,1,.28-3.74l.2,0h0a11.08,11.08,0,0,1,6.15,3.4,10.76,10.76,0,0,1,2.79,6.25,1.25,1.25,0,0,1-2.47.36Z"/><path class="cls-3" d="M69.25,231.11a11.55,11.55,0,0,1-22.84,3.4L40.64,202.2"/><path class="cls-4" d="M71.11,230.88a13.42,13.42,0,0,1-10.53,14.81,13.28,13.28,0,0,1-9.64-1.61,13.54,13.54,0,0,1-6-7.66A40.84,40.84,0,0,1,44.1,232l-.7-4.22L42,219.33l-1.33-8.45-1.27-8.46a1.25,1.25,0,0,1,2.46-.44l1.74,8.38,1.67,8.39,1.62,8.4.81,4.2c.28,1.36.51,2.92.83,4a9.68,9.68,0,0,0,18.85-4h0a1.87,1.87,0,0,1,3.72-.44Z"/><path class="cls-3" d="M85.92,231.85a11.55,11.55,0,0,1-23,1.92L59.27,201.4"/><path class="cls-4" d="M87.79,231.75a13.41,13.41,0,0,1-26.42,4,33.61,33.61,0,0,1-.59-4.47L60.36,227l-.84-8.48L58.74,210l-.71-8.5a1.25,1.25,0,0,1,2.48-.27l1.19,8.44,1.13,8.45,1.07,8.45.53,4.23a38.94,38.94,0,0,0,.59,4,9.68,9.68,0,0,0,19-2.85h0a1.87,1.87,0,0,1,3.74-.19Z"/><path class="cls-3" d="M131.58,201.4l-3.64,32.37a11.55,11.55,0,0,1-23-1.92"/><path class="cls-4" d="M132.82,201.53l-.71,8.5-.79,8.49-.83,8.48-.42,4.24a39.1,39.1,0,0,1-.58,4.46A13.42,13.42,0,0,1,106,241a13.54,13.54,0,0,1-3-9.25,1.87,1.87,0,0,1,3.74.2,9.7,9.7,0,0,0,15,8.52,9.5,9.5,0,0,0,4-5.67c.27-1.06.4-2.57.59-4l.53-4.23,1.07-8.45,1.12-8.45,1.2-8.44a1.25,1.25,0,0,1,1.41-1.07A1.26,1.26,0,0,1,132.82,201.53Z"/><path class="cls-3" d="M107.9,200.36,107,232.81a11.55,11.55,0,0,1-23.09,0l-.94-32.45"/><path class="cls-4" d="M109.15,200.39c0,8.39,0,16.77-.2,25.14l-.1,6.28a16.58,16.58,0,0,1-.3,3.46,13.19,13.19,0,0,1-1.22,3.44A13.47,13.47,0,0,1,95.43,246a13.41,13.41,0,0,1-7-2,13.56,13.56,0,0,1-4.93-5.29,13.91,13.91,0,0,1-1.23-3.43,17.41,17.41,0,0,1-.3-3.46l-.1-6.29c-.16-8.37-.21-16.75-.2-25.14a1.25,1.25,0,0,1,2.5-.07q.75,12.56,1.26,25.11l.26,6.28a15.05,15.05,0,0,0,.27,2.78,9.67,9.67,0,0,0,9.45,7.56A9.61,9.61,0,0,0,104,237a9.44,9.44,0,0,0,.9-2.46,14.9,14.9,0,0,0,.28-2.78l.26-6.28c.32-8.37.76-16.74,1.25-25.11a1.25,1.25,0,0,1,2.49.07Z"/><g id="path10349"><path class="cls-7" d="M225.51,244.3c-.31,0-.62,0-.93-.05H172.69a13,13,0,0,1-8.2-3.74l-.07-.06L131.73,200a11.44,11.44,0,0,1-2-8.69l11.6-50.88a9.93,9.93,0,0,1,5.57-6.87l47.22-22.77.17,0a17.65,17.65,0,0,1,4.28-.36,10.15,10.15,0,0,1,4.62,1l47.06,22.53a11.69,11.69,0,0,1,5.83,6.74l0,.12,11.76,50.58v.09a12.31,12.31,0,0,1-2.16,8.6l-32.64,40.38a9.37,9.37,0,0,1-7.58,3.92Z"/><path class="cls-8" d="M198.58,112.1a8.63,8.63,0,0,1,3.86.77l47.08,22.54a10,10,0,0,1,4.94,5.71L266.2,191.6a10.5,10.5,0,0,1-1.86,7.41l-32.57,40.3a7.76,7.76,0,0,1-6.26,3.29,7.89,7.89,0,0,1-.84,0H172.79a11.3,11.3,0,0,1-7.1-3.24L133.12,199a9.72,9.72,0,0,1-1.7-7.41L143,140.81a8.29,8.29,0,0,1,4.63-5.71l47.09-22.7a16.72,16.72,0,0,1,3.86-.3m0-3.41a19.26,19.26,0,0,0-4.69.41l-.34.08-.31.16L146.15,132a11.74,11.74,0,0,0-6.47,8L128.1,190.85l0,.08,0,.08a13.16,13.16,0,0,0,2.29,10l.05.09.07.07L163,241.45l.12.14.12.13a14.58,14.58,0,0,0,9.31,4.23H224.5c.33,0,.67,0,1,0a11.11,11.11,0,0,0,9-4.61L267,201.15l.07-.07.06-.09a14,14,0,0,0,2.46-9.79l0-.18-.05-.19-11.73-50.48,0-.13,0-.12a13.31,13.31,0,0,0-6.58-7.7l-.07,0-.07,0-47.06-22.52a11.73,11.73,0,0,0-5.35-1.12Z"/></g><g id="path10351"><path class="cls-9" d="M251.75,190.74h0c-.17,0-.34,0-.34-.17s-.34-.16-.68-.16a8.12,8.12,0,0,0-2-.17,2.16,2.16,0,0,1-1-.17h-.17a35.08,35.08,0,0,1-5.74-1,2.06,2.06,0,0,1-1.18-1.19h0l-1.35-.33a44,44,0,0,0-.67-14.86,46,46,0,0,0-5.91-13.85l1-1h0v-.17a2.35,2.35,0,0,1,.51-1.52,30.18,30.18,0,0,1,4.72-3.38h0l1-.5c.67-.34,1.18-.68,1.85-1,.17-.17.34-.17.51-.33s0-.17,0-.34h0a3.31,3.31,0,0,0,.68-4.73,3.22,3.22,0,0,0-2.37-1.18,4.06,4.06,0,0,0-2.36.84h0l-.17.17c-.17.17-.34.34-.51.34a11.52,11.52,0,0,0-1.35,1.52c-.17.34-.51.5-.67.67h0a22.44,22.44,0,0,1-4.23,3.72,2.33,2.33,0,0,1-1,.34,1,1,0,0,1-.67-.17h-.17l-1.35.84c-1.35-1.35-2.87-2.7-4.22-4a43.22,43.22,0,0,0-22-8.78l-.16-1.35h0v.17a2.34,2.34,0,0,1-.85-1.35,33.45,33.45,0,0,1,.34-5.74v-.17c0-.34.17-.68.17-1,.17-.67.17-1.35.34-2v-1h0a3.38,3.38,0,0,0-6.76,0h0v.85a8.37,8.37,0,0,0,.34,2,2.16,2.16,0,0,1,.17,1v.17a31.54,31.54,0,0,1,.34,5.74,2.34,2.34,0,0,1-.85,1.35v.34h0l-.17,1.35c-1.85.17-3.71.5-5.74.84a40.32,40.32,0,0,0-20.77,11.82l-1-.68h-.17c-.17,0-.34.17-.67.17a2.54,2.54,0,0,1-1-.33,31.6,31.6,0,0,1-4.22-3.89h0c-.17-.34-.5-.5-.67-.67-.51-.51-.85-1-1.35-1.52-.17-.17-.34-.17-.51-.34l-.17-.17h0a4,4,0,0,0-2.36-.84,2.55,2.55,0,0,0-2.37,1.18,3.64,3.64,0,0,0,.68,4.73h0a.17.17,0,0,1,.17.17s.33.33.5.33a19.46,19.46,0,0,0,1.86,1l1,.5h0a24.25,24.25,0,0,1,4.73,3.38,1.69,1.69,0,0,1,.51,1.52v-.17h0l1,1c-.17.34-.34.51-.5.85A40,40,0,0,0,157.87,187l-1.36.34h0a.16.16,0,0,1-.16.17,2.71,2.71,0,0,1-1.19,1.18,31.85,31.85,0,0,1-5.74,1h0a2.14,2.14,0,0,0-1,.17c-.68,0-1.35.17-2,.17-.17,0-.33.17-.67.17-.17,0-.17,0-.34.17h0a3.28,3.28,0,0,0-2.7,3.88h0a3.13,3.13,0,0,0,3.38,2.36,1.52,1.52,0,0,0,.84-.17h0c.17,0,.17,0,.17-.16s.51,0,.67,0c.68-.17,1.36-.51,1.86-.68a2.42,2.42,0,0,1,1-.34h.17a30.77,30.77,0,0,1,5.58-1.52h.16a1.93,1.93,0,0,1,1.36.51c.16,0,.16.17.16.17h0l1.52-.17A40.73,40.73,0,0,0,173.4,214a26,26,0,0,0,4.56,3l-.85,1.19h0c0,.16.17.16.17.16a2,2,0,0,1,.17,1.69,27.54,27.54,0,0,1-2.7,4.9v.17a2.83,2.83,0,0,1-.68.84c-.33.34-.67,1-1.18,1.69-.17.17-.17.34-.33.51a.17.17,0,0,1-.17.17h0a3.47,3.47,0,0,0,1.35,4.56,3.22,3.22,0,0,0,1.18.33,3.79,3.79,0,0,0,3.21-2h0a.17.17,0,0,1,.17-.17c0-.17.16-.34.33-.51.17-.67.51-1.18.68-1.86l.34-1h0a28.33,28.33,0,0,1,2.19-5.23,2.66,2.66,0,0,1,1.35-1c.17,0,.17,0,.17-.16h0L184,220a39.65,39.65,0,0,0,14.69,2.71,33.49,33.49,0,0,0,9.11-1.19,48,48,0,0,0,5.41-1.52l.67,1.19h0c.17,0,.17,0,.17.17a2.51,2.51,0,0,1,1.35,1,28.65,28.65,0,0,1,2.2,5.23v.17l.34,1a5.69,5.69,0,0,0,.67,1.86c.17.17.17.34.34.51a.17.17,0,0,0,.17.17h0a3.77,3.77,0,0,0,3.21,2,4.23,4.23,0,0,0,1.35-.33,2.86,2.86,0,0,0,1.52-1.86,4.47,4.47,0,0,0-.17-2.53h0a.17.17,0,0,0-.17-.17c0-.17-.17-.34-.34-.51a6,6,0,0,0-1.18-1.69,3,3,0,0,0-.68-.84V225a20.16,20.16,0,0,1-2.7-4.9,2,2,0,0,1,.17-1.69c0-.16.17-.16.17-.16h0l-.51-1.35a41.77,41.77,0,0,0,18.24-23l1.35.17h0a.17.17,0,0,0,.17-.17,1.9,1.9,0,0,1,1.35-.5h.17a28.15,28.15,0,0,1,5.4,1.51h.17a2.42,2.42,0,0,0,1,.34,9,9,0,0,0,1.86.85c.17,0,.34.17.68.17.16,0,.16,0,.33.16h0a1.53,1.53,0,0,0,.85.17,3.65,3.65,0,0,0,3.37-2.36,4,4,0,0,0-3-3.55ZM203,185.51l-4.56,2.19-4.56-2.19-1.18-4.9,3.21-4.05h5.06l3.21,4.05Zm27.52-11a32.69,32.69,0,0,1,.68,10.64l-16-4.56h0a2.76,2.76,0,0,1-2-3.37,2.83,2.83,0,0,1,.67-1.19l12.67-11.48A34.22,34.22,0,0,1,230.47,174.53Zm-9.12-16.21-13.84,9.8a2.89,2.89,0,0,1-3.72-.68,1.51,1.51,0,0,1-.5-1.18l-1-17a31.76,31.76,0,0,1,19.08,9.11Zm-30.56-8.61,3.38-.67-.85,16.88h0a2.81,2.81,0,0,1-2.87,2.7,4,4,0,0,1-1.35-.33l-14-10A33.52,33.52,0,0,1,190.79,149.71Zm-20.6,14.86,12.5,11.15h0a2.7,2.7,0,0,1,.33,3.88,1.86,1.86,0,0,1-1.35.84l-16.38,4.73A35.64,35.64,0,0,1,170.19,164.57Zm-2.87,28.54L184,190.24a2.76,2.76,0,0,1,2.87,2.19,2,2,0,0,1-.17,1.69h0l-6.42,15.53A33.17,33.17,0,0,1,167.32,193.11ZM205.65,214a33.93,33.93,0,0,1-7.26.85,38,38,0,0,1-10.64-1.69l8.28-15a2.61,2.61,0,0,1,3.37-.67,8,8,0,0,1,1.35,1.18h0l8.11,14.69A28.89,28.89,0,0,0,205.65,214Zm20.6-14.69a32.26,32.26,0,0,1-10.13,10.14l-6.59-15.88a2.74,2.74,0,0,1,1.52-3.2,5,5,0,0,1,1.52-.34l16.89,2.87A25.47,25.47,0,0,1,226.25,199.35Z"/></g><path class="cls-4" d="M198.58,108.69a11.83,11.83,0,0,1,5.33,1.1L251,132.33l.07,0,.07,0a13.31,13.31,0,0,1,6.58,7.7l0,.12,0,.13,11.73,50.48.05.19,0,.18a14,14,0,0,1-2.46,9.79l-.06.09-.07.07-32.52,40.24a11.15,11.15,0,0,1-9,4.61c-.34,0-.68,0-1,0H172.59a14.58,14.58,0,0,1-9.31-4.23l-.12-.13-.12-.14-32.57-40.3-.06-.07-.06-.09a13.16,13.16,0,0,1-2.29-10l0-.08,0-.08L139.68,140a11.74,11.74,0,0,1,6.47-8l47.09-22.69.31-.16.34-.08a19.26,19.26,0,0,1,4.69-.41m0-3.72a22.65,22.65,0,0,0-5.59.52l-.34.09-.37.09-.34.17-.32.15-47.08,22.69a15.41,15.41,0,0,0-8.48,10.5L124.47,190l0,.09v.08l0,.09v.08a16.8,16.8,0,0,0,2.91,12.79l.06.08.06.09.07.09.06.07,32.58,40.31.12.14.12.15.14.13.12.13a18.32,18.32,0,0,0,11.73,5.32h52c.39,0,.78.05,1.17.05a14.79,14.79,0,0,0,11.89-6.05l32.48-40.18.07-.08.07-.09.06-.09.06-.08a17.68,17.68,0,0,0,3.13-12.38l0-.19,0-.2,0-.21-.05-.18L261.4,139.51l0-.13,0-.13,0-.13,0-.12a17,17,0,0,0-8.39-9.88l-.06,0-.07,0-.07,0-.06,0-47.07-22.54a15.57,15.57,0,0,0-7-1.48Z"/><path class="cls-10" d="M256.38,141.86l10.9,48a8.49,8.49,0,0,1,.4,1.85l.15,1.49a10.38,10.38,0,0,1-2.09,6.55L239,233"/></g></g></svg>
