<svg id="Layer_1" data-name="Layer 1" xmlns="http://www.w3.org/2000/svg" viewBox="14.22 14 282.24 234.99"><defs><style>.cls-1,.cls-11{fill:#fab533;}.cls-1,.cls-11,.cls-12{stroke:#b03831;}.cls-1,.cls-10,.cls-11,.cls-12,.cls-4,.cls-6,.cls-7,.cls-9{stroke-linecap:round;stroke-linejoin:round;}.cls-1{stroke-width:3.21px;}.cls-10,.cls-2,.cls-9{fill:#fff;}.cls-3{fill:#e5e5e4;}.cls-12,.cls-4,.cls-6{fill:none;}.cls-10,.cls-4,.cls-7,.cls-9{stroke:#3b2d55;}.cls-4{stroke-width:2.45px;}.cls-5{fill:#3b2d55;}.cls-6{stroke:#39b54a;stroke-width:3px;}.cls-7,.cls-8{fill:#57d1e5;}.cls-7,.cls-9{stroke-width:3.7px;}.cls-10{stroke-width:3.09px;}.cls-11,.cls-12{stroke-width:2.83px;}.cls-13{fill:#b03831;}</style></defs><title>scylla-manager-2</title><rect class="cls-1" x="175.17" y="103.86" width="95.88" height="128.33" rx="6.8" ry="6.8" transform="translate(94.63 -79.97) rotate(25.63)"/><polygon class="cls-2" points="236.08 236.97 177.86 209.04 170.19 182.62 210.95 97.67 285.7 133.53 236.08 236.97"/><polygon class="cls-3" points="177.93 209.07 170.19 182.62 186.8 190.59 177.93 209.07"/><rect class="cls-4" x="211.26" y="124.61" width="8.22" height="8.22" transform="translate(76.87 -80.5) rotate(25.63)"/><rect class="cls-5" x="242.48" y="120.83" width="4.07" height="43.75" rx="2.03" ry="2.03" transform="translate(10.08 301.43) rotate(-64.37)"/><rect class="cls-4" x="203.69" y="140.39" width="8.22" height="8.22" transform="translate(82.95 -75.67) rotate(25.63)"/><rect class="cls-5" x="234.91" y="136.61" width="4.07" height="43.75" rx="2.03" ry="2.03" transform="translate(-8.44 303.56) rotate(-64.37)"/><rect class="cls-4" x="196.12" y="156.17" width="8.22" height="8.22" transform="translate(89.03 -70.84) rotate(25.63)"/><rect class="cls-5" x="227.34" y="152.39" width="4.07" height="43.75" rx="2.03" ry="2.03" transform="matrix(0.43, -0.9, 0.9, 0.43, -26.96, 305.69)"/><rect class="cls-4" x="188.56" y="171.95" width="8.22" height="8.22" transform="translate(95.11 -66.02) rotate(25.63)"/><rect class="cls-5" x="219.77" y="168.17" width="4.07" height="43.75" rx="2.03" ry="2.03" transform="translate(-45.48 307.82) rotate(-64.37)"/><path class="cls-3" d="M268.86,130.86a1.51,1.51,0,0,1-.65-.15l-43.33-20.78a1.51,1.51,0,0,1-.7-2l4.81-10a6,6,0,0,1,5.41-3.4,6,6,0,0,1,2.59.59l8.28,4a.71.71,0,0,0,.31.08c.39,0,.74-.58.88-.83l.16-.31a9.59,9.59,0,0,1,17.31,8.23,1.46,1.46,0,0,1-.07.19,1.92,1.92,0,0,0-.26,1.25.56.56,0,0,0,.33.34l8.28,4a6,6,0,0,1,2.81,8l-4.81,10a1.5,1.5,0,0,1-.85.77A1.69,1.69,0,0,1,268.86,130.86ZM255.17,101a1.34,1.34,0,0,0-1.19.75,1.36,1.36,0,0,0-.06,1,1.34,1.34,0,0,0,.68.76,1.4,1.4,0,0,0,.57.13,1.33,1.33,0,0,0,.57-2.52A1.4,1.4,0,0,0,255.17,101Z"/><path class="cls-5" d="M255.1,94.41a8,8,0,0,1,3.5.8,8.09,8.09,0,0,1,3.88,10.6l0,0c-.94,2-.22,3.12.77,3.6h0l8.28,4a4.5,4.5,0,0,1,2.11,6l-4.81,10-43.33-20.78,4.81-10a4.5,4.5,0,0,1,6-2.11l8.28,4h0a2.23,2.23,0,0,0,1,.23A2.57,2.57,0,0,0,247.79,99h0v0c0-.07.07-.13.11-.21v0a8.11,8.11,0,0,1,7.2-4.39m.07,10.76a2.83,2.83,0,1,0-1.22-.28,2.81,2.81,0,0,0,1.22.28m7.34.6h0M255.1,91.41h0a11,11,0,0,0-9.77,5.84,1,1,0,0,0-.08.14l-7.61-3.65A7.43,7.43,0,0,0,234.4,93a7.53,7.53,0,0,0-6.76,4.26l-4.81,10a3,3,0,0,0-.13,2.29,3,3,0,0,0,1.53,1.71l43.33,20.79a3.08,3.08,0,0,0,1.3.29,2.79,2.79,0,0,0,1-.17,2.93,2.93,0,0,0,1.71-1.53l4.81-10a7.49,7.49,0,0,0-3.52-10l-7.6-3.65a2,2,0,0,0,.11-.26A11.1,11.1,0,0,0,255.1,91.41Z"/><rect class="cls-5" x="246.52" y="94.03" width="2.22" height="48.06" transform="translate(34.07 290.26) rotate(-64.37)"/><polyline class="cls-6" points="212.82 126.11 214.15 129.89 226.4 125.58"/><polyline class="cls-6" points="205.3 141.77 206.63 145.55 218.88 141.25"/><path class="cls-7" d="M139.63,230a11.43,11.43,0,0,0,22.43,4.33S183,136.16,183,116.06c0-42-33.34-71.62-80.26-71.62S22.46,74.08,22.46,116.06c0,20.1,20.91,118.24,20.91,118.24A11.43,11.43,0,0,0,65.8,230"/><path class="cls-8" d="M48.52,201.85l5.71,32a11.43,11.43,0,0,0,22.59-3.38"/><path class="cls-5" d="M49.74,201.63l1.72,8.29,1.65,8.3,1.61,8.31.79,4.16c.28,1.35.52,2.88.83,3.92A9.47,9.47,0,0,0,60.65,240a9.61,9.61,0,0,0,6.78,1.08,9.4,9.4,0,0,0,5.75-3.75,9.55,9.55,0,0,0,1.8-6.67,1.85,1.85,0,0,1,3.68-.43,13.38,13.38,0,0,1-2.34,9.34,13.28,13.28,0,0,1-23.54-3.88,41.44,41.44,0,0,1-.84-4.37l-.69-4.17-1.37-8.35-1.32-8.36-1.25-8.38a1.23,1.23,0,0,1,2.43-.43Z"/><circle class="cls-9" cx="129.88" cy="108.65" r="35.81"/><path class="cls-5" d="M122.47,85.19c6.18,1.24,7.41,14.82,3.71,18.52-2.43,2.44-7.41,3.25-7.41,4.94s5,2.51,7.41,4.94c3.7,3.7,2.47,17.29-3.71,18.52-7.36,1.48-18.52-7.41-18.52-23.46S115.11,83.72,122.47,85.19Z"/><path class="cls-10" d="M147.17,156.81c-1.23,3.7-4.94,9.88-9.88,8.64-2.39-.6-3.7-3.7-3.7-8.64"/><path class="cls-9" d="M115.07,154.34c-1.24,4.94-2.47,8.64-6.18,8.64s-8.64-4.94-7.41-13.58"/><path class="cls-5" d="M154.81,157.1a98.51,98.51,0,0,1-70.43-16A1.85,1.85,0,1,1,86.47,138h0a95.15,95.15,0,0,0,67.87,16.05,1.53,1.53,0,0,1,1.75,1.3A1.55,1.55,0,0,1,154.81,157.1Z"/><path class="cls-5" d="M81.26,143.53A10.66,10.66,0,0,1,84,137.35,11,11,0,0,1,90.11,134h0a1.86,1.86,0,0,1,.67,3.66l-.19,0a7.63,7.63,0,0,0-4.43,1.88,7.87,7.87,0,0,0-2.49,4.34h0a1.24,1.24,0,0,1-2.45-.35Z"/><path class="cls-8" d="M128.61,230.44a11.43,11.43,0,0,0,22.6,3.38l5.7-32"/><path class="cls-5" d="M130.45,230.67a9.63,9.63,0,0,0,1.79,6.66A9.55,9.55,0,0,0,144.78,240a9.63,9.63,0,0,0,4.32-5.4c.31-1,.55-2.56.82-3.92l.8-4.15,1.6-8.31,1.66-8.3,1.72-8.29a1.23,1.23,0,0,1,1.46-1,1.25,1.25,0,0,1,1,1.39l-1.25,8.38-1.32,8.36-1.37,8.35-.69,4.18a42.65,42.65,0,0,1-.85,4.37,13.34,13.34,0,0,1-5.93,7.58,13.14,13.14,0,0,1-9.53,1.6,13.28,13.28,0,0,1-10.42-14.66,1.85,1.85,0,0,1,3.68.44Z"/><path class="cls-8" d="M112.12,231.18a11.42,11.42,0,0,0,22.76,1.9l3.6-32"/><path class="cls-5" d="M114,231.28a9.57,9.57,0,0,0,18.83,2.82c.27-1,.39-2.55.58-3.93l.53-4.18,1.06-8.37,1.11-8.35,1.18-8.36a1.24,1.24,0,0,1,1.39-1,1.25,1.25,0,0,1,1.06,1.33l-.7,8.41-.78,8.39-.82,8.4-.42,4.19a34.51,34.51,0,0,1-.58,4.42,13.33,13.33,0,0,1-5.48,7.87,13.16,13.16,0,0,1-9.38,2.15,13.27,13.27,0,0,1-11.28-13.94,1.85,1.85,0,0,1,3.7.19Z"/><path class="cls-8" d="M67,201.05l3.6,32a11.43,11.43,0,0,0,22.77-1.9"/><path class="cls-5" d="M68.18,200.91l1.18,8.36,1.11,8.36L71.53,226l.52,4.18c.19,1.38.32,2.88.58,3.93a9.43,9.43,0,0,0,4,5.61,9.68,9.68,0,0,0,6.69,1.47,9.49,9.49,0,0,0,5.94-3.38,9.6,9.6,0,0,0,2.22-6.52,1.85,1.85,0,0,1,3.7-.2,13.42,13.42,0,0,1-2.93,9.15A13.27,13.27,0,0,1,69,235a38.06,38.06,0,0,1-.58-4.41l-.42-4.2L67.2,218l-.77-8.39-.71-8.41a1.24,1.24,0,0,1,2.46-.28Z"/><path class="cls-8" d="M90.37,200l.93,32.1a11.42,11.42,0,0,0,22.84,0l.93-32.1"/><path class="cls-5" d="M91.6,200c.49,8.28.92,16.56,1.24,24.84L93.1,231a15.73,15.73,0,0,0,.27,2.76,9,9,0,0,0,.9,2.42,9.59,9.59,0,0,0,16.89,0,9.61,9.61,0,0,0,.9-2.43,15.61,15.61,0,0,0,.27-2.75l.26-6.21c.32-8.28.75-16.56,1.24-24.84a1.24,1.24,0,0,1,2.47.07q0,12.44-.19,24.87l-.1,6.22a17,17,0,0,1-.3,3.42,13.15,13.15,0,0,1-1.22,3.4,13.46,13.46,0,0,1-4.87,5.23,12.62,12.62,0,0,1-3.32,1.46,12.81,12.81,0,0,1-3.59.5,13.31,13.31,0,0,1-13-10.59,17.8,17.8,0,0,1-.3-3.42l-.1-6.22q-.22-12.44-.19-24.87A1.23,1.23,0,0,1,91.6,200Z"/><path class="cls-11" d="M22.87,87.15A59.11,59.11,0,0,1,128.55,42.26s20.08-7.7,24.31-5.95c1.68.69,4.22,5.33,4.22,5.33L19.53,99.46s-2.34-5-1.78-7.22S22.87,87.15,22.87,87.15Z"/><line class="cls-12" x1="122.2" y1="44.92" x2="60.74" y2="70.76"/><path class="cls-11" d="M116.06,44.52c-13.59-21.21-35.19-32.1-52.42-24.86l-20,8.41c14.63-6.15,34,5.66,47,27.13"/><path class="cls-11" d="M28.21,51.67C30,40.3,35.28,31.58,43.64,28.07c14.63-6.15,34,5.66,47,27.13"/><path class="cls-13" d="M34.79,46.86c2.29-4.37,5.59-8.19,9.89-10.07a18.34,18.34,0,0,1,6.81-1.44,23.23,23.23,0,0,1,7,1.14,36.44,36.44,0,0,1,6.64,3,52.21,52.21,0,0,1,6.11,4.16A79.16,79.16,0,0,1,82,54a.69.69,0,0,0,1.09-.85A64.22,64.22,0,0,0,72.71,41.85a49.79,49.79,0,0,0-6.25-4.6l-1.71-1-.86-.47L63,35.4c-.6-.27-1.19-.56-1.79-.81l-1.87-.67a25.44,25.44,0,0,0-7.88-1.32,19.62,19.62,0,0,0-7.88,1.82,18.4,18.4,0,0,0-6.26,5,21.62,21.62,0,0,0-2.19,3.29,23.74,23.74,0,0,0-1.6,3.57h0a.69.69,0,0,0,1.26.55Z"/></svg>
