<svg width="200" height="200" viewBox="0 0 200 200" fill="none" xmlns="http://www.w3.org/2000/svg">
<path d="M147.946 191.992C147.081 195.819 143.672 198.453 139.866 198.453C139.42 198.453 138.969 198.416 138.516 198.342L138.469 198.332L137.658 198.139L138.234 197.549C139.472 196.317 140.37 194.825 140.834 193.232C141.093 192.309 141.217 191.522 141.337 190.759C141.391 190.418 141.446 190.077 141.509 189.727L143.189 179.557C143.934 174.947 144.641 170.375 145.29 165.968C145.33 165.687 145.143 165.421 144.864 165.362C144.574 165.302 144.285 165.488 144.223 165.779C143.303 170.118 142.374 174.653 141.466 179.252L139.507 189.379C139.443 189.695 139.381 190.021 139.321 190.345C139.169 191.153 139.012 191.988 138.824 192.613C138.297 194.348 137.153 195.884 135.602 196.936C135.435 197.05 135.264 197.162 135.089 197.261C134.219 197.767 133.262 198.104 132.243 198.263C131.234 198.423 130.215 198.4 129.218 198.194C128.126 197.974 127.047 197.496 126.099 196.813L125.728 196.545L125.99 196.171C126.743 195.098 127.273 193.926 127.563 192.688C127.78 191.738 127.856 190.918 127.927 190.126C127.957 189.802 127.987 189.479 128.026 189.153L129.04 178.935C129.484 174.272 129.89 169.681 130.244 165.29C130.266 165.008 130.063 164.753 129.781 164.712C129.639 164.692 129.496 164.728 129.38 164.815C129.263 164.9 129.188 165.027 129.168 165.169C128.535 169.528 127.906 174.094 127.298 178.741L126.005 188.934C125.963 189.243 125.925 189.556 125.888 189.865C125.783 190.724 125.684 191.535 125.522 192.181C125.339 192.929 125.038 193.655 124.629 194.343C124.044 195.325 123.238 196.191 122.301 196.848L122.225 196.902C122.175 196.941 122.124 196.977 122.07 197.012C120.407 198.107 118.296 198.569 116.285 198.275C114.304 197.998 112.425 196.937 111.134 195.365C110.82 194.993 110.533 194.579 110.284 194.137L110.18 193.953L110.25 193.753C110.407 193.315 110.543 192.841 110.651 192.347C110.858 191.428 110.873 190.363 110.882 189.66L110.964 184.608C111.077 178.568 111.131 171.962 111.126 164.409C111.126 164.123 110.9 163.887 110.614 163.871C110.319 163.858 110.06 164.08 110.042 164.378C109.597 171.917 109.268 178.516 109.033 184.552L108.817 189.712C108.779 190.581 108.752 191.209 108.589 191.922C108.393 192.753 108.138 193.438 107.809 194.019C107.794 194.047 107.77 194.087 107.745 194.124C106.282 196.746 103.374 198.42 100.493 198.357H100.37C97.4903 198.357 94.7145 196.716 93.2882 194.152C93.2414 194.081 93.2164 194.041 93.1947 193.998C92.7988 193.305 92.5734 192.527 92.4197 191.927C92.251 191.171 92.2243 190.509 92.1876 189.595L91.9754 184.55C91.7249 178.179 91.3926 171.582 90.9617 164.378C90.9433 164.094 90.7061 163.871 90.4205 163.871C90.1216 163.871 89.8777 164.112 89.8777 164.409C89.8627 171.603 89.9145 178.211 90.033 184.608L90.1132 189.66C90.1182 190.764 90.1967 191.643 90.3504 192.354C90.469 192.864 90.6026 193.326 90.7562 193.757L90.828 193.954L90.7245 194.139C90.4756 194.579 90.1884 194.993 89.871 195.369C88.59 196.926 86.7144 197.989 84.7269 198.282C82.7211 198.578 80.6133 198.112 78.9398 197.005C78.8881 196.972 78.8363 196.934 78.7862 196.896L78.711 196.841C77.7757 196.18 76.9724 195.314 76.3861 194.335C75.977 193.65 75.6713 192.924 75.4826 192.178C75.3172 191.538 75.2204 190.734 75.1168 189.883C75.0784 189.567 75.04 189.248 74.9982 188.936L73.7039 178.736C73.0959 174.081 72.4663 169.514 71.835 165.165C71.7932 164.886 71.5477 164.679 71.2554 164.705C71.1101 164.717 70.9798 164.783 70.8846 164.893C70.7911 165.003 70.746 165.142 70.7577 165.285C71.1118 169.666 71.5176 174.257 71.9619 178.932L72.9757 189.158C73.0141 189.483 73.0442 189.808 73.0742 190.137C73.146 190.925 73.2195 191.739 73.4416 192.688C73.7389 193.92 74.2701 195.088 75.0233 196.158L75.2872 196.532L74.9164 196.799C73.9694 197.484 72.8905 197.966 71.7932 198.192C70.7995 198.405 69.7756 198.43 68.7535 198.265C67.7447 198.102 66.7911 197.762 65.9209 197.256C65.7455 197.155 65.5752 197.042 65.4065 196.927C63.8683 195.879 62.7242 194.347 62.1831 192.608C61.991 191.992 61.8357 191.164 61.687 190.365C61.6253 190.033 61.5618 189.7 61.4966 189.379L59.5359 179.247C58.629 174.653 57.702 170.119 56.7801 165.775C56.72 165.499 56.4594 165.315 56.1722 165.353C55.8766 165.396 55.6711 165.671 55.7129 165.965C56.3626 170.38 57.069 174.953 57.8139 179.557L59.4958 189.733C59.5593 190.077 59.6144 190.42 59.6678 190.762C59.7864 191.522 59.91 192.309 60.1756 193.233C60.6515 194.824 61.5551 196.316 62.786 197.542L63.434 198.189L62.5271 198.33C58.1647 199.048 54.0243 196.266 53.0623 192.008C52.9905 191.673 49.9909 177.646 46.5287 160.268L46.522 160.276C49.5366 180.672 51.5241 192.168 51.5609 192.341V192.349L51.5692 192.379C51.6293 192.643 51.7045 192.916 51.8014 193.215C51.8247 193.288 51.8515 193.359 51.8765 193.433L51.8982 193.494C51.96 193.67 52.0268 193.841 52.097 194.009C52.1437 194.121 52.1938 194.232 52.2456 194.343C52.3108 194.481 52.3776 194.614 52.4477 194.747L52.4728 194.795C52.5295 194.903 52.5863 195.011 52.6481 195.116C52.6832 195.176 52.7183 195.231 52.7533 195.287L52.7834 195.335C52.9922 195.674 53.221 196 53.4615 196.301L53.4949 196.344C53.6202 196.499 53.7571 196.655 53.9258 196.838L53.9959 196.912C54.1529 197.079 54.3049 197.228 54.4603 197.373L54.4653 197.378C54.4653 197.378 54.4786 197.389 54.4853 197.396L54.4886 197.399C56.3225 199.074 58.6808 199.992 61.1426 199.992C61.6804 199.992 62.2232 199.947 62.7576 199.859L63.6512 199.719L66.5422 199.269C67.1685 199.508 67.8216 199.684 68.4946 199.792C69.0174 199.877 69.5485 199.92 70.0713 199.92C70.751 199.92 71.4324 199.849 72.0972 199.706C73.3899 199.438 74.6709 198.868 75.7916 198.059L76.1623 197.791L76.8321 197.308C77.1427 197.595 77.4718 197.863 77.8175 198.106L77.8776 198.149C77.9494 198.202 78.0246 198.257 78.0997 198.307C79.6613 199.339 81.5887 199.914 83.5161 199.914C83.9921 199.914 84.4681 199.879 84.934 199.811C87.289 199.465 89.512 198.207 91.0301 196.361C91.3759 195.952 91.6999 195.488 91.9871 194.993C93.684 197.979 96.9592 199.904 100.355 199.904H100.463C100.52 199.904 100.577 199.904 100.634 199.904C104.012 199.904 107.282 197.981 108.998 194.998C109.28 195.485 109.602 195.947 109.958 196.369C111.476 198.219 113.704 199.477 116.061 199.806C116.517 199.872 116.996 199.907 117.472 199.907C119.401 199.907 121.327 199.339 122.893 198.307C122.977 198.252 123.047 198.2 123.119 198.147L123.176 198.106C123.518 197.865 123.845 197.6 124.156 197.316L124.824 197.8L125.195 198.067C126.321 198.878 127.603 199.445 128.906 199.708C129.561 199.842 130.237 199.912 130.91 199.912C131.43 199.912 131.954 199.87 132.47 199.789C133.319 199.656 134.134 199.418 134.905 199.076L137.292 199.643L138.104 199.836L138.129 199.84L138.154 199.845L138.201 199.855L138.227 199.86L138.254 199.865C138.782 199.952 139.32 199.997 139.852 199.997C144.392 199.997 148.412 196.784 149.412 192.357C149.454 192.161 151.445 180.211 154.663 159.306C151.123 177.117 148.018 191.651 147.946 191.988V191.992Z" fill="#3B2D55"/>
<path d="M100.5 39C62.5238 39 36 62.5028 36 96.1526C36 105.504 41.7103 136.124 46.5237 160.273C49.9876 177.652 52.9855 191.678 53.0574 192.013C54.0194 196.269 58.158 199.053 62.5222 198.335L63.4291 198.194L62.7811 197.547C61.5501 196.321 60.6483 194.828 60.1706 193.238C59.9067 192.314 59.7831 191.528 59.6629 190.767C59.6094 190.423 59.5543 190.081 59.4908 189.738L57.809 179.562C57.0658 174.958 56.3576 170.385 55.7079 165.97C55.6645 165.676 55.8699 165.401 56.1672 165.358C56.4561 165.32 56.7167 165.504 56.7751 165.78C57.6971 170.124 58.624 174.658 59.5309 179.252L61.4917 189.384C61.5568 189.703 61.6203 190.038 61.6821 190.37C61.8324 191.169 61.9861 191.997 62.1781 192.613C62.7193 194.35 63.8633 195.882 65.4015 196.932C65.5702 197.047 65.7406 197.16 65.9159 197.261C66.7861 197.767 67.7398 198.107 68.7485 198.27C69.7707 198.436 70.7945 198.411 71.7882 198.197C72.8855 197.971 73.9645 197.487 74.9114 196.804L75.2822 196.537L75.0183 196.163C74.2651 195.093 73.734 193.924 73.4367 192.693C73.2162 191.744 73.1411 190.93 73.0693 190.142C73.0392 189.813 73.0091 189.486 72.9707 189.163L71.9569 178.937C71.5127 174.262 71.1068 169.671 70.7527 165.29C70.741 165.145 70.7861 165.008 70.8797 164.898C70.9732 164.788 71.1051 164.722 71.2504 164.71C71.5427 164.683 71.7882 164.89 71.83 165.17C72.4613 169.521 73.091 174.086 73.6989 178.741L74.9933 188.941C75.0367 189.253 75.0734 189.571 75.1119 189.888C75.2154 190.739 75.3123 191.543 75.4776 192.183C75.6664 192.929 75.972 193.655 76.3812 194.34C76.9674 195.317 77.7708 196.183 78.706 196.846L78.7812 196.901C78.833 196.939 78.8831 196.977 78.9349 197.01C80.6084 198.117 82.7144 198.581 84.722 198.287C86.7078 197.994 88.5851 196.931 89.8661 195.374C90.1834 194.998 90.4707 194.584 90.7195 194.144L90.8231 193.959L90.7513 193.762C90.5976 193.33 90.464 192.869 90.3454 192.359C90.1901 191.648 90.1133 190.769 90.1082 189.665L90.0281 184.613C89.9095 178.215 89.8577 171.608 89.8728 164.414C89.8728 164.117 90.1149 163.876 90.4156 163.876C90.7012 163.876 90.9383 164.1 90.9567 164.383C91.3876 171.587 91.72 178.186 91.9705 184.555L92.1826 189.6C92.2193 190.514 92.2461 191.176 92.4147 191.932C92.5667 192.53 92.7939 193.31 93.1897 194.003C93.2114 194.046 93.2365 194.084 93.2832 194.157C94.7095 196.721 97.4854 198.361 100.365 198.361H100.488C103.369 198.423 106.277 196.75 107.74 194.129C107.765 194.091 107.79 194.052 107.804 194.024C108.133 193.443 108.388 192.758 108.584 191.927C108.746 191.214 108.774 190.586 108.812 189.717L109.028 184.557C109.263 178.521 109.592 171.922 110.037 164.383C110.055 164.085 110.314 163.863 110.609 163.876C110.895 163.892 111.119 164.128 111.121 164.414C111.126 171.967 111.072 178.573 110.959 184.613L110.877 189.665C110.868 190.368 110.855 191.433 110.646 192.352C110.538 192.846 110.402 193.32 110.245 193.758L110.175 193.958L110.279 194.142C110.528 194.584 110.815 194.998 111.129 195.37C112.42 196.942 114.299 198.004 116.28 198.28C118.291 198.574 120.402 198.112 122.065 197.017C122.119 196.982 122.169 196.946 122.22 196.907L122.296 196.853C123.234 196.196 124.039 195.33 124.624 194.348C125.033 193.66 125.334 192.934 125.517 192.186C125.679 191.54 125.778 190.727 125.883 189.87C125.92 189.561 125.958 189.248 126 188.939L127.293 178.746C127.901 174.098 128.53 169.533 129.163 165.174C129.183 165.031 129.26 164.904 129.375 164.82C129.491 164.733 129.634 164.697 129.776 164.717C130.059 164.757 130.261 165.012 130.239 165.295C129.885 169.685 129.477 174.277 129.035 178.94L128.021 189.158C127.983 189.486 127.952 189.807 127.922 190.131C127.849 190.923 127.774 191.743 127.558 192.693C127.268 193.931 126.738 195.103 125.985 196.176L125.723 196.55L126.094 196.818C127.041 197.501 128.121 197.979 129.213 198.199C130.211 198.405 131.229 198.43 132.238 198.268C133.257 198.109 134.214 197.772 135.084 197.266C135.259 197.165 135.43 197.054 135.597 196.941C137.148 195.889 138.292 194.353 138.819 192.618C139.007 191.993 139.164 191.158 139.316 190.35C139.378 190.026 139.438 189.702 139.502 189.384L141.461 179.257C142.369 174.658 143.296 170.123 144.218 165.784C144.28 165.493 144.569 165.307 144.859 165.366C145.138 165.425 145.325 165.692 145.285 165.973C144.636 170.38 143.931 174.952 143.184 179.562L141.504 189.732C141.441 190.082 141.386 190.421 141.332 190.764C141.212 191.526 141.088 192.316 140.829 193.236C140.365 194.83 139.467 196.322 138.229 197.554L137.653 198.144L138.464 198.337L138.511 198.347C138.964 198.421 139.416 198.458 139.861 198.458C143.667 198.458 147.076 195.822 147.941 191.997C148.013 191.659 151.118 177.125 154.658 159.314C159.43 135.308 164.995 105.347 164.995 96.1576C165 62.5028 138.476 39 100.5 39Z" fill="#57D1E5"/>
<path d="M54.462 54.5662C42.8093 64.6682 36 79.1076 36 96.1527C36 112.231 52.8853 191.213 53.0574 192.014C53.4382 193.699 54.3233 195.148 55.5158 196.244C51.3271 176.301 37.9975 111.661 37.9975 96.6778C37.9975 79.8853 44.0017 65.3928 54.462 54.5662Z" fill="#93E1EF"/>
<path d="M83.2338 63.6694C67.7631 63.6694 55.175 76.1944 55.175 91.5876C55.175 106.981 67.7631 119.506 83.2338 119.506C98.7045 119.506 111.292 106.981 111.292 91.5876C111.292 76.1944 98.7045 63.6694 83.2338 63.6694Z" fill="#4D9BB6"/>
<path d="M52.3909 89.3342C52.3909 104.727 64.9789 117.252 80.4513 117.252C95.9236 117.252 108.51 104.727 108.51 89.3342C108.51 73.9409 95.922 61.4143 80.4513 61.4143C64.9806 61.4143 52.3909 73.9393 52.3909 89.3342Z" fill="url(#paint0_linear_26_3)"/>
<path d="M99.6014 89.743C99.1905 101.465 90.7729 107.667 85.405 106.404C80.9056 105.346 80.3461 95.3948 83.1603 92.7824C85.0092 91.0675 88.6802 90.6022 88.7253 89.3641C88.7687 88.1277 85.1378 87.4082 83.4142 85.5686C80.7903 82.7684 82.0446 72.8807 86.6075 72.1363C92.0506 71.2489 100.012 78.019 99.6014 89.7413" fill="#3B2D55"/>
<g opacity="0.15">
<path d="M94.0297 74.9114C96.4615 77.9558 98.1734 82.4177 97.9763 88.0113C97.5655 99.7337 89.1478 105.935 83.7799 104.673C83.4292 104.589 83.1035 104.447 82.7996 104.264C83.4376 105.351 84.301 106.145 85.4033 106.404C90.7712 107.669 99.1889 101.465 99.5997 89.7429C99.8369 82.9711 97.2799 77.8561 94.0281 74.9114" fill="#3B2D55"/>
</g>
<path d="M63.1919 128.75C80.2509 131.226 98.1417 126.994 112.231 117.139C114.19 115.841 116.204 118.663 114.287 120.069C106.82 125.139 98.3922 128.787 89.5921 130.766C80.8004 132.749 71.6429 133.064 62.7526 131.697C61.9359 131.57 61.3764 130.811 61.5017 129.998C61.6269 129.192 62.3818 128.637 63.1919 128.752" fill="#4D9BB6"/>
<path d="M114.204 121.799C113.723 119.544 111.668 117.779 109.409 117.699C107.039 117.533 107.194 114.068 109.572 114.115C111.498 114.369 113.29 115.39 114.539 116.776C115.608 117.802 117.956 122.411 115.475 122.75C114.863 122.798 114.322 122.379 114.204 121.797" fill="#4D9BB6"/>
<path d="M62.6273 127.491C79.6863 129.967 97.5771 125.734 111.667 115.88C113.626 114.582 115.64 117.404 113.723 118.81C106.255 123.88 97.8276 127.527 89.0275 129.507C80.2358 131.489 71.0783 131.805 62.188 130.437C61.3713 130.311 60.8118 129.551 60.9371 128.739C61.0623 127.933 61.8173 127.378 62.6273 127.492" fill="#3B2D55"/>
<path d="M113.639 120.539C113.158 118.284 111.104 116.519 108.844 116.44C106.474 116.274 106.629 112.809 109.008 112.855C110.933 113.109 112.726 114.13 113.975 115.516C115.044 116.543 117.392 121.153 114.91 121.49C114.299 121.538 113.758 121.119 113.639 120.538" fill="#3B2D55"/>
<defs>
<linearGradient id="paint0_linear_26_3" x1="108.51" y1="89.3342" x2="52.3909" y2="89.3342" gradientUnits="userSpaceOnUse">
<stop stop-color="#CECAD5"/>
<stop offset="0.66" stop-color="white"/>
<stop offset="1" stop-color="white"/>
</linearGradient>
</defs>
</svg>
