<svg width="200" height="200" viewBox="0 0 200 200" fill="none" xmlns="http://www.w3.org/2000/svg">
<g clip-path="url(#clip0_94_75)">
<path d="M113.893 190.871C113.079 194.645 109.675 197.234 105.975 197.234C102.275 197.234 105.087 197.234 104.643 197.16L103.829 196.938L104.421 196.346C105.605 195.163 106.493 193.683 106.937 192.055C107.159 191.167 107.307 190.353 107.455 189.613C107.455 189.243 107.529 188.947 107.603 188.577L109.231 178.514C109.971 174.001 110.637 169.487 111.303 165.122C111.303 164.826 111.155 164.604 110.859 164.53C110.563 164.53 110.267 164.678 110.193 164.974C109.305 169.265 108.343 173.705 107.455 178.292L105.531 188.281C105.531 188.577 105.383 188.947 105.383 189.243C105.235 190.057 105.087 190.871 104.865 191.463C104.347 193.165 103.237 194.719 101.683 195.754C101.535 195.902 101.387 195.976 101.165 196.05C100.277 196.568 99.3888 196.864 98.3527 197.012C97.3907 197.16 96.3547 197.16 95.3926 197.012C94.3566 196.79 93.2466 196.346 92.3586 195.68L91.9885 195.385L92.2106 195.015C92.9506 193.979 93.4686 192.795 93.7646 191.611C93.9866 190.649 94.0606 189.835 94.1346 189.095C94.1346 188.799 94.1346 188.429 94.2086 188.133L95.1706 178.07C95.6146 173.483 95.9847 168.969 96.3547 164.604C96.3547 164.308 96.2067 164.086 95.9107 164.012C95.7627 164.012 95.6146 164.012 95.5406 164.086C95.3926 164.16 95.3186 164.308 95.3186 164.456C94.7266 168.747 94.0606 173.261 93.4686 177.848L92.2106 187.911C92.2106 188.207 92.1365 188.503 92.0625 188.799C91.9885 189.613 91.8405 190.427 91.6925 191.093C91.5445 191.833 91.2485 192.573 90.8045 193.239C90.2125 194.201 89.4725 195.089 88.5104 195.68C88.5104 195.754 88.4364 195.828 88.3624 195.828C86.7344 196.938 84.6623 197.382 82.6642 197.086C80.7402 196.79 78.8901 195.754 77.6321 194.201C77.3361 193.831 77.0401 193.461 76.8181 193.017V192.869C76.7441 192.869 76.8181 192.647 76.8181 192.647C76.9661 192.203 77.1141 191.759 77.1881 191.241C77.4101 190.353 77.4101 189.317 77.4101 188.577V183.62C77.6321 177.626 77.6321 171.115 77.6321 163.716C77.6321 163.42 77.4101 163.198 77.1141 163.198C76.8181 163.198 76.5961 163.42 76.522 163.716C76.078 171.115 75.782 177.626 75.56 183.62L75.338 188.725C75.338 189.613 75.338 190.205 75.116 190.871C74.894 191.685 74.672 192.351 74.376 192.943C74.376 192.943 74.376 192.943 74.376 193.017C72.9699 195.606 70.0838 197.234 67.2718 197.16H67.1238C64.3117 197.16 61.5736 195.532 60.1675 193.017C60.1675 193.017 60.1675 192.943 60.0935 192.869C59.7235 192.203 59.5015 191.389 59.3535 190.797C59.2055 190.057 59.1315 189.391 59.1315 188.503L58.9095 183.546C58.6875 177.256 58.3175 170.745 57.9475 163.642C57.9475 163.346 57.7255 163.124 57.4295 163.124C57.1334 163.124 56.9114 163.346 56.9114 163.642C56.9114 170.745 56.9114 177.256 57.0594 183.546V188.503C57.1334 189.613 57.2075 190.427 57.3555 191.167C57.5035 191.685 57.5775 192.129 57.7255 192.573V192.795V192.943C57.5035 193.387 57.2074 193.757 56.9114 194.127C55.6534 195.68 53.8033 196.716 51.8793 197.012C49.8812 197.308 47.8092 196.864 46.1811 195.754C46.1811 195.754 46.1071 195.754 46.0331 195.68H45.9591C45.0711 194.941 44.257 194.127 43.665 193.165C43.295 192.499 42.999 191.759 42.777 191.019C42.629 190.353 42.555 189.613 42.407 188.725C42.407 188.429 42.333 188.133 42.259 187.763L41.0009 177.7C40.4089 173.113 39.8169 168.599 39.1509 164.308C39.1509 164.012 38.8549 163.864 38.5589 163.864C38.4109 163.864 38.2629 163.938 38.1888 164.086C38.1148 164.16 38.0408 164.308 38.0408 164.456C38.4109 168.747 38.7809 173.335 39.2249 177.922L40.1869 187.985C40.1869 188.281 40.1869 188.651 40.2609 188.947C40.2609 189.761 40.4089 190.501 40.6309 191.463C40.9269 192.647 41.445 193.831 42.185 194.867L42.407 195.237L42.037 195.533C41.0749 196.198 40.0389 196.716 39.0029 196.938C38.0408 197.16 37.0048 197.16 36.0428 196.938C35.0807 196.79 34.1187 196.42 33.2307 195.976C33.0827 195.902 32.8607 195.754 32.7127 195.68C31.2326 194.645 30.0486 193.165 29.5306 191.389C29.3086 190.797 29.1606 189.983 29.0126 189.169C29.0126 188.873 28.8646 188.503 28.7906 188.207L26.8665 178.218C25.9785 173.705 25.0904 169.191 24.1284 164.9C24.1284 164.604 23.8324 164.456 23.5364 164.456C23.2404 164.456 23.0184 164.752 23.0924 165.048C23.7584 169.413 24.4244 173.927 25.1644 178.44L26.7925 188.503C26.7925 188.873 26.9405 189.169 26.9405 189.539C27.0885 190.279 27.1625 191.093 27.4585 191.981C27.9025 193.535 28.7906 195.015 30.0486 196.198L30.7146 196.864L29.8266 197.012C25.5344 197.752 21.4643 194.941 20.5023 190.797C20.5023 190.501 17.4682 176.664 14.0641 159.498C17.0242 179.624 18.9482 190.945 19.0222 191.093C19.0222 191.389 19.1702 191.611 19.2443 191.907C19.2443 191.907 19.2443 192.055 19.3183 192.129C19.3183 192.351 19.4663 192.499 19.5403 192.721C19.5403 192.795 19.6143 192.943 19.6883 193.017C19.6883 193.165 19.8363 193.313 19.9103 193.387C19.9103 193.535 20.0583 193.683 20.0583 193.757C20.0583 193.757 20.0583 193.905 20.1323 193.905C20.3543 194.275 20.5763 194.571 20.7983 194.867C20.9463 195.089 21.0203 195.237 21.2423 195.385C21.3903 195.606 21.5383 195.754 21.6863 195.902C23.4624 197.53 25.8305 198.492 28.1985 198.492C30.5666 198.492 29.2346 198.492 29.7526 198.344L30.6406 198.196L33.4527 197.752C34.0447 197.974 34.7107 198.196 35.3768 198.27C35.8948 198.344 36.4128 198.418 36.9308 198.418C37.4488 198.418 38.2629 198.418 38.9289 198.196C40.1869 197.9 41.445 197.382 42.555 196.568L42.925 196.272L43.591 195.828C43.887 196.124 44.183 196.346 44.553 196.642C44.553 196.716 44.7011 196.79 44.7751 196.864C46.3291 197.9 48.1792 198.418 50.1032 198.418C52.0273 198.418 51.0653 198.418 51.5093 198.344C53.8033 197.974 56.0234 196.79 57.5035 194.941C57.8735 194.571 58.1695 194.053 58.4655 193.609C60.0935 196.568 63.3496 198.418 66.6797 198.418H66.7537H66.9017C70.2319 198.418 73.414 196.494 75.116 193.609C75.412 194.053 75.708 194.571 76.078 194.941C77.5581 196.79 79.7782 197.974 82.0722 198.344C82.5162 198.344 82.9603 198.418 83.4783 198.418C85.4023 198.418 87.2524 197.826 88.8064 196.864C88.8804 196.864 88.9544 196.79 89.0285 196.716C89.3985 196.42 89.6945 196.198 89.9905 195.902L90.6565 196.346L91.0265 196.642C92.1365 197.456 93.3946 197.974 94.6526 198.27C95.3186 198.418 95.9847 198.492 96.6507 198.492C97.3167 198.492 97.6867 198.492 98.2047 198.344C99.0188 198.196 99.8328 197.974 100.573 197.678L102.941 198.27L103.755 198.492C104.273 198.566 104.791 198.64 105.309 198.64C109.749 198.64 113.745 195.459 114.707 191.093C114.707 190.871 116.705 179.106 119.887 158.462C116.409 175.998 113.375 190.353 113.301 190.723L113.893 190.871Z" fill="#3B2D55"/>
<path d="M67.272 40C30.0488 40 4 63.2337 4 96.3824C4 129.531 9.62418 135.821 14.3603 159.646C17.7644 176.812 20.7245 190.649 20.7985 190.945C21.7606 195.163 25.8307 197.9 30.1228 197.16L31.0108 197.012L30.3448 196.347C29.1608 195.163 28.2728 193.683 27.7547 192.129C27.4587 191.241 27.3847 190.427 27.2367 189.687C27.2367 189.317 27.1627 189.021 27.0887 188.651L25.4607 178.588C24.7206 174.075 24.0546 169.561 23.3886 165.196C23.3886 164.9 23.5366 164.604 23.8326 164.604C24.1286 164.604 24.3506 164.752 24.4246 165.048C25.3127 169.339 26.2747 173.779 27.1627 178.366L29.0868 188.355C29.0868 188.651 29.2348 189.021 29.3088 189.317C29.4568 190.131 29.6048 190.945 29.8268 191.537C30.3448 193.239 31.4549 194.793 33.0089 195.829C33.1569 195.977 33.3049 196.051 33.5269 196.125C34.4149 196.642 35.303 196.938 36.339 197.086C37.375 197.234 38.3371 197.234 39.2991 197.086C40.4091 196.864 41.4452 196.421 42.3332 195.681L42.7032 195.385L42.4812 195.015C41.7412 193.979 41.2232 192.795 40.9272 191.611C40.7051 190.649 40.6311 189.909 40.5571 189.095C40.5571 188.799 40.5571 188.429 40.4831 188.133L39.5211 178.07C39.0771 173.483 38.7071 168.895 38.3371 164.604C38.3371 164.456 38.3371 164.308 38.4851 164.234C38.5591 164.16 38.7071 164.086 38.8551 164.012C39.1511 164.012 39.3731 164.16 39.4471 164.456C40.0391 168.747 40.7051 173.261 41.2972 177.848L42.5552 187.911C42.5552 188.207 42.6292 188.503 42.7032 188.873C42.7772 189.687 42.9252 190.501 43.0732 191.167C43.2952 191.907 43.5912 192.647 43.9612 193.313C44.5533 194.275 45.2933 195.163 46.2553 195.755H46.3293C46.3293 195.829 46.4033 195.903 46.4773 195.903C48.1054 197.012 50.1774 197.456 52.1755 197.16C54.0996 196.864 55.9496 195.829 57.2077 194.275C57.5037 193.905 57.7997 193.461 58.0217 193.091V192.943C58.0957 192.943 58.0217 192.721 58.0217 192.721C57.8737 192.277 57.7257 191.833 57.6517 191.315C57.5037 190.649 57.4297 189.761 57.4297 188.651V183.694C57.2077 177.404 57.2077 170.893 57.2077 163.79C57.2077 163.494 57.4297 163.272 57.7257 163.272C58.0217 163.272 58.2437 163.494 58.2437 163.79C58.6877 170.893 58.9837 177.404 59.2057 183.694L59.4277 188.651C59.4277 189.539 59.4277 190.205 59.6497 190.945C59.7977 191.537 60.0197 192.277 60.3898 193.017C60.3898 193.017 60.3898 193.091 60.4638 193.165C61.8698 195.681 64.6079 197.308 67.42 197.308H67.568C70.3801 197.308 73.2662 195.755 74.6722 193.165V193.091C74.9682 192.499 75.2642 191.833 75.4122 191.019C75.5602 190.353 75.6342 189.687 75.6342 188.873L75.8562 183.768C76.0783 177.848 76.3743 171.337 76.8183 163.864C76.8183 163.568 77.1143 163.346 77.4103 163.346C77.7063 163.346 77.9283 163.568 77.9283 163.864C77.9283 171.337 77.9283 177.848 77.7803 183.768V188.725C77.7063 189.391 77.7063 190.501 77.4843 191.389C77.4103 191.907 77.2623 192.351 77.1143 192.795V193.017V193.165C77.3363 193.609 77.6323 193.979 77.9283 194.349C79.1863 195.903 81.0364 196.938 82.9605 197.234C84.9585 197.53 87.0306 197.086 88.6586 195.977C88.6586 195.977 88.7326 195.977 88.8066 195.903C89.6947 195.237 90.5087 194.349 91.1007 193.387C91.4707 192.721 91.7667 191.981 91.9887 191.241C92.1367 190.575 92.2108 189.835 92.3588 188.947C92.3588 188.651 92.3588 188.355 92.5068 188.059L93.7648 177.996C94.3568 173.409 94.9488 168.895 95.6149 164.604C95.6149 164.456 95.6889 164.308 95.8369 164.234C95.9849 164.16 96.0589 164.086 96.2069 164.16C96.5029 164.16 96.6509 164.456 96.6509 164.752C96.2809 169.117 95.9109 173.631 95.4669 178.218L94.5048 188.281C94.5048 188.577 94.5048 188.947 94.4308 189.243C94.4308 190.057 94.2828 190.797 94.0608 191.759C93.7648 193.017 93.2468 194.127 92.5068 195.163L92.2848 195.533L92.6548 195.829C93.6168 196.495 94.6528 196.938 95.6889 197.16C96.6509 197.382 97.6869 197.382 98.649 197.16C99.685 197.012 100.573 196.643 101.461 196.199C101.609 196.125 101.831 195.977 101.979 195.903C103.533 194.867 104.643 193.387 105.161 191.611C105.309 191.019 105.531 190.205 105.679 189.391C105.679 189.095 105.827 188.725 105.827 188.429L107.751 178.44C108.639 173.927 109.527 169.413 110.489 165.122C110.489 164.826 110.859 164.678 111.155 164.678C111.451 164.678 111.599 164.974 111.599 165.27C110.933 169.635 110.267 174.149 109.527 178.662L107.899 188.725C107.899 189.095 107.751 189.391 107.751 189.761C107.603 190.501 107.529 191.315 107.233 192.203C106.789 193.757 105.901 195.237 104.717 196.495L104.125 197.086L104.939 197.308C105.383 197.382 105.827 197.456 106.271 197.456C109.971 197.456 113.375 194.867 114.189 191.093C114.189 190.723 117.298 176.443 120.776 158.832C125.438 135.155 130.914 105.632 130.914 96.5304C130.914 63.3077 104.865 40.148 67.642 40.148L67.272 40Z" fill="#57D1E5"/>
<path d="M50.2514 64.3435C35.0809 64.3435 22.7965 76.7003 22.7965 91.7948C22.7965 106.889 35.1549 119.246 50.2514 119.246C65.3478 119.246 77.7062 106.889 77.7062 91.7948C77.7062 76.7003 65.3478 64.3435 50.2514 64.3435Z" fill="#4D9BB6"/>
<path d="M20.0583 89.6489C20.0583 104.817 32.4167 117.1 47.5132 117.1C62.6097 117.1 74.9681 104.743 74.9681 89.6489C74.9681 74.5544 62.6097 62.1976 47.5132 62.1976C32.4167 62.1976 20.0583 74.5544 20.0583 89.6489Z" fill="url(#paint0_linear_94_75)"/>
<path d="M66.3101 90.0192C65.9401 101.562 57.6519 107.629 52.3977 106.446C47.9575 105.41 47.4395 95.6426 50.1776 93.0529C51.9537 91.351 55.5798 90.9071 55.6538 89.7232C55.6538 88.5393 52.1757 87.7994 50.4736 85.9496C47.8835 83.2118 49.1416 73.4448 53.5817 72.7049C58.9099 71.817 66.6801 78.4763 66.3101 90.0192Z" fill="#3B2D55"/>
<g opacity="0.1">
<path d="M60.8337 75.4425C63.2018 78.4762 64.9038 82.8418 64.6818 88.3172C64.3118 99.8601 56.0236 105.927 50.7694 104.744C50.3994 104.67 50.1034 104.522 49.8074 104.374C50.3994 105.41 51.2874 106.223 52.3235 106.445C57.5776 107.703 65.7919 101.562 66.2359 90.0191C66.4579 83.3597 63.9418 78.3282 60.7597 75.4425" fill="#3B2D55"/>
</g>
<path d="M22.1306 55.3904C10.6602 65.3054 4 79.586 4 96.3823C4 113.179 20.5765 190.131 20.7245 190.945C21.0945 192.573 21.9826 194.053 23.1666 195.089C19.0225 175.407 5.99806 111.699 5.99806 96.9003C5.99806 82.1017 11.9182 66.0453 22.1306 55.3904Z" fill="#93E1EF"/>
<path d="M53.3595 131.159C63.9418 130.049 74.0801 125.166 81.4064 117.47C83.8484 114.955 85.9945 112.143 87.8446 109.183C88.5106 108.147 89.9166 107.777 90.9527 108.443C91.9887 109.109 92.2847 110.367 91.6927 111.403C87.9186 118.21 82.1464 123.834 75.4862 127.755C68.826 131.677 61.2037 133.897 53.5075 134.119C51.5834 134.119 51.4354 131.381 53.2855 131.159" fill="#4D9BB6"/>
<path d="M51.8796 130.937C62.4619 129.827 72.6003 124.943 79.9265 117.248C82.3686 114.732 84.5146 111.92 86.3647 108.961C87.0307 107.925 88.4368 107.555 89.4728 108.221C90.5088 108.887 90.8048 110.145 90.2128 111.18C86.4387 117.988 80.6665 123.611 74.0063 127.533C67.3461 131.454 59.7239 133.674 52.0276 133.896C50.1036 133.896 49.9556 131.159 51.8056 130.937" fill="#3B2D55"/>
<path d="M136.538 200.268V95.2725H107.307V200.268H136.538Z" fill="#7772AF"/>
<path d="M128.842 162.828V106.889H114.93V162.828H128.842Z" fill="#EAEAE9"/>
<path d="M121.886 190.575C125.155 190.575 127.806 187.925 127.806 184.656C127.806 181.387 125.155 178.736 121.886 178.736C118.616 178.736 115.966 181.387 115.966 184.656C115.966 187.925 118.616 190.575 121.886 190.575Z" fill="#392C54"/>
<path d="M165.769 200.342V95.3466H136.538V200.342H165.769Z" fill="#FAB533"/>
<path d="M158.073 162.754V106.815H144.161V162.754H158.073Z" fill="#EAEAE9"/>
<path d="M151.117 190.575C154.387 190.575 157.037 187.925 157.037 184.656C157.037 181.387 154.387 178.736 151.117 178.736C147.847 178.736 145.197 181.387 145.197 184.656C145.197 187.925 147.847 190.575 151.117 190.575Z" fill="#392C54"/>
<path d="M195 200.268V95.2725H165.769V200.268H195Z" fill="#B03831"/>
<path d="M187.304 162.754V106.815H173.392V162.754H187.304Z" fill="#EAEAE9"/>
<path d="M180.348 190.575C183.617 190.575 186.268 187.925 186.268 184.656C186.268 181.387 183.617 178.736 180.348 178.736C177.078 178.736 174.428 181.387 174.428 184.656C174.428 187.925 177.078 190.575 180.348 190.575Z" fill="#392C54"/>
<path d="M107.307 95.2725L99.759 99.712C99.389 99.934 99.167 100.304 99.167 100.674V195.977C99.167 196.42 99.463 196.864 99.833 197.012L107.233 200.194V95.2725H107.307Z" fill="#392C54"/>
</g>
<defs>
<linearGradient id="paint0_linear_94_75" x1="75.0421" y1="89.6489" x2="20.0583" y2="89.6489" gradientUnits="userSpaceOnUse">
<stop stop-color="#CECAD5"/>
<stop offset="0.7" stop-color="white"/>
<stop offset="1" stop-color="white"/>
</linearGradient>
<clipPath id="clip0_94_75">
<rect width="200" height="200" fill="white"/>
</clipPath>
</defs>
</svg>
