<svg width="200" height="200" viewBox="0 0 200 200" fill="none" xmlns="http://www.w3.org/2000/svg">
<g clip-path="url(#clip0_36_1586)">
<path d="M35.3033 162.653C35.3937 171.527 35.8071 186.414 35.8657 187.605C35.8657 187.605 35.869 187.725 35.8824 187.94C35.931 188.956 35.9745 189.736 36.2875 191.065C36.6541 192.617 37.3587 193.664 38.6995 195.495C39.6719 196.824 41.4763 198.333 43.7577 198.353H43.8314C44.4172 198.353 45.0265 198.28 45.6926 198.13C45.9404 198.075 46.1379 197.889 46.2082 197.648C46.2802 197.405 46.2132 197.144 46.0358 196.966C45.4784 196.4 44.9863 195.783 44.5762 195.131C43.7192 193.739 43.2154 192.135 43.125 190.496C43.1083 190.154 43.1167 189.779 43.125 189.417L43.13 189.244L43.3761 185.912C43.515 183.869 43.6941 181.795 43.8682 179.788C43.9502 178.84 44.0322 177.894 44.1109 176.945L44.1142 176.906C44.3954 173.988 44.685 170.97 45.0516 168.014C45.07 167.868 45.1955 167.758 45.3445 167.758H45.3462C45.5069 167.758 45.6374 167.891 45.6374 168.051C45.619 171.045 45.5186 174.088 45.4198 177.032C45.3763 177.967 45.3345 178.913 45.2943 179.86C45.2072 181.873 45.1185 183.956 44.993 185.998L44.8039 189.685C44.8039 189.924 44.8039 190.154 44.8189 190.392C44.9378 191.789 45.3629 193.115 46.0458 194.243C46.779 195.412 47.7732 196.397 48.9265 197.099C50.0697 197.789 51.4054 198.217 52.7896 198.342C52.803 198.342 52.8147 198.343 52.8264 198.345C54.748 198.45 56.6812 197.879 58.268 196.733C58.5793 196.508 58.6496 196.076 58.4253 195.765C58.1508 195.384 57.9182 195.021 57.7173 194.66C56.9457 193.268 56.5323 191.661 56.5205 190.012C56.5038 189.735 56.5272 189.47 56.554 189.189C56.5674 189.041 56.5808 188.891 56.5892 188.745C56.6143 188.532 56.6511 188.309 56.6879 188.086C56.7097 187.955 56.7314 187.823 56.7515 187.687L57.0997 185.496C57.416 183.43 57.7776 181.337 58.1257 179.311C58.2747 178.446 58.4237 177.581 58.5693 176.716C59.1585 173.484 59.6556 170.782 60.2464 167.992C60.2766 167.848 60.4138 167.745 60.5595 167.761C60.7201 167.775 60.8407 167.918 60.8256 168.077C60.5544 171.123 60.1929 174.192 59.8749 176.901C59.761 177.761 59.6506 178.629 59.5401 179.496C59.2807 181.53 59.0128 183.631 58.7116 185.691L58.4019 187.895C58.3852 188.024 58.3668 188.151 58.3483 188.277C58.3115 188.532 58.2747 188.785 58.2546 189.011C58.2529 189.029 58.2513 189.051 58.2513 189.069C58.2513 189.171 58.2429 189.269 58.2345 189.367C58.2195 189.568 58.2011 189.796 58.2278 190.049C58.2764 191.416 58.6279 192.751 59.2438 193.86C59.9067 195.061 60.8323 196.091 61.9219 196.836C63.0066 197.583 64.3021 198.09 65.6646 198.3C69.4591 198.746 73.0109 196.706 74.5241 193.225C74.591 193.07 74.5994 192.895 74.5475 192.734C74.1876 191.636 74.0253 190.452 74.0755 189.309C74.0738 188.974 74.1224 188.642 74.1726 188.289L74.2044 188.064C74.2261 187.876 74.2596 187.745 74.2964 187.594L74.9894 184.879C75.6974 182.147 76.4925 179.286 77.3528 176.375C78.1077 173.83 78.9998 170.872 80.0527 167.982C80.1012 167.849 80.2368 167.765 80.3807 167.793C80.4862 167.809 80.5448 167.874 80.5732 167.913C80.6 167.949 80.6402 168.027 80.6234 168.132C80.1096 171.16 79.425 174.154 78.8241 176.724C78.1362 179.652 77.4147 182.518 76.6783 185.243L75.9502 187.89C75.8882 188.103 75.8263 188.314 75.8096 188.509C75.8029 188.55 75.7878 188.628 75.7744 188.708C75.7359 188.923 75.6941 189.164 75.689 189.44C75.6204 190.463 75.7141 191.471 75.9719 192.4C75.9887 192.461 76.0154 192.519 76.0489 192.574C76.059 192.592 76.069 192.611 76.079 192.627C76.1025 192.664 76.1125 192.682 76.1226 192.701C76.1393 192.732 76.1527 192.756 76.1627 192.782C76.1678 192.795 76.1795 192.819 76.1895 192.839C77.2323 195.618 79.589 197.623 82.4998 198.205C85.6348 198.831 88.9423 197.606 90.9241 195.078C91.2722 194.602 91.5819 194.096 91.8564 193.559C91.8698 193.534 91.8815 193.506 91.8899 193.479C91.9284 193.374 91.9719 193.273 92.0154 193.171C92.1058 192.957 92.2079 192.714 92.2732 192.439L92.5745 191.358L92.9327 190.041C93.2356 188.928 93.5469 187.777 93.875 186.652C94.6634 183.874 95.5505 180.893 96.6703 177.265C97.5942 174.221 98.6136 171.09 99.7032 167.957C99.7518 167.818 99.8991 167.736 100.041 167.768C100.145 167.789 100.202 167.856 100.225 167.894C100.251 167.933 100.289 168.011 100.266 168.114C99.5677 171.354 98.8144 174.557 98.0261 177.629C97.1005 181.304 96.3121 184.308 95.5421 187.09C95.2425 188.204 94.9178 189.329 94.6031 190.417L94.034 192.375L93.8231 193.018C93.7378 193.309 93.6122 193.584 93.4783 193.875C93.4231 194 93.3662 194.123 93.3126 194.246C93.1871 194.479 93.0548 194.707 92.9176 194.933C92.7519 195.201 92.7904 195.547 93.0097 195.775C94.0541 196.859 95.3697 197.65 96.8126 198.057C99.8371 198.879 103.171 197.931 105.317 195.645C105.503 195.474 105.677 195.247 105.831 195.048C105.895 194.966 105.957 194.883 106.024 194.805C106.045 194.78 106.064 194.753 106.08 194.725C106.137 194.632 106.198 194.54 106.258 194.451C106.395 194.246 106.534 194.035 106.653 193.79C106.819 193.509 106.936 193.221 107.051 192.943L107.125 192.767L109.324 186.812L112.915 177.338C114.153 174.146 115.372 171.02 116.644 167.928C116.701 167.791 116.858 167.718 117.002 167.76C117.156 167.806 117.243 167.969 117.196 168.122C116.215 171.293 115.206 174.359 114.081 177.752L110.822 187.339L108.685 193.411C108.526 193.818 108.375 194.203 108.178 194.559C107.96 194.99 107.709 195.399 107.418 195.8C107.19 196.109 107.26 196.545 107.572 196.771C108.261 197.27 108.993 197.655 109.749 197.917C109.965 197.992 110.185 198.049 110.402 198.107C113.286 198.819 116.487 197.929 118.562 195.84C119.161 195.218 119.618 194.615 119.973 193.988C120.06 193.855 120.119 193.727 120.172 193.612C120.194 193.562 120.216 193.514 120.243 193.466L120.294 193.359C120.366 193.215 120.438 193.065 120.517 192.872L123.075 186.9L127.264 177.373L129.398 172.629L131.583 167.906C131.646 167.77 131.807 167.703 131.951 167.755C132.102 167.811 132.179 167.979 132.122 168.129L130.282 173.001L128.394 177.845L124.534 187.507L122.065 193.519C121.992 193.709 121.89 193.928 121.789 194.143C121.754 194.213 121.716 194.296 121.677 194.381C121.615 194.517 121.558 194.645 121.493 194.748C121.064 195.549 120.505 196.287 119.762 197.049L119.699 197.107C119.513 197.289 119.443 197.558 119.52 197.806C119.595 198.054 119.804 198.24 120.06 198.287C120.572 198.382 121.079 198.43 121.578 198.43C124.65 198.43 127.412 196.641 129.315 193.361L129.792 192.548C133.134 186.863 137.876 178.444 142.801 168.553C141.852 170.746 140.703 173.374 139.209 176.708C135.456 185.073 133.707 189.006 131.158 193.341L131.129 193.389L130.682 194.153C130.667 194.178 130.649 194.208 130.63 194.238L130.627 194.244C130.535 194.401 130.438 194.559 130.339 194.712C130.292 194.785 130.245 194.857 130.197 194.928C130.118 195.046 130.039 195.161 129.959 195.276C129.88 195.387 129.798 195.5 129.713 195.613C129.634 195.718 129.556 195.823 129.475 195.923C129.387 196.034 129.296 196.142 129.213 196.241C129.177 196.281 129.146 196.319 129.114 196.355C127.042 198.741 124.435 200.002 121.578 200.002C120.981 200.002 120.371 199.945 119.767 199.832C119.749 199.829 119.732 199.822 119.714 199.819V199.822C118.519 199.534 117.635 199.097 117.171 198.771C115.722 199.513 114.086 199.917 112.416 199.917C111.602 199.917 110.797 199.82 110.022 199.629H110.012L110.002 199.624C109.783 199.568 109.51 199.496 109.231 199.4C108.328 199.085 107.458 198.628 106.643 198.041C106.343 197.823 106.112 197.546 105.953 197.239C104.087 198.952 101.6 199.922 99.022 199.922C98.1315 199.922 97.2494 199.805 96.4008 199.574H96.3924L96.3841 199.569C94.6718 199.085 93.1118 198.149 91.8715 196.863C91.7995 196.79 91.7342 196.711 91.6756 196.63C89.7625 198.714 86.999 199.939 84.1385 199.939C83.484 199.939 82.8279 199.874 82.1885 199.747C79.3011 199.168 76.8724 197.41 75.4313 194.923C73.6353 198.002 70.3228 199.935 66.6973 199.935C66.2923 199.935 65.8822 199.91 65.4771 199.864L65.4487 199.86L65.4202 199.855C63.8217 199.609 62.2985 199.014 61.0164 198.13C60.618 197.858 60.2381 197.553 59.8799 197.22C59.7225 197.523 59.4932 197.796 59.197 198.009C57.4763 199.25 55.374 199.934 53.2767 199.934C53.0976 199.934 52.9168 199.929 52.7377 199.919H52.7026L52.6791 199.914L52.6457 199.91C51.151 199.777 49.7048 199.333 48.4344 198.633C47.5757 199.213 46.7388 199.601 45.4667 199.786C45.4299 199.791 45.3964 199.794 45.3629 199.799C44.8323 199.885 44.3251 199.932 43.828 199.932H43.8029H43.7343C41.0311 199.907 39.2635 198.939 37.6048 196.818C35.4523 194.058 34.9652 191.531 35.002 188.768V187.604C35.002 179.853 35.2514 171.537 35.3016 162.651L35.3033 162.653Z" fill="#3B2D55"/>
<path d="M35.3033 162.652C35.3937 171.527 35.864 180.133 35.8657 187.605C35.8071 186.414 35.3937 171.529 35.3033 162.652Z" fill="#57D1E5"/>
<path d="M35.2899 96.3297C35.2899 80.1055 41.7709 65.4582 53.5378 55.0845C65.303 44.7125 81.8955 39 100.257 39C118.604 39 135.156 44.7125 146.863 55.0829C158.558 65.4432 164.999 80.0922 164.999 96.3297C164.999 118.767 153.469 147.115 142.796 168.55C137.871 178.439 133.129 186.858 129.787 192.544L129.31 193.358C127.408 196.64 124.645 198.426 121.573 198.426C121.074 198.426 120.567 198.378 120.055 198.283C119.799 198.235 119.59 198.05 119.514 197.802C119.437 197.555 119.508 197.285 119.694 197.104L119.757 197.046C120.5 196.285 121.059 195.545 121.488 194.745C121.553 194.64 121.612 194.512 121.672 194.377C121.711 194.292 121.749 194.209 121.784 194.139C121.885 193.925 121.988 193.705 122.06 193.516L124.529 187.504L128.389 177.842L130.277 172.998L132.117 168.125C132.174 167.976 132.097 167.808 131.946 167.751C131.802 167.7 131.641 167.764 131.578 167.902L129.393 172.625L127.259 177.37L123.07 186.896L120.512 192.869C120.433 193.061 120.36 193.21 120.289 193.356L120.238 193.462C120.212 193.511 120.189 193.561 120.167 193.609C120.114 193.724 120.055 193.852 119.968 193.985C119.613 194.61 119.156 195.214 118.557 195.836C116.482 197.924 113.281 198.816 110.397 198.104C110.18 198.047 109.96 197.989 109.744 197.914C108.99 197.651 108.256 197.265 107.567 196.768C107.255 196.542 107.185 196.107 107.413 195.796C107.706 195.395 107.955 194.988 108.173 194.555C108.37 194.199 108.521 193.815 108.68 193.407L110.817 187.336L114.076 177.749C115.201 174.355 116.21 171.289 117.191 168.119C117.238 167.964 117.151 167.803 116.997 167.756C116.853 167.714 116.697 167.786 116.639 167.924C115.367 171.017 114.15 174.142 112.91 177.335L109.319 186.808L107.12 192.764L107.046 192.94C106.932 193.22 106.814 193.506 106.648 193.787C106.529 194.031 106.39 194.243 106.253 194.447C106.193 194.537 106.132 194.629 106.075 194.722C106.059 194.75 106.039 194.777 106.019 194.802C105.953 194.881 105.89 194.963 105.826 195.044C105.67 195.244 105.496 195.469 105.312 195.642C103.166 197.929 99.8321 198.877 96.8075 198.054C95.3647 197.646 94.0508 196.856 93.0046 195.771C92.7854 195.543 92.7469 195.199 92.9126 194.93C93.0498 194.703 93.1821 194.475 93.3076 194.243C93.3612 194.119 93.4181 193.996 93.4733 193.872C93.6072 193.58 93.7327 193.306 93.8181 193.015L94.029 192.371L94.5981 190.413C94.9128 189.325 95.2375 188.201 95.5371 187.086C96.3071 184.305 97.0954 181.3 98.0211 177.626C98.8094 174.555 99.5626 171.353 100.261 168.11C100.282 168.007 100.244 167.929 100.22 167.891C100.195 167.853 100.14 167.786 100.036 167.764C99.8941 167.733 99.7451 167.814 99.6982 167.954C98.6102 171.086 97.5909 174.217 96.6653 177.261C95.5455 180.89 94.6584 183.871 93.87 186.649C93.5419 187.773 93.2306 188.924 92.9276 190.037L92.5695 191.355L92.2682 192.436C92.2029 192.712 92.1008 192.955 92.0104 193.168C91.9669 193.269 91.9234 193.371 91.8849 193.476C91.8748 193.502 91.8631 193.531 91.8514 193.556C91.5769 194.093 91.2672 194.599 90.9191 195.074C88.9373 197.603 85.6298 198.826 82.4948 198.202C79.584 197.618 77.2273 195.615 76.1845 192.835C76.1745 192.815 76.1627 192.794 76.1577 192.779C76.146 192.754 76.1343 192.729 76.1175 192.697C76.1075 192.679 76.0975 192.661 76.074 192.624C76.064 192.607 76.0523 192.589 76.0439 192.571C76.0104 192.516 75.9853 192.458 75.9669 192.396C75.7091 191.468 75.6154 190.46 75.684 189.437C75.6874 189.161 75.7309 188.918 75.7694 188.705C75.7828 188.625 75.7978 188.547 75.8045 188.505C75.8213 188.31 75.8832 188.098 75.9451 187.886L76.6733 185.24C77.4097 182.515 78.1311 179.649 78.8191 176.721C79.42 174.151 80.1029 171.155 80.6184 168.129C80.6368 168.024 80.595 167.946 80.5682 167.909C80.5414 167.873 80.4812 167.808 80.3757 167.789C80.2335 167.761 80.0962 167.846 80.0477 167.979C78.9948 170.869 78.1027 173.826 77.3478 176.371C76.4891 179.283 75.6941 182.144 74.9844 184.875L74.2914 187.59C74.2546 187.742 74.2194 187.873 74.1994 188.061L74.1676 188.286C74.1173 188.638 74.0688 188.969 74.0705 189.305C74.0203 190.448 74.1826 191.633 74.5425 192.73C74.5944 192.892 74.586 193.066 74.5191 193.221C73.0076 196.703 69.4541 198.744 65.6596 198.297C64.2971 198.087 63.0016 197.581 61.9169 196.833C60.8273 196.087 59.9016 195.058 59.2388 193.857C58.6229 192.747 58.2714 191.415 58.2228 190.046C58.196 189.793 58.2144 189.565 58.2295 189.363C58.2379 189.265 58.2446 189.167 58.2463 189.066C58.2463 189.047 58.2462 189.026 58.2496 189.007C58.2697 188.781 58.3065 188.528 58.3433 188.274C58.3617 188.147 58.3802 188.021 58.3969 187.891L58.7065 185.687C59.0078 183.628 59.2756 181.527 59.5351 179.492C59.6456 178.624 59.756 177.755 59.8698 176.897C60.1895 174.189 60.5511 171.12 60.8206 168.074C60.8356 167.914 60.7151 167.771 60.5544 167.758C60.4088 167.741 60.2716 167.844 60.2414 167.989C59.6506 170.779 59.1518 173.48 58.5643 176.712C58.4187 177.579 58.2697 178.443 58.1207 179.308C57.7726 181.332 57.411 183.426 57.0947 185.492L56.7465 187.683C56.7264 187.82 56.7047 187.953 56.6829 188.083C56.6461 188.305 56.6093 188.528 56.5842 188.741C56.5741 188.889 56.5624 189.037 56.549 189.185C56.5239 189.467 56.5005 189.733 56.5155 190.009C56.5256 191.657 56.939 193.264 57.7123 194.657C57.9132 195.018 58.1458 195.38 58.4203 195.761C58.6446 196.072 58.5743 196.505 58.263 196.73C56.6745 197.876 54.7413 198.446 52.8214 198.341C52.8097 198.341 52.798 198.34 52.7846 198.338C51.4004 198.213 50.0663 197.786 48.9214 197.096C47.7682 196.393 46.7739 195.407 46.0408 194.239C45.3562 193.111 44.9327 191.786 44.8139 190.388C44.7988 190.149 44.7988 189.921 44.7988 189.681L44.988 185.995C45.1135 183.952 45.2039 181.871 45.2893 179.856C45.3294 178.91 45.3696 177.965 45.4148 177.029C45.5119 174.086 45.614 171.042 45.6324 168.047C45.6324 167.886 45.5018 167.754 45.3412 167.754H45.3395C45.1905 167.754 45.065 167.864 45.0466 168.011C44.68 170.967 44.3904 173.984 44.1092 176.902L44.1059 176.942C44.0272 177.89 43.9452 178.837 43.8632 179.785C43.6908 181.791 43.51 183.866 43.3711 185.908L43.125 189.24L43.12 189.413C43.1116 189.776 43.1016 190.15 43.12 190.493C43.2121 192.13 43.7142 193.734 44.5712 195.128C44.9813 195.78 45.4734 196.397 46.0308 196.962C46.2082 197.142 46.2751 197.403 46.2032 197.644C46.1329 197.886 45.9354 198.07 45.6876 198.127C45.0215 198.278 44.4122 198.351 43.8264 198.351H43.7527C41.4713 198.33 39.6669 196.823 38.6944 195.494C37.3537 193.662 36.649 192.616 36.2825 191.064C35.9695 189.734 35.926 188.954 35.8774 187.938C35.8724 187.83 35.8674 187.718 35.8607 187.603C35.8607 180.131 35.3887 171.527 35.2983 162.651C35.2882 161.724 35.2815 160.794 35.2815 159.863C35.2782 129.527 35.2782 97.0866 35.2849 96.3297H35.2899Z" fill="#57D1E5"/>
<path d="M148.594 95.0372C151.478 79.6829 141.291 64.9126 125.841 62.0463C110.392 59.1801 95.5304 69.3042 92.6464 84.6585C89.7625 100.013 99.9493 114.783 115.397 117.649C130.846 120.516 145.708 110.391 148.592 95.0372" fill="#4D9BB6"/>
<path d="M129.084 60.2148C144.533 63.081 154.718 77.8514 151.836 93.2056C148.952 108.56 134.088 118.682 118.639 115.818C103.19 112.952 93.0046 98.1812 95.8886 82.827C98.4429 69.2261 110.397 59.7307 123.831 59.7307C125.564 59.7307 127.319 59.8887 129.084 60.2165" fill="url(#paint0_linear_36_1586)"/>
<path d="M117.257 69.5938C121.942 70.9512 121.987 81.4597 118.878 84.0564C116.836 85.7615 112.94 86.0543 112.828 87.3552C112.714 88.656 116.502 89.6092 118.217 91.6387C120.83 94.7279 118.969 105.07 114.118 105.607C108.332 106.248 100.311 98.6904 101.384 86.3704C102.458 74.0504 111.668 67.9752 117.257 69.5955" fill="#3B2D55"/>
<path d="M142.084 51.5079C141.681 51.1503 141.271 50.7976 140.857 50.45C142.976 51.8706 144.983 53.416 146.865 55.0828C158.56 65.4416 164.999 80.0905 164.999 96.3297C164.999 129.119 140.374 174.538 129.787 192.544L129.31 193.358C128.65 194.495 127.885 195.45 127.042 196.215C139.895 173.444 162.031 129.487 162.031 96.8803C162.031 79.0175 154.946 62.9047 142.083 51.5096" fill="#93E1EF"/>
<path d="M112.225 125.167C102.806 122.562 94.3805 116.646 88.9322 108.585C87.1396 105.925 85.5662 103.118 84.3293 100.149C83.8957 99.1027 82.6889 98.6037 81.6378 99.0362C80.6201 99.4554 80.123 100.597 80.4879 101.615C82.8396 108.314 87.2183 114.254 92.6766 118.789C98.0863 123.323 104.666 126.487 111.596 127.82C113.308 128.113 113.897 125.666 112.227 125.165" fill="#4D9BB6"/>
<path d="M105.486 126.13C105.377 126.088 105.27 126.052 105.162 126.012C104.207 125.641 103.176 125.218 102.115 124.719C101.342 124.37 100.559 123.962 99.7601 123.531C99.7216 125.049 100.085 126.587 101.446 127.389C102.333 127.908 103.792 127.439 105.488 126.13H105.486ZM90.4153 116.566C90.0386 116.197 89.662 115.833 89.3005 115.458C88.3648 114.482 87.4978 113.474 86.691 112.469C86.0533 111.656 85.444 110.847 84.8933 110.05C83.3685 112.865 83.5526 115.087 83.8305 116.235C84.1234 117.435 84.7494 118.396 85.5026 118.812C86.7563 119.501 88.0184 118.955 90.4153 116.568V116.566Z" fill="#4D9BB6"/>
<path d="M106.703 126.11C106.594 126.068 106.487 126.032 106.378 125.992C105.424 125.621 104.393 125.198 103.332 124.699C102.559 124.35 101.775 123.942 100.977 123.511C100.939 125.029 101.302 126.567 102.663 127.369C103.55 127.888 105.009 127.419 106.705 126.11H106.703ZM91.6305 116.548C91.2539 116.179 90.8773 115.814 90.5157 115.44C89.5801 114.464 88.713 113.455 87.9062 112.451C87.2685 111.637 86.6593 110.829 86.1086 110.032C84.5837 112.847 84.7678 115.069 85.0457 116.217C85.3386 117.416 85.9646 118.378 86.7178 118.794C87.9715 119.482 89.2336 118.937 91.6305 116.55V116.548Z" fill="white"/>
<path d="M113.598 125.167C104.179 122.562 95.753 116.646 90.3048 108.585C88.5121 105.925 86.9387 103.118 85.7018 100.149C85.2683 99.1027 84.0615 98.6037 83.0103 99.0362C81.9926 99.4554 81.4955 100.597 81.8604 101.615C84.2121 108.314 88.5908 114.254 94.0491 118.789C99.4589 123.323 106.039 126.487 112.968 127.82C114.681 128.113 115.27 125.666 113.599 125.165" fill="#3B2D55"/>
</g>
<defs>
<linearGradient id="paint0_linear_36_1586" x1="152.325" y1="88.0155" x2="95.4015" y2="88.0155" gradientUnits="userSpaceOnUse">
<stop stop-color="white"/>
<stop offset="0.27" stop-color="white"/>
<stop offset="1" stop-color="#CECAD5"/>
</linearGradient>
<clipPath id="clip0_36_1586">
<rect width="200" height="200" fill="white"/>
</clipPath>
</defs>
</svg>
