<svg width="200" height="200" viewBox="0 0 200 200" fill="none" xmlns="http://www.w3.org/2000/svg">
<g clip-path="url(#clip0_36_1444)">
<path d="M38.2606 168.345C38.3356 175.87 38.684 188.488 38.7323 189.498C38.7323 189.498 38.734 189.598 38.7465 189.781C38.7876 190.643 38.8234 191.305 39.0878 192.432C39.3951 193.748 39.9882 194.635 41.1138 196.188C41.932 197.314 43.447 198.593 45.3658 198.609H45.4284C45.9215 198.609 46.4324 198.548 46.9934 198.419C47.2007 198.373 47.3668 198.215 47.4276 198.011C47.4883 197.805 47.4329 197.585 47.2828 197.433C46.813 196.954 46.4003 196.43 46.0555 195.878C45.3355 194.698 44.912 193.338 44.8352 191.95C44.8209 191.66 44.8281 191.343 44.8352 191.035L44.8388 190.888L45.0443 188.063C45.1604 186.331 45.3122 184.573 45.457 182.873C45.5266 182.069 45.5945 181.266 45.6606 180.462L45.6642 180.428C45.9 177.955 46.1448 175.397 46.4521 172.891C46.4682 172.768 46.5718 172.675 46.6968 172.675C46.8326 172.675 46.9416 172.787 46.9416 172.923C46.9255 175.461 46.8416 178.041 46.7594 180.537C46.7219 181.331 46.6879 182.133 46.654 182.934C46.5807 184.641 46.5057 186.405 46.4003 188.137L46.2413 191.262C46.2413 191.467 46.2413 191.66 46.2538 191.862C46.3538 193.046 46.7111 194.171 47.2846 195.127C47.901 196.118 48.7371 196.954 49.7054 197.549C50.6666 198.133 51.7886 198.497 52.9517 198.602C52.9624 198.602 52.9731 198.602 52.982 198.604C54.5971 198.694 56.2211 198.208 57.5557 197.237C57.8165 197.048 57.8773 196.68 57.6879 196.417C57.4574 196.093 57.2627 195.787 57.093 195.48C56.4444 194.3 56.0961 192.939 56.0871 191.54C56.0728 191.305 56.0925 191.08 56.1139 190.841C56.1246 190.716 56.1354 190.589 56.1443 190.465C56.1657 190.284 56.1961 190.096 56.2265 189.907C56.2443 189.795 56.264 189.683 56.2801 189.568L56.5731 187.711C56.8393 185.961 57.143 184.184 57.436 182.468C57.561 181.736 57.6861 181.001 57.8094 180.269C58.3043 177.528 58.7223 175.239 59.219 172.873C59.244 172.75 59.3601 172.664 59.4816 172.678C59.6174 172.691 59.7175 172.811 59.7049 172.947C59.4781 175.528 59.1743 178.13 58.9063 180.426C58.8117 181.155 58.7188 181.891 58.6259 182.626C58.4079 184.351 58.1828 186.131 57.9291 187.877L57.6682 189.745C57.654 189.855 57.6379 189.962 57.6236 190.069C57.5914 190.284 57.561 190.499 57.545 190.691C57.545 190.707 57.5432 190.725 57.5432 190.741C57.5432 190.827 57.536 190.909 57.5289 190.994C57.5164 191.164 57.5003 191.357 57.5235 191.572C57.5646 192.731 57.8594 193.861 58.3775 194.803C58.9349 195.822 59.7121 196.695 60.6268 197.325C61.538 197.959 62.6278 198.389 63.773 198.566C66.962 198.944 69.9474 197.216 71.2177 194.264C71.2749 194.132 71.282 193.985 71.2373 193.849C70.9354 192.919 70.7978 191.914 70.8407 190.945C70.8407 190.662 70.88 190.381 70.9229 190.082L70.9497 189.892C70.9676 189.733 70.9962 189.622 71.0283 189.493L71.6107 187.191C72.2057 184.875 72.8738 182.45 73.5956 179.982C74.2299 177.826 74.9802 175.318 75.8646 172.868C75.9057 172.755 76.02 172.683 76.1397 172.707C76.2273 172.721 76.2773 172.777 76.3005 172.809C76.322 172.839 76.3577 172.906 76.3416 172.995C75.9093 175.562 75.3358 178.1 74.8302 180.279C74.2513 182.762 73.6457 185.191 73.0275 187.501L72.4147 189.745C72.3629 189.924 72.3111 190.105 72.2968 190.27C72.2914 190.306 72.2789 190.372 72.2682 190.44C72.236 190.621 72.2003 190.827 72.1967 191.062C72.1378 191.929 72.2182 192.785 72.4343 193.571C72.4486 193.623 72.4701 193.673 72.4987 193.72C72.5076 193.736 72.5165 193.75 72.5255 193.766C72.5451 193.797 72.5541 193.813 72.5612 193.827C72.5755 193.854 72.5862 193.874 72.5951 193.895C72.6005 193.908 72.6094 193.926 72.6184 193.944C73.4956 196.299 75.4751 197.999 77.9209 198.493C80.5562 199.023 83.3343 197.984 85.0012 195.842C85.2942 195.437 85.5532 195.011 85.7855 194.554C85.7962 194.533 85.8069 194.51 85.8141 194.486C85.8462 194.399 85.882 194.313 85.9195 194.227C85.9963 194.044 86.0821 193.84 86.1374 193.605L86.3911 192.688L86.6931 191.57C86.9468 190.627 87.2094 189.65 87.4845 188.698C88.1473 186.342 88.8923 183.815 89.8339 180.74C90.611 178.159 91.4668 175.506 92.3815 172.85C92.4226 172.732 92.5459 172.662 92.6656 172.689C92.7532 172.707 92.7996 172.764 92.821 172.796C92.8425 172.829 92.8746 172.895 92.855 172.983C92.269 175.73 91.6365 178.445 90.9737 181.048C90.1948 184.163 89.5319 186.709 88.887 189.068C88.6351 190.014 88.3617 190.967 88.0991 191.889L87.6221 193.55L87.4452 194.096C87.3738 194.343 87.2683 194.576 87.1558 194.821C87.1093 194.927 87.0611 195.031 87.0164 195.136C86.911 195.333 86.8003 195.527 86.6841 195.719C86.5448 195.946 86.5769 196.24 86.761 196.431C87.64 197.35 88.7441 198.02 89.9554 198.366C92.4959 199.063 95.299 198.258 97.1017 196.32C97.2571 196.175 97.4036 195.984 97.534 195.813C97.5876 195.744 97.6395 195.674 97.6948 195.608C97.7127 195.586 97.7288 195.563 97.7431 195.539C97.7913 195.461 97.8413 195.384 97.8914 195.307C98.0057 195.133 98.1236 194.954 98.2237 194.746C98.363 194.508 98.4613 194.264 98.5578 194.028L98.6185 193.879L100.466 188.832L103.483 180.801C104.525 178.094 105.549 175.445 106.617 172.823C106.665 172.707 106.796 172.646 106.917 172.682C107.046 172.721 107.119 172.859 107.08 172.99C106.256 175.676 105.408 178.277 104.462 181.153L101.724 189.28L99.9263 194.427C99.7923 194.773 99.6672 195.099 99.4993 195.4C99.3171 195.765 99.1062 196.113 98.8597 196.451C98.6685 196.714 98.7275 197.083 98.9883 197.275C99.569 197.698 100.184 198.024 100.818 198.248C101 198.31 101.182 198.36 101.366 198.407C103.791 199.011 106.479 198.257 108.225 196.485C108.727 195.959 109.113 195.446 109.411 194.916C109.485 194.803 109.535 194.696 109.579 194.597C109.597 194.556 109.617 194.513 109.638 194.474L109.681 194.384C109.742 194.261 109.803 194.135 109.869 193.972L112.018 188.911L115.539 180.835L117.333 176.814L119.168 172.811C119.221 172.694 119.357 172.639 119.477 172.683C119.604 172.732 119.668 172.873 119.62 173L118.073 177.131L116.486 181.236L113.242 189.426L111.167 194.524C111.107 194.685 111.019 194.871 110.935 195.052C110.907 195.111 110.874 195.183 110.841 195.255C110.789 195.369 110.74 195.479 110.685 195.566C110.324 196.243 109.856 196.872 109.231 197.517L109.177 197.565C109.02 197.719 108.963 197.947 109.027 198.158C109.09 198.368 109.267 198.525 109.481 198.566C109.911 198.647 110.338 198.688 110.757 198.688C113.338 198.688 115.659 197.173 117.258 194.391L117.658 193.702C120.467 188.884 124.452 181.746 128.59 173.362C127.792 175.221 126.827 177.45 125.571 180.274C122.418 187.365 120.947 190.7 118.805 194.375L118.782 194.416L118.407 195.063C118.394 195.085 118.378 195.11 118.364 195.135L118.36 195.14C118.283 195.273 118.201 195.405 118.119 195.536C118.08 195.597 118.04 195.659 117.999 195.72C117.933 195.821 117.867 195.919 117.799 196.014C117.733 196.107 117.663 196.204 117.592 196.301C117.526 196.39 117.46 196.478 117.392 196.562C117.317 196.657 117.242 196.748 117.17 196.833C117.142 196.867 117.115 196.899 117.086 196.931C115.346 198.953 113.156 200.023 110.755 200.023C110.253 200.023 109.742 199.974 109.233 199.877C109.217 199.874 109.204 199.868 109.188 199.867V199.87C108.184 199.627 107.441 199.256 107.051 198.98C105.833 199.609 104.459 199.951 103.055 199.951C102.37 199.951 101.695 199.868 101.043 199.705H101.034L101.025 199.702C100.841 199.654 100.611 199.593 100.377 199.51C99.6172 199.243 98.8865 198.857 98.2022 198.359C97.9503 198.174 97.7556 197.94 97.6234 197.678C96.0548 199.131 93.9645 199.953 91.7991 199.953C91.0505 199.953 90.3109 199.854 89.5963 199.657H89.5891L89.582 199.654C88.1438 199.243 86.8324 198.45 85.7908 197.359C85.7319 197.296 85.6765 197.23 85.6265 197.162C84.0186 198.928 81.696 199.967 79.293 199.967C78.7428 199.967 78.1907 199.911 77.6547 199.804C75.2286 199.313 73.1865 197.823 71.977 195.715C70.4673 198.325 67.6838 199.963 64.6377 199.963C64.2983 199.963 63.9534 199.944 63.6122 199.903L63.589 199.899L63.5658 199.895C62.2222 199.688 60.9431 199.181 59.8657 198.432C59.5317 198.201 59.2119 197.943 58.9099 197.66C58.7777 197.916 58.5848 198.147 58.3364 198.328C56.8911 199.381 55.1242 199.96 53.3608 199.96C53.2107 199.96 53.0571 199.956 52.907 199.947H52.8784L52.8588 199.944H52.8302C51.5742 199.827 50.3593 199.453 49.291 198.858C48.5692 199.351 47.8671 199.68 46.7969 199.836C46.7665 199.842 46.7379 199.843 46.7093 199.847C46.2645 199.92 45.8375 199.96 45.4194 199.96H45.398H45.3408C43.0701 199.938 41.5836 199.118 40.1901 197.32C38.3785 194.986 37.9712 192.844 38.0015 190.503V189.516C38.0015 182.946 38.2106 175.897 38.2535 168.363L38.2606 168.345Z" fill="#3B2D55"/>
<path d="M38.2606 168.345C38.3357 175.87 38.7323 183.163 38.7323 189.498C38.684 188.488 38.3357 175.87 38.2606 168.345Z" fill="#57D1E5"/>
<path d="M38.2499 112.123C38.2499 98.3696 43.6954 85.9539 53.5841 77.1597C63.4728 68.3672 77.4153 63.5242 92.8461 63.5242C108.264 63.5242 122.175 68.3673 132.013 77.1579C141.841 85.9395 147.255 98.3571 147.255 112.123C147.255 131.143 137.566 155.174 128.596 173.344C124.458 181.728 120.472 188.866 117.663 193.684L117.263 194.373C115.664 197.155 113.344 198.67 110.762 198.67C110.342 198.67 109.917 198.631 109.486 198.548C109.27 198.509 109.095 198.351 109.032 198.14C108.968 197.93 109.027 197.701 109.183 197.547L109.236 197.499C109.861 196.854 110.331 196.225 110.69 195.548C110.746 195.461 110.794 195.351 110.846 195.237C110.878 195.165 110.91 195.093 110.941 195.034C111.025 194.853 111.112 194.667 111.173 194.506L113.247 189.408L116.491 181.218L118.078 177.113L119.625 172.982C119.673 172.855 119.607 172.712 119.482 172.665C119.363 172.621 119.227 172.678 119.173 172.793L117.338 176.796L115.545 180.817L112.023 188.893L109.874 193.954C109.808 194.117 109.747 194.244 109.686 194.366L109.644 194.456C109.622 194.497 109.602 194.538 109.585 194.579C109.54 194.676 109.49 194.785 109.417 194.898C109.118 195.428 108.734 195.941 108.23 196.467C106.485 198.237 103.796 198.993 101.372 198.389C101.188 198.341 101.005 198.292 100.823 198.23C100.189 198.007 99.5725 197.68 98.9937 197.257C98.7311 197.065 98.6739 196.696 98.8651 196.433C99.1098 196.093 99.3206 195.747 99.5046 195.382C99.6708 195.081 99.7976 194.753 99.9316 194.409L101.729 189.262L104.468 181.135C105.413 178.259 106.261 175.66 107.085 172.972C107.124 172.841 107.051 172.703 106.923 172.664C106.801 172.628 106.671 172.691 106.622 172.805C105.554 175.427 104.53 178.076 103.489 180.783L100.471 188.814L98.6239 193.861L98.5631 194.01C98.4666 194.246 98.3684 194.49 98.229 194.728C98.129 194.936 98.0111 195.115 97.8967 195.289C97.8467 195.366 97.7949 195.443 97.7484 195.521C97.7341 195.545 97.7181 195.568 97.7002 195.589C97.6448 195.658 97.5912 195.726 97.5394 195.795C97.409 195.964 97.2625 196.155 97.1071 196.302C95.3044 198.24 92.5012 199.044 89.9607 198.348C88.7494 198.002 87.6435 197.332 86.7663 196.413C86.5823 196.22 86.5501 195.928 86.6895 195.701C86.8038 195.509 86.9164 195.315 87.0218 195.118C87.0665 195.015 87.1147 194.909 87.1611 194.803C87.2737 194.558 87.3791 194.325 87.4506 194.078L87.6274 193.532L88.1045 191.871C88.3689 190.949 88.6422 189.996 88.8923 189.05C89.5391 186.693 90.2019 184.144 90.9791 181.03C91.6419 178.426 92.2743 175.712 92.8603 172.965C92.8782 172.877 92.8461 172.811 92.8264 172.778C92.805 172.746 92.7585 172.689 92.671 172.671C92.5513 172.644 92.4262 172.714 92.3869 172.832C91.4722 175.488 90.6164 178.141 89.8392 180.722C88.8995 183.797 88.1527 186.324 87.4899 188.679C87.2147 189.632 86.9521 190.608 86.6984 191.552L86.3965 192.67L86.1428 193.587C86.0874 193.82 86.0017 194.026 85.9248 194.209C85.8891 194.295 85.8516 194.381 85.8194 194.468C85.8123 194.492 85.8016 194.515 85.7908 194.536C85.5604 194.993 85.2995 195.419 85.0065 195.824C83.3414 197.966 80.5615 199.005 77.9263 198.475C75.4805 197.981 73.4991 196.281 72.6237 193.926C72.6148 193.909 72.6059 193.89 72.6005 193.877C72.5916 193.856 72.5808 193.836 72.5666 193.809C72.5576 193.793 72.5505 193.779 72.5308 193.748C72.5219 193.734 72.513 193.718 72.504 193.702C72.4754 193.655 72.454 193.607 72.4397 193.553C72.2235 192.767 72.1431 191.912 72.2021 191.044C72.2057 190.809 72.2414 190.603 72.2736 190.422C72.2843 190.354 72.2968 190.288 72.3021 190.252C72.3164 190.087 72.3682 189.906 72.4201 189.727L73.0329 187.483C73.651 185.174 74.2584 182.744 74.8355 180.261C75.3411 178.083 75.9146 175.544 76.347 172.977C76.363 172.889 76.3273 172.823 76.3059 172.791C76.2826 172.759 76.2326 172.705 76.1451 172.689C76.0254 172.665 75.911 172.737 75.8699 172.85C74.9856 175.3 74.2352 177.808 73.601 179.964C72.8792 182.43 72.211 184.857 71.6161 187.173L71.0337 189.475C71.0015 189.604 70.9747 189.715 70.9551 189.874L70.9283 190.064C70.8854 190.363 70.8443 190.644 70.8461 190.927C70.8032 191.896 70.9408 192.901 71.2427 193.831C71.2874 193.967 71.2802 194.115 71.223 194.246C69.9528 197.198 66.9674 198.928 63.7784 198.548C62.6332 198.371 61.5451 197.941 60.6322 197.307C59.7175 196.675 58.9385 195.803 58.3829 194.785C57.8666 193.845 57.57 192.715 57.5289 191.554C57.5075 191.339 57.5217 191.146 57.5343 190.976C57.5414 190.891 57.5468 190.809 57.5485 190.723C57.5485 190.707 57.5485 190.689 57.5503 190.673C57.5682 190.481 57.5986 190.266 57.6289 190.051C57.645 189.944 57.6593 189.837 57.6736 189.727L57.9344 187.859C58.1881 186.113 58.4132 184.333 58.6312 182.608C58.7241 181.872 58.817 181.135 58.9117 180.408C59.1797 178.112 59.4834 175.511 59.7103 172.929C59.7228 172.793 59.6228 172.673 59.487 172.66C59.3637 172.646 59.2494 172.734 59.2244 172.855C58.7277 175.221 58.3096 177.51 57.8147 180.251C57.6915 180.985 57.5664 181.718 57.4413 182.45C57.1483 184.166 56.8446 185.941 56.5784 187.693L56.2854 189.55C56.2676 189.666 56.2497 189.777 56.2318 189.888C56.2015 190.078 56.1711 190.266 56.1496 190.447C56.1425 190.573 56.1318 190.698 56.1193 190.823C56.0978 191.062 56.0782 191.287 56.0925 191.522C56.1014 192.919 56.448 194.282 57.0983 195.462C57.268 195.769 57.4628 196.075 57.6933 196.399C57.8826 196.662 57.8219 197.03 57.561 197.219C56.2265 198.19 54.6025 198.676 52.9874 198.586C52.9785 198.586 52.9677 198.586 52.957 198.584C51.794 198.479 50.672 198.117 49.7108 197.531C48.7425 196.936 47.9064 196.1 47.29 195.109C46.7147 194.153 46.3592 193.028 46.2591 191.844C46.2466 191.642 46.2466 191.449 46.2466 191.244L46.4056 188.119C46.511 186.389 46.5861 184.623 46.6593 182.916C46.6933 182.113 46.7272 181.313 46.7647 180.519C46.8469 178.024 46.9327 175.445 46.947 172.905C46.947 172.769 46.838 172.658 46.7022 172.656C46.5771 172.656 46.4717 172.75 46.4574 172.873C46.1501 175.379 45.9054 177.937 45.6696 180.41L45.666 180.444C45.5999 181.248 45.532 182.051 45.4623 182.855C45.3176 184.555 45.1657 186.315 45.0496 188.045L44.8442 190.87L44.8406 191.017C44.8334 191.323 44.8245 191.64 44.8406 191.932C44.9174 193.32 45.3408 194.68 46.0608 195.86C46.4056 196.413 46.8183 196.936 47.2882 197.415C47.4383 197.567 47.4937 197.789 47.4329 197.993C47.374 198.197 47.2078 198.355 46.9988 198.401C46.4378 198.529 45.9268 198.591 45.4337 198.591H45.3712C43.4542 198.573 41.9374 197.295 41.1191 196.168C39.9918 194.615 39.4004 193.729 39.0931 192.412C38.8305 191.286 38.793 190.625 38.7519 189.761C38.7483 189.67 38.743 189.575 38.7376 189.478C38.7376 183.143 38.341 175.85 38.266 168.326C38.2588 167.539 38.2517 166.751 38.2517 165.961C38.2499 140.245 38.2481 112.747 38.2552 112.104L38.2499 112.123Z" fill="#57D1E5"/>
<path d="M133.468 111.027C135.89 98.0114 127.331 85.4918 114.348 83.0613C101.364 80.6326 88.8745 89.2136 86.4519 102.229C84.0293 115.245 92.5888 127.767 105.572 130.195C118.555 132.624 131.045 124.043 133.468 111.027Z" fill="#4D9BB6"/>
<path d="M117.072 81.5084C130.055 83.9389 138.615 96.4585 136.192 109.474C133.768 122.49 121.278 131.071 108.295 128.642C95.3115 126.212 86.752 113.692 89.1764 100.677C91.3238 89.1473 101.368 81.0964 112.657 81.0964C114.113 81.0964 115.589 81.2308 117.072 81.5084Z" fill="url(#paint0_linear_36_1444)"/>
<path d="M107.132 89.4589C111.069 90.6106 111.107 99.5176 108.495 101.719C106.78 103.164 103.505 103.411 103.41 104.515C103.314 105.616 106.497 106.426 107.941 108.145C110.137 110.764 108.572 119.531 104.496 119.986C99.6333 120.529 92.8926 114.122 93.7948 103.678C94.697 93.2345 102.438 88.0852 107.135 89.4589" fill="#3B2D55"/>
<path d="M127.997 74.1293C127.658 73.8266 127.315 73.5275 126.966 73.2319C128.747 74.4373 130.434 75.7466 132.015 77.1598C141.843 85.9414 147.255 98.359 147.255 112.125C147.255 139.921 126.561 178.424 117.663 193.686L117.263 194.375C116.709 195.341 116.066 196.148 115.357 196.799C126.159 177.496 144.762 140.233 144.762 112.593C144.762 97.4509 138.809 83.7921 127.999 74.1311" fill="#93E1EF"/>
<path d="M102.905 136.568C94.9882 134.359 87.908 129.344 83.3308 122.511C81.8229 120.256 80.5026 117.878 79.4628 115.361C79.0983 114.473 78.0853 114.05 77.201 114.418C76.347 114.772 75.9272 115.739 76.2344 116.604C78.2104 122.282 81.8908 127.319 86.4769 131.162C91.022 135.006 96.5515 137.689 102.376 138.817C103.814 139.066 104.311 136.992 102.906 136.568" fill="#4D9BB6"/>
<path d="M97.241 137.385C97.1499 137.349 97.0588 137.318 96.9676 137.284C96.1655 136.971 95.299 136.613 94.4075 136.19C93.7572 135.893 93.0997 135.549 92.4279 135.184C92.3958 136.47 92.7013 137.775 93.8447 138.454C94.5897 138.895 95.8171 138.497 97.241 137.387V137.385ZM84.5759 129.278C84.2597 128.965 83.9435 128.657 83.6397 128.34C82.8536 127.512 82.1247 126.658 81.4458 125.805C80.9098 125.116 80.3989 124.43 79.9362 123.755C78.6534 126.14 78.8106 128.025 79.0429 128.997C79.2894 130.013 79.8147 130.829 80.4471 131.182C81.5012 131.766 82.5607 131.304 84.5759 129.28V129.278Z" fill="#4D9BB6"/>
<path d="M98.263 137.368C98.1719 137.333 98.0807 137.302 97.9896 137.268C97.1874 136.955 96.321 136.596 95.4295 136.174C94.7791 135.876 94.1217 135.533 93.4499 135.167C93.4178 136.453 93.7233 137.759 94.8667 138.438C95.6117 138.878 96.8391 138.481 98.263 137.37V137.368ZM85.5979 129.262C85.2817 128.949 84.9654 128.64 84.6617 128.323C83.8756 127.496 83.1467 126.642 82.4678 125.789C81.9318 125.1 81.4209 124.414 80.9581 123.738C79.6754 126.124 79.8326 128.008 80.0648 128.981C80.3114 129.996 80.8366 130.813 81.4691 131.166C82.5232 131.75 83.5826 131.288 85.5979 129.264V129.262Z" fill="white"/>
<path d="M104.057 136.568C96.1404 134.359 89.0602 129.344 84.483 122.511C82.9751 120.256 81.6548 117.878 80.615 115.361C80.2506 114.473 79.2376 114.05 78.3532 114.418C77.4992 114.772 77.0794 115.739 77.3867 116.604C79.3626 122.282 83.043 127.319 87.6291 131.162C92.1742 135.006 97.7037 137.689 103.528 138.817C104.966 139.066 105.463 136.992 104.059 136.568" fill="#3B2D55"/>
<path d="M160.406 68.0876C161.613 69.5241 161.004 72.028 159.044 73.683C155.5 76.692 148.012 74.3654 148.012 74.3654C148.012 74.3654 147.088 66.5867 150.569 63.6314C152.529 61.9765 155.091 61.792 156.298 63.2213C157.24 64.3371 157.079 66.1103 156.032 67.6238C157.695 66.8411 159.464 66.9718 160.406 68.0859V68.0876Z" fill="#EE324B"/>
<path d="M149.609 14.5738C156.872 17.4342 159.594 27.835 155.687 37.8149C148.614 55.8833 116.518 62.2435 116.518 62.2435C116.518 62.2435 97.7501 35.5008 104.693 17.7548C108.598 7.78028 117.654 2.00762 124.917 4.86082C130.588 7.0925 133.487 13.9147 132.63 21.5519C137.182 15.3691 143.94 12.344 149.609 14.5738Z" fill="#EE324B"/>
<path d="M95.2954 3.82189C96.3495 8.35512 90.8736 13.9863 90.8736 13.9863C90.8736 13.9863 83.5397 11.262 82.5053 6.813C81.9246 4.31444 82.9251 1.94126 84.7492 1.51498C86.1696 1.18184 87.6667 2.13111 88.5368 3.75741C88.5957 1.91797 89.5194 0.399135 90.9397 0.0659941C92.7621 -0.360283 94.7094 1.32333 95.2954 3.82189Z" fill="#EE324B"/>
<path d="M81.0189 26.719C86.5001 35.9162 78.4319 52.1202 78.4319 52.1202C78.4319 52.1202 60.4392 51.3016 55.0598 42.2638C52.0298 37.1843 52.5747 31.2684 56.2729 29.0564C59.1547 27.3298 63.1084 28.3615 66.1456 31.3168C64.9915 27.2349 65.9562 23.2533 68.8451 21.5267C72.538 19.3129 77.996 21.6395 81.0189 26.719Z" fill="#EE324B"/>
</g>
<defs>
<linearGradient id="paint0_linear_36_1444" x1="136.603" y1="105.075" x2="88.7655" y2="105.075" gradientUnits="userSpaceOnUse">
<stop stop-color="white"/>
<stop offset="0.27" stop-color="white"/>
<stop offset="1" stop-color="#CECAD5"/>
</linearGradient>
<clipPath id="clip0_36_1444">
<rect width="200" height="200" fill="white"/>
</clipPath>
</defs>
</svg>
