<svg width="200" height="200" viewBox="0 0 200 200" fill="none" xmlns="http://www.w3.org/2000/svg">
<path d="M147.078 191.992C146.22 195.819 142.837 198.453 139.061 198.453C138.618 198.453 138.171 198.416 137.722 198.342L137.675 198.332L136.87 198.139L137.441 197.549C138.669 196.317 139.561 194.825 140.022 193.232C140.279 192.309 140.401 191.522 140.521 190.759C140.574 190.418 140.628 190.077 140.691 189.727L142.358 179.557C143.098 174.947 143.799 170.375 144.443 165.968C144.483 165.687 144.297 165.421 144.021 165.362C143.732 165.302 143.446 165.488 143.384 165.779C142.471 170.118 141.55 174.653 140.648 179.252L138.704 189.379C138.641 189.695 138.58 190.021 138.52 190.345C138.37 191.153 138.214 191.988 138.026 192.613C137.504 194.348 136.369 195.884 134.83 196.936C134.664 197.05 134.495 197.162 134.321 197.261C133.458 197.767 132.508 198.104 131.497 198.263C130.496 198.423 129.485 198.4 128.496 198.194C127.412 197.974 126.341 197.496 125.4 196.813L125.032 196.545L125.292 196.171C126.04 195.098 126.565 193.926 126.854 192.688C127.069 191.738 127.144 190.918 127.215 190.126C127.245 189.802 127.274 189.479 127.313 189.153L128.319 178.935C128.759 174.272 129.162 169.681 129.513 165.29C129.535 165.008 129.334 164.753 129.054 164.712C128.913 164.692 128.771 164.728 128.657 164.815C128.541 164.9 128.466 165.027 128.446 165.169C127.818 169.528 127.193 174.094 126.59 178.741L125.307 188.934C125.266 189.243 125.228 189.556 125.191 189.865C125.087 190.724 124.989 191.535 124.828 192.181C124.646 192.929 124.348 193.655 123.942 194.343C123.362 195.325 122.561 196.191 121.632 196.848L121.557 196.902C121.507 196.941 121.456 196.977 121.403 197.012C119.752 198.107 117.658 198.569 115.662 198.275C113.697 197.998 111.833 196.937 110.551 195.365C110.24 194.993 109.955 194.579 109.708 194.137L109.605 193.953L109.675 193.753C109.831 193.315 109.965 192.841 110.073 192.347C110.278 191.428 110.293 190.363 110.301 189.66L110.382 184.608C110.495 178.568 110.548 171.962 110.543 164.409C110.543 164.123 110.319 163.887 110.036 163.871C109.743 163.858 109.486 164.08 109.468 164.378C109.027 171.917 108.7 178.516 108.467 184.552L108.253 189.712C108.215 190.581 108.188 191.209 108.026 191.922C107.832 192.753 107.578 193.438 107.252 194.019C107.237 194.047 107.214 194.087 107.189 194.124C105.737 196.746 102.852 198.42 99.9934 198.357H99.8707C97.0137 198.357 94.2594 196.716 92.8442 194.152C92.7977 194.081 92.7729 194.041 92.7513 193.998C92.3586 193.305 92.1349 192.527 91.9824 191.927C91.815 191.171 91.7885 190.509 91.752 189.595L91.5416 184.55C91.293 178.179 90.9632 171.582 90.5356 164.378C90.5174 164.094 90.2821 163.871 89.9987 163.871C89.7021 163.871 89.4601 164.112 89.4601 164.409C89.4452 171.603 89.4966 178.211 89.6142 184.608L89.6938 189.66C89.6988 190.764 89.7766 191.643 89.9291 192.354C90.0468 192.864 90.1793 193.326 90.3318 193.757L90.4031 193.954L90.3003 194.139C90.0534 194.579 89.7684 194.993 89.4535 195.369C88.1824 196.926 86.3213 197.989 84.3493 198.282C82.3589 198.578 80.2675 198.112 78.607 197.005C78.5556 196.972 78.5043 196.934 78.4545 196.896L78.38 196.841C77.4519 196.18 76.6548 195.314 76.0731 194.335C75.6671 193.65 75.3638 192.924 75.1766 192.178C75.0125 191.538 74.9164 190.734 74.8136 189.883C74.7755 189.567 74.7374 189.248 74.696 188.936L73.4116 178.736C72.8084 174.081 72.1836 169.514 71.5572 165.165C71.5158 164.886 71.2722 164.679 70.9822 164.705C70.838 164.717 70.7087 164.783 70.6143 164.893C70.5215 165.003 70.4767 165.142 70.4883 165.285C70.8396 169.666 71.2423 174.257 71.6832 178.932L72.6891 189.158C72.7272 189.483 72.757 189.808 72.7869 190.137C72.8581 190.925 72.931 191.739 73.1515 192.688C73.4464 193.92 73.9734 195.088 74.7208 196.158L74.9827 196.532L74.6148 196.799C73.6751 197.484 72.6046 197.966 71.5158 198.192C70.5297 198.405 69.5139 198.43 68.4997 198.265C67.4987 198.102 66.5524 197.762 65.689 197.256C65.515 197.155 65.346 197.042 65.1786 196.927C63.6523 195.879 62.5171 194.347 61.9802 192.608C61.7896 191.992 61.6355 191.164 61.488 190.365C61.4267 190.033 61.3637 189.7 61.2991 189.379L59.3535 179.247C58.4536 174.653 57.5339 170.119 56.6191 165.775C56.5594 165.499 56.3009 165.315 56.0159 165.353C55.7225 165.396 55.5187 165.671 55.5601 165.965C56.2048 170.38 56.9058 174.953 57.6449 179.557L59.3137 189.733C59.3767 190.077 59.4314 190.42 59.4844 190.762C59.6021 191.522 59.7247 192.309 59.9882 193.233C60.4605 194.824 61.3571 196.316 62.5784 197.542L63.2214 198.189L62.3216 198.33C57.9929 199.048 53.8847 196.266 52.9301 192.008C52.8589 191.673 49.8825 177.646 46.4471 160.268L46.4405 160.276C49.4317 180.672 51.4038 192.168 51.4403 192.341V192.349L51.4486 192.379C51.5082 192.643 51.5828 192.916 51.6789 193.215C51.7021 193.288 51.7286 193.359 51.7535 193.433L51.775 193.494C51.8364 193.67 51.9026 193.841 51.9722 194.009C52.0186 194.121 52.0684 194.232 52.1197 194.343C52.1844 194.481 52.2507 194.614 52.3203 194.747L52.3451 194.795C52.4015 194.903 52.4578 195.011 52.5191 195.116C52.5539 195.176 52.5887 195.231 52.6235 195.287L52.6534 195.335C52.8605 195.674 53.0876 196 53.3262 196.301L53.3593 196.344C53.4836 196.499 53.6195 196.655 53.7869 196.838L53.8565 196.912C54.0123 197.079 54.1631 197.228 54.3172 197.373L54.3222 197.378C54.3222 197.378 54.3354 197.389 54.3421 197.396L54.3454 197.399C56.165 199.074 58.505 199.992 60.9477 199.992C61.4813 199.992 62.0199 199.947 62.5503 199.859L63.4369 199.719L66.3055 199.269C66.927 199.508 67.5749 199.684 68.2428 199.792C68.7615 199.877 69.2885 199.92 69.8072 199.92C70.4817 199.92 71.1578 199.849 71.8174 199.706C73.1001 199.438 74.3712 198.868 75.4832 198.059L75.8511 197.791L76.5156 197.308C76.8238 197.595 77.1503 197.863 77.4934 198.106L77.553 198.149C77.6243 198.202 77.6989 198.257 77.7734 198.307C79.3229 199.339 81.2354 199.914 83.1478 199.914C83.6201 199.914 84.0924 199.879 84.5548 199.811C86.8914 199.465 89.0972 198.207 90.6036 196.361C90.9466 195.952 91.2681 195.488 91.5532 194.993C93.2369 197.979 96.4867 199.904 99.8558 199.904H99.9635C100.02 199.904 100.076 199.904 100.133 199.904C103.485 199.904 106.73 197.981 108.432 194.998C108.712 195.485 109.032 195.947 109.385 196.369C110.891 198.219 113.102 199.477 115.44 199.806C115.893 199.872 116.368 199.907 116.841 199.907C118.755 199.907 120.665 199.339 122.22 198.307C122.303 198.252 122.372 198.2 122.444 198.147L122.5 198.106C122.84 197.865 123.165 197.6 123.473 197.316L124.136 197.8L124.504 198.067C125.621 198.878 126.893 199.445 128.186 199.708C128.836 199.842 129.507 199.912 130.175 199.912C130.69 199.912 131.21 199.87 131.722 199.789C132.564 199.656 133.373 199.418 134.139 199.076L136.507 199.643L137.312 199.836L137.337 199.84L137.362 199.845L137.408 199.855L137.435 199.86L137.461 199.865C137.985 199.952 138.519 199.997 139.047 199.997C143.552 199.997 147.541 196.784 148.533 192.357C148.575 192.161 150.55 180.211 153.743 159.306C150.23 177.117 147.149 191.651 147.078 191.988V191.992Z" fill="#3B2D55"/>
<path d="M100 39C62.3182 39 36 62.5028 36 96.1526C36 105.504 41.666 136.124 46.4421 160.273C49.8792 177.652 52.8539 191.678 52.9251 192.013C53.8797 196.269 57.9863 199.053 62.3166 198.335L63.2164 198.194L62.5735 197.547C61.3521 196.321 60.4572 194.828 59.9832 193.238C59.7214 192.314 59.5987 191.528 59.4794 190.767C59.4264 190.423 59.3717 190.081 59.3087 189.738L57.6399 179.562C56.9025 174.958 56.1998 170.385 55.5551 165.97C55.5121 165.676 55.7159 165.401 56.0109 165.358C56.2976 165.32 56.5561 165.504 56.6141 165.78C57.5289 170.124 58.4486 174.658 59.3485 179.252L61.2941 189.384C61.3587 189.703 61.4217 190.038 61.483 190.37C61.6322 191.169 61.7846 191.997 61.9752 192.613C62.5121 194.35 63.6473 195.882 65.1736 196.932C65.341 197.047 65.51 197.16 65.684 197.261C66.5474 197.767 67.4937 198.107 68.4947 198.27C69.5089 198.436 70.5248 198.411 71.5108 198.197C72.5996 197.971 73.6702 197.487 74.6098 196.804L74.9777 196.537L74.7159 196.163C73.9685 195.093 73.4415 193.924 73.1465 192.693C72.9277 191.744 72.8532 190.93 72.7819 190.142C72.7521 189.813 72.7222 189.486 72.6841 189.163L71.6782 178.937C71.2374 174.262 70.8347 169.671 70.4833 165.29C70.4717 165.145 70.5165 165.008 70.6093 164.898C70.7021 164.788 70.833 164.722 70.9772 164.71C71.2672 164.683 71.5108 164.89 71.5522 165.17C72.1787 169.521 72.8034 174.086 73.4067 178.741L74.691 188.941C74.7341 189.253 74.7706 189.571 74.8087 189.888C74.9114 190.739 75.0075 191.543 75.1716 192.183C75.3589 192.929 75.6621 193.655 76.0682 194.34C76.6498 195.317 77.447 196.183 78.375 196.846L78.4496 196.901C78.5009 196.939 78.5507 196.977 78.602 197.01C80.2626 198.117 82.3523 198.581 84.3443 198.287C86.3147 197.994 88.1774 196.931 89.4485 195.374C89.7634 194.998 90.0484 194.584 90.2953 194.144L90.3981 193.959L90.3268 193.762C90.1744 193.33 90.0418 192.869 89.9241 192.359C89.77 191.648 89.6938 190.769 89.6888 189.665L89.6093 184.613C89.4916 178.215 89.4402 171.608 89.4551 164.414C89.4551 164.117 89.6954 163.876 89.9937 163.876C90.2771 163.876 90.5124 164.1 90.5307 164.383C90.9582 171.587 91.288 178.186 91.5366 184.555L91.7471 189.6C91.7835 190.514 91.81 191.176 91.9774 191.932C92.1282 192.53 92.3536 193.31 92.7464 194.003C92.7679 194.046 92.7928 194.084 92.8392 194.157C94.2544 196.721 97.0087 198.361 99.8658 198.361H99.9884C102.847 198.423 105.732 196.75 107.184 194.129C107.209 194.091 107.234 194.052 107.247 194.024C107.573 193.443 107.827 192.758 108.021 191.927C108.182 191.214 108.21 190.586 108.248 189.717L108.462 184.557C108.695 178.521 109.022 171.922 109.463 164.383C109.481 164.085 109.738 163.863 110.031 163.876C110.315 163.892 110.537 164.128 110.538 164.414C110.543 171.967 110.49 178.573 110.377 184.613L110.296 189.665C110.288 190.368 110.275 191.433 110.068 192.352C109.96 192.846 109.826 193.32 109.67 193.758L109.6 193.958L109.703 194.142C109.95 194.584 110.235 194.998 110.547 195.37C111.828 196.942 113.692 198.004 115.657 198.28C117.653 198.574 119.747 198.112 121.398 197.017C121.451 196.982 121.501 196.946 121.552 196.907L121.627 196.853C122.558 196.196 123.357 195.33 123.937 194.348C124.343 193.66 124.641 192.934 124.823 192.186C124.984 191.54 125.082 190.727 125.186 189.87C125.223 189.561 125.261 189.248 125.302 188.939L126.585 178.746C127.188 174.098 127.813 169.533 128.441 165.174C128.461 165.031 128.537 164.904 128.652 164.82C128.766 164.733 128.908 164.697 129.049 164.717C129.329 164.757 129.53 165.012 129.508 165.295C129.157 169.685 128.753 174.277 128.314 178.94L127.308 189.158C127.269 189.486 127.24 189.807 127.21 190.131C127.137 190.923 127.062 191.743 126.849 192.693C126.56 193.931 126.035 195.103 125.287 196.176L125.027 196.55L125.395 196.818C126.335 197.501 127.407 197.979 128.491 198.199C129.48 198.405 130.491 198.43 131.492 198.268C132.503 198.109 133.453 197.772 134.316 197.266C134.49 197.165 134.659 197.054 134.825 196.941C136.364 195.889 137.499 194.353 138.021 192.618C138.209 191.993 138.365 191.158 138.515 190.35C138.577 190.026 138.636 189.702 138.699 189.384L140.643 179.257C141.545 174.658 142.464 170.123 143.379 165.784C143.441 165.493 143.727 165.307 144.016 165.366C144.292 165.425 144.478 165.692 144.438 165.973C143.794 170.38 143.094 174.952 142.353 179.562L140.686 189.732C140.623 190.082 140.569 190.421 140.516 190.764C140.396 191.526 140.274 192.316 140.017 193.236C139.556 194.83 138.664 196.322 137.437 197.554L136.865 198.144L137.67 198.337L137.717 198.347C138.166 198.421 138.615 198.458 139.056 198.458C142.832 198.458 146.215 195.822 147.073 191.997C147.144 191.659 150.225 177.125 153.739 159.314C158.473 135.308 163.995 105.347 163.995 96.1576C164 62.5028 137.682 39 100 39Z" fill="#57D1E5"/>
<path d="M82.7949 63.666C67.4706 63.666 55.0017 76.1694 55.0017 91.536C55.0017 106.903 67.4706 119.406 82.7949 119.406C98.1191 119.406 110.588 106.903 110.588 91.536C110.588 76.1694 98.1191 63.666 82.7949 63.666Z" fill="#4D9BB6"/>
<path d="M52.2456 89.286C52.2456 104.653 64.7145 117.156 80.0404 117.156C95.3663 117.156 107.834 104.653 107.834 89.286C107.834 73.9193 95.3647 61.4143 80.0404 61.4143C64.7162 61.4143 52.2456 73.9177 52.2456 89.286Z" fill="url(#paint0_linear_36_1209)"/>
<path d="M99.009 89.6947C98.6013 101.397 90.2655 107.589 84.9475 106.328C80.4896 105.271 79.9378 95.3365 82.7252 92.7308C84.5564 91.0192 88.194 90.5539 88.2371 89.3192C88.2802 88.0845 84.684 87.3666 82.9755 85.5303C80.3769 82.7351 81.6182 72.8657 86.1391 72.1212C91.5317 71.2338 99.4167 77.994 99.009 89.6964" fill="#3B2D55"/>
<g opacity="0.15">
<path d="M93.4904 74.8882C95.9 77.9276 97.5953 82.3812 97.3998 87.9649C96.9921 99.6673 88.6563 105.857 83.3383 104.598C82.9903 104.515 82.6688 104.372 82.3672 104.189C82.9986 105.274 83.8537 106.067 84.9458 106.326C90.2638 107.587 98.5996 101.397 99.0073 89.6948C99.2426 82.9346 96.7087 77.8296 93.4888 74.8882" fill="#3B2D55"/>
</g>
<path d="M54.3189 54.5662C42.7565 64.6682 36 79.1076 36 96.1527C36 112.231 52.7544 191.213 52.9251 192.014C53.303 193.699 54.1813 195.148 55.3646 196.244C51.2083 176.301 37.982 111.661 37.982 96.6778C37.982 79.8853 43.9397 65.3928 54.3189 54.5662Z" fill="#93E1EF"/>
<path d="M113.472 119.386C117.469 122.372 113.109 136.326 115.969 138.214C118.213 138.919 126.792 131.976 128.791 123.211C129.542 119.919 128.305 116.88 125.99 116.4C123.675 115.919 117.611 117.97 113.472 119.388" fill="#4D9BB6"/>
<path d="M79.5599 129.221C82.823 129.169 86.1093 128.428 89.3392 127.512C99.3239 124.622 108.22 119.815 118.196 116.338C120.922 115.521 123.794 114.57 126.855 115.192C129.535 115.713 130.735 118.188 131.2 120.657C132.183 125.636 129.601 130.535 126.239 133.938C122.941 137.217 118.786 139.903 114.06 140.386C112.776 140.441 109.617 140.504 110.147 138.387C110.368 137.721 111.072 137.357 111.733 137.539C112.963 137.832 114.512 137.526 115.949 136.983C122.106 134.572 130.009 126.768 126.819 119.725C125.622 117.103 112.454 122.894 109.897 123.788C106.69 125.039 103.467 126.312 100.189 127.494C93.5452 129.819 86.7125 132.036 79.5202 131.841C77.8563 131.748 77.8514 129.272 79.5599 129.221Z" fill="#4D9BB6"/>
<path d="M112.353 118.304C116.35 121.29 111.99 135.245 114.85 137.132C117.094 137.837 125.674 130.894 127.672 122.13C128.423 118.838 127.187 115.798 124.872 115.318C122.556 114.838 116.493 116.888 112.353 118.306" fill="#3B2D55"/>
<path d="M78.4413 128.139C81.7044 128.087 84.9906 127.346 88.2205 126.43C98.2053 123.541 107.101 118.733 117.078 115.256C119.804 114.439 122.676 113.488 125.737 114.11C128.416 114.632 129.616 117.106 130.082 119.576C131.065 124.554 128.483 129.453 125.12 132.857C121.822 136.135 117.668 138.821 112.941 139.304C111.657 139.359 108.498 139.422 109.029 137.305C109.249 136.639 109.953 136.275 110.614 136.458C111.844 136.75 113.394 136.444 114.83 135.901C120.987 133.49 128.89 125.686 125.7 118.643C124.504 116.021 111.335 121.812 108.778 122.706C105.572 123.958 102.348 125.231 99.0703 126.412C92.4266 128.737 85.5939 130.954 78.4015 130.759C76.7377 130.666 76.7327 128.19 78.4413 128.139Z" fill="#3B2D55"/>
<defs>
<linearGradient id="paint0_linear_36_1209" x1="107.834" y1="89.286" x2="52.2456" y2="89.286" gradientUnits="userSpaceOnUse">
<stop stop-color="#CECAD5"/>
<stop offset="0.66" stop-color="white"/>
<stop offset="1" stop-color="white"/>
</linearGradient>
</defs>
</svg>
