<svg width="200" height="200" viewBox="0 0 200 200" fill="none" xmlns="http://www.w3.org/2000/svg">
<path d="M111.625 189.301C111.215 191.135 110.195 192.774 108.731 193.951C107.266 195.128 105.446 195.773 103.567 195.779C103.118 195.777 102.67 195.741 102.227 195.67H102.18L101.405 195.476L101.979 194.88C103.196 193.682 104.09 192.194 104.574 190.556C104.79 189.74 104.958 188.913 105.078 188.077C105.132 187.736 105.186 187.395 105.248 187.047L106.922 176.843C107.697 172.194 108.371 167.646 109.021 163.229C109.047 163.088 109.015 162.941 108.933 162.823C108.851 162.705 108.726 162.624 108.584 162.598C108.442 162.572 108.296 162.604 108.177 162.686C108.059 162.768 107.978 162.894 107.952 163.036C107.038 167.39 106.108 171.93 105.209 176.54L103.249 186.69L103.063 187.659C102.939 188.424 102.773 189.182 102.567 189.929C102.025 191.697 100.893 193.226 99.3598 194.26L98.8484 194.585C97.9733 195.093 97.0119 195.434 96.0127 195.593C95.0119 195.749 93.9912 195.725 92.9987 195.523C91.8803 195.282 90.8246 194.809 89.8995 194.136L89.5276 193.865L89.7911 193.493C90.5244 192.437 91.0503 191.251 91.3407 189.999C91.5153 189.152 91.6369 188.296 91.7048 187.434C91.7048 187.109 91.7358 186.783 91.7978 186.458L92.8128 176.223C93.2544 171.574 93.6573 166.925 94.0137 162.548C94.0231 162.41 93.9805 162.274 93.8944 162.166C93.8083 162.059 93.685 161.987 93.5488 161.966C93.4067 161.948 93.2629 161.984 93.1459 162.067C93.0325 162.154 92.9575 162.282 92.9367 162.424C92.3091 166.793 91.6816 171.372 91.0695 176.029L89.7833 186.241C89.7368 186.551 89.7058 186.861 89.6671 187.171C89.5884 187.951 89.4669 188.727 89.3029 189.495C88.8225 191.38 87.6815 193.029 86.0875 194.144L86.01 194.198L85.8628 194.306C84.155 195.412 82.1041 195.861 80.0906 195.569C78.8442 195.378 77.6577 194.906 76.6213 194.187C75.5848 193.469 74.7257 192.524 74.1092 191.424L74.0085 191.238L74.0782 191.037C74.2384 190.575 74.3704 190.104 74.4733 189.627C74.642 188.741 74.7198 187.84 74.7058 186.938L74.7832 181.879C74.8995 175.82 74.9537 169.203 74.946 161.633C74.9301 161.502 74.8666 161.38 74.7674 161.292C74.6682 161.204 74.5401 161.156 74.4075 161.156C74.2748 161.156 74.1468 161.204 74.0476 161.292C73.9483 161.38 73.8848 161.502 73.869 161.633C73.4274 169.188 73.0942 175.804 72.8618 181.848L72.6448 187.016C72.6398 187.76 72.5645 188.502 72.4201 189.232C72.2656 189.968 72.0046 190.678 71.6453 191.339L71.5834 191.44C70.8613 192.733 69.8054 193.81 68.5258 194.557C67.2461 195.303 65.7896 195.693 64.308 195.686H64.184C62.7401 195.669 61.3262 195.27 60.0864 194.53C58.8466 193.79 57.825 192.734 57.1257 191.471C57.0882 191.422 57.0545 191.37 57.0249 191.316C56.6768 190.66 56.4163 189.962 56.2501 189.239C56.1003 188.473 56.0225 187.695 56.0177 186.915L55.8085 181.855C55.5528 175.471 55.2274 168.862 54.7935 161.641C54.7777 161.509 54.7142 161.388 54.6149 161.3C54.5157 161.212 54.3877 161.163 54.255 161.163C54.1224 161.163 53.9944 161.212 53.8951 161.3C53.7959 161.388 53.7324 161.509 53.7166 161.641C53.7166 168.854 53.7165 175.471 53.8715 181.886L53.949 186.946C53.9373 187.85 54.0178 188.754 54.1892 189.642C54.2952 190.12 54.4297 190.591 54.5921 191.052L54.6618 191.246L54.5611 191.432C54.3174 191.869 54.032 192.282 53.7088 192.664C52.4168 194.236 50.5906 195.275 48.5797 195.585C46.5641 195.876 44.5116 195.421 42.8074 194.306L42.6525 194.198L42.5827 194.144C41.6406 193.476 40.8488 192.618 40.2583 191.626C39.8545 190.955 39.5492 190.229 39.3518 189.472C39.1869 188.704 39.0654 187.928 38.9877 187.147L38.8715 186.194L37.5775 175.975C36.9732 171.326 36.3456 166.739 35.718 162.377C35.6987 162.241 35.6275 162.117 35.5193 162.032C35.411 161.947 35.274 161.907 35.1369 161.92C35.0669 161.925 34.9986 161.944 34.9361 161.976C34.8736 162.008 34.818 162.052 34.7728 162.106C34.6795 162.216 34.6323 162.357 34.6411 162.501C34.9975 166.886 35.4159 171.489 35.842 176.176L36.857 186.419C36.857 186.744 36.919 187.07 36.95 187.403C37.0131 188.263 37.1374 189.117 37.3219 189.96C37.6155 191.206 38.1412 192.387 38.8715 193.439L39.1349 193.811L38.763 194.082C37.8383 194.757 36.7827 195.232 35.6638 195.476C33.665 195.897 31.5815 195.563 29.8141 194.539C29.6379 194.437 29.4672 194.326 29.3027 194.206C27.7748 193.168 26.6419 191.644 26.0873 189.882C25.8811 189.143 25.7156 188.393 25.5915 187.635C25.5295 187.302 25.4675 186.961 25.3978 186.644L23.4453 176.494C22.5388 171.892 21.6167 167.344 20.6947 162.989C20.6572 162.86 20.5733 162.75 20.4591 162.679C20.3449 162.609 20.2087 162.583 20.0766 162.607C19.9446 162.631 19.8262 162.703 19.7443 162.81C19.6624 162.916 19.6228 163.049 19.6333 163.183C20.2841 167.607 20.9892 172.186 21.7252 176.804L23.4065 187C23.4685 187.341 23.5227 187.69 23.577 188.031C23.6904 188.867 23.8587 189.695 24.0806 190.51C24.5839 192.139 25.4776 193.621 26.6839 194.826L27.327 195.469L26.4282 195.616C24.3579 195.953 22.2368 195.491 20.4946 194.323C18.7524 193.155 17.5194 191.368 17.0455 189.324C16.9757 188.991 13.985 174.937 10.5294 157.558C13.5046 177.966 15.4959 189.487 15.4959 189.658C15.5567 189.941 15.6343 190.22 15.7283 190.494L15.798 190.711V190.773C15.86 190.952 15.9297 191.122 15.9995 191.292C16.0692 191.463 16.0925 191.517 16.1467 191.626C16.2009 191.734 16.2784 191.897 16.3481 192.029V192.083C16.4024 192.191 16.4644 192.3 16.5263 192.4C16.5883 192.501 16.5961 192.517 16.6271 192.571V192.617C16.8347 192.954 17.0623 193.277 17.3089 193.586V193.632C17.4329 193.787 17.5723 193.942 17.735 194.128L17.8048 194.198C17.9597 194.368 18.1147 194.516 18.2696 194.663C20.0746 196.332 22.4432 197.259 24.9019 197.258C25.4419 197.261 25.981 197.217 26.5135 197.127L27.4045 196.987L30.2867 196.538C30.9147 196.781 31.5665 196.958 32.2315 197.065C32.7439 197.147 33.262 197.189 33.781 197.189C34.461 197.19 35.1391 197.117 35.8033 196.972C37.1331 196.689 38.3876 196.126 39.4835 195.321L39.8555 195.058L40.5218 194.57C40.8326 194.849 41.1613 195.108 41.5058 195.345L41.5678 195.391L41.7847 195.546C43.3958 196.603 45.2816 197.163 47.2083 197.158C47.6827 197.159 48.1566 197.125 48.6261 197.057C51.0522 196.763 53.2815 195.575 54.8787 193.725C55.2366 193.298 55.5556 192.839 55.8317 192.354C56.6737 193.83 57.8865 195.06 59.3501 195.923C60.8138 196.786 62.4774 197.252 64.1763 197.274H64.4552C66.1627 197.251 67.8344 196.781 69.3038 195.911C70.7733 195.041 71.9893 193.801 72.8308 192.315C73.1098 192.802 73.4313 193.264 73.7915 193.694C75.3025 195.544 77.444 196.769 79.8039 197.134C80.2708 197.203 80.7421 197.237 81.2141 197.235C83.1396 197.241 85.0247 196.683 86.6376 195.631L86.8623 195.476H86.9166C87.2568 195.237 87.5827 194.979 87.8928 194.702L88.5591 195.19L88.931 195.461C90.0314 196.266 91.2916 196.826 92.6268 197.103C93.2849 197.236 93.9545 197.304 94.6258 197.305C95.9968 197.304 97.3528 197.019 98.6082 196.468L100.987 197.034L101.762 197.227H101.909C102.437 197.314 102.97 197.358 103.505 197.359C105.724 197.343 107.872 196.579 109.601 195.189C111.331 193.8 112.541 191.867 113.035 189.704C113.035 189.51 115.065 177.532 118.273 156.589C114.794 174.402 111.702 188.968 111.625 189.301Z" fill="#3B2D55"/>
<path d="M64.3081 36C26.4438 36 0 59.5538 0 93.2729C0 102.64 5.69475 133.322 10.4907 157.519C13.9463 174.936 16.937 188.991 17.0068 189.286C17.4709 191.349 18.7078 193.155 20.4631 194.334C22.2184 195.513 24.3587 195.974 26.4438 195.623L27.3426 195.476L26.6995 194.833C25.4932 193.628 24.5995 192.147 24.0962 190.518C23.8742 189.703 23.706 188.875 23.5925 188.038C23.5383 187.697 23.4841 187.349 23.4221 187.008L21.7408 176.811C21.0047 172.163 20.2997 167.615 19.6488 163.191C19.6384 163.057 19.678 162.924 19.7598 162.817C19.8417 162.711 19.9601 162.639 20.0922 162.615C20.2242 162.591 20.3605 162.616 20.4747 162.687C20.5888 162.758 20.6728 162.868 20.7103 162.997C21.6323 167.351 22.5543 171.899 23.4608 176.502L25.4133 186.651C25.483 186.969 25.545 187.31 25.607 187.643C25.7311 188.401 25.8967 189.151 26.1029 189.89C26.6575 191.652 27.7904 193.175 29.3183 194.213C29.4828 194.333 29.6535 194.445 29.8296 194.547C31.2062 195.351 32.7876 195.737 34.38 195.655C35.9725 195.574 37.5065 195.03 38.794 194.089L39.1659 193.818L38.9025 193.446C38.1722 192.394 37.6466 191.214 37.3529 189.967C37.1685 189.125 37.0442 188.271 36.981 187.411C36.981 187.078 36.9268 186.752 36.888 186.427L35.8731 176.184C35.4314 171.535 35.0285 166.886 34.6721 162.509C34.6634 162.365 34.7106 162.223 34.8038 162.114C34.8491 162.06 34.9046 162.016 34.9671 161.984C35.0297 161.952 35.098 161.933 35.168 161.928C35.3051 161.914 35.442 161.954 35.5503 162.04C35.6586 162.125 35.7298 162.248 35.7491 162.385C36.3767 166.747 37.0043 171.318 37.6086 175.982L38.9025 186.202L39.0187 187.155C39.0964 187.936 39.218 188.712 39.3829 189.479C39.5788 190.242 39.8842 190.973 40.2894 191.649C40.8798 192.641 41.6716 193.499 42.6138 194.167L42.6835 194.221L42.8385 194.33C44.5426 195.445 46.5951 195.899 48.6107 195.608C50.6216 195.299 52.4478 194.259 53.7399 192.687C54.0631 192.305 54.3485 191.892 54.5921 191.455L54.6928 191.269L54.6231 191.075C54.4608 190.614 54.3262 190.143 54.2202 189.665C54.0489 188.777 53.9684 187.874 53.98 186.969L53.9026 181.91C53.7786 175.494 53.7321 168.878 53.7476 161.664C53.7634 161.532 53.827 161.411 53.9262 161.323C54.0254 161.235 54.1534 161.187 54.2861 161.187C54.4187 161.187 54.5468 161.235 54.646 161.323C54.7452 161.411 54.8087 161.532 54.8246 161.664C55.2585 168.885 55.5994 175.494 55.8396 181.879L56.0487 186.938C56.0535 187.718 56.1313 188.497 56.2812 189.262C56.4474 189.986 56.7079 190.684 57.056 191.339C57.0856 191.393 57.1192 191.445 57.1567 191.494C57.8561 192.757 58.8776 193.813 60.1175 194.553C61.3573 195.294 62.7711 195.692 64.2151 195.709H64.3081C65.7818 195.708 67.2286 195.314 68.4994 194.568C69.7701 193.822 70.8187 192.75 71.5369 191.463L71.5989 191.362C71.9581 190.701 72.2191 189.991 72.3737 189.255C72.5181 188.525 72.5933 187.783 72.5984 187.039L72.8153 181.871C73.0478 175.827 73.3809 169.211 73.8226 161.656C73.8384 161.525 73.9019 161.403 74.0011 161.315C74.1004 161.227 74.2284 161.179 74.361 161.179C74.4937 161.179 74.6217 161.227 74.7209 161.315C74.8202 161.403 74.8837 161.525 74.8995 161.656C74.8995 169.226 74.853 175.843 74.7368 181.902L74.6593 186.961C74.6734 187.863 74.5955 188.764 74.4269 189.65C74.3239 190.127 74.192 190.598 74.0318 191.06L73.962 191.261L74.0627 191.447C74.6793 192.547 75.5384 193.492 76.5748 194.211C77.6113 194.929 78.7977 195.401 80.0442 195.593C82.0577 195.884 84.1085 195.435 85.8164 194.33L85.9636 194.221L86.0411 194.167C87.6351 193.052 88.776 191.403 89.2565 189.518C89.4204 188.751 89.542 187.975 89.6207 187.194C89.6594 186.884 89.6904 186.574 89.7369 186.264L91.023 176.052C91.6351 171.403 92.2627 166.817 92.8903 162.447C92.9111 162.305 92.9861 162.177 93.0995 162.09C93.2165 162.008 93.3602 161.972 93.5024 161.99C93.6386 162.011 93.7619 162.082 93.848 162.19C93.9341 162.297 93.9766 162.433 93.9673 162.571C93.6109 166.972 93.1925 171.566 92.7663 176.246L91.7513 186.481C91.71 186.806 91.679 187.132 91.6584 187.457C91.5905 188.319 91.4689 189.175 91.2942 190.022C91.0038 191.274 90.478 192.46 89.7446 193.516L89.4812 193.888L89.8531 194.159C90.7782 194.832 91.8338 195.305 92.9523 195.546C93.9448 195.748 94.9654 195.772 95.9662 195.616C96.9655 195.458 97.9268 195.116 98.802 194.609L99.3133 194.283C100.847 193.249 101.979 191.72 102.521 189.952C102.727 189.205 102.893 188.447 103.017 187.682L103.203 186.713L105.163 176.564C106.062 171.953 106.992 167.413 107.906 163.059C107.932 162.917 108.012 162.791 108.131 162.709C108.249 162.627 108.396 162.595 108.537 162.621C108.679 162.647 108.805 162.728 108.887 162.846C108.969 162.965 109.001 163.111 108.975 163.253C108.324 167.669 107.619 172.248 106.875 176.866L105.202 187.062C105.14 187.411 105.086 187.752 105.031 188.092C104.912 188.928 104.744 189.756 104.528 190.572C104.043 192.21 103.15 193.697 101.932 194.895L101.359 195.492L102.134 195.685H102.18C102.623 195.756 103.072 195.792 103.52 195.794C105.399 195.788 107.22 195.144 108.684 193.967C110.148 192.79 111.169 191.15 111.578 189.317C111.656 188.984 114.747 174.417 118.28 156.574C123.038 132.516 128.585 102.493 128.585 93.2884C128.616 59.5538 102.188 36 64.3081 36Z" fill="#57D1E5"/>
<path d="M18.4247 51.5966C6.80271 61.7231 0 76.1886 0 93.2728C0 109.381 16.8363 188.526 17.0455 189.348C17.4128 190.978 18.2666 192.459 19.4939 193.593C15.2945 173.58 2.00672 108.807 2.00672 93.7764C2.00672 76.9556 7.99589 62.4282 18.4247 51.5811" fill="#93E1EF"/>
<path d="M47.1077 60.7161C41.5742 60.7161 36.1649 62.3569 31.564 65.4312C26.963 68.5054 23.377 72.875 21.2595 77.9873C19.1419 83.0996 18.5878 88.725 19.6674 94.1522C20.7469 99.5793 23.4115 104.565 27.3243 108.477C31.2371 112.39 36.2223 115.055 41.6494 116.134C47.0766 117.214 52.702 116.66 57.8143 114.542C62.9266 112.425 67.2962 108.839 70.3704 104.238C73.4447 99.6367 75.0856 94.2275 75.0856 88.694C75.0773 81.2763 72.127 74.1648 66.882 68.9197C61.6369 63.6746 54.5253 60.7243 47.1077 60.7161Z" fill="#4D9BB6"/>
<path d="M16.356 86.4393C16.356 91.9728 17.9968 97.3821 21.0711 101.983C24.1453 106.584 28.5149 110.17 33.6272 112.288C38.7395 114.405 44.3649 114.959 49.7921 113.88C55.2192 112.8 60.2044 110.135 64.1172 106.223C68.03 102.31 70.6946 97.3247 71.7741 91.8975C72.8537 86.4704 72.2996 80.8449 70.182 75.7326C68.0645 70.6204 64.4785 66.2508 59.8775 63.1765C55.2766 60.1023 49.8673 58.4614 44.3338 58.4614C36.9155 58.4676 29.8028 61.4172 24.5573 66.6628C19.3118 71.9083 16.3621 79.021 16.356 86.4393Z" fill="url(#paint0_linear_36_3012)"/>
<path d="M63.4247 86.8499C63.0141 98.5958 54.6231 104.81 49.2692 103.539C44.7832 102.478 44.233 92.5137 47.0378 89.8949C48.8818 88.1748 52.5389 87.7099 52.5854 86.4703C52.6318 85.2306 49.0058 84.479 47.2625 82.666C44.6747 79.8303 45.9221 69.9516 50.4702 69.2078C55.8937 68.3168 63.8354 75.0962 63.4247 86.8499Z" fill="#3B2D55"/>
<g opacity="0.15">
<path d="M57.8695 71.9817C60.2946 75.0344 62.0069 79.505 61.8055 85.1145C61.3948 96.8759 53.0038 103.074 47.6577 101.804C47.3102 101.723 46.978 101.587 46.6737 101.401C46.9368 101.916 47.3029 102.372 47.7494 102.739C48.1959 103.107 48.7132 103.379 49.2693 103.539C54.6231 104.81 63.0142 98.5959 63.4248 86.85C63.665 80.0628 61.1004 74.9337 57.8695 71.9817Z" fill="#3B2D55"/>
</g>
<path d="M27.1179 125.931C44.2977 128.377 61.7663 124.224 76.0075 114.309C76.3969 114.036 76.8785 113.93 77.3464 114.013C77.8143 114.096 78.2301 114.361 78.5024 114.75C78.7746 115.14 78.8811 115.621 78.7982 116.089C78.7154 116.557 78.4501 116.973 78.0607 117.245C63.0242 127.491 44.6583 131.645 26.6763 128.867C26.3235 128.77 26.0186 128.547 25.8192 128.24C25.6198 127.934 25.5397 127.565 25.5941 127.203C25.6486 126.841 25.8337 126.512 26.1145 126.277C26.3953 126.043 26.7522 125.92 27.1179 125.931Z" fill="#4D9BB6"/>
<path d="M77.9833 118.965C77.7401 117.855 77.1421 116.853 76.2797 116.113C75.4173 115.372 74.3373 114.932 73.2028 114.859C72.7428 114.816 72.317 114.598 72.0137 114.249C71.7104 113.901 71.5528 113.449 71.5737 112.988C71.5947 112.526 71.7925 112.09 72.1261 111.771C72.4597 111.451 72.9035 111.273 73.3655 111.271C75.2784 111.548 77.0319 112.492 78.3164 113.937C79.3856 114.967 81.7255 119.585 79.2539 119.926C78.9613 119.949 78.6705 119.864 78.4364 119.687C78.2023 119.51 78.0411 119.253 77.9833 118.965Z" fill="#4D9BB6"/>
<path d="M26.5599 124.675C43.742 127.117 61.2115 122.965 75.4573 113.054C75.847 112.795 76.3225 112.699 76.782 112.786C77.2415 112.874 77.6484 113.138 77.9158 113.522C78.1831 113.905 78.2896 114.379 78.2124 114.84C78.1352 115.301 77.8805 115.714 77.5028 115.99C62.4696 126.236 44.1057 130.391 26.1261 127.612C25.7356 127.554 25.384 127.344 25.1487 127.027C24.9133 126.711 24.8133 126.313 24.8709 125.923C24.9284 125.532 25.1387 125.181 25.4555 124.945C25.7722 124.71 26.1695 124.61 26.5599 124.668" fill="#3B2D55"/>
<path d="M77.4253 117.702C77.1787 116.594 76.5797 115.594 75.718 114.854C74.8563 114.114 73.7782 113.673 72.6449 113.596C72.2243 113.509 71.849 113.274 71.5867 112.934C71.3245 112.593 71.1926 112.171 71.2151 111.742C71.2376 111.313 71.4129 110.906 71.7092 110.595C72.0056 110.285 72.4035 110.09 72.8308 110.047C74.7427 110.328 76.4952 111.271 77.7817 112.713C78.8432 113.743 81.1908 118.361 78.7115 118.702C78.4198 118.724 78.13 118.639 77.8972 118.462C77.6644 118.285 77.5047 118.028 77.4486 117.741" fill="#3B2D55"/>
<path d="M136.426 89.8329L103.513 105.678C101.381 106.703 99.5084 108.195 98.0329 110.043C96.5574 111.892 95.5174 114.049 94.9899 116.354L86.8623 151.995C86.3358 154.299 86.3354 156.693 86.8613 158.997C87.3871 161.302 88.4256 163.458 89.8995 165.306L112.671 193.857C114.145 195.705 116.016 197.198 118.146 198.224C120.276 199.25 122.61 199.784 124.975 199.784H161.498C163.862 199.783 166.194 199.25 168.323 198.224C170.452 197.198 172.322 195.705 173.794 193.857L196.566 165.306C198.041 163.459 199.081 161.302 199.606 158.998C200.132 156.693 200.131 154.299 199.603 151.995L191.475 116.354C190.949 114.048 189.91 111.89 188.434 110.042C186.959 108.193 185.085 106.701 182.953 105.678L150.078 89.8329C147.948 88.8078 145.615 88.2754 143.252 88.2754C140.889 88.2754 138.555 88.8078 136.426 89.8329Z" fill="#F2F2F2"/>
<path d="M143.252 90.6C145.264 90.6018 147.249 91.0545 149.063 91.9249L181.976 107.777C183.794 108.646 185.392 109.916 186.648 111.492C187.904 113.067 188.786 114.907 189.228 116.873L197.356 152.514C197.809 154.477 197.812 156.518 197.364 158.482C196.915 160.447 196.028 162.284 194.768 163.857L172.005 192.377C170.751 193.955 169.157 195.229 167.342 196.104C165.526 196.979 163.537 197.432 161.522 197.429H124.99C122.975 197.433 120.984 196.981 119.169 196.106C117.353 195.231 115.759 193.956 114.507 192.377L91.728 163.826C90.4681 162.253 89.5808 160.416 89.1326 158.451C88.6844 156.487 88.687 154.446 89.1402 152.483L97.2678 116.842C97.7098 114.876 98.5921 113.036 99.8482 111.461C101.104 109.885 102.702 108.615 104.52 107.746L137.433 91.8939C139.25 91.0234 141.238 90.5707 143.252 90.569M143.252 88.2446C140.889 88.2411 138.556 88.7708 136.426 89.7942L103.513 105.678C101.381 106.703 99.5084 108.195 98.0329 110.043C96.5574 111.892 95.5174 114.049 94.9899 116.354L86.8623 151.995C86.3358 154.299 86.3354 156.693 86.8613 158.997C87.3871 161.302 88.4256 163.458 89.8995 165.306L112.671 193.857C114.145 195.705 116.016 197.198 118.146 198.224C120.276 199.25 122.61 199.784 124.975 199.784H161.498C163.862 199.784 166.194 199.25 168.323 198.224C170.452 197.198 172.322 195.705 173.794 193.857L196.566 165.306C198.041 163.459 199.081 161.302 199.606 158.998C200.132 156.693 200.131 154.299 199.603 151.995L191.475 116.354C190.949 114.048 189.91 111.89 188.434 110.042C186.959 108.193 185.085 106.701 182.953 105.678L150.078 89.833C147.948 88.8113 145.615 88.2817 143.252 88.2834V88.2446Z" fill="#3B2D55"/>
<path d="M184.944 154.559C184.82 154.559 184.688 154.559 184.688 154.428C184.688 154.296 184.425 154.296 184.161 154.296C183.651 154.194 183.131 154.153 182.612 154.172C182.347 154.19 182.081 154.145 181.837 154.04H181.705C180.203 153.909 178.715 153.65 177.258 153.266C177.049 153.188 176.859 153.066 176.701 152.908C176.543 152.751 176.421 152.561 176.344 152.351L175.298 152.088C175.781 148.251 175.602 144.359 174.771 140.582C173.852 136.775 172.304 133.149 170.192 129.851L170.966 129.076V128.945C170.957 128.519 171.094 128.104 171.354 127.767C172.488 126.778 173.715 125.901 175.019 125.148L175.793 124.761C176.313 124.497 176.708 124.234 177.227 123.986C177.359 123.854 177.49 123.854 177.622 123.723C177.754 123.591 177.622 123.599 177.622 123.467C177.903 123.266 178.141 123.009 178.321 122.713C178.5 122.418 178.618 122.088 178.666 121.746C178.715 121.403 178.693 121.054 178.603 120.72C178.513 120.386 178.356 120.074 178.141 119.802C177.919 119.528 177.641 119.305 177.325 119.148C177.01 118.99 176.665 118.901 176.313 118.888C175.649 118.903 175.008 119.132 174.484 119.539L174.352 119.67C174.221 119.802 174.089 119.934 173.957 119.934C173.571 120.291 173.22 120.685 172.911 121.111C172.779 121.367 172.516 121.499 172.384 121.631C171.42 122.725 170.321 123.693 169.115 124.513C168.88 124.659 168.615 124.749 168.34 124.776C168.157 124.795 167.973 124.749 167.821 124.645H167.689L166.643 125.295C165.589 124.249 164.419 123.203 163.366 122.196C158.429 118.383 152.525 116.027 146.32 115.393L146.196 114.348V114.479C145.861 114.218 145.628 113.848 145.538 113.433C145.498 111.943 145.586 110.453 145.801 108.978V108.854C145.801 108.591 145.933 108.327 145.933 108.079C146.065 107.56 146.065 107.033 146.196 106.53V105.755C146.196 105.06 145.92 104.394 145.429 103.903C144.938 103.412 144.272 103.136 143.577 103.136C142.883 103.136 142.217 103.412 141.726 103.903C141.235 104.394 140.959 105.06 140.959 105.755V106.414C140.983 106.939 141.072 107.459 141.222 107.963C141.327 108.207 141.372 108.473 141.354 108.738V108.87C141.577 110.341 141.665 111.83 141.617 113.317C141.527 113.732 141.294 114.102 140.959 114.363V114.619L140.827 115.672C139.394 115.796 137.952 116.06 136.38 116.323C130.213 117.68 124.603 120.873 120.287 125.481L119.512 124.954H119.381C119.249 124.954 119.117 125.086 118.861 125.086C118.588 125.056 118.324 124.969 118.087 124.831C116.908 123.927 115.813 122.918 114.817 121.817C114.685 121.553 114.422 121.421 114.298 121.297C113.903 120.902 113.639 120.523 113.252 120.12C113.12 119.988 112.988 119.988 112.857 119.856L112.725 119.725C112.201 119.317 111.56 119.089 110.897 119.074C110.536 119.043 110.174 119.113 109.85 119.274C109.527 119.435 109.253 119.682 109.06 119.988C108.691 120.56 108.541 121.245 108.638 121.919C108.735 122.592 109.072 123.208 109.587 123.653C109.604 123.652 109.621 123.654 109.637 123.66C109.653 123.666 109.667 123.675 109.68 123.686C109.692 123.698 109.702 123.712 109.709 123.727C109.715 123.743 109.719 123.76 109.719 123.777C109.719 123.777 109.975 124.04 110.106 124.04C110.571 124.326 111.052 124.585 111.547 124.815L112.322 125.202C113.646 125.923 114.877 126.802 115.987 127.821C116.145 127.969 116.264 128.155 116.333 128.36C116.402 128.566 116.419 128.785 116.382 128.999V128.867L117.157 129.642C117.025 129.905 116.893 130.037 116.762 130.301C112.677 136.657 111.05 144.284 112.183 151.755L111.137 152.018C111.137 152.142 111.005 152.142 111.005 152.142C110.81 152.542 110.489 152.866 110.091 153.064C108.635 153.458 107.146 153.717 105.643 153.839C105.378 153.819 105.112 153.865 104.869 153.971C104.342 153.971 103.823 154.102 103.319 154.102C103.187 154.102 103.063 154.234 102.8 154.234C102.668 154.234 102.668 154.234 102.536 154.358C102.199 154.414 101.876 154.537 101.587 154.72C101.298 154.903 101.048 155.142 100.853 155.423C100.658 155.704 100.521 156.021 100.451 156.356C100.381 156.691 100.379 157.036 100.445 157.372C100.586 157.942 100.929 158.442 101.41 158.778C101.892 159.115 102.479 159.265 103.063 159.2C103.288 159.22 103.514 159.174 103.714 159.069C103.846 159.069 103.846 159.069 103.846 158.937C103.846 158.805 104.233 158.937 104.365 158.937C104.854 158.789 105.335 158.615 105.806 158.418C106.042 158.274 106.306 158.184 106.581 158.154H106.713C108.111 157.628 109.556 157.234 111.028 156.977H111.16C111.547 156.965 111.923 157.107 112.206 157.372C112.241 157.372 112.274 157.386 112.299 157.411C112.324 157.435 112.338 157.469 112.338 157.504L113.515 157.372C115.465 163.439 119.206 168.774 124.246 172.674C125.339 173.571 126.523 174.35 127.779 174.999L127.121 175.913C127.121 175.948 127.135 175.981 127.159 176.006C127.184 176.031 127.218 176.045 127.252 176.045C127.369 176.24 127.441 176.458 127.464 176.685C127.487 176.911 127.46 177.139 127.384 177.354C126.818 178.687 126.117 179.959 125.292 181.15V181.282C125.157 181.529 124.979 181.75 124.765 181.933C124.51 182.196 124.246 182.708 123.851 183.242C123.719 183.374 123.719 183.506 123.588 183.638C123.588 183.638 123.588 183.769 123.464 183.769C123.156 184.379 123.093 185.084 123.287 185.74C123.481 186.395 123.919 186.951 124.51 187.295C124.794 187.443 125.105 187.533 125.424 187.558C125.938 187.54 126.438 187.388 126.875 187.116C127.311 186.844 127.668 186.462 127.911 186.008C127.911 185.973 127.925 185.94 127.95 185.915C127.974 185.891 128.008 185.877 128.043 185.877C128.043 185.745 128.167 185.613 128.298 185.482C128.43 184.962 128.694 184.567 128.825 184.04L129.089 183.266C129.516 181.861 130.084 180.503 130.786 179.213C131.041 178.849 131.408 178.577 131.832 178.439C131.963 178.439 131.963 178.439 131.963 178.307L132.49 177.261C136.117 178.676 139.979 179.388 143.872 179.361C146.256 179.379 148.631 179.068 150.93 178.439C152.349 178.128 153.749 177.735 155.122 177.261L155.641 178.183C155.773 178.183 155.773 178.183 155.773 178.307C156.197 178.443 156.565 178.716 156.819 179.082C157.521 180.372 158.092 181.73 158.523 183.134V183.266L158.779 184.04C158.873 184.547 159.052 185.034 159.306 185.482C159.437 185.613 159.437 185.745 159.569 185.877C159.569 185.912 159.583 185.945 159.608 185.97C159.632 185.995 159.666 186.008 159.701 186.008C159.941 186.462 160.297 186.845 160.732 187.117C161.168 187.389 161.667 187.541 162.18 187.558C162.544 187.533 162.901 187.444 163.234 187.295C163.523 187.157 163.779 186.957 163.983 186.709C164.186 186.461 164.333 186.172 164.412 185.861C164.558 185.206 164.512 184.523 164.28 183.893C164.28 183.769 164.148 183.769 164.148 183.769C164.148 183.638 164.017 183.506 163.885 183.374C163.655 182.89 163.346 182.447 162.971 182.065C162.838 181.816 162.66 181.595 162.444 181.414V181.15C161.573 179.988 160.869 178.711 160.352 177.354C160.276 177.139 160.249 176.911 160.272 176.685C160.294 176.458 160.367 176.24 160.483 176.045C160.483 176.01 160.497 175.976 160.522 175.951C160.547 175.927 160.58 175.913 160.615 175.913L160.22 174.867C166.934 170.835 171.956 164.503 174.352 157.047L175.398 157.178C175.433 157.178 175.467 157.164 175.491 157.14C175.516 157.115 175.53 157.081 175.53 157.047C175.814 156.783 176.189 156.641 176.576 156.651H176.708C178.137 156.908 179.538 157.303 180.892 157.829H181.023C181.259 157.974 181.523 158.064 181.798 158.093C182.252 158.366 182.735 158.587 183.239 158.751C183.371 158.751 183.503 158.875 183.758 158.875C183.89 158.875 183.89 158.875 184.022 159.007C184.224 159.113 184.453 159.159 184.68 159.138C185.249 159.132 185.802 158.953 186.268 158.627C186.734 158.301 187.09 157.842 187.291 157.31C187.239 156.667 186.986 156.056 186.57 155.562C186.153 155.069 185.593 154.719 184.967 154.559H184.944ZM147.141 150.507L143.608 152.204L140.075 150.507L139.161 146.711L141.648 143.612H145.569L148.056 146.711L147.141 150.507ZM168.464 141.985C169.091 144.685 169.266 147.471 168.983 150.228L156.586 146.695C156.312 146.627 156.053 146.504 155.826 146.335C155.6 146.166 155.408 145.953 155.264 145.71C155.12 145.466 155.026 145.196 154.987 144.916C154.948 144.636 154.965 144.35 155.037 144.076C155.134 143.734 155.312 143.421 155.556 143.162L165.372 134.268C166.801 136.668 167.844 139.277 168.464 142V141.985ZM161.398 129.417L150.675 137.01C150.211 137.283 149.665 137.38 149.135 137.284C148.606 137.187 148.129 136.903 147.792 136.483C147.664 136.369 147.562 136.228 147.493 136.07C147.425 135.912 147.392 135.741 147.397 135.569L146.622 122.359C152.209 122.956 157.423 125.447 161.398 129.417ZM137.72 122.746L140.339 122.227L139.68 135.306C139.658 135.876 139.412 136.416 138.996 136.807C138.581 137.198 138.027 137.41 137.457 137.398C137.096 137.371 136.743 137.284 136.411 137.142L125.563 129.394C128.942 126.127 133.143 123.837 137.72 122.77V122.746ZM121.759 134.26L131.444 142.899C131.663 143.076 131.844 143.296 131.976 143.545C132.108 143.794 132.188 144.067 132.212 144.347C132.236 144.628 132.203 144.911 132.115 145.178C132.027 145.446 131.886 145.693 131.7 145.905C131.584 146.084 131.431 146.235 131.25 146.348C131.069 146.46 130.865 146.531 130.654 146.556L117.963 150.221C117.587 144.646 118.911 139.089 121.759 134.283V134.26ZM119.535 156.372L132.49 154.211C133.003 154.179 133.51 154.334 133.918 154.645C134.326 154.957 134.609 155.405 134.714 155.908C134.789 156.122 134.817 156.351 134.794 156.577C134.771 156.803 134.699 157.022 134.582 157.217L129.608 169.25C124.942 166.174 121.406 161.661 119.535 156.396V156.372ZM149.233 172.589C147.388 173.01 145.502 173.231 143.608 173.248C140.812 173.205 138.036 172.764 135.365 171.938L141.772 160.316C142.072 159.928 142.503 159.661 142.984 159.566C143.466 159.47 143.965 159.552 144.391 159.797C144.775 160.059 145.126 160.366 145.437 160.711L151.721 172.093C150.882 172.219 150.052 172.392 149.233 172.612V172.589ZM165.194 161.207C163.202 164.381 160.519 167.064 157.346 169.056L152.24 156.76C152.11 156.273 152.158 155.756 152.373 155.301C152.589 154.845 152.959 154.481 153.417 154.273C153.795 154.129 154.192 154.043 154.595 154.017L167.681 156.241C167.093 158.013 166.255 159.693 165.194 161.23V161.207Z" fill="#476CB3"/>
<path d="M197.271 152.072L189.259 117.02C188.817 115.008 187.919 113.123 186.635 111.512C185.351 109.9 183.715 108.604 181.852 107.723L149.474 92.1573C147.577 91.1769 145.48 90.6466 143.345 90.6077C141.295 90.6087 139.272 91.0721 137.426 91.9636L105.372 107.281L137.705 93.6216C139.533 92.9007 141.489 92.5631 143.454 92.6299C145.392 92.7032 147.29 93.2088 149.009 94.1097L180.528 109.273C182.251 110.119 183.759 111.346 184.937 112.862C186.116 114.377 186.934 116.141 187.33 118.02L195.078 152.157C195.547 154.014 195.585 155.952 195.19 157.825C194.796 159.699 193.978 161.457 192.8 162.966L170.982 190.324C168.534 193.423 164.83 195.833 160.91 195.833C160.91 195.833 144.438 196.662 125.959 197.382H160.972C163.238 197.48 165.492 197.003 167.524 195.995C169.556 194.987 171.3 193.481 172.594 191.618L194.823 163.772C196.107 162.143 196.996 160.24 197.421 158.21C197.846 156.18 197.795 154.079 197.271 152.072Z" fill="white"/>
<defs>
<linearGradient id="paint0_linear_36_3012" x1="72.3117" y1="86.4393" x2="16.356" y2="86.4393" gradientUnits="userSpaceOnUse">
<stop stop-color="#CECAD5"/>
<stop offset="0.66" stop-color="white"/>
<stop offset="1" stop-color="white"/>
</linearGradient>
</defs>
</svg>
