<svg width="200" height="200" viewBox="0 0 200 200" fill="none" xmlns="http://www.w3.org/2000/svg">
<g clip-path="url(#clip0_36_1656)">
<path d="M45.4592 161.098L40.5924 167.495C43.0557 184.187 44.6797 193.595 44.7095 193.737V193.744L44.7166 193.768C44.7657 193.984 44.8272 194.208 44.9062 194.453C44.9255 194.512 44.9466 194.572 44.9676 194.631L44.9852 194.682C45.0361 194.825 45.0905 194.965 45.1485 195.103C45.1871 195.194 45.2275 195.287 45.2696 195.378C45.3223 195.492 45.3785 195.6 45.4346 195.709L45.4557 195.749C45.5014 195.838 45.5488 195.926 45.5979 196.012C45.626 196.061 45.6559 196.106 45.684 196.152L45.7085 196.19C45.8788 196.467 46.0667 196.734 46.2633 196.979L46.2897 197.014C46.3915 197.14 46.5039 197.27 46.6408 197.418L46.6987 197.48C46.8269 197.614 46.9516 197.739 47.078 197.856L47.0815 197.859C47.0815 197.859 47.092 197.87 47.0973 197.873L47.1008 197.877C48.6002 199.249 50.5262 199.998 52.5382 199.998C52.9772 199.998 53.4213 199.961 53.8585 199.889L54.5889 199.775L56.9503 199.406C57.463 199.602 57.995 199.746 58.5462 199.835C58.9729 199.905 59.4065 199.94 59.8349 199.94C60.3897 199.94 60.948 199.88 61.4906 199.765C62.5457 199.546 63.5939 199.079 64.5086 198.418L64.8124 198.199L65.3601 197.803C65.6147 198.038 65.8833 198.257 66.1642 198.456L66.2134 198.493C66.2713 198.537 66.3346 198.582 66.396 198.622C67.6706 199.467 69.2473 199.936 70.8221 199.936C71.2101 199.936 71.5999 199.908 71.9809 199.852C73.9052 199.569 75.7206 198.54 76.9618 197.028C77.2445 196.694 77.5096 196.314 77.7431 195.908C79.1284 198.351 81.8058 199.928 84.5798 199.928H84.6676C84.7133 199.928 84.7607 199.928 84.8063 199.928C87.5663 199.928 90.2385 198.355 91.6413 195.912C91.8713 196.311 92.1346 196.687 92.4261 197.034C93.6674 198.547 95.488 199.576 97.4123 199.845C97.7863 199.9 98.176 199.928 98.5658 199.928C100.142 199.928 101.716 199.462 102.995 198.619C103.062 198.573 103.122 198.531 103.18 198.489L103.225 198.456C103.505 198.258 103.773 198.043 104.026 197.81L104.572 198.206L104.874 198.425C105.794 199.088 106.84 199.551 107.906 199.767C108.442 199.877 108.995 199.935 109.544 199.935C109.969 199.935 110.397 199.901 110.819 199.833C111.512 199.725 112.178 199.529 112.808 199.25L114.759 199.714L115.422 199.872L115.442 199.877L115.461 199.88L115.498 199.887L115.521 199.893L115.543 199.896C115.974 199.968 116.414 200.003 116.85 200.003C120.558 200.003 123.844 197.373 124.661 193.751C124.696 193.588 126.376 183.483 129.085 165.835L45.4575 161.102L45.4592 161.098Z" fill="#3B2D55"/>
<path d="M32 115.012C32 128.171 45.7963 192.809 45.9368 193.466C46.7233 196.949 50.1048 199.226 53.6689 198.638L54.4098 198.522L53.8813 197.994C52.8753 196.99 52.1379 195.77 51.7499 194.466C51.534 193.711 51.4321 193.067 51.3356 192.444C51.2917 192.162 51.2478 191.882 51.1951 191.602L49.8204 183.273C49.2129 179.506 48.6353 175.763 48.1051 172.15C48.07 171.91 48.2385 171.684 48.479 171.649C48.7143 171.618 48.9285 171.768 48.9759 171.996C49.7291 175.551 50.4858 179.261 51.2267 183.021L52.8279 191.313C52.8806 191.574 52.9315 191.849 52.9842 192.12C53.1071 192.774 53.2335 193.452 53.3898 193.956C53.8304 195.376 54.7662 196.631 56.0233 197.49C56.1603 197.585 56.3007 197.677 56.4429 197.76C57.154 198.174 57.9318 198.451 58.7569 198.585C59.5927 198.72 60.4284 198.701 61.2413 198.526C62.1367 198.34 63.0198 197.945 63.7923 197.387L64.096 197.168L63.8818 196.862C63.2673 195.985 62.8319 195.03 62.5896 194.022C62.4088 193.247 62.3491 192.58 62.2894 191.935C62.2648 191.665 62.2403 191.397 62.2087 191.133L61.38 182.764C61.0165 178.939 60.6865 175.18 60.395 171.595C60.3862 171.478 60.4231 171.364 60.4986 171.273C60.5759 171.182 60.6829 171.128 60.8006 171.119C61.0394 171.098 61.2395 171.266 61.2746 171.495C61.7908 175.056 62.3052 178.792 62.8021 182.601L63.859 190.948C63.8941 191.203 63.924 191.464 63.9556 191.723C64.0399 192.419 64.1189 193.077 64.2541 193.6C64.4086 194.211 64.6579 194.804 64.9914 195.366C65.4708 196.165 66.1274 196.874 66.8911 197.417L66.9526 197.462C66.9947 197.494 67.0368 197.525 67.079 197.553C68.4467 198.459 70.1673 198.839 71.8071 198.598C73.4294 198.358 74.9639 197.488 76.0103 196.214C76.2701 195.907 76.5036 195.569 76.7073 195.208L76.7915 195.058L76.7336 194.895C76.6089 194.542 76.5001 194.165 76.4018 193.747C76.2754 193.166 76.2122 192.445 76.2069 191.543L76.1419 187.408C76.0454 182.172 76.0032 176.764 76.0155 170.878C76.0155 170.634 76.2139 170.437 76.458 170.437C76.6915 170.437 76.8846 170.62 76.9004 170.851C77.2533 176.748 77.5237 182.148 77.7291 187.361L77.9029 191.49C77.9328 192.237 77.9556 192.78 78.0925 193.397C78.2172 193.887 78.4015 194.524 78.7246 195.091C78.7421 195.126 78.7632 195.158 78.8018 195.217C79.9676 197.317 82.236 198.659 84.5886 198.659H84.6905C87.0449 198.71 89.4203 197.34 90.616 195.194C90.637 195.163 90.6563 195.131 90.6686 195.109C90.9373 194.633 91.1462 194.073 91.306 193.392C91.4376 192.809 91.4605 192.295 91.4921 191.583L91.6676 187.361C91.8608 182.421 92.1294 177.021 92.4911 170.851C92.5051 170.608 92.7175 170.424 92.9598 170.437C93.1933 170.451 93.3759 170.643 93.3777 170.878C93.3812 177.06 93.3391 182.465 93.246 187.408L93.1793 191.543C93.1723 192.118 93.1617 192.99 92.9914 193.742C92.9019 194.146 92.793 194.533 92.6649 194.893L92.6069 195.056L92.6912 195.207C92.8949 195.567 93.1301 195.907 93.3865 196.211C94.4416 197.497 95.9761 198.367 97.5949 198.592C99.2382 198.834 100.962 198.456 102.321 197.56C102.365 197.53 102.406 197.501 102.448 197.471L102.509 197.425C103.276 196.888 103.933 196.179 104.412 195.376C104.746 194.813 104.992 194.218 105.143 193.607C105.274 193.077 105.355 192.414 105.441 191.711C105.471 191.457 105.503 191.203 105.538 190.949L106.595 182.606C107.091 178.802 107.606 175.067 108.124 171.499C108.141 171.382 108.203 171.278 108.298 171.208C108.392 171.138 108.51 171.109 108.626 171.124C108.856 171.158 109.023 171.366 109.003 171.597C108.714 175.189 108.382 178.948 108.019 182.764L107.192 191.128C107.16 191.396 107.135 191.658 107.111 191.924C107.051 192.573 106.99 193.243 106.812 194.022C106.575 195.035 106.142 195.994 105.527 196.872L105.313 197.179L105.615 197.397C106.389 197.957 107.271 198.347 108.164 198.528C108.979 198.696 109.811 198.717 110.636 198.585C111.468 198.456 112.252 198.178 112.961 197.765C113.103 197.683 113.242 197.592 113.379 197.497C114.646 196.636 115.58 195.38 116.01 193.959C116.163 193.448 116.291 192.764 116.416 192.102C116.467 191.837 116.516 191.572 116.569 191.313L118.17 183.025C118.913 179.259 119.669 175.55 120.423 171.997C120.473 171.759 120.709 171.607 120.946 171.656C121.174 171.703 121.327 171.922 121.293 172.153C120.763 175.759 120.186 179.502 119.578 183.275L118.205 191.599C118.152 191.886 118.109 192.164 118.065 192.442C117.966 193.067 117.864 193.712 117.654 194.466C117.275 195.77 116.541 196.991 115.529 197.999L115.059 198.482L115.723 198.64L115.759 198.647C116.13 198.708 116.499 198.738 116.862 198.738C119.971 198.738 122.758 196.582 123.463 193.45C123.602 192.801 137.397 128.115 137.397 115.016C137.397 87.4758 115.726 68.2422 84.6975 68.2422C53.6689 68.2422 32 87.4723 32 115.012Z" fill="#57D1E5"/>
<g opacity="0.33">
<path d="M70.5325 88.4243C57.9142 88.4243 47.6469 98.6571 47.6469 111.233C47.6469 123.808 57.9142 134.041 70.5325 134.041C83.1507 134.041 93.4181 123.808 93.4181 111.233C93.4181 98.6571 83.1507 88.4243 70.5325 88.4243Z" fill="#3B2D55"/>
</g>
<path d="M45.3767 109.394C45.3767 121.969 55.6441 132.202 68.2641 132.202C80.8841 132.202 91.1497 121.969 91.1497 109.394C91.1497 96.818 80.8823 86.5835 68.2641 86.5835C55.6458 86.5835 45.3767 96.8162 45.3767 109.394Z" fill="url(#paint0_linear_36_1656)"/>
<path d="M83.8828 109.726C83.5475 119.304 76.6827 124.37 72.3039 123.338C68.6328 122.472 68.178 114.342 70.4727 112.209C71.9809 110.808 74.9761 110.428 75.0112 109.416C75.0464 108.405 72.0845 107.817 70.6799 106.316C68.5397 104.029 69.5633 95.9501 73.2854 95.3429C77.7256 94.6168 84.2182 100.15 83.8828 109.726Z" fill="#3B2D55"/>
<g opacity="0.15">
<path d="M79.3392 97.6106C81.3231 100.097 82.7189 103.744 82.5591 108.312C82.2238 117.891 75.359 122.956 70.9802 121.924C70.6941 121.856 70.429 121.74 70.1814 121.59C70.7011 122.479 71.4051 123.128 72.304 123.339C76.6828 124.372 83.5476 119.304 83.8829 109.728C84.076 104.195 81.9903 100.017 79.3392 97.6106Z" fill="#3B2D55"/>
</g>
<path opacity="0.35" d="M47.085 80.9771C37.5638 89.2448 32 101.063 32 115.012C32 128.171 45.7963 192.809 45.9368 193.466C46.2475 194.844 46.9709 196.031 47.9453 196.928C44.5217 180.605 33.631 127.703 33.631 115.443C33.631 101.7 38.5365 89.838 47.0833 80.9788" fill="white"/>
<g opacity="0.33">
<path d="M95.7917 134.025C99.0819 136.468 95.4915 147.889 97.8477 149.434C99.6964 150.012 106.76 144.328 108.406 137.156C109.024 134.461 108.006 131.975 106.099 131.581C104.193 131.187 99.2013 132.865 95.7917 134.025Z" fill="#3B2D55"/>
<path d="M67.8691 142.076C70.5571 142.034 73.2626 141.427 75.9207 140.678C84.1427 138.312 91.4693 134.379 99.6824 131.534C101.928 130.864 104.293 130.087 106.812 130.596C109.019 131.023 110.006 133.049 110.39 135.068C111.2 139.144 109.074 143.152 106.305 145.938C103.591 148.622 100.169 150.82 96.2764 151.215C95.2194 151.261 92.6175 151.312 93.0547 149.579C93.2372 149.035 93.8166 148.736 94.3609 148.886C95.3722 149.126 96.6486 148.874 97.8319 148.43C102.901 146.456 109.409 140.069 106.783 134.305C105.798 132.16 94.9543 136.899 92.8492 137.63C90.2087 138.654 87.554 139.697 84.8555 140.662C79.3847 142.564 73.7577 144.379 67.8357 144.22C66.4663 144.144 66.461 142.118 67.8691 142.076Z" fill="#3B2D55"/>
</g>
<path d="M94.8718 133.142C98.162 135.585 94.5716 147.005 96.9278 148.551C98.7765 149.128 105.84 143.445 107.487 136.272C108.105 133.578 107.086 131.091 105.18 130.697C103.273 130.304 98.2814 131.982 94.8718 133.142Z" fill="#3B2D55"/>
<path d="M66.9473 141.191C69.6353 141.149 72.3408 140.542 74.999 139.793C83.2209 137.427 90.5475 133.493 98.7607 130.648C101.006 129.978 103.371 129.201 105.891 129.71C108.098 130.137 109.084 132.164 109.469 134.183C110.278 138.258 108.152 142.267 105.383 145.053C102.669 147.737 99.247 149.934 95.3546 150.33C94.2977 150.375 91.6957 150.426 92.1329 148.694C92.3155 148.15 92.8949 147.85 93.4391 148.001C94.4504 148.241 95.7268 147.989 96.9102 147.544C101.979 145.57 108.487 139.184 105.861 133.42C104.876 131.275 94.0326 136.013 91.9275 136.745C89.2869 137.768 86.6323 138.811 83.9338 139.777C78.463 141.679 72.8359 143.493 66.914 143.334C65.5445 143.259 65.5392 141.233 66.9473 141.191Z" fill="#3B2D55"/>
<path d="M70.1321 59.8067L64.0837 70.8828C75.5573 70.8863 110.217 76.1077 130.061 88.2599C133.55 79.6842 134.063 77.6457 134.063 77.6457C134.063 77.6457 122.422 65.9922 102.572 62.2214C82.7223 58.4506 70.1321 59.8067 70.1321 59.8067Z" fill="white"/>
<path d="M156.016 49.0435C159.433 46.2701 161.113 42.2491 160.174 36.494C158.569 26.6445 146.691 24.2403 141.739 25.2657L141.061 25.5404L139.718 26.4975C140.462 22.6462 141.719 17.3619 137.741 12.8597C130.994 5.22187 121.323 4.68994 111.395 11.2586C110.817 11.3479 109.065 13.0819 108.326 11.0714C101.338 -1.9505 82.1219 -5.28734 73.1046 10.9472L73.1433 10.7722C73.1433 10.7722 64.1453 7.96729 56.4957 17.3601C47.6434 28.2281 47.4749 50.5203 62.7091 58.6708L139.869 81.698C153.291 87.6945 166.081 81.8817 167.188 68.2526C168.151 56.3716 160.379 51.0575 156.016 49.0435Z" fill="#F9F9F9"/>
<path d="M58.8728 73.3552C60.2282 66.426 62.3947 58.4278 62.3947 58.4278C62.3947 58.4278 77.5833 58.1863 91.7203 60.678C107.58 63.4741 133.827 76.8757 137.795 80.4698C139.395 81.9186 138.764 83.9624 138.764 83.9624C138.764 83.9624 138.508 88.2003 134.329 97.6579C120.105 84.1618 87.1379 72.3805 58.8728 73.3552Z" fill="#E8E8E8"/>
<path d="M109.65 18.0163C109.98 21.7591 100.578 12.6812 90.0963 13.633C80.375 14.5149 78.0767 16.3032 72.9501 20.445C72.4111 20.8807 71.6087 20.4992 71.6052 19.808C71.5455 10.2612 79.0617 2.08621 88.9762 1.18682C99.4577 0.234938 108.714 7.77126 109.65 18.018V18.0163Z" fill="#E8E8E8"/>
<path d="M141.437 25.8852C148.844 25.229 155.365 28.6691 158.035 34.4993C160.577 40.0514 158.381 46.6481 153.152 51.1433C150.382 53.5248 153.535 42.3436 152.071 36.9053C150.273 30.2334 147.52 27.8992 141.438 25.8852H141.437Z" fill="#E8E8E8"/>
<path d="M111.662 12.5849C116.788 7.8412 125.277 5.08878 132.367 9.56648C140.515 14.7126 140.531 21.612 138.499 28.2699C137.451 31.7013 133.053 20.2087 128.169 16.3049C122.177 11.5157 118.181 10.9488 111.662 12.5849Z" fill="#E8E8E8"/>
<path d="M164.863 63.8065C164.784 66.5187 163.957 69.0331 162.586 71.1608C159.938 75.2658 163.599 60.3839 153.548 58.4749C145.714 56.9858 142.875 48.7723 150.847 49.0033C158.82 49.2343 165.095 55.8625 164.863 63.8083V63.8065Z" fill="#E8E8E8"/>
<path d="M54.4888 25.3165C54.3553 28.0269 54.9821 30.5973 56.183 32.8248C58.5005 37.124 59.3363 20.6148 69.5071 19.4932C69.5545 18.6515 69.6194 15.2657 71.3295 11.5526C62.3684 10.424 54.8803 17.3759 54.4888 25.3165Z" fill="#E8E8E8"/>
</g>
<defs>
<linearGradient id="paint0_linear_36_1656" x1="91.1497" y1="109.392" x2="45.3767" y2="109.392" gradientUnits="userSpaceOnUse">
<stop stop-color="#CECAD5"/>
<stop offset="0.66" stop-color="white"/>
<stop offset="1" stop-color="white"/>
</linearGradient>
<clipPath id="clip0_36_1656">
<rect width="200" height="200" fill="white"/>
</clipPath>
</defs>
</svg>
