<svg width="200" height="200" viewBox="0 0 200 200" fill="none" xmlns="http://www.w3.org/2000/svg">
<g clip-path="url(#clip0_36_1515)">
<path d="M143.021 191.959C142.157 195.8 138.752 198.447 134.949 198.447C134.504 198.447 134.053 198.41 133.6 198.335L133.553 198.325L132.742 198.131L133.317 197.537C134.554 196.3 135.452 194.802 135.915 193.203C136.174 192.276 136.298 191.486 136.418 190.718C136.472 190.376 136.527 190.035 136.59 189.683L138.269 179.472C139.013 174.843 139.718 170.252 140.367 165.827C140.407 165.546 140.219 165.277 139.942 165.219C139.651 165.159 139.364 165.346 139.302 165.637C138.382 169.993 137.456 174.546 136.549 179.165L134.591 189.334C134.527 189.652 134.466 189.978 134.405 190.304C134.253 191.114 134.096 191.954 133.909 192.581C133.384 194.323 132.241 195.864 130.691 196.921C130.524 197.036 130.353 197.146 130.179 197.248C129.31 197.755 128.354 198.094 127.338 198.255C126.33 198.415 125.312 198.392 124.315 198.184C123.225 197.964 122.145 197.484 121.199 196.799L120.83 196.529L121.092 196.153C121.844 195.077 122.374 193.9 122.664 192.656C122.879 191.701 122.954 190.879 123.028 190.083C123.058 189.757 123.088 189.434 123.127 189.107L124.138 178.845C124.581 174.163 124.987 169.552 125.342 165.145C125.363 164.861 125.161 164.605 124.879 164.565C124.736 164.545 124.593 164.582 124.477 164.669C124.362 164.754 124.285 164.881 124.265 165.025C123.633 169.401 123.005 173.985 122.396 178.653L121.104 188.888C121.062 189.199 121.024 189.511 120.987 189.822C120.883 190.685 120.785 191.499 120.622 192.149C120.439 192.9 120.138 193.631 119.73 194.321C119.145 195.307 118.341 196.177 117.403 196.835L117.328 196.89C117.277 196.929 117.226 196.966 117.174 197.001C115.512 198.099 113.403 198.564 111.395 198.268C109.416 197.99 107.538 196.926 106.249 195.346C105.937 194.971 105.649 194.555 105.4 194.112L105.297 193.926L105.367 193.726C105.524 193.284 105.658 192.81 105.766 192.313C105.974 191.39 105.989 190.322 105.995 189.615L106.077 184.543C106.191 178.478 106.244 171.846 106.239 164.261C106.239 163.975 106.014 163.737 105.73 163.721C105.434 163.707 105.175 163.931 105.158 164.229C104.715 171.799 104.386 178.426 104.15 184.486L103.934 189.667C103.896 190.539 103.869 191.171 103.707 191.887C103.511 192.721 103.256 193.41 102.926 193.993C102.911 194.022 102.888 194.06 102.863 194.099C101.4 196.732 98.4963 198.412 95.6176 198.35H95.4939C92.617 198.35 89.8454 196.703 88.4194 194.127C88.3726 194.055 88.3475 194.015 88.3258 193.973C87.9313 193.278 87.7039 192.495 87.5518 191.895C87.383 191.136 87.3562 190.473 87.3195 189.555L87.1072 184.488C86.8564 178.091 86.5254 171.466 86.0941 164.232C86.0757 163.946 85.8384 163.724 85.5542 163.722C85.255 163.722 85.0126 163.965 85.0126 164.264C84.9975 171.488 85.0493 178.121 85.168 184.546L85.2483 189.618C85.2533 190.727 85.3318 191.609 85.4856 192.321C85.6043 192.835 85.7381 193.296 85.8902 193.731L85.9621 193.93L85.8584 194.115C85.6093 194.557 85.3235 194.973 85.0059 195.351C83.727 196.914 81.8514 197.982 79.8672 198.276C77.8628 198.574 75.7582 198.108 74.0865 196.996C74.0347 196.962 73.9845 196.924 73.9327 196.885L73.8575 196.83C72.923 196.165 72.1206 195.296 71.5355 194.314C71.126 193.627 70.8217 192.898 70.6328 192.149C70.4673 191.507 70.3704 190.7 70.2667 189.846C70.2283 189.528 70.1899 189.209 70.1481 188.896L68.8542 178.655C68.2457 173.982 67.6188 169.396 66.9869 165.028C66.9451 164.747 66.6994 164.54 66.4069 164.567C66.2631 164.578 66.131 164.645 66.0374 164.756C65.9438 164.866 65.8987 165.005 65.9104 165.15C66.2648 169.549 66.6693 174.159 67.114 178.854L68.127 189.122C68.1655 189.446 68.1955 189.774 68.2256 190.105C68.2975 190.895 68.3711 191.715 68.5917 192.666C68.8893 193.901 69.4192 195.075 70.1715 196.15L70.4339 196.526L70.0628 196.795C69.1166 197.482 68.0384 197.967 66.9435 198.194C65.9505 198.408 64.9274 198.433 63.906 198.268C62.898 198.104 61.9452 197.763 61.0759 197.255C60.9004 197.153 60.7315 197.039 60.5627 196.924C59.0264 195.871 57.883 194.333 57.3431 192.587C57.1508 191.969 56.997 191.138 56.8466 190.334C56.7847 190.001 56.7212 189.665 56.656 189.346L54.6968 179.171C53.7908 174.557 52.8647 170.007 51.9436 165.645C51.8834 165.367 51.6243 165.182 51.3351 165.22C51.0392 165.264 50.8336 165.54 50.877 165.836C51.5256 170.269 52.2328 174.86 52.975 179.482L54.655 189.702C54.7185 190.046 54.772 190.391 54.8272 190.735C54.9459 191.497 55.0696 192.288 55.3337 193.216C55.8101 194.814 56.7112 196.31 57.9415 197.542L58.5885 198.191L57.6824 198.333C53.3244 199.054 49.1886 196.26 48.2274 191.987C48.1556 191.651 45.1599 177.566 41.6996 160.116L41.6929 160.125C44.7036 180.602 46.6895 192.148 46.7263 192.32V192.328L46.7346 192.357C46.7948 192.621 46.87 192.897 46.967 193.196C46.9904 193.269 47.0171 193.341 47.0422 193.415L47.064 193.477C47.1258 193.652 47.1927 193.824 47.2629 193.993C47.3097 194.105 47.3598 194.217 47.4117 194.329C47.4769 194.468 47.5437 194.602 47.6139 194.734L47.639 194.782C47.6958 194.891 47.7527 195 47.8129 195.105C47.848 195.165 47.8831 195.22 47.9182 195.277L47.9483 195.326C48.1572 195.665 48.3862 195.993 48.627 196.295L48.6604 196.339C48.7858 196.494 48.9228 196.651 49.09 196.834L49.1602 196.909C49.3174 197.074 49.4695 197.226 49.625 197.37L49.63 197.375C49.63 197.375 49.6433 197.387 49.65 197.394L49.6534 197.397C51.4855 199.079 53.8409 200 56.3016 200C56.8382 200 57.3815 199.955 57.9164 199.866L58.8091 199.727L61.6978 199.276C62.323 199.517 62.9749 199.694 63.6486 199.803C64.1702 199.888 64.7001 199.931 65.2233 199.931C65.902 199.931 66.5841 199.86 67.246 199.716C68.5366 199.448 69.8171 198.875 70.9371 198.062L71.3082 197.793L71.9769 197.307C72.2878 197.596 72.6171 197.863 72.9615 198.108L73.0217 198.151C73.0935 198.204 73.1688 198.26 73.244 198.31C74.8037 199.346 76.7294 199.923 78.6552 199.923C79.1299 199.923 79.6064 199.888 80.0711 199.819C82.4248 199.472 84.6448 198.209 86.161 196.355C86.5054 195.946 86.8313 195.479 87.1172 194.981C88.8123 197.979 92.0837 199.911 95.4772 199.911H95.5859C95.6427 199.911 95.6996 199.911 95.7547 199.911C99.1298 199.911 102.396 197.982 104.111 194.985C104.392 195.474 104.715 195.936 105.071 196.362C106.587 198.22 108.814 199.482 111.168 199.813C111.624 199.88 112.102 199.915 112.578 199.915C114.506 199.915 116.428 199.345 117.995 198.308C118.077 198.253 118.148 198.201 118.22 198.148L118.275 198.106C118.618 197.863 118.946 197.599 119.255 197.313L119.922 197.8L120.292 198.069C121.415 198.883 122.697 199.452 123.999 199.716C124.653 199.851 125.33 199.921 126.002 199.921C126.52 199.921 127.045 199.88 127.56 199.798C128.407 199.664 129.222 199.425 129.992 199.082L132.376 199.651L133.187 199.844L133.212 199.85L133.237 199.855L133.284 199.865L133.31 199.87L133.337 199.875C133.864 199.962 134.4 200.007 134.934 200.007C139.469 200.007 143.486 196.78 144.486 192.337C144.527 192.141 146.517 180.139 149.731 159.15C146.194 177.035 143.093 191.628 143.02 191.967L143.021 191.959Z" fill="#3B2D55"/>
<path d="M95.6227 38.341C57.6841 38.341 31.1881 61.9397 31.1881 95.728C31.1881 105.117 36.8919 135.862 41.7013 160.111C45.1616 177.561 48.1572 191.646 48.2291 191.982C49.1903 196.257 53.3261 199.05 57.6841 198.328L58.5901 198.186L57.9432 197.537C56.7145 196.305 55.8118 194.807 55.3354 193.211C55.0713 192.283 54.9476 191.494 54.8289 190.73C54.7754 190.386 54.7202 190.041 54.6567 189.697L52.9767 179.477C52.2345 174.855 51.5273 170.264 50.8787 165.83C50.8369 165.536 51.0409 165.26 51.3368 165.215C51.6243 165.177 51.8851 165.362 51.9453 165.64C52.8663 170.002 53.7925 174.554 54.6985 179.166L56.6577 189.341C56.7229 189.662 56.7847 189.996 56.8483 190.329C56.9987 191.131 57.1525 191.964 57.3448 192.582C57.8847 194.326 59.0281 195.866 60.5644 196.919C60.7332 197.034 60.9037 197.148 61.0776 197.25C61.9469 197.758 62.898 198.099 63.9077 198.263C64.9291 198.428 65.9505 198.403 66.9452 198.189C68.0401 197.962 69.1183 197.477 70.0645 196.79L70.4356 196.521L70.1732 196.145C69.4209 195.07 68.8893 193.898 68.5934 192.661C68.3728 191.71 68.2992 190.89 68.2273 190.1C68.1972 189.769 68.1672 189.441 68.1287 189.117L67.1157 178.849C66.6727 174.154 66.2665 169.544 65.9121 165.145C65.9004 165.001 65.9455 164.861 66.0391 164.751C66.1327 164.64 66.2648 164.573 66.4086 164.562C66.7011 164.535 66.9468 164.742 66.9886 165.023C67.6205 169.391 68.2474 173.975 68.8559 178.65L70.1498 188.891C70.1915 189.204 70.23 189.523 70.2684 189.841C70.3721 190.695 70.469 191.502 70.6345 192.144C70.8234 192.893 71.1277 193.622 71.5372 194.309C72.1223 195.291 72.9247 196.16 73.8592 196.825L73.9344 196.88C73.9862 196.919 74.0364 196.957 74.0882 196.991C75.7599 198.102 77.8645 198.569 79.8689 198.271C81.8531 197.979 83.7287 196.91 85.0076 195.346C85.3252 194.968 85.611 194.553 85.8601 194.11L85.9638 193.925L85.8919 193.726C85.7398 193.293 85.606 192.83 85.4873 192.316C85.3335 191.603 85.255 190.72 85.25 189.613L85.1697 184.541C85.051 178.118 85.0009 171.483 85.0143 164.259C85.0143 163.96 85.2567 163.717 85.5559 163.717C85.8417 163.717 86.0774 163.941 86.0958 164.227C86.5271 171.461 86.8581 178.086 87.1089 184.482L87.3212 189.55C87.3579 190.467 87.3847 191.131 87.5535 191.89C87.7056 192.492 87.9313 193.273 88.3275 193.968C88.3492 194.01 88.3743 194.05 88.4211 194.122C89.8471 196.696 92.6187 198.345 95.4956 198.345H95.6193C98.498 198.407 101.402 196.727 102.864 194.094C102.889 194.055 102.915 194.017 102.928 193.988C103.257 193.405 103.511 192.718 103.709 191.882C103.871 191.166 103.897 190.536 103.936 189.662L104.152 184.481C104.387 178.421 104.717 171.795 105.16 164.224C105.178 163.926 105.437 163.701 105.731 163.716C106.017 163.732 106.241 163.97 106.241 164.256C106.246 171.839 106.193 178.472 106.079 184.538L105.997 189.61C105.989 190.317 105.975 191.385 105.768 192.308C105.659 192.803 105.526 193.279 105.369 193.721L105.298 193.921L105.402 194.107C105.651 194.55 105.939 194.966 106.251 195.341C107.54 196.919 109.417 197.985 111.397 198.263C113.406 198.559 115.514 198.094 117.176 196.996C117.229 196.961 117.279 196.924 117.329 196.885L117.405 196.83C118.342 196.172 119.146 195.302 119.732 194.316C120.139 193.625 120.44 192.895 120.624 192.144C120.786 191.496 120.885 190.68 120.989 189.817C121.025 189.506 121.064 189.194 121.106 188.883L122.398 178.648C123.006 173.982 123.635 169.396 124.267 165.02C124.287 164.876 124.364 164.749 124.479 164.664C124.594 164.577 124.738 164.54 124.88 164.56C125.161 164.6 125.365 164.856 125.343 165.14C124.989 169.549 124.583 174.159 124.14 178.84L123.128 189.102C123.09 189.429 123.06 189.754 123.03 190.078C122.956 190.874 122.881 191.696 122.665 192.651C122.374 193.895 121.846 195.072 121.094 196.148L120.831 196.524L121.201 196.793C122.147 197.479 123.227 197.959 124.317 198.179C125.313 198.387 126.331 198.41 127.339 198.25C128.357 198.089 129.314 197.75 130.181 197.243C130.357 197.141 130.526 197.031 130.693 196.915C132.242 195.859 133.386 194.318 133.911 192.576C134.098 191.949 134.255 191.109 134.407 190.299C134.469 189.973 134.529 189.647 134.593 189.329L136.55 179.16C137.458 174.54 138.384 169.988 139.303 165.632C139.365 165.339 139.653 165.152 139.944 165.214C140.223 165.272 140.408 165.541 140.368 165.822C139.72 170.247 139.014 174.838 138.27 179.467L136.592 189.678C136.528 190.029 136.473 190.37 136.42 190.713C136.299 191.479 136.176 192.271 135.917 193.197C135.452 194.797 134.554 196.297 133.319 197.532L132.744 198.126L133.555 198.32L133.601 198.33C134.054 198.405 134.506 198.442 134.95 198.442C138.753 198.442 142.159 195.795 143.023 191.954C143.095 191.614 146.197 177.021 149.735 159.137C154.502 135.033 160.061 104.949 160.061 95.7229C160.061 61.9347 133.565 38.3359 95.626 38.3359L95.6227 38.341Z" fill="#57D1E5"/>
<path d="M78.3008 63.1067C62.8713 63.1067 50.3187 75.6617 50.3187 91.0905C50.3187 106.519 62.873 119.074 78.3008 119.074C93.7287 119.074 106.283 106.519 106.283 91.0905C106.283 75.6617 93.7287 63.1067 78.3008 63.1067Z" fill="#4D9BB6"/>
<path d="M47.5438 88.8319C47.5438 104.262 60.098 116.816 75.5275 116.816C90.9571 116.816 103.51 104.262 103.51 88.8319C103.51 73.4015 90.9554 60.8464 75.5275 60.8464C60.0997 60.8464 47.5438 73.3998 47.5438 88.8319Z" fill="url(#paint0_linear_36_1515)"/>
<path d="M53.9596 88.3789C54.3708 76.628 62.7626 70.4123 68.117 71.6779C72.6054 72.7394 73.1621 82.7133 70.3554 85.3313C68.5115 87.0498 64.8505 87.5163 64.8054 88.7584C64.7619 89.9988 68.3828 90.7194 70.1029 92.5634C72.7191 95.3703 71.4687 105.281 66.9184 106.026C61.4905 106.917 53.55 100.13 53.9613 88.3789" fill="#3B2D55"/>
<path d="M49.6317 53.9705C37.9901 64.1131 31.1881 78.6124 31.1881 95.728C31.1881 111.872 48.0569 191.176 48.2291 191.98C48.6086 193.672 49.4929 195.127 50.6865 196.23C46.5006 176.204 33.1841 111.299 33.1841 96.2547C33.1841 79.3948 39.182 64.8403 49.6317 53.9705Z" fill="#93E1EF"/>
<path d="M113.232 108.067C118.162 109.761 118.249 125.012 121.697 125.977C124.156 125.964 130.499 116.332 129.706 106.989C129.409 103.48 127.212 100.853 124.753 101.113C122.294 101.372 116.906 105.339 113.232 108.067Z" fill="#4D9BB6"/>
<path d="M82.5753 128.637C85.81 127.547 88.8474 125.763 91.7745 123.827C100.803 117.777 108.139 110.169 116.973 103.538C119.429 101.857 121.988 99.9993 125.235 99.6416C128.07 99.3055 130.051 101.384 131.298 103.687C133.857 108.32 132.841 114.009 130.571 118.461C128.327 122.769 125.041 126.759 120.485 128.745C119.223 129.209 116.097 130.279 115.954 128.007C115.962 127.274 116.549 126.689 117.264 126.659C118.581 126.557 120.027 125.76 121.286 124.763C126.654 120.408 132.048 110.139 126.636 104.157C124.611 101.934 113.332 111.879 111.069 113.583C108.272 115.848 105.466 118.138 102.575 120.355C96.6943 124.78 90.5926 129.157 83.3677 131.253C81.681 131.691 80.8903 129.232 82.5753 128.639" fill="#4D9BB6"/>
<path d="M111.774 107.35C116.704 109.044 116.791 124.295 120.24 125.26C122.699 125.246 129.041 115.615 128.249 106.272C127.951 102.763 125.755 100.136 123.296 100.396C120.837 100.655 115.449 104.622 111.774 107.35Z" fill="#3B2D55"/>
<path d="M81.1176 127.918C84.3523 126.828 87.3897 125.044 90.3168 123.108C99.3455 117.058 106.681 109.45 115.516 102.82C117.971 101.138 120.531 99.2806 123.777 98.9228C126.612 98.5868 128.593 100.665 129.84 102.969C132.399 107.601 131.383 113.29 129.113 117.742C126.87 122.05 123.583 126.041 119.028 128.027C117.766 128.49 114.64 129.56 114.496 127.288C114.504 126.556 115.091 125.97 115.806 125.94C117.124 125.838 118.57 125.041 119.828 124.045C125.196 119.69 130.591 109.42 125.178 103.438C123.153 101.215 111.875 111.16 109.611 112.864C106.815 115.129 104.008 117.419 101.117 119.636C95.2365 124.061 89.1349 128.438 81.91 130.534C80.2233 130.972 79.4326 128.513 81.1176 127.92" fill="#3B2D55"/>
<path d="M36.5258 71.148C38.7408 66.5305 40.6331 64.0095 42.034 62.097C41.2984 61.8195 40.6047 61.8579 39.7538 61.8579C39.147 61.8579 38.5418 61.898 37.9451 61.9566C37.935 61.9064 37.93 61.8563 37.92 61.8061C37.8999 61.7208 35.9608 53.2282 42.1827 45.3458C49.3375 36.2831 64.6834 31.4968 86.5639 31.5102H86.584C116.275 31.5269 133.847 33.7571 143.546 38.7423C151.91 43.0354 155.017 49.3196 155.009 61.9248C155.009 62.1906 155.049 62.4514 155.124 62.6972C154.277 62.9513 153.456 63.2773 152.658 63.6584C151.741 64.1516 150.99 64.5261 150.037 65.1496C143.759 69.4093 139.521 77.4623 139.516 86.7105C139.507 100.402 148.789 111.505 160.24 111.511C161.241 111.511 163.434 111.347 166.105 110.503C174.708 107.482 180.992 97.9917 180.997 86.7356C181.005 73.1441 171.858 62.107 160.517 61.9348V61.9298C160.524 51.1987 158.777 40.3723 146.06 33.8423C135.403 28.3622 117.615 26.0184 86.5873 26H86.5673C62.6022 25.9867 46.2131 31.3464 37.8565 41.932C29.9963 51.8875 32.4486 62.6336 32.5589 63.085C32.579 63.1753 32.6141 63.2605 32.6442 63.3458C24.692 66.8131 19.0067 75.9276 19 86.6386C18.995 94.4492 22.3216 102.957 28.7057 107.68C30.4459 108.975 31.912 109.554 32.6124 109.569C31.9454 104.986 31.4272 101.198 31.2316 97.2461C30.8639 84.126 34.8558 75.182 36.5275 71.148H36.5258ZM165.101 103.776C164.679 103.776 164.258 103.741 163.844 103.686C163.332 103.611 162.832 103.485 162.336 103.325C156.821 101.527 152.697 94.4926 152.702 86.1003C152.704 82.0881 153.653 78.3868 155.243 75.421C155.544 74.8593 155.865 74.3294 156.206 73.8278C156.537 73.343 156.888 72.8816 157.254 72.4503C159.4 69.946 162.14 68.4397 165.121 68.4414C171.963 68.4447 177.53 76.3739 177.523 86.112C177.518 95.7114 172.103 103.539 165.4 103.759C165.3 103.764 165.199 103.774 165.099 103.774L165.101 103.776Z" fill="#3B2D55"/>
<path d="M177.523 86.1154C177.518 95.7148 172.103 103.542 165.4 103.763C165.3 103.768 165.199 103.778 165.099 103.778C164.678 103.778 164.257 103.743 163.842 103.687C163.33 103.612 162.831 103.487 162.334 103.326C156.819 101.529 152.695 94.4944 152.7 86.1021C152.702 82.0898 153.651 78.3885 155.241 75.4228C155.542 74.8611 155.863 74.3311 156.204 73.8296C156.535 73.3431 156.886 72.8833 157.252 72.452C159.399 69.9477 162.139 68.4414 165.119 68.4431C171.961 68.4465 177.528 76.3757 177.521 86.1138L177.523 86.1154Z" fill="#D7E3E9"/>
<path d="M163.523 130.334C161.935 132.243 159.725 133.605 157.202 134.56C156.522 134.809 154.95 135.272 153.941 135.545C148.85 136.75 143.112 136.745 138.715 136.459C137.735 133.142 132.625 130.615 126.465 130.615C119.601 130.615 114.04 133.751 114.04 137.614C114.04 141.478 119.601 144.614 126.465 144.614C131.54 144.614 135.902 142.895 137.831 140.438C139.464 140.558 141.303 140.644 143.247 140.644C146.393 140.644 149.82 140.418 153.142 139.789C153.897 139.647 155.539 139.268 156.368 139.025C160.398 137.865 164.071 135.961 166.614 132.905C173.424 124.73 170.908 114.255 168.707 108.569C167.358 108.823 166.07 109.201 164.695 109.401C166.609 114.106 169.23 123.483 163.523 130.332V130.334Z" fill="#3B2D55"/>
</g>
<defs>
<linearGradient id="paint0_linear_36_1515" x1="103.51" y1="88.8319" x2="47.5438" y2="88.8319" gradientUnits="userSpaceOnUse">
<stop stop-color="#CECAD5"/>
<stop offset="0.66" stop-color="white"/>
<stop offset="1" stop-color="white"/>
</linearGradient>
<clipPath id="clip0_36_1515">
<rect width="200" height="200" fill="white"/>
</clipPath>
</defs>
</svg>
