<svg width="200" height="200" viewBox="0 0 200 200" fill="none" xmlns="http://www.w3.org/2000/svg">
<g clip-path="url(#clip0_36_2665)">
<path d="M20.1354 191.894C21.0046 195.767 24.4293 198.436 28.2542 198.436C28.7014 198.436 29.1553 198.399 29.611 198.323L29.658 198.313L30.4734 198.117L29.8951 197.519C28.651 196.271 27.7481 194.761 27.2824 193.148C27.0218 192.214 26.8974 191.417 26.7764 190.643C26.7226 190.297 26.6671 189.954 26.6032 189.6L24.9152 179.304C24.167 174.636 23.4575 170.007 22.8052 165.545C22.7649 165.262 22.9532 164.991 23.2323 164.932C23.5248 164.871 23.814 165.06 23.8762 165.353C24.8009 169.746 25.7323 174.336 26.6452 178.993L28.614 189.247C28.6779 189.568 28.7401 189.896 28.8006 190.225C28.9536 191.042 29.1116 191.889 29.2999 192.521C29.8278 194.277 30.9778 195.831 32.5363 196.897C32.7045 197.013 32.876 197.124 33.0508 197.227C33.9251 197.738 34.8867 198.08 35.9089 198.242C36.9227 198.404 37.9466 198.38 38.9487 198.171C40.0448 197.949 41.1309 197.465 42.0825 196.774L42.4541 196.502L42.1901 196.123C41.4336 195.037 40.9006 193.851 40.6097 192.597C40.3929 191.634 40.3172 190.805 40.2432 190.002C40.213 189.674 40.1827 189.348 40.144 189.018L39.1269 178.672C38.6813 173.95 38.2728 169.301 37.9164 164.858C37.8945 164.571 38.0979 164.313 38.3821 164.273C38.525 164.253 38.6696 164.29 38.7856 164.377C38.9016 164.463 38.9789 164.591 38.9991 164.736C39.6346 169.149 40.2668 173.771 40.8787 178.478L42.1784 188.797C42.2204 189.111 42.2591 189.426 42.296 189.739C42.4003 190.609 42.4995 191.43 42.6626 192.086C42.8475 192.843 43.1501 193.579 43.5604 194.276C44.1488 195.27 44.9575 196.147 45.9007 196.811L45.9763 196.866C46.0268 196.905 46.0789 196.942 46.131 196.978C47.8022 198.085 49.9239 198.554 51.9431 198.255C53.9337 197.976 55.8218 196.902 57.118 195.309C57.4324 194.931 57.7216 194.512 57.9721 194.065L58.0763 193.878L58.0057 193.675C57.8477 193.23 57.7132 192.752 57.6039 192.251C57.3954 191.321 57.3803 190.243 57.3736 189.53L57.2912 184.416C57.1769 178.301 57.1231 171.612 57.1281 163.966C57.1281 163.678 57.3551 163.438 57.6409 163.422C57.9385 163.408 58.1991 163.634 58.2159 163.934C58.6614 171.567 58.9926 178.248 59.2297 184.359L59.4466 189.583C59.4852 190.463 59.5121 191.1 59.6752 191.821C59.8719 192.662 60.1292 193.357 60.4604 193.945C60.4755 193.974 60.499 194.013 60.5242 194.051C61.9953 196.706 64.9157 198.4 67.8108 198.338H67.9352C70.8287 198.338 73.6162 196.678 75.0503 194.08C75.0974 194.008 75.1226 193.967 75.1445 193.925C75.5412 193.224 75.7699 192.435 75.9229 191.83C76.0927 191.064 76.1196 190.395 76.1566 189.47L76.3701 184.361C76.6223 177.911 76.9552 171.231 77.3889 163.937C77.4074 163.649 77.6462 163.425 77.932 163.423C78.2329 163.423 78.4767 163.668 78.4767 163.969C78.4919 171.253 78.4397 177.942 78.3204 184.42L78.2397 189.534C78.2346 190.651 78.1556 191.541 78.0009 192.259C77.8816 192.777 77.7471 193.242 77.5941 193.68L77.5218 193.881L77.626 194.068C77.8765 194.513 78.164 194.933 78.4834 195.314C79.7696 196.89 81.656 197.967 83.6516 198.264C85.6675 198.564 87.7842 198.094 89.4654 196.973C89.5175 196.939 89.568 196.9 89.6201 196.861L89.6958 196.806C90.6356 196.135 91.4426 195.258 92.031 194.269C92.4429 193.576 92.7489 192.841 92.9389 192.086C93.1053 191.439 93.2029 190.624 93.3071 189.763C93.3458 189.443 93.3844 189.121 93.4265 188.806L94.7278 178.479C95.3397 173.768 95.9702 169.144 96.6057 164.74C96.6478 164.456 96.8949 164.247 97.1891 164.274C97.3337 164.286 97.4665 164.354 97.5607 164.465C97.6548 164.576 97.7002 164.716 97.6885 164.863C97.332 169.298 96.9252 173.947 96.478 178.68L95.4591 189.033C95.4204 189.36 95.3902 189.691 95.3599 190.024C95.2876 190.822 95.2136 191.648 94.9917 192.607C94.6925 193.852 94.1595 195.036 93.4029 196.12L93.139 196.499L93.5122 196.77C94.4638 197.463 95.5482 197.952 96.6494 198.181C97.6481 198.397 98.677 198.422 99.7043 198.255C100.718 198.09 101.676 197.746 102.551 197.234C102.727 197.131 102.897 197.016 103.067 196.9C104.612 195.838 105.762 194.287 106.305 192.528C106.498 191.904 106.653 191.066 106.804 190.255C106.866 189.92 106.93 189.581 106.996 189.259L108.966 179C109.878 174.348 110.809 169.76 111.735 165.362C111.796 165.082 112.056 164.895 112.347 164.934C112.645 164.977 112.852 165.255 112.808 165.554C112.156 170.024 111.445 174.653 110.698 179.314L109.008 189.618C108.944 189.965 108.891 190.313 108.835 190.66C108.716 191.428 108.591 192.226 108.326 193.161C107.847 194.773 106.94 196.281 105.703 197.524L105.052 198.178L105.964 198.321C110.347 199.048 114.506 196.231 115.473 191.922C115.545 191.584 118.558 177.382 122.038 159.787L122.045 159.796C119.017 180.443 117.02 192.084 116.983 192.258V192.266L116.974 192.295C116.914 192.561 116.838 192.839 116.74 193.141C116.717 193.215 116.69 193.288 116.665 193.362L116.643 193.424C116.581 193.601 116.513 193.775 116.443 193.945C116.396 194.058 116.345 194.171 116.293 194.284C116.228 194.424 116.16 194.559 116.09 194.692L116.065 194.741C116.007 194.85 115.95 194.96 115.89 195.066C115.854 195.127 115.819 195.182 115.784 195.24L115.754 195.289C115.543 195.631 115.313 195.961 115.071 196.266L115.037 196.31C114.911 196.467 114.773 196.625 114.605 196.809L114.535 196.885C114.377 197.052 114.224 197.205 114.067 197.35L114.062 197.355C114.062 197.355 114.049 197.367 114.042 197.374L114.039 197.377C112.196 199.073 109.827 200.002 107.352 200.002C106.813 200.002 106.266 199.956 105.728 199.867L104.83 199.727L101.925 199.272C101.296 199.514 100.641 199.693 99.9632 199.803C99.4386 199.889 98.904 199.933 98.3795 199.933C97.6969 199.933 97.0109 199.86 96.3451 199.715C95.0472 199.445 93.7594 198.867 92.6329 198.048L92.2597 197.777L91.5872 197.286C91.2745 197.578 90.9433 197.847 90.5969 198.094L90.5364 198.137C90.4641 198.191 90.3884 198.247 90.3128 198.297C88.7442 199.343 86.8074 199.924 84.8705 199.924C84.3931 199.924 83.9139 199.889 83.4448 199.82C81.0776 199.469 78.8449 198.196 77.32 196.327C76.9737 195.914 76.6458 195.444 76.3583 194.941C74.6535 197.964 71.3633 199.912 67.9504 199.912H67.8411C67.7839 199.912 67.7268 199.912 67.6713 199.912C64.2768 199.912 60.9916 197.967 59.2667 194.945C58.9842 195.439 58.6597 195.904 58.3016 196.334C56.7767 198.206 54.5373 199.479 52.1701 199.813C51.7111 199.88 51.2302 199.916 50.7511 199.916C48.8126 199.916 46.8792 199.341 45.3038 198.296C45.2214 198.24 45.1491 198.188 45.0768 198.134L45.0214 198.092C44.6767 197.847 44.3472 197.581 44.0361 197.293L43.3653 197.783L42.9938 198.055C41.864 198.876 40.5744 199.449 39.2647 199.715C38.6074 199.852 37.9265 199.922 37.2506 199.922C36.7294 199.922 36.2015 199.88 35.6837 199.798C34.8313 199.663 34.0125 199.422 33.2374 199.076L30.84 199.649L30.0245 199.845L29.9993 199.85L29.9741 199.855L29.927 199.865L29.9001 199.87L29.8732 199.875C29.3436 199.963 28.8039 200.008 28.2676 200.008C23.7064 200.008 19.6663 196.755 18.6609 192.273C18.6189 192.076 16.6182 179.975 13.3851 158.811C16.9427 176.844 20.0614 191.558 20.1354 191.9V191.894Z" fill="#3B2D55"/>
<path d="M67.8041 37C105.96 37 132.608 60.7945 132.608 94.8631C132.608 104.33 126.872 135.33 122.035 159.781C118.555 177.375 115.542 191.577 115.469 191.916C114.503 196.226 110.343 199.043 105.96 198.314L105.049 198.171L105.7 197.517C106.935 196.275 107.843 194.764 108.322 193.155C108.588 192.219 108.712 191.423 108.832 190.653C108.886 190.306 108.941 189.959 109.005 189.611L110.695 179.307C111.441 174.646 112.152 170.017 112.805 165.547C112.847 165.25 112.642 164.972 112.344 164.927C112.055 164.888 111.793 165.075 111.732 165.355C110.806 169.753 109.874 174.343 108.963 178.994L106.993 189.252C106.927 189.576 106.865 189.913 106.801 190.249C106.65 191.058 106.495 191.897 106.302 192.521C105.758 194.279 104.609 195.831 103.063 196.893C102.894 197.01 102.722 197.124 102.547 197.227C101.673 197.74 100.716 198.083 99.7009 198.249C98.6737 198.415 97.6464 198.39 96.6461 198.174C95.5449 197.945 94.4604 197.456 93.5089 196.764L93.1356 196.492L93.3996 196.113C94.1561 195.029 94.6908 193.847 94.9884 192.6C95.2103 191.641 95.2843 190.815 95.3566 190.018C95.3868 189.684 95.4171 189.353 95.4557 189.026L96.4746 178.673C96.9201 173.94 97.3287 169.291 97.6851 164.856C97.6969 164.711 97.6515 164.569 97.5573 164.458C97.4632 164.347 97.3304 164.28 97.1858 164.268C96.8915 164.241 96.6444 164.45 96.6024 164.733C95.9668 169.138 95.3364 173.76 94.7244 178.473L93.4231 188.799C93.3811 189.114 93.3424 189.436 93.3037 189.756C93.1995 190.618 93.102 191.432 92.9355 192.079C92.7456 192.834 92.4396 193.569 92.0277 194.262C91.4392 195.252 90.6322 196.128 89.6924 196.799L89.6167 196.855C89.5646 196.893 89.5142 196.932 89.4621 196.966C87.7808 198.087 85.6641 198.557 83.6483 198.257C81.6526 197.962 79.7662 196.885 78.4801 195.307C78.1606 194.926 77.8731 194.508 77.6226 194.061L77.5184 193.874L77.5907 193.674C77.7437 193.237 77.8782 192.77 77.9976 192.253C78.1522 191.533 78.2313 190.643 78.2363 189.527L78.317 184.413C78.4364 177.937 78.4868 171.246 78.4734 163.963C78.4734 163.661 78.2296 163.417 77.9286 163.417C77.6411 163.417 77.4041 163.642 77.3856 163.931C76.9518 171.224 76.6189 177.905 76.3667 184.354L76.1532 189.463C76.1162 190.388 76.0893 191.058 75.9195 191.823C75.7665 192.43 75.5396 193.217 75.1411 193.918C75.1192 193.96 75.094 194.001 75.047 194.073C73.6128 196.669 70.8253 198.331 67.9319 198.331H67.8075C64.9123 198.394 61.992 196.7 60.5209 194.045C60.4957 194.006 60.4704 193.967 60.457 193.938C60.1258 193.35 59.8702 192.657 59.6718 191.815C59.5088 191.093 59.4819 190.458 59.4432 189.576L59.2263 184.352C58.9893 178.242 58.658 171.562 58.2125 163.927C58.194 163.627 57.9334 163.4 57.6375 163.415C57.35 163.432 57.1247 163.671 57.1247 163.959C57.1197 171.605 57.1735 178.294 57.2878 184.41L57.3702 189.524C57.3786 190.237 57.3921 191.314 57.6005 192.244C57.7098 192.743 57.8443 193.224 58.0024 193.669L58.073 193.871L57.9687 194.058C57.7182 194.505 57.429 194.925 57.1147 195.302C55.8184 196.893 53.9304 197.969 51.9397 198.249C49.9189 198.547 47.7988 198.078 46.1276 196.971C46.0738 196.936 46.0234 196.898 45.973 196.86L45.8973 196.804C44.9541 196.14 44.1454 195.263 43.557 194.269C43.1468 193.573 42.8441 192.836 42.6592 192.079C42.4961 191.425 42.3969 190.603 42.2927 189.733C42.2557 189.419 42.217 189.104 42.175 188.79L40.8754 178.471C40.2634 173.766 39.6313 169.143 38.9957 164.73C38.9756 164.585 38.8982 164.457 38.7822 164.371C38.6662 164.283 38.5216 164.246 38.3787 164.266C38.0963 164.307 37.8912 164.564 37.913 164.851C38.2694 169.296 38.678 173.945 39.1235 178.665L40.1407 189.011C40.1793 189.342 40.2096 189.669 40.2399 189.996C40.3138 190.798 40.3895 191.627 40.6064 192.59C40.8989 193.844 41.4302 195.031 42.1868 196.116L42.4507 196.496L42.0792 196.767C41.1276 197.458 40.0415 197.942 38.9453 198.164C37.9433 198.373 36.9194 198.397 35.9056 198.235C34.8817 198.073 33.92 197.731 33.0474 197.22C32.8709 197.118 32.7011 197.006 32.533 196.89C30.9745 195.825 29.8245 194.271 29.2966 192.514C29.1083 191.882 28.9502 191.036 28.7972 190.218C28.735 189.89 28.6745 189.561 28.6106 189.241L26.6418 178.987C25.7289 174.329 24.7975 169.739 23.8728 165.347C23.8106 165.052 23.5214 164.863 23.2289 164.925C22.9481 164.984 22.7615 165.256 22.8019 165.539C23.4542 170.001 24.1637 174.629 24.9118 179.297L26.5998 189.593C26.6637 189.947 26.7192 190.291 26.773 190.636C26.894 191.408 27.0185 192.207 27.279 193.141C27.7464 194.754 28.6493 196.266 29.8917 197.512L30.4701 198.11L29.6547 198.306L29.6076 198.316C29.152 198.392 28.698 198.429 28.2508 198.429C24.426 198.429 21.0012 195.761 20.132 191.887C20.0597 191.545 16.9393 176.831 13.3818 158.798C8.59018 134.499 3 104.166 3 94.8631C3 60.7945 29.6479 37 67.8041 37Z" fill="#57D1E5"/>
<path d="M85.2253 61.9712C100.743 61.9712 113.368 74.6304 113.368 90.1872C113.368 105.744 100.742 118.403 85.2253 118.403C69.7073 118.403 57.0827 105.744 57.0827 90.1872C57.0827 74.6304 69.709 61.9712 85.2253 61.9712Z" fill="#4D9BB6"/>
<path d="M116.16 87.9115C116.16 103.47 103.534 116.127 88.0162 116.127C72.4982 116.127 59.8736 103.47 59.8736 87.9115C59.8736 72.353 72.4998 59.6938 88.0162 59.6938C103.534 59.6938 116.16 72.3513 116.16 87.9115Z" fill="url(#paint0_linear_36_2665)"/>
<path d="M68.8095 88.3245C69.2231 100.173 77.663 106.44 83.048 105.164C87.5622 104.094 88.1221 94.0372 85.2993 91.3975C83.4448 89.6646 79.7629 89.1943 79.7175 87.9419C79.6738 86.6911 83.3154 85.9646 85.0454 84.1054C87.6766 81.2752 86.419 71.2827 81.8426 70.5309C76.3835 69.6324 68.3976 76.4762 68.8112 88.3245" fill="#3B2D55"/>
<g opacity="0.15">
<path d="M74.3963 73.334C71.9568 76.4103 70.2402 80.9211 70.4369 86.573C70.8505 98.4214 79.2904 104.689 84.6755 103.413C85.0286 103.328 85.3531 103.185 85.6574 103C85.0185 104.099 84.151 104.901 83.0464 105.164C77.6613 106.442 69.2197 100.173 68.8078 88.3261C68.5691 81.4824 71.1347 76.3125 74.3946 73.3357" fill="#3B2D55"/>
</g>
<path d="M114.061 52.759C125.769 62.9858 132.61 77.6054 132.61 94.863C132.61 111.141 115.644 191.103 115.471 191.916C115.089 193.621 114.2 195.088 113 196.201C117.21 176.007 130.602 110.565 130.602 95.3957C130.602 78.3943 124.57 63.7208 114.061 52.7607" fill="#93E1EF"/>
<path d="M106.576 126.793C89.4302 129.301 71.4491 125.013 57.2879 115.034C55.3191 113.719 53.2949 116.578 55.2216 118C62.7268 123.135 71.1969 126.83 80.042 128.834C88.8787 130.842 98.0836 131.16 107.018 129.776C107.84 129.65 108.401 128.879 108.275 128.057C108.149 127.239 107.391 126.678 106.576 126.794" fill="#3B2D55"/>
<path d="M55.3057 119.752C55.7882 117.468 57.8545 115.681 60.1259 115.6C62.5082 115.431 62.3518 111.922 59.9611 111.971C58.026 112.229 56.2237 113.26 54.9694 114.666C53.8951 115.706 51.5346 120.374 54.0296 120.718C54.645 120.766 55.188 120.342 55.3057 119.753" fill="#3B2D55"/>
<g opacity="0.33">
<path d="M106.009 128.069C88.8636 130.577 70.8825 126.289 56.7213 116.31C54.7525 114.995 52.7283 117.854 54.655 119.276C62.1602 124.411 70.6303 128.106 79.4754 130.11C88.3121 132.118 97.517 132.436 106.451 131.052C107.273 130.926 107.835 130.156 107.709 129.333C107.583 128.515 106.824 127.954 106.009 128.07" fill="#3B2D55"/>
<path d="M54.7374 121.028C55.2199 118.744 57.2862 116.957 59.5576 116.876C61.9399 116.707 61.7836 113.198 59.3928 113.247C57.4577 113.505 55.6554 114.536 54.4012 115.942C53.3268 116.982 50.9664 121.65 53.4614 121.994C54.0767 122.043 54.6197 121.618 54.7374 121.029" fill="#3B2D55"/>
</g>
<path d="M188.531 92.9655L176.298 105.425C174.608 107.145 174.63 109.913 176.346 111.606C178.062 113.3 180.822 113.278 182.511 111.558L194.744 99.0981C196.433 97.3779 196.412 94.6105 194.696 92.917C192.98 91.2235 190.22 91.2452 188.531 92.9655Z" fill="#E5E5E4"/>
<path d="M180.272 112.783C181.096 112.616 181.879 112.21 182.513 111.566L194.747 99.1074C195.353 98.4904 195.738 97.7403 195.906 96.9514C191.508 101.361 184.83 108.215 180.274 112.783H180.272Z" fill="#F6F6F6"/>
<path d="M172.331 76.9765L160.098 89.4359C158.409 91.1562 158.431 93.9236 160.146 95.6171C161.862 97.3106 164.622 97.2888 166.312 95.5685L178.545 83.1091C180.234 81.3888 180.212 78.6215 178.496 76.928C176.781 75.2345 174.02 75.2562 172.331 76.9765Z" fill="#E5E5E4"/>
<path d="M164.075 96.793C164.898 96.6261 165.682 96.2199 166.316 95.576L178.55 83.1174C179.155 82.5004 179.54 81.7503 179.709 80.9614C175.31 85.3711 168.632 92.2249 164.076 96.793H164.075Z" fill="#F6F6F6"/>
<path d="M144.293 198.37C140.236 198.37 135.601 197.928 130.344 196.924C129.274 196.72 128.573 195.685 128.777 194.611C128.98 193.539 130.009 192.836 131.083 193.04C150.973 196.839 161.963 191.964 163.752 185.827C165.267 180.634 160.453 174.805 151.776 171.324C136.946 165.377 132.42 157.227 131.236 151.438C129.758 144.22 132.625 136.554 139.31 129.852C140.08 129.082 141.327 129.082 142.097 129.852C142.867 130.624 142.867 131.875 142.097 132.647C136.381 138.378 133.896 144.768 135.098 150.643C136.519 157.581 142.793 163.464 153.241 167.652C162.118 171.213 169.981 178.555 167.538 186.935C165.838 192.765 158.733 198.368 144.295 198.368L144.293 198.37Z" fill="#3B2D55"/>
<path d="M187.828 114.609L156.985 84.1684C155.575 82.7767 153.307 82.7945 151.919 84.2083L149.081 87.0985C147.693 88.5123 147.711 90.7866 149.121 92.1784L179.963 122.619C181.373 124.011 183.642 123.993 185.03 122.579L187.867 119.689C189.256 118.275 189.238 116.001 187.828 114.609Z" fill="#DF5C26"/>
<path d="M151.005 94.0386L178.078 120.759L170.959 128.01C165.001 134.077 155.252 134.153 149.201 128.181L142.688 121.753C137.393 116.526 137.326 107.971 142.539 102.661L151.006 94.0374L151.005 94.0386Z" fill="#FAB533"/>
<path d="M143.708 118.381L153.916 128.456L148.257 134.219C146.485 136.025 143.584 136.048 141.783 134.27L138.1 130.635C136.299 128.858 136.277 125.95 138.049 124.144L143.708 118.381Z" fill="#FAB533"/>
<path d="M141.776 134.272L138.094 130.637C136.292 128.859 136.27 125.953 138.044 124.146L148.251 134.221C146.477 136.028 143.578 136.05 141.776 134.272Z" fill="#ED9F21"/>
<path d="M177.012 119.716L178.071 120.761L170.951 128.011C168.16 130.855 164.539 132.382 160.857 132.591C166.44 131.17 167.355 129.026 169.594 126.986C169.873 126.732 177.012 119.716 177.012 119.716Z" fill="#FFE4BA"/>
<path d="M188.814 116.458C189.041 117.589 188.724 118.813 187.859 119.693L185.021 122.582C184.157 123.462 182.943 123.799 181.81 123.59C184.169 121.225 186.432 118.845 188.813 116.458H188.814Z" fill="#F4C6B3"/>
</g>
<defs>
<linearGradient id="paint0_linear_36_2665" x1="59.8736" y1="87.9098" x2="116.16" y2="87.9098" gradientUnits="userSpaceOnUse">
<stop stop-color="#CECAD5"/>
<stop offset="0.66" stop-color="white"/>
<stop offset="1" stop-color="white"/>
</linearGradient>
<clipPath id="clip0_36_2665">
<rect width="200" height="200" fill="white"/>
</clipPath>
</defs>
</svg>
