<svg id="Calque_1" data-name="Calque 1" xmlns="http://www.w3.org/2000/svg" viewBox="16.52 39.95 169.48 207.72"><defs><style>.cls-1,.cls-2{fill:#57d1e5;}.cls-1,.cls-4,.cls-5{stroke:#3b2d55;stroke-linecap:round;stroke-linejoin:round;}.cls-1,.cls-4{stroke-width:3.7px;}.cls-3{fill:#3b2d55;}.cls-4,.cls-5{fill:#fff;}.cls-5{stroke-width:3.09px;}</style></defs><title>Plan de travail 1</title><path class="cls-1" d="M64.34,230a11.43,11.43,0,0,1-22.43,4.33S21,136.16,21,116.06c0-42,33.34-71.62,80.26-71.62s80.26,29.64,80.26,71.62c0,20.1-20.91,118.24-20.91,118.24A11.43,11.43,0,0,1,138.18,230"/><path class="cls-2" d="M155.46,201.85l-5.71,32a11.43,11.43,0,0,1-22.59-3.38"/><path class="cls-3" d="M156.67,202.06l-1.25,8.38-1.32,8.36-1.37,8.35-.69,4.17a41.44,41.44,0,0,1-.84,4.37,13.27,13.27,0,0,1-25.88-5.46,1.85,1.85,0,0,1,3.68.43,9.55,9.55,0,0,0,1.8,6.67,9.4,9.4,0,0,0,5.75,3.75,9.62,9.62,0,0,0,6.78-1.08,9.47,9.47,0,0,0,4.31-5.39c.31-1,.55-2.57.82-3.92l.8-4.16,1.61-8.31,1.65-8.3,1.72-8.29a1.23,1.23,0,0,1,2.43.43Z"/><circle class="cls-4" cx="74.1" cy="108.65" r="35.81"/><path class="cls-3" d="M81.5,85.19c-6.17,1.24-7.4,14.82-3.7,18.52,2.43,2.44,7.41,3.25,7.41,4.94s-5,2.51-7.41,4.94c-3.7,3.7-2.47,17.29,3.7,18.52,7.37,1.48,18.53-7.41,18.53-23.46S88.87,83.72,81.5,85.19Z"/><path class="cls-5" d="M56.81,156.81c1.23,3.7,4.94,9.88,9.88,8.64,2.39-.6,3.7-3.7,3.7-8.64"/><path class="cls-4" d="M88.91,154.34c1.24,4.94,2.47,8.64,6.18,8.64s8.64-4.94,7.41-13.58"/><path class="cls-3" d="M49.63,154.05A95.15,95.15,0,0,0,117.5,138a1.85,1.85,0,1,1,2.11,3h0a98.51,98.51,0,0,1-70.43,16,1.54,1.54,0,0,1,.46-3Z"/><path class="cls-3" d="M120.27,143.87a7.93,7.93,0,0,0-2.49-4.34,7.65,7.65,0,0,0-4.43-1.88,1.86,1.86,0,0,1,.28-3.7l.19,0h.05a11,11,0,0,1,6.09,3.37,10.58,10.58,0,0,1,2.75,6.18,1.22,1.22,0,0,1-1.11,1.34,1.24,1.24,0,0,1-1.33-1Z"/><path class="cls-2" d="M75.37,230.44a11.43,11.43,0,0,1-22.6,3.38l-5.7-32"/><path class="cls-3" d="M77.2,230.22a13.26,13.26,0,0,1-10.41,14.66,13.14,13.14,0,0,1-9.53-1.6,13.34,13.34,0,0,1-5.93-7.58,40.11,40.11,0,0,1-.85-4.37l-.69-4.18-1.37-8.35-1.32-8.36-1.25-8.38a1.23,1.23,0,0,1,2.43-.43L50,209.92l1.66,8.3,1.6,8.31.8,4.15c.27,1.36.51,2.89.82,3.92a9.58,9.58,0,0,0,18.65-3.93h0a1.85,1.85,0,0,1,3.67-.44Z"/><path class="cls-2" d="M91.86,231.18a11.42,11.42,0,0,1-22.76,1.9l-3.6-32"/><path class="cls-3" d="M93.71,231.08A13.27,13.27,0,0,1,82.43,245a13.16,13.16,0,0,1-9.38-2.15A13.33,13.33,0,0,1,67.57,235a34.51,34.51,0,0,1-.58-4.42l-.42-4.19-.83-8.4L65,209.6l-.7-8.41a1.23,1.23,0,0,1,2.45-.28l1.18,8.36L69,217.62,70.07,226l.53,4.18c.19,1.38.31,2.88.58,3.93A9.57,9.57,0,0,0,90,231.28h0a1.85,1.85,0,0,1,3.7-.19Z"/><path class="cls-2" d="M137,201.05l-3.6,32a11.43,11.43,0,0,1-22.77-1.9"/><path class="cls-3" d="M138.26,201.19l-.71,8.41-.77,8.39-.83,8.39-.41,4.2A38.06,38.06,0,0,1,135,235a13.27,13.27,0,0,1-23.22,5.24,13.42,13.42,0,0,1-2.93-9.15,1.86,1.86,0,0,1,2-1.73,1.84,1.84,0,0,1,1.73,1.93,9.6,9.6,0,0,0,2.22,6.52,9.49,9.49,0,0,0,5.94,3.38,9.68,9.68,0,0,0,6.69-1.47,9.43,9.43,0,0,0,4-5.61c.26-1,.39-2.55.57-3.93l.53-4.18,1.06-8.36,1.11-8.36,1.18-8.36a1.24,1.24,0,0,1,2.46.28Z"/><path class="cls-2" d="M113.61,200l-.93,32.1a11.42,11.42,0,0,1-22.84,0L88.91,200"/><path class="cls-3" d="M114.84,200.06q0,12.44-.19,24.87l-.1,6.22a17.8,17.8,0,0,1-.3,3.42,13.31,13.31,0,0,1-13,10.59,12.81,12.81,0,0,1-3.59-.5,12.62,12.62,0,0,1-3.32-1.46A13.38,13.38,0,0,1,89.49,238a13.15,13.15,0,0,1-1.22-3.4,17,17,0,0,1-.3-3.42l-.1-6.22q-.23-12.44-.19-24.87a1.24,1.24,0,0,1,2.47-.07c.49,8.28.92,16.56,1.24,24.84l.26,6.21a15.61,15.61,0,0,0,.27,2.75,9.55,9.55,0,0,0,9.35,7.48,9.49,9.49,0,0,0,8.44-5.05,9,9,0,0,0,.9-2.42,15.73,15.73,0,0,0,.27-2.76l.26-6.21c.32-8.28.75-16.56,1.23-24.84a1.24,1.24,0,0,1,2.47.07Z"/></svg>
