<svg width="200" height="200" viewBox="0 0 200 200" fill="none" xmlns="http://www.w3.org/2000/svg">
<g clip-path="url(#clip0_36_2443)">
<path d="M185.649 193.354C184.921 196.598 182.05 198.831 178.846 198.831C178.472 198.831 178.091 198.801 177.709 198.736L177.67 198.729L176.986 198.566L177.472 198.066C178.514 197.021 179.271 195.757 179.662 194.405C179.88 193.624 179.985 192.955 180.085 192.309C180.13 192.02 180.176 191.732 180.23 191.435L181.645 182.814C182.272 178.906 182.866 175.031 183.414 171.296C183.448 171.058 183.291 170.831 183.055 170.782C182.811 170.73 182.568 170.89 182.516 171.136C181.742 174.815 180.96 178.658 180.196 182.558L178.547 191.142C178.493 191.41 178.441 191.685 178.389 191.959C178.261 192.644 178.129 193.352 177.97 193.881C177.527 195.353 176.565 196.653 175.259 197.545C175.118 197.642 174.975 197.737 174.827 197.823C174.095 198.25 173.288 198.538 172.431 198.672C171.582 198.808 170.725 198.786 169.884 198.613C168.965 198.427 168.056 198.021 167.258 197.443L166.946 197.216L167.167 196.9C167.801 195.99 168.247 194.997 168.492 193.947C168.674 193.141 168.738 192.447 168.799 191.775C168.824 191.499 168.849 191.227 168.881 190.95L169.734 182.288C170.107 178.336 170.45 174.443 170.748 170.722C170.766 170.482 170.596 170.266 170.359 170.232C170.239 170.215 170.118 170.246 170.022 170.319C169.923 170.391 169.859 170.498 169.843 170.62C169.311 174.314 168.781 178.184 168.269 182.123L167.18 190.764C167.144 191.027 167.112 191.29 167.082 191.553C166.994 192.281 166.91 192.969 166.775 193.516C166.619 194.149 166.366 194.766 166.023 195.349C165.531 196.183 164.852 196.916 164.063 197.472L164.001 197.519C163.958 197.551 163.915 197.581 163.871 197.612C162.471 198.54 160.693 198.931 158.999 198.681C157.332 198.447 155.751 197.547 154.664 196.215C154.4 195.898 154.159 195.548 153.948 195.174L153.86 195.019L153.919 194.85C154.051 194.479 154.166 194.076 154.257 193.658C154.432 192.88 154.444 191.977 154.45 191.379L154.519 187.097C154.616 181.977 154.66 176.378 154.657 169.976C154.657 169.734 154.467 169.534 154.226 169.52C153.976 169.507 153.759 169.699 153.744 169.949C153.371 176.34 153.095 181.934 152.895 187.048L152.713 191.422C152.681 192.159 152.657 192.692 152.52 193.296C152.356 194.001 152.14 194.582 151.863 195.074C151.851 195.097 151.831 195.131 151.81 195.163C150.578 197.386 148.131 198.804 145.705 198.752H145.601C143.177 198.752 140.841 197.361 139.64 195.188C139.6 195.128 139.579 195.094 139.561 195.058C139.227 194.471 139.038 193.812 138.91 193.304C138.767 192.662 138.745 192.102 138.713 191.328L138.535 187.05C138.324 181.65 138.044 176.058 137.682 169.951C137.665 169.709 137.466 169.522 137.226 169.52C136.975 169.52 136.769 169.724 136.769 169.976C136.757 176.074 136.8 181.675 136.9 187.097L136.968 191.379C136.971 192.315 137.037 193.06 137.167 193.661C137.267 194.094 137.38 194.484 137.508 194.85L137.569 195.019L137.482 195.174C137.271 195.548 137.03 195.898 136.764 196.217C135.686 197.536 134.106 198.438 132.434 198.686C130.745 198.937 128.971 198.543 127.563 197.604C127.52 197.576 127.477 197.544 127.432 197.511L127.368 197.465C126.581 196.903 125.904 196.17 125.412 195.34C125.067 194.761 124.81 194.144 124.651 193.513C124.512 192.971 124.43 192.29 124.343 191.567C124.31 191.299 124.278 191.029 124.243 190.764L123.154 182.118C122.641 178.173 122.113 174.302 121.579 170.614C121.544 170.376 121.338 170.201 121.09 170.224C120.969 170.235 120.858 170.291 120.78 170.384C120.701 170.477 120.662 170.595 120.673 170.716C120.971 174.429 121.313 178.322 121.686 182.284L122.54 190.952C122.572 191.226 122.597 191.503 122.624 191.782C122.684 192.449 122.747 193.141 122.932 193.944C123.182 194.986 123.63 195.977 124.264 196.884L124.485 197.2L124.173 197.427C123.377 198.007 122.467 198.416 121.544 198.608C120.707 198.788 119.844 198.81 118.984 198.668C118.134 198.531 117.331 198.243 116.599 197.814C116.451 197.728 116.308 197.631 116.167 197.535C114.873 196.646 113.909 195.346 113.454 193.874C113.292 193.352 113.163 192.651 113.037 191.973C112.985 191.692 112.931 191.41 112.876 191.138L111.225 182.549C110.461 178.654 109.681 174.811 108.904 171.129C108.854 170.895 108.635 170.738 108.392 170.772C108.142 170.809 107.971 171.042 108.007 171.29C108.553 175.033 109.149 178.908 109.775 182.81L111.191 191.437C111.244 191.728 111.291 192.018 111.335 192.309C111.435 192.953 111.539 193.62 111.762 194.403C112.164 195.752 112.922 197.016 113.959 198.057L114.504 198.604L113.742 198.724C110.068 199.332 106.584 196.975 105.774 193.366C105.713 193.082 103.189 181.192 100.272 166.462L100.267 166.469C102.805 183.756 104.478 193.502 104.51 193.647V193.654L104.517 193.679C104.567 193.903 104.631 194.135 104.711 194.389C104.731 194.452 104.753 194.513 104.776 194.573L104.795 194.625C104.847 194.774 104.902 194.918 104.963 195.062C105.002 195.156 105.045 195.251 105.088 195.346C105.143 195.464 105.201 195.577 105.258 195.687L105.279 195.729C105.327 195.82 105.375 195.911 105.425 196C105.456 196.05 105.484 196.099 105.515 196.145L105.54 196.186C105.716 196.472 105.907 196.75 106.111 197.004L106.139 197.039C106.245 197.17 106.361 197.304 106.502 197.458L106.561 197.522C106.693 197.663 106.821 197.79 106.952 197.912L106.955 197.916C106.955 197.916 106.966 197.926 106.971 197.93L106.975 197.933C108.519 199.353 110.504 200.129 112.576 200.129C113.029 200.129 113.486 200.092 113.936 200.017L114.688 199.899L117.122 199.518C117.649 199.722 118.199 199.87 118.766 199.963C119.205 200.035 119.653 200.07 120.094 200.07C120.667 200.07 121.24 200.01 121.799 199.888C122.888 199.663 123.966 199.178 124.91 198.491L125.222 198.264L125.787 197.855C126.049 198.098 126.326 198.325 126.615 198.531L126.665 198.568C126.725 198.613 126.79 198.661 126.852 198.702C128.166 199.577 129.79 200.063 131.413 200.063C131.813 200.063 132.214 200.035 132.607 199.976C134.59 199.682 136.461 198.617 137.739 197.05C138.03 196.705 138.303 196.31 138.544 195.891C139.972 198.422 142.729 200.053 145.587 200.053H145.678C145.726 200.053 145.773 200.053 145.821 200.053C148.666 200.053 151.419 198.423 152.863 195.895C153.1 196.308 153.371 196.698 153.671 197.057C154.949 198.625 156.825 199.691 158.808 199.97C159.192 200.027 159.596 200.056 159.997 200.056C161.621 200.056 163.242 199.575 164.561 198.701C164.631 198.654 164.692 198.611 164.751 198.566L164.797 198.531C165.086 198.327 165.361 198.103 165.622 197.862L166.184 198.271L166.496 198.499C167.444 199.187 168.524 199.666 169.62 199.888C170.171 200.002 170.741 200.061 171.307 200.061C171.744 200.061 172.185 200.026 172.62 199.958C173.334 199.845 174.022 199.643 174.67 199.353L176.679 199.833L177.363 199.995L177.383 200.001L177.404 200.004L177.443 200.011L177.467 200.017L177.49 200.02C177.934 200.094 178.386 200.131 178.836 200.131C182.657 200.131 186.042 197.408 186.884 193.656C186.92 193.49 188.596 183.359 191.305 165.641C188.325 180.739 185.711 193.059 185.651 193.345L185.649 193.354Z" fill="#3B2D55"/>
<path d="M145.707 63.6711C113.736 63.6711 91.4081 83.5923 91.4081 112.117C91.4081 120.042 96.215 145.999 100.267 166.467C103.182 181.197 105.707 193.087 105.768 193.371C106.579 196.98 110.063 199.339 113.736 198.729L114.498 198.609L113.954 198.062C112.919 197.021 112.158 195.757 111.757 194.409C111.534 193.625 111.43 192.958 111.33 192.315C111.285 192.023 111.239 191.733 111.186 191.442L109.77 182.815C109.144 178.913 108.549 175.037 108.001 171.295C107.965 171.047 108.139 170.814 108.387 170.777C108.629 170.745 108.849 170.9 108.899 171.135C109.675 174.817 110.455 178.66 111.219 182.554L112.871 191.143C112.926 191.413 112.978 191.698 113.031 191.978C113.158 192.656 113.288 193.357 113.449 193.879C113.904 195.351 114.868 196.651 116.162 197.54C116.305 197.636 116.448 197.733 116.594 197.819C117.326 198.248 118.129 198.536 118.979 198.674C119.839 198.813 120.701 198.793 121.538 198.613C122.461 198.422 123.37 198.012 124.168 197.433L124.48 197.206L124.259 196.889C123.625 195.982 123.177 194.992 122.927 193.949C122.741 193.146 122.679 192.454 122.618 191.787C122.593 191.508 122.568 191.231 122.534 190.957L121.681 182.29C121.308 178.327 120.965 174.434 120.667 170.721C120.657 170.6 120.696 170.482 120.774 170.389C120.853 170.296 120.964 170.239 121.085 170.23C121.331 170.206 121.538 170.382 121.574 170.62C122.106 174.307 122.634 178.177 123.148 182.123L124.237 190.77C124.273 191.034 124.305 191.304 124.337 191.573C124.425 192.293 124.507 192.976 124.646 193.518C124.805 194.151 125.062 194.766 125.406 195.346C125.899 196.174 126.575 196.909 127.363 197.47L127.427 197.517C127.47 197.549 127.513 197.583 127.557 197.61C128.966 198.548 130.74 198.942 132.428 198.692C134.101 198.445 135.681 197.542 136.759 196.222C137.026 195.904 137.267 195.553 137.476 195.179L137.564 195.024L137.503 194.856C137.375 194.491 137.262 194.099 137.162 193.667C137.032 193.064 136.966 192.318 136.962 191.385L136.894 187.102C136.794 181.68 136.752 176.079 136.764 169.981C136.764 169.729 136.968 169.525 137.221 169.525C137.462 169.525 137.662 169.715 137.676 169.956C138.039 176.063 138.319 181.655 138.529 187.055L138.708 191.333C138.738 192.107 138.761 192.667 138.904 193.309C139.033 193.817 139.224 194.477 139.556 195.063C139.574 195.099 139.595 195.133 139.634 195.194C140.836 197.368 143.172 198.758 145.596 198.758H145.7C148.125 198.81 150.573 197.391 151.804 195.169C151.826 195.137 151.845 195.104 151.858 195.079C152.136 194.588 152.35 194.006 152.515 193.302C152.652 192.697 152.673 192.166 152.707 191.428L152.889 187.054C153.088 181.937 153.364 176.344 153.739 169.954C153.755 169.702 153.973 169.513 154.221 169.525C154.462 169.539 154.651 169.74 154.651 169.981C154.655 176.383 154.61 181.982 154.514 187.102L154.444 191.385C154.437 191.982 154.426 192.883 154.251 193.663C154.16 194.081 154.046 194.482 153.914 194.856L153.855 195.024L153.943 195.179C154.153 195.553 154.394 195.904 154.658 196.22C155.745 197.552 157.327 198.452 158.994 198.686C160.686 198.937 162.464 198.543 163.865 197.617C163.91 197.586 163.953 197.556 163.995 197.524L164.058 197.477C164.849 196.921 165.525 196.188 166.018 195.355C166.362 194.772 166.616 194.155 166.769 193.522C166.907 192.973 166.989 192.286 167.076 191.558C167.108 191.295 167.141 191.032 167.175 190.77L168.263 182.129C168.776 178.189 169.306 174.319 169.838 170.625C169.856 170.503 169.918 170.396 170.016 170.324C170.114 170.251 170.234 170.221 170.354 170.237C170.591 170.271 170.762 170.487 170.743 170.727C170.445 174.448 170.102 178.339 169.729 182.293L168.876 190.956C168.843 191.233 168.818 191.505 168.793 191.78C168.733 192.452 168.669 193.146 168.486 193.953C168.242 195.002 167.796 195.995 167.162 196.905L166.941 197.222L167.253 197.449C168.051 198.028 168.959 198.432 169.879 198.618C170.719 198.793 171.576 198.813 172.426 198.677C173.283 198.543 174.089 198.255 174.821 197.828C174.969 197.742 175.112 197.649 175.253 197.551C176.56 196.66 177.522 195.358 177.965 193.887C178.123 193.357 178.256 192.649 178.384 191.964C178.436 191.689 178.488 191.415 178.541 191.147L180.19 182.563C180.956 178.663 181.736 174.82 182.511 171.142C182.563 170.895 182.805 170.738 183.05 170.788C183.286 170.838 183.443 171.063 183.409 171.301C182.863 175.037 182.268 178.912 181.64 182.819L180.224 191.44C180.171 191.737 180.124 192.025 180.08 192.315C179.978 192.962 179.875 193.629 179.657 194.41C179.266 195.761 178.509 197.027 177.467 198.071L176.981 198.572L177.665 198.734L177.704 198.742C178.086 198.806 178.466 198.836 178.841 198.836C182.045 198.836 184.915 196.603 185.644 193.359C185.704 193.073 188.319 180.754 191.298 165.655C195.316 145.307 200 119.912 200 112.122C200 83.5977 177.672 63.6765 145.701 63.6765L145.707 63.6711Z" fill="#57D1E5"/>
<path d="M106.95 76.865C97.1396 85.4272 91.4081 97.6678 91.4081 112.115C91.4081 125.743 105.624 192.692 105.768 193.37C106.088 194.799 106.834 196.027 107.839 196.957C104.312 180.051 93.0896 125.259 93.0896 112.56C93.0896 98.3276 98.1446 86.0405 106.95 76.865Z" fill="#93E1EF"/>
<path d="M187.862 111.273C186.536 115.318 183.923 118.984 180.608 121.888L174.325 126.058C171.926 127.22 169.388 128.016 166.841 128.359C164.16 128.728 161.502 128.805 158.905 128.576C158.899 128.488 158.892 128.402 158.882 128.317L150.864 126.789C147.185 125.434 143.738 123.343 140.655 120.468C139.804 119.685 139.004 118.946 138.217 118.079C138.372 117.993 138.379 117.265 139.085 116.612C140.768 116.405 141.107 114.692 139.409 114.767C138.549 114.899 138.06 114.973 137.403 115.527C135.343 117.265 134.851 118.274 134.281 120.602C133.753 122.76 136.182 123.032 136.384 121.648C136.527 120.668 136.505 120.178 137 119.277C138.613 121.298 140.284 122.691 142.381 124.28C144.641 126.013 147.083 127.408 149.637 128.483C150.212 131.898 152.37 134.81 154.467 135.048C156.365 135.285 157.993 133.148 158.632 130.877C162.139 131.307 165.716 131.197 169.231 130.548C171.032 130.124 172.803 129.515 174.507 128.739C175.723 130.629 177.451 132.367 178.855 132.127C181.817 131.598 182.186 127.172 181.788 124.021C185.472 120.756 188.276 116.552 189.499 111.745C189.728 110.686 188.241 110.243 187.864 111.267L187.862 111.273Z" fill="#4D9BB6"/>
<path d="M182.466 121.133C183.405 123.44 184.064 131.067 180.117 131.772C178.191 132.101 175.653 128.712 174.666 126.31" fill="white"/>
<path d="M160.145 127.959C160.474 130.783 158.36 135.021 155.728 134.69C153.238 134.407 150.653 130.359 150.747 126.169" fill="white"/>
<path d="M145.061 107.269C143.704 100.295 144.293 92.6946 147.917 86.4482C150.142 82.5838 153.88 79.3828 158.382 78.6389C168.811 77.0706 176.626 87.0741 179.218 96.1209C179.725 97.8036 180.096 99.5633 180.342 101.305C180.476 102.412 178.898 102.678 178.663 101.589C177.085 93.9893 173.133 86.0369 166.043 82.362C158.041 78.4171 151.158 83.5924 148.291 91.2246C146.383 96.2049 146.033 101.722 146.74 107.011C146.849 108.097 145.291 108.351 145.059 107.271L145.061 107.269Z" fill="#3B2D55"/>
<g opacity="0.35">
<path d="M145.153 107.226C144.077 101.772 144.079 96.0654 145.869 90.7328C147.956 84.3416 153.138 79.1128 160.19 79.2093C170.723 79.5777 176.895 90.5826 178.646 99.8422C178.773 100.52 178.884 101.2 178.978 101.881C179.043 102.348 178.718 102.779 178.252 102.843C177.802 102.905 177.386 102.603 177.299 102.163C177.167 101.518 177.02 100.876 176.86 100.237C175.152 93.5404 171.644 86.4804 165.391 83.1131C163.226 81.9883 160.772 81.4929 158.364 81.8917C150.444 83.122 146.976 91.8952 146.556 99.0911C146.356 101.702 146.492 104.343 146.835 106.942C146.958 108.023 145.405 108.301 145.155 107.226H145.153Z" fill="#3B2D55"/>
</g>
<path d="M134.84 120.464C135.111 117.211 137.735 114.427 140.939 113.873C141.635 113.735 142.312 114.191 142.444 114.89C142.588 115.631 142.044 116.348 141.294 116.407C140.182 116.492 139.081 116.957 138.246 117.707C137.367 118.479 136.752 119.558 136.523 120.716C136.284 121.762 134.767 121.534 134.84 120.466V120.464Z" fill="#3B2D55"/>
<path d="M190.286 109.542C188.185 118.134 181.406 125.731 172.829 128.268C170.86 128.851 168.776 128.996 166.744 129.173C163.058 129.422 159.294 129.257 155.658 128.517C148.682 127.142 142.087 123.449 137.639 117.85C137.346 117.481 137.407 116.945 137.774 116.652C138.13 116.369 138.64 116.416 138.938 116.748C139.79 117.694 140.704 118.581 141.664 119.409C147.46 124.413 155.165 126.748 162.744 126.763C165.275 126.793 167.853 126.594 170.355 126.217C174.018 125.581 177.372 123.765 180.251 121.409C184.155 118.209 187.039 113.862 188.653 109.064C189.012 108.063 190.517 108.47 190.286 109.543V109.542Z" fill="#3B2D55"/>
<path d="M76.3466 137.045C72.2108 137.045 68.2179 136.716 64.4587 135.963L64.9282 133.469C79.4471 136.292 98.1018 133.233 110.225 126.078C118.449 121.181 125.356 112.331 126.249 105.459C126.672 102.353 125.872 99.81 123.946 97.8322C122.254 96.137 120.423 95.2893 118.261 95.2893H118.215C112.012 95.2893 104.401 102.115 98.432 108.093L97.4931 109.034C88.5183 118.072 82.0335 124.568 64.6944 124.568V122.026C81 122.026 86.8261 116.14 95.7063 107.244L96.6452 106.303C103.317 99.6187 111.118 92.7446 118.213 92.7446H118.259C121.078 92.7446 123.616 93.8748 125.731 96.0404C128.175 98.535 129.255 101.926 128.739 105.738C127.893 112.328 121.69 122.215 111.494 128.24C102.004 133.842 88.7521 137.043 76.3466 137.043V137.045Z" fill="#EFC100"/>
<path d="M86.8708 31.3128C86.5887 31.3128 86.2603 31.218 86.0247 30.9837C85.5071 30.5134 85.4606 29.7123 85.9301 29.1955L92.7433 21.5686C93.2127 21.05 94.0124 21.0035 94.5283 21.4738C95.0459 21.9441 95.0923 22.7452 94.6229 23.262L87.8097 30.8889C87.574 31.1715 87.2456 31.3128 86.8708 31.3128Z" fill="#3B2D55"/>
<path d="M72.6803 24.6747H72.4928C71.7878 24.5799 71.3183 23.9218 71.4593 23.2155L73.0569 13.0939C73.1515 12.3876 73.8084 11.9173 74.5134 12.0585C75.2185 12.1533 75.6879 12.8114 75.5469 13.5178L73.9494 23.6393C73.8084 24.2509 73.2907 24.6747 72.6803 24.6747Z" fill="#3B2D55"/>
<path d="M97.5377 43.4104C97.0682 43.4104 96.5988 43.1278 96.4096 42.6575C96.1275 42.0459 96.4096 41.2931 97.02 40.9623L106.323 36.6776C106.934 36.395 107.685 36.6776 108.015 37.2892C108.297 37.9008 108.015 38.6536 107.405 38.9844L98.1017 43.2691C97.8661 43.4104 97.6787 43.4104 97.5377 43.4104Z" fill="#3B2D55"/>
<path d="M52.5226 137.045C40.1171 137.045 26.8673 133.891 17.3749 128.29C7.1774 122.263 0.976429 112.424 0.130356 105.786C-0.387283 101.926 0.647996 98.5833 3.13802 96.0887C5.2532 93.9232 7.78964 92.793 10.6099 92.793H10.6563C17.7515 92.793 25.5054 99.6187 32.224 106.352L33.1629 107.292C42.0431 116.189 47.9174 122.074 64.1749 122.074V124.617C46.8357 124.617 40.351 118.12 31.3762 109.082L30.4373 108.142C24.4701 102.163 16.8573 95.3377 10.6545 95.3377H10.6081C8.44651 95.3377 6.61335 96.1853 4.92299 97.8806C2.99701 99.8584 2.24375 102.399 2.62038 105.507C3.51286 112.38 10.4207 121.278 18.644 126.126C30.7675 133.281 49.374 136.341 63.9411 133.517L64.4105 136.012C60.6514 136.67 56.6584 137.047 52.5226 137.047V137.045Z" fill="#EFC100"/>
<path d="M41.9503 31.3128C41.6219 31.3128 41.2453 31.1715 41.0114 30.8889L34.1982 23.262C33.7288 22.7434 33.7752 21.9441 34.2928 21.4738C34.8105 21.0035 35.6083 21.05 36.0778 21.5686L42.891 29.1955C43.3604 29.7141 43.314 30.5134 42.7964 30.9837C42.5608 31.1715 42.2788 31.3128 41.9503 31.3128Z" fill="#3B2D55"/>
<path d="M56.1872 24.6748C55.5767 24.6748 55.0591 24.2509 54.9181 23.5929L53.3205 13.4713C53.2259 12.765 53.6972 12.1534 54.354 12.0121C55.0591 11.9173 55.6696 12.3894 55.8106 13.0475L57.4081 23.169C57.5027 23.8754 57.0315 24.487 56.3746 24.6283C56.3282 24.6748 56.2336 24.6748 56.1872 24.6748Z" fill="#3B2D55"/>
<path d="M31.3298 43.4103C31.1424 43.4103 30.9532 43.3638 30.8122 43.3155L21.5089 39.0308C20.8985 38.7483 20.6164 37.9954 20.8985 37.3356C21.1805 36.724 21.932 36.4414 22.5906 36.724L31.8938 41.0086C32.5043 41.2912 32.7863 42.044 32.5043 42.7039C32.2687 43.1742 31.7992 43.4103 31.3298 43.4103Z" fill="#3B2D55"/>
<path d="M69.8154 128.241H58.5844V174.988H69.8154V128.241Z" fill="#FFD600"/>
<path d="M61.9687 144.577H59.4305V170.798H61.9687V144.577Z" fill="#FFE67D"/>
<path d="M79.8219 170.798H48.5279V178.472H79.8219V170.798Z" fill="#FFE67D"/>
<path d="M81.091 179.741H47.2588V171.662C47.2588 170.484 48.2137 169.527 49.39 169.527H78.9598C80.136 169.527 81.091 170.484 81.091 171.662V179.741ZM49.797 177.247H78.5546V172.068H49.797V177.247Z" fill="#FFD600"/>
<path d="M17.4695 56.6399C16.718 61.6774 16.3414 66.9492 16.3414 72.3157C16.3414 112.33 37.7681 144.765 64.1766 144.765C90.5852 144.765 112.012 112.33 112.012 72.3157C112.012 66.9492 111.635 61.6774 110.884 56.6399H17.4695Z" fill="#FFD600"/>
<path d="M38.0073 132.975C24.5683 119.281 16.3414 97.5014 16.3414 73.5871C16.3414 68.267 16.5591 62.9005 17.3124 57.7235L17.4534 56.6416H110.87C110.87 56.6416 111.171 58.5014 111.228 59.1845H19.8185C19.1598 63.8912 18.8796 68.7409 18.8796 73.5889C18.8796 96.8917 25.4304 119.59 37.9751 132.911L38.0073 132.977V132.975Z" fill="#FFE67D"/>
<path d="M89.2679 177.671H39.0836V198.384H89.2679V177.671Z" fill="#3B2D55"/>
<path d="M90.537 199.655H37.8145V179.021C37.8145 177.599 38.964 176.448 40.3831 176.448H87.9667C89.3857 176.448 90.5352 177.599 90.5352 179.021V199.655H90.537ZM40.3527 197.113H87.9988V178.942H40.3527V197.113Z" fill="#3B2D55"/>
<path d="M93.684 194.289H34.6659V198.384H93.684V194.289Z" fill="#FF0052"/>
<path d="M94.9531 199.656H33.3986V193.066H94.9548V199.656H94.9531ZM34.7319 198.348H93.6322V194.323H34.7319V198.348Z" fill="#3B2D55"/>
<path d="M43.796 75.6971C43.6353 75.495 43.4194 75.3448 43.1445 75.2482C42.8714 75.1517 42.6125 75.1034 42.368 75.1034C42.2252 75.1034 42.0771 75.1213 41.9253 75.1535C41.7736 75.1874 41.6308 75.2393 41.4952 75.3108C41.3595 75.3824 41.2506 75.4771 41.1667 75.5952C41.0828 75.7132 41.04 75.8563 41.04 76.0261C41.04 76.2962 41.1417 76.5036 41.3434 76.6467C41.5451 76.7897 41.8004 76.9131 42.1074 77.0133C42.4144 77.1152 42.7446 77.2153 43.0998 77.3173C43.4533 77.4192 43.7835 77.5622 44.0923 77.7482C44.3993 77.9342 44.6545 78.1828 44.8562 78.4957C45.0579 78.8087 45.1597 79.2253 45.1597 79.7493C45.1597 80.2732 45.0669 80.681 44.8812 81.0529C44.6956 81.4249 44.4457 81.7325 44.1298 81.9774C43.8138 82.2224 43.4479 82.4031 43.0302 82.5211C42.6125 82.6391 42.1734 82.6981 41.7094 82.6981C41.1275 82.6981 40.5884 82.6087 40.0922 82.4317C39.596 82.2546 39.1319 81.9685 38.7017 81.5715L40.1047 80.0265C40.3064 80.2965 40.5616 80.5057 40.8686 80.6524C41.1757 80.8008 41.4934 80.8741 41.8218 80.8741C41.9825 80.8741 42.1431 80.8544 42.3091 80.8169C42.4733 80.7793 42.6215 80.7221 42.7518 80.6452C42.8821 80.5701 42.9874 80.4717 43.0677 80.3537C43.148 80.2357 43.1873 80.0962 43.1873 79.9353C43.1873 79.6652 43.0838 79.4524 42.8785 79.2969C42.6715 79.1413 42.4126 79.0072 42.102 78.8981C41.7897 78.789 41.4541 78.6781 41.0918 78.569C40.7294 78.46 40.3921 78.3115 40.0815 78.1255C39.7691 77.9396 39.5103 77.6946 39.305 77.3924C39.098 77.0884 38.9962 76.6878 38.9962 76.1907C38.9962 75.6935 39.0908 75.2876 39.28 74.9246C39.4692 74.5616 39.7227 74.2575 40.0386 74.0126C40.3546 73.7676 40.7187 73.5852 41.131 73.4618C41.5434 73.3402 41.9682 73.2776 42.4073 73.2776C42.9124 73.2776 43.4015 73.3491 43.8727 73.4922C44.344 73.6352 44.7706 73.8766 45.149 74.2128L43.7978 75.6935L43.796 75.6971Z" fill="#3B2D55"/>
<path d="M50.6056 78.3045C50.5128 78.1704 50.3825 78.0577 50.2147 77.9683C50.0469 77.8789 49.8649 77.836 49.6721 77.836C49.1919 77.836 48.8189 77.9791 48.5547 78.267C48.2887 78.5531 48.1567 78.9304 48.1567 79.3936C48.1567 79.8567 48.2887 80.2341 48.5547 80.5202C48.8207 80.8063 49.1919 80.9511 49.6721 80.9511C49.8827 80.9511 50.063 80.9046 50.2147 80.8117C50.3664 80.7187 50.4967 80.6096 50.6056 80.4826L51.8569 81.7988C51.5624 82.1028 51.2143 82.3156 50.8145 82.4372C50.4146 82.5588 50.0326 82.6214 49.6703 82.6214C49.1991 82.6214 48.7546 82.5463 48.3369 82.3943C47.9192 82.2423 47.5569 82.0259 47.2499 81.7416C46.9429 81.459 46.7001 81.1192 46.5234 80.7222C46.3467 80.3253 46.2574 79.8836 46.2574 79.3936C46.2574 78.9036 46.3467 78.4619 46.5234 78.0649C46.7001 77.6679 46.9429 77.3281 47.2499 77.0456C47.5569 76.763 47.9192 76.5449 48.3369 76.3929C48.7546 76.2409 49.1973 76.1658 49.6703 76.1658C50.0326 76.1658 50.4128 76.2266 50.8145 76.35C51.2143 76.4734 51.5624 76.6862 51.8569 76.9884L50.6056 78.3045Z" fill="#3B2D55"/>
<path d="M56.139 83.469C56.0123 83.7981 55.8909 84.0895 55.7731 84.3417C55.6553 84.5956 55.5053 84.8084 55.3251 84.9801C55.143 85.1536 54.9145 85.2841 54.6361 85.3717C54.3576 85.4611 53.9917 85.5041 53.5365 85.5041C53.0474 85.5041 52.5762 85.4289 52.1211 85.2769L52.3745 83.7194C52.6601 83.8463 52.9564 83.9089 53.2581 83.9089C53.4687 83.9089 53.6418 83.8857 53.7757 83.8392C53.9096 83.7927 54.022 83.7247 54.1113 83.6371C54.2005 83.5477 54.2737 83.4404 54.3326 83.3134C54.3915 83.1865 54.454 83.0398 54.5218 82.87L54.6611 82.5159L51.9693 76.3142H54.0167L55.5964 80.3771H55.6214L56.9726 76.3142H58.9182L56.139 83.4654V83.469Z" fill="#3B2D55"/>
<path d="M59.7143 72.8984H61.6099V82.4674H59.7143V72.8984Z" fill="#3B2D55"/>
<path d="M63.0629 72.8984H64.9585V82.4674H63.0629V72.8984Z" fill="#3B2D55"/>
<path d="M70.2385 81.6968H70.2135C70.0028 82.0259 69.7226 82.2619 69.3727 82.405C69.0229 82.5481 68.6552 82.6196 68.2678 82.6196C67.9823 82.6196 67.7056 82.5802 67.4396 82.4998C67.1737 82.4193 66.9398 82.2995 66.7381 82.1385C66.5364 81.9776 66.3758 81.7809 66.258 81.5431C66.1402 81.307 66.0813 81.0334 66.0813 80.7205C66.0813 80.3664 66.1455 80.066 66.2776 79.821C66.4079 79.576 66.5846 79.3739 66.8078 79.213C67.0309 79.052 67.2861 78.9286 67.5717 78.8392C67.8573 78.7498 68.1554 78.6854 68.4624 78.6425C68.7694 78.5996 69.0764 78.5746 69.3852 78.5674C69.6923 78.5585 69.9761 78.5549 70.2385 78.5549C70.2385 78.2169 70.1189 77.9487 69.8779 77.752C69.6369 77.5535 69.3531 77.4551 69.0247 77.4551C68.6962 77.4551 68.4285 77.5213 68.1715 77.6518C67.9144 77.7824 67.6842 77.9612 67.4825 78.1901L66.4722 77.1529C66.8256 76.8238 67.2379 76.5771 67.7109 76.4126C68.1822 76.248 68.6713 76.1658 69.1764 76.1658C69.7315 76.1658 70.1885 76.2355 70.5473 76.375C70.906 76.5145 71.1916 76.7183 71.4058 76.9884C71.62 77.2584 71.7699 77.5892 71.8538 77.9826C71.9377 78.3743 71.9806 78.8285 71.9806 79.3435V82.4694H70.2367V81.6968H70.2385ZM69.7726 79.7727C69.6298 79.7727 69.4513 79.7798 69.2353 79.7924C69.0211 79.8049 68.8141 79.8406 68.6159 79.8996C68.4178 79.9587 68.25 80.0481 68.1108 80.1661C67.9715 80.2841 67.9019 80.4486 67.9019 80.6597C67.9019 80.8868 67.9983 81.0566 68.1929 81.1657C68.3857 81.2748 68.5891 81.3303 68.7998 81.3303C68.9854 81.3303 69.1639 81.3052 69.337 81.2551C69.5102 81.2051 69.6637 81.1335 69.7976 81.0406C69.9314 80.9476 70.0403 80.8295 70.1206 80.6865C70.201 80.5434 70.2402 80.3735 70.2402 80.1804V79.7745H69.7726V79.7727Z" fill="#3B2D55"/>
<path d="M73.4728 73.5066H76.4287C77.1445 73.5066 77.8246 73.5871 78.469 73.7462C79.1133 73.9072 79.6756 74.1665 80.1557 74.5241C80.6359 74.8835 81.0161 75.3485 81.2999 75.9225C81.5819 76.4966 81.7229 77.1922 81.7229 78.0112C81.7229 78.7372 81.5855 79.3756 81.3124 79.9282C81.0393 80.4808 80.6698 80.9457 80.2075 81.3213C79.7434 81.6968 79.2097 81.9811 78.6028 82.1761C77.9959 82.371 77.3605 82.4675 76.6947 82.4675H73.4728V73.5066ZM75.4452 80.6453H76.468C76.9232 80.6453 77.3462 80.5988 77.7371 80.5058C78.128 80.4128 78.4672 80.259 78.7545 80.0445C79.0401 79.8299 79.2668 79.5473 79.4311 79.1968C79.5953 78.8463 79.6774 78.4189 79.6774 77.9129C79.6774 77.4747 79.5953 77.092 79.4311 76.7666C79.2668 76.4411 79.0455 76.1747 78.767 75.9637C78.4886 75.7526 78.1619 75.5953 77.7871 75.4898C77.4123 75.3843 77.0178 75.3324 76.6055 75.3324H75.4434V80.6489L75.4452 80.6453Z" fill="#3B2D55"/>
<path d="M83.1259 73.5066H86.462C86.8493 73.5066 87.2384 73.5334 87.6311 73.5889C88.022 73.6443 88.3737 73.7534 88.686 73.9179C88.9984 74.0824 89.2501 74.3131 89.4447 74.6082C89.6374 74.9032 89.7356 75.2966 89.7356 75.7848C89.7356 76.273 89.5946 76.7111 89.3126 77.0438C89.0305 77.3764 88.6575 77.616 88.1952 77.7591V77.7841C88.4897 77.827 88.7574 77.9093 88.9966 78.0309C89.2376 78.1525 89.4429 78.3098 89.616 78.4994C89.7892 78.689 89.9212 78.9107 90.0141 79.1646C90.1069 79.4186 90.1533 79.6886 90.1533 79.9747C90.1533 80.4468 90.0515 80.842 89.8498 81.1585C89.6481 81.4751 89.3858 81.7308 89.0662 81.9239C88.7467 82.1188 88.3862 82.2565 87.9863 82.3424C87.5865 82.4264 87.1885 82.4693 86.7922 82.4693H83.1277V73.5084L83.1259 73.5066ZM85.0965 77.0885H86.5245C86.6762 77.0885 86.8261 77.0724 86.9725 77.0384C87.1188 77.0044 87.2527 76.949 87.3705 76.8739C87.4883 76.7988 87.5829 76.6968 87.6543 76.5699C87.7257 76.4429 87.7614 76.2909 87.7614 76.1139C87.7614 75.9368 87.7222 75.7741 87.6418 75.6525C87.5615 75.5309 87.458 75.4361 87.333 75.3682C87.2063 75.3002 87.0635 75.2519 86.9029 75.2233C86.7422 75.1929 86.5869 75.1786 86.4352 75.1786H85.0965V77.0903V77.0885ZM85.0965 80.7973H86.8654C87.0171 80.7973 87.1706 80.7812 87.3259 80.7472C87.4812 80.7133 87.6222 80.6542 87.7489 80.5702C87.8757 80.4862 87.9792 80.3771 88.0577 80.2412C88.1381 80.107 88.1773 79.9425 88.1773 79.7476C88.1773 79.5366 88.1256 79.3667 88.0203 79.2344C87.9149 79.1038 87.7829 79.0037 87.6222 78.9375C87.4616 78.8696 87.2902 78.8231 87.1046 78.798C86.9189 78.773 86.7458 78.7605 86.5869 78.7605H85.0965V80.7991V80.7973Z" fill="#3B2D55"/>
<path d="M33.4611 88.696H35.4317V97.657H33.4611V88.696Z" fill="#3B2D55"/>
<path d="M37.0488 91.5053H38.8677V92.3404H38.8927C38.9516 92.2224 39.0355 92.1043 39.1461 91.9863C39.255 91.8683 39.3871 91.7628 39.5371 91.6698C39.6888 91.5768 39.8619 91.5017 40.0547 91.4427C40.2475 91.3837 40.4581 91.3533 40.6866 91.3533C41.1667 91.3533 41.5541 91.4266 41.8486 91.575C42.1431 91.7234 42.3734 91.9273 42.5376 92.1884C42.7018 92.4495 42.8142 92.7588 42.8732 93.1129C42.9321 93.467 42.9624 93.8515 42.9624 94.2646V97.6569H41.0668V94.6437C41.0668 94.4666 41.0596 94.2824 41.0471 94.0929C41.0346 93.9033 40.9972 93.7281 40.9329 93.5671C40.8704 93.4062 40.7722 93.2756 40.6419 93.1755C40.5116 93.0736 40.3242 93.0235 40.0797 93.0235C39.8351 93.0235 39.637 93.0682 39.4853 93.1558C39.3336 93.2452 39.2175 93.3633 39.1372 93.5099C39.0569 93.6583 39.0051 93.8246 38.9801 94.0106C38.9552 94.1966 38.9427 94.3897 38.9427 94.5936V97.6569H37.047V91.5053H37.0488Z" fill="#3B2D55"/>
<path d="M44.3654 91.5053H46.1843V92.3404H46.2093C46.2682 92.2224 46.3521 92.1043 46.4627 91.9863C46.5716 91.8683 46.7037 91.7628 46.8536 91.6698C47.0054 91.5768 47.1785 91.5017 47.3713 91.4427C47.5641 91.3837 47.7747 91.3533 48.0032 91.3533C48.4833 91.3533 48.8707 91.4266 49.1652 91.575C49.4597 91.7234 49.6899 91.9273 49.8542 92.1884C50.0184 92.4495 50.1308 92.7588 50.1897 93.1129C50.2486 93.467 50.279 93.8515 50.279 94.2646V97.6569H48.3834V94.6437C48.3834 94.4666 48.3762 94.2824 48.3637 94.0929C48.3512 93.9033 48.3137 93.7281 48.2495 93.5671C48.187 93.4062 48.0888 93.2756 47.9585 93.1755C47.8282 93.0736 47.6408 93.0235 47.3963 93.0235C47.1517 93.0235 46.9536 93.0682 46.8019 93.1558C46.6502 93.2452 46.5341 93.3633 46.4538 93.5099C46.3735 93.6583 46.3217 93.8246 46.2967 94.0106C46.2717 94.1966 46.2593 94.3897 46.2593 94.5936V97.6569H44.3636V91.5053H44.3654Z" fill="#3B2D55"/>
<path d="M51.4517 94.5811C51.4517 94.0911 51.541 93.6494 51.7177 93.2524C51.8944 92.8554 52.1371 92.5156 52.4442 92.2331C52.7512 91.9506 53.1135 91.7324 53.5312 91.5804C53.9489 91.4284 54.3916 91.3533 54.8646 91.3533C55.3376 91.3533 55.7803 91.4284 56.1979 91.5804C56.6156 91.7324 56.9762 91.9488 57.285 92.2331C57.592 92.5156 57.8348 92.8554 58.0115 93.2524C58.1882 93.6494 58.2774 94.0929 58.2774 94.5811C58.2774 95.0693 58.1882 95.5128 58.0115 95.9097C57.8348 96.3067 57.592 96.6465 57.285 96.9291C56.978 97.2116 56.6156 97.4298 56.1979 97.5818C55.7803 97.7338 55.3358 97.8089 54.8646 97.8089C54.3933 97.8089 53.9489 97.7338 53.5312 97.5818C53.1135 97.4298 52.7512 97.2134 52.4442 96.9291C52.1371 96.6465 51.8944 96.3067 51.7177 95.9097C51.541 95.5128 51.4517 95.0711 51.4517 94.5811ZM53.3474 94.5811C53.3474 95.046 53.4794 95.4216 53.7454 95.7077C54.0114 95.9938 54.3826 96.1386 54.8628 96.1386C55.3429 96.1386 55.716 95.9956 55.9802 95.7077C56.2461 95.4216 56.3782 95.046 56.3782 94.5811C56.3782 94.1161 56.2461 93.7424 55.9802 93.4545C55.7142 93.1684 55.3429 93.0235 54.8628 93.0235C54.3826 93.0235 54.0096 93.1666 53.7454 93.4545C53.4794 93.7406 53.3474 94.1179 53.3474 94.5811Z" fill="#3B2D55"/>
<path d="M58.8058 91.5054H60.8531L62.4078 95.6827H62.4328L63.8733 91.5054H65.7814L63.3556 97.657H61.3475L58.8075 91.5054H58.8058Z" fill="#3B2D55"/>
<path d="M70.3902 96.8863H70.3652C70.1545 97.2153 69.8743 97.4514 69.5244 97.5944C69.1746 97.7375 68.8069 97.809 68.4196 97.809C68.134 97.809 67.8573 97.7697 67.5913 97.6892C67.3254 97.6088 67.0915 97.4889 66.8898 97.328C66.6881 97.1671 66.5275 96.9703 66.4097 96.7325C66.2919 96.4965 66.233 96.2229 66.233 95.9099C66.233 95.5558 66.2972 95.2554 66.4293 95.0104C66.5596 94.7654 66.7363 94.5634 66.9595 94.4024C67.1826 94.2415 67.4378 94.1181 67.7234 94.0287C68.009 93.9393 68.3071 93.8749 68.6141 93.832C68.9211 93.789 69.2281 93.764 69.5369 93.7569C69.844 93.7479 70.1278 93.7443 70.3902 93.7443C70.3902 93.4064 70.2706 93.1381 70.0296 92.9414C69.7886 92.7429 69.5048 92.6446 69.1764 92.6446C68.8479 92.6446 68.5802 92.7107 68.3232 92.8413C68.0661 92.9718 67.8359 93.1506 67.6342 93.3795L66.6239 92.3423C66.9773 92.0133 67.3896 91.7665 67.8626 91.602C68.3339 91.4375 68.823 91.3552 69.3281 91.3552C69.8832 91.3552 70.3402 91.425 70.699 91.5644C71.0577 91.7039 71.3433 91.9078 71.5575 92.1778C71.7717 92.4478 71.9217 92.7787 72.0055 93.1721C72.0894 93.5637 72.1323 94.0179 72.1323 94.533V97.6588H70.3884V96.8863H70.3902ZM69.9225 94.9621C69.7797 94.9621 69.6012 94.9693 69.3852 94.9818C69.171 94.9943 68.964 95.0301 68.7658 95.0891C68.5677 95.1481 68.3999 95.2375 68.2607 95.3556C68.1215 95.4736 68.0519 95.6381 68.0519 95.8491C68.0519 96.0762 68.1482 96.2461 68.3428 96.3552C68.5356 96.4643 68.7391 96.5197 68.9497 96.5197C69.1353 96.5197 69.3138 96.4947 69.487 96.4446C69.6601 96.3945 69.8136 96.323 69.9475 96.23C70.0814 96.137 70.1902 96.019 70.2706 95.8759C70.3509 95.7329 70.3902 95.563 70.3902 95.3699V94.9639H69.9225V94.9621Z" fill="#3B2D55"/>
<path d="M77.5675 93.0253H75.9004V95.0764C75.9004 95.2445 75.9093 95.4001 75.9253 95.5378C75.9414 95.6773 75.9807 95.7971 76.0396 95.899C76.0985 96.0009 76.1895 96.0778 76.3109 96.1333C76.4323 96.1887 76.5947 96.2155 76.7982 96.2155C76.8999 96.2155 77.032 96.2048 77.1962 96.1833C77.3605 96.1619 77.4854 96.1136 77.5693 96.0385V97.6211C77.3587 97.6962 77.1391 97.7481 76.9124 97.7731C76.6857 97.7981 76.4626 97.8106 76.2431 97.8106C75.9236 97.8106 75.629 97.7767 75.3595 97.7087C75.09 97.6408 74.8544 97.5335 74.6527 97.385C74.451 97.2384 74.2921 97.0453 74.1796 96.8092C74.0654 96.5732 74.0083 96.2853 74.0083 95.9491V93.0253H72.7963V91.507H74.0083V89.6848H75.9039V91.507H77.5711V93.0253H77.5675Z" fill="#3B2D55"/>
<path d="M78.4636 89.5688C78.4636 89.2648 78.5707 89.0055 78.7866 88.7909C79.0008 88.5763 79.2597 88.469 79.5631 88.469C79.8665 88.469 80.1254 88.5763 80.3396 88.7909C80.5538 89.0055 80.6609 89.2648 80.6609 89.5688C80.6609 89.8728 80.5538 90.1321 80.3396 90.3467C80.1254 90.5613 79.8665 90.6703 79.5631 90.6703C79.2597 90.6703 79.0008 90.563 78.7866 90.3467C78.5724 90.1321 78.4636 89.8728 78.4636 89.5688ZM78.6153 91.5055H80.5109V97.6571H78.6153V91.5055Z" fill="#3B2D55"/>
<path d="M81.7104 94.5811C81.7104 94.0911 81.7997 93.6494 81.9764 93.2524C82.1531 92.8554 82.3959 92.5156 82.7029 92.2331C83.0099 91.9506 83.3723 91.7324 83.7899 91.5804C84.2076 91.4284 84.6503 91.3533 85.1233 91.3533C85.5963 91.3533 86.039 91.4284 86.4567 91.5804C86.8744 91.7324 87.2349 91.9488 87.5437 92.2331C87.8507 92.5156 88.0935 92.8554 88.2702 93.2524C88.4469 93.6494 88.5362 94.0929 88.5362 94.5811C88.5362 95.0693 88.4469 95.5128 88.2702 95.9097C88.0935 96.3067 87.8507 96.6465 87.5437 96.9291C87.2367 97.2116 86.8744 97.4298 86.4567 97.5818C86.039 97.7338 85.5945 97.8089 85.1233 97.8089C84.6521 97.8089 84.2076 97.7338 83.7899 97.5818C83.3723 97.4298 83.0099 97.2134 82.7029 96.9291C82.3959 96.6465 82.1531 96.3067 81.9764 95.9097C81.7997 95.5128 81.7104 95.0711 81.7104 94.5811ZM83.6061 94.5811C83.6061 95.046 83.7382 95.4216 84.0041 95.7077C84.2701 95.9938 84.6414 96.1386 85.1215 96.1386C85.6017 96.1386 85.9747 95.9956 86.2389 95.7077C86.5049 95.4216 86.637 95.046 86.637 94.5811C86.637 94.1161 86.5049 93.7424 86.2389 93.4545C85.9729 93.1684 85.6017 93.0235 85.1215 93.0235C84.6414 93.0235 84.2683 93.1666 84.0041 93.4545C83.7382 93.7406 83.6061 94.1179 83.6061 94.5811Z" fill="#3B2D55"/>
<path d="M89.7088 91.5053H91.5277V92.3404H91.5527C91.6116 92.2224 91.6955 92.1043 91.8062 91.9863C91.9151 91.8683 92.0472 91.7628 92.1971 91.6698C92.3488 91.5768 92.5219 91.5017 92.7147 91.4427C92.9075 91.3837 93.1181 91.3533 93.3466 91.3533C93.8268 91.3533 94.2141 91.4266 94.5086 91.575C94.8031 91.7234 95.0334 91.9273 95.1976 92.1884C95.3618 92.4495 95.4743 92.7588 95.5332 93.1129C95.5921 93.467 95.6224 93.8515 95.6224 94.2646V97.6569H93.7268V94.6437C93.7268 94.4666 93.7197 94.2824 93.7072 94.0929C93.6947 93.9033 93.6572 93.7281 93.5929 93.5671C93.5305 93.4062 93.4323 93.2756 93.302 93.1755C93.1717 93.0736 92.9843 93.0235 92.7397 93.0235C92.4952 93.0235 92.297 93.0682 92.1453 93.1558C91.9936 93.2452 91.8776 93.3633 91.7973 93.5099C91.7169 93.6583 91.6652 93.8246 91.6402 94.0106C91.6152 94.1966 91.6027 94.3897 91.6027 94.5936V97.6569H89.7071V91.5053H89.7088Z" fill="#3B2D55"/>
<path d="M45.5452 103.885H47.1749L51.0661 112.846H48.8421L48.071 110.947H44.5974L43.8513 112.846H41.679L45.5452 103.885ZM46.3039 106.493L45.2168 109.277H47.4034L46.3039 106.493Z" fill="#3B2D55"/>
<path d="M50.827 106.695H52.8493L54.1006 110.556H54.1256L55.1751 106.695H57.2475L58.3845 110.556H58.4095L59.559 106.695H61.4796L59.2931 112.846H57.4224L56.1462 108.758H56.1212L54.9841 112.846H53.076L50.827 106.695Z" fill="#3B2D55"/>
<path d="M66.001 112.074H65.976C65.7653 112.403 65.4851 112.639 65.1353 112.782C64.7854 112.925 64.4177 112.997 64.0304 112.997C63.7448 112.997 63.4681 112.957 63.2021 112.877C62.9362 112.796 62.7023 112.677 62.5006 112.516C62.2989 112.355 62.1383 112.156 62.0205 111.92C61.9027 111.684 61.8438 111.41 61.8438 111.097C61.8438 110.743 61.908 110.443 62.0401 110.198C62.1704 109.953 62.3471 109.751 62.5703 109.59C62.7934 109.429 63.0486 109.306 63.3342 109.216C63.6198 109.127 63.9179 109.062 64.2249 109.02C64.5319 108.977 64.839 108.952 65.1478 108.944C65.4548 108.935 65.7386 108.932 66.001 108.932C66.001 108.594 65.8814 108.326 65.6404 108.127C65.3994 107.929 65.1156 107.83 64.7872 107.83C64.4588 107.83 64.191 107.897 63.934 108.027C63.6769 108.158 63.4467 108.336 63.245 108.565L62.2347 107.528C62.5881 107.199 63.0004 106.952 63.4735 106.788C63.9447 106.623 64.4338 106.541 64.9389 106.541C65.494 106.541 65.951 106.611 66.3098 106.75C66.6685 106.89 66.9541 107.094 67.1683 107.364C67.3825 107.634 67.5325 107.964 67.6164 108.358C67.7002 108.75 67.7431 109.204 67.7431 109.719V112.845H65.9992V112.072L66.001 112.074ZM65.5333 110.15C65.3905 110.15 65.212 110.157 64.996 110.169C64.7818 110.182 64.5748 110.218 64.3766 110.277C64.1785 110.336 64.0107 110.425 63.8715 110.543C63.7323 110.661 63.6627 110.826 63.6627 111.037C63.6627 111.264 63.759 111.434 63.9536 111.543C64.1464 111.652 64.3499 111.707 64.5605 111.707C64.7461 111.707 64.9246 111.682 65.0978 111.632C65.2709 111.582 65.4244 111.511 65.5583 111.418C65.6922 111.325 65.801 111.207 65.8814 111.064C65.9617 110.92 66.001 110.751 66.001 110.557V110.153H65.5333V110.15Z" fill="#3B2D55"/>
<path d="M68.9943 106.695H70.89V107.682H70.915C71.1167 107.303 71.3576 107.017 71.6343 106.827C71.9128 106.638 72.2608 106.543 72.6821 106.543C72.791 106.543 72.9016 106.547 73.0105 106.555C73.1194 106.564 73.2211 106.581 73.314 106.606V108.34C73.1783 108.297 73.0462 108.267 72.9159 108.245C72.7856 108.224 72.6482 108.213 72.5054 108.213C72.143 108.213 71.8574 108.263 71.6468 108.365C71.4362 108.467 71.2737 108.608 71.1595 108.789C71.0453 108.971 70.9721 109.188 70.9382 109.442C70.9043 109.696 70.8882 109.973 70.8882 110.277V112.847H68.9926V106.695H68.9943Z" fill="#3B2D55"/>
<path d="M80.4163 112.847H78.6724V112.036H78.6474C78.5724 112.146 78.4725 112.258 78.3511 112.373C78.2297 112.487 78.0851 112.591 77.9209 112.682C77.7567 112.775 77.5746 112.85 77.3783 112.909C77.1802 112.968 76.9767 112.999 76.7661 112.999C76.3109 112.999 75.8986 112.92 75.5273 112.764C75.156 112.609 74.8383 112.389 74.5741 112.106C74.3082 111.824 74.1047 111.487 73.9619 111.099C73.8191 110.711 73.7477 110.286 73.7477 109.821C73.7477 109.39 73.8119 108.979 73.944 108.587C74.0743 108.195 74.26 107.847 74.4991 107.543C74.7383 107.239 75.0311 106.997 75.3774 106.815C75.7219 106.634 76.1145 106.543 76.5519 106.543C76.9481 106.543 77.3158 106.604 77.6568 106.727C77.9977 106.849 78.2779 107.058 78.4975 107.353H78.5225V103.278H80.4181V112.847H80.4163ZM78.6724 109.771C78.6724 109.308 78.5403 108.932 78.2743 108.644C78.0084 108.356 77.6371 108.213 77.157 108.213C76.6768 108.213 76.3037 108.356 76.0396 108.644C75.7754 108.932 75.6415 109.306 75.6415 109.771C75.6415 110.236 75.7736 110.611 76.0396 110.897C76.3055 111.183 76.6768 111.328 77.157 111.328C77.6371 111.328 78.0102 111.185 78.2743 110.897C78.5403 110.611 78.6724 110.236 78.6724 109.771Z" fill="#3B2D55"/>
<path d="M85.4696 108.505C85.1911 108.16 84.8252 107.986 84.37 107.986C84.2094 107.986 84.0541 108.024 83.9024 108.101C83.7506 108.177 83.6757 108.308 83.6757 108.492C83.6757 108.644 83.7542 108.757 83.9095 108.828C84.0648 108.9 84.2629 108.964 84.5039 109.018C84.7431 109.073 85.0001 109.132 85.275 109.195C85.5481 109.258 85.8051 109.358 86.0461 109.492C86.2871 109.626 86.4834 109.81 86.6405 110.043C86.7958 110.275 86.8743 110.584 86.8743 110.972C86.8743 111.361 86.7886 111.697 86.6155 111.954C86.4424 112.212 86.221 112.419 85.9515 112.575C85.682 112.73 85.3785 112.841 85.0412 112.904C84.7038 112.966 84.3718 112.999 84.0434 112.999C83.6132 112.999 83.1794 112.938 82.7421 112.814C82.3048 112.693 81.9335 112.475 81.6301 112.162L82.7796 110.883C82.9563 111.103 83.1527 111.269 83.3669 111.384C83.5811 111.498 83.8327 111.555 84.1183 111.555C84.3379 111.555 84.536 111.523 84.7127 111.461C84.8894 111.398 84.9787 111.282 84.9787 111.112C84.9787 110.951 84.9001 110.831 84.7449 110.751C84.5896 110.67 84.3914 110.604 84.1505 110.549C83.9095 110.493 83.6525 110.434 83.3794 110.372C83.1063 110.309 82.8492 110.214 82.6083 110.087C82.3673 109.96 82.1709 109.781 82.0139 109.549C81.8586 109.317 81.78 109.007 81.78 108.619C81.78 108.256 81.8532 107.943 82.0014 107.682C82.1495 107.421 82.3423 107.205 82.5833 107.037C82.8225 106.868 83.0991 106.743 83.4115 106.663C83.7239 106.582 84.038 106.543 84.3593 106.543C84.7627 106.543 85.1715 106.602 85.5856 106.72C85.9979 106.838 86.3478 107.049 86.6351 107.353L85.4731 108.505H85.4696Z" fill="#3B2D55"/>
<path d="M110.884 56.6399H107.739C108.49 61.6774 108.867 66.9492 108.867 72.3157C108.867 111.532 88.2844 143.465 62.6041 144.722C63.1271 144.747 63.6501 144.765 64.1767 144.765C90.5852 144.765 112.012 112.33 112.012 72.3157C112.012 66.9492 111.635 61.6774 110.884 56.6399Z" fill="#EFC100"/>
<path d="M50.5842 176.389H49.374V171.644H78.5528V172.819H50.5842V176.389Z" fill="#EFC100"/>
</g>
<defs>
<clipPath id="clip0_36_2443">
<rect width="200" height="200" fill="white"/>
</clipPath>
</defs>
</svg>
