<svg width="200" height="200" viewBox="0 0 200 200" fill="none" xmlns="http://www.w3.org/2000/svg">
<g clip-path="url(#clip0_54_44)">
<path d="M111.393 183.495L59.0798 187.545L107.472 194.396L111.393 183.495Z" fill="#326DE6"/>
<path d="M59.0798 187.545L107.472 194.393L107.588 199.849L60.4147 192.643C59.6486 192.524 59.0798 191.868 59.0798 191.092V187.542V187.545Z" fill="#195ACE"/>
<path d="M103.813 194.367L118.172 133.165C118.526 131.583 119.855 130.385 121.343 130.304L193.549 126.329C194.617 126.289 197.945 127.472 197.911 127.446L196.442 129.824L185.281 187.08C184.974 188.625 183.639 189.825 182.098 189.95L106.779 198.111C104.75 198.276 103.32 196.47 103.81 194.367H103.813Z" fill="#195ACE"/>
<path d="M161.61 160.982C160.833 165.055 157.025 168.588 153.108 168.871C149.19 169.152 146.718 166.053 147.58 161.951C148.439 157.852 152.24 154.325 156.074 154.071C159.907 153.816 162.385 156.909 161.61 160.982Z" fill="#2767C4"/>
<path d="M185.113 193.664L108.221 199.985C106.132 200.156 104.657 198.31 105.159 196.152L119.222 134.459C119.585 132.836 120.949 131.603 122.481 131.516L196.79 127.301C198.807 127.186 200.325 129.002 199.936 131.065L188.384 190.71C188.07 192.293 186.698 193.531 185.113 193.661V193.664Z" fill="#326DE6"/>
<path opacity="0.35" d="M185.113 193.664L108.221 199.985C106.131 200.156 104.669 198.359 105.159 196.152C105.658 197.277 106.459 197.92 107.118 198.276C107.652 198.565 108.262 198.689 108.868 198.634L184.42 192.102C185.49 192.009 186.37 191.228 186.587 190.178L198.714 131.21C198.714 131.21 199.286 129.098 197.484 127.327C199.068 127.599 200.284 129.251 199.942 131.062L188.389 190.707C188.076 192.29 186.703 193.528 185.119 193.658L185.113 193.664Z" fill="#548DFF"/>
<path opacity="0.35" d="M156.816 168.732C160.049 168.732 162.67 166.12 162.67 162.897C162.67 159.674 160.049 157.062 156.816 157.062C153.584 157.062 150.963 159.674 150.963 162.897C150.963 166.12 153.584 168.732 156.816 168.732Z" fill="#548DFF"/>
<path d="M89.8083 150.729C89.4804 152.054 89.1902 153.399 88.9116 154.709C87.7653 160.183 86.7874 165.619 85.8994 170.676L85.7282 171.657C85.6934 171.908 85.6411 172.105 85.5947 172.276C85.5715 172.36 85.5483 172.444 85.528 172.536C85.5251 172.556 85.5192 172.577 85.5105 172.597C85.3567 173.071 85.1333 173.693 84.7822 174.249C84.1844 175.287 83.2993 176.184 82.2227 176.847C81.2157 177.472 80.0143 177.848 78.7288 177.937C78.5343 177.946 78.3399 177.943 78.1455 177.937C77.8988 177.932 77.6783 177.778 77.5883 177.55C77.4954 177.321 77.5506 177.061 77.7247 176.884C78.8245 175.782 79.6225 174.443 80.0288 173.008C80.2523 172.189 80.348 171.489 80.4409 170.815C80.4844 170.511 80.525 170.21 80.5744 169.912L81.9006 160.872L82.7421 154.84L83.5343 148.796C83.5459 148.712 83.5227 148.631 83.4734 148.568C83.4444 148.53 83.3776 148.463 83.2674 148.449C83.1019 148.429 82.9539 148.539 82.922 148.698L81.7758 154.681L80.6817 160.672L79.1002 169.681C79.048 169.959 78.9986 170.248 78.9522 170.534C78.8216 171.289 78.7026 172.004 78.5372 172.562C78.0178 174.318 76.8106 175.866 75.2232 176.812C73.6562 177.755 71.7293 178.094 69.9388 177.741C69.3265 177.625 68.7142 177.417 68.1164 177.125C67.9481 177.041 67.8262 176.887 67.7856 176.702C67.745 176.52 67.7885 176.326 67.9075 176.179C68.7723 175.111 69.3875 173.861 69.6922 172.542C69.7531 172.328 69.7879 172.096 69.8228 171.851L69.8576 171.605C69.8721 171.515 69.8837 171.422 69.8924 171.35L70.8645 160.383L71.3579 154.33L71.799 148.267C71.8077 148.157 71.7554 148.079 71.7235 148.041C71.6916 148.003 71.6219 147.943 71.5117 147.934C71.3463 147.928 71.2041 148.041 71.1809 148.203L70.3799 154.223L69.6312 160.25L68.5691 169.308C68.5343 169.582 68.5024 169.866 68.4705 170.147C68.3863 170.907 68.3051 171.628 68.1629 172.201C67.7305 173.974 66.6045 175.577 65.0752 176.598C63.5749 177.613 61.6742 178.047 59.8605 177.799C58.2673 177.579 56.7554 176.818 55.6033 175.658C55.4089 175.461 55.3683 175.16 55.5047 174.92L55.5627 174.819C55.5946 174.764 55.6266 174.712 55.6585 174.648C56.0038 174.012 56.2679 173.28 56.4826 172.351C56.619 171.729 56.6858 170.96 56.6887 169.993L56.7583 165.512C56.8163 162.058 56.8512 159.214 56.8657 156.552C56.8918 153.654 56.8976 150.639 56.8802 147.596C56.8802 147.425 56.7409 147.289 56.5697 147.289C56.4072 147.289 56.2708 147.419 56.2621 147.578C56.0677 150.642 55.8993 153.651 55.7601 156.523C55.6179 159.199 55.4873 162.04 55.348 165.471L55.1565 169.959C55.1216 170.771 55.0984 171.359 54.9446 172.047C54.8082 172.588 54.6022 173.288 54.2423 173.922C53.601 175.117 52.6173 176.144 51.4797 176.812C50.8703 177.177 50.2435 177.443 49.6399 177.596C49.045 177.77 48.3805 177.856 47.6811 177.856C47.6724 177.856 47.6637 177.856 47.655 177.856C44.9765 177.932 42.3097 176.346 41.0415 173.936C40.7426 173.407 40.5105 172.785 40.3334 172.036C40.1912 171.417 40.1651 170.855 40.1332 170.149L39.9359 165.469C39.8024 162.168 39.6689 159.24 39.5238 156.518C39.3845 153.648 39.2162 150.639 39.0218 147.575C39.0102 147.405 38.8622 147.272 38.691 147.286C38.5285 147.298 38.4008 147.431 38.4008 147.593C38.3834 150.743 38.3892 153.671 38.4182 156.552C38.4327 159.275 38.4675 162.205 38.5255 165.509L38.5952 169.993C38.601 170.526 38.6126 171.512 38.7983 172.345C38.9928 173.233 39.2597 173.986 39.6283 174.663C39.6544 174.718 39.6863 174.77 39.7153 174.825L39.7734 174.926C39.9069 175.166 39.8662 175.464 39.6718 175.658C38.5168 176.827 37.002 177.582 35.4147 177.79C33.5981 178.039 31.6944 177.605 30.2028 176.601C28.6677 175.588 27.5447 173.983 27.121 172.201C26.9788 171.619 26.8976 170.89 26.8134 170.121C26.7844 169.849 26.7525 169.574 26.7176 169.299L25.6584 160.25L24.9097 154.223L24.1088 148.197C24.0943 148.087 24.0276 148.021 23.9898 147.992C23.9521 147.963 23.8679 147.917 23.7606 147.931C23.5981 147.951 23.482 148.096 23.4907 148.261L23.9318 154.319L24.4251 160.374L25.3944 171.339C25.4031 171.417 25.4176 171.506 25.4292 171.599L25.4814 171.958C25.5104 172.163 25.5395 172.357 25.6004 172.568C25.8935 173.864 26.5029 175.111 27.3677 176.181C27.4866 176.329 27.5302 176.52 27.4895 176.705C27.4489 176.89 27.3241 177.044 27.1558 177.127C26.5551 177.417 25.9457 177.622 25.3421 177.735C23.5313 178.079 21.6045 177.744 20.0606 176.815C18.4617 175.869 17.2545 174.318 16.7495 172.562C16.587 171.998 16.4652 171.284 16.3346 170.526C16.2852 170.242 16.2388 169.956 16.1866 169.675L14.605 160.675L13.511 154.683L12.3647 148.695C12.3328 148.527 12.1732 148.417 12.002 148.449C11.8424 148.478 11.7321 148.631 11.7524 148.793L12.5418 154.834L13.3862 160.866L14.7095 169.901C14.7617 170.204 14.8024 170.502 14.843 170.803C14.9387 171.483 15.0345 172.186 15.2521 173.005C15.6584 174.477 16.4797 175.846 17.6259 176.965C17.8029 177.139 17.861 177.402 17.7681 177.634C17.6753 177.865 17.4547 178.018 17.2022 178.024C17.1529 178.024 17.1007 178.024 17.0513 178.024C16.9672 178.024 16.8801 178.024 16.796 178.018C15.6439 177.969 14.5209 177.634 13.5487 177.041C12.5969 176.462 11.7379 175.666 10.9921 174.671C10.3131 173.76 9.78203 172.753 9.31482 171.509C7.72457 167.375 6.30553 162.691 4.97355 157.189C4.42798 154.889 3.92595 152.551 3.46455 150.182C3.46455 150.182 3.45874 150.185 3.45584 150.188C4.57598 156.026 6.49705 167.795 8.10472 171.978C8.61546 173.343 9.20745 174.454 9.96485 175.476C10.8151 176.607 11.7989 177.518 12.8958 178.183C14.0624 178.892 15.4059 179.3 16.7815 179.358C16.8859 179.364 16.9933 179.364 17.1036 179.364H17.2777C18.0728 179.346 18.7751 178.863 19.0682 178.126C19.1088 178.021 19.1407 177.911 19.1639 177.804C19.2481 177.859 19.3322 177.911 19.4164 177.961C21.2388 179.057 23.5081 179.453 25.6381 179.051C26.3607 178.918 27.0862 178.675 27.7972 178.331C28.276 178.099 28.63 177.692 28.7983 177.194C29.0247 177.379 29.2597 177.556 29.5035 177.715C31.2707 178.904 33.5081 179.419 35.641 179.121C37.5273 178.875 39.3149 177.981 40.6788 176.604C40.8094 176.471 40.9196 176.323 41.0038 176.164C42.6869 178.102 45.2029 179.271 47.7304 179.196C48.5633 179.196 49.3381 179.092 50.0172 178.892C50.76 178.707 51.4971 178.392 52.211 177.964C53.0148 177.492 53.7461 176.876 54.37 176.155C54.4571 176.317 54.5674 176.465 54.698 176.598C56.056 177.966 57.8407 178.863 59.727 179.124C61.8686 179.416 64.1089 178.901 65.8703 177.709C66.1112 177.547 66.3463 177.373 66.5726 177.188C66.738 177.683 67.0921 178.088 67.5709 178.322C68.2731 178.664 68.9986 178.91 69.7212 179.048C71.8367 179.468 74.1118 179.069 75.9574 177.955C76.0706 177.885 76.1838 177.816 76.2969 177.741C76.3202 177.842 76.3492 177.94 76.3898 178.039C76.68 178.765 77.3736 179.248 78.16 179.271C78.3834 179.277 78.6069 179.28 78.8709 179.268C80.3654 179.164 81.7845 178.719 82.9772 177.981C84.2453 177.2 85.2813 176.15 85.969 174.955C86.3985 174.272 86.6597 173.549 86.8425 172.99C86.8628 172.927 86.8802 172.863 86.889 172.811C86.9006 172.759 86.9122 172.71 86.9383 172.614C86.9905 172.423 87.0602 172.166 87.095 171.882L87.2662 170.905C88.1513 165.853 89.2946 154.993 90.8443 147.266C90.8443 147.266 90.8443 147.266 90.8414 147.266L90.3364 148.73C90.1362 149.415 89.9563 150.084 89.8054 150.726L89.8083 150.729Z" fill="#3B2D55"/>
<path d="M112.516 67.6785C109.965 63.0931 106.686 58.8317 102.771 55.0158C100.511 52.8519 98.5664 51.1999 96.6482 49.8084C96.1839 49.4468 95.6441 49.0562 95.0115 48.6338C94.8171 48.5037 94.6227 48.3677 94.4282 48.2346C94.0742 47.9887 93.7173 47.7428 93.3545 47.5085C93.0469 47.3175 92.7509 47.1353 92.4549 46.9501C91.6308 46.4351 90.7776 45.8999 89.8925 45.4284C87.3563 43.9587 84.7068 42.761 82.6813 41.8815C82.2982 41.7311 81.9384 41.5836 81.5785 41.4389C80.7109 41.086 79.8142 40.7243 78.9001 40.4177L77.0196 39.7581L75.0869 39.1592C74.3847 38.9307 73.6737 38.7397 73.1339 38.6009L71.2013 38.0946C70.7805 38.0049 70.3916 37.9181 69.9999 37.8284C69.0974 37.6259 68.163 37.4176 67.2227 37.2701C64.7909 36.8101 62.1705 36.5034 59.2309 36.3414C58.2152 36.2893 57.2082 36.2633 56.207 36.2633C51.7207 36.2633 47.3649 36.7812 43.2151 37.8082C40.6905 38.407 38.1136 39.2605 35.5657 40.3425C32.9946 41.4273 30.5918 42.6887 28.4241 44.086C26.0648 45.5991 23.9 47.2307 21.9905 48.9347C20.023 50.7052 18.1455 52.658 16.4072 54.7439C14.7821 56.7343 13.2209 58.9503 11.7583 61.3313C10.4641 63.4837 9.25688 65.827 8.06128 68.5002C4.48031 76.9159 2.13846 86.4137 0.893541 97.5431C-0.145347 106.899 -0.281737 116.712 0.478566 127.535C1.05315 135.326 2.05431 142.911 3.46174 150.182C3.92024 152.554 4.42518 154.888 4.97074 157.188C6.30272 162.691 7.72176 167.378 9.31201 171.509C9.77922 172.753 10.3103 173.76 10.9893 174.671C11.7351 175.666 12.5941 176.462 13.5459 177.04C14.5181 177.633 15.6411 177.969 16.7932 178.018C16.8773 178.021 16.9644 178.024 17.0485 178.024C17.0979 178.024 17.1501 178.024 17.1994 178.024C17.449 178.018 17.6724 177.865 17.7653 177.633C17.8582 177.402 17.8001 177.139 17.6231 176.965C16.4769 175.845 15.6556 174.477 15.2493 173.005C15.0317 172.186 14.933 171.483 14.8402 170.803C14.7995 170.505 14.7589 170.207 14.7067 169.9L13.3834 160.865L12.5389 154.834L11.7496 148.793C11.7293 148.631 11.8396 148.478 11.9992 148.449C12.1733 148.417 12.33 148.527 12.3619 148.695L13.5082 154.683L14.6022 160.674L16.1838 169.675C16.236 169.955 16.2824 170.239 16.3318 170.525C16.4623 171.283 16.5842 171.998 16.7467 172.562C17.2517 174.318 18.4589 175.869 20.0578 176.815C21.6016 177.743 23.5285 178.079 25.3393 177.735C25.9429 177.622 26.5552 177.419 27.153 177.127C27.3242 177.043 27.4461 176.89 27.4867 176.705C27.5274 176.522 27.4838 176.329 27.3649 176.181C26.503 175.111 25.8907 173.864 25.5976 172.568C25.5366 172.356 25.5076 172.163 25.4786 171.957L25.4264 171.599C25.4119 171.509 25.4003 171.419 25.3916 171.338L24.4223 160.374L23.929 154.319L23.4879 148.261C23.4763 148.099 23.5953 147.954 23.7578 147.931C23.868 147.916 23.9493 147.963 23.987 147.992C24.0247 148.02 24.0915 148.087 24.106 148.197L24.9069 154.223L25.6556 160.249L26.7148 169.299C26.7497 169.573 26.7787 169.848 26.8106 170.12C26.8976 170.89 26.9789 171.619 27.1182 172.2C27.5419 173.982 28.6649 175.588 30.2 176.601C31.6916 177.604 33.5953 178.038 35.4119 177.79C36.9992 177.581 38.514 176.826 39.669 175.657C39.8634 175.464 39.9041 175.166 39.7706 174.925L39.7125 174.824C39.6806 174.769 39.6516 174.717 39.6255 174.662C39.2598 173.985 38.99 173.233 38.7955 172.345C38.6098 171.512 38.5982 170.522 38.5924 169.993L38.5227 165.509C38.4647 162.205 38.4299 159.274 38.4154 156.552C38.3864 153.673 38.3806 150.743 38.398 147.592C38.398 147.43 38.5285 147.294 38.6882 147.286C38.8594 147.271 39.0074 147.404 39.019 147.575C39.2134 150.639 39.3817 153.647 39.521 156.517C39.6632 159.24 39.7996 162.164 39.9331 165.468L40.1304 170.149C40.1623 170.858 40.1884 171.416 40.3306 172.035C40.5077 172.785 40.7369 173.404 41.0387 173.936C42.3039 176.346 44.9708 177.931 47.6522 177.856C47.6609 177.856 47.6696 177.856 47.6783 177.856C48.3777 177.856 49.0422 177.769 49.6371 177.596C50.2407 177.442 50.8704 177.179 51.4769 176.812C52.6145 176.143 53.5953 175.116 54.2395 173.922C54.5994 173.288 54.8054 172.585 54.9418 172.047C55.0956 171.358 55.1188 170.771 55.1536 169.958L55.3452 165.471C55.4845 162.043 55.6151 159.199 55.7572 156.523C55.8965 153.65 56.0649 150.642 56.2593 147.578C56.2709 147.416 56.4044 147.289 56.5669 147.289C56.7381 147.289 56.8774 147.427 56.8774 147.595C56.8948 150.639 56.889 153.653 56.8629 156.552C56.8513 159.211 56.8165 162.057 56.7555 165.512L56.6859 169.993C56.683 170.959 56.6162 171.729 56.4798 172.351C56.2651 173.279 56.001 174.011 55.6557 174.648C55.6209 174.711 55.5918 174.766 55.5599 174.818L55.5019 174.92C55.3655 175.16 55.4061 175.461 55.6005 175.657C56.7526 176.818 58.2645 177.578 59.8577 177.798C61.6714 178.047 63.5721 177.61 65.0724 176.598C66.6017 175.576 67.7277 173.974 68.1601 172.2C68.3023 171.627 68.3835 170.907 68.4677 170.146C68.4996 169.866 68.5315 169.585 68.5663 169.307L69.6284 160.249L70.3771 154.223L71.1781 148.203C71.1984 148.041 71.3435 147.928 71.5089 147.934C71.622 147.942 71.6888 148.003 71.7207 148.041C71.7526 148.078 71.802 148.154 71.7962 148.266L71.3551 154.33L70.8617 160.382L69.8896 171.35C69.8838 171.422 69.8693 171.515 69.8548 171.604L69.82 171.85C69.7851 172.096 69.7503 172.328 69.6894 172.542C69.3818 173.864 68.7695 175.111 67.9047 176.178C67.7857 176.326 67.7422 176.517 67.7828 176.702C67.8234 176.884 67.9453 177.04 68.1136 177.124C68.7114 177.416 69.3237 177.622 69.936 177.74C71.7265 178.093 73.6563 177.755 75.2204 176.812C76.8049 175.866 78.015 174.318 78.5344 172.562C78.6998 172.004 78.8217 171.289 78.9494 170.534C78.9987 170.247 79.0481 169.958 79.0974 169.68L80.6789 160.672L81.773 154.68L82.9192 148.697C82.9511 148.538 83.0991 148.428 83.2645 148.449C83.3748 148.463 83.4416 148.53 83.4706 148.567C83.5199 148.634 83.5431 148.715 83.5315 148.796L82.7393 154.839L81.8977 160.871L80.5716 169.912C80.5222 170.21 80.4787 170.511 80.4381 170.815C80.3452 171.489 80.2466 172.189 80.026 173.007C79.6197 174.442 78.8217 175.782 77.7219 176.884C77.5478 177.058 77.4926 177.321 77.5855 177.549C77.6783 177.778 77.896 177.931 78.1427 177.937C78.3371 177.943 78.5315 177.943 78.7259 177.937C80.0115 177.847 81.2129 177.471 82.2199 176.846C83.2936 176.184 84.1816 175.287 84.7794 174.249C85.1305 173.69 85.3539 173.071 85.5077 172.597C85.5135 172.576 85.5193 172.556 85.5251 172.536C85.5455 172.446 85.5687 172.362 85.5919 172.275C85.6383 172.105 85.6906 171.908 85.7254 171.656L85.8966 170.676C86.7846 165.619 87.7625 160.183 88.9088 154.709C89.1874 153.401 89.4776 152.056 89.8055 150.728C89.9593 150.089 90.1363 149.418 90.3365 148.732L90.8415 147.268L91.0185 146.756C91.0591 146.646 91.0997 146.525 91.1433 146.4C91.2129 146.192 91.2767 145.998 91.3609 145.822L92.246 143.886C92.3882 143.571 92.5217 143.276 92.6871 143.007L93.755 141.152C93.9726 140.788 94.2222 140.432 94.4834 140.056C94.6256 139.851 94.7678 139.645 94.9071 139.437C96.3116 137.449 97.9773 135.442 100.145 133.133C100.754 132.473 101.361 131.825 101.967 131.18C103.192 129.875 104.457 128.53 105.63 127.165C109.257 123.109 112.197 118.616 114.362 113.828C114.811 112.934 115.171 111.973 115.519 111.042C115.633 110.741 115.746 110.437 115.862 110.136C116.248 109.196 116.55 108.213 116.84 107.261C116.933 106.957 117.025 106.653 117.121 106.349C117.832 103.778 118.357 101.145 118.691 98.5065C119.971 88.0425 117.777 77.0953 112.51 67.6785H112.516Z" fill="#57D1E5"/>
<path d="M112.786 116.076C113.209 115.041 113.54 113.961 113.859 112.914C113.961 112.579 114.062 112.246 114.17 111.913C114.953 109.084 115.531 106.188 115.896 103.286C117.304 91.7749 114.889 79.7313 109.097 69.3772C106.291 64.3346 102.684 59.648 98.3804 55.4473C95.8935 53.0692 93.7548 51.2495 91.6451 49.7191C91.1372 49.3199 90.5394 48.8946 89.8459 48.4288C89.6311 48.2842 89.4193 48.1366 89.2045 47.9891C88.8128 47.7201 88.421 47.4481 88.0235 47.1906C87.6839 46.9823 87.3589 46.7798 87.0339 46.5744C86.1256 46.0074 85.1883 45.4201 84.2161 44.8994C81.4274 43.2822 78.511 41.9658 76.2823 40.9996C75.8615 40.8347 75.4639 40.6727 75.0664 40.5107C74.1117 40.123 73.1279 39.7238 72.1209 39.3882L70.0548 38.662L67.9277 38.0024C67.1558 37.7507 66.3722 37.5424 65.7773 37.3891L63.6531 36.8307C63.3078 36.7584 62.9799 36.6832 62.6578 36.6138C64.2625 36.7816 65.7773 36.9985 67.2225 37.2705C68.1627 37.4151 69.0971 37.6263 69.9996 37.8288C70.3885 37.9156 70.7803 38.0053 71.201 38.095L73.1337 38.6013C73.6735 38.7401 74.3873 38.9282 75.0867 39.1596L77.0194 39.7585L78.8998 40.421C79.8139 40.7247 80.7106 41.0893 81.5783 41.4422C81.9381 41.5869 82.3009 41.7344 82.6839 41.8848C84.7095 42.7643 87.3589 43.962 89.8952 45.4317C90.7774 45.9061 91.6306 46.4384 92.4547 46.9534C92.7507 47.1386 93.0438 47.3237 93.3543 47.5118C93.717 47.7461 94.074 47.992 94.428 48.2379C94.6224 48.371 94.8169 48.507 95.0113 48.6371C95.6439 49.0624 96.1837 49.4501 96.648 49.8117C98.5661 51.2032 100.51 52.8552 102.771 55.0191C106.686 58.8379 109.965 63.0993 112.516 67.6847C117.783 77.0986 119.977 88.0487 118.697 98.5127C118.363 101.151 117.838 103.784 117.127 106.356C117.031 106.659 116.938 106.963 116.845 107.267C116.555 108.219 116.253 109.202 115.867 110.143C115.751 110.444 115.638 110.744 115.525 111.048C115.177 111.98 114.817 112.943 114.367 113.834C113.566 115.608 112.655 117.34 111.648 119.024C111.921 118.379 112.17 117.722 112.411 117.08C112.536 116.747 112.661 116.415 112.788 116.085" fill="#93E1EF"/>
<path d="M75.2057 70.0164C63.5487 72.3366 54.7327 82.708 54.7327 95.1104C54.7327 109.217 66.1343 120.69 80.1477 120.69C94.1611 120.69 105.566 109.214 105.566 95.1104C105.566 89.1074 103.499 83.5788 100.046 79.2104L93.2615 79.8034L81.8743 74.9692L75.2028 70.0193L75.2057 70.0164Z" fill="#4D9BB6"/>
<mask id="mask0_54_44" style="mask-type:luminance" maskUnits="userSpaceOnUse" x="57" y="68" width="51" height="52">
<path d="M87.0892 69.3165C100.833 71.8739 109.895 85.0574 107.33 98.7587C104.765 112.463 91.5408 121.495 77.7944 118.938C64.0509 116.38 54.9882 103.197 57.5535 89.4953C59.8257 77.3591 70.4612 68.8826 82.4142 68.8826C83.9551 68.8826 85.5193 69.0243 87.0892 69.3165Z" fill="white"/>
</mask>
<g mask="url(#mask0_54_44)">
<path d="M91.832 43.1664L30.1935 86.1937L73.0536 147.217L134.692 104.189L91.832 43.1664Z" fill="url(#paint0_linear_54_44)"/>
</g>
<path d="M77.8494 110.944C75.2087 107.507 80.7455 99.9246 84.3497 99.6902C86.7177 99.5369 89.666 101.371 90.4379 100.494C91.2099 99.6179 88.9986 96.9448 88.8419 94.5841C88.6039 90.9909 95.4205 84.5279 99.1843 86.689C103.674 89.2667 105.421 98.9149 98.1222 107.212C90.8239 115.509 81.0009 115.043 77.8494 110.944Z" fill="#3B2D55"/>
<path d="M67.5621 127.605C59.0507 125.244 51.4361 119.881 46.5144 112.576C44.8952 110.166 43.4732 107.62 42.356 104.93C41.9642 103.981 40.8731 103.529 39.9242 103.92C39.0043 104.299 38.5545 105.335 38.8853 106.257C41.0095 112.33 44.9677 117.714 49.8981 121.825C54.7849 125.936 60.7309 128.803 66.9933 130.012C68.54 130.278 69.074 128.059 67.5621 127.605Z" fill="#4D9BB6"/>
<path d="M68.8013 127.605C60.29 125.244 52.6753 119.881 47.7537 112.576C46.1344 110.166 44.7124 107.62 43.5952 104.93C43.2034 103.981 42.1123 103.529 41.1634 103.92C40.2435 104.299 39.7937 105.335 40.1245 106.257C42.2487 112.33 46.2069 117.714 51.1373 121.825C56.0241 125.936 61.9702 128.803 68.2325 130.012C69.7792 130.278 70.3132 128.059 68.8013 127.605Z" fill="#3B2D55"/>
</g>
<defs>
<linearGradient id="paint0_linear_54_44" x1="62.1322" y1="108.878" x2="103.569" y2="79.7744" gradientUnits="userSpaceOnUse">
<stop stop-color="#CECAD5"/>
<stop offset="0.07" stop-color="#CECAD5"/>
<stop offset="0.66" stop-color="white"/>
<stop offset="1" stop-color="white"/>
</linearGradient>
<clipPath id="clip0_54_44">
<rect width="200" height="200" fill="white"/>
</clipPath>
</defs>
</svg>
