<svg width="200" height="200" viewBox="0 0 200 200" fill="none" xmlns="http://www.w3.org/2000/svg">
<path d="M147.099 191.984C146.24 195.81 142.855 198.444 139.075 198.444C138.633 198.444 138.185 198.408 137.735 198.334L137.689 198.325L136.883 198.132L137.456 197.541C138.684 196.311 139.578 194.817 140.039 193.224C140.296 192.302 140.419 191.513 140.538 190.749C140.592 190.407 140.645 190.069 140.709 189.717L142.378 179.548C143.117 174.938 143.819 170.367 144.463 165.959C144.503 165.679 144.318 165.411 144.041 165.352C143.753 165.291 143.466 165.479 143.404 165.769C142.49 170.109 141.568 174.642 140.667 179.243L138.721 189.37C138.657 189.686 138.596 190.01 138.536 190.336C138.385 191.143 138.229 191.98 138.042 192.604C137.52 194.339 136.384 195.875 134.844 196.927C134.677 197.041 134.51 197.151 134.336 197.252C133.473 197.756 132.522 198.095 131.51 198.255C130.508 198.415 129.497 198.391 128.507 198.185C127.422 197.966 126.352 197.488 125.41 196.804L125.043 196.535L125.304 196.162C126.051 195.089 126.578 193.917 126.866 192.679C127.081 191.728 127.156 190.909 127.228 190.117C127.257 189.793 127.288 189.471 127.325 189.143L128.331 178.924C128.772 174.261 129.175 169.669 129.526 165.28C129.548 164.997 129.346 164.743 129.067 164.702C128.926 164.682 128.783 164.719 128.669 164.805C128.553 164.89 128.478 165.017 128.458 165.161C127.83 169.519 127.204 174.086 126.6 178.733L125.317 188.926C125.275 189.235 125.238 189.546 125.201 189.857C125.098 190.716 124.999 191.528 124.838 192.175C124.656 192.922 124.357 193.65 123.951 194.337C123.369 195.319 122.571 196.185 121.638 196.84L121.565 196.896C121.515 196.934 121.464 196.969 121.41 197.006C119.758 198.1 117.662 198.562 115.667 198.268C113.699 197.99 111.834 196.93 110.552 195.358C110.242 194.984 109.956 194.57 109.708 194.129L109.605 193.945L109.675 193.746C109.831 193.306 109.965 192.834 110.073 192.341C110.279 191.423 110.293 190.358 110.301 189.653L110.382 184.601C110.495 178.56 110.549 171.956 110.543 164.403C110.543 164.117 110.319 163.882 110.036 163.864C109.743 163.849 109.486 164.073 109.467 164.371C109.027 171.91 108.7 178.511 108.467 184.544L108.252 189.705C108.214 190.575 108.186 191.202 108.026 191.916C107.832 192.747 107.578 193.432 107.252 194.013C107.237 194.04 107.213 194.081 107.187 194.118C105.734 196.739 102.848 198.413 99.9861 198.351H99.8631C97.0049 198.351 94.2495 196.71 92.8324 194.145C92.7846 194.074 92.7608 194.033 92.7388 193.991C92.3459 193.297 92.122 192.519 91.9696 191.921C91.8025 191.165 91.775 190.505 91.7383 189.59L91.5272 184.544C91.2775 178.174 90.949 171.575 90.5194 164.371C90.501 164.088 90.2661 163.864 89.9815 163.864C89.6842 163.864 89.4437 164.105 89.4437 164.403C89.429 171.595 89.4804 178.203 89.5979 184.601L89.6787 189.653C89.6842 190.757 89.7613 191.636 89.9136 192.346C90.0311 192.858 90.1651 193.318 90.3156 193.75L90.3872 193.948L90.2844 194.132C90.0366 194.572 89.7521 194.986 89.4382 195.361C88.1679 196.919 86.3028 197.983 84.3313 198.275C82.3396 198.571 80.2469 198.106 78.5856 197C78.5342 196.967 78.4828 196.929 78.4332 196.89L78.358 196.835C77.4291 196.173 76.6306 195.308 76.0505 194.329C75.643 193.645 75.3419 192.918 75.1528 192.173C74.9895 191.533 74.8922 190.729 74.7894 189.879C74.7508 189.563 74.7141 189.245 74.6719 188.934L73.3869 178.735C72.783 174.081 72.1588 169.515 71.531 165.164C71.4888 164.885 71.2465 164.679 70.9546 164.704C70.8114 164.715 70.6811 164.782 70.5875 164.892C70.4939 165.002 70.4498 165.14 70.4608 165.284C70.8133 169.664 71.2153 174.256 71.6558 178.932L72.6618 189.158C72.7004 189.482 72.7297 189.808 72.7591 190.137C72.8307 190.924 72.9041 191.739 73.1244 192.688C73.4199 193.919 73.9468 195.087 74.6939 196.158L74.9546 196.531L74.5856 196.8C73.6457 197.484 72.5737 197.966 71.4851 198.192C70.4975 198.406 69.4824 198.43 68.4672 198.264C67.465 198.1 66.5196 197.762 65.655 197.256C65.4806 197.155 65.3117 197.041 65.1447 196.927C63.6174 195.878 62.4811 194.346 61.945 192.609C61.7541 191.993 61.6018 191.165 61.4512 190.365C61.3888 190.034 61.3264 189.699 61.2622 189.381L59.3145 179.248C58.415 174.653 57.4935 170.12 56.5793 165.777C56.5206 165.501 56.2617 165.315 55.9754 165.354C55.6817 165.398 55.4779 165.672 55.5201 165.966C56.1644 170.381 56.8675 174.955 57.6055 179.557L59.2759 189.734C59.3384 190.078 59.3934 190.42 59.4467 190.764C59.5641 191.524 59.6871 192.311 59.9496 193.235C60.4233 194.826 61.3191 196.318 62.5416 197.545L63.1841 198.191L62.2846 198.332C57.9524 199.05 53.8423 196.268 52.8877 192.011C52.8161 191.677 49.8387 177.65 46.4004 160.271L46.3931 160.28C49.3852 180.676 51.3604 192.171 51.3953 192.344V192.352L51.4027 192.381C51.4614 192.644 51.5367 192.918 51.6321 193.218C51.656 193.292 51.6817 193.364 51.7074 193.435L51.7294 193.498C51.7918 193.673 51.8561 193.845 51.9277 194.013C51.9736 194.123 52.0231 194.235 52.0745 194.348C52.1388 194.486 52.2067 194.618 52.2746 194.751L52.3003 194.798C52.3572 194.907 52.4123 195.015 52.4729 195.12C52.5077 195.181 52.5426 195.236 52.5775 195.291L52.6069 195.339C52.8143 195.678 53.0419 196.003 53.2806 196.303L53.3136 196.346C53.4384 196.5 53.5743 196.656 53.7413 196.839L53.8111 196.914C53.9671 197.079 54.1177 197.23 54.2719 197.374L54.2755 197.378C54.2755 197.378 54.2884 197.389 54.2957 197.396L54.2994 197.4C56.1204 199.075 58.4609 199.992 60.906 199.992C61.4402 199.992 61.9799 199.947 62.5104 199.859L63.3971 199.719L66.2681 199.269C66.8904 199.508 67.5384 199.684 68.2066 199.793C68.7261 199.878 69.2529 199.92 69.7724 199.92C70.448 199.92 71.1235 199.848 71.7825 199.705C73.0657 199.438 74.3378 198.868 75.4502 198.058L75.8192 197.79L76.4837 197.306C76.7921 197.593 77.1189 197.86 77.4621 198.104L77.5227 198.148C77.5943 198.202 77.6696 198.257 77.743 198.307C79.2923 199.339 81.2069 199.912 83.1216 199.912C83.5933 199.912 84.0669 199.878 84.5295 199.809C86.8682 199.464 89.0747 198.205 90.5818 196.358C90.9251 195.95 91.2482 195.486 91.5309 194.99C93.216 197.975 96.467 199.9 99.8392 199.9H99.9475C100.004 199.9 100.059 199.9 100.116 199.9C103.47 199.9 106.718 197.977 108.421 194.993C108.7 195.481 109.021 195.941 109.374 196.364C110.881 198.213 113.095 199.471 115.433 199.8C115.887 199.867 116.362 199.901 116.834 199.901C118.749 199.901 120.661 199.333 122.218 198.301C122.301 198.246 122.37 198.194 122.442 198.141L122.497 198.1C122.837 197.86 123.163 197.595 123.47 197.311L124.135 197.795L124.502 198.064C125.62 198.875 126.892 199.442 128.186 199.703C128.836 199.839 129.508 199.907 130.176 199.907C130.692 199.907 131.213 199.865 131.725 199.784C132.568 199.651 133.377 199.412 134.143 199.072L136.513 199.638L137.319 199.832L137.342 199.837L137.366 199.843L137.412 199.852L137.44 199.857L137.467 199.861C137.99 199.947 138.525 199.992 139.053 199.992C143.56 199.992 147.552 196.778 148.546 192.352C148.588 192.157 150.565 180.205 153.759 159.3C150.244 177.111 147.161 191.645 147.088 191.982L147.099 191.984Z" fill="#3B2D55"/>
<path d="M99.9916 38.9915C62.2847 38.9915 35.9517 62.4943 35.9517 96.1443C35.9517 105.495 41.6203 136.115 46.4005 160.266C49.8387 177.644 52.8162 191.671 52.8878 192.006C53.8424 196.263 57.9525 199.044 62.2847 198.327L63.1842 198.185L62.5417 197.54C61.3191 196.313 60.4233 194.821 59.9497 193.229C59.6872 192.306 59.5642 191.519 59.4467 190.759C59.3935 190.415 59.3403 190.073 59.276 189.729L57.6055 179.552C56.8676 174.949 56.1645 170.376 55.5202 165.961C55.478 165.667 55.6817 165.393 55.9754 165.348C56.2618 165.31 56.5206 165.496 56.5794 165.771C57.4936 170.117 58.4151 174.649 59.3146 179.243L61.2622 189.375C61.3265 189.696 61.3889 190.028 61.4513 190.36C61.6 191.16 61.7542 191.988 61.9451 192.604C62.4811 194.341 63.6193 195.873 65.1447 196.921C65.3118 197.036 65.4806 197.15 65.655 197.251C66.5196 197.757 67.465 198.097 68.4673 198.259C69.4824 198.424 70.4976 198.399 71.4852 198.187C72.5738 197.961 73.6458 197.479 74.5857 196.795L74.9546 196.526L74.694 196.153C73.9468 195.082 73.4182 193.914 73.1245 192.683C72.9042 191.736 72.8307 190.921 72.7592 190.131C72.7298 189.802 72.7004 189.475 72.6619 189.153L71.6559 178.926C71.2153 174.252 70.8115 169.66 70.4609 165.278C70.4499 165.135 70.4939 164.995 70.5875 164.887C70.6812 164.776 70.8115 164.71 70.9547 164.699C71.2447 164.671 71.4889 164.879 71.5311 165.159C72.1589 169.51 72.783 174.075 73.387 178.73L74.672 188.928C74.7142 189.239 74.7527 189.558 74.7894 189.874C74.8922 190.726 74.9895 191.53 75.1529 192.168C75.3401 192.915 75.643 193.64 76.0506 194.324C76.6325 195.303 77.431 196.167 78.358 196.829L78.4333 196.885C78.4847 196.923 78.5361 196.962 78.5856 196.995C80.2469 198.103 82.3396 198.566 84.3314 198.27C86.3029 197.977 88.1661 196.914 89.4382 195.356C89.754 194.981 90.0385 194.567 90.2845 194.127L90.3873 193.943L90.3157 193.744C90.1633 193.312 90.0312 192.852 89.9137 192.341C89.7595 191.631 89.6824 190.751 89.6787 189.648L89.5979 184.596C89.4805 178.198 89.4291 171.592 89.4438 164.397C89.4438 164.099 89.6842 163.858 89.9816 163.858C90.2643 163.858 90.5011 164.083 90.5195 164.366C90.9472 171.57 91.2776 178.169 91.5273 184.539L91.7384 189.585C91.7751 190.499 91.8026 191.16 91.9697 191.916C92.1202 192.514 92.346 193.294 92.7388 193.985C92.7608 194.028 92.7847 194.068 92.8324 194.14C94.2496 196.704 97.005 198.345 99.8631 198.345H99.9861C102.848 198.406 105.734 196.734 107.188 194.112C107.213 194.074 107.237 194.035 107.252 194.008C107.579 193.426 107.832 192.742 108.026 191.91C108.188 191.198 108.216 190.569 108.252 189.699L108.467 184.539C108.702 178.503 109.029 171.905 109.467 164.366C109.486 164.07 109.743 163.845 110.037 163.858C110.321 163.875 110.543 164.112 110.543 164.397C110.549 171.951 110.495 178.557 110.382 184.596L110.301 189.648C110.294 190.352 110.279 191.416 110.073 192.335C109.965 192.828 109.831 193.303 109.675 193.741L109.605 193.939L109.708 194.123C109.956 194.565 110.24 194.979 110.552 195.352C111.834 196.925 113.699 197.985 115.667 198.263C117.664 198.557 119.76 198.095 121.41 197.001C121.464 196.966 121.513 196.929 121.565 196.89L121.638 196.835C122.571 196.178 123.369 195.314 123.951 194.331C124.357 193.643 124.656 192.917 124.838 192.17C124.999 191.522 125.097 190.711 125.201 189.852C125.238 189.543 125.276 189.232 125.317 188.921L126.6 178.728C127.204 174.081 127.83 169.515 128.458 165.155C128.478 165.012 128.553 164.887 128.669 164.8C128.784 164.714 128.926 164.677 129.067 164.697C129.346 164.738 129.548 164.991 129.526 165.275C129.174 169.664 128.77 174.256 128.331 178.919L127.325 189.138C127.288 189.466 127.257 189.787 127.228 190.111C127.156 190.904 127.081 191.723 126.866 192.674C126.578 193.912 126.053 195.084 125.304 196.156L125.043 196.53L125.41 196.798C126.352 197.483 127.422 197.959 128.507 198.18C129.499 198.386 130.508 198.41 131.51 198.25C132.522 198.091 133.473 197.753 134.336 197.247C134.51 197.146 134.679 197.036 134.844 196.921C136.384 195.869 137.521 194.335 138.042 192.598C138.229 191.975 138.385 191.138 138.536 190.33C138.596 190.006 138.657 189.681 138.721 189.364L140.667 179.237C141.568 174.637 142.49 170.104 143.404 165.764C143.464 165.473 143.751 165.288 144.041 165.347C144.318 165.405 144.503 165.672 144.463 165.954C143.819 170.361 143.118 174.933 142.378 179.543L140.709 189.712C140.645 190.062 140.592 190.402 140.538 190.744C140.419 191.508 140.296 192.295 140.039 193.218C139.578 194.811 138.686 196.305 137.456 197.536L136.884 198.126L137.689 198.32L137.735 198.329C138.185 198.404 138.633 198.439 139.075 198.439C142.855 198.439 146.24 195.805 147.099 191.978C147.171 191.64 150.255 177.107 153.77 159.296C158.508 135.289 164.032 105.329 164.032 96.1406C164.032 62.4906 137.697 38.9878 99.9916 38.9878V38.9915Z" fill="#57D1E5"/>
<path d="M54.281 54.558C42.7125 64.6593 35.9498 79.0983 35.9498 96.1441C35.9498 112.222 52.7151 191.204 52.8858 192.006C53.264 193.691 54.1415 195.141 55.3273 196.237C51.1676 176.292 37.9323 111.652 37.9323 96.6684C37.9323 79.8765 43.8946 65.3822 54.2791 54.5562" fill="#93E1EF"/>
<path d="M103.536 126.172C106.053 117.999 105.399 109.389 98.5688 109.634C93.1554 109.827 90.0934 119.526 85.484 128.461" fill="#B03831"/>
<path d="M103.846 95.2319C104.805 87.8587 104.023 79.9153 100.149 73.4675C97.9557 69.8288 94.4881 66.7677 90.2238 66.0723C85.9668 65.3273 81.6897 67.0786 78.4258 69.7957C74.1211 73.3645 71.1601 78.3903 69.3098 83.6553C68.6893 85.4507 68.1918 87.2829 67.8063 89.1483C67.5292 90.3422 65.7797 90.0552 65.9137 88.819C67.0335 80.8756 70.4883 72.9874 76.6562 67.6709C80.4598 64.3744 85.6272 62.3471 90.7048 63.2246C101.067 65.0826 106.057 76.433 106.455 85.9952C106.628 89.198 106.363 92.4136 105.745 95.5538C105.467 96.7624 103.714 96.4681 103.85 95.2337L103.846 95.2319Z" fill="#3B2D55"/>
<g opacity="0.35">
<path d="M103.742 95.1841C104.669 87.9912 104.21 80.252 100.472 73.9017C98.365 70.3292 94.8864 67.487 90.7267 66.8983C83.4519 65.7191 77.2785 71.4403 73.9136 77.3712C71.6888 81.2049 70.2459 85.4323 69.3501 89.7885C69.2436 90.3109 68.7352 90.6476 68.2138 90.5409C67.7163 90.4379 67.3896 89.9651 67.4557 89.4684C67.8687 86.3908 68.6268 83.3444 69.7356 80.412C72.5185 73.0867 78.0366 65.6768 86.1669 64.1168C91.1159 63.1547 96.4247 64.9704 99.9015 68.5852C106.616 75.6346 107.439 86.3834 105.64 95.506C105.359 96.7054 103.615 96.4166 103.745 95.1859L103.742 95.1841Z" fill="#3B2D55"/>
</g>
<path d="M118.08 120.377C117.699 118.435 116.34 116.73 114.519 115.972C113.935 115.721 113.315 115.578 112.696 115.526C110.796 115.293 111.02 112.559 112.937 112.644C113.908 112.793 114.85 113.133 115.698 113.602C118.075 114.897 119.745 117.414 119.982 120.109C120.067 121.329 118.33 121.57 118.079 120.377H118.08Z" fill="#3B2D55"/>
<path d="M59.2355 107.237C61.9119 115.308 68.0027 122.32 75.9201 125.484C77.5465 126.119 79.2005 126.56 80.9389 126.75L82.0146 126.886C91.2481 127.949 100.948 126.651 108.845 121.483C110.044 120.705 111.193 119.846 112.281 118.917C113.366 117.982 114.398 116.982 115.36 115.913C115.714 115.517 116.324 115.484 116.718 115.841C117.098 116.183 117.139 116.763 116.827 117.156C113.001 121.945 107.766 125.578 102.009 127.649C95.5436 130.019 88.5001 130.481 81.7007 129.741C81.027 129.651 80.1036 129.563 79.4244 129.447C76.3203 128.939 73.3593 127.673 70.692 126.038C69.374 125.212 68.1221 124.288 66.9472 123.277C62.2497 119.233 58.8592 113.718 57.3924 107.773C57.2658 107.256 57.5797 106.733 58.0955 106.606C58.5856 106.485 59.0813 106.764 59.2373 107.235L59.2355 107.237Z" fill="#3B2D55"/>
<path opacity="0.35" d="M120.616 120.269C119.973 117.64 119.415 116.499 117.091 114.537C116.349 113.911 115.799 113.827 114.828 113.678C112.911 113.595 113.295 115.528 115.195 115.762C115.99 116.498 115.997 117.32 116.173 117.417C115.283 118.398 114.38 119.231 113.42 120.116C105.209 127.784 94.7066 130.517 83.8595 129.025C73.5686 127.638 63.397 119.7 60.1277 109.728C59.7018 108.571 58.024 109.071 58.2828 110.267C61.0014 120.961 70.6425 129.023 81.1647 131.501C91.7089 133.446 102.763 131.102 111.472 124.423C113.84 122.629 115.725 121.054 117.546 118.773C118.102 119.789 118.08 120.344 118.24 121.45C118.468 123.012 121.21 122.704 120.614 120.267L120.616 120.269Z" fill="#3B2D55"/>
<path d="M177.199 74.3651C175.082 74.2989 174.304 71.4622 176.068 70.2554C183.055 65.4761 191.244 63.3642 193.724 67.8363C196.288 72.4611 187.17 74.6797 177.199 74.3651Z" fill="#3E2C52"/>
<path d="M144.265 30.555C142.554 31.53 140.625 29.6977 141.438 27.8655C144.997 19.8356 151.097 13.3676 155.547 15.9246C160.129 18.5571 153.157 25.4869 144.265 30.555Z" fill="#3E2C52"/>
<path d="M49.5889 29.3538C50.4756 31.394 48.3003 33.4083 46.4389 32.2623C39.287 27.8509 33.9525 21.2118 36.7648 16.988C39.6744 12.6171 45.5302 20.0234 49.5889 29.3557V29.3538Z" fill="#3E2C52"/>
<path d="M97.7942 18.881C97.3316 20.761 94.8185 20.9413 94.0897 19.1532C90.747 10.9449 90.2678 1.80391 95.1508 0.174022C100.034 -1.45587 100.311 8.63988 97.7923 18.8791L97.7942 18.881Z" fill="#3E2C52"/>
<path d="M21.3652 71.5046C23.5735 72.8272 22.7438 76.328 20.1922 76.4145C12.3097 76.6812 5.00919 74.3228 5.00001 69.4424C4.99083 64.3503 13.2019 66.613 21.3652 71.5046Z" fill="#3E2C52"/>
</svg>
