<svg width="200" height="200" viewBox="0 0 200 200" fill="none" xmlns="http://www.w3.org/2000/svg">
<g clip-path="url(#clip0_97_245)">
<path d="M183.267 154.711C183.267 154.711 190.92 163.49 185.404 172.386C179.888 181.281 172.679 160.227 172.679 160.227L183.267 154.711Z" fill="#FAB533"/>
<path d="M182.346 161.954L183.52 179.165L182.353 190.531H186.449C188.708 190.531 190.545 192.368 190.545 194.628C190.545 196.887 188.708 198.724 186.449 198.724H140.19C128.926 198.724 119.799 189.596 119.799 178.332C119.799 178.305 119.799 178.27 119.799 178.243V153.796C119.792 142.532 128.919 133.405 140.183 133.398H140.19C142.45 133.398 144.286 135.234 144.286 137.494C144.286 139.754 142.45 141.59 140.19 141.59C133.432 141.59 127.957 147.065 127.957 153.824V153.83V178.243C127.929 185.002 133.377 190.504 140.136 190.531C140.156 190.531 140.17 190.531 140.19 190.531H145.986L144.273 176.932C144.273 165.716 153.072 156.356 163.934 155.175" fill="#FAB533"/>
<path d="M154.95 175.977C161.333 173.198 166.439 178.707 166.344 184.961L166.282 190.518L166.037 190.272L168.672 190.306C169.464 190.326 170.583 190.251 171.341 190.511C175.348 191.733 175.328 197.467 171.307 198.607C170.44 198.86 169.546 198.73 168.672 198.744L166.037 198.71L168.672 198.676C169.546 198.635 170.44 198.744 171.273 198.478C172.945 197.993 174.154 196.32 174.113 194.607C174.126 192.422 172.153 190.579 169.996 190.716C169.17 190.722 166.904 190.75 166.05 190.763C165.914 190.763 165.798 190.654 165.804 190.518L165.736 184.961C165.688 179.356 161.162 174.229 155.38 176.905C154.738 177.185 154.322 176.25 154.95 175.977Z" fill="#3B2D55"/>
<path d="M156.786 157.763C156.172 159.975 156.472 162.685 157.824 164.521C158.418 165.177 157.428 166.091 156.82 165.436C155.496 163.115 155.694 160.097 156.786 157.763Z" fill="#3B2D55"/>
<path d="M152.827 159.995C152.54 162.275 153.236 164.91 154.847 166.528C155.537 167.088 154.684 168.14 153.994 167.587C152.335 165.484 152.083 162.46 152.827 159.995Z" fill="#3B2D55"/>
<path d="M173.867 159.128C173.805 159.128 161.06 160.029 156.117 150.192C151.612 141.187 156.035 127.943 158.595 122.686C159.066 121.717 160.227 121.314 161.196 121.785C161.347 121.86 161.49 121.956 161.62 122.065C164.03 124.175 165.9 126.824 167.081 129.8C171.491 128.578 176.14 128.578 180.55 129.8C181.731 126.824 183.602 124.175 186.012 122.065C186.824 121.362 188.053 121.451 188.756 122.263C188.865 122.393 188.961 122.536 189.036 122.686C191.596 127.943 196.02 141.187 191.514 150.192C186.667 160.022 173.922 159.128 173.867 159.128Z" fill="#FAB533"/>
<path d="M169.546 144.314C170.338 142.361 168.624 138.852 166.91 137.815C162.61 135.207 158.138 142.798 162.057 145.324C163.852 146.492 166.904 146.649 168.685 145.379C169.068 145.113 169.368 144.744 169.546 144.314Z" fill="white"/>
<path d="M178.181 144.314C177.39 142.361 179.103 138.852 180.817 137.815C185.118 135.207 189.589 142.798 185.671 145.324C183.882 146.492 180.823 146.649 179.042 145.379C178.659 145.113 178.359 144.744 178.181 144.314Z" fill="white"/>
<path d="M165.75 145.836C166.885 145.836 167.805 144.494 167.805 142.839C167.805 141.184 166.885 139.842 165.75 139.842C164.615 139.842 163.695 141.184 163.695 142.839C163.695 144.494 164.615 145.836 165.75 145.836Z" fill="#3B2D55"/>
<path d="M179.888 142.839C179.888 144.498 180.803 145.836 181.936 145.836C183.069 145.836 183.984 144.471 183.984 142.846C183.984 141.221 183.069 139.842 181.936 139.842C180.803 139.842 179.888 141.187 179.888 142.839Z" fill="#3B2D55"/>
<path d="M168.583 150.458C169.559 152.076 172.174 152.247 173.874 151.311C175.567 152.247 178.181 152.076 179.158 150.458" fill="#FAB533"/>
<path d="M168.583 150.458C169.559 152.076 172.174 152.247 173.874 151.311C175.567 152.247 178.181 152.076 179.158 150.458" stroke="#3B2D55" stroke-width="2.77" stroke-linecap="round" stroke-linejoin="round"/>
<path d="M172.481 147.522L173.847 147.693L175.212 147.522" fill="#FAB533"/>
<path d="M172.481 147.522L173.847 147.693L175.212 147.522" stroke="#3B2D55" stroke-width="2.77" stroke-linecap="round" stroke-linejoin="round"/>
<path d="M164.862 149.925L149.816 147.393" stroke="#3B2D55" stroke-width="1.98" stroke-linecap="round" stroke-linejoin="round"/>
<path d="M164.344 152.526L148.287 152.11" stroke="#3B2D55" stroke-width="1.98" stroke-linecap="round" stroke-linejoin="round"/>
<path d="M183.424 149.925L198.471 147.393" stroke="#3B2D55" stroke-width="1.98" stroke-linecap="round" stroke-linejoin="round"/>
<path d="M183.943 152.526L200 152.11" stroke="#3B2D55" stroke-width="1.98" stroke-linecap="round" stroke-linejoin="round"/>
<path d="M149.331 163.026C149.441 165.32 150.581 167.805 152.444 169.116C153.216 169.559 152.574 170.727 151.789 170.304C149.789 168.522 149.024 165.586 149.331 163.026Z" fill="#3B2D55"/>
<path d="M79.5955 169.648C77.9161 169.648 76.5508 171.013 76.5508 172.693V178.154C76.5508 182.749 74.257 190.634 68.2698 185.138L68.0036 185.008C68.6658 181.684 68.304 179.827 67.9695 176.454C67.2458 167.498 54.6913 156.889 47.8031 149.004C44.6695 145.263 41.9661 141.187 39.7338 136.845L39.8157 135.48C40.7646 132.886 41.0035 130.087 40.4984 127.376L40.3823 126.912C40.3823 126.912 39.1125 121.922 38.9145 121.109L39.5972 121.608C42.2255 119.485 46.069 117.054 43.3724 113.081C40.4984 108.842 38.3343 108.63 37.3034 108.76C36.2726 108.889 34.245 110.651 35.2554 111.682L33.7944 110.105C33.0776 109.333 32.0741 108.896 31.0227 108.896L22.8715 107.667H22.025L13.2799 108.896C12.2285 108.896 11.225 109.333 10.5082 110.105C9.86646 110.787 9.14281 111.538 9.04724 111.682C10.0371 110.651 8.05052 108.896 6.99919 108.76C5.94787 108.623 3.80425 108.842 0.930158 113.081C-1.78691 117.082 2.05658 119.532 4.6849 121.635L5.36759 121.137C4.79413 123.424 4.15924 125.916 3.78377 127.404C2.97137 130.537 3.57896 139.241 10.2556 141.972C11.8667 142.655 13.2321 143.119 14.3858 143.488L14.3312 143.672C11.9691 151.864 14.0854 159.374 15.6966 163.47L17.7856 167.907C18.3454 169.095 18.6389 170.392 18.6389 171.71V187.268C18.6389 187.964 18.2293 188.599 17.5944 188.886L12.6313 191.132C10.5969 192.047 9.68896 194.436 10.6038 196.478C11.2591 197.932 12.7064 198.867 14.2971 198.86H29.0566C29.9236 198.867 30.6268 198.164 30.6336 197.297C30.6336 197.29 30.6336 197.29 30.6336 197.283V197.228C31.33 198.273 32.511 198.887 33.7671 198.86H61.0061C61.7229 198.86 62.31 198.28 62.3169 197.563C62.3169 197.426 62.2964 197.297 62.2554 197.167L61.839 195.802L62.6719 195.119L62.2759 195.802C67.9695 195.802 67.3687 195.904 73.1578 195.904C78.947 195.904 82.6403 190.408 82.6403 185.52V172.693C82.6403 171.013 81.2749 169.648 79.5955 169.648Z" fill="#EECEA1"/>
<path d="M23.445 145.399C22.9876 149.495 14.6794 151.202 16.7274 166.119C13.3277 159.149 12.4675 151.209 14.2971 143.672L18.1815 144.485L23.445 145.399Z" fill="#AD9382"/>
<path d="M41.5429 140.764C38.8121 144.86 40.5188 151.475 46.3216 158.179C52.1244 164.883 66.3856 171.874 64.9452 169.266C60.4463 161.176 45.1747 147.659 41.5429 140.764Z" fill="#AD9382"/>
<path d="M39.7816 121.635C42.4099 119.512 46.2534 117.082 43.5568 113.109C40.6827 108.869 38.5186 108.657 37.4878 108.787C36.4569 108.917 34.4089 110.699 35.4397 111.723C35.5353 111.818 34.7093 110.931 33.9651 110.132C30.9272 106.862 13.7714 106.896 10.754 110.132C10.003 110.924 9.19063 111.818 9.27937 111.723C10.3034 110.699 8.30314 108.924 7.23133 108.787C6.15952 108.651 4.03638 108.869 1.16229 113.109C-1.56843 117.082 2.27506 119.533 4.90339 121.635" fill="#EECEA1"/>
<path d="M25.8207 118.672C26.3805 117.594 27.5001 116.624 29.5618 116.624C31.1046 116.522 32.5656 117.321 33.3097 118.672" stroke="#3B2D55" stroke-width="2.73" stroke-linecap="round" stroke-linejoin="round"/>
<path d="M11.5663 118.672C12.1193 117.594 13.2389 116.624 15.3074 116.624C16.8502 116.515 18.3112 117.321 19.0485 118.672" stroke="#3B2D55" stroke-width="2.73" stroke-linecap="round" stroke-linejoin="round"/>
<path d="M59.5861 188.483L62.2622 197.167C62.4739 197.857 62.0916 198.587 61.4089 198.799C61.2792 198.84 61.1495 198.86 61.0129 198.86H33.7671C29.241 198.86 28.176 191.944 33.6374 190.613C39.0989 189.282 43.352 188.483 43.352 188.483C43.352 188.483 40.2663 185.753 38.225 183.705C34.9687 180.373 35.9654 174.72 39.6245 171.259C43.4953 167.6 52.5955 165.798 55.729 174.673" fill="#EECEA1"/>
<path d="M59.5861 188.483C59.9411 189.815 62.1871 196.382 62.3646 197.604C62.3578 198.266 61.7912 198.887 61.1085 198.901C59.8319 198.935 58.5689 198.922 57.2923 198.935L42.048 199.01L34.4225 199.051C33.2892 199.106 32.0331 198.922 31.1661 198.123C28.8518 196.218 29.4526 192.204 32.1287 190.934C33.1049 190.361 34.7433 190.101 35.8288 189.815C38.3069 189.227 40.7851 188.674 43.2837 188.183L43.1335 188.715L39.3788 185.254C39.0784 184.981 38.266 184.223 37.9724 183.957C33.1595 178.905 37.3102 170.426 43.3246 168.542C48.8817 166.46 54.2544 168.843 56.1932 174.502C56.4253 175.137 55.4832 175.485 55.2374 174.871C54.6708 173.335 53.8652 171.874 52.691 170.775C49.0319 167.327 42.8126 168.549 39.5153 171.942C36.3818 175.014 35.2554 180.817 38.9214 183.909L39.843 184.776C39.8498 184.783 43.5363 188.258 43.5431 188.258C43.7274 188.422 43.6319 188.743 43.3861 188.784C40.8943 189.248 38.4093 189.774 35.938 190.333C33.5964 190.804 30.7087 191.405 30.2445 194.122C29.7529 196.191 31.2617 198.567 33.4736 198.628C33.6784 198.71 41.5497 198.669 42.0344 198.696C44.8743 198.703 58.5075 198.799 61.088 198.778C61.7093 198.771 62.2417 198.212 62.2554 197.59C62.2486 197.085 61.9072 196.28 61.7775 195.768C61.7912 195.781 59.5861 188.483 59.5861 188.483Z" fill="#3B2D55"/>
<path d="M27.4796 136.326V140.095C27.4796 142.976 25.1517 145.304 22.2708 145.311C19.3898 145.324 17.0414 143.003 17.0278 140.122C17.0278 140.115 17.0278 140.102 17.0278 140.095V136.326L22.3595 133.357L27.4796 136.326Z" fill="#B03831"/>
<path d="M35.5967 130.66C35.5967 133.746 32.6407 136.244 28.9884 136.244C25.336 136.244 22.38 133.746 22.38 130.66" stroke="#3B2D55" stroke-width="2.73" stroke-linecap="round" stroke-linejoin="round"/>
<path d="M22.3117 130.66C22.3117 133.746 19.3557 136.244 15.7034 136.244C12.051 136.244 9.09503 133.746 9.09503 130.66" stroke="#3B2D55" stroke-width="2.73" stroke-linecap="round" stroke-linejoin="round"/>
<path d="M23.9297 124.612H20.6051C19.4172 124.605 18.4478 125.561 18.441 126.748C18.441 127.206 18.5843 127.656 18.8506 128.025L19.7108 129.24C20.7143 130.653 22.6668 130.988 24.0799 129.984C24.3667 129.78 24.6192 129.527 24.824 129.24L25.6842 128.025C26.3806 127.062 26.1689 125.718 25.2063 125.021C24.8377 124.755 24.3871 124.612 23.9297 124.612Z" fill="#8A7362"/>
<path d="M21.8066 133.343L21.9772 140.347C21.9772 140.859 22.3869 140.866 22.4073 140.347L22.6941 133.329L21.8066 133.343Z" fill="#3A2D55"/>
<path d="M136.422 195.112C135.869 197.563 133.698 199.256 131.268 199.256C130.981 199.256 130.694 199.236 130.408 199.188L130.38 199.181L129.861 199.058L130.23 198.683C131.022 197.891 131.595 196.935 131.889 195.911C132.053 195.317 132.135 194.812 132.21 194.327C132.244 194.109 132.278 193.89 132.319 193.665L133.391 187.145C133.869 184.189 134.319 181.261 134.729 178.434C134.756 178.257 134.633 178.086 134.456 178.045C134.272 178.004 134.087 178.127 134.046 178.311C133.459 181.097 132.865 183.998 132.285 186.954L131.036 193.446C130.995 193.651 130.954 193.856 130.92 194.068C130.824 194.586 130.722 195.119 130.606 195.522C130.271 196.635 129.541 197.618 128.551 198.293C128.441 198.369 128.332 198.437 128.223 198.505C127.67 198.826 127.056 199.044 126.407 199.147C125.765 199.249 125.117 199.236 124.475 199.099C123.779 198.956 123.089 198.648 122.482 198.212L122.243 198.041L122.407 197.802C122.884 197.112 123.226 196.361 123.41 195.57C123.547 194.962 123.594 194.436 123.642 193.924C123.663 193.719 123.683 193.508 123.704 193.303L124.352 186.749C124.632 183.759 124.891 180.817 125.124 177.997C125.137 177.813 125.008 177.656 124.83 177.629C124.741 177.615 124.646 177.642 124.571 177.697C124.496 177.752 124.448 177.833 124.434 177.922C124.031 180.714 123.629 183.643 123.239 186.626L122.413 193.16C122.386 193.358 122.366 193.556 122.338 193.754C122.27 194.307 122.209 194.825 122.106 195.242C121.99 195.72 121.799 196.191 121.54 196.628C121.164 197.256 120.652 197.816 120.051 198.232L120.003 198.266C119.969 198.293 119.942 198.314 119.908 198.334C118.85 199.038 117.498 199.331 116.215 199.147C114.952 198.969 113.75 198.287 112.931 197.283C112.733 197.044 112.549 196.778 112.392 196.498L112.323 196.382L112.371 196.252C112.474 195.972 112.555 195.665 112.624 195.351C112.753 194.764 112.767 194.081 112.767 193.631L112.822 190.388C112.897 186.517 112.931 182.278 112.924 177.438C112.924 177.253 112.781 177.103 112.596 177.089C112.405 177.083 112.241 177.226 112.228 177.417C111.948 182.25 111.736 186.483 111.586 190.354L111.449 193.665C111.422 194.225 111.409 194.627 111.306 195.085C111.183 195.617 111.019 196.054 110.808 196.43C110.801 196.45 110.78 196.471 110.767 196.498C109.832 198.177 107.975 199.249 106.138 199.215C106.111 199.215 106.084 199.215 106.056 199.215C104.22 199.215 102.452 198.164 101.537 196.518C101.51 196.471 101.489 196.45 101.476 196.423C101.223 195.979 101.08 195.481 100.984 195.099C100.875 194.614 100.861 194.191 100.834 193.603L100.697 190.368C100.54 186.285 100.329 182.052 100.049 177.431C100.035 177.246 99.8849 177.103 99.7005 177.103C99.5094 177.103 99.3524 177.26 99.3524 177.451C99.3455 182.066 99.3728 186.299 99.4548 190.402L99.5094 193.644C99.5094 194.354 99.564 194.914 99.6596 195.372C99.7347 195.699 99.8234 195.993 99.919 196.273L99.9668 196.402L99.8985 196.518C99.7415 196.798 99.5572 197.065 99.3524 197.31C98.5331 198.307 97.3385 198.99 96.0687 199.181C94.7852 199.372 93.4472 199.072 92.3754 198.362C92.3412 198.341 92.3071 198.314 92.2798 198.293L92.232 198.259C91.6381 197.836 91.1192 197.283 90.7506 196.655C90.4912 196.218 90.2932 195.754 90.1771 195.269C90.0747 194.86 90.0065 194.341 89.945 193.795C89.9177 193.59 89.8972 193.385 89.8699 193.187L89.0439 186.647C88.6548 183.664 88.252 180.735 87.8492 177.943C87.8219 177.765 87.6649 177.629 87.4805 177.649C87.385 177.656 87.303 177.697 87.2416 177.772C87.1802 177.84 87.1528 177.929 87.1597 178.025C87.385 180.83 87.6444 183.78 87.9311 186.777L88.5797 193.337C88.607 193.542 88.6206 193.754 88.6411 193.965C88.6889 194.47 88.7367 194.996 88.8732 195.604C89.0644 196.396 89.3989 197.14 89.8836 197.829L90.0542 198.068L89.8153 198.239C89.2145 198.676 88.525 198.99 87.8219 199.133C87.187 199.27 86.5316 199.283 85.8831 199.181C85.2413 199.079 84.6338 198.86 84.074 198.532C83.9647 198.464 83.8555 198.396 83.7463 198.321C82.7632 197.652 82.0327 196.669 81.6914 195.549C81.5685 195.153 81.4729 194.621 81.3774 194.109C81.3364 193.897 81.2954 193.679 81.2545 193.474L80.0052 186.975C79.4249 184.025 78.8378 181.124 78.2439 178.339C78.2029 178.161 78.0391 178.045 77.8547 178.066C77.6636 178.093 77.5339 178.27 77.5612 178.455C77.9776 181.288 78.4282 184.217 78.8992 187.173L79.971 193.699C80.012 193.917 80.0461 194.136 80.0803 194.361C80.1554 194.846 80.2373 195.351 80.4011 195.945C80.7083 196.962 81.2818 197.925 82.0669 198.71L82.4833 199.126L81.903 199.215C79.1177 199.672 76.4757 197.891 75.8613 195.16C75.8135 194.948 73.902 185.951 71.6901 174.809L71.6833 174.816C73.6084 187.896 74.8782 195.269 74.8987 195.378V195.385L74.9055 195.406C74.9465 195.576 74.9943 195.747 75.0557 195.945C75.0694 195.993 75.0899 196.041 75.1035 196.082L75.1172 196.123C75.1581 196.232 75.1991 196.348 75.2469 196.45C75.2742 196.518 75.3083 196.594 75.3425 196.662C75.3834 196.751 75.4244 196.833 75.4722 196.921L75.4858 196.955C75.52 197.024 75.5609 197.092 75.5951 197.16C75.6155 197.201 75.6428 197.235 75.6633 197.269L75.6838 197.297C75.8203 197.515 75.9637 197.72 76.1139 197.918L76.1344 197.945C76.2163 198.048 76.2982 198.143 76.4074 198.259L76.4552 198.307C76.5576 198.416 76.6532 198.512 76.7488 198.601C76.7556 198.607 76.7556 198.607 76.7624 198.614C77.9298 199.686 79.4386 200.273 81.0087 200.273C81.3501 200.273 81.6982 200.246 82.0396 200.191L82.6062 200.103L84.4494 199.816C84.8522 199.973 85.2687 200.082 85.6919 200.15C86.0264 200.205 86.3609 200.232 86.6955 200.232C87.1324 200.232 87.5625 200.184 87.9857 200.096C88.8118 199.925 89.631 199.556 90.341 199.038L90.5799 198.867L91.01 198.56C91.208 198.744 91.4196 198.915 91.6381 199.072L91.679 199.099C91.7268 199.133 91.7746 199.167 91.8224 199.201C92.8191 199.864 94.0479 200.232 95.2768 200.232C95.5771 200.232 95.8843 200.212 96.1847 200.164C97.6866 199.939 99.1066 199.133 100.076 197.952C100.294 197.693 100.506 197.392 100.684 197.078C101.769 198.99 103.858 200.225 106.022 200.225H106.09C106.125 200.225 106.166 200.225 106.2 200.225C108.357 200.225 110.439 198.99 111.538 197.078C111.716 197.392 111.921 197.686 112.153 197.959C113.122 199.147 114.542 199.952 116.044 200.164C116.337 200.205 116.638 200.232 116.945 200.232C118.174 200.232 119.403 199.87 120.406 199.208C120.461 199.174 120.502 199.14 120.55 199.106L120.584 199.079C120.802 198.922 121.014 198.758 121.212 198.573L121.635 198.881L121.874 199.051C122.591 199.57 123.41 199.932 124.243 200.103C124.659 200.191 125.089 200.232 125.52 200.232C125.854 200.232 126.189 200.205 126.516 200.15C127.056 200.068 127.574 199.911 128.073 199.693L129.595 200.055L130.114 200.178L130.128 200.184H130.141L130.169 200.191L130.189 200.198H130.21C130.544 200.253 130.892 200.28 131.227 200.28C134.121 200.28 136.688 198.218 137.33 195.378C137.357 195.256 138.627 187.589 140.682 174.181C138.45 185.575 136.47 194.894 136.422 195.112Z" fill="#3B2D55"/>
<path d="M106.152 97.004C81.9235 97.004 64.9998 112.078 64.9998 133.65C64.9998 139.644 68.6453 159.285 71.7106 174.768C73.9225 185.91 75.834 194.907 75.8818 195.119C76.4962 197.85 79.1381 199.632 81.9235 199.174L82.5038 199.085L82.0873 198.669C81.3022 197.884 80.7288 196.928 80.4216 195.904C80.2509 195.31 80.1758 194.805 80.1007 194.32C80.0666 194.102 80.0325 193.883 79.9915 193.658L78.9197 187.132C78.4486 184.182 77.9912 181.247 77.5816 178.414C77.5543 178.223 77.684 178.052 77.8752 178.025C78.0595 177.997 78.2234 178.12 78.2643 178.298C78.8514 181.083 79.4454 183.991 80.0256 186.934L81.2749 193.433C81.3159 193.638 81.3569 193.849 81.3978 194.068C81.4934 194.58 81.589 195.112 81.7119 195.508C82.06 196.621 82.7905 197.604 83.7667 198.28C83.876 198.355 83.9852 198.423 84.0944 198.491C84.6474 198.819 85.255 199.031 85.9035 199.14C86.5521 199.249 87.2074 199.229 87.8423 199.092C88.5387 198.949 89.2282 198.635 89.8358 198.198L90.0747 198.027L89.904 197.788C89.4262 197.099 89.0848 196.355 88.8937 195.563C88.7503 194.955 88.7025 194.429 88.6615 193.924C88.6411 193.713 88.6206 193.501 88.6001 193.296L87.9516 186.736C87.6648 183.739 87.4122 180.796 87.1801 177.984C87.1733 177.888 87.2006 177.799 87.2621 177.731C87.3235 177.663 87.4054 177.615 87.501 177.608C87.6853 177.588 87.8423 177.724 87.8696 177.902C88.2724 180.694 88.6752 183.623 89.0643 186.606L89.8904 193.146C89.9177 193.344 89.945 193.549 89.9655 193.754C90.0337 194.3 90.0952 194.812 90.1976 195.228C90.3205 195.706 90.5116 196.17 90.771 196.614C91.1465 197.242 91.6585 197.795 92.2525 198.218L92.3002 198.252C92.3344 198.28 92.3685 198.3 92.3958 198.321C93.4608 199.031 94.8057 199.331 96.0891 199.14C97.3589 198.956 98.5536 198.273 99.3728 197.269C99.5776 197.03 99.7551 196.764 99.919 196.478L99.9872 196.361L99.9394 196.232C99.8439 195.952 99.7551 195.658 99.68 195.331C99.5845 194.873 99.5298 194.313 99.5298 193.603L99.4752 190.361C99.4001 186.258 99.366 182.018 99.3728 177.41C99.3728 177.219 99.5298 177.062 99.721 177.062C99.9053 177.062 100.056 177.205 100.069 177.39C100.342 182.011 100.554 186.237 100.718 190.327L100.854 193.562C100.875 194.15 100.895 194.573 101.004 195.058C101.1 195.44 101.243 195.938 101.496 196.382C101.51 196.409 101.523 196.437 101.557 196.478C102.465 198.123 104.24 199.174 106.077 199.174C106.104 199.174 106.131 199.174 106.159 199.174C107.995 199.215 109.852 198.143 110.787 196.457C110.801 196.43 110.821 196.409 110.828 196.389C111.04 196.013 111.204 195.576 111.327 195.044C111.429 194.586 111.449 194.184 111.47 193.624L111.606 190.313C111.757 186.442 111.968 182.209 112.248 177.376C112.262 177.185 112.426 177.042 112.617 177.048C112.801 177.062 112.945 177.212 112.945 177.397C112.945 182.237 112.917 186.476 112.842 190.347L112.788 193.59C112.781 194.04 112.774 194.723 112.644 195.31C112.576 195.624 112.487 195.931 112.392 196.211L112.344 196.341L112.412 196.457C112.569 196.737 112.753 197.003 112.951 197.242C113.777 198.252 114.972 198.928 116.235 199.106C117.518 199.297 118.863 198.997 119.928 198.293C119.962 198.273 119.997 198.246 120.024 198.225L120.072 198.191C120.672 197.768 121.184 197.215 121.56 196.587C121.819 196.143 122.011 195.679 122.127 195.201C122.229 194.784 122.29 194.266 122.359 193.713C122.379 193.515 122.406 193.317 122.434 193.119L123.26 186.585C123.649 183.602 124.052 180.68 124.455 177.881C124.468 177.793 124.516 177.711 124.591 177.656C124.666 177.601 124.755 177.574 124.85 177.588C125.028 177.615 125.158 177.779 125.144 177.956C124.919 180.769 124.659 183.718 124.373 186.708L123.724 193.262C123.697 193.474 123.683 193.679 123.663 193.883C123.615 194.389 123.567 194.914 123.431 195.529C123.246 196.321 122.905 197.071 122.427 197.761L122.263 198L122.502 198.171C123.11 198.607 123.792 198.915 124.495 199.058C125.13 199.188 125.779 199.208 126.427 199.106C127.076 199.003 127.69 198.785 128.243 198.464C128.353 198.403 128.462 198.328 128.571 198.252C129.561 197.577 130.291 196.594 130.626 195.481C130.749 195.078 130.844 194.546 130.94 194.027C130.981 193.822 131.015 193.61 131.056 193.405L132.305 186.913C132.886 183.964 133.48 181.056 134.067 178.27C134.108 178.086 134.292 177.963 134.476 178.004C134.654 178.045 134.777 178.216 134.749 178.393C134.333 181.22 133.882 184.148 133.411 187.104L132.339 193.624C132.299 193.849 132.264 194.068 132.23 194.286C132.155 194.778 132.073 195.283 131.909 195.87C131.616 196.894 131.042 197.85 130.25 198.642L129.882 199.017L130.401 199.14L130.428 199.147C130.715 199.195 131.008 199.215 131.288 199.215C133.719 199.215 135.889 197.522 136.442 195.071C136.49 194.853 138.47 185.534 140.73 174.113C143.774 158.718 147.324 139.508 147.324 133.616C147.304 112.078 130.38 97.004 106.152 97.004Z" fill="#57D1E5"/>
<path d="M95.0856 112.822C85.2345 112.822 77.213 120.836 77.213 130.694C77.213 140.545 85.2277 148.567 95.0856 148.567C104.944 148.567 112.958 140.552 112.958 130.694C112.958 120.836 104.944 112.822 95.0856 112.822Z" fill="#4D9BB6"/>
<path d="M75.4448 129.247C75.4448 139.098 83.4595 147.12 93.3174 147.12C103.169 147.12 111.19 139.105 111.19 129.247C111.19 119.389 103.175 111.374 93.3174 111.374C83.4595 111.374 75.4448 119.396 75.4448 129.247Z" fill="url(#paint0_linear_97_245)"/>
<path d="M105.51 129.513C105.251 137.016 99.8849 140.989 96.4714 140.177C93.6042 139.501 93.2492 133.131 95.0446 131.459C96.2189 130.36 98.5605 130.066 98.5878 129.268C98.6151 128.476 96.3008 128.018 95.2017 126.837C93.5291 125.042 94.3278 118.713 97.2361 118.242C100.704 117.676 105.776 122.011 105.51 129.513Z" fill="#3B2D55"/>
<g opacity="0.15">
<path d="M101.967 120.017C103.517 121.963 104.609 124.823 104.479 128.4C104.22 135.903 98.854 139.876 95.4406 139.064C95.2153 139.009 95.0105 138.921 94.8193 138.804C95.2221 139.501 95.7751 140.006 96.4783 140.177C99.8985 140.989 105.258 137.016 105.517 129.513C105.667 125.178 104.036 121.901 101.967 120.017Z" fill="#3B2D55"/>
</g>
<path d="M76.7761 106.985C69.3417 113.463 64.9998 122.721 64.9998 133.65C64.9998 143.959 75.7725 194.607 75.8818 195.119C76.1275 196.198 76.6873 197.126 77.4519 197.829C74.7758 185.043 66.2764 143.59 66.2764 133.985C66.2696 123.219 70.0994 113.928 76.7761 106.985Z" fill="#93E1EF"/>
<path d="M97.0654 156.254C103.947 155.53 110.528 152.363 115.286 147.338C116.849 145.679 118.283 143.891 119.498 141.952C119.922 141.269 120.823 141.057 121.512 141.487C122.174 141.904 122.386 142.764 122.011 143.433C119.58 147.864 115.819 151.523 111.477 154.069C107.162 156.623 102.199 158.07 97.2019 158.193C95.9594 158.2 95.8365 156.411 97.0654 156.254Z" fill="#4D9BB6"/>
<path d="M96.1096 156.097C102.991 155.373 109.572 152.206 114.33 147.181C115.894 145.522 117.327 143.734 118.543 141.795C118.966 141.112 119.867 140.9 120.556 141.331C121.219 141.747 121.43 142.607 121.055 143.276C118.624 147.707 114.863 151.366 110.521 153.912C106.206 156.466 101.243 157.913 96.2462 158.036C95.0037 158.036 94.8808 156.247 96.1096 156.097Z" fill="#3B2D55"/>
</g>
<defs>
<linearGradient id="paint0_linear_97_245" x1="111.187" y1="129.25" x2="75.4433" y2="129.25" gradientUnits="userSpaceOnUse">
<stop stop-color="#CECAD5"/>
<stop offset="0.6645" stop-color="white"/>
<stop offset="1" stop-color="white"/>
</linearGradient>
<clipPath id="clip0_97_245">
<rect width="200" height="200" fill="white"/>
</clipPath>
</defs>
</svg>
