<svg width="200" height="200" viewBox="0 0 200 200" fill="none" xmlns="http://www.w3.org/2000/svg">
<g clip-path="url(#clip0_36_2363)">
<path d="M111.202 31.0559C98.8605 33.974 61.8566 55.2378 53.1794 65.6498C50.5698 68.7825 112.768 45.2459 120.6 41.1861C128.432 37.1262 129.765 26.6663 111.2 31.0559H111.202Z" fill="url(#paint0_linear_36_2363)"/>
<path d="M99.5685 47.9371C135.135 47.9371 159.975 69.9845 159.975 101.552C159.975 110.322 154.628 139.048 150.12 161.702C146.877 178.003 144.068 191.163 144.001 191.477C143.101 195.47 139.223 198.081 135.137 197.407L134.288 197.274L134.895 196.668C136.048 195.517 136.893 194.119 137.339 192.626C137.586 191.759 137.702 191.021 137.814 190.309C137.864 189.986 137.915 189.665 137.974 189.343L139.55 179.796C140.246 175.477 140.909 171.187 141.518 167.045C141.557 166.77 141.365 166.512 141.089 166.471C140.819 166.435 140.575 166.607 140.52 166.868C139.657 170.944 138.789 175.195 137.939 179.505L136.103 189.011C136.042 189.311 135.984 189.624 135.925 189.935C135.784 190.685 135.64 191.461 135.461 192.039C134.954 193.668 133.883 195.106 132.442 196.09C132.284 196.198 132.125 196.305 131.96 196.4C131.145 196.876 130.252 197.193 129.307 197.347C128.35 197.503 127.392 197.478 126.461 197.28C125.435 197.067 124.423 196.615 123.537 195.973L123.19 195.721L123.437 195.37C124.142 194.367 124.64 193.271 124.919 192.115C125.125 191.225 125.195 190.461 125.262 189.722C125.291 189.412 125.318 189.107 125.355 188.804L126.305 179.211C126.721 174.825 127.1 170.518 127.433 166.409C127.443 166.274 127.401 166.143 127.313 166.04C127.226 165.937 127.102 165.875 126.967 165.863C126.693 165.838 126.463 166.031 126.424 166.294C125.832 170.375 125.243 174.658 124.674 179.025L123.462 188.593C123.423 188.885 123.387 189.183 123.35 189.481C123.254 190.279 123.162 191.034 123.007 191.633C122.829 192.333 122.544 193.014 122.16 193.656C121.612 194.573 120.858 195.385 119.983 196.007L119.912 196.058C119.864 196.094 119.815 196.131 119.767 196.161C118.2 197.2 116.228 197.634 114.347 197.358C112.487 197.083 110.729 196.087 109.53 194.626C109.233 194.273 108.964 193.885 108.731 193.472L108.635 193.3L108.701 193.113C108.845 192.709 108.97 192.277 109.082 191.798C109.226 191.131 109.299 190.307 109.304 189.272L109.379 184.533C109.489 178.532 109.537 172.334 109.525 165.584C109.525 165.306 109.297 165.079 109.018 165.079C108.751 165.079 108.529 165.288 108.511 165.556C108.107 172.314 107.796 178.503 107.561 184.48L107.362 189.213C107.328 190.071 107.301 190.69 107.143 191.401C107.001 191.963 106.789 192.693 106.417 193.342C106.398 193.381 106.373 193.418 106.33 193.486C104.994 195.892 102.395 197.43 99.6984 197.43H99.5827C96.8842 197.489 94.1608 195.918 92.791 193.459C92.7679 193.424 92.7448 193.387 92.7305 193.36C92.421 192.814 92.1827 192.172 91.9994 191.392C91.8482 190.724 91.8215 190.135 91.786 189.318L91.5832 184.478C91.3626 178.817 91.0549 172.626 90.6386 165.553C90.6208 165.274 90.3789 165.063 90.1014 165.077C89.8328 165.093 89.6229 165.315 89.6229 165.583C89.6175 172.669 89.6673 178.865 89.7741 184.531L89.8506 189.27C89.8577 189.929 89.8719 190.929 90.0658 191.791C90.1672 192.254 90.2935 192.699 90.4412 193.11L90.507 193.296L90.4091 193.468C90.1761 193.881 89.9057 194.271 89.6122 194.62C88.4026 196.095 86.6433 197.09 84.7879 197.351C82.9041 197.627 80.9278 197.193 79.3695 196.166C79.3197 196.133 79.2717 196.099 79.2254 196.064L79.1561 196.012C78.2773 195.397 77.5231 194.585 76.9752 193.663C76.5927 193.018 76.3099 192.335 76.1391 191.635C75.9879 191.029 75.8954 190.266 75.7976 189.461C75.762 189.171 75.7264 188.88 75.6873 188.589L74.4759 179.026C73.9066 174.667 73.3161 170.384 72.7237 166.294C72.7041 166.159 72.633 166.04 72.5245 165.96C72.416 165.879 72.2825 165.845 72.1491 165.865C71.8859 165.904 71.6955 166.141 71.7151 166.407C72.0477 170.525 72.4284 174.833 72.8429 179.207L73.791 188.793C73.8266 189.1 73.855 189.401 73.8835 189.706C73.9511 190.449 74.0223 191.218 74.2251 192.11C74.4972 193.271 74.9935 194.37 75.698 195.377L75.9434 195.728L75.5966 195.98C74.7089 196.622 73.6985 197.069 72.6757 197.276C71.7418 197.469 70.7883 197.492 69.8419 197.342C68.8885 197.193 67.9919 196.876 67.1772 196.402C67.0135 196.308 66.8535 196.204 66.6969 196.095C65.2436 195.11 64.1727 193.668 63.68 192.041C63.5039 191.456 63.3562 190.67 63.2139 189.913C63.157 189.61 63.1001 189.305 63.0396 189.008L61.2038 179.507C60.3535 175.192 59.4836 170.938 58.6227 166.868C58.564 166.595 58.2953 166.419 58.0214 166.476C57.7599 166.531 57.5856 166.781 57.6229 167.045C58.2313 171.18 58.8913 175.468 59.5904 179.794L61.1647 189.334C61.2251 189.662 61.2749 189.981 61.3265 190.302C61.4386 191.018 61.5542 191.757 61.7979 192.622C62.2337 194.117 63.0752 195.517 64.2332 196.673L64.7722 197.227L64.0108 197.407L63.9681 197.416C63.543 197.487 63.1214 197.521 62.7034 197.521C59.1385 197.521 55.9455 195.049 55.1361 191.459C55.0685 191.142 52.1601 177.509 48.8443 160.799C44.3758 138.279 39.1637 110.174 39.1637 101.554C39.1637 69.9863 64.0037 47.9389 99.5703 47.9389L99.5685 47.9371Z" fill="#57D1E5"/>
<path d="M142.685 62.5384C153.598 72.0144 159.975 85.5608 159.975 101.55C159.975 116.634 144.161 190.724 143.999 191.475C143.643 193.057 142.814 194.415 141.695 195.445C145.62 176.734 158.104 116.097 158.104 102.041C158.104 86.2895 152.481 72.6934 142.685 62.5366" fill="#93E1EF"/>
<path d="M139.99 155.706H90.0089C87.9045 155.706 86.01 156.965 85.1899 158.895C83.4395 163.019 79.6168 170.036 72.9638 173.132C73.7109 178.939 74.5488 192.679 76.6158 194.83C75.2674 198.771 70.4521 197.787 69.4239 197.787C68.3957 197.787 65.3289 197.06 63.671 193.576C61.0739 188.118 59.8269 178.432 59.1581 173.655C50.6943 170.802 49.1965 162.923 49.0897 162.301L51.4307 176.541H51.404C52.2205 180.517 53.6312 187.314 54.5846 191.773C55.7071 196.751 60.8765 199.664 65.6491 198.168C66.6738 197.847 67.7713 197.828 68.7942 198.15C70.9662 198.838 73.3232 198.645 75.3493 197.611C75.9825 197.289 76.7706 196.136 77.4626 196.097C78.368 196.048 79.1827 197.209 80.0099 197.627C82.8845 199.079 86.3248 198.783 88.9024 196.987C89.7136 196.422 90.5479 193.782 91.4942 193.746C92.6096 193.704 93.8405 196.367 94.7993 197.024C97.7451 199.046 101.765 199.053 104.715 197.017C105.567 196.431 106.495 194.067 107.488 194.037C108.559 194.005 109.696 196.353 110.612 196.989C113.195 198.787 116.646 199.081 119.524 197.617C120.241 197.251 120.997 196.103 121.783 196.097C122.59 196.092 123.43 197.243 124.168 197.617C126.17 198.631 128.521 198.849 130.725 198.141C131.745 197.815 132.842 197.843 133.863 198.164C138.636 199.664 143.809 196.751 144.931 191.771C146.249 186.02 147.642 176.69 148.324 172.197C148.505 171.001 148.726 170.277 148.121 169.228C146.956 167.205 145.771 163.34 145.129 159.957C144.659 157.491 142.507 155.703 139.99 155.703V155.706ZM49.2445 163.48L49.2356 163.432C49.2356 163.432 49.2391 163.452 49.2445 163.48Z" fill="#657BC4"/>
<path d="M46.6669 149.648C47.5404 147.262 48.8265 144.998 50.4861 143.076C54.5135 138.373 60.5741 135.409 66.809 135.265C73.188 135.088 79.4175 137.791 84.128 141.991C89.1799 146.528 92.8693 152.988 92.7092 159.92C92.5989 161.736 90 161.737 89.8897 159.92C89.7225 156.224 88.2905 152.596 86.1594 149.561C81.771 143.257 74.2802 138.681 66.4372 139.007C65.9195 139.038 65.1262 139.096 64.6192 139.187C64.3684 139.22 63.9646 139.277 63.7191 139.341L62.8243 139.529C62.143 139.718 61.2927 139.958 60.6363 140.213C57.0413 141.591 53.8251 143.98 51.5713 147.101C50.1428 149.116 49.1022 151.412 48.4351 153.853C48.291 154.323 47.9975 154.621 47.6524 154.77C47.439 153.706 47.0476 151.685 46.6687 149.648H46.6669Z" fill="#657BC4"/>
<path d="M154.534 138.772C150.312 139.139 146.924 142.378 144.835 145.993C142.425 150.159 141.434 155.117 141.349 159.92C141.343 160.704 140.692 161.333 139.906 161.314C139.143 161.296 138.536 160.675 138.529 159.92C138.499 157.27 138.711 154.612 139.248 152.006C140.765 144.136 146.363 135.345 155.222 134.999C154.925 136.703 154.754 137.536 154.532 138.772H154.534Z" fill="#657BC4"/>
<path d="M57.9182 173.568C58.1228 173.601 58.2028 173.314 58.0107 173.234C50.5537 170.093 49.1893 162.907 49.088 162.315L50.0859 168.382C50.0912 168.412 50.2994 169.752 50.3189 169.777C50.6587 170.194 53.8091 172.883 57.92 173.569L57.9182 173.568ZM49.2445 163.496L49.2356 163.448C49.2356 163.448 49.2392 163.468 49.2445 163.496Z" fill="#506AB2"/>
<path d="M55.1343 191.456C55.9437 195.046 59.1368 197.517 62.7016 197.517C63.1179 197.517 63.5412 197.484 63.9664 197.413L64.0091 197.404L64.7704 197.223L64.2314 196.67C63.0716 195.514 62.2302 194.113 61.7962 192.619C61.5543 191.754 61.4368 191.014 61.3248 190.298C61.275 189.977 61.2234 189.66 61.1629 189.33L59.5886 179.79C58.8913 175.466 58.2296 171.176 57.6212 167.042C57.5838 166.779 57.7582 166.528 58.0197 166.473C58.2918 166.416 58.5622 166.591 58.6209 166.864C59.4837 170.935 60.3517 175.188 61.202 179.503L63.0378 189.004C63.0983 189.3 63.1552 189.605 63.2122 189.91C63.3545 190.667 63.5021 191.452 63.6782 192.037C64.171 193.665 65.2418 195.106 66.6952 196.092C66.8517 196.2 67.0118 196.303 67.1755 196.399C67.9902 196.872 68.8867 197.189 69.8402 197.338C70.7865 197.489 71.7382 197.466 72.6739 197.273C73.6968 197.067 74.7072 196.618 75.5948 195.977L75.9417 195.725L75.6962 195.374C74.99 194.367 74.4955 193.268 74.2233 192.106C74.0205 191.215 73.9494 190.445 73.8818 189.702C73.8533 189.399 73.8248 189.096 73.7893 188.789L72.8411 179.204C72.4267 174.83 72.046 170.522 71.7133 166.403C71.692 166.138 71.8823 165.9 72.1474 165.861C72.2808 165.843 72.416 165.877 72.5227 165.957C72.6312 166.037 72.7024 166.155 72.7219 166.29C73.3143 170.378 73.9049 174.663 74.4741 179.023L75.6855 188.586C75.7247 188.876 75.7602 189.167 75.7958 189.458C75.8937 190.263 75.9862 191.025 76.1374 191.631C76.3099 192.332 76.591 193.014 76.9734 193.66C77.5213 194.581 78.2756 195.393 79.1543 196.009L79.2237 196.06C79.2717 196.095 79.318 196.129 79.3678 196.163C80.9261 197.189 82.9024 197.624 84.7862 197.347C86.6415 197.086 88.4008 196.092 89.6105 194.617C89.904 194.268 90.1726 193.879 90.4074 193.465L90.5052 193.293L90.4394 193.106C90.2918 192.693 90.1655 192.25 90.0641 191.787C89.8702 190.926 89.8559 189.926 89.8488 189.266L89.7723 184.527C89.6656 178.861 89.6158 172.663 89.6211 165.579C89.6211 165.311 89.8328 165.09 90.0996 165.074C90.3771 165.061 90.6191 165.271 90.6369 165.549C91.0513 172.621 91.3609 178.812 91.5814 184.474L91.7842 189.314C91.8198 190.13 91.8465 190.72 91.9977 191.388C92.1809 192.169 92.4193 192.81 92.7288 193.356C92.743 193.383 92.7662 193.42 92.7893 193.456C94.1608 195.915 96.8824 197.485 99.581 197.427H99.6966C102.393 197.427 104.992 195.888 106.328 193.482C106.373 193.415 106.396 193.378 106.415 193.339C106.785 192.688 106.999 191.958 107.141 191.397C107.299 190.688 107.324 190.068 107.36 189.21L107.559 184.476C107.794 178.5 108.105 172.311 108.509 165.553C108.527 165.287 108.749 165.077 109.016 165.076C109.297 165.076 109.523 165.303 109.523 165.581C109.537 172.328 109.489 178.528 109.377 184.529L109.302 189.268C109.297 190.303 109.224 191.128 109.08 191.794C108.968 192.273 108.844 192.706 108.699 193.11L108.634 193.296L108.73 193.468C108.963 193.881 109.231 194.269 109.528 194.622C110.727 196.083 112.485 197.081 114.346 197.354C116.224 197.631 118.199 197.196 119.766 196.157C119.814 196.126 119.862 196.09 119.91 196.055L119.981 196.003C120.856 195.383 121.61 194.571 122.158 193.652C122.543 193.011 122.827 192.33 123.005 191.63C123.16 191.03 123.251 190.275 123.348 189.477C123.384 189.181 123.419 188.882 123.46 188.589L124.672 179.021C125.241 174.654 125.83 170.371 126.422 166.29C126.461 166.028 126.691 165.834 126.965 165.859C127.1 165.87 127.223 165.932 127.312 166.037C127.399 166.139 127.442 166.271 127.431 166.405C127.098 170.515 126.719 174.823 126.303 179.207L125.353 188.8C125.316 189.103 125.289 189.41 125.261 189.718C125.193 190.458 125.124 191.222 124.917 192.112C124.64 193.266 124.142 194.362 123.436 195.367L123.188 195.718L123.535 195.97C124.421 196.611 125.433 197.063 126.46 197.276C127.392 197.476 128.349 197.5 129.306 197.344C130.252 197.191 131.143 196.872 131.958 196.397C132.122 196.301 132.282 196.195 132.44 196.087C133.881 195.103 134.952 193.665 135.459 192.036C135.638 191.458 135.784 190.681 135.923 189.931C135.982 189.621 136.041 189.307 136.101 189.008L137.937 179.501C138.785 175.192 139.655 170.938 140.518 166.864C140.573 166.606 140.819 166.432 141.087 166.467C141.365 166.508 141.557 166.765 141.516 167.042C140.907 171.183 140.246 175.473 139.548 179.792L137.972 189.339C137.914 189.662 137.862 189.983 137.812 190.305C137.7 191.018 137.585 191.755 137.337 192.622C136.891 194.115 136.046 195.514 134.893 196.665L134.287 197.271L135.135 197.404C139.221 198.077 143.097 195.468 143.999 191.474C144.067 191.16 146.876 178 150.118 161.698L150.124 161.707C147.301 180.84 145.438 191.624 145.404 191.786V191.793L145.397 191.819C145.342 192.067 145.271 192.323 145.18 192.605C145.159 192.674 145.134 192.741 145.109 192.809L145.088 192.867C145.029 193.032 144.969 193.193 144.901 193.351C144.857 193.456 144.81 193.56 144.762 193.665C144.702 193.794 144.638 193.92 144.574 194.042L144.551 194.089C144.497 194.19 144.444 194.291 144.387 194.39C144.355 194.447 144.321 194.498 144.287 194.549L144.259 194.594C144.063 194.911 143.85 195.216 143.624 195.5L143.594 195.541C143.476 195.686 143.348 195.833 143.19 196.003L143.124 196.074C142.976 196.23 142.834 196.37 142.688 196.505L142.685 196.509C142.685 196.509 142.672 196.519 142.667 196.524L142.663 196.528C140.945 198.101 138.737 198.959 136.432 198.959C135.928 198.959 135.42 198.916 134.918 198.835L134.082 198.703L131.375 198.281C130.788 198.507 130.177 198.671 129.546 198.772C129.057 198.852 128.559 198.893 128.069 198.893C127.433 198.893 126.794 198.826 126.173 198.691C124.964 198.441 123.763 197.906 122.713 197.145L122.366 196.893L121.738 196.439C121.447 196.709 121.139 196.959 120.817 197.188L120.76 197.228C120.693 197.278 120.621 197.331 120.552 197.375C119.09 198.343 117.284 198.882 115.479 198.882C115.034 198.882 114.586 198.85 114.15 198.785C111.944 198.46 109.863 197.28 108.441 195.548C108.118 195.165 107.814 194.729 107.545 194.264C105.956 197.065 102.89 198.87 99.7091 198.87H99.6077C99.5543 198.87 99.5009 198.87 99.4493 198.87C96.2847 198.87 93.2233 197.067 91.6152 194.268C91.352 194.725 91.0496 195.158 90.7151 195.555C89.2938 197.29 87.2054 198.469 84.9996 198.778C84.5727 198.84 84.1245 198.874 83.678 198.874C81.8706 198.874 80.0686 198.34 78.5993 197.374C78.521 197.322 78.4552 197.274 78.3876 197.225L78.336 197.186C78.0158 196.961 77.7081 196.712 77.4181 196.445L76.792 196.899L76.4451 197.15C75.392 197.911 74.1895 198.443 72.9692 198.689C72.3555 198.817 71.7222 198.881 71.0925 198.881C70.6069 198.881 70.1141 198.842 69.6321 198.765C68.8387 198.641 68.0738 198.418 67.3516 198.097L65.1155 198.629L64.3542 198.81L64.3311 198.815L64.3079 198.82L64.2652 198.829L64.2403 198.835L64.2154 198.838C63.7209 198.92 63.2175 198.96 62.7194 198.96C58.4679 198.96 54.7021 195.947 53.7646 191.794C53.7255 191.612 51.8595 180.4 48.8461 160.789C52.1619 177.498 55.0703 191.131 55.1379 191.449L55.1343 191.456Z" fill="#3B2D55"/>
<path d="M141.169 157.511C141.619 154.009 142.617 150.561 144.369 147.533C146.456 143.918 150.019 140.72 154.24 140.353C154.462 139.117 154.372 139.594 154.542 138.679C145.682 139.025 140.804 145.714 139.287 153.586C139.034 154.809 138.353 156.007 138.236 157.247H91.8696C90.8201 151.948 87.6715 147.134 83.6602 143.534C78.9497 139.335 72.7202 136.632 66.3412 136.807C60.108 136.951 54.0457 139.915 50.0183 144.618C48.7749 146.058 47.7414 147.687 46.9338 149.419C46.6634 149.999 48.2982 154.258 48.4974 153.703C49.1431 151.893 50.0094 150.185 51.1017 148.643C53.3537 145.523 56.5717 143.133 60.1667 141.755C60.8231 141.5 61.6752 141.261 62.3547 141.071L63.2495 140.883C63.4968 140.819 63.8988 140.763 64.1496 140.729C64.6584 140.638 65.45 140.58 65.9676 140.55C73.8088 140.224 81.3014 144.799 85.6898 151.104C87.0115 152.986 88.0646 155.1 88.7139 157.314C87.8743 157.449 87.0987 157.782 86.4387 158.277C85.713 158.821 142.672 158.011 141.167 157.513L141.169 157.511Z" fill="#4D9BB6"/>
<path d="M141.635 155.883C142.085 152.382 143.083 148.934 144.835 145.906C146.922 142.291 150.323 139.053 154.544 138.686C154.767 137.451 154.927 136.614 155.224 134.91C146.363 135.256 140.765 144.048 139.25 151.917C138.997 153.141 138.819 154.376 138.702 155.617H92.3357C91.2861 150.318 88.1375 145.505 84.1262 141.904C79.4158 137.706 73.1862 135.002 66.8072 135.178C60.5741 135.322 54.5117 138.286 50.4844 142.989C48.8247 144.911 47.5386 147.173 46.6652 149.561C47.0441 151.598 47.4372 153.621 47.6489 154.683C47.994 154.534 48.2875 154.236 48.4316 153.766C49.0986 151.325 50.1393 149.028 51.5677 147.014C53.8197 143.893 57.0377 141.504 60.6328 140.126C61.2892 139.871 62.1413 139.631 62.8208 139.442L63.7155 139.254C63.9628 139.19 64.3648 139.133 64.6157 139.1C65.1244 139.009 65.916 138.951 66.4336 138.92C74.2749 138.594 81.7674 143.17 86.1559 149.474C87.4776 151.357 88.5307 153.47 89.18 155.685C87.4171 155.967 85.9317 157.131 85.222 158.807C85.1864 158.89 85.1419 158.998 85.1064 159.083L144.874 159.062C144.325 157.548 143.138 156.381 141.633 155.883H141.635Z" fill="#506AB2"/>
<path d="M49.2374 163.345L49.2463 163.393C49.241 163.365 49.2374 163.345 49.2374 163.345Z" fill="#506AB2"/>
<path d="M49.2445 163.393L49.2356 163.345C49.2356 163.345 49.2392 163.365 49.2445 163.393Z" fill="#506AB2"/>
<path d="M115.74 71.0784C130.229 71.0784 142.019 82.8289 142.019 97.2689C142.019 111.709 130.229 123.459 115.74 123.459C101.251 123.459 89.461 111.709 89.461 97.2689C89.461 82.8289 101.251 71.0784 115.74 71.0784Z" fill="#4D9BB6"/>
<path d="M144.625 95.1556C144.625 109.596 132.835 121.346 118.346 121.346C103.857 121.346 92.067 109.597 92.067 95.1556C92.067 80.7139 103.857 68.9651 118.346 68.9651C132.837 68.9651 144.625 80.7139 144.625 95.1556Z" fill="url(#paint1_linear_36_2363)"/>
<path d="M100.41 95.5386C100.796 106.536 108.678 112.354 113.705 111.168C117.919 110.175 118.442 100.839 115.808 98.3911C114.077 96.7813 110.637 96.3452 110.596 95.184C110.555 94.0228 113.956 93.3491 115.569 91.6223C118.028 88.9949 116.852 79.7211 112.579 79.0226C107.481 78.1893 100.026 84.5415 100.41 95.5386Z" fill="#3B2D55"/>
<g opacity="0.15">
<path d="M105.627 81.6251C103.349 84.4812 101.748 88.6669 101.931 93.9128C102.317 104.91 110.199 110.728 115.226 109.542C115.555 109.464 115.859 109.331 116.144 109.159C115.548 110.179 114.739 110.925 113.707 111.168C108.678 112.354 100.796 106.536 100.412 95.5386C100.189 89.1864 102.585 84.3872 105.629 81.6251" fill="#3B2D55"/>
</g>
<path d="M108.425 130.152C99.6859 127.728 91.8678 122.224 86.8141 114.724C85.1508 112.25 83.6922 109.638 82.543 106.876C82.141 105.901 81.0221 105.438 80.0455 105.841C79.1027 106.231 78.6402 107.293 78.9782 108.239C81.1608 114.473 85.2238 119.999 90.2864 124.218C95.3046 128.438 101.41 131.381 107.84 132.622C109.429 132.895 109.977 130.618 108.425 130.152Z" fill="#4D9BB6"/>
<path d="M109.697 130.152C100.958 127.728 93.1397 122.224 88.086 114.724C86.4227 112.25 84.9641 109.638 83.8149 106.876C83.4129 105.901 82.294 105.438 81.3174 105.841C80.3746 106.231 79.9121 107.293 80.2501 108.239C82.4327 114.473 86.4957 119.999 91.5583 124.218C96.5765 128.438 102.682 131.381 109.112 132.622C110.701 132.895 111.249 130.618 109.697 130.152Z" fill="#3B2D55"/>
<path d="M148.79 168.336C148.701 168.894 144.058 191.208 143.999 191.477C143.643 193.058 142.814 194.416 141.695 195.446C142.946 189.484 145.059 179.296 147.368 167.682C147.368 167.682 147.738 168.407 148.79 168.336Z" fill="#758AC6"/>
<path d="M90.3006 157.493L90.0089 155.64C87.9045 155.64 86.01 156.899 85.1899 158.83C83.516 162.773 79.9476 169.362 73.8195 172.637C73.6754 172.713 73.7554 172.931 73.9155 172.901C80.2661 171.72 82.7049 169.378 84.224 168.001C88.0717 164.515 90.3024 157.491 90.3024 157.491L90.3006 157.493ZM49.2445 163.416L49.2356 163.368C49.2356 163.368 49.2392 163.388 49.2445 163.416Z" fill="#506AB2"/>
<path d="M92.5989 159.078C91.4622 159.078 89.6478 159.266 88.8277 161.138C88.0077 163.01 87.707 158.858 87.7711 158.842C87.8351 158.826 92.4424 157.961 92.4424 157.961L92.6007 159.078H92.5989Z" fill="#506AB2"/>
<path d="M139.99 155.69H136.599C136.599 155.69 136.272 159.064 138.534 159.064C141.249 159.064 142.9 162.298 144.218 164.482C147.125 169.299 147.368 167.719 147.009 166.763C146.249 164.751 145.566 162.237 145.129 159.945C144.659 157.479 142.507 155.69 139.99 155.69Z" fill="#506AB2"/>
<path d="M104.144 48.0648C90.3575 52.965 86.8745 53.4525 78.4819 55.3707C68.6928 57.6063 62.5166 59.9164 56.0504 63.8893C60.6239 58.8633 64.6637 54.4435 73.0937 52.0856C89.8684 47.3946 94.5699 47.7687 104.145 48.0648H104.144Z" fill="#4D9BB6"/>
<path d="M53.1794 65.6498C51.726 63.9833 48.5401 60.4199 48.5401 54.612C48.5401 46.572 66.914 30.5826 76.2103 33.2809C83.0038 35.2523 85.3536 39.7802 87.2339 44.7761C87.7942 46.2671 66.5955 56.0303 53.1794 65.6498Z" fill="url(#paint2_linear_36_2363)"/>
<path d="M111.202 31.0559C98.8605 33.974 61.8566 55.2378 53.1793 65.6498C66.4372 57.3457 66.0476 59.849 85.3536 50.0858C101.097 42.1239 98.7466 36.7379 111.202 31.0559Z" fill="#FCC86B"/>
<g opacity="0.3">
<path d="M110.861 31.2332C101.822 35.3249 100.198 40.2836 93.3887 45.2406C91.834 46.3716 90.048 47.6144 87.8262 48.7757C90.6617 48.3785 93.7285 48.0984 95.8329 48.0186C99.2216 40.8722 102.05 35.3728 110.859 31.2332H110.861Z" fill="#B03831"/>
</g>
<path d="M32.831 154.561H13.5926V164.015H32.831V154.561Z" stroke="#F97100" stroke-width="17.39" stroke-linecap="round" stroke-linejoin="round"/>
<path d="M42.6965 200.001H2.5316C1.68664 200.001 1 199.317 1 198.475V162.095C1 161.252 1.68664 160.569 2.5316 160.569H42.6965V200.003V200.001Z" fill="url(#paint3_linear_36_2363)"/>
<path d="M42.6841 200.001L47.7254 197.987C48.1221 197.819 48.2163 197.741 48.2235 197.257V162.758C48.2235 162.351 48.1452 162.2 47.7111 162.051L42.6841 160.569V200.003V200.001Z" fill="url(#paint4_linear_36_2363)"/>
<g style="mix-blend-mode:multiply" opacity="0.7">
<path d="M42.6841 198.395V160.558H41.2521V198.395H1V198.475C1 199.318 1.68664 200.001 2.5316 200.001H42.6841L47.8161 197.948C48.122 197.819 48.2234 197.682 48.2234 197.306C48.2234 197.219 48.2163 196.321 48.2163 196.301L42.6858 198.395H42.6841Z" fill="#FCC86B"/>
</g>
<path d="M174.818 158.048C173.758 158.497 172.274 158.75 172.274 158.75C171.833 158.825 171.609 158.548 171.776 158.135L175.133 149.856C175.3 149.443 175.213 148.817 174.937 148.464L172.303 145.104C172.027 144.753 171.438 144.516 170.995 144.578L166.76 145.17C166.317 145.232 165.817 145.622 165.65 146.035L162.293 154.313C162.126 154.726 161.772 154.77 161.507 154.41C161.507 154.41 160.615 153.201 160.165 152.144C159.048 149.521 158.934 146.473 160.091 143.62C161.247 140.77 163.453 138.655 166.085 137.541C168.718 136.428 171.776 136.314 174.638 137.467C177.499 138.619 179.621 140.818 180.738 143.441C181.855 146.065 181.969 149.115 180.813 151.965C179.656 154.816 177.451 156.931 174.818 158.044V158.048Z" fill="#3B2D55"/>
<path d="M174.96 126.341L170.275 137.898C170.107 138.313 170.308 138.785 170.724 138.953L176.414 141.244C176.83 141.412 177.304 141.211 177.472 140.796L182.158 129.239C182.326 128.824 182.125 128.352 181.708 128.184L176.018 125.893C175.602 125.725 175.128 125.926 174.96 126.341Z" fill="#3B2D55"/>
<path d="M197.109 103.063C196.659 102.006 195.768 100.797 195.768 100.797C195.502 100.437 195.148 100.481 194.981 100.894L191.625 109.174C191.457 109.587 190.957 109.977 190.515 110.039L186.279 110.631C185.836 110.693 185.247 110.455 184.972 110.104L182.339 106.745C182.063 106.394 181.974 105.768 182.143 105.353L185.498 97.0738C185.665 96.6608 185.441 96.3842 185 96.4586C185 96.4586 183.516 96.7122 182.456 97.1589C179.824 98.2723 177.618 100.387 176.462 103.238C175.305 106.089 175.419 109.138 176.536 111.762C177.653 114.386 179.776 116.584 182.636 117.737C185.496 118.889 188.556 118.775 191.189 117.662C193.821 116.549 196.027 114.434 197.183 111.583C198.34 108.732 198.226 105.683 197.109 103.059V103.063Z" fill="#3B2D55"/>
<path d="M179.798 114.409L175.113 125.966C174.944 126.381 175.145 126.853 175.562 127.021L181.252 129.312C181.668 129.48 182.142 129.279 182.31 128.865L186.995 117.307C187.164 116.892 186.963 116.42 186.546 116.252L180.856 113.961C180.44 113.794 179.966 113.994 179.798 114.409Z" fill="#3B2D55"/>
<path d="M197.109 103.063C196.659 102.006 195.768 100.797 195.768 100.797C195.502 100.437 195.148 100.481 194.981 100.894L191.625 109.174C191.457 109.587 190.957 109.977 190.515 110.039L186.279 110.631C186.119 110.654 185.939 110.636 185.763 110.588L171.858 144.753C172.036 144.845 172.196 144.964 172.304 145.104L174.939 148.464C175.215 148.815 175.303 149.441 175.134 149.856L171.778 158.135C171.611 158.548 171.835 158.825 172.276 158.75C172.276 158.75 173.759 158.497 174.82 158.048C177.452 156.935 179.658 154.82 180.814 151.969C181.971 149.118 181.857 146.069 180.74 143.445C180.117 141.982 179.18 140.651 177.979 139.561L182.161 129.243C182.188 129.177 182.202 129.111 182.211 129.044C182.252 128.989 182.287 128.932 182.314 128.867L186.496 118.549C188.12 118.596 189.721 118.286 191.19 117.666C193.823 116.552 196.029 114.437 197.185 111.587C198.342 108.736 198.228 105.686 197.111 103.063H197.109Z" fill="#453963"/>
</g>
<defs>
<linearGradient id="paint0_linear_36_2363" x1="53.1011" y1="47.969" x2="126.038" y2="47.969" gradientUnits="userSpaceOnUse">
<stop offset="0.46" stop-color="#F97100"/>
<stop offset="1" stop-color="#F98912"/>
</linearGradient>
<linearGradient id="paint1_linear_36_2363" x1="92.067" y1="95.1538" x2="144.625" y2="95.1538" gradientUnits="userSpaceOnUse">
<stop stop-color="#CECAD5"/>
<stop offset="0.66" stop-color="white"/>
<stop offset="1" stop-color="white"/>
</linearGradient>
<linearGradient id="paint2_linear_36_2363" x1="52.8076" y1="49.3147" x2="78.7469" y2="49.3147" gradientUnits="userSpaceOnUse">
<stop stop-color="#FA9B20"/>
<stop offset="1" stop-color="#FAAF2F"/>
</linearGradient>
<linearGradient id="paint3_linear_36_2363" x1="21.8483" y1="198.959" x2="21.8483" y2="165.904" gradientUnits="userSpaceOnUse">
<stop stop-color="#FA9B20"/>
<stop offset="1" stop-color="#FAAF2F"/>
</linearGradient>
<linearGradient id="paint4_linear_36_2363" x1="45.4538" y1="198.67" x2="45.4538" y2="165.12" gradientUnits="userSpaceOnUse">
<stop offset="0.47" stop-color="#F97100"/>
<stop offset="1" stop-color="#F98912"/>
</linearGradient>
<clipPath id="clip0_36_2363">
<rect width="200" height="200" fill="white"/>
</clipPath>
</defs>
</svg>
