<svg width="200" height="200" viewBox="0 0 200 200" fill="none" xmlns="http://www.w3.org/2000/svg">
<g clip-path="url(#clip0_36_1338)">
<path d="M121.08 191.626C120.221 195.442 116.839 198.072 113.062 198.072C112.62 198.072 112.172 198.035 111.722 197.96L111.675 197.95L110.87 197.758L111.441 197.168C112.67 195.939 113.561 194.451 114.021 192.861C114.279 191.941 114.402 191.155 114.521 190.393C114.574 190.053 114.629 189.714 114.692 189.365L116.359 179.22C117.098 174.621 117.799 170.06 118.443 165.663C118.483 165.384 118.297 165.117 118.021 165.059C117.732 164.999 117.447 165.185 117.385 165.474C116.472 169.802 115.552 174.325 114.651 178.914L112.706 189.018C112.643 189.333 112.582 189.657 112.522 189.981C112.371 190.787 112.215 191.621 112.029 192.243C111.507 193.974 110.372 195.506 108.833 196.555C108.667 196.67 108.497 196.779 108.324 196.881C107.461 197.384 106.511 197.721 105.502 197.881C104.501 198.04 103.489 198.017 102.5 197.811C101.417 197.592 100.345 197.115 99.4048 196.434L99.0378 196.167L99.2985 195.793C100.046 194.723 100.572 193.554 100.859 192.318C101.073 191.37 101.148 190.553 101.221 189.762C101.251 189.438 101.281 189.118 101.319 188.792L102.324 178.597C102.764 173.945 103.167 169.364 103.519 164.985C103.541 164.703 103.34 164.449 103.059 164.409C102.918 164.389 102.775 164.426 102.661 164.512C102.546 164.597 102.47 164.723 102.45 164.866C101.822 169.214 101.198 173.769 100.594 178.406L99.3101 188.574C99.2686 188.883 99.2304 189.194 99.1939 189.503C99.0909 190.36 98.993 191.169 98.8319 191.815C98.6493 192.561 98.3504 193.287 97.9453 193.972C97.3641 194.952 96.5655 195.816 95.634 196.471L95.5592 196.525C95.5094 196.564 95.458 196.6 95.4065 196.635C93.756 197.726 91.6606 198.188 89.6665 197.894C87.7005 197.618 85.8359 196.56 84.5557 194.991C84.2452 194.619 83.9596 194.205 83.7122 193.765L83.6093 193.58L83.679 193.381C83.8351 192.943 83.9679 192.471 84.0759 191.978C84.2817 191.061 84.2967 189.999 84.3033 189.297L84.3847 184.258C84.4976 178.232 84.5507 171.641 84.5457 164.107C84.5457 163.823 84.3216 163.587 84.0393 163.57C83.7454 163.557 83.4881 163.78 83.4715 164.075C83.0315 171.596 82.7044 178.18 82.4702 184.201L82.256 189.348C82.2179 190.215 82.1913 190.843 82.0302 191.554C81.836 192.383 81.5819 193.067 81.2548 193.647C81.2399 193.675 81.2166 193.713 81.1917 193.752C79.7389 196.368 76.8547 198.037 73.9955 197.975H73.8726C71.0151 197.975 68.2621 196.339 66.8458 193.78C66.7993 193.708 66.7744 193.669 66.7528 193.627C66.3609 192.936 66.1351 192.159 65.984 191.562C65.8163 190.808 65.7898 190.149 65.7532 189.237L65.5424 184.203C65.2933 177.848 64.9645 171.266 64.5362 164.079C64.5179 163.795 64.2821 163.574 63.9998 163.572C63.7026 163.572 63.4619 163.813 63.4619 164.11C63.4469 171.287 63.4984 177.878 63.6163 184.261L63.696 189.3C63.701 190.401 63.779 191.278 63.9318 191.986C64.0497 192.496 64.1825 192.954 64.3336 193.386L64.405 193.584L64.302 193.768C64.0546 194.207 63.7707 194.62 63.4552 194.996C62.185 196.549 60.322 197.61 58.3511 197.902C56.3603 198.198 54.2698 197.735 52.6094 196.63C52.558 196.597 52.5081 196.559 52.4567 196.52L52.382 196.466C51.4538 195.805 50.6568 194.941 50.0757 193.966C49.6688 193.283 49.3667 192.559 49.179 191.815C49.0147 191.177 48.9183 190.375 48.8154 189.526C48.7772 189.211 48.739 188.893 48.6975 188.583L47.4124 178.408C46.808 173.765 46.1853 169.209 45.5577 164.869C45.5162 164.59 45.2721 164.384 44.9815 164.411C44.8387 164.422 44.7075 164.489 44.6146 164.598C44.5216 164.708 44.4768 164.846 44.4884 164.99C44.8404 169.36 45.2422 173.941 45.6839 178.605L46.6901 188.807C46.7283 189.129 46.7582 189.455 46.788 189.784C46.8594 190.569 46.9325 191.383 47.1517 192.328C47.4472 193.556 47.9736 194.722 48.7208 195.79L48.9814 196.163L48.6128 196.431C47.673 197.113 46.6021 197.595 45.5145 197.821C44.5282 198.034 43.5121 198.058 42.4975 197.894C41.4963 197.731 40.5499 197.392 39.6865 196.887C39.5121 196.786 39.3444 196.673 39.1767 196.559C37.6508 195.512 36.5151 193.984 35.9788 192.25C35.7878 191.636 35.6351 190.81 35.4856 190.011C35.4242 189.681 35.3611 189.347 35.2963 189.029L33.3503 178.921C32.4504 174.337 31.5305 169.816 30.6157 165.482C30.5559 165.206 30.2985 165.022 30.0113 165.06C29.7174 165.103 29.5131 165.377 29.5563 165.671C30.2005 170.076 30.9029 174.637 31.6401 179.23L33.3088 189.383C33.3719 189.725 33.4251 190.068 33.4799 190.41C33.5977 191.167 33.7206 191.953 33.983 192.875C34.4562 194.462 35.3511 195.949 36.5732 197.173L37.2158 197.818L36.3158 197.959C31.9872 198.675 27.8793 195.899 26.9246 191.654C26.8532 191.32 23.8777 177.326 20.4407 159.989L20.434 159.998C23.4244 180.343 25.397 191.813 25.4335 191.984V191.993L25.4418 192.021C25.5016 192.283 25.5763 192.557 25.6726 192.855C25.6959 192.928 25.7224 192.999 25.7473 193.072L25.7689 193.134C25.8304 193.308 25.8968 193.479 25.9665 193.647C26.013 193.758 26.0628 193.87 26.1143 193.981C26.179 194.119 26.2455 194.252 26.3152 194.383L26.3401 194.431C26.3966 194.539 26.453 194.647 26.5128 194.751C26.5476 194.811 26.5825 194.866 26.6174 194.923L26.6473 194.971C26.8548 195.308 27.0823 195.633 27.3214 195.934L27.3546 195.977C27.4791 196.132 27.6153 196.288 27.7813 196.469L27.8511 196.544C28.0071 196.708 28.1582 196.859 28.3127 197.002L28.3176 197.007C28.3176 197.007 28.3309 197.019 28.3376 197.025L28.3409 197.029C30.1607 198.7 32.5002 199.615 34.9443 199.615C35.4773 199.615 36.017 199.57 36.5483 199.482L37.435 199.344L40.3041 198.896C40.9251 199.135 41.5727 199.311 42.2418 199.419C42.7599 199.503 43.2879 199.547 43.8059 199.547C44.4801 199.547 45.1575 199.475 45.815 199.332C47.0969 199.067 48.3687 198.497 49.4812 197.69L49.8498 197.422L50.514 196.939C50.8228 197.226 51.1499 197.492 51.492 197.735L51.5518 197.778C51.6232 197.831 51.6979 197.886 51.7726 197.936C53.3218 198.965 55.2345 199.538 57.1473 199.538C57.6189 199.538 58.0921 199.503 58.5554 199.435C60.8932 199.09 63.0982 197.836 64.6042 195.994C64.9463 195.587 65.2701 195.124 65.554 194.629C67.2376 197.607 70.4871 199.527 73.8577 199.527H73.9656C74.0221 199.527 74.0785 199.527 74.1333 199.527C77.4857 199.527 80.7301 197.61 82.4337 194.632C82.7127 195.119 83.0331 195.577 83.3868 196.001C84.8928 197.846 87.1044 199.1 89.4423 199.429C89.8956 199.495 90.3705 199.53 90.8437 199.53C92.7581 199.53 94.6676 198.964 96.2234 197.934C96.3048 197.879 96.3762 197.828 96.4476 197.774L96.5023 197.733C96.8427 197.492 97.1682 197.23 97.4754 196.946L98.1379 197.429L98.5048 197.696C99.6206 198.505 100.894 199.07 102.188 199.332C102.837 199.467 103.509 199.537 104.177 199.537C104.691 199.537 105.213 199.495 105.724 199.414C106.566 199.281 107.375 199.043 108.14 198.703L110.508 199.268L111.313 199.46L111.338 199.465L111.363 199.47L111.41 199.48L111.436 199.485L111.463 199.49C111.986 199.577 112.519 199.621 113.048 199.621C117.553 199.621 121.543 196.416 122.536 191.999C122.577 191.805 124.553 179.881 127.746 159.028C124.233 176.797 121.153 191.295 121.08 191.632V191.626Z" fill="#3B2D55"/>
<path d="M74.0021 39C36.3192 39 10 62.4461 10 96.0157C10 105.344 15.667 135.89 20.4423 159.983C23.8794 177.32 26.8548 191.313 26.9262 191.647C27.881 195.894 31.9888 198.67 36.3175 197.952L37.2174 197.811L36.5749 197.166C35.3545 195.942 34.4578 194.454 33.9846 192.868C33.7223 191.946 33.5994 191.162 33.4815 190.403C33.4284 190.061 33.3736 189.719 33.3105 189.377L31.6418 179.223C30.9046 174.631 30.2022 170.07 29.558 165.665C29.5165 165.372 29.719 165.098 30.0129 165.053C30.2985 165.015 30.5575 165.2 30.6173 165.475C31.5322 169.809 32.4521 174.332 33.352 178.914L35.298 189.023C35.3628 189.342 35.4242 189.674 35.4873 190.004C35.6367 190.802 35.7895 191.629 35.9804 192.243C36.5167 193.976 37.6525 195.505 39.1784 196.552C39.3461 196.666 39.5154 196.779 39.6881 196.881C40.5515 197.386 41.4963 197.724 42.4992 197.887C43.5137 198.052 44.5282 198.027 45.5162 197.814C46.6037 197.588 47.6747 197.107 48.6145 196.424L48.9831 196.157L48.7224 195.783C47.9752 194.715 47.4472 193.551 47.1533 192.321C46.9342 191.376 46.8611 190.562 46.7897 189.777C46.7598 189.448 46.7299 189.122 46.6917 188.8L45.6855 178.599C45.2455 173.935 44.842 169.354 44.49 164.984C44.4784 164.841 44.5232 164.701 44.6162 164.592C44.7092 164.482 44.8404 164.416 44.9832 164.404C45.2737 164.377 45.5178 164.583 45.5593 164.862C46.187 169.203 46.8096 173.757 47.414 178.401L48.6992 188.576C48.7407 188.887 48.7789 189.204 48.8171 189.519C48.92 190.368 49.0163 191.17 49.1807 191.808C49.3683 192.552 49.6705 193.276 50.0773 193.959C50.6584 194.934 51.4554 195.798 52.3836 196.459L52.4583 196.514C52.5098 196.552 52.5596 196.59 52.6111 196.623C54.2715 197.728 56.362 198.191 58.3528 197.896C60.3237 197.605 62.1867 196.544 63.4569 194.989C63.7724 194.614 64.0563 194.202 64.3037 193.761L64.4066 193.577L64.3352 193.379C64.1841 192.949 64.0513 192.489 63.9334 191.979C63.7807 191.27 63.7026 190.393 63.6976 189.293L63.6179 184.254C63.5001 177.873 63.4502 171.28 63.4635 164.103C63.4635 163.806 63.7043 163.565 64.0015 163.565C64.2854 163.565 64.5195 163.788 64.5378 164.072C64.9662 171.259 65.295 177.841 65.544 184.196L65.7549 189.23C65.7914 190.142 65.818 190.802 65.9857 191.556C66.1368 192.154 66.3609 192.929 66.7545 193.62C66.776 193.662 66.8009 193.702 66.8474 193.773C68.2638 196.331 71.0167 197.969 73.8743 197.969H73.9972C76.8564 198.03 79.7405 196.361 81.1934 193.745C81.2183 193.707 81.2432 193.668 81.2565 193.64C81.5836 193.061 81.836 192.378 82.0319 191.547C82.1929 190.837 82.2195 190.21 82.2577 189.342L82.4719 184.194C82.706 178.173 83.0331 171.591 83.4731 164.068C83.4914 163.773 83.7488 163.549 84.041 163.564C84.3249 163.58 84.5474 163.816 84.5474 164.1C84.5524 171.634 84.4993 178.225 84.3864 184.251L84.305 189.29C84.2967 189.993 84.2834 191.054 84.0775 191.971C83.9696 192.463 83.8368 192.936 83.6807 193.374L83.6109 193.574L83.7139 193.758C83.9613 194.198 84.2469 194.612 84.5574 194.984C85.8375 196.552 87.7022 197.612 89.6681 197.887C91.6639 198.181 93.7577 197.72 95.4081 196.628C95.4613 196.593 95.5111 196.557 95.5609 196.519L95.6356 196.464C96.5671 195.809 97.3658 194.946 97.9469 193.966C98.3521 193.28 98.6509 192.554 98.8336 191.808C98.9946 191.164 99.0926 190.353 99.1955 189.496C99.2321 189.187 99.2703 188.877 99.3118 188.568L100.595 178.399C101.2 173.764 101.824 169.208 102.452 164.859C102.472 164.716 102.548 164.59 102.662 164.505C102.777 164.419 102.92 164.382 103.061 164.402C103.34 164.442 103.542 164.696 103.521 164.979C103.169 169.359 102.765 173.94 102.325 178.59L101.321 188.785C101.283 189.111 101.253 189.433 101.223 189.755C101.15 190.546 101.075 191.363 100.861 192.311C100.572 193.547 100.047 194.716 99.3001 195.786L99.0395 196.16L99.4064 196.427C100.346 197.108 101.419 197.585 102.501 197.804C103.491 198.01 104.502 198.033 105.503 197.874C106.515 197.715 107.464 197.377 108.326 196.874C108.5 196.773 108.668 196.663 108.834 196.549C110.373 195.499 111.509 193.967 112.031 192.237C112.216 191.614 112.373 190.78 112.524 189.974C112.585 189.651 112.645 189.327 112.708 189.011L114.652 178.908C115.554 174.318 116.474 169.795 117.387 165.467C117.448 165.176 117.734 164.99 118.023 165.052C118.3 165.11 118.485 165.377 118.445 165.656C117.8 170.053 117.1 174.614 116.361 179.213L114.694 189.358C114.631 189.707 114.576 190.046 114.523 190.386C114.403 191.147 114.28 191.934 114.023 192.855C113.561 194.444 112.67 195.934 111.443 197.161L110.872 197.751L111.677 197.944L111.723 197.954C112.173 198.028 112.622 198.065 113.063 198.065C116.841 198.065 120.223 195.436 121.081 191.619C121.153 191.282 124.235 176.783 127.748 159.014C132.483 135.067 138.004 105.178 138.004 96.0091C138.003 62.4461 111.685 39 74.0021 39Z" fill="#57D1E5"/>
<path d="M56.797 63.6055C41.4714 63.6055 29.0034 76.0793 29.0034 91.4082C29.0034 106.737 41.4731 119.211 56.797 119.211C72.1209 119.211 84.5906 106.737 84.5906 91.4082C84.5906 76.0793 72.1209 63.6055 56.797 63.6055Z" fill="#4D9BB6"/>
<path d="M26.2455 89.166C26.2455 104.497 38.7151 116.969 54.0407 116.969C69.3663 116.969 81.8343 104.497 81.8343 89.166C81.8343 73.8354 69.3646 61.3616 54.0407 61.3616C38.7168 61.3616 26.2455 73.8337 26.2455 89.166Z" fill="url(#paint0_linear_36_1338)"/>
<path d="M73.0092 89.5728C72.6008 101.248 64.2655 107.423 58.9472 106.166C54.489 105.111 53.9361 95.2018 56.7239 92.6007C58.5554 90.8933 62.1917 90.4299 62.2365 89.1958C62.2797 87.9634 58.6832 87.2475 56.9747 85.4154C54.3761 82.6267 55.6181 72.7805 60.1377 72.0397C65.5291 71.1545 73.416 77.8979 73.0076 89.5728" fill="#3B2D55"/>
<g opacity="0.15">
<path d="M67.4917 74.802C69.9009 77.8333 71.5962 82.278 71.4019 87.8472C70.9935 99.522 62.6582 105.697 57.3399 104.44C56.9912 104.357 56.6708 104.216 56.3702 104.033C57.0012 105.116 57.858 105.907 58.9489 106.166C64.2671 107.425 72.6041 101.248 73.0109 89.5746C73.2466 82.8311 70.7129 77.7369 67.4933 74.8037" fill="#3B2D55"/>
</g>
<path d="M28.3193 54.5283C16.7562 64.607 10 79.0108 10 96.0157C10 112.056 26.7552 190.846 26.9262 191.647C27.3031 193.328 28.1815 194.773 29.367 195.869C25.2093 175.971 11.9825 111.486 11.9825 96.5389C11.9825 79.7865 17.9401 65.3279 28.3193 54.5283Z" fill="#93E1EF"/>
<path d="M87.473 119.193C91.4696 122.171 87.1094 136.091 89.9703 137.975C92.2152 138.679 100.794 131.751 102.792 123.008C103.544 119.724 102.305 116.691 99.9909 116.213C97.6763 115.734 91.6124 117.779 87.4714 119.193" fill="#4D9BB6"/>
<path d="M53.5608 129.004C56.8252 128.952 60.1111 128.212 63.339 127.3C73.323 124.416 82.2212 119.621 92.1969 116.153C94.9233 115.336 97.7958 114.389 100.856 115.009C103.536 115.529 104.735 117.998 105.201 120.46C106.184 125.426 103.601 130.313 100.238 133.709C96.9407 136.982 92.7863 139.659 88.0592 140.142C86.7757 140.197 83.6159 140.26 84.1472 138.149C84.3681 137.485 85.0721 137.123 85.7329 137.304C86.9616 137.594 88.5124 137.29 89.9487 136.747C96.1055 134.342 104.009 126.557 100.819 119.531C99.6222 116.915 86.4552 122.692 83.8965 123.584C80.6903 124.833 77.4657 126.102 74.1881 127.282C67.5431 129.6 60.7105 131.811 53.5193 131.618C51.8556 131.525 51.8506 129.055 53.5592 129.004" fill="#4D9BB6"/>
<path d="M86.3539 118.113C90.3505 121.091 85.9903 135.012 88.8512 136.895C91.0961 137.6 99.6754 130.672 101.673 121.928C102.425 118.645 101.186 115.612 98.8718 115.133C96.5571 114.655 90.4933 116.7 86.3523 118.113" fill="#3B2D55"/>
<path d="M52.4417 127.926C55.7061 127.875 58.992 127.134 62.2199 126.222C72.2039 123.338 81.102 118.543 91.0778 115.075C93.8042 114.258 96.6767 113.311 99.7368 113.931C102.417 114.451 103.616 116.921 104.082 119.382C105.065 124.348 102.481 129.235 99.1191 132.632C95.8216 135.904 91.6672 138.581 86.94 139.064C85.6565 139.119 82.4968 139.182 83.0281 137.071C83.249 136.407 83.953 136.045 84.6138 136.226C85.8425 136.517 87.3933 136.213 88.8296 135.669C94.9864 133.264 102.89 125.479 99.7003 118.454C98.5031 115.838 85.3361 121.614 82.7774 122.506C79.5711 123.755 76.3466 125.024 73.069 126.204C66.424 128.522 59.5914 130.733 52.4002 130.54C50.7365 130.447 50.7315 127.978 52.4401 127.926" fill="#3B2D55"/>
<path d="M185.269 185.241H114.938V189.059H185.269V185.241Z" fill="#4F4E4E"/>
<path d="M185.269 166.213H114.938V170.031H185.269V166.213Z" fill="#4F4E4E"/>
<path d="M189.123 169.387H111.051C110.567 169.387 110.174 169.78 110.174 170.264V184.967C110.174 185.451 110.567 185.844 111.051 185.844H189.123C189.608 185.844 190 185.451 190 184.967V170.264C190 169.78 189.608 169.387 189.123 169.387Z" fill="#CBCAC9"/>
<path d="M112.208 185.844H111.051C110.568 185.844 110.174 185.452 110.174 184.967V170.264C110.174 169.781 110.566 169.387 111.051 169.387L112.208 169.4V185.844Z" fill="#D8D8D8"/>
<path d="M187.968 169.387H189.125C189.608 169.387 190.002 169.779 190.002 170.264V184.967C190.002 185.45 189.61 185.844 189.125 185.844L187.968 185.83V169.387Z" fill="#B7B7B7"/>
<path d="M181.095 175.632C179.417 175.42 177.999 176.836 178.213 178.516C178.359 179.66 179.282 180.584 180.426 180.73C182.105 180.942 183.523 179.526 183.309 177.846C183.162 176.702 182.239 175.778 181.095 175.632Z" fill="#B7B7B7"/>
<path d="M180.283 175.066C178.605 174.853 177.187 176.27 177.401 177.949C177.547 179.094 178.47 180.017 179.614 180.163C181.293 180.376 182.711 178.959 182.497 177.28C182.351 176.136 181.427 175.212 180.283 175.066Z" fill="url(#paint1_linear_36_1338)"/>
<path d="M185.269 147.25H114.938V151.068H185.269V147.25Z" fill="#4F4E4E"/>
<path d="M185.269 127.923H114.938V131.741H185.269V127.923Z" fill="#4F4E4E"/>
<path d="M174.45 116.902H125.726C119.565 116.902 114.191 120.394 111.461 125.494C110.689 126.936 111.712 128.684 113.346 128.684H186.832C188.466 128.684 189.489 126.936 188.717 125.494C185.987 120.394 180.61 116.902 174.452 116.902H174.45Z" fill="#CBCAC9"/>
<path d="M125.726 200H174.45C180.612 200 185.99 196.506 188.72 191.401C189.489 189.963 188.471 188.219 186.839 188.219H113.337C111.707 188.219 110.687 189.963 111.456 191.401C114.186 196.506 119.562 200 125.726 200Z" fill="#CBCAC9"/>
<path d="M189.123 131.057H111.051C110.567 131.057 110.174 131.45 110.174 131.934V146.637C110.174 147.121 110.567 147.514 111.051 147.514H189.123C189.608 147.514 190 147.121 190 146.637V131.934C190 131.45 189.608 131.057 189.123 131.057Z" fill="#CBCAC9"/>
<path d="M112.208 147.514H111.051C110.568 147.514 110.174 147.122 110.174 146.637V131.934C110.174 131.451 110.566 131.057 111.051 131.057L112.208 131.07V147.514Z" fill="#D8D8D8"/>
<path d="M187.968 131.057H189.125C189.608 131.057 190.002 131.449 190.002 131.934V146.637C190.002 147.12 189.61 147.514 189.125 147.514L187.968 147.501V131.057Z" fill="#B7B7B7"/>
<path d="M181.095 137.302C179.417 137.09 177.999 138.507 178.213 140.186C178.359 141.33 179.282 142.254 180.426 142.4C182.105 142.613 183.523 141.196 183.309 139.517C183.162 138.372 182.239 137.449 181.095 137.302Z" fill="#B7B7B7"/>
<path d="M180.283 136.736C178.605 136.523 177.187 137.94 177.401 139.619C177.547 140.764 178.47 141.687 179.614 141.834C181.293 142.046 182.711 140.629 182.497 138.95C182.351 137.806 181.427 136.882 180.283 136.736Z" fill="url(#paint2_linear_36_1338)"/>
<path d="M189.123 150.221H111.051C110.567 150.221 110.174 150.614 110.174 151.098V165.801C110.174 166.285 110.567 166.678 111.051 166.678H189.123C189.608 166.678 190 166.285 190 165.801V151.098C190 150.614 189.608 150.221 189.123 150.221Z" fill="#CBCAC9"/>
<path d="M112.208 166.678H111.051C110.568 166.678 110.174 166.286 110.174 165.801V151.098C110.174 150.615 110.566 150.221 111.051 150.221L112.208 150.234V166.678Z" fill="#D8D8D8"/>
<path d="M187.968 150.221H189.125C189.608 150.221 190.002 150.613 190.002 151.098V165.801C190.002 166.284 189.61 166.678 189.125 166.678L187.968 166.665V150.221Z" fill="#B7B7B7"/>
<path d="M181.095 156.468C179.417 156.255 177.999 157.672 178.213 159.351C178.359 160.496 179.282 161.419 180.426 161.565C182.105 161.778 183.523 160.361 183.309 158.682C183.162 157.538 182.239 156.614 181.095 156.468Z" fill="#B7B7B7"/>
<path d="M180.283 155.902C178.605 155.689 177.187 157.106 177.401 158.785C177.547 159.929 178.47 160.853 179.614 160.999C181.293 161.212 182.711 159.795 182.497 158.116C182.351 156.971 181.427 156.048 180.283 155.902Z" fill="url(#paint3_linear_36_1338)"/>
<path d="M125.726 116.902C119.565 116.902 114.191 120.394 111.461 125.494C110.805 126.72 111.444 128.165 112.655 128.572C112.655 125.362 115.199 122.503 117.546 120.703C121.941 117.52 125.726 116.902 125.726 116.902Z" fill="#D8D8D8"/>
<path d="M125.726 200C119.565 200 114.191 196.509 111.461 191.408C110.805 190.182 111.444 188.737 112.655 188.33C112.655 191.541 115.199 194.399 117.546 196.2C121.941 199.382 125.726 200 125.726 200Z" fill="#D8D8D8"/>
<path d="M174.45 116.902C180.61 116.902 185.985 120.394 188.715 125.494C189.371 126.72 188.731 128.165 187.521 128.572C187.521 125.362 184.977 122.503 182.629 120.703C178.234 117.52 174.45 116.902 174.45 116.902Z" fill="#B7B7B7"/>
<path d="M174.45 200C180.61 200 185.985 196.509 188.715 191.408C189.371 190.182 188.731 188.737 187.521 188.33C187.521 191.541 184.977 194.399 182.629 196.2C178.234 199.382 174.45 200 174.45 200Z" fill="#B7B7B7"/>
</g>
<defs>
<linearGradient id="paint0_linear_36_1338" x1="81.8343" y1="89.1644" x2="26.2455" y2="89.1644" gradientUnits="userSpaceOnUse">
<stop stop-color="#CECAD5"/>
<stop offset="0.66" stop-color="white"/>
<stop offset="1" stop-color="white"/>
</linearGradient>
<linearGradient id="paint1_linear_36_1338" x1="177.379" y1="177.615" x2="182.518" y2="177.615" gradientUnits="userSpaceOnUse">
<stop stop-color="#A09CC7"/>
<stop offset="1" stop-color="#7772AF"/>
</linearGradient>
<linearGradient id="paint2_linear_36_1338" x1="177.379" y1="139.286" x2="182.518" y2="139.286" gradientUnits="userSpaceOnUse">
<stop stop-color="#FFCB76"/>
<stop offset="1" stop-color="#FAB533"/>
</linearGradient>
<linearGradient id="paint3_linear_36_1338" x1="177.379" y1="158.449" x2="182.518" y2="158.449" gradientUnits="userSpaceOnUse">
<stop stop-color="#76C47F"/>
<stop offset="1" stop-color="#3CAA49"/>
</linearGradient>
<clipPath id="clip0_36_1338">
<rect width="200" height="200" fill="white"/>
</clipPath>
</defs>
</svg>
