<svg width="200" height="200" viewBox="0 0 200 200" fill="none" xmlns="http://www.w3.org/2000/svg">
<path d="M160.479 71.224C157.544 65.9377 153.771 61.0246 149.267 56.6233C146.664 54.1289 144.427 52.2219 142.22 50.6197C141.687 50.2028 141.065 49.7538 140.337 49.2654C140.115 49.1152 139.89 48.9592 139.667 48.8047C139.258 48.5218 138.848 48.239 138.431 47.9679C138.076 47.7492 137.736 47.5363 137.396 47.3235C136.447 46.7287 135.465 46.1134 134.449 45.5682C131.531 43.8741 128.481 42.4921 126.151 41.4803C125.712 41.3068 125.296 41.1377 124.881 40.9686C123.885 40.5618 122.851 40.1434 121.8 39.7906L119.637 39.0281L117.411 38.3371C116.604 38.0718 115.785 37.8545 115.163 37.6942L112.941 37.1096C112.457 37.0061 112.008 36.9055 111.558 36.8034C110.519 36.5701 109.445 36.3281 108.362 36.1605C105.564 35.6298 102.548 35.2785 99.1649 35.0904C97.9973 35.0306 96.8383 35.0015 95.6838 35.0015C90.5227 35.0015 85.509 35.5992 80.7332 36.7815C77.8272 37.4726 74.8642 38.4566 71.929 39.7046C68.9704 40.9554 66.2045 42.4075 63.71 44.0214C60.9967 45.7665 58.5051 47.6471 56.3085 49.6123C54.0432 51.6548 51.883 53.9058 49.8848 56.3098C48.0165 58.606 46.2183 61.1588 44.5354 63.9054C43.0481 66.3867 41.6571 69.0882 40.2822 72.1716C36.1617 81.8752 33.4659 92.8239 32.034 105.658C30.8372 116.446 30.681 127.758 31.5567 140.237C32.2165 149.219 33.3696 157.966 34.9897 166.346C35.5181 169.08 36.0975 171.774 36.7251 174.424C38.2577 180.771 39.8925 186.171 41.7213 190.936C42.257 192.371 42.8715 193.531 43.6509 194.583C44.5106 195.728 45.4987 196.647 46.592 197.315C47.71 197.997 49.0032 198.388 50.33 198.442C50.4278 198.446 50.5256 198.447 50.6248 198.447C50.6832 198.447 50.7416 198.447 50.7985 198.446C51.0875 198.44 51.3429 198.262 51.448 197.995C51.5531 197.729 51.4889 197.424 51.2846 197.224C49.9651 195.934 49.0207 194.355 48.5537 192.658C48.3041 191.713 48.1917 190.903 48.0822 190.118C48.034 189.773 47.9873 189.43 47.929 189.079L46.4066 178.664L45.436 171.708L44.5267 164.746C44.5033 164.559 44.6288 164.384 44.8127 164.349C45.0127 164.311 45.1937 164.439 45.2316 164.632L46.5526 171.535L47.8122 178.442L49.6323 188.818C49.6921 189.142 49.7476 189.47 49.8031 189.798C49.952 190.671 50.0921 191.498 50.2804 192.146C50.8613 194.171 52.2523 195.96 54.0913 197.051C55.8691 198.122 58.0848 198.51 60.1691 198.113C60.8638 197.984 61.5674 197.749 62.2578 197.415C62.4533 197.319 62.5949 197.141 62.6416 196.93C62.6898 196.718 62.6372 196.497 62.5 196.328C61.5061 195.094 60.804 193.654 60.4683 192.162C60.3982 191.919 60.3661 191.696 60.3311 191.46L60.2698 191.044C60.2537 190.941 60.2391 190.836 60.2289 190.745L59.1123 178.104L58.5446 171.124L58.0366 164.141C58.0235 163.952 58.1592 163.786 58.3461 163.761C58.4716 163.744 58.5665 163.796 58.6117 163.831C58.6555 163.865 58.7314 163.941 58.7474 164.068L59.6699 171.016L60.5311 177.964L61.7513 188.397C61.7907 188.712 61.8257 189.029 61.8607 189.343C61.96 190.231 62.0534 191.069 62.2169 191.741C62.7044 193.797 63.9976 195.647 65.7637 196.815C67.4787 197.971 69.6695 198.474 71.7611 198.185C73.5885 197.946 75.3298 197.073 76.6595 195.727C76.8814 195.502 76.9295 195.16 76.7763 194.883L76.7091 194.765C76.6741 194.704 76.6391 194.642 76.6084 194.58C76.1866 193.798 75.8772 192.931 75.6539 191.906C75.4393 190.945 75.4276 189.805 75.4203 189.193L75.34 184.023C75.2729 180.212 75.2335 176.836 75.2174 173.697C75.1853 170.377 75.1795 166.999 75.197 163.368C75.1985 163.183 75.3459 163.025 75.5313 163.014C75.7268 162.998 75.8976 163.151 75.9108 163.347C76.1341 166.878 76.3282 170.348 76.4873 173.658C76.6522 176.795 76.8084 180.17 76.9617 183.976L77.1894 189.374C77.2258 190.19 77.255 190.836 77.42 191.55C77.6228 192.415 77.8885 193.129 78.2344 193.74C79.6911 196.519 82.7606 198.345 85.8447 198.258C85.8549 198.258 85.8637 198.258 85.8739 198.258C86.6781 198.258 87.443 198.156 88.1275 197.956C88.8237 197.78 89.5448 197.475 90.2454 197.054C91.5532 196.282 92.6844 195.097 93.4244 193.721C93.8389 192.991 94.0753 192.181 94.2315 191.559C94.4081 190.764 94.4359 190.089 94.4753 189.15L94.6942 183.976C94.8533 180.023 95.0051 176.745 95.1686 173.66C95.3291 170.348 95.5233 166.88 95.7466 163.347C95.7597 163.162 95.9144 163.014 96.1013 163.012H96.1042C96.2998 163.012 96.4603 163.171 96.4618 163.366C96.4808 166.876 96.4749 170.35 96.4443 173.694C96.4297 176.761 96.3903 180.042 96.3216 184.023L96.2414 189.191C96.2385 190.305 96.1596 191.193 96.0049 191.912C95.7568 192.983 95.4532 193.827 95.0562 194.561C95.0182 194.634 94.9817 194.696 94.9453 194.757L94.8781 194.873C94.7205 195.15 94.7672 195.497 94.992 195.724C96.3173 197.062 98.0571 197.939 99.8904 198.192C101.978 198.479 104.164 197.975 105.891 196.806C107.65 195.629 108.946 193.781 109.442 191.738C109.605 191.078 109.699 190.248 109.795 189.371C109.832 189.047 109.868 188.722 109.908 188.404L111.129 177.96L111.99 171.012L112.911 164.071C112.936 163.884 113.101 163.754 113.291 163.761C113.419 163.772 113.5 163.842 113.536 163.884C113.573 163.926 113.631 164.015 113.622 164.143L113.114 171.134L112.546 178.113L111.428 190.757C111.421 190.84 111.405 190.947 111.389 191.05L111.347 191.333C111.304 191.617 111.266 191.884 111.196 192.13C110.843 193.654 110.137 195.093 109.141 196.325C109.005 196.494 108.953 196.715 109 196.927C109.046 197.138 109.188 197.318 109.382 197.412C110.071 197.749 110.776 197.987 111.479 198.121C113.54 198.528 115.759 198.137 117.562 197.049C119.386 195.96 120.776 194.174 121.374 192.149C121.565 191.505 121.704 190.683 121.853 189.812C121.908 189.481 121.965 189.149 122.024 188.83L123.845 178.442L125.105 171.533L126.424 164.636C126.459 164.451 126.63 164.327 126.821 164.349C126.95 164.365 127.024 164.441 127.059 164.485C127.116 164.56 127.142 164.654 127.129 164.75L126.218 171.719L125.249 178.673L123.724 189.098C123.666 189.441 123.619 189.788 123.571 190.137C123.463 190.916 123.352 191.721 123.096 192.665C122.628 194.319 121.711 195.864 120.446 197.135C120.244 197.336 120.183 197.638 120.288 197.902C120.393 198.166 120.646 198.342 120.93 198.35C121.154 198.355 121.377 198.357 121.6 198.35C123.079 198.248 124.461 197.812 125.62 197.093C126.856 196.331 127.877 195.295 128.564 194.099C128.967 193.456 129.225 192.741 129.403 192.193C129.411 192.17 129.416 192.146 129.422 192.123C129.444 192.018 129.472 191.922 129.498 191.824C129.552 191.626 129.612 191.401 129.651 191.11L129.848 189.98C130.87 184.148 131.995 177.881 133.315 171.57C133.638 170.062 133.969 168.511 134.347 166.982C134.523 166.243 134.728 165.472 134.96 164.681L135.542 162.993L135.747 162.401C135.793 162.276 135.841 162.133 135.89 161.99C135.97 161.751 136.044 161.527 136.139 161.322L137.158 159.092C137.322 158.727 137.476 158.386 137.666 158.08L138.894 155.941C139.145 155.52 139.429 155.109 139.731 154.676C139.896 154.44 140.06 154.204 140.22 153.963C141.836 151.673 143.755 149.358 146.25 146.697C146.949 145.934 147.65 145.188 148.346 144.445C149.754 142.941 151.21 141.387 152.561 139.814C156.734 135.136 160.117 129.959 162.609 124.437C163.129 123.407 163.542 122.298 163.943 121.223C164.073 120.875 164.203 120.527 164.337 120.18C164.781 119.095 165.128 117.962 165.462 116.866C165.569 116.516 165.677 116.165 165.786 115.816C166.604 112.851 167.21 109.817 167.593 106.774C169.066 94.709 166.541 82.0881 160.481 71.2327L160.479 71.224Z" fill="#57D1E5"/>
<path d="M160.789 127.023C161.276 125.83 161.657 124.584 162.027 123.377C162.145 122.992 162.262 122.605 162.383 122.221C163.283 118.958 163.949 115.621 164.371 112.275C165.991 99.0038 163.212 85.119 156.547 73.1789C153.319 67.3649 149.169 61.9605 144.214 57.1175C141.351 54.3737 138.891 52.2773 136.463 50.5133C135.878 50.054 135.192 49.5613 134.392 49.0248C134.147 48.8586 133.9 48.688 133.655 48.5174C133.206 48.2054 132.754 47.8949 132.296 47.5975C131.905 47.3569 131.531 47.1237 131.158 46.889C130.114 46.2344 129.034 45.5579 127.917 44.9573C124.708 43.0941 121.352 41.5735 118.789 40.4597C118.305 40.2687 117.848 40.0821 117.391 39.897C116.293 39.4509 115.159 38.9887 114.002 38.6024L111.623 37.7641L109.175 37.0031C108.287 36.7115 107.387 36.4724 106.702 36.296L104.256 35.6516C103.858 35.5671 103.482 35.4825 103.112 35.3994C104.96 35.5919 106.702 35.8412 108.365 36.1575C109.446 36.3252 110.521 36.5672 111.561 36.8004C112.009 36.9025 112.459 37.0031 112.942 37.1066L115.165 37.6912C115.787 37.8516 116.607 38.0688 117.413 38.3341L119.637 39.0252L121.8 39.7876C122.851 40.139 123.885 40.5589 124.881 40.9641C125.297 41.1318 125.712 41.3009 126.153 41.4759C128.482 42.4876 131.533 43.8697 134.451 45.5638C135.466 46.109 136.447 46.7242 137.397 47.319C137.738 47.5319 138.078 47.7447 138.432 47.9634C138.85 48.2331 139.26 48.5174 139.669 48.8003C139.892 48.9548 140.117 49.1108 140.339 49.2609C141.067 49.7493 141.689 50.1969 142.221 50.6153C144.428 52.219 146.666 54.1244 149.268 56.6189C153.773 61.0217 157.546 65.9347 160.481 71.2195C166.54 82.0749 169.066 94.6958 167.593 106.761C167.21 109.804 166.604 112.838 165.786 115.803C165.676 116.153 165.569 116.503 165.462 116.853C165.128 117.949 164.781 119.083 164.337 120.166C164.203 120.513 164.073 120.862 163.943 121.21C163.542 122.283 163.129 123.394 162.609 124.423C161.686 126.469 160.64 128.466 159.478 130.408C159.792 129.665 160.079 128.908 160.357 128.166C160.5 127.782 160.643 127.399 160.79 127.018" fill="#93E1EF"/>
<path d="M135.542 162.986L134.96 164.674C134.729 165.464 134.523 166.237 134.347 166.975C133.969 168.504 133.636 170.055 133.315 171.563C131.995 177.874 130.869 184.14 129.848 189.973L129.651 191.103C129.613 191.394 129.552 191.619 129.498 191.817C129.472 191.915 129.446 192.011 129.422 192.116C129.418 192.139 129.411 192.164 129.403 192.186C129.225 192.734 128.967 193.45 128.564 194.091C127.875 195.288 126.856 196.323 125.62 197.086C124.463 197.806 123.079 198.24 121.6 198.342C121.377 198.351 121.152 198.35 120.93 198.342C120.646 198.335 120.393 198.159 120.288 197.895C120.183 197.631 120.244 197.329 120.446 197.128C121.711 195.858 122.629 194.313 123.096 192.658C123.353 191.713 123.464 190.909 123.571 190.13C123.619 189.78 123.667 189.433 123.724 189.091L125.249 178.665L126.218 171.711L127.129 164.743C127.141 164.646 127.116 164.553 127.059 164.477C127.024 164.434 126.95 164.358 126.821 164.342C126.63 164.32 126.461 164.444 126.424 164.629L125.105 171.526L123.845 178.435L122.024 188.822C121.965 189.143 121.908 189.476 121.853 189.805C121.704 190.675 121.564 191.499 121.374 192.142C120.776 194.166 119.386 195.951 117.562 197.042C115.76 198.129 113.54 198.52 111.479 198.113C110.776 197.979 110.071 197.74 109.382 197.405C109.188 197.309 109.046 197.131 109 196.919C108.951 196.708 109.004 196.486 109.141 196.317C110.137 195.085 110.843 193.647 111.196 192.123C111.266 191.877 111.306 191.61 111.347 191.326L111.389 191.043C111.405 190.939 111.421 190.834 111.428 190.75L112.546 178.106L113.114 171.127L113.622 164.136C113.632 164.008 113.573 163.919 113.536 163.877C113.5 163.834 113.421 163.764 113.291 163.754C113.101 163.747 112.936 163.877 112.911 164.063L111.99 171.004L111.129 177.952L109.908 188.397C109.868 188.714 109.832 189.04 109.795 189.363C109.697 190.241 109.605 191.07 109.442 191.731C108.944 193.775 107.648 195.623 105.891 196.798C104.164 197.968 101.978 198.471 99.8904 198.185C98.0571 197.931 96.3173 197.055 94.992 195.717C94.7672 195.489 94.7205 195.142 94.8781 194.865L94.9453 194.75C94.9818 194.689 95.0168 194.626 95.0562 194.553C95.4532 193.82 95.7568 192.976 96.0049 191.904C96.1611 191.186 96.2385 190.299 96.2414 189.184L96.3217 184.016C96.3903 180.033 96.4297 176.753 96.4443 173.687C96.4764 170.344 96.4822 166.868 96.4618 163.359C96.4618 163.164 96.3012 163.005 96.1042 163.005H96.1013C95.9144 163.005 95.7583 163.155 95.7466 163.34C95.5233 166.871 95.3291 170.341 95.1686 173.653C95.0051 176.738 94.8548 180.015 94.6942 183.969L94.4753 189.143C94.4373 190.081 94.4081 190.757 94.2315 191.552C94.0739 192.174 93.8389 192.983 93.4244 193.714C92.6844 195.09 91.5546 196.275 90.2454 197.046C89.5448 197.468 88.8238 197.774 88.1275 197.949C87.443 198.148 86.6782 198.251 85.8739 198.251C85.8637 198.251 85.8549 198.251 85.8447 198.251C82.7606 198.338 79.6926 196.511 78.2344 193.733C77.8885 193.122 77.6229 192.407 77.42 191.543C77.255 190.828 77.2259 190.183 77.1894 189.366L76.9617 183.969C76.8084 180.163 76.6537 176.789 76.4873 173.65C76.3282 170.341 76.1341 166.873 75.9108 163.34C75.8976 163.143 75.7269 162.99 75.5313 163.006C75.3459 163.018 75.1985 163.174 75.197 163.361C75.1781 166.992 75.1853 170.37 75.2175 173.69C75.2335 176.828 75.2729 180.205 75.3401 184.016L75.4203 189.185C75.4262 189.798 75.4393 190.938 75.6539 191.899C75.8772 192.923 76.1866 193.791 76.6084 194.572C76.6406 194.635 76.6741 194.696 76.7092 194.757L76.7763 194.876C76.9296 195.153 76.8814 195.495 76.6595 195.72C75.3298 197.065 73.5886 197.939 71.7612 198.178C69.6696 198.465 67.4787 197.963 65.7637 196.807C63.9976 195.638 62.7044 193.788 62.2169 191.734C62.0549 191.063 61.96 190.225 61.8608 189.336C61.8257 189.022 61.7907 188.704 61.7513 188.389L60.5311 177.957L59.6699 171.009L58.7474 164.06C58.7314 163.932 58.654 163.858 58.6117 163.824C58.5665 163.789 58.4716 163.737 58.3461 163.754C58.1592 163.779 58.025 163.945 58.0366 164.133L58.5446 171.116L59.1123 178.097L60.2289 190.738C60.2392 190.828 60.2552 190.933 60.2698 191.037L60.3311 191.452C60.3661 191.689 60.3982 191.912 60.4683 192.155C60.804 193.648 61.5075 195.088 62.5001 196.32C62.6358 196.489 62.6883 196.711 62.6416 196.922C62.5935 197.134 62.4533 197.313 62.2578 197.408C61.5674 197.742 60.8639 197.978 60.1691 198.106C58.0848 198.503 55.8691 198.115 54.0914 197.043C52.2523 195.953 50.8627 194.166 50.2804 192.139C50.0935 191.489 49.9534 190.664 49.8031 189.79C49.7476 189.464 49.6922 189.134 49.6323 188.811L47.8122 178.435L46.5526 171.528L45.2316 164.624C45.1952 164.432 45.0127 164.304 44.8127 164.342C44.6288 164.377 44.5019 164.552 44.5267 164.738L45.436 171.701L46.4066 178.657L47.929 189.072C47.9874 189.423 48.0341 189.766 48.0822 190.111C48.1917 190.895 48.3041 191.705 48.5537 192.651C49.0222 194.348 49.9651 195.927 51.2846 197.217C51.4889 197.418 51.5546 197.723 51.448 197.988C51.3415 198.255 51.0861 198.433 50.7985 198.439C50.7401 198.439 50.6832 198.44 50.6248 198.44C50.527 198.44 50.4292 198.439 50.33 198.434C49.0032 198.379 47.7115 197.99 46.592 197.307C45.4988 196.64 44.5092 195.721 43.6509 194.575C42.8715 193.523 42.257 192.362 41.7213 190.929C39.8925 186.163 38.2577 180.763 36.7252 174.417C36.0975 171.767 35.5181 169.072 34.9897 166.339C34.9868 166.342 34.9824 166.343 34.9795 166.346C36.2669 173.076 38.481 186.647 40.3303 191.468C40.9186 193.043 41.5987 194.324 42.4716 195.501C43.448 196.804 44.5836 197.855 45.8447 198.625C47.0649 199.37 48.4544 199.824 49.8863 199.949C50.3329 200 50.6905 200.013 51.0335 199.975C51.1226 199.968 51.2087 199.955 51.2948 199.937C51.6188 199.877 51.9487 199.774 52.3486 199.615C52.7004 199.475 53.1689 199.2 53.5148 198.931C54.6621 199.328 55.4926 199.512 57.2485 199.714C57.263 199.716 57.2791 199.717 57.2937 199.72C57.39 199.732 57.4864 199.742 57.5885 199.754C57.5885 199.754 57.5885 199.754 57.5885 199.752C58.5592 199.847 59.5444 199.809 60.5063 199.627C61.3368 199.472 62.1731 199.192 62.9905 198.796C63.5393 198.528 63.9494 198.058 64.1406 197.487C64.4019 197.702 64.6734 197.902 64.9522 198.087C66.9839 199.458 69.5615 200.051 72.0151 199.708C74.1841 199.426 76.2436 198.393 77.8111 196.806C77.9615 196.654 78.087 196.482 78.1863 196.298C80.1231 198.533 83.019 199.88 85.9279 199.793C86.8869 199.793 87.7801 199.673 88.561 199.444C89.4149 199.229 90.2658 198.869 91.0861 198.376C92.0115 197.831 92.8537 197.124 93.5703 196.293C93.6711 196.478 93.7966 196.651 93.9484 196.803C95.5116 198.382 97.5667 199.415 99.7342 199.714C102.198 200.051 104.776 199.456 106.806 198.081C107.085 197.895 107.353 197.695 107.613 197.481C107.804 198.049 108.213 198.519 108.762 198.79C109.57 199.185 110.404 199.466 111.237 199.627C112.161 199.81 113.113 199.857 114.053 199.775C114.053 199.775 114.053 199.775 114.053 199.777C114.07 199.774 114.088 199.773 114.105 199.77C114.565 199.727 115.022 199.654 115.471 199.551C116.594 199.329 117.363 199.061 118.246 198.737C118.505 199.065 118.935 199.412 119.29 199.547C120.329 199.937 120.936 200.006 122.218 199.838C123.771 199.666 125.241 199.172 126.49 198.396C127.948 197.497 129.142 196.284 129.932 194.909C130.425 194.123 130.727 193.289 130.936 192.643C130.959 192.571 130.978 192.496 130.99 192.436C131.003 192.377 131.018 192.32 131.048 192.209C131.107 191.99 131.188 191.69 131.229 191.365L131.426 190.237C132.447 184.412 133.76 171.891 135.544 162.984H135.541L135.542 162.986Z" fill="#3B2E54"/>
<path d="M56.491 64.91C66.7314 52.3955 85.1909 50.5426 97.7215 60.7696C110.251 70.9981 112.106 89.4359 101.867 101.952C91.6262 114.466 73.1668 116.321 60.6362 106.092C48.1071 95.8637 46.2505 77.4259 56.491 64.91Z" fill="#4D9BB6"/>
<path d="M97.0165 56.998C84.4874 46.7695 66.028 48.6224 55.786 61.1384C45.5455 73.6543 47.4021 92.0921 59.9312 102.321C72.4604 112.549 90.9198 110.695 101.16 98.1802C110.232 87.0945 109.811 71.361 100.889 60.803C99.7386 59.4414 98.4469 58.1657 97.0165 56.998Z" fill="url(#paint0_linear_36_1408)"/>
<path d="M62.0184 91.8616C66.7971 93.4143 72.9668 84.457 71.8371 80.4348C71.0956 77.7945 67.9502 75.287 68.6129 74.109C69.2741 72.931 73.0544 74.3102 75.6992 73.5696C79.7247 72.4427 84.1765 62.5203 80.3626 59.2503C75.813 55.3505 64.5786 57.167 58.3023 68.3227C52.0261 79.4798 56.3173 90.0101 62.0184 91.8616Z" fill="#3B2D55"/>
<path d="M56.7902 113.603C65.1084 119.267 75.3883 121.941 85.388 120.841C88.6852 120.476 91.9517 119.837 95.1234 118.828C96.24 118.47 97.4369 119.085 97.7916 120.201C98.136 121.28 97.5624 122.433 96.513 122.827C89.647 125.45 82.0367 125.973 74.822 124.712C67.6394 123.488 60.7647 120.429 55.1059 115.872C53.7368 114.721 55.2825 112.625 56.7888 113.605" fill="#4D9BB6"/>
<path d="M62.1907 123.559C63.7291 124.093 65.1887 123.352 66.3651 122.308C65.4923 121.968 64.6501 121.624 63.8605 121.25C62.7599 120.748 61.7412 120.22 60.8143 119.717C60.7092 119.661 60.6085 119.599 60.5049 119.541C60.5939 121.747 61.1923 123.208 62.1922 123.557L62.1907 123.559ZM79.57 130.363C80.3991 130.676 81.577 130.526 82.7198 129.956C83.8131 129.408 85.6959 128.071 86.9103 124.993C85.9134 125.093 84.8698 125.154 83.8014 125.196C82.4688 125.234 81.0953 125.224 79.7014 125.141C79.1657 125.107 78.6271 125.053 78.0842 125.005C77.7864 128.482 78.1907 129.838 79.57 130.364V130.363Z" fill="#4D9BB6"/>
<path d="M61.3981 122.589C62.9365 123.123 64.3961 122.382 65.5725 121.339C64.6997 120.999 63.8575 120.655 63.0679 120.28C61.9673 119.779 60.9486 119.251 60.0217 118.748C59.9166 118.691 59.8159 118.63 59.7123 118.572C59.8013 120.777 60.3997 122.238 61.3996 122.588L61.3981 122.589ZM78.7774 129.393C79.6065 129.707 80.7844 129.557 81.9272 128.987C83.0205 128.438 84.9033 127.102 86.1177 124.024C85.1208 124.123 84.0772 124.184 83.0088 124.227C81.6762 124.265 80.3027 124.254 78.9088 124.171C78.3731 124.138 77.8345 124.084 77.2916 124.036C76.9938 127.513 77.3981 128.869 78.7774 129.395V129.393Z" fill="white"/>
<path d="M55.8794 112.524C64.1976 118.188 74.4775 120.862 84.4771 119.763C87.7743 119.397 91.0409 118.758 94.2126 117.749C95.3292 117.391 96.526 118.006 96.8807 119.123C97.2252 120.201 96.6516 121.355 95.6021 121.748C88.7362 124.371 81.1259 124.894 73.9112 123.633C66.7285 122.409 59.8539 119.35 54.195 114.793C52.8259 113.642 54.3716 111.546 55.8779 112.526" fill="#3B2D55"/>
<defs>
<linearGradient id="paint0_linear_36_1408" x1="59.567" y1="57.3069" x2="97.3239" y2="102.086" gradientUnits="userSpaceOnUse">
<stop stop-color="white"/>
<stop offset="0.27" stop-color="white"/>
<stop offset="1" stop-color="#CECAD5"/>
</linearGradient>
</defs>
</svg>
