<svg width="200" height="200" viewBox="0 0 200 200" fill="none" xmlns="http://www.w3.org/2000/svg">
<path d="M129.273 168.444C129.085 169.029 128.889 169.635 128.727 170.26C128.445 171.298 128.216 172.283 128.028 173.111C127.149 177.01 126.418 180.876 125.742 184.502L124.465 191.639C124.437 191.789 124.412 191.934 124.389 192.078C124.33 192.432 124.276 192.767 124.187 193.041C123.982 193.847 123.607 194.664 123.116 195.374C122.13 196.82 120.591 197.908 118.901 198.355C118.276 198.522 117.617 198.607 116.941 198.607C116.884 198.607 116.826 198.607 116.767 198.605C116.519 198.601 116.298 198.448 116.205 198.219C116.112 197.989 116.164 197.727 116.34 197.553C117.44 196.452 118.236 195.111 118.643 193.68C118.863 192.866 118.961 192.168 119.055 191.492C119.097 191.189 119.138 190.887 119.19 190.578L120.515 181.547L121.359 175.515L122.15 169.477C122.172 169.315 122.061 169.165 121.9 169.134C121.732 169.1 121.569 169.211 121.536 169.38L120.388 175.366L119.291 181.356L117.707 190.352C117.655 190.637 117.605 190.924 117.557 191.211C117.428 191.965 117.306 192.679 117.14 193.239C116.62 194.992 115.409 196.541 113.82 197.488C112.255 198.429 110.325 198.768 108.525 198.414C108.297 198.37 108.058 198.31 107.794 198.23C107.59 198.168 107.433 198.009 107.376 197.805C107.32 197.6 107.371 197.382 107.512 197.225C108.553 196.073 109.282 194.698 109.618 193.248C109.686 193.006 109.72 192.772 109.756 192.526L109.792 192.282C109.806 192.192 109.82 192.101 109.826 192.022L110.799 181.06L111.293 175.008L111.734 168.952C111.745 168.789 111.627 168.644 111.465 168.622C111.293 168.594 111.139 168.72 111.117 168.888L110.314 174.912L109.565 180.935L108.504 189.981C108.468 190.261 108.437 190.541 108.406 190.818C108.32 191.583 108.24 192.304 108.095 192.882C107.777 194.188 107.063 195.424 106.072 196.395C105.558 196.95 104.378 197.763 102.978 198.214C102.958 198.222 102.939 198.233 102.919 198.239C102.851 198.259 102.782 198.275 102.714 198.293C102.161 198.451 101.58 198.548 100.994 198.548C100.957 198.548 100.925 198.544 100.891 198.542C100.517 198.548 100.144 198.527 99.7787 198.476C98.9987 198.369 98.2264 198.126 97.4837 197.754C97.3158 197.67 97.1978 197.515 97.1574 197.333C97.117 197.152 97.162 196.962 97.2786 196.817C97.6546 196.347 97.9825 195.849 98.2497 195.337C98.6009 194.692 98.8651 193.961 99.0826 193.021C99.2162 192.407 99.2846 191.639 99.2877 190.679L99.3576 186.19C99.4167 182.736 99.4509 179.892 99.4649 177.235C99.4928 174.332 99.4975 171.32 99.4804 168.277C99.4804 168.117 99.3514 167.981 99.1883 167.97C99.0748 167.962 98.9987 168.015 98.963 168.046C98.9272 168.078 98.8651 168.148 98.8573 168.259C98.6615 171.34 98.4921 174.347 98.3538 177.198C98.2124 179.853 98.0819 182.695 97.9421 186.146L97.7525 190.623C97.7432 190.839 97.7354 191.04 97.7245 191.229C97.7245 191.274 97.7245 191.317 97.723 191.362C97.5769 194.801 95.1529 197.678 91.8058 198.374C91.7809 198.378 91.7576 198.384 91.7343 198.389C91.5991 198.415 91.4624 198.438 91.3241 198.457C91.2822 198.463 91.2402 198.468 91.1982 198.472C90.8813 198.513 90.5596 198.534 90.2302 198.534C90.1323 198.534 90.0375 198.531 89.9412 198.527C89.071 198.513 88.1899 198.324 87.3493 197.973C87.2328 197.925 87.1193 197.876 87.0059 197.822C86.9966 197.817 86.9857 197.811 86.9764 197.806C86.8365 197.74 86.6982 197.667 86.563 197.591C86.563 197.591 86.5615 197.591 86.5599 197.591C85.6618 197.09 84.8849 196.41 84.2695 195.601C84.2384 195.574 84.2105 195.546 84.1872 195.512C83.965 195.213 83.7707 194.904 83.606 194.593C83.3154 194.083 83.0839 193.462 82.9083 192.715C82.7638 192.09 82.7374 191.527 82.7063 190.813L82.5074 186.146C82.3754 182.872 82.2402 179.946 82.0956 177.2C81.9574 174.355 81.7895 171.348 81.5938 168.256C81.5829 168.093 81.4477 167.967 81.2845 167.965H81.283C81.112 167.965 80.9722 168.103 80.9722 168.273C80.9567 171.425 80.9629 174.354 80.9893 177.228C81.0033 179.96 81.0375 182.888 81.0965 186.184L81.1664 190.666C81.1711 191.201 81.182 192.191 81.3684 193.018C81.5642 193.912 81.833 194.664 82.1904 195.323C82.4235 195.781 82.7063 196.226 83.0435 196.662C83.1523 196.804 83.1942 196.985 83.1601 197.16C83.1243 197.335 83.014 197.486 82.8586 197.574C82.0226 198.047 81.1338 198.347 80.2139 198.466C79.855 198.516 79.496 198.537 79.1355 198.534C79.0858 198.541 79.0361 198.544 78.9801 198.544C76.7938 198.544 74.6495 197.195 73.9036 196.39H73.9052C72.9262 195.425 72.2254 194.201 71.9085 192.874C71.767 192.294 71.6862 191.566 71.5992 190.796C71.5682 190.524 71.5371 190.25 71.5044 189.983L70.44 180.928L69.6911 174.901L68.8877 168.882C68.866 168.72 68.7152 168.605 68.5583 168.615C68.4464 168.622 68.3765 168.684 68.3454 168.721C68.3143 168.757 68.2631 168.836 68.2708 168.945L68.7121 175.008L69.2063 181.057L70.1774 192.021C70.1852 192.096 70.1992 192.189 70.2132 192.284L70.2645 192.63C70.294 192.835 70.3219 193.03 70.3732 193.205C70.7197 194.734 71.4703 196.141 72.5518 197.308C72.7009 197.471 72.7538 197.698 72.6885 197.91C72.6232 198.12 72.4523 198.279 72.2379 198.329L72.1462 198.35C72.0669 198.37 71.9877 198.391 71.9069 198.404C70.1013 198.749 68.1698 198.412 66.6175 197.481C65.0186 196.537 63.8112 194.988 63.3047 193.23C63.1415 192.667 63.0187 191.95 62.8898 191.19C62.8416 190.909 62.7919 190.625 62.7421 190.351L61.1572 181.345L60.0602 175.354L58.9118 169.374C58.8808 169.213 58.7254 169.106 58.5653 169.125C58.396 169.146 58.2763 169.303 58.2981 169.471L59.0905 175.513L59.9343 181.544L61.2613 190.583C61.311 190.878 61.353 191.177 61.3949 191.476C61.4897 192.155 61.5876 192.856 61.8067 193.68C62.2014 195.105 62.9923 196.444 64.0956 197.548C64.2727 197.724 64.3255 197.989 64.2292 198.22C64.1329 198.451 63.9091 198.601 63.6574 198.602C62.5401 198.612 61.468 198.341 60.5341 197.831C58.7922 196.928 57.2958 195.21 56.3355 192.999C56.1708 192.634 56.0077 192.197 55.8507 191.775L55.5337 190.931C55.3861 190.54 55.2385 190.147 55.1033 189.751C54.7537 188.765 54.3435 187.607 53.9674 186.444C53.206 184.165 52.527 181.88 51.9054 179.751C50.3686 174.367 49.0106 168.812 47.8452 163.146C49.0323 168.95 52.513 190.557 56.4334 196.249C57.3145 197.529 58.6399 198.412 59.8768 199.055C61.0049 199.668 62.2931 199.991 63.6045 199.991H63.6714C64.4825 199.988 65.2113 199.501 65.5236 198.751V198.748C65.578 198.619 65.7318 198.571 65.8514 198.643C65.8685 198.653 65.8856 198.663 65.9027 198.673C67.2701 199.493 68.8613 199.927 70.5022 199.927C71.0631 199.927 71.6241 199.875 72.1679 199.771C72.2892 199.75 72.3948 199.723 72.4927 199.699L72.572 199.68C73.1873 199.533 73.6939 199.103 73.9471 198.536C74.0652 198.273 74.2144 198.425 74.3574 198.507C74.3574 198.507 74.3589 198.507 74.3605 198.507C75.5663 199.256 77.2289 199.935 78.9817 199.935C79.0547 199.935 79.1278 199.932 79.2039 199.926C79.6063 199.926 80.0104 199.898 80.4019 199.845C81.5005 199.702 82.5603 199.344 83.5532 198.783C83.9525 198.556 84.2571 198.205 84.4265 197.789C84.8693 198.171 85.3495 198.507 85.8669 198.796C85.87 198.797 85.8716 198.799 85.8747 198.8C85.8762 198.8 85.8793 198.803 85.8809 198.803C85.8856 198.806 85.8902 198.808 85.8949 198.811C86.058 198.902 86.2119 198.983 86.3626 199.054C86.3766 199.062 86.389 199.068 86.403 199.074C86.4061 199.074 86.4092 199.077 86.4123 199.079C86.5459 199.142 86.6827 199.202 86.8194 199.258C87.8232 199.677 88.8628 199.9 89.9085 199.917C90.0095 199.92 90.1183 199.924 90.2348 199.924C90.6047 199.924 90.99 199.9 91.3769 199.852L91.4002 199.848C91.4407 199.844 91.481 199.839 91.5199 199.833C91.7001 199.807 91.8602 199.78 92.0109 199.751C92.0436 199.745 92.0684 199.739 92.0948 199.733H92.1042C93.5291 199.433 94.8157 198.799 95.8863 197.921C96.065 198.383 96.4084 198.765 96.8606 198.99C97.7416 199.433 98.6615 199.722 99.5954 199.848C99.9761 199.901 100.377 199.929 100.783 199.929C100.804 199.929 100.826 199.929 100.848 199.929C100.887 199.932 100.939 199.935 101 199.935C101.668 199.935 102.369 199.833 103.085 199.63L103.129 199.62C103.189 199.604 103.252 199.589 103.312 199.572C103.381 199.552 103.438 199.532 103.486 199.511C104.227 199.266 104.893 198.947 105.46 198.61C105.755 198.434 106.134 198.517 106.333 198.797C106.589 199.156 106.959 199.425 107.396 199.556C107.703 199.649 107.989 199.722 108.268 199.774C108.813 199.881 109.382 199.937 109.952 199.937C111.585 199.937 113.175 199.499 114.55 198.672C114.646 198.615 114.741 198.556 114.834 198.496C114.856 198.575 114.881 198.653 114.913 198.731C115.218 199.481 115.936 199.974 116.745 199.991C116.815 199.991 116.882 199.992 116.947 199.992C117.746 199.992 118.528 199.892 119.271 199.692C121.278 199.16 123.104 197.87 124.279 196.152C124.855 195.32 125.29 194.375 125.54 193.415C125.652 193.055 125.716 192.67 125.777 192.296C125.798 192.163 125.822 192.025 125.848 191.885C125.848 191.882 125.848 191.878 125.85 191.875C125.85 191.875 127.413 174.013 131.041 163.132H131.033C130.535 164.551 130.03 166.006 129.591 167.455C129.49 167.786 129.386 168.11 129.282 168.435L129.273 168.444Z" fill="#3B2D55"/>
<path d="M154.486 74.8367C152.177 67.6165 147.994 60.9374 142.383 55.5184C137.134 50.4534 130.55 46.4119 122.812 43.5068C114.652 40.5121 106.653 39 98.9736 39C97.7135 39 96.4626 39.0402 95.2195 39.1221C90.6713 39.3742 86.0439 40.2647 81.4537 41.7706C76.8185 43.3801 72.6277 45.5044 69.0025 48.0786C65.3696 50.5833 61.9495 53.7914 58.8309 57.6164C55.8552 61.4028 53.4343 65.4149 51.638 69.5398C49.7578 73.9353 48.2381 78.385 47.1178 82.7604C45.9959 87.091 45.0822 91.7091 44.4047 96.4896C43.8127 100.633 43.4087 105.197 43.1662 110.443C42.9596 114.965 42.9456 119.682 43.1243 124.461C43.2983 129.163 43.6138 133.871 44.0644 138.45C44.5259 143.058 45.1335 147.738 45.8684 152.362C46.4465 155.994 47.1053 159.596 47.8372 163.154C49.0042 168.82 50.3607 174.374 51.8975 179.759C52.519 181.888 53.1981 184.173 53.9595 186.452C54.3355 187.614 54.7442 188.771 55.0953 189.759C55.2305 190.155 55.3781 190.547 55.5258 190.938L55.8428 191.783C55.9997 192.205 56.1629 192.642 56.3276 193.007C57.2894 195.218 58.7842 196.936 60.5261 197.839C61.46 198.347 62.5322 198.619 63.6494 198.61C63.8996 198.61 64.1249 198.459 64.2212 198.228C64.3176 197.996 64.2648 197.732 64.0876 197.556C62.9844 196.452 62.1934 195.113 61.7988 193.687C61.5797 192.865 61.4818 192.163 61.387 191.484C61.345 191.184 61.3031 190.886 61.2533 190.591L59.9263 181.552L59.0826 175.521L58.2901 169.479C58.2684 169.309 58.388 169.154 58.5574 169.132C58.7174 169.114 58.8728 169.221 58.9039 169.381L60.0522 175.362L61.1492 181.353L62.7342 190.359C62.7855 190.632 62.8336 190.917 62.8818 191.198C63.0108 191.957 63.1351 192.675 63.2967 193.237C63.8033 194.995 65.0122 196.544 66.6096 197.489C68.1603 198.42 70.0933 198.757 71.8989 198.412C71.9797 198.398 72.059 198.378 72.1382 198.358L72.2299 198.336C72.4443 198.285 72.6168 198.126 72.6805 197.917C72.7458 197.707 72.693 197.478 72.5438 197.316C71.4623 196.149 70.7118 194.742 70.3653 193.213C70.314 193.038 70.286 192.845 70.2565 192.638L70.2052 192.291C70.1912 192.198 70.1772 192.104 70.1695 192.028L69.1983 181.065L68.7042 175.015L68.2629 168.953C68.2551 168.842 68.3064 168.764 68.3375 168.729C68.3685 168.693 68.4385 168.63 68.5503 168.622C68.7088 168.613 68.8596 168.729 68.8798 168.89L69.6831 174.909L70.4321 180.935L71.4965 189.991C71.5291 190.258 71.5602 190.532 71.5913 190.804C71.6783 191.575 71.7591 192.302 71.9005 192.882C72.2175 194.208 72.9167 195.433 73.8972 196.396H73.8957C74.6431 197.202 76.7859 198.551 78.9722 198.551C79.0281 198.551 79.0794 198.547 79.1276 198.542C79.4881 198.545 79.8486 198.522 80.206 198.474C81.1258 198.355 82.0162 198.053 82.8506 197.582C83.006 197.494 83.1164 197.342 83.1521 197.168C83.1863 196.993 83.1443 196.81 83.0356 196.67C82.6999 196.234 82.4156 195.79 82.1825 195.331C81.8251 194.672 81.5547 193.919 81.3605 193.026C81.174 192.198 81.1631 191.209 81.1585 190.674L81.0886 186.192C81.0295 182.896 80.9953 179.967 80.9813 177.235C80.9534 174.361 80.9487 171.433 80.9642 168.281C80.9642 168.11 81.1056 167.973 81.275 167.973H81.2766C81.4397 167.973 81.5749 168.101 81.5858 168.264C81.7816 171.354 81.951 174.363 82.0877 177.208C82.2322 179.953 82.3674 182.879 82.4995 186.153L82.6984 190.821C82.731 191.534 82.7559 192.096 82.9004 192.723C83.076 193.471 83.3075 194.091 83.5981 194.601C83.7628 194.912 83.957 195.221 84.1792 195.519C84.2025 195.552 84.2305 195.581 84.2616 195.609C84.8769 196.419 85.6538 197.098 86.552 197.599C86.552 197.599 86.5535 197.599 86.5551 197.599C86.6903 197.675 86.827 197.746 86.9684 197.814C86.9777 197.818 86.9886 197.825 86.9979 197.829C87.1098 197.882 87.2248 197.933 87.3413 197.981C88.182 198.333 89.063 198.52 89.9332 198.534C90.0295 198.537 90.1259 198.542 90.2222 198.542C90.5516 198.542 90.8749 198.519 91.1903 198.48C91.2322 198.476 91.2742 198.471 91.3162 198.465C91.4544 198.445 91.5912 198.423 91.7264 198.397C91.7512 198.392 91.7745 198.386 91.7979 198.381C95.1449 197.684 97.5705 194.808 97.715 191.37C97.7166 191.325 97.715 191.282 97.7166 191.237C97.7274 191.047 97.7352 190.847 97.7445 190.631L97.9341 186.153C98.0739 182.702 98.2045 179.861 98.3459 177.206C98.4842 174.355 98.6535 171.348 98.8493 168.267C98.8571 168.155 98.9193 168.086 98.955 168.053C98.9907 168.021 99.0653 167.97 99.1803 167.977C99.3435 167.988 99.4709 168.124 99.4724 168.285C99.4895 171.326 99.4849 174.34 99.4569 177.243C99.4445 179.898 99.4103 182.744 99.3497 186.198L99.2798 190.686C99.2766 191.645 99.2083 192.415 99.0746 193.029C98.8555 193.969 98.5929 194.7 98.2418 195.345C97.9745 195.856 97.6466 196.354 97.2706 196.824C97.1541 196.97 97.1105 197.16 97.1494 197.341C97.1898 197.523 97.3094 197.676 97.4757 197.761C98.2185 198.134 98.9907 198.377 99.7708 198.483C100.136 198.534 100.509 198.556 100.883 198.55C100.918 198.553 100.949 198.556 100.986 198.556C101.572 198.556 102.153 198.457 102.706 198.301C102.774 198.282 102.843 198.267 102.911 198.247C102.931 198.241 102.95 198.23 102.97 198.222C104.369 197.771 105.548 196.957 106.064 196.402C107.054 195.43 107.769 194.196 108.087 192.89C108.232 192.311 108.312 191.589 108.398 190.826C108.429 190.547 108.46 190.269 108.496 189.989L109.557 180.943L110.306 174.919L111.109 168.896C111.131 168.726 111.287 168.602 111.457 168.63C111.621 168.652 111.739 168.797 111.726 168.959L111.285 175.015L110.791 181.068L109.818 192.03C109.81 192.109 109.796 192.2 109.784 192.29L109.748 192.534C109.712 192.78 109.678 193.013 109.61 193.256C109.274 194.706 108.547 196.081 107.504 197.233C107.363 197.39 107.31 197.608 107.368 197.812C107.425 198.016 107.582 198.176 107.786 198.237C108.05 198.318 108.289 198.378 108.518 198.421C110.318 198.775 112.247 198.437 113.812 197.495C115.403 196.549 116.613 195 117.132 193.247C117.298 192.687 117.42 191.973 117.549 191.218C117.597 190.932 117.647 190.643 117.699 190.36L119.283 181.363L120.38 175.374L121.528 169.388C121.561 169.219 121.724 169.108 121.892 169.142C122.053 169.173 122.164 169.324 122.142 169.485L121.351 175.522L120.507 181.555L119.182 190.586C119.131 190.895 119.089 191.197 119.047 191.5C118.953 192.175 118.855 192.874 118.635 193.687C118.228 195.119 117.431 196.459 116.332 197.56C116.156 197.735 116.104 197.998 116.197 198.227C116.29 198.455 116.511 198.609 116.759 198.613C116.817 198.613 116.874 198.615 116.933 198.615C117.609 198.615 118.268 198.53 118.893 198.363C120.583 197.914 122.122 196.827 123.108 195.382C123.599 194.674 123.974 193.854 124.179 193.049C124.268 192.775 124.322 192.441 124.381 192.086C124.404 191.942 124.429 191.796 124.457 191.646L125.734 184.51C126.41 180.884 127.141 177.017 128.02 173.118C128.208 172.291 128.437 171.306 128.719 170.267C128.883 169.643 129.077 169.037 129.265 168.452C129.371 168.127 129.475 167.803 129.574 167.472C130.012 166.023 130.517 164.567 131.016 163.149C131.07 162.996 131.123 162.841 131.178 162.69L131.434 161.96C134.233 154.214 137.704 146.843 140.734 140.65C141.196 139.704 141.657 138.758 142.12 137.813C143.335 135.329 144.592 132.759 145.797 130.224C147.639 126.318 149.175 122.863 150.494 119.65C150.688 119.149 150.887 118.65 151.086 118.152C151.589 116.886 152.11 115.578 152.564 114.265C152.676 113.948 152.792 113.63 152.907 113.311C153.12 112.724 153.333 112.138 153.533 111.536C153.633 111.216 153.737 110.898 153.841 110.579C154.031 110.001 154.228 109.403 154.389 108.807C155.474 105.084 156.232 101.298 156.641 97.5533C157.513 89.7549 156.765 81.9008 154.478 74.8444L154.486 74.8367Z" fill="#57D1E5"/>
<path opacity="0.35" d="M46.2664 147.129C45.7707 142.09 45.4242 136.912 45.2331 131.74C45.0357 126.482 45.0513 121.293 45.2781 116.32C45.5438 110.55 45.9898 105.528 46.6393 100.97C47.3836 95.7135 48.389 90.6331 49.6228 85.8696C50.855 81.0566 52.5285 76.1633 54.5952 71.3271C56.5717 66.7878 59.2335 62.3768 62.5075 58.2117C65.9384 54.0017 69.7004 50.4751 73.6954 47.7184C77.6826 44.886 82.2945 42.5498 87.3928 40.7796C89.0679 40.2292 90.746 39.7623 92.4258 39.3618C88.7835 39.7684 85.1055 40.5709 81.4539 41.7706C76.8202 43.3801 72.6279 45.5044 69.0027 48.0786C65.3697 50.5833 61.9496 53.7914 58.831 57.6164C55.8553 61.4028 53.436 65.4133 51.6381 69.5398C49.7579 73.9354 48.2383 78.385 47.1179 82.7604C45.996 87.091 45.0823 91.7092 44.4048 96.4881C43.8128 100.632 43.4088 105.196 43.168 110.442C42.9613 114.964 42.9473 119.681 43.126 124.46C43.3 129.162 43.6155 133.869 44.0661 138.449C44.5276 143.056 45.1352 147.736 45.8701 152.361C47.0542 159.796 48.5723 167.104 50.3904 174.168C49.5948 170.297 48.88 166.379 48.2507 162.43C47.4427 157.344 46.7745 152.195 46.2664 147.127" fill="white"/>
<g opacity="0.33">
<path d="M111.726 72.9073C111.504 66.8992 108.996 61.4725 104.664 57.6243C94.9368 48.9878 78.6243 50.5989 68.3003 61.2158C62.8695 66.8018 59.9032 74.0854 60.1658 81.199C60.388 87.2071 62.8959 92.6354 67.2281 96.482C71.4376 100.22 76.8793 102.039 82.5369 102.039C89.952 102.039 97.7369 98.914 103.593 92.8905C109.024 87.3045 111.991 80.0208 111.726 72.9073Z" fill="#3B2D55"/>
</g>
<path d="M56.7644 94.4876C56.2034 99.7242 58.7673 104.577 63.3574 107.096C67.8404 109.633 73.3628 110.069 78.3958 109.134C80.7593 108.738 81.5207 112.099 79.2101 112.75C73.2727 114.271 66.7371 113.398 61.5099 110.109C55.9952 106.771 53.0444 100.449 54.303 94.1521C54.62 92.6199 56.8762 92.9291 56.7644 94.486" fill="#3B2D55"/>
<g opacity="0.33">
<path d="M57.3859 95.7227C56.8249 100.959 59.3888 105.812 63.979 108.331C68.4619 110.868 73.9844 111.304 79.0174 110.369C81.3808 109.973 82.1422 113.334 79.8316 113.985C73.8942 115.506 67.3586 114.633 62.1314 111.344C56.6167 108.006 53.6659 101.684 54.9245 95.3872C55.2415 93.855 57.4978 94.1642 57.3859 95.7212" fill="#3B2D55"/>
</g>
<path d="M66.1156 59.2397C60.6848 64.8242 57.7184 72.1094 57.981 79.2229C58.2032 85.231 60.7112 90.6593 65.0449 94.5059C69.2544 98.2444 74.6945 100.063 80.3537 100.063C87.7673 100.063 95.5537 96.9364 101.41 90.9144C106.841 85.3284 109.806 78.0448 109.543 70.9312C109.321 64.9231 106.813 59.4964 102.481 55.6482C98.2715 51.9113 92.8298 50.0916 87.1721 50.0916C79.757 50.0916 71.9737 53.2162 66.1171 59.2397" fill="url(#paint0_linear_36_2529)"/>
<path d="M89.5185 59.835C91.7079 62.9349 85.6276 70.2571 82.1438 70.6298C79.8518 70.8756 77.2071 69.2847 76.3789 70.1366C75.5523 70.9869 77.406 73.3957 77.3175 75.5942C77.1823 78.9415 69.9863 85.2727 66.5911 83.4143C62.5386 81.1957 61.8331 72.2547 69.6771 64.1872C77.521 56.1213 86.9064 56.1383 89.5185 59.8365" fill="#3B2D55"/>
<defs>
<linearGradient id="paint0_linear_36_2529" x1="109.559" y1="75.0763" x2="57.9655" y2="75.0763" gradientUnits="userSpaceOnUse">
<stop stop-color="#CECAD5"/>
<stop offset="0.66" stop-color="white"/>
<stop offset="1" stop-color="white"/>
</linearGradient>
</defs>
</svg>
