<svg width="200" height="200" viewBox="0 0 200 200" fill="none" xmlns="http://www.w3.org/2000/svg">
<path d="M130.813 62.8438C120.975 65.1772 91.4798 82.1784 84.5623 90.5027C82.4815 93.0079 132.062 74.1888 138.304 70.9438C144.549 67.6987 145.609 59.3347 130.812 62.8438H130.813Z" fill="url(#paint0_linear_36_2064)"/>
<path d="M121.54 76.3397C149.89 76.3397 169.691 93.9668 169.691 119.207C169.691 126.22 165.428 149.187 161.834 167.3C159.249 180.335 157.01 190.855 156.956 191.106C156.238 194.299 153.147 196.386 149.89 195.847L149.214 195.741L149.697 195.256C150.616 194.335 151.289 193.217 151.645 192.023C151.843 191.331 151.935 190.741 152.024 190.171C152.063 189.913 152.105 189.658 152.152 189.399L153.408 181.766C153.963 178.313 154.492 174.883 154.977 171.571C155.009 171.35 154.855 171.144 154.635 171.112C154.419 171.083 154.224 171.222 154.18 171.428C153.493 174.686 152.8 178.086 152.123 181.532L150.659 189.133C150.61 189.372 150.563 189.623 150.518 189.871C150.406 190.471 150.29 191.092 150.147 191.553C149.744 192.856 148.89 194.006 147.741 194.793C147.614 194.88 147.487 194.965 147.357 195.041C146.708 195.42 145.996 195.675 145.242 195.797C144.478 195.921 143.715 195.902 142.973 195.742C142.155 195.572 141.348 195.211 140.642 194.697L140.365 194.496L140.563 194.216C141.125 193.413 141.522 192.537 141.742 191.613C141.907 190.902 141.963 190.291 142.016 189.699C142.039 189.451 142.061 189.207 142.09 188.965L142.846 181.295C143.177 177.79 143.481 174.344 143.745 171.059C143.754 170.951 143.72 170.847 143.651 170.764C143.581 170.681 143.483 170.632 143.375 170.623C143.156 170.603 142.973 170.759 142.942 170.969C142.47 174.232 142.001 177.656 141.547 181.147L140.581 188.797C140.548 189.03 140.521 189.269 140.492 189.506C140.414 190.144 140.342 190.746 140.219 191.226C140.078 191.785 139.85 192.329 139.544 192.843C139.106 193.575 138.507 194.225 137.809 194.722L137.753 194.764C137.715 194.793 137.677 194.822 137.637 194.847C136.388 195.677 134.814 196.026 133.318 195.804C131.834 195.585 130.433 194.787 129.478 193.619C129.241 193.337 129.027 193.027 128.841 192.696L128.763 192.559L128.816 192.411C128.93 192.087 129.029 191.741 129.118 191.358C129.234 190.824 129.292 190.166 129.295 189.337L129.355 185.548C129.444 180.749 129.482 175.793 129.471 170.399C129.471 170.176 129.29 169.996 129.065 169.996C128.852 169.996 128.675 170.164 128.662 170.375C128.34 175.778 128.092 180.727 127.906 185.506L127.746 189.29C127.719 189.976 127.699 190.471 127.573 191.039C127.459 191.488 127.29 192.072 126.995 192.591C126.979 192.624 126.961 192.653 126.925 192.707C125.859 194.63 123.787 195.862 121.638 195.862H121.545C119.394 195.909 117.225 194.654 116.132 192.687C116.114 192.658 116.095 192.629 116.085 192.608C115.838 192.172 115.648 191.658 115.502 191.034C115.381 190.5 115.361 190.028 115.332 189.375L115.171 185.506C114.995 180.981 114.749 176.03 114.418 170.375C114.405 170.153 114.212 169.985 113.991 169.996C113.778 170.008 113.611 170.185 113.609 170.399C113.606 176.064 113.645 181.019 113.73 185.55L113.792 189.339C113.797 189.867 113.808 190.665 113.964 191.354C114.045 191.725 114.145 192.08 114.262 192.409L114.315 192.559L114.237 192.696C114.051 193.027 113.837 193.338 113.602 193.617C112.638 194.796 111.235 195.592 109.757 195.8C108.255 196.021 106.679 195.674 105.438 194.854C105.398 194.827 105.36 194.8 105.322 194.771L105.266 194.729C104.566 194.237 103.965 193.588 103.527 192.852C103.221 192.336 102.997 191.79 102.859 191.229C102.738 190.745 102.664 190.135 102.586 189.491C102.559 189.26 102.53 189.026 102.499 188.793L101.533 181.147C101.079 177.661 100.608 174.237 100.136 170.967C100.122 170.86 100.064 170.764 99.9769 170.701C99.8901 170.636 99.7833 170.609 99.6766 170.623C99.4667 170.654 99.3147 170.844 99.331 171.057C99.5952 174.349 99.8991 177.793 100.23 181.292L100.987 188.956C101.016 189.202 101.037 189.442 101.059 189.685C101.113 190.28 101.169 190.893 101.33 191.607C101.548 192.537 101.942 193.414 102.505 194.219L102.7 194.5L102.423 194.701C101.716 195.212 100.911 195.572 100.095 195.737C99.3491 195.891 98.5891 195.911 97.8364 195.789C97.0764 195.67 96.3617 195.417 95.7121 195.037C95.5818 194.961 95.4552 194.878 95.3303 194.793C94.1723 194.004 93.3182 192.852 92.9256 191.551C92.7844 191.083 92.6686 190.455 92.5546 189.851C92.5094 189.609 92.4642 189.364 92.4153 189.128L90.9533 181.532C90.2747 178.081 89.5835 174.68 88.8959 171.426C88.8489 171.207 88.6354 171.068 88.4164 171.113C88.2084 171.157 88.069 171.358 88.098 171.567C88.5829 174.872 89.1095 178.302 89.6668 181.76L90.9207 189.388C90.9678 189.65 91.0094 189.905 91.0492 190.162C91.1396 190.734 91.2319 191.325 91.4255 192.018C91.7729 193.214 92.4424 194.333 93.3671 195.256L93.7977 195.699L93.1916 195.844L93.1572 195.851C92.8188 195.907 92.4822 195.934 92.1493 195.934C89.3085 195.934 86.7626 193.957 86.1166 191.088C86.0624 190.835 83.7445 179.933 81.1009 166.575C77.5381 148.57 73.3854 126.097 73.3854 119.205C73.3854 93.9668 93.1861 76.3379 121.536 76.3379L121.54 76.3397Z" fill="#57D1E5"/>
<path d="M155.91 88.0139C164.61 95.5911 169.693 106.421 169.693 119.205C169.693 131.265 157.087 190.504 156.958 191.105C156.674 192.369 156.014 193.456 155.121 194.279C158.248 179.32 168.2 130.836 168.2 119.6C168.2 107.005 163.718 96.1338 155.909 88.0139" fill="#93E1EF"/>
<path d="M153.761 162.505H113.92C112.243 162.505 110.732 163.511 110.079 165.056C108.684 168.353 105.637 173.964 100.333 176.437C100.929 181.08 101.596 192.065 103.245 193.785C102.17 196.936 98.3303 196.149 97.5124 196.149C96.6946 196.149 94.2482 195.569 92.9273 192.783C90.8573 188.418 89.8639 180.675 89.3302 176.855C82.5828 174.574 81.3903 168.275 81.3053 167.778L83.1708 179.165H83.1491C83.7987 182.343 84.9242 187.778 85.6841 191.343C86.5798 195.325 90.6999 197.653 94.5033 196.455C95.3194 196.198 96.1952 196.182 97.0094 196.441C98.741 196.991 100.619 196.837 102.235 196.008C102.74 195.75 103.368 194.829 103.92 194.798C104.642 194.758 105.291 195.688 105.95 196.021C108.241 197.182 110.984 196.945 113.039 195.509C113.685 195.057 114.351 192.946 115.106 192.917C115.994 192.883 116.975 195.012 117.74 195.538C120.089 197.153 123.293 197.159 125.644 195.533C126.322 195.062 127.064 193.174 127.855 193.149C128.709 193.123 129.614 194.999 130.345 195.509C132.404 196.945 135.154 197.182 137.449 196.012C138.02 195.721 138.623 194.8 139.249 194.796C139.893 194.793 140.563 195.712 141.151 196.01C142.745 196.821 144.619 196.994 146.376 196.43C147.189 196.169 148.065 196.193 148.879 196.45C152.684 197.649 156.806 195.321 157.702 191.338C158.753 186.74 159.862 179.278 160.407 175.688C160.551 174.731 160.727 174.152 160.246 173.315C159.317 171.698 158.373 168.606 157.861 165.902C157.486 163.931 155.771 162.5 153.764 162.5L153.761 162.505ZM81.4265 168.722L81.4193 168.684C81.4193 168.684 81.4211 168.699 81.4265 168.722Z" fill="#657BC4"/>
<path d="M79.371 157.663C80.0677 155.755 81.0918 153.944 82.4163 152.408C85.6263 148.648 90.4575 146.276 95.4262 146.162C100.511 146.021 105.478 148.183 109.232 151.54C113.258 155.167 116.2 160.333 116.072 165.875C115.983 167.326 113.913 167.328 113.825 165.875C113.691 162.919 112.549 160.018 110.852 157.592C107.354 152.551 101.383 148.894 95.1312 149.154C94.7187 149.18 94.0872 149.225 93.6819 149.297C93.481 149.324 93.1608 149.369 92.9635 149.42L92.2506 149.57C91.7078 149.722 91.0292 149.912 90.5063 150.117C87.642 151.218 85.0762 153.128 83.2812 155.624C82.1431 157.236 81.3126 159.072 80.7806 161.024C80.6666 161.4 80.4314 161.639 80.1563 161.756C79.9862 160.906 79.6732 159.289 79.371 157.661V157.663Z" fill="#657BC4"/>
<path d="M165.354 148.966C161.99 149.259 159.287 151.849 157.624 154.74C155.702 158.07 154.913 162.035 154.844 165.875C154.839 166.501 154.322 167.006 153.694 166.989C153.086 166.975 152.603 166.479 152.597 165.875C152.574 163.755 152.742 161.632 153.171 159.548C154.379 153.255 158.841 146.226 165.904 145.949C165.667 147.311 165.531 147.978 165.354 148.966Z" fill="#657BC4"/>
<path d="M88.3405 176.786C88.5033 176.813 88.5667 176.583 88.4147 176.518C82.4707 174.006 81.3832 168.261 81.3018 167.787L82.0961 172.638C82.0997 172.662 82.2662 173.734 82.2807 173.752C82.5503 174.085 85.0636 176.236 88.3387 176.784L88.3405 176.786ZM81.4266 168.733L81.4194 168.695C81.4194 168.695 81.4212 168.709 81.4266 168.733Z" fill="#506AB2"/>
<path d="M86.1202 191.09C86.7662 193.961 89.3103 195.936 92.1529 195.936C92.4858 195.936 92.8224 195.909 93.1608 195.853L93.1951 195.846L93.8013 195.701L93.3707 195.258C92.446 194.333 91.7765 193.214 91.4291 192.02C91.2355 191.329 91.1432 190.737 91.0528 190.164C91.013 189.907 90.9713 189.654 90.9243 189.39L89.6704 181.762C89.1149 178.305 88.5865 174.876 88.1016 171.569C88.0708 171.359 88.2101 171.159 88.42 171.115C88.6372 171.07 88.8525 171.209 88.8995 171.428C89.5871 174.682 90.2783 178.083 90.9569 181.534L92.4189 189.129C92.4659 189.366 92.513 189.611 92.5582 189.853C92.6722 190.459 92.7898 191.087 92.9292 191.553C93.3218 192.856 94.1759 194.006 95.3339 194.795C95.4587 194.88 95.5854 194.963 95.7157 195.039C96.3653 195.417 97.08 195.672 97.84 195.791C98.5945 195.911 99.3527 195.893 100.098 195.739C100.912 195.574 101.719 195.216 102.427 194.702L102.704 194.502L102.508 194.221C101.946 193.416 101.551 192.537 101.334 191.609C101.173 190.897 101.117 190.282 101.063 189.687C101.041 189.444 101.017 189.202 100.99 188.958L100.234 181.294C99.9027 177.795 99.5987 174.351 99.3346 171.059C99.3183 170.848 99.4703 170.656 99.6802 170.625C99.7869 170.611 99.8937 170.638 99.9805 170.703C100.067 170.766 100.123 170.862 100.14 170.969C100.612 174.237 101.082 177.663 101.537 181.149L102.503 188.795C102.534 189.026 102.563 189.26 102.59 189.493C102.668 190.137 102.742 190.746 102.863 191.231C103 191.792 103.225 192.338 103.531 192.854C103.969 193.59 104.569 194.239 105.27 194.731L105.326 194.773C105.364 194.802 105.402 194.829 105.441 194.856C106.683 195.677 108.259 196.023 109.761 195.802C111.239 195.594 112.641 194.798 113.606 193.619C113.839 193.339 114.054 193.029 114.241 192.698L114.319 192.561L114.266 192.411C114.148 192.081 114.049 191.727 113.967 191.356C113.812 190.667 113.803 189.869 113.796 189.341L113.734 185.552C113.649 181.02 113.609 176.066 113.613 170.401C113.613 170.187 113.781 170.01 113.995 169.997C114.215 169.987 114.409 170.155 114.422 170.377C114.753 176.032 114.999 180.982 115.174 185.508L115.335 189.377C115.364 190.03 115.384 190.5 115.506 191.036C115.652 191.66 115.842 192.174 116.088 192.61C116.099 192.631 116.117 192.66 116.135 192.689C117.228 194.655 119.398 195.911 121.549 195.864H121.641C123.791 195.864 125.863 194.634 126.928 192.709C126.965 192.655 126.983 192.626 126.999 192.593C127.294 192.074 127.464 191.49 127.576 191.041C127.703 190.473 127.723 189.978 127.75 189.292L127.909 185.508C128.097 180.729 128.345 175.782 128.666 170.377C128.678 170.164 128.856 169.997 129.069 169.997C129.293 169.997 129.474 170.178 129.474 170.401C129.485 175.797 129.447 180.753 129.359 185.55L129.299 189.339C129.295 190.166 129.237 190.826 129.122 191.36C129.033 191.743 128.933 192.089 128.819 192.412L128.767 192.561L128.845 192.698C129.031 193.027 129.245 193.339 129.482 193.621C130.437 194.789 131.839 195.587 133.321 195.806C134.819 196.028 136.392 195.679 137.64 194.849C137.678 194.824 137.716 194.795 137.756 194.766L137.812 194.724C138.511 194.228 139.11 193.579 139.548 192.845C139.853 192.331 140.081 191.787 140.222 191.228C140.345 190.748 140.418 190.144 140.496 189.507C140.525 189.27 140.554 189.032 140.584 188.798L141.551 181.149C142.005 177.658 142.473 174.234 142.946 170.971C142.976 170.761 143.159 170.605 143.378 170.625C143.487 170.634 143.584 170.683 143.655 170.766C143.726 170.849 143.758 170.952 143.749 171.061C143.485 174.346 143.181 177.792 142.85 181.297L142.093 188.967C142.064 189.209 142.043 189.453 142.019 189.701C141.965 190.292 141.911 190.904 141.746 191.615C141.523 192.537 141.127 193.415 140.566 194.218L140.369 194.498L140.646 194.699C141.353 195.212 142.159 195.574 142.976 195.744C143.718 195.903 144.484 195.923 145.245 195.799C146 195.676 146.711 195.421 147.361 195.042C147.491 194.967 147.619 194.881 147.744 194.795C148.891 194.008 149.747 192.859 150.151 191.555C150.294 191.094 150.41 190.472 150.522 189.873C150.569 189.625 150.616 189.374 150.663 189.135L152.127 181.534C152.803 178.088 153.496 174.688 154.184 171.43C154.229 171.222 154.423 171.085 154.638 171.113C154.859 171.146 155.013 171.352 154.98 171.573C154.495 174.885 153.967 178.314 153.411 181.767L152.156 189.401C152.109 189.659 152.067 189.914 152.027 190.173C151.939 190.743 151.846 191.333 151.649 192.025C151.294 193.219 150.619 194.337 149.7 195.258L149.217 195.742L149.894 195.849C153.151 196.388 156.241 194.301 156.96 191.108C157.014 190.857 159.252 180.337 161.838 167.302L161.843 167.309C159.592 182.607 158.109 191.229 158.082 191.358V191.363L158.076 191.385C158.031 191.582 157.975 191.788 157.902 192.013C157.884 192.067 157.866 192.121 157.846 192.175L157.83 192.222C157.783 192.355 157.734 192.483 157.682 192.61C157.647 192.693 157.609 192.778 157.571 192.861C157.522 192.964 157.472 193.065 157.421 193.163L157.403 193.199C157.361 193.281 157.318 193.362 157.273 193.44C157.247 193.485 157.22 193.527 157.193 193.568L157.17 193.604C157.014 193.858 156.842 194.102 156.663 194.328L156.638 194.361C156.544 194.476 156.442 194.594 156.316 194.73L156.263 194.786C156.145 194.91 156.033 195.023 155.916 195.131L155.912 195.135C155.912 195.135 155.903 195.144 155.898 195.147L155.894 195.151C154.524 196.408 152.764 197.095 150.927 197.095C150.525 197.095 150.12 197.063 149.72 196.996L149.054 196.891L146.896 196.553C146.429 196.734 145.94 196.864 145.437 196.945C145.046 197.009 144.65 197.041 144.259 197.041C143.751 197.041 143.242 196.987 142.747 196.88C141.782 196.679 140.825 196.253 139.989 195.645L139.712 195.444L139.213 195.08C138.981 195.296 138.735 195.496 138.478 195.679L138.433 195.712C138.38 195.752 138.323 195.793 138.266 195.829C137.101 196.603 135.661 197.034 134.222 197.034C133.868 197.034 133.511 197.009 133.164 196.956C131.405 196.696 129.746 195.753 128.613 194.368C128.356 194.062 128.112 193.713 127.898 193.342C126.632 195.581 124.187 197.025 121.652 197.025H121.571C121.529 197.025 121.486 197.025 121.444 197.025C118.922 197.025 116.481 195.583 115.2 193.346C114.99 193.711 114.749 194.057 114.483 194.375C113.35 195.762 111.686 196.705 109.927 196.953C109.587 197.003 109.229 197.029 108.874 197.029C107.434 197.029 105.997 196.602 104.826 195.829C104.765 195.788 104.71 195.75 104.658 195.71L104.616 195.679C104.361 195.498 104.115 195.301 103.885 195.086L103.386 195.449L103.109 195.65C102.269 196.258 101.312 196.683 100.339 196.88C99.8503 196.982 99.3436 197.034 98.8424 197.034C98.4552 197.034 98.0625 197.003 97.6771 196.942C97.0438 196.842 96.4358 196.663 95.8586 196.408L94.0763 196.833L93.4702 196.978L93.4521 196.982L93.434 196.985L93.3996 196.992L93.3797 196.996L93.3598 197C92.9653 197.065 92.5655 197.097 92.1674 197.097C88.7783 197.097 85.7764 194.688 85.0291 191.367C84.9984 191.22 83.511 182.256 81.1081 166.577C83.7517 179.937 86.0696 190.837 86.1239 191.09H86.1202Z" fill="#3B2D55"/>
<path d="M154.702 163.949C155.06 161.149 155.856 158.392 157.253 155.972C158.916 153.081 161.757 150.525 165.12 150.23C165.298 149.243 165.225 149.623 165.361 148.892C158.299 149.169 154.41 154.517 153.202 160.81C153.001 161.789 152.456 162.746 152.364 163.737H115.406C114.57 159.501 112.059 155.652 108.863 152.772C105.109 149.415 100.143 147.253 95.0571 147.394C90.0884 147.508 85.2572 149.88 82.0473 153.64C81.0557 154.791 80.2324 156.095 79.5882 157.478C79.3729 157.941 80.6757 161.348 80.8349 160.903C81.3488 159.455 82.04 158.09 82.9104 156.858C84.7053 154.362 87.2711 152.452 90.1354 151.35C90.6584 151.146 91.3369 150.954 91.8797 150.804L92.5927 150.654C92.7899 150.603 93.1102 150.558 93.311 150.531C93.7163 150.458 94.3478 150.411 94.7604 150.388C101.012 150.127 106.983 153.785 110.481 158.826C111.534 160.333 112.373 162.02 112.891 163.791C112.221 163.898 111.603 164.166 111.078 164.562C110.499 164.996 155.903 164.348 154.703 163.95L154.702 163.949Z" fill="#4D9BB6"/>
<path d="M155.073 162.648C155.431 159.848 156.227 157.091 157.624 154.671C159.287 151.781 161.999 149.192 165.363 148.899C165.54 147.912 165.667 147.242 165.904 145.88C158.842 146.157 154.38 153.186 153.171 159.479C152.97 160.458 152.827 161.445 152.735 162.436H115.777C114.941 158.2 112.43 154.351 109.234 151.471C105.48 148.114 100.514 145.953 95.4281 146.094C90.4594 146.208 85.6282 148.579 82.4182 152.34C81.0955 153.875 80.0696 155.686 79.3729 157.594C79.6751 159.224 79.9881 160.839 80.1582 161.689C80.4333 161.57 80.6667 161.331 80.7825 160.957C81.3145 159.005 82.145 157.169 83.2831 155.557C85.0781 153.061 87.6439 151.151 90.5082 150.05C91.0311 149.845 91.7097 149.653 92.2525 149.503L92.9654 149.353C93.1627 149.303 93.4829 149.257 93.6838 149.23C94.0891 149.158 94.7206 149.111 95.1331 149.087C101.385 148.827 107.356 152.484 110.854 157.525C111.907 159.032 112.746 160.72 113.264 162.491C111.858 162.715 110.674 163.648 110.108 164.987C110.079 165.054 110.045 165.141 110.016 165.208L157.658 165.19C157.22 163.979 156.274 163.048 155.074 162.648H155.073Z" fill="#506AB2"/>
<path d="M81.4212 168.614L81.4284 168.652C81.4248 168.628 81.4212 168.614 81.4212 168.614Z" fill="#506AB2"/>
<path d="M81.4267 168.652L81.4194 168.614C81.4194 168.614 81.4212 168.628 81.4267 168.652Z" fill="#506AB2"/>
<path d="M134.43 94.8424C145.98 94.8424 155.378 104.237 155.378 115.783C155.378 127.329 145.98 136.724 134.43 136.724C122.881 136.724 113.483 127.329 113.483 115.783C113.483 104.237 122.881 94.8424 134.43 94.8424Z" fill="#4D9BB6"/>
<path d="M157.456 114.092C157.456 125.637 148.057 135.031 136.508 135.031C124.958 135.031 115.56 125.637 115.56 114.092C115.56 102.544 124.958 93.1509 136.508 93.1509C148.057 93.1509 157.456 102.544 157.456 114.092Z" fill="url(#paint1_linear_36_2064)"/>
<path d="M122.211 114.399C122.519 123.192 128.801 127.844 132.809 126.897C136.169 126.102 136.586 118.639 134.485 116.68C133.104 115.394 130.363 115.045 130.33 114.117C130.298 113.189 133.008 112.65 134.295 111.27C136.254 109.17 135.317 101.754 131.91 101.195C127.846 100.529 121.902 105.607 122.21 114.399" fill="#3B2D55"/>
<g opacity="0.15">
<path d="M126.369 103.275C124.553 105.558 123.277 108.906 123.424 113.101C123.731 121.893 130.014 126.546 134.021 125.598C134.284 125.536 134.526 125.428 134.752 125.29C134.277 126.106 133.632 126.701 132.809 126.897C128.801 127.844 122.519 123.192 122.211 114.401C122.034 109.322 123.943 105.485 126.369 103.277" fill="#3B2D55"/>
</g>
<path d="M128.6 142.074C121.634 140.137 115.402 135.736 111.373 129.738C110.046 127.759 108.883 125.672 107.969 123.463C107.649 122.684 106.757 122.313 105.979 122.635C105.226 122.946 104.859 123.794 105.128 124.554C106.867 129.537 110.106 133.956 114.143 137.33C118.144 140.703 123.009 143.057 128.135 144.048C129.402 144.267 129.838 142.445 128.602 142.073" fill="#4D9BB6"/>
<path d="M129.615 142.074C122.649 140.137 116.417 135.736 112.388 129.738C111.061 127.759 109.898 125.672 108.984 123.463C108.664 122.684 107.772 122.313 106.994 122.635C106.241 122.946 105.874 123.794 106.143 124.554C107.882 129.537 111.121 133.956 115.158 137.33C119.159 140.703 124.024 143.057 129.15 144.048C130.417 144.267 130.853 142.445 129.617 142.073" fill="#3B2D55"/>
<path d="M160.776 172.604C160.705 173.051 157.003 190.891 156.958 191.106C156.674 192.371 156.013 193.458 155.121 194.281C156.118 189.515 157.803 181.368 159.643 172.081C159.643 172.081 159.938 172.662 160.776 172.604Z" fill="#758AC6"/>
<path d="M114.154 163.934L113.92 162.453C112.243 162.453 110.732 163.458 110.079 165.003C108.745 168.156 105.899 173.425 101.016 176.042C100.902 176.104 100.965 176.278 101.092 176.254C106.154 175.31 108.098 173.438 109.308 172.336C112.375 169.549 114.152 163.934 114.152 163.934H114.154ZM81.4266 168.67L81.4193 168.632C81.4193 168.632 81.4211 168.646 81.4266 168.67Z" fill="#506AB2"/>
<path d="M115.985 165.202C115.078 165.202 113.633 165.352 112.979 166.85C112.326 168.348 112.086 165.027 112.136 165.014C112.187 165.001 115.86 164.31 115.86 164.31L115.987 165.204L115.985 165.202Z" fill="#506AB2"/>
<path d="M153.761 162.494H151.057C151.057 162.494 150.797 165.193 152.601 165.193C154.765 165.193 156.08 167.778 157.132 169.525C159.448 173.376 159.643 172.114 159.355 171.348C158.751 169.74 158.205 167.729 157.857 165.897C157.483 163.925 155.767 162.494 153.761 162.494Z" fill="#506AB2"/>
<path d="M125.188 76.4428C114.199 80.3607 111.422 80.7514 104.732 82.2835C96.9298 84.0707 92.0063 85.9193 86.8513 89.0956C90.4955 85.0782 93.7181 81.5437 100.437 79.6589C113.808 75.9092 117.556 76.2059 125.188 76.4446V76.4428Z" fill="#4D9BB6"/>
<path d="M84.5641 90.5028C83.4042 89.1715 80.8656 86.3208 80.8656 81.6775C80.8656 75.249 95.5112 62.4641 102.921 64.6221C108.336 66.1994 110.209 69.8188 111.707 73.8127C112.154 75.0048 95.2561 82.8099 84.5623 90.501L84.5641 90.5028Z" fill="url(#paint2_linear_36_2064)"/>
<path d="M130.813 62.844C120.975 65.1774 91.4798 82.1786 84.5623 90.5028C95.1312 83.8626 94.82 85.865 110.209 78.0581C122.76 71.691 120.885 67.386 130.813 62.844Z" fill="#FCC86B"/>
<g opacity="0.3">
<path d="M130.542 62.9852C123.337 66.2574 122.043 70.2223 116.615 74.1837C115.375 75.0881 113.951 76.0811 112.182 77.0109C114.442 76.6943 116.886 76.47 118.563 76.4049C121.265 70.6908 123.52 66.2954 130.542 62.9834V62.9852Z" fill="#B03831"/>
</g>
<path d="M181.523 164.377C180.678 164.735 179.495 164.938 179.495 164.938C179.144 164.998 178.964 164.777 179.098 164.446L181.775 157.827C181.908 157.496 181.838 156.995 181.619 156.715L179.52 154.029C179.301 153.749 178.831 153.559 178.478 153.607L175.101 154.081C174.749 154.13 174.35 154.441 174.217 154.772L171.54 161.391C171.406 161.722 171.124 161.756 170.912 161.469C170.912 161.469 170.201 160.501 169.843 159.658C168.953 157.56 168.862 155.123 169.783 152.842C170.704 150.563 172.463 148.872 174.562 147.982C176.661 147.092 179.098 147.002 181.38 147.922C183.66 148.843 185.352 150.601 186.242 152.699C187.132 154.798 187.223 157.234 186.302 159.515C185.381 161.794 183.622 163.485 181.523 164.375V164.377Z" fill="#3B2D55"/>
<path d="M181.636 139.029L177.902 148.266C177.768 148.599 177.929 148.977 178.261 149.112L182.794 150.942C183.127 151.077 183.506 150.916 183.64 150.584L187.374 141.346C187.508 141.013 187.347 140.635 187.015 140.501L182.482 138.67C182.149 138.535 181.77 138.696 181.636 139.029Z" fill="#3B2D55"/>
<path d="M199.291 120.415C198.933 119.571 198.222 118.605 198.222 118.605C198.01 118.317 197.728 118.353 197.594 118.683L194.918 125.301C194.784 125.632 194.386 125.943 194.033 125.992L190.657 126.466C190.304 126.515 189.835 126.327 189.615 126.045L187.516 123.358C187.297 123.078 187.226 122.577 187.36 122.246L190.034 115.627C190.168 115.296 189.989 115.076 189.638 115.135C189.638 115.135 188.455 115.338 187.61 115.696C185.511 116.586 183.752 118.277 182.831 120.557C181.91 122.836 182 125.274 182.891 127.372C183.781 129.47 185.473 131.229 187.753 132.149C190.033 133.07 192.472 132.98 194.571 132.09C196.67 131.2 198.428 129.508 199.349 127.229C200.27 124.95 200.18 122.512 199.29 120.414L199.291 120.415Z" fill="#3B2D55"/>
<path d="M185.49 129.488L181.757 138.726C181.622 139.058 181.783 139.437 182.116 139.571L186.649 141.402C186.982 141.536 187.36 141.376 187.495 141.043L191.228 131.805C191.362 131.473 191.202 131.094 190.869 130.96L186.336 129.129C186.003 128.995 185.625 129.156 185.49 129.488Z" fill="#3B2D55"/>
<path d="M199.292 120.415C198.933 119.57 198.222 118.605 198.222 118.605C198.01 118.317 197.728 118.353 197.594 118.682L194.918 125.301C194.784 125.632 194.386 125.943 194.033 125.992L190.657 126.466C190.528 126.484 190.386 126.469 190.244 126.431L179.16 153.748C179.303 153.822 179.429 153.918 179.516 154.029L181.615 156.715C181.834 156.995 181.905 157.496 181.771 157.827L179.095 164.446C178.961 164.777 179.14 164.997 179.491 164.938C179.491 164.938 180.674 164.735 181.519 164.377C183.618 163.487 185.377 161.796 186.298 159.517C187.219 157.238 187.129 154.799 186.238 152.701C185.741 151.531 184.995 150.467 184.038 149.595L187.373 141.345C187.395 141.293 187.405 141.24 187.413 141.186C187.445 141.143 187.474 141.097 187.494 141.045L190.829 132.795C192.124 132.833 193.4 132.585 194.571 132.089C196.67 131.199 198.428 129.508 199.349 127.229C200.27 124.95 200.18 122.512 199.29 120.413L199.292 120.415Z" fill="#453963"/>
<path fill-rule="evenodd" clip-rule="evenodd" d="M21.6065 119.146L20.2042 120.03L18.8073 120.911L19.8152 122.262L20.8194 123.613L20.8176 123.619L19.4226 124.496L18.022 125.381L19.0299 126.732L20.0323 128.078L20.0287 128.094L18.6373 128.967L17.2404 129.848L18.2446 131.203L19.2452 132.544L19.2416 132.562L17.8574 133.439L16.4551 134.32L17.4647 135.675L18.4581 137.008L18.4545 137.037L17.0721 137.905L15.6734 138.789L16.6794 140.141L17.671 141.476L17.6656 141.51L16.2904 142.376L14.8881 143.257L15.8978 144.612L16.8857 145.94L16.8767 145.985L15.5051 146.848L14.1082 147.727L15.1125 149.083L16.0986 150.404L16.0896 150.453L14.7198 151.314L13.3229 152.198L14.3308 153.549L15.3115 154.874L14.8718 157.364H28.1459V119.146H21.6065Z" fill="#E5E5E4"/>
<path d="M28.1458 119.146H26.0686V157.364H28.1458V119.146Z" fill="#DADADA"/>
<path fill-rule="evenodd" clip-rule="evenodd" d="M65.0457 148.684L78.8191 167.881V193.521C78.8191 195.245 77.406 196.654 75.6816 196.654H48.6522C46.8753 196.654 45.4241 195.203 45.4241 193.427V167.883L57.6957 150.777H57.1837V146.594H61.9298V146.598C62.9666 146.473 64.0505 147.085 65.0457 148.686V148.684Z" fill="#195ACE"/>
<path fill-rule="evenodd" clip-rule="evenodd" d="M60.5148 148.684L74.2882 167.881H40.8932L54.882 148.382C56.5069 146.149 58.6601 145.708 60.5166 148.684H60.5148Z" fill="#326DE6"/>
<path fill-rule="evenodd" clip-rule="evenodd" d="M68.699 167.883H62.8672L63.1097 159.792L68.699 167.883Z" fill="#326DE6"/>
<path fill-rule="evenodd" clip-rule="evenodd" d="M7.08577 151.453H11.7234V135.333L14.0503 131.849L11.3669 122.481H7.41509L4.73169 131.849L7.08396 135.349V151.451L7.08577 151.453Z" fill="#E5E5E4"/>
<path fill-rule="evenodd" clip-rule="evenodd" d="M11.7235 151.453V135.333L14.0504 131.849L11.367 122.481H10.18L12.0365 131.643L9.68787 135.278V152.088C9.68787 152.088 10.5926 151.795 11.7217 151.451L11.7235 151.453Z" fill="#DADADA"/>
<path fill-rule="evenodd" clip-rule="evenodd" d="M16.2814 157.258V166.316H2.7323V157.258L4.79868 155.778L2.7323 153.792V150.994H16.2814V153.792L14.215 155.778L16.2814 157.258Z" fill="#453963"/>
<path d="M32.7255 160.184C33.0765 159.164 34.1893 158.627 35.2099 158.978C36.2304 159.329 36.7678 160.445 36.4168 161.461C35.0362 165.403 34.772 168.796 35.3383 171.846C35.9047 174.895 37.3179 177.663 39.2938 180.326C39.9343 181.194 39.7479 182.417 38.8812 183.06C38.0127 183.701 36.7895 183.514 36.149 182.646C33.8419 179.539 32.1845 176.257 31.4951 172.564C30.8093 168.861 31.1115 164.808 32.7273 160.184H32.7255Z" fill="#B03831"/>
<path fill-rule="evenodd" clip-rule="evenodd" d="M33.2213 159.651C33.3082 158.251 34.5603 155.044 34.8987 155.069C35.3492 155.101 36.6756 157.259 36.7262 157.44C36.7552 157.56 36.263 158.949 35.883 159.965C35.4524 161.101 33.196 160.032 33.2213 159.651Z" fill="#E5E5E4"/>
<path d="M29.7852 160.703C30.0367 159.982 31.1929 159.387 32.2062 159.291C32.2496 159.287 32.2876 159.397 32.3311 159.396C32.702 159.372 33.0476 159.405 33.3154 159.497C34.3359 159.848 34.8788 160.96 34.5223 161.98C33.1453 165.922 32.8775 169.315 33.4439 172.365C34.0102 175.415 35.4234 178.182 37.3993 180.845C38.0398 181.713 37.8589 182.936 36.9904 183.576C36.1218 184.22 34.895 184.036 34.2545 183.167C31.9475 180.06 29.2442 176.779 28.5584 173.081C27.8672 169.382 28.1694 165.329 29.7852 160.705V160.703Z" fill="#B03831"/>
<path fill-rule="evenodd" clip-rule="evenodd" d="M24.8871 149.436L38.1231 167.883H66.1694V196.654H21.4275V167.883H4.72815L16.9998 150.777H16.4913V150.227H15.2012V145.607C15.2012 144.339 16.0896 143.264 17.2712 142.979V142.901H58.6983C60.059 142.901 61.17 144.012 61.17 145.372C61.17 146.732 60.059 147.843 58.6983 147.843H24.8853V149.438L24.8871 149.436Z" fill="#195ACE"/>
<path fill-rule="evenodd" clip-rule="evenodd" d="M33.395 167.883V193.523C33.395 195.247 31.9854 196.656 30.261 196.656H3.23166C1.45479 196.656 0 195.205 0 193.429V167.884L13.2107 149.472V145.171C13.2107 143.885 14.2656 142.836 15.5467 142.836H17.6999C18.9195 142.836 19.9165 143.832 19.9165 145.046V149.091L33.395 167.884V167.883Z" fill="#548DFF"/>
<path fill-rule="evenodd" clip-rule="evenodd" d="M44.5846 155.601C44.1901 154.982 43.4428 154.289 42.7787 153.795L43.9314 150.25L38.1412 139.334L35.7437 139.746L35.9083 142.99C36.8384 142.751 37.9331 143.887 38.3547 145.522C38.7763 147.162 38.3637 148.684 37.4337 148.922L38.8396 154.398L41.1484 154.28C41.0399 155.071 41.0091 155.993 41.0381 156.1C41.067 156.219 41.5791 156.451 42.4024 157.158C43.3234 157.947 44.7872 155.919 44.5846 155.601Z" fill="#DADADA"/>
<path fill-rule="evenodd" clip-rule="evenodd" d="M35.6604 142.812C34.2635 144.652 34.8878 148.805 37.5296 148.879L36.149 150.008C36.149 150.008 34.3956 150.008 34.211 149.686C34.0247 149.364 32.2261 146.363 32.3184 146.066C32.4125 145.764 33.2448 143.232 33.2448 143.232L34.0971 142.009L35.664 142.814L35.6604 142.812Z" fill="#DADADA"/>
<path fill-rule="evenodd" clip-rule="evenodd" d="M34.2925 156.084L31.4064 153.262L31.2164 140.911L33.4782 140.329L35.7436 139.746L41.5302 150.664L40.365 154.528L37.1785 154.722L34.2943 156.086L34.2925 156.084ZM34.2454 143.312C33.3154 143.55 32.9028 145.072 33.319 146.712C33.7406 148.353 34.8407 149.485 35.7708 149.245C36.7008 149.004 37.1134 147.485 36.6918 145.844C36.2738 144.207 35.1755 143.071 34.2454 143.312Z" fill="#E5E5E4"/>
<path fill-rule="evenodd" clip-rule="evenodd" d="M32.1882 159.497C32.2587 158.406 33.0277 156.228 33.5272 155.324C33.4783 153.577 34.6382 151.96 36.4042 151.509C38.2389 151.039 40.1045 151.976 40.8518 153.649C41.7691 154.293 43.2746 155.662 43.812 156.509C44.0147 156.827 42.5563 158.857 41.6334 158.066C41.315 157.793 40.9603 157.484 40.6382 157.194C40.1388 158.025 39.3246 158.665 38.3113 158.925C37.2564 159.198 36.1943 159.003 35.3348 158.471C35.1864 158.902 35.0091 159.388 34.8517 159.81C34.421 160.946 32.1646 159.871 32.19 159.495L32.1882 159.497Z" fill="#DADADA"/>
<path fill-rule="evenodd" clip-rule="evenodd" d="M37.041 153.982C37.7232 153.808 38.418 154.217 38.5953 154.904C38.769 155.586 38.3547 156.281 37.6743 156.458C36.9922 156.632 36.2973 156.218 36.12 155.536C35.9463 154.854 36.3589 154.159 37.041 153.982Z" fill="#E5E5E4"/>
<path fill-rule="evenodd" clip-rule="evenodd" d="M49.6981 135.879H62.7477C63.3575 135.879 63.9601 136.007 64.5192 136.253L69.2545 138.35C69.8588 138.614 70.4541 138.887 70.4541 139.547V143.903C70.4541 144.565 69.9167 145.1 69.2563 145.1H49.6999C49.0376 145.1 48.502 144.563 48.502 143.903V137.08C48.502 136.42 49.0394 135.877 49.6999 135.877L49.6981 135.879Z" fill="#3B2D55"/>
<path fill-rule="evenodd" clip-rule="evenodd" d="M48.8132 135.879H55.0051C55.8392 135.879 56.5214 136.561 56.5214 137.395V143.585C56.5214 144.419 55.8392 145.1 55.0051 145.1H48.8132C47.9826 145.1 47.2969 144.419 47.2969 143.585V137.395C47.2969 136.561 47.9826 135.879 48.8132 135.879Z" fill="#453963"/>
<path fill-rule="evenodd" clip-rule="evenodd" d="M56.1668 145.102H62.0077C62.7514 145.102 63.3594 145.71 63.3594 146.453V167.883H54.7283V145.102C55.3544 145.102 55.3779 145.102 56.1668 145.102Z" fill="url(#paint3_linear_36_2064)"/>
<path d="M44.0996 158.82C43.298 158.097 43.2365 156.861 43.9585 156.064C44.6823 155.262 45.9181 155.201 46.7197 155.923C50.3657 159.195 52.5805 162.601 53.7638 166.175C54.9454 169.746 55.0739 173.419 54.5527 177.252C54.408 178.323 53.4237 179.076 52.3543 178.931C51.2831 178.786 50.5322 177.802 50.6769 176.733C51.1239 173.452 51.028 170.344 50.0527 167.398C49.081 164.457 47.2082 161.61 44.0996 158.82Z" fill="#B03831"/>
<path d="M41.0543 159.387C40.2563 158.663 41.3474 157.382 42.0675 156.581C42.7913 155.783 44.0272 155.722 44.8287 156.44C48.4748 159.712 50.695 163.122 51.8765 166.696C53.0545 170.267 53.1829 173.94 52.6618 177.773C52.2493 180.839 47.5737 179.012 47.8089 177.252C47.8831 176.719 47.941 176.191 47.9826 175.67C48.2015 172.967 48.0025 170.384 47.1846 167.913C46.213 164.972 44.1665 162.174 41.0543 159.385V159.387Z" fill="#EB4B3D"/>
<path d="M44.7655 155.528C44.7655 155.528 43.2908 155.916 43.0013 156.01C43.4247 155.916 44.0761 155.923 44.5502 156.236C45.0242 156.549 45.1618 156.107 45.1618 156.107L44.7655 155.528Z" fill="#B03831"/>
<path d="M53.6516 178.651C52.8283 179.168 51.6884 179.369 51.0587 179.409C51.8929 179.253 52.0829 179.007 52.3887 178.604C52.6944 178.2 53.6516 178.651 53.6516 178.651Z" fill="#B03831"/>
<path fill-rule="evenodd" clip-rule="evenodd" d="M35.9806 159.696C35.6839 160.457 34.6344 160.362 33.8183 160.121C33.0023 159.88 32.3563 159.58 32.2079 159.292C32.1953 159.388 32.1826 159.484 32.1699 159.575C32.4413 159.967 32.8756 160.562 32.8756 160.562L34.7628 161.147L36.062 160.803L36.053 159.922L35.9806 159.698V159.696Z" fill="#B03831"/>
<path fill-rule="evenodd" clip-rule="evenodd" d="M62.0076 145.102C62.7513 145.102 62.9286 145.102 63.3593 145.102V167.883H62.0076V145.102Z" fill="#FCC86B"/>
<defs>
<linearGradient id="paint0_linear_36_2064" x1="84.5008" y1="76.3649" x2="142.64" y2="76.3649" gradientUnits="userSpaceOnUse">
<stop offset="0.46" stop-color="#F97100"/>
<stop offset="1" stop-color="#F98912"/>
</linearGradient>
<linearGradient id="paint1_linear_36_2064" x1="115.562" y1="114.092" x2="157.456" y2="114.092" gradientUnits="userSpaceOnUse">
<stop stop-color="#CECAD5"/>
<stop offset="0.66" stop-color="white"/>
<stop offset="1" stop-color="white"/>
</linearGradient>
<linearGradient id="paint2_linear_36_2064" x1="84.2673" y1="77.4413" x2="104.944" y2="77.4413" gradientUnits="userSpaceOnUse">
<stop stop-color="#FA9B20"/>
<stop offset="1" stop-color="#FAAF2F"/>
</linearGradient>
<linearGradient id="paint3_linear_36_2064" x1="54.7283" y1="156.493" x2="63.3594" y2="156.493" gradientUnits="userSpaceOnUse">
<stop stop-color="#FA9B20"/>
<stop offset="1" stop-color="#FAAF2F"/>
</linearGradient>
</defs>
</svg>
