<svg width="200" height="200" viewBox="0 0 200 200" fill="none" xmlns="http://www.w3.org/2000/svg">
<g clip-path="url(#clip0_36_2920)">
<path d="M105.57 186.057C105.176 187.784 104.208 189.326 102.825 190.431C101.443 191.537 99.7259 192.142 97.9553 192.148C97.528 192.15 97.1014 192.116 96.6801 192.045H96.6361L95.9032 191.862L96.4455 191.298C97.5974 190.165 98.4423 188.757 98.9007 187.208C99.1084 186.437 99.2675 185.654 99.377 184.863C99.4283 184.54 99.4796 184.218 99.5383 183.888L101.092 174.266C101.825 169.868 102.462 165.566 103.078 161.389C103.102 161.255 103.072 161.117 102.995 161.005C102.917 160.893 102.798 160.816 102.664 160.792C102.53 160.768 102.392 160.797 102.28 160.875C102.168 160.953 102.091 161.072 102.067 161.206C101.202 165.325 100.33 169.619 99.4723 173.98L97.6181 183.58L97.4423 184.496C97.3247 185.22 97.1681 185.937 96.9732 186.644C96.4604 188.316 95.3895 189.762 93.9391 190.741C93.7779 190.85 93.624 190.953 93.4554 191.048C92.6277 191.528 91.7183 191.851 90.7731 192.001C89.8265 192.149 88.8611 192.126 87.9223 191.935C86.8643 191.707 85.8658 191.26 84.9908 190.623L84.6463 190.367L84.8882 190.015C85.5804 189.018 86.0777 187.899 86.3539 186.717C86.5232 185.915 86.6383 185.102 86.6984 184.284C86.6984 183.976 86.7497 183.676 86.7863 183.361L87.7464 173.679C88.1641 169.282 88.5452 164.885 88.8823 160.744C88.8895 160.615 88.8486 160.487 88.7675 160.385C88.6864 160.284 88.5707 160.216 88.4426 160.195C88.3755 160.186 88.3072 160.19 88.2418 160.208C88.1764 160.225 88.1151 160.256 88.0615 160.297C87.9547 160.377 87.8836 160.495 87.8636 160.627C87.27 164.76 86.6764 169.092 86.0974 173.496L84.8809 183.155L84.7709 184.035C84.6965 184.773 84.5815 185.507 84.4265 186.233C83.972 188.016 82.8928 189.576 81.3851 190.631L81.3045 190.682L81.1579 190.785C79.5424 191.83 77.6026 192.255 75.698 191.979C74.519 191.798 73.3967 191.351 72.4164 190.672C71.436 189.993 70.6234 189.099 70.0403 188.058L69.945 187.882L70.0109 187.692C70.1625 187.258 70.2873 186.815 70.3847 186.365C70.5439 185.525 70.6176 184.67 70.6046 183.815L70.6779 179.029C70.7878 173.298 70.8391 167.04 70.8318 159.879C70.8168 159.755 70.7567 159.64 70.6628 159.557C70.569 159.474 70.4479 159.428 70.3224 159.428C70.197 159.428 70.0758 159.474 69.982 159.557C69.8881 159.64 69.828 159.755 69.8131 159.879C69.3953 167.025 69.0802 173.284 68.8603 179L68.6551 183.896C68.65 184.597 68.5788 185.296 68.4426 185.984C68.2964 186.681 68.0495 187.352 67.7097 187.978L67.6511 188.073C66.9717 189.29 65.9799 190.304 64.7779 191.01C63.576 191.716 62.2074 192.088 60.8134 192.089H60.6962C59.3303 192.073 57.993 191.696 56.8203 190.996C55.6475 190.296 54.6812 189.297 54.0197 188.102C53.9844 188.057 53.9549 188.008 53.9318 187.956C53.6031 187.336 53.3567 186.675 53.1989 185.992C53.0572 185.267 52.9836 184.531 52.9791 183.793L52.7812 179.007C52.5393 172.968 52.2315 166.717 51.8211 159.887C51.8118 159.757 51.7537 159.636 51.6585 159.547C51.5633 159.459 51.4381 159.41 51.3081 159.41C51.174 159.41 51.0454 159.464 50.9506 159.558C50.8557 159.653 50.8024 159.782 50.8024 159.916C50.8024 166.739 50.8024 172.998 50.949 179.066L51.0223 183.852C51.0113 184.707 51.0874 185.562 51.2495 186.402C51.3498 186.854 51.477 187.299 51.6306 187.736L51.6965 187.919L51.6013 188.095C51.3708 188.508 51.1008 188.899 50.7951 189.26C49.573 190.747 47.8456 191.73 45.9435 192.023C44.037 192.298 42.0956 191.868 40.4836 190.814L40.3444 190.711L40.2638 190.682C38.7648 189.618 37.686 188.062 37.215 186.285C37.0591 185.559 36.9441 184.825 36.8706 184.086L36.7607 183.192L35.5368 173.518C34.9651 169.121 34.3715 164.782 33.7779 160.656C33.7614 160.526 33.6945 160.408 33.5916 160.327C33.4888 160.247 33.3583 160.209 33.2282 160.224C33.162 160.229 33.0974 160.247 33.0382 160.277C32.9791 160.307 32.9266 160.349 32.8838 160.4C32.7955 160.504 32.7509 160.638 32.7592 160.774C33.0963 164.922 33.4921 169.275 33.8951 173.709L34.8699 183.353C34.8699 183.654 34.9358 183.969 34.9578 184.277C35.0175 185.09 35.1351 185.898 35.3096 186.695C35.5873 187.874 36.0846 188.991 36.7753 189.986L37.0245 190.337L36.6727 190.594C35.7989 191.234 34.8001 191.684 33.7412 191.913C32.7991 192.118 31.8263 192.141 30.8757 191.979C29.9355 191.828 29.0312 191.505 28.2081 191.026C28.0414 190.93 27.88 190.825 27.7244 190.711C26.2792 189.729 25.2076 188.288 24.683 186.622C24.4879 185.922 24.3313 185.213 24.2139 184.496C24.1553 184.181 24.0967 183.866 24.0307 183.558L22.1839 173.958C21.3264 169.605 20.4543 165.303 19.5895 161.184C19.5597 161.058 19.4838 160.947 19.3767 160.874C19.2696 160.801 19.139 160.77 19.0106 160.788C18.8767 160.808 18.7561 160.88 18.6751 160.989C18.5941 161.097 18.5593 161.233 18.5782 161.367C19.1938 165.552 19.8607 169.883 20.5642 174.251L22.1472 183.896C22.2059 184.218 22.2572 184.548 22.3085 184.87C22.4158 185.662 22.5749 186.445 22.7848 187.215C23.2609 188.756 24.1062 190.158 25.2473 191.298L25.8629 191.913L25.0054 192.045C23.0362 192.378 21.0144 191.944 19.3546 190.834C17.6948 189.723 16.5229 188.019 16.0791 186.072C16.0131 185.757 13.1842 172.463 9.91565 155.988C12.7592 175.321 14.6353 186.219 14.672 186.38C14.7285 186.648 14.802 186.913 14.8918 187.171L14.9578 187.377V187.435C15.0164 187.604 15.0824 187.765 15.1483 187.926C15.2143 188.088 15.2363 188.139 15.2876 188.241C15.3389 188.344 15.4122 188.498 15.4781 188.623V188.674C15.5368 188.776 15.5881 188.879 15.6467 188.974C15.7053 189.07 15.7126 189.084 15.742 189.136V189.187C15.9401 189.501 16.1554 189.805 16.3869 190.096V190.14C16.5041 190.286 16.6361 190.433 16.79 190.609L16.8559 190.675L17.2956 191.114C19.0313 192.743 21.3285 193.638 23.7083 193.613C24.219 193.616 24.729 193.574 25.2326 193.489L26.0754 193.357L28.8017 192.932C29.3963 193.16 30.0127 193.327 30.6412 193.43C31.8398 193.628 33.0658 193.585 34.2475 193.303C35.4291 193.021 36.5426 192.506 37.5228 191.789L37.8746 191.532L38.5049 191.07C38.7989 191.335 39.1098 191.579 39.4356 191.803L39.4943 191.847L39.6995 192.001C41.2255 192.995 43.0083 193.522 44.8296 193.518C45.2626 193.532 45.6961 193.515 46.1267 193.467C48.3778 193.118 50.4225 191.955 51.8724 190.198C52.2134 189.795 52.5152 189.361 52.7739 188.901C53.5703 190.297 54.7175 191.461 56.1019 192.277C57.4863 193.093 59.0599 193.534 60.6669 193.555H60.9307C62.541 193.535 64.1182 193.096 65.5065 192.279C66.8947 191.463 68.0457 190.299 68.8457 188.901C69.1121 189.36 69.4161 189.796 69.7544 190.206C71.1999 191.969 73.2515 193.129 75.5075 193.459C75.9491 193.525 76.3949 193.556 76.8413 193.555C78.6615 193.559 80.4437 193.035 81.9714 192.045L82.1839 191.891L82.2352 191.854C82.557 191.628 82.8653 191.384 83.1586 191.122L83.7889 191.583L84.1407 191.84C85.1815 192.602 86.3735 193.131 87.6365 193.394C88.2589 193.519 88.8923 193.583 89.5273 193.584C90.8241 193.583 92.1067 193.314 93.2942 192.793L95.5441 193.328L96.277 193.511H96.4162C96.9149 193.596 97.42 193.638 97.9259 193.635C100.024 193.62 102.056 192.897 103.693 191.583C105.329 190.269 106.473 188.441 106.94 186.395C106.977 186.211 108.86 174.881 111.894 155.072C108.567 171.957 105.643 185.735 105.57 186.057Z" fill="#3B2D55"/>
<path d="M60.8282 41.0447C25.0128 41.0447 0 63.3239 0 95.2184C0 104.079 5.38659 133.1 9.92305 155.988C13.1917 172.463 16.0205 185.757 16.0865 186.072C16.5255 188.023 17.6955 189.732 19.3558 190.847C21.0161 191.962 23.0405 192.399 25.0128 192.067L25.8703 191.935L25.2547 191.32C24.1136 190.18 23.2683 188.778 22.7922 187.237C22.5823 186.467 22.4232 185.684 22.3159 184.892C22.2646 184.57 22.2133 184.24 22.1546 183.918L20.5716 174.273C19.8388 169.876 19.2012 165.574 18.5856 161.389C18.5667 161.255 18.6015 161.119 18.6825 161.011C18.7635 160.902 18.8841 160.83 19.018 160.81C19.1464 160.792 19.277 160.823 19.3841 160.896C19.4912 160.969 19.5671 161.08 19.5969 161.206C20.4617 165.325 21.3338 169.627 22.1913 173.98L24.0381 183.58C24.1041 183.888 24.1627 184.203 24.2213 184.519C24.3387 185.235 24.4953 185.945 24.6904 186.644C25.215 188.31 26.2866 189.751 27.7318 190.733C27.8874 190.847 28.0488 190.952 28.2155 191.048C29.0386 191.527 29.9429 191.85 30.8831 192.001C31.8337 192.163 32.8065 192.14 33.7486 191.935C34.8075 191.706 35.8063 191.256 36.6801 190.616L37.0319 190.359L36.7827 190.008C36.092 189.013 35.5947 187.896 35.317 186.717C35.1425 185.92 35.0249 185.112 34.9652 184.299C34.9652 183.991 34.9139 183.676 34.8773 183.375L33.9099 173.679C33.4921 169.246 33.111 164.885 32.7739 160.744C32.7656 160.608 32.8103 160.474 32.8985 160.37C32.9413 160.32 32.9938 160.278 33.053 160.248C33.1121 160.218 33.1767 160.199 33.243 160.195C33.373 160.18 33.5035 160.217 33.6064 160.298C33.7092 160.379 33.7761 160.497 33.7926 160.627C34.3862 164.753 34.9799 169.077 35.5515 173.489L36.7754 183.163L36.8853 184.057C36.9588 184.796 37.0738 185.53 37.2298 186.255C37.6908 188.041 38.7647 189.608 40.2638 190.682L40.3371 190.733L40.4764 190.836C42.0883 191.89 44.0298 192.32 45.9363 192.045C47.8383 191.752 49.5657 190.769 50.7879 189.282C51.0936 188.921 51.3636 188.53 51.594 188.117L51.6893 187.941L51.6233 187.758C51.4698 187.321 51.3425 186.876 51.2422 186.424C51.0801 185.584 51.004 184.729 51.015 183.874L50.9418 179.088C50.8245 173.02 50.7805 166.761 50.7952 159.938C50.7952 159.804 50.8485 159.675 50.9433 159.581C51.0381 159.486 51.1667 159.432 51.3009 159.432C51.4308 159.432 51.556 159.481 51.6512 159.569C51.7465 159.658 51.8046 159.779 51.8139 159.909C52.2243 166.739 52.5467 172.99 52.7739 179.029L52.9718 183.815C52.9763 184.553 53.0499 185.289 53.1917 186.014C53.3494 186.697 53.5958 187.358 53.9245 187.978C53.9477 188.03 53.9772 188.079 54.0125 188.124C54.674 189.319 55.6403 190.318 56.813 191.018C57.9858 191.718 59.3231 192.095 60.6889 192.111H60.8062C62.2001 192.11 63.5687 191.738 64.7707 191.032C65.9726 190.326 66.9645 189.312 67.6439 188.095L67.7025 188C68.0423 187.374 68.2892 186.703 68.4354 186.006C68.5716 185.318 68.6427 184.619 68.6479 183.918L68.8531 179.022C69.073 173.306 69.3881 167.047 69.8058 159.901C69.8208 159.777 69.8809 159.662 69.9747 159.579C70.0686 159.496 70.1897 159.45 70.3152 159.45C70.4406 159.45 70.5617 159.496 70.6556 159.579C70.7494 159.662 70.8095 159.777 70.8245 159.901C70.8245 167.062 70.7805 173.32 70.6706 179.051L70.5973 183.837C70.6104 184.692 70.5367 185.547 70.3774 186.387C70.2801 186.837 70.1552 187.28 70.0037 187.714L69.9377 187.904L70.033 188.08C70.6162 189.121 71.4288 190.015 72.4091 190.694C73.3895 191.373 74.5118 191.82 75.6908 192.001C77.5953 192.277 79.5352 191.852 81.1506 190.807L81.2972 190.704L81.3632 190.653C82.8709 189.598 83.9501 188.038 84.4046 186.255C84.5596 185.529 84.6746 184.795 84.749 184.057L84.859 183.177L86.0755 173.518C86.6545 169.121 87.2481 164.782 87.8417 160.649C87.8617 160.517 87.9328 160.399 88.0396 160.319C88.0932 160.278 88.1545 160.247 88.2199 160.23C88.2853 160.212 88.3536 160.208 88.4207 160.217C88.5488 160.238 88.6645 160.306 88.7456 160.407C88.8267 160.509 88.8676 160.637 88.8604 160.766C88.5233 164.929 88.1275 169.282 87.7245 173.701L86.7864 183.353C86.7864 183.668 86.7204 183.969 86.6985 184.277C86.6384 185.095 86.5233 185.907 86.354 186.71C86.0778 187.892 85.5805 189.011 84.8883 190.008L84.6464 190.359L84.9909 190.616C85.8659 191.253 86.8644 191.7 87.9223 191.928C88.8612 192.119 89.8266 192.141 90.7732 191.994C91.7184 191.844 92.6277 191.521 93.4555 191.041C93.6241 190.946 93.778 190.843 93.9392 190.733C95.3896 189.755 96.4605 188.309 96.9733 186.637C97.1682 185.93 97.3248 185.213 97.4423 184.489L97.6182 183.573L99.4724 173.973C100.33 169.575 101.202 165.317 102.067 161.199C102.091 161.065 102.168 160.946 102.28 160.868C102.392 160.79 102.53 160.76 102.664 160.785C102.798 160.809 102.917 160.885 102.995 160.997C103.072 161.109 103.102 161.248 103.078 161.382C102.462 165.559 101.796 169.89 101.092 174.258L99.509 183.903C99.4504 184.233 99.3991 184.555 99.3478 184.878C99.2383 185.669 99.0792 186.452 98.8714 187.223C98.413 188.772 97.5682 190.179 96.4163 191.312L95.874 191.877L96.6069 192.06H96.6948C97.1161 192.13 97.5428 192.165 97.97 192.162C99.7447 192.156 101.464 191.546 102.848 190.435C104.231 189.323 105.196 187.775 105.585 186.043C105.658 185.72 108.582 171.942 111.924 155.064C116.424 132.346 121.671 103.91 121.671 95.2037C121.656 63.3239 96.6435 41.0447 60.8282 41.0447Z" fill="#57D1E5"/>
<path d="M17.413 55.834C6.41994 65.3613 0 79.0586 0 95.2184C0 110.455 15.9253 185.317 16.0865 186.094C16.4339 187.637 17.2415 189.037 18.4023 190.11C14.4522 171.202 1.88347 109.934 1.88347 95.7387C1.88347 79.7988 7.54855 66.0942 17.413 55.834Z" fill="#93E1EF"/>
<path d="M44.5438 64.4304C39.311 64.4377 34.1978 65.9961 29.8505 68.9087C25.5032 71.8213 22.1169 75.9574 20.1198 80.7941C18.1226 85.6308 17.6042 90.951 18.63 96.0823C19.6559 101.214 22.1799 105.926 25.8832 109.623C29.5864 113.32 34.3026 115.836 39.4355 116.853C44.5685 117.871 49.8879 117.343 54.7213 115.338C59.5546 113.333 63.6851 109.94 66.5905 105.588C69.4959 101.236 71.0458 96.1198 71.0444 90.887C71.0366 83.8714 68.2457 77.1455 63.2842 72.1854C58.3228 67.2253 51.5961 64.4362 44.5804 64.4304" fill="#4D9BB6"/>
<path d="M15.4562 88.7544C15.4562 93.9885 17.0083 99.105 19.9162 103.457C22.824 107.809 26.9571 111.201 31.7928 113.204C36.6284 115.207 41.9494 115.731 47.0829 114.71C52.2164 113.689 56.9319 111.168 60.6329 107.467C64.3339 103.766 66.8544 99.0508 67.8755 93.9173C68.8966 88.7838 68.3726 83.4628 66.3696 78.6271C64.3666 73.7915 60.9746 69.6584 56.6227 66.7505C52.2707 63.8426 47.1542 62.2905 41.9201 62.2905C34.9038 62.2983 28.1771 65.0889 23.2158 70.0502C18.2546 75.0115 15.4639 81.7382 15.4562 88.7544Z" fill="url(#paint0_linear_36_2920)"/>
<path d="M59.978 89.1426C59.5896 100.253 51.6526 106.131 46.5958 104.936C42.3451 103.932 41.8248 94.4999 44.4778 92.0228C46.222 90.3958 49.6812 89.9561 49.7251 88.7835C49.7691 87.6109 46.3393 86.9294 44.7123 85.1852C42.2425 82.5322 43.4225 73.1588 47.7244 72.4552C52.8545 71.6124 60.3664 78.0323 59.978 89.1426Z" fill="#3B2D55"/>
<g opacity="0.15">
<path d="M54.7233 75.0864C57.0172 77.9666 58.6368 82.1953 58.4463 87.5012C58.0579 98.6115 50.1209 104.489 45.0641 103.287C44.7378 103.211 44.4259 103.082 44.1407 102.906C44.3877 103.396 44.7333 103.829 45.1558 104.178C45.5783 104.527 46.0686 104.786 46.5958 104.936C51.6526 106.138 59.5896 100.26 59.978 89.1502C60.2052 82.7303 57.7794 77.8787 54.7233 75.0938" fill="#3B2D55"/>
</g>
<path d="M25.6431 126.116C41.893 128.426 58.415 124.498 71.8871 115.123C72.2555 114.865 72.711 114.765 73.1536 114.843C73.5961 114.921 73.9894 115.172 74.247 115.541C74.5045 115.909 74.6052 116.365 74.5268 116.807C74.4485 117.25 74.1976 117.643 73.8292 117.901C59.6043 127.587 42.2341 131.516 25.2253 128.894C24.8736 128.818 24.5637 128.611 24.359 128.316C24.1542 128.02 24.0698 127.657 24.1231 127.301C24.1763 126.945 24.3631 126.623 24.6455 126.4C24.9279 126.177 25.2846 126.071 25.6431 126.101" fill="#4D9BB6"/>
<path d="M73.7486 119.52C73.5175 118.47 72.9516 117.524 72.1361 116.823C71.3206 116.123 70.2996 115.706 69.2268 115.636C68.7917 115.596 68.389 115.389 68.1021 115.06C67.8152 114.73 67.6662 114.303 67.686 113.866C67.7057 113.43 67.8928 113.018 68.2084 112.715C68.524 112.413 68.9438 112.244 69.3807 112.243C71.1918 112.506 72.8523 113.399 74.0711 114.764C75.0751 115.739 77.2884 120.107 74.9505 120.429C74.6741 120.449 74.3998 120.368 74.1787 120.201C73.9576 120.034 73.8048 119.792 73.7486 119.52Z" fill="#4D9BB6"/>
<path d="M25.108 124.922C41.3603 127.231 57.8844 123.304 71.3594 113.928C71.728 113.684 72.1778 113.593 72.6124 113.676C73.047 113.759 73.432 114.008 73.6848 114.371C73.9377 114.734 74.0384 115.182 73.9654 115.618C73.8924 116.055 73.6515 116.445 73.2942 116.706C59.0724 126.393 41.7041 130.322 24.6976 127.699C24.3475 127.623 24.0393 127.416 23.8354 127.122C23.6316 126.827 23.5472 126.466 23.5993 126.111C23.6514 125.757 23.8361 125.435 24.1162 125.212C24.3962 124.988 24.7507 124.879 25.108 124.907" fill="#3B2D55"/>
<path d="M73.2429 118.326C73.0096 117.277 72.4431 116.332 71.628 115.632C70.8129 114.932 69.7932 114.514 68.7211 114.442C68.2861 114.401 67.8833 114.195 67.5964 113.865C67.3095 113.535 67.1605 113.108 67.1803 112.672C67.2001 112.235 67.3872 111.823 67.7027 111.521C68.0183 111.218 68.4381 111.049 68.875 111.048C70.6829 111.315 72.34 112.207 73.5581 113.569C74.5621 114.544 76.7827 118.912 74.4375 119.234C74.1619 119.254 73.8886 119.173 73.6688 119.006C73.4489 118.838 73.2975 118.597 73.2429 118.326Z" fill="#3B2D55"/>
<path d="M177.97 171.532C177.965 171.616 177.953 171.699 177.933 171.781C177.933 171.854 177.933 171.928 177.875 172.001C177.852 172.086 177.823 172.17 177.787 172.25C177.787 172.324 177.728 172.397 177.691 172.47C177.655 172.543 177.611 172.631 177.56 172.712C177.508 172.793 177.472 172.858 177.42 172.932L177.252 173.174L177.069 173.386C177.003 173.474 176.922 173.555 176.841 173.643L176.629 173.848C176.541 173.936 176.446 174.016 176.35 174.097L176.101 174.302C175.977 174.398 175.845 174.5 175.705 174.595L175.456 174.771C175.295 174.881 175.119 174.991 174.943 175.094L174.716 175.233C174.423 175.409 174.115 175.57 173.778 175.739L173.514 175.863C173.25 175.995 172.979 176.12 172.693 176.244L172.305 176.413L171.785 176.618C171.616 176.684 171.455 176.75 171.279 176.809L170.715 177.014L170.18 177.197L169.571 177.395L168.992 177.578L168.34 177.769L167.497 178.003C166.962 178.15 166.405 178.282 165.834 178.421L165.343 178.531L164.001 178.824L163.547 178.919L161.744 179.256L161.414 179.308L159.846 179.564L159.194 179.66L158.314 179.784L157.582 179.879C157.288 179.923 156.988 179.96 156.687 179.989C156.387 180.019 156.182 180.055 155.955 180.077L155.031 180.18L154.298 180.253L153.353 180.341L152.62 180.407L150.575 180.554H150.282C149.681 180.598 149.088 180.627 148.479 180.656H147.798L146.625 180.7H145.892H144.668H143.987H140.396H139.355H138.622L137.494 180.664H136.871L135.515 180.598H135.134L133.404 180.495H133.118L131.653 180.385L131.052 180.334L129.93 180.238L129.351 180.18C128.941 180.136 128.538 180.099 128.135 180.048L127.461 179.975L126.369 179.843L125.753 179.762L124.045 179.513L123.745 179.469C123.093 179.366 122.462 179.264 121.832 179.147L121.436 179.073C120.616 178.927 119.817 178.765 119.04 178.597L118.805 178.546C117.992 178.362 117.2 178.172 116.431 177.967C111.088 176.545 107.754 174.793 106.42 172.961C106.008 172.43 105.779 171.779 105.768 171.107L105.702 190.784C105.702 193.262 109.241 195.746 116.372 197.644C117.105 197.842 117.926 198.033 118.739 198.216L118.974 198.267C119.751 198.443 120.557 198.597 121.37 198.751L121.583 198.795H121.766C122.396 198.905 123.027 199.015 123.679 199.117L123.979 199.161C124.544 199.242 125.108 199.33 125.687 199.403L125.973 199.447H126.303L127.395 199.579L128.069 199.66L129.285 199.784L129.74 199.835H129.864L130.978 199.931L131.594 199.989L133.06 200.092H133.331L135.06 200.195H135.456L136.797 200.253C137.003 200.253 137.208 200.253 137.42 200.253L138.512 200.29H139.245H140.271H140.938C141.319 200.29 141.671 200.29 142.067 200.29H144.551H145.768H146.501L147.666 200.246H148.069H148.355L150.15 200.151H150.443C151.132 200.107 151.814 200.055 152.488 199.997H152.679L153.221 199.953L154.166 199.865L154.899 199.784L155.823 199.689L156.556 199.601L157.457 199.491L158.19 199.388L159.069 199.271L159.45 199.212L159.722 199.169L161.297 198.919L161.62 198.861C162.228 198.758 162.829 198.641 163.423 198.524L163.877 198.428L165.218 198.142L165.709 198.025C166.281 197.893 166.838 197.754 167.373 197.607L167.82 197.49L168.215 197.373L168.868 197.182L169.447 197.007L170.055 196.809L170.59 196.618L171.162 196.42L171.66 196.23L172.18 196.017L172.393 195.929L172.576 195.849L173.39 195.475L173.653 195.35C173.99 195.182 174.298 195.013 174.591 194.845H174.635L174.819 194.727C174.995 194.617 175.17 194.515 175.332 194.405L175.588 194.229L175.977 193.928C176.016 193.906 176.053 193.879 176.087 193.848L176.226 193.731L176.504 193.481L176.717 193.269L176.951 193.02L177.054 192.902L177.127 192.8L177.296 192.565C177.349 192.494 177.396 192.418 177.435 192.338C177.486 192.258 177.523 192.177 177.567 192.096C177.592 192.056 177.614 192.015 177.633 191.972C177.633 191.972 177.633 191.906 177.633 191.876C177.664 191.795 177.691 191.712 177.713 191.627C177.713 191.554 177.757 191.481 177.772 191.407C177.791 191.325 177.806 191.242 177.816 191.158C177.813 191.109 177.813 191.06 177.816 191.012V190.865L177.882 171.195C177.921 171.304 177.951 171.417 177.97 171.532Z" fill="#2F74B7"/>
<path d="M167.336 164.379C181.495 168.139 181.568 174.244 167.497 178.003C153.426 181.763 130.539 181.763 116.372 178.003C102.206 174.244 102.14 168.139 116.211 164.379C130.282 160.62 153.17 160.634 167.336 164.379Z" fill="#5193CE"/>
<path d="M167.497 177.754C153.426 181.514 130.539 181.514 116.372 177.754C109.395 175.9 105.848 173.481 105.716 171.048C105.606 173.562 109.161 176.083 116.372 178.003C130.539 181.763 153.426 181.763 167.497 178.003C174.635 176.098 178.124 173.606 177.992 171.085C177.889 173.496 174.379 175.907 167.497 177.754Z" fill="#175D96"/>
<path d="M178.102 149.685C178.102 149.773 178.102 149.854 178.065 149.934L177.999 150.154C177.977 150.239 177.95 150.322 177.919 150.404C177.919 150.477 177.853 150.55 177.816 150.623C177.779 150.697 177.735 150.785 177.691 150.865L177.552 151.085L177.376 151.327L177.2 151.539C177.127 151.627 177.047 151.708 176.966 151.796L176.753 152.009L176.475 152.258L176.233 152.456C176.108 152.558 175.977 152.653 175.837 152.749L175.581 152.932L175.075 153.254L174.848 153.394C174.555 153.562 174.24 153.731 173.91 153.892L173.646 154.039L172.833 154.412L172.437 154.581L171.916 154.786L171.418 154.984L170.854 155.182L170.311 155.372L169.703 155.57L169.124 155.746L168.472 155.937L167.637 156.171C167.094 156.318 166.537 156.457 165.973 156.589L165.482 156.699L164.119 156.97L163.657 157.065C163.071 157.183 162.47 157.292 161.854 157.402L161.532 157.461L159.963 157.71L159.304 157.806L158.424 157.93L157.691 158.033L156.79 158.143L156.057 158.231L155.141 158.326L154.372 158.406L153.426 158.487L152.693 158.553L150.649 158.7H150.348L148.553 158.795H147.864L146.698 158.846H145.966H144.749H144.067H143.005H140.447H139.406H138.674L137.538 158.81H136.922L135.559 158.751H135.178L133.448 158.656H133.17C132.679 158.619 132.188 158.59 131.704 158.546L131.103 158.494L129.974 158.399L129.395 158.34L128.186 158.216L127.512 158.135L126.42 158.003L125.797 157.923L124.089 157.681L123.789 157.63C123.144 157.534 122.506 157.424 121.876 157.314L121.48 157.241C120.667 157.087 119.868 156.926 119.091 156.758L118.857 156.706C118.043 156.523 117.244 156.332 116.482 156.127C111.14 154.713 107.798 152.961 106.471 151.122C106.056 150.592 105.824 149.941 105.812 149.268L105.621 168.967C105.621 171.452 109.161 173.936 116.292 175.827C117.025 176.032 117.845 176.223 118.659 176.406L118.893 176.457C119.67 176.626 120.476 176.787 121.29 176.933L121.502 176.977H121.686C122.316 177.095 122.946 177.205 123.598 177.3L123.899 177.344L125.606 177.593L125.892 177.63L126.222 177.674L127.314 177.806L127.988 177.886L129.205 178.011L129.659 178.055H129.784L130.898 178.15L131.513 178.201C131.997 178.245 132.481 178.275 132.979 178.311H133.25L134.98 178.406H135.376L136.717 178.465H137.34H138.432H139.165H140.191H143.979H144.471H145.687H146.42C146.811 178.465 147.199 178.45 147.585 178.421H147.988H148.274L150.07 178.326H150.363L152.407 178.179H152.598L153.14 178.128L154.086 178.047L154.819 177.967L155.742 177.871L156.475 177.784L157.376 177.674L158.109 177.571L158.989 177.446L159.37 177.395L159.641 177.351L161.217 177.095L161.539 177.043L163.342 176.706L163.796 176.611L165.137 176.318L165.628 176.208C166.2 176.076 166.757 175.937 167.292 175.79L167.739 175.673L168.135 175.556L168.787 175.365L169.366 175.182C169.571 175.116 169.776 175.057 169.974 174.984L170.509 174.801C170.707 174.735 170.898 174.669 171.081 174.596L171.579 174.405L172.1 174.2L172.312 174.112L172.495 174.031L173.309 173.657L173.573 173.526C173.91 173.364 174.218 173.196 174.511 173.027H174.555L174.738 172.91L175.251 172.587L175.508 172.404L175.896 172.111C175.933 172.111 175.977 172.06 176.006 172.031C176.035 172.001 176.094 171.95 176.145 171.906C176.196 171.862 176.336 171.745 176.424 171.657L176.636 171.452C176.717 171.364 176.797 171.283 176.871 171.195L176.973 171.085L177.047 170.982L177.215 170.741C177.267 170.671 177.313 170.597 177.354 170.521C177.406 170.44 177.442 170.36 177.486 170.279C177.511 170.236 177.533 170.192 177.552 170.147V170.059C177.552 169.978 177.611 169.891 177.633 169.81C177.655 169.729 177.677 169.663 177.691 169.59C177.706 169.517 177.691 169.421 177.735 169.341C177.732 169.292 177.732 169.243 177.735 169.194V169.048L177.933 149.348C178 149.455 178.057 149.568 178.102 149.685Z" fill="#2F74B7"/>
<path d="M167.461 142.532C181.62 146.292 181.693 152.397 167.629 156.156C153.565 159.916 130.663 159.923 116.504 156.156C102.345 152.389 102.272 146.299 116.343 142.532C130.414 138.765 153.294 138.765 167.461 142.532Z" fill="#5193CE"/>
<path d="M167.629 155.907C153.558 159.667 130.663 159.667 116.504 155.907C109.527 154.053 105.973 151.635 105.848 149.201C105.738 151.715 109.285 154.244 116.504 156.156C130.663 159.923 153.558 159.923 167.629 156.156C174.767 154.251 178.256 151.759 178.117 149.238C178.043 151.657 174.525 154.038 167.629 155.907Z" fill="#175D96"/>
<path d="M178.102 128.036C178.102 128.117 178.102 128.197 178.065 128.285L177.999 128.505C177.999 128.586 177.948 128.666 177.919 128.754C177.889 128.842 177.853 128.901 177.816 128.974C177.779 129.047 177.735 129.135 177.691 129.216L177.552 129.436L177.376 129.678L177.2 129.89L176.966 130.139C176.9 130.213 176.827 130.279 176.753 130.352L176.475 130.601L176.233 130.806L175.837 131.1L175.581 131.275C175.42 131.385 175.251 131.495 175.075 131.598L174.848 131.737C174.555 131.906 174.24 132.074 173.91 132.243L173.639 132.367L172.825 132.741L172.429 132.91L171.909 133.122L171.411 133.313L170.846 133.518L170.304 133.701L169.696 133.899L169.117 134.082L168.465 134.273L167.629 134.507L165.966 134.918L165.475 135.035C165.035 135.13 164.588 135.233 164.133 135.321L163.672 135.416C163.085 135.533 162.484 135.651 161.869 135.753L161.546 135.812L159.978 136.061L159.318 136.164L158.439 136.288L157.706 136.384L156.805 136.493L156.072 136.581L155.156 136.684L154.386 136.757L153.441 136.845L152.708 136.904L150.663 137.058H150.363L148.567 137.16H147.878L146.713 137.204H145.98H144.764H144.082H140.447H139.406H138.673H137.538C137.332 137.204 137.127 137.204 136.922 137.204L135.559 137.146H135.178L133.448 137.043H133.17L131.704 136.94L131.103 136.889L129.974 136.787L129.395 136.728L128.186 136.603L127.512 136.53L126.42 136.391L125.797 136.31C125.225 136.237 124.654 136.156 124.089 136.068L123.789 136.024L121.876 135.702L121.48 135.629C120.667 135.475 119.868 135.321 119.091 135.152L118.857 135.094C118.043 134.918 117.244 134.727 116.482 134.522C111.14 133.1 107.798 131.349 106.471 129.517C106.057 128.986 105.825 128.335 105.812 127.662L105.746 147.171C105.746 149.648 109.293 152.133 116.416 154.031C117.149 154.229 117.977 154.419 118.791 154.603L119.025 154.654C119.802 154.83 120.601 154.984 121.414 155.138L121.627 155.182H121.817L123.723 155.504L124.023 155.548L125.731 155.79L126.017 155.834L126.354 155.871L127.446 156.002L128.12 156.083L129.329 156.208L129.784 156.259H129.916L131.022 156.354L131.638 156.413L133.104 156.515H133.375L135.104 156.618H135.5L136.841 156.677H136.878H137.501H138.6H139.333H140.366H144.646H145.856H146.588L147.754 156.633H148.164H148.443L150.238 156.537H150.539L152.583 156.384H152.774L153.309 156.34L154.254 156.252L155.024 156.171L155.947 156.076L156.68 155.988L157.582 155.878L158.314 155.775L159.194 155.658L159.582 155.599L159.853 155.555L161.422 155.306L161.744 155.248C162.36 155.145 162.961 155.028 163.547 154.91L164.009 154.815L165.35 154.522L165.841 154.412C166.405 154.28 166.962 154.141 167.505 153.994L167.944 153.877L168.34 153.76L169 153.569L169.571 153.393L170.187 153.196L170.722 153.005L171.286 152.807L171.785 152.617L172.305 152.404L172.517 152.316L172.701 152.235L173.521 151.862L173.785 151.737C174.115 151.569 174.43 151.4 174.723 151.231L174.914 151.114C175.09 151.004 175.266 150.902 175.42 150.792L175.676 150.616C175.815 150.513 175.947 150.418 176.072 150.315L176.182 150.235L176.314 150.117L176.592 149.868L176.812 149.656C176.893 149.575 176.966 149.487 177.039 149.407L177.142 149.289C177.17 149.258 177.195 149.224 177.215 149.187C177.281 149.106 177.332 149.026 177.391 148.945C177.442 148.874 177.488 148.801 177.53 148.725C177.574 148.644 177.618 148.564 177.655 148.483L177.728 148.351C177.728 148.351 177.728 148.293 177.728 148.263L177.816 148.014C177.816 147.941 177.86 147.868 177.875 147.794C177.889 147.721 177.875 147.633 177.911 147.545C177.948 147.457 177.911 138.501 177.911 138.45C177.911 138.399 177.911 147.303 177.911 147.245L177.977 127.743C178.026 127.837 178.068 127.935 178.102 128.036Z" fill="#2F74B7"/>
<path d="M167.461 120.876C181.62 124.643 181.693 130.741 167.629 134.508C153.565 138.274 130.663 138.267 116.504 134.508C102.345 130.748 102.272 124.643 116.343 120.876C130.414 117.109 153.294 117.117 167.461 120.876Z" fill="#5193CE"/>
<path d="M167.629 134.251C153.558 138.018 130.663 138.018 116.504 134.251C109.527 132.397 105.973 129.971 105.848 127.545C105.738 130.059 109.285 132.58 116.504 134.5C130.663 138.26 153.558 138.26 167.629 134.5C174.767 132.587 178.256 130.103 178.117 127.574C178.043 130 174.525 132.411 167.629 134.251Z" fill="#175D96"/>
<path d="M170.553 102.466C170.553 101.774 169.994 101.213 169.304 101.213C168.614 101.213 168.054 101.774 168.054 102.466V114.258C168.054 114.95 168.614 115.511 169.304 115.511C169.994 115.511 170.553 114.95 170.553 114.258V102.466Z" fill="#3B2D55"/>
<path d="M190.989 112.088C191.478 111.599 191.48 110.807 190.992 110.319C190.504 109.831 189.711 109.832 189.222 110.321L180.884 118.659C180.394 119.149 180.393 119.941 180.881 120.429C181.369 120.917 182.161 120.916 182.651 120.426L190.989 112.088Z" fill="#3B2D55"/>
<path d="M198.747 133.013C199.439 133.013 200 132.453 200 131.763C200 131.073 199.439 130.513 198.747 130.513H186.955C186.263 130.513 185.702 131.073 185.702 131.763C185.702 132.453 186.263 133.013 186.955 133.013H198.747Z" fill="#3B2D55"/>
</g>
<defs>
<linearGradient id="paint0_linear_36_2920" x1="68.384" y1="88.7544" x2="15.4562" y2="88.7544" gradientUnits="userSpaceOnUse">
<stop stop-color="#CECAD5"/>
<stop offset="0.66" stop-color="white"/>
<stop offset="1" stop-color="white"/>
</linearGradient>
<clipPath id="clip0_36_2920">
<rect width="200" height="200" fill="white"/>
</clipPath>
</defs>
</svg>
