<svg width="200" height="200" viewBox="0 0 200 200" fill="none" xmlns="http://www.w3.org/2000/svg">
<g clip-path="url(#clip0_36_3115)">
<path d="M-6.10352e-05 138.487V198.907H20.8888V127.138L-6.10352e-05 138.487Z" fill="#F2F2F2"/>
<path d="M20.863 198.907H31.869V131.663L20.863 127.138V198.907Z" fill="#E5E5E4"/>
<path d="M31.7399 110.917V198.907H49.2333V100.136L31.7399 110.917Z" fill="#D2D2D2"/>
<path d="M66.7269 111.859V198.907H49.2334V100.136L66.7269 111.859Z" fill="#E5E5E4"/>
<path d="M1.36194 146.394V148.208L18.0614 140.636L18.1195 138.68L1.36194 146.394Z" fill="#3B2D55"/>
<path d="M1.36194 156.458V158.278L18.0614 152.152L18.1195 150.196L1.36194 156.458Z" fill="#3B2D55"/>
<path d="M1.36194 166.715V168.529L18.0614 164.081L18.1195 162.125L1.36194 166.715Z" fill="#3B2D55"/>
<path d="M1.36194 177.121V178.934L18.0614 175.972L18.1195 174.016L1.36194 177.121Z" fill="#3B2D55"/>
<path d="M1.36194 186.991V188.804L18.0614 187.287L18.1195 185.332L1.36194 186.991Z" fill="#3B2D55"/>
<path d="M37.2462 118.463V191.645" stroke="#3B2D55" stroke-width="2.55" stroke-miterlimit="10" stroke-linecap="round"/>
<path d="M42.7072 115.532V191.645" stroke="#3B2D55" stroke-width="2.55" stroke-miterlimit="10" stroke-linecap="round"/>
<path d="M61.0012 116.907V191.399" stroke="#3B2D55" stroke-width="2.55" stroke-miterlimit="10" stroke-linecap="round"/>
<path d="M55.5401 113.628V191.399" stroke="#3B2D55" stroke-width="2.55" stroke-miterlimit="10" stroke-linecap="round"/>
<path d="M77.707 198.907H98.6023V141.469L77.707 129.114V198.907Z" fill="#E5E5E4"/>
<path d="M66.7269 133.245V198.907H77.7394V129.12L66.7269 133.245Z" fill="#D2D2D2"/>
<path d="M89.946 147.407V155.535L92.1473 156.432V148.46L89.946 147.407Z" fill="#3B2D55"/>
<path d="M84.4849 153.314L86.6861 154.179V145.82L84.4849 144.709V153.314Z" fill="#3B2D55"/>
<path d="M89.946 158.168V166.295L92.1473 166.96V158.994L89.946 158.168Z" fill="#3B2D55"/>
<path d="M84.4849 164.617L86.6861 165.321V156.845L84.4849 156.012V164.617Z" fill="#3B2D55"/>
<path d="M89.946 168.897V176.908L92.1473 177.379V169.523L89.946 168.897Z" fill="#3B2D55"/>
<path d="M84.4849 175.81L86.6861 176.236V167.98L84.4849 167.36V175.81Z" fill="#3B2D55"/>
<path d="M89.946 179.283V186.9L92.1473 187.178V179.703L89.946 179.283Z" fill="#3B2D55"/>
<path d="M84.4849 186.268L86.6861 186.519V178.683L84.4849 178.276V186.268Z" fill="#3B2D55"/>
<path d="M170.164 193.394C169.802 195.016 168.834 196.439 167.458 197.372C166.081 198.304 164.401 198.675 162.76 198.41H162.721L162.076 198.261L162.528 197.797C163.485 196.85 164.188 195.678 164.574 194.388C164.742 193.751 164.873 193.104 164.968 192.452C165.007 192.181 165.052 191.909 165.103 191.632L166.394 183.608C166.982 179.974 167.537 176.365 168.047 172.886C168.062 172.779 168.036 172.67 167.974 172.581C167.911 172.492 167.818 172.43 167.711 172.408C167.601 172.386 167.486 172.407 167.391 172.469C167.297 172.531 167.231 172.627 167.208 172.738C166.485 176.159 165.755 179.741 165.045 183.369L163.503 191.361C163.451 191.613 163.406 191.864 163.36 192.122C163.238 192.768 163.115 193.414 162.967 193.911C162.537 195.304 161.644 196.508 160.436 197.325C160.307 197.416 160.172 197.5 160.036 197.584C158.641 198.383 157.001 198.642 155.427 198.313C154.543 198.131 153.709 197.761 152.981 197.229L152.69 197.015L152.89 196.719C153.475 195.889 153.896 194.956 154.13 193.969C154.27 193.302 154.365 192.627 154.414 191.948C154.414 191.69 154.459 191.438 154.491 191.18L155.317 183.066C155.666 179.386 155.963 175.765 156.266 172.299C156.274 172.19 156.24 172.082 156.172 171.997C156.104 171.912 156.006 171.856 155.898 171.84C155.844 171.833 155.788 171.837 155.735 171.851C155.682 171.865 155.632 171.89 155.588 171.924C155.543 171.957 155.505 171.998 155.476 172.046C155.447 172.093 155.428 172.147 155.421 172.202C154.924 175.642 154.427 179.244 153.949 182.911L152.929 190.98C152.929 191.225 152.864 191.47 152.839 191.716C152.777 192.33 152.68 192.94 152.548 193.543C152.401 194.144 152.166 194.72 151.851 195.253C151.384 196.032 150.759 196.705 150.018 197.229L149.96 197.274L149.837 197.358C148.501 198.225 146.895 198.578 145.318 198.352C143.731 198.117 142.288 197.3 141.271 196.06C141.028 195.757 140.812 195.433 140.625 195.092L140.542 194.943L140.6 194.788C140.725 194.424 140.831 194.054 140.916 193.678C141.044 192.978 141.102 192.266 141.09 191.554L141.155 187.572C141.245 182.801 141.29 177.592 141.284 171.627C141.282 171.52 141.24 171.417 141.166 171.339C141.092 171.261 140.991 171.214 140.884 171.208C140.771 171.202 140.661 171.241 140.576 171.316C140.492 171.391 140.44 171.496 140.432 171.608C140.083 177.553 139.825 182.763 139.644 187.526L139.47 191.593C139.466 192.18 139.408 192.766 139.296 193.342C139.159 193.921 138.942 194.477 138.65 194.995L138.599 195.079C138.032 196.091 137.205 196.934 136.205 197.52C135.204 198.107 134.065 198.416 132.905 198.416H132.808C131.671 198.403 130.557 198.089 129.58 197.506C128.603 196.923 127.797 196.093 127.244 195.098L127.173 194.982C126.899 194.467 126.695 193.918 126.566 193.349C126.447 192.743 126.384 192.127 126.379 191.509L126.218 187.526C126.017 182.498 125.759 177.289 125.417 171.608C125.411 171.5 125.363 171.398 125.284 171.323C125.204 171.249 125.1 171.208 124.991 171.208C124.935 171.208 124.88 171.219 124.829 171.24C124.778 171.262 124.731 171.293 124.692 171.333C124.653 171.373 124.622 171.42 124.602 171.471C124.581 171.523 124.571 171.578 124.571 171.634C124.571 177.308 124.571 182.524 124.688 187.572L124.752 191.554C124.742 192.267 124.805 192.978 124.939 193.678C125.036 194.085 125.14 194.446 125.256 194.788L125.314 194.943L125.236 195.092C125.049 195.432 124.833 195.756 124.591 196.06C123.577 197.304 122.135 198.126 120.548 198.365C118.96 198.603 117.341 198.242 116.005 197.351L115.889 197.267L115.825 197.222C115.09 196.694 114.47 196.022 114.004 195.247C113.687 194.716 113.447 194.142 113.294 193.543C113.162 192.946 113.065 192.343 113.004 191.735C113.004 191.483 112.946 191.232 112.913 190.986L111.894 182.937C111.416 179.264 110.925 175.662 110.428 172.228C110.412 172.12 110.356 172.023 110.271 171.956C110.186 171.889 110.078 171.857 109.97 171.866C109.914 171.87 109.859 171.885 109.809 171.911C109.759 171.936 109.715 171.972 109.679 172.015C109.609 172.102 109.574 172.213 109.583 172.325C109.86 175.778 110.176 179.425 110.525 183.092L111.326 191.161L111.403 191.935C111.446 192.613 111.541 193.286 111.687 193.949C111.921 194.929 112.334 195.857 112.907 196.686L113.114 196.983L112.823 197.19C112.134 197.696 111.351 198.06 110.52 198.259C109.688 198.459 108.825 198.49 107.982 198.352C107.198 198.226 106.445 197.954 105.761 197.551C105.619 197.474 105.49 197.383 105.354 197.293C104.153 196.472 103.262 195.272 102.824 193.885C102.664 193.302 102.535 192.712 102.437 192.116L102.282 191.335L100.746 183.343C100.035 179.716 99.306 176.14 98.583 172.712C98.5633 172.601 98.5002 172.502 98.4076 172.437C98.315 172.372 98.2005 172.347 98.0892 172.366C97.9779 172.386 97.879 172.449 97.8143 172.542C97.7495 172.634 97.7242 172.749 97.7439 172.86C98.2538 176.346 98.809 179.961 99.3899 183.589L100.713 191.619C100.765 191.89 100.804 192.161 100.849 192.432C100.937 193.086 101.071 193.733 101.249 194.369C101.64 195.652 102.343 196.819 103.295 197.764L103.805 198.274L103.095 198.39C101.452 198.664 99.7668 198.299 98.3843 197.37C97.0017 196.441 96.0267 195.019 95.6588 193.394C95.6072 193.129 93.2511 182.059 90.5334 168.348C92.9025 184.441 94.4582 193.523 94.4905 193.646C94.5394 193.864 94.5997 194.08 94.6712 194.291L94.7293 194.466V194.511C94.7809 194.653 94.8261 194.788 94.8842 194.918L95.0004 195.182C95.0521 195.292 95.1037 195.402 95.1618 195.505V195.544L95.2974 195.795L95.3813 195.931V195.97C95.5413 196.233 95.7181 196.485 95.9106 196.725V196.764C96.0074 196.886 96.1172 197.009 96.2527 197.151L96.3044 197.209C96.427 197.338 96.5497 197.461 96.6723 197.571C98.0989 198.88 99.9644 199.608 101.901 199.61C102.333 199.613 102.765 199.578 103.192 199.507L103.896 199.397L106.161 199.042C106.658 199.232 107.173 199.37 107.698 199.456C108.107 199.525 108.522 199.56 108.937 199.559C109.471 199.558 110.003 199.501 110.525 199.391C111.571 199.168 112.558 198.728 113.423 198.1L113.72 197.887L114.243 197.506C114.488 197.737 114.746 197.953 115.018 198.152L115.063 198.184C115.118 198.229 115.176 198.27 115.237 198.307C116.499 199.143 117.978 199.592 119.491 199.598C119.865 199.599 120.239 199.571 120.608 199.514C122.483 199.225 124.187 198.255 125.391 196.79C125.674 196.454 125.924 196.093 126.14 195.712C126.803 196.874 127.758 197.843 128.911 198.522C130.063 199.202 131.374 199.568 132.711 199.585H132.931C134.267 199.565 135.576 199.198 136.727 198.519C137.878 197.84 138.833 196.872 139.496 195.712C139.719 196.092 139.972 196.455 140.251 196.796C141.458 198.261 143.164 199.227 145.041 199.507C145.409 199.559 145.78 199.585 146.151 199.585C147.667 199.58 149.148 199.132 150.411 198.294C150.476 198.255 150.528 198.21 150.586 198.171L150.631 198.139C150.901 197.94 151.157 197.725 151.399 197.493L151.922 197.88L152.212 198.087C153.081 198.722 154.076 199.162 155.13 199.378C155.649 199.484 156.176 199.538 156.705 199.539C157.782 199.543 158.848 199.323 159.836 198.894L161.714 199.339L162.36 199.488H162.476C162.89 199.558 163.309 199.592 163.728 199.591C165.477 199.581 167.17 198.979 168.533 197.885C169.896 196.79 170.848 195.267 171.236 193.562C171.236 193.407 172.83 183.976 175.361 167.483C172.656 181.659 170.216 193.129 170.164 193.394Z" fill="#3B2D55"/>
<path d="M132.918 72.6826C103.102 72.6826 82.2773 91.2283 82.2773 117.785C82.2773 125.163 86.7572 149.325 90.5399 168.38C93.2575 182.091 95.6136 193.162 95.6653 193.426C96.0345 195.05 97.0102 196.47 98.3925 197.398C99.7749 198.326 101.46 198.69 103.102 198.416L103.812 198.3L103.302 197.79C102.349 196.845 101.646 195.678 101.255 194.395C101.077 193.759 100.943 193.112 100.855 192.458C100.81 192.187 100.771 191.916 100.72 191.645L99.3964 183.614C98.8154 179.98 98.2602 176.372 97.7503 172.886C97.7306 172.775 97.7559 172.66 97.8207 172.568C97.8854 172.475 97.9843 172.412 98.0956 172.392C98.2069 172.372 98.3215 172.398 98.4141 172.463C98.5067 172.527 98.5698 172.626 98.5895 172.737C99.3124 176.165 100.042 179.741 100.752 183.369L102.288 191.361L102.443 192.142C102.541 192.738 102.67 193.328 102.83 193.91C103.277 195.278 104.165 196.458 105.354 197.267C105.49 197.357 105.619 197.448 105.761 197.525C106.445 197.928 107.198 198.2 107.982 198.326C108.825 198.464 109.688 198.433 110.52 198.233C111.351 198.034 112.134 197.67 112.823 197.164L113.114 196.957L112.907 196.66C112.325 195.833 111.903 194.905 111.661 193.923C111.515 193.26 111.42 192.587 111.377 191.909L111.3 191.135L110.499 183.066C110.151 179.38 109.854 175.752 109.557 172.299C109.548 172.187 109.583 172.076 109.654 171.989C109.689 171.946 109.734 171.91 109.784 171.885C109.833 171.859 109.888 171.844 109.944 171.84C110.052 171.831 110.16 171.863 110.245 171.93C110.33 171.997 110.386 172.094 110.402 172.202C110.899 175.636 111.39 179.238 111.868 182.911L112.907 190.986C112.939 191.232 112.972 191.483 112.997 191.735C113.059 192.343 113.156 192.946 113.288 193.542C113.441 194.142 113.68 194.716 113.998 195.247C114.464 196.022 115.083 196.694 115.818 197.222L115.883 197.267L115.999 197.351C117.334 198.242 118.954 198.603 120.541 198.364C122.129 198.126 123.57 197.304 124.584 196.06C124.826 195.756 125.042 195.432 125.23 195.092L125.307 194.943L125.249 194.788C125.133 194.446 125.03 194.085 124.933 193.678C124.798 192.978 124.736 192.267 124.746 191.554L124.681 187.571C124.591 182.523 124.552 177.308 124.565 171.634C124.564 171.578 124.574 171.523 124.595 171.471C124.616 171.419 124.647 171.372 124.686 171.333C124.725 171.293 124.771 171.262 124.823 171.24C124.874 171.219 124.929 171.208 124.985 171.208C125.093 171.207 125.198 171.249 125.277 171.323C125.356 171.398 125.404 171.499 125.411 171.608C125.753 177.288 126.011 182.498 126.211 187.526L126.372 191.509C126.378 192.127 126.44 192.743 126.56 193.349C126.688 193.918 126.892 194.467 127.166 194.982L127.237 195.098C127.79 196.092 128.596 196.923 129.573 197.506C130.55 198.088 131.664 198.402 132.802 198.416H132.918C134.078 198.416 135.217 198.107 136.218 197.52C137.218 196.934 138.045 196.091 138.611 195.079L138.663 194.995C138.955 194.477 139.172 193.921 139.309 193.342C139.421 192.766 139.479 192.18 139.483 191.593L139.657 187.526C139.838 182.762 140.096 177.553 140.445 171.608C140.453 171.495 140.505 171.391 140.589 171.316C140.674 171.241 140.784 171.202 140.897 171.208C141.004 171.214 141.105 171.261 141.179 171.339C141.253 171.417 141.295 171.52 141.297 171.627C141.297 177.592 141.258 182.801 141.168 187.571L141.103 191.554C141.115 192.266 141.057 192.978 140.929 193.678C140.843 194.054 140.738 194.424 140.612 194.788L140.554 194.943L140.638 195.092C140.825 195.432 141.041 195.756 141.284 196.06C142.301 197.3 143.744 198.117 145.331 198.352C146.908 198.578 148.514 198.225 149.85 197.357L149.972 197.274L150.031 197.228C150.772 196.704 151.397 196.032 151.864 195.253C152.179 194.72 152.414 194.144 152.561 193.542C152.693 192.94 152.79 192.33 152.851 191.716C152.851 191.47 152.91 191.225 152.942 190.98L153.955 182.937C154.433 179.27 154.93 175.668 155.427 172.228C155.435 172.172 155.453 172.119 155.482 172.071C155.511 172.024 155.549 171.982 155.595 171.95C155.638 171.916 155.688 171.891 155.741 171.877C155.795 171.862 155.85 171.859 155.905 171.866C156.013 171.882 156.11 171.938 156.179 172.023C156.247 172.108 156.28 172.216 156.273 172.324C155.995 175.791 155.672 179.425 155.324 183.092L154.53 191.154C154.498 191.412 154.478 191.664 154.452 191.922C154.403 192.601 154.308 193.276 154.168 193.943C153.935 194.93 153.514 195.863 152.929 196.693L152.729 196.99L153.019 197.203C153.748 197.735 154.582 198.105 155.466 198.287C157.04 198.616 158.68 198.357 160.075 197.558C160.21 197.474 160.346 197.39 160.475 197.299C161.683 196.482 162.575 195.278 163.005 193.885C163.154 193.394 163.277 192.736 163.399 192.096C163.444 191.838 163.49 191.587 163.541 191.335L165.084 183.343C165.794 179.716 166.523 176.133 167.246 172.712C167.27 172.601 167.336 172.505 167.43 172.443C167.525 172.381 167.64 172.36 167.75 172.382C167.856 172.404 167.95 172.466 168.012 172.555C168.075 172.644 168.101 172.753 168.086 172.86C167.576 176.339 167.021 179.961 166.433 183.582L165.142 191.606C165.09 191.883 165.045 192.155 165.007 192.426C164.912 193.078 164.781 193.725 164.613 194.362C164.227 195.652 163.523 196.824 162.566 197.771L162.115 198.235L162.76 198.384H162.799C164.43 198.639 166.098 198.266 167.465 197.34C168.832 196.414 169.797 195.004 170.164 193.394C170.216 193.129 172.656 181.659 175.438 167.606C179.182 148.66 183.552 125.002 183.552 117.772C183.552 91.2154 162.728 72.6826 132.918 72.6826Z" fill="#57D1E5"/>
<path d="M119.298 92.1321C114.949 92.1359 110.699 93.429 107.084 95.8479C103.47 98.2668 100.654 101.703 98.9928 105.722C97.3312 109.741 96.8985 114.162 97.7492 118.427C98.6 122.692 100.696 126.609 103.773 129.683C106.849 132.757 110.768 134.849 115.034 135.696C119.299 136.543 123.72 136.107 127.738 134.442C131.755 132.776 135.189 129.958 137.605 126.341C140.02 122.725 141.31 118.474 141.31 114.125C141.303 108.291 138.981 102.698 134.854 98.5743C130.727 94.4508 125.132 92.1338 119.298 92.1321Z" fill="#4D9BB6"/>
<path d="M95.123 112.35C95.123 116.699 96.4129 120.951 98.8295 124.568C101.246 128.185 104.681 131.004 108.7 132.668C112.718 134.333 117.14 134.768 121.406 133.92C125.672 133.071 129.591 130.977 132.667 127.901C135.743 124.825 137.837 120.906 138.686 116.64C139.534 112.374 139.099 107.952 137.434 103.933C135.77 99.9148 132.951 96.48 129.334 94.0634C125.718 91.6468 121.466 90.3569 117.116 90.3569C111.285 90.3638 105.695 92.683 101.572 96.806C97.4492 100.929 95.1299 106.519 95.123 112.35Z" fill="url(#paint0_linear_36_3115)"/>
<path d="M134.693 112.705C134.37 121.942 127.78 126.822 123.571 125.828C120.04 124.995 119.607 117.159 121.809 115.1C123.261 113.75 126.14 113.382 126.172 112.408C126.205 111.433 123.358 110.865 122.009 109.419C119.95 107.211 120.937 99.4264 124.513 98.839C128.78 98.1354 135.016 103.474 134.693 112.705Z" fill="#3B2D55"/>
<path d="M96.7691 84.9475C87.6221 92.9196 82.2773 104.313 82.2773 117.766C82.2773 130.45 95.5362 192.774 95.6653 193.407C95.9554 194.691 96.6311 195.855 97.6018 196.744C94.3032 181.013 83.8588 130.004 83.8588 118.185C83.8588 104.958 88.5517 93.4941 96.7691 84.9475Z" fill="#93E1EF"/>
<path d="M146.751 127.468C150.624 128.797 150.695 140.784 153.407 141.54C155.343 141.54 160.32 133.961 159.7 126.622C159.468 123.859 157.764 121.8 155.827 122C153.891 122.2 149.656 125.324 146.79 127.468" fill="#4D9BB6"/>
<path d="M122.654 143.631C125.216 142.687 127.645 141.418 129.884 139.855C136.985 135.098 142.749 129.12 149.688 123.904C151.625 122.613 153.633 121.122 156.182 120.845C158.409 120.58 159.965 122.213 160.946 124.027C162.96 127.668 162.16 132.135 160.378 135.646C158.616 139.035 156.027 142.173 152.451 143.728C151.457 144.096 149.004 144.935 148.888 143.147C148.893 142.872 149.002 142.61 149.194 142.413C149.386 142.216 149.646 142.1 149.921 142.089C151.095 141.9 152.192 141.383 153.084 140.597C157.299 137.176 161.54 129.107 157.286 124.408C155.692 122.659 146.829 130.476 145.021 131.812C142.827 133.594 140.619 135.395 138.347 137.138C133.725 140.61 128.929 144.051 123.255 145.703C122.982 145.789 122.686 145.763 122.432 145.63C122.178 145.498 121.988 145.27 121.902 144.997C121.817 144.724 121.843 144.428 121.976 144.174C122.108 143.92 122.336 143.73 122.609 143.644" fill="#4D9BB6"/>
<path d="M145.602 126.906C149.476 128.236 149.547 140.217 152.258 140.978C154.194 140.978 159.178 133.4 158.551 126.054C158.319 123.298 156.615 121.232 154.678 121.439C152.742 121.645 148.514 124.763 145.641 126.906" fill="#3B2D55"/>
<path d="M121.512 143.044C124.074 142.098 126.504 140.827 128.741 139.261C135.842 134.51 141.6 128.526 148.546 123.317C150.482 122.026 152.484 120.535 155.001 120.257C157.235 119.993 158.79 121.626 159.771 123.433C161.779 127.074 160.985 131.547 159.197 135.053C157.435 138.435 154.853 141.572 151.27 143.134C150.282 143.496 147.823 144.335 147.713 142.553C147.716 142.279 147.824 142.016 148.015 141.819C148.206 141.623 148.465 141.506 148.74 141.495C149.913 141.303 151.009 140.787 151.903 140.004C156.118 136.582 160.359 128.507 156.105 123.808C154.517 122.065 145.654 129.875 143.872 131.218C141.678 132.993 139.47 134.794 137.198 136.537C132.576 140.017 127.78 143.457 122.099 145.103C121.827 145.189 121.532 145.163 121.279 145.031C121.026 144.899 120.836 144.672 120.75 144.4C120.664 144.127 120.69 143.832 120.822 143.579C120.954 143.326 121.181 143.136 121.454 143.05" fill="#3B2D55"/>
<path d="M86.4408 98.4517C87.632 95.9411 89.0815 93.5614 90.7658 91.351C90.187 91.1759 89.5802 91.1123 88.9777 91.1638C88.5 91.1638 88.0223 91.1638 87.5511 91.2413C87.5542 91.2026 87.5542 91.1638 87.5511 91.1251C87.1733 88.8586 87.2764 86.5379 87.8535 84.3137C88.4307 82.0896 89.4691 80.0116 90.9013 78.2148C96.5238 71.1141 108.588 67.3314 125.759 67.3443C149.095 67.3443 162.909 69.1066 170.532 73.0249C177.103 76.4009 179.569 81.3391 179.569 91.2413C179.569 91.4469 179.6 91.6514 179.66 91.8481C178.996 92.0509 178.349 92.3034 177.723 92.6033C177.007 92.9906 176.432 93.2876 175.664 93.7782C170.732 97.1219 167.401 103.461 167.395 110.723C167.395 121.484 174.683 130.205 183.681 130.211C185.25 130.172 186.805 129.905 188.297 129.417C195.055 127.042 199.993 119.586 200 110.742C200 100.059 192.815 91.3769 183.901 91.2478C183.901 82.8109 182.532 74.303 172.54 69.1711C164.174 64.8268 150.198 63 125.817 63C106.981 63 94.1031 67.2023 87.5382 75.5165C85.6943 77.8287 84.3684 80.5097 83.6501 83.3785C82.9318 86.2473 82.8379 89.2368 83.3746 92.145C83.3893 92.2137 83.4109 92.2808 83.4392 92.3451C77.1906 95.0757 72.7236 102.234 72.7172 110.652C72.7172 116.791 75.2992 123.478 80.3472 127.19C81.7156 128.21 82.8647 128.662 83.4134 128.675C82.8905 125.073 82.4838 122.097 82.3289 118.992C82.1218 111.922 83.528 104.897 86.4408 98.4517ZM187.49 124.098C187.159 124.094 186.83 124.07 186.502 124.027C186.099 123.962 185.702 123.865 185.314 123.737C180.983 122.329 177.743 116.797 177.743 110.181C177.717 107.262 178.404 104.382 179.744 101.789C180.193 100.967 180.725 100.192 181.332 99.4781C183.023 97.5093 185.205 96.328 187.516 96.328C192.893 96.328 197.269 102.564 197.263 110.213C197.263 117.759 193.003 123.911 187.735 124.085L187.49 124.098Z" fill="#3B2D55"/>
<path d="M197.276 110.213C197.276 117.759 193.015 123.911 187.748 124.085H187.516C187.185 124.081 186.855 124.057 186.528 124.014C186.125 123.949 185.728 123.852 185.34 123.724C181.009 122.316 177.768 116.784 177.768 110.168C177.743 107.249 178.429 104.369 179.769 101.776C180.211 100.959 180.735 100.189 181.332 99.478C183.023 97.5092 185.205 96.3279 187.516 96.3279C192.906 96.3279 197.282 102.564 197.276 110.213Z" fill="#CDDCE2"/>
<path d="M186.276 144.98C184.933 146.496 183.221 147.639 181.306 148.298C180.77 148.499 179.537 148.86 178.724 149.073C174.722 150.022 170.216 150.016 166.756 149.796C165.988 147.214 161.973 145.2 157.131 145.2C151.735 145.2 147.365 147.666 147.365 150.7C147.365 153.734 151.735 156.206 157.131 156.206C161.121 156.206 164.548 154.85 166.065 152.92C167.356 153.017 168.796 153.082 170.319 153.082C172.916 153.106 175.509 152.89 178.065 152.436C178.659 152.326 179.95 152.03 180.602 151.836C183.765 150.926 186.651 149.428 188.652 147.027C194.003 140.572 192.028 132.374 190.298 127.9C189.239 128.1 188.226 128.397 187.141 128.546C188.697 132.212 190.756 139.584 186.276 144.98Z" fill="#3B2D55"/>
</g>
<defs>
<linearGradient id="paint0_linear_36_3115" x1="139.108" y1="112.35" x2="95.123" y2="112.35" gradientUnits="userSpaceOnUse">
<stop stop-color="#CECAD5"/>
<stop offset="0.66" stop-color="white"/>
<stop offset="1" stop-color="white"/>
</linearGradient>
<clipPath id="clip0_36_3115">
<rect width="200" height="200" fill="white"/>
</clipPath>
</defs>
</svg>
