<svg width="200" height="200" viewBox="0 0 200 200" fill="none" xmlns="http://www.w3.org/2000/svg">
<g clip-path="url(#clip0_36_2004)">
<path d="M132.894 192.14C132.053 195.897 128.737 198.483 125.033 198.483C124.601 198.483 124.162 198.448 123.72 198.373L123.675 198.364L122.885 198.174L123.444 197.595C124.648 196.385 125.522 194.921 125.974 193.356C126.227 192.451 126.346 191.676 126.463 190.929C126.515 190.593 126.568 190.259 126.63 189.916L128.264 179.933C128.989 175.408 129.676 170.918 130.308 166.592C130.348 166.316 130.166 166.054 129.894 165.997C129.61 165.939 129.33 166.121 129.271 166.406C128.375 170.666 127.473 175.116 126.59 179.634L124.683 189.575C124.621 189.885 124.561 190.204 124.501 190.522C124.352 191.315 124.2 192.136 124.018 192.749C123.506 194.452 122.394 195.96 120.885 196.993C120.722 197.106 120.556 197.213 120.388 197.314C119.541 197.81 118.609 198.142 117.62 198.297C116.637 198.454 115.647 198.43 114.677 198.227C113.615 198.012 112.565 197.543 111.643 196.872L111.283 196.61L111.537 196.243C112.271 195.189 112.785 194.04 113.068 192.823C113.279 191.89 113.352 191.085 113.422 190.307C113.451 189.989 113.481 189.672 113.519 189.351L114.505 179.318C114.937 174.74 115.331 170.232 115.676 165.922C115.698 165.645 115.5 165.395 115.226 165.355C115.088 165.335 114.948 165.372 114.835 165.455C114.723 165.539 114.648 165.663 114.628 165.804C114.013 170.082 113.401 174.565 112.809 179.128L111.55 189.136C111.508 189.44 111.472 189.745 111.435 190.049C111.334 190.892 111.237 191.689 111.079 192.324C110.901 193.057 110.607 193.772 110.211 194.447C109.641 195.411 108.858 196.261 107.947 196.905L107.874 196.96C107.825 196.996 107.776 197.033 107.723 197.067C106.105 198.142 104.051 198.596 102.095 198.306C100.168 198.034 98.3407 196.993 97.0838 195.45C96.7787 195.083 96.499 194.676 96.2575 194.244L96.1558 194.064L96.2248 193.868C96.3773 193.436 96.5081 192.973 96.6135 192.488C96.8151 191.587 96.8296 190.54 96.8368 189.851L96.9168 184.892C97.0275 178.963 97.0802 172.477 97.0748 165.062C97.0748 164.782 96.855 164.549 96.5771 164.533C96.2902 164.518 96.0377 164.739 96.0196 165.031C95.5873 172.431 95.2677 178.911 95.0388 184.835L94.8281 189.9C94.79 190.753 94.7646 191.37 94.6066 192.07C94.4159 192.887 94.167 193.558 93.8474 194.129C93.8328 194.157 93.8092 194.195 93.7856 194.233C92.3617 196.807 89.5339 198.45 86.7315 198.39H86.6116C83.8111 198.39 81.1104 196.779 79.7228 194.262C79.6774 194.191 79.652 194.153 79.632 194.111C79.2469 193.431 79.0272 192.667 78.8783 192.079C78.7148 191.337 78.6876 190.688 78.6512 189.79L78.4442 184.837C78.2008 178.583 77.8775 172.105 77.458 165.032C77.4398 164.753 77.2092 164.534 76.9313 164.534C76.6407 164.534 76.4046 164.772 76.4046 165.063C76.3901 172.125 76.4409 178.612 76.5553 184.894L76.6334 189.852C76.6389 190.936 76.7133 191.798 76.8641 192.497C76.9803 192.999 77.1093 193.451 77.2582 193.874L77.3272 194.069L77.2273 194.25C76.9858 194.682 76.7061 195.089 76.3973 195.457C75.1514 196.985 73.3261 198.03 71.3937 198.317C69.4413 198.607 67.3926 198.151 65.7653 197.064C65.7144 197.031 65.6654 196.993 65.6145 196.956L65.5401 196.901C64.6302 196.252 63.8492 195.402 63.2789 194.441C62.8812 193.77 62.5833 193.057 62.3999 192.324C62.24 191.696 62.1438 190.907 62.0439 190.071C62.0058 189.761 61.9694 189.448 61.9277 189.143L60.669 179.13C60.077 174.562 59.4649 170.079 58.851 165.807C58.8092 165.532 58.5713 165.33 58.2862 165.355C58.1445 165.366 58.0174 165.432 57.9266 165.539C57.8358 165.647 57.7922 165.784 57.8031 165.924C58.1481 170.225 58.5423 174.733 58.9745 179.322L59.9607 189.362C59.9989 189.679 60.0279 190 60.057 190.323C60.126 191.096 60.1986 191.897 60.4148 192.827C60.7035 194.036 61.2212 195.182 61.9531 196.232L62.2092 196.599L61.8477 196.861C60.9269 197.533 59.8772 198.007 58.8111 198.229C57.843 198.439 56.8477 198.463 55.8543 198.3C54.8717 198.14 53.9455 197.806 53.0991 197.31C52.9284 197.21 52.7631 197.098 52.5997 196.985C51.1031 195.957 49.9898 194.45 49.4649 192.747C49.2778 192.141 49.1271 191.33 48.9818 190.544C48.9219 190.219 48.8601 189.891 48.7965 189.577L46.8895 179.63C46.0068 175.12 45.106 170.67 44.2088 166.404C44.1507 166.132 43.8964 165.952 43.6167 165.988C43.3298 166.03 43.13 166.3 43.1699 166.588C43.802 170.923 44.4903 175.412 45.2132 179.931L46.8496 189.922C46.9113 190.259 46.964 190.595 47.0167 190.932C47.1329 191.678 47.2528 192.451 47.5107 193.358C47.9738 194.919 48.8528 196.384 50.0497 197.589L50.6799 198.224L49.7991 198.362C45.5546 199.068 41.5281 196.336 40.5928 192.158C40.5237 191.829 37.6051 178.058 34.2361 160.998L34.2288 161.007C37.1601 181.029 39.0944 192.316 39.1307 192.484V192.491L39.138 192.521C39.1961 192.78 39.2706 193.048 39.3632 193.341C39.3868 193.413 39.4104 193.484 39.4377 193.555L39.4594 193.615C39.5194 193.786 39.5848 193.956 39.6538 194.12C39.6992 194.23 39.7482 194.339 39.7991 194.448C39.8626 194.585 39.928 194.715 39.9952 194.844L40.0207 194.892C40.0751 194.997 40.1314 195.103 40.1914 195.207C40.2259 195.266 40.2604 195.32 40.2949 195.375L40.324 195.422C40.5274 195.754 40.7489 196.073 40.9851 196.369L41.0177 196.411C41.1394 196.562 41.272 196.717 41.4373 196.894L41.5045 196.967C41.657 197.129 41.8042 197.277 41.9567 197.419L41.9604 197.423C41.9604 197.423 41.9731 197.434 41.9785 197.441L41.9822 197.445C43.7675 199.09 46.0595 199.989 48.4551 199.989C48.9782 199.989 49.5067 199.945 50.0261 199.86L50.8942 199.723L53.7057 199.282C54.316 199.517 54.9498 199.69 55.6055 199.796C56.114 199.88 56.6298 199.922 57.1402 199.922C57.8013 199.922 58.4642 199.851 59.1107 199.712C60.3675 199.449 61.6153 198.889 62.705 198.094L63.0664 197.832L63.7184 197.356C64.0217 197.638 64.3414 197.899 64.6756 198.14L64.7337 198.184C64.8027 198.236 64.8772 198.291 64.9498 198.339C66.4682 199.353 68.3443 199.916 70.2186 199.916C70.6817 199.916 71.1449 199.882 71.5989 199.814C73.891 199.475 76.0522 198.24 77.5288 196.427C77.8648 196.026 78.1808 195.57 78.4587 195.085C80.1096 198.016 83.2953 199.905 86.5989 199.905H86.7043C86.7588 199.905 86.8151 199.905 86.8695 199.905C90.1569 199.905 93.337 198.018 95.0061 195.089C95.2804 195.566 95.5946 196.019 95.9396 196.435C97.4162 198.251 99.5848 199.486 101.877 199.809C102.322 199.874 102.787 199.909 103.25 199.909C105.126 199.909 106.998 199.351 108.524 198.339C108.604 198.284 108.675 198.235 108.744 198.182L108.798 198.142C109.133 197.905 109.45 197.646 109.752 197.367L110.402 197.843L110.762 198.105C111.857 198.902 113.105 199.458 114.372 199.716C115.01 199.849 115.667 199.916 116.323 199.916C116.828 199.916 117.338 199.876 117.841 199.796C118.666 199.666 119.459 199.431 120.21 199.097L122.531 199.654L123.321 199.843L123.344 199.849L123.368 199.854L123.413 199.863L123.441 199.869L123.468 199.872C123.98 199.958 124.503 200.002 125.022 200.002C129.438 200.002 133.35 196.849 134.323 192.502C134.365 192.311 136.301 180.578 139.432 160.055C135.989 177.542 132.968 191.809 132.898 192.141L132.894 192.14Z" fill="#3B2D55"/>
<path d="M86.7425 41.9419C49.8009 41.9419 24 65.0148 24 98.0512C24 107.23 29.5558 137.292 34.2361 161C37.6052 178.06 40.522 191.831 40.5928 192.159C41.5282 196.338 45.5547 199.07 49.7991 198.364L50.68 198.225L50.0498 197.591C48.8529 196.387 47.9738 194.922 47.5107 193.359C47.2528 192.453 47.1329 191.68 47.0167 190.934C46.964 190.596 46.9114 190.261 46.8496 189.923L45.2132 179.933C44.4904 175.413 43.802 170.923 43.17 166.59C43.1282 166.302 43.328 166.032 43.6168 165.99C43.8965 165.951 44.1507 166.134 44.2089 166.405C45.1061 170.67 46.0069 175.121 46.8896 179.632L48.7966 189.579C48.8602 189.892 48.9201 190.221 48.9818 190.545C49.1271 191.33 49.2779 192.143 49.4649 192.749C49.9898 194.454 51.105 195.958 52.5997 196.987C52.7632 197.1 52.9303 197.211 53.0992 197.312C53.9455 197.808 54.8718 198.142 55.8543 198.302C56.8478 198.464 57.8431 198.441 58.8111 198.231C59.8772 198.008 60.927 197.534 61.8478 196.863L62.2092 196.6L61.9531 196.234C61.2212 195.183 60.7036 194.036 60.4148 192.829C60.2005 191.899 60.1279 191.098 60.057 190.325C60.028 190 59.9989 189.681 59.9608 189.364L58.9746 179.324C58.5423 174.735 58.1482 170.226 57.8031 165.926C57.7922 165.785 57.8358 165.649 57.9266 165.541C58.0174 165.433 58.1464 165.368 58.2862 165.357C58.5714 165.331 58.8093 165.534 58.8511 165.809C59.4649 170.08 60.077 174.562 60.6691 179.132L61.9277 189.145C61.9695 189.451 62.0058 189.763 62.044 190.073C62.1438 190.908 62.2401 191.698 62.3999 192.325C62.5834 193.059 62.8794 193.77 63.279 194.443C63.8493 195.402 64.6302 196.252 65.5401 196.903L65.6146 196.958C65.6636 196.996 65.7145 197.034 65.7653 197.065C67.3927 198.152 69.4432 198.608 71.3938 198.318C73.3262 198.032 75.1515 196.987 76.3974 195.459C76.7061 195.09 76.984 194.684 77.2274 194.251L77.3273 194.071L77.2583 193.876C77.1093 193.453 76.9804 193 76.8641 192.499C76.7134 191.8 76.6389 190.937 76.6335 189.854L76.5554 184.895C76.441 178.614 76.3901 172.129 76.4047 165.065C76.4047 164.773 76.6408 164.536 76.9313 164.536C77.2092 164.536 77.4399 164.755 77.458 165.034C77.8776 172.107 78.2009 178.585 78.4442 184.839L78.6513 189.792C78.6876 190.689 78.713 191.339 78.8783 192.081C79.0272 192.668 79.247 193.432 79.632 194.113C79.6538 194.155 79.6774 194.193 79.7228 194.264C81.1104 196.783 83.8111 198.391 86.6117 198.391H86.7316C89.534 198.452 92.3618 196.81 93.7857 194.235C93.8093 194.198 93.8347 194.16 93.8474 194.131C94.1689 193.56 94.4159 192.889 94.6066 192.072C94.7646 191.372 94.7919 190.755 94.8282 189.902L95.0389 184.837C95.2677 178.911 95.5892 172.433 96.0196 165.032C96.0378 164.74 96.2884 164.522 96.5772 164.534C96.8551 164.551 97.073 164.782 97.0748 165.063C97.0803 172.479 97.0276 178.962 96.9168 184.893L96.8369 189.852C96.8296 190.544 96.8151 191.589 96.6135 192.49C96.5082 192.975 96.3774 193.438 96.2248 193.87L96.1558 194.065L96.2575 194.246C96.4991 194.68 96.7806 195.085 97.0839 195.451C98.3389 196.994 100.166 198.036 102.095 198.307C104.051 198.596 106.105 198.143 107.723 197.069C107.774 197.034 107.825 196.998 107.874 196.962L107.947 196.907C108.86 196.263 109.643 195.413 110.211 194.448C110.609 193.774 110.902 193.059 111.08 192.325C111.238 191.691 111.334 190.894 111.436 190.051C111.472 189.747 111.508 189.442 111.55 189.137L112.809 179.13C113.401 174.567 114.013 170.084 114.628 165.805C114.648 165.665 114.723 165.541 114.835 165.457C114.948 165.371 115.088 165.337 115.226 165.357C115.5 165.397 115.698 165.647 115.676 165.924C115.331 170.234 114.935 174.742 114.505 179.32L113.519 189.353C113.482 189.674 113.451 189.989 113.422 190.308C113.352 191.087 113.279 191.891 113.068 192.825C112.785 194.042 112.271 195.191 111.537 196.245L111.283 196.611L111.643 196.874C112.565 197.545 113.615 198.014 114.677 198.229C115.647 198.432 116.639 198.455 117.62 198.298C118.61 198.142 119.541 197.81 120.388 197.315C120.558 197.217 120.724 197.107 120.885 196.994C122.394 195.962 123.508 194.456 124.018 192.75C124.202 192.138 124.354 191.317 124.501 190.523C124.561 190.206 124.619 189.887 124.683 189.577L126.59 179.635C127.474 175.12 128.375 170.668 129.271 166.407C129.331 166.121 129.612 165.939 129.894 165.999C130.164 166.057 130.346 166.318 130.308 166.593C129.676 170.919 128.989 175.41 128.264 179.934L126.63 189.918C126.568 190.261 126.515 190.595 126.463 190.93C126.347 191.68 126.225 192.453 125.974 193.358C125.522 194.922 124.648 196.387 123.444 197.596L122.885 198.176L123.675 198.366L123.72 198.375C124.162 198.448 124.599 198.484 125.033 198.484C128.737 198.484 132.053 195.898 132.894 192.141C132.965 191.809 135.985 177.542 139.429 160.055C144.071 136.488 149.483 107.074 149.483 98.053C149.483 65.0167 123.682 41.9437 86.7425 41.9437V41.9419Z" fill="#57D1E5"/>
<path d="M41.9586 57.2236C30.6237 67.1415 24 81.3161 24 98.0513C24 113.836 40.4257 191.373 40.5928 192.161C40.9633 193.816 41.8242 195.238 42.9847 196.316C38.9092 176.736 25.9433 113.276 25.9433 98.5674C25.9433 82.0821 31.7842 67.8528 41.9586 57.2255" fill="#93E1EF"/>
<path d="M69.9463 66.1602C54.8972 66.1602 42.6524 78.4562 42.6524 93.5683C42.6524 108.68 54.8972 120.976 69.9463 120.976C84.9953 120.976 97.2401 108.68 97.2401 93.5683C97.2401 78.4562 84.9953 66.1602 69.9463 66.1602Z" fill="#4D9BB6"/>
<path d="M39.9444 91.3562C39.9444 106.468 52.1892 118.764 67.2401 118.764C82.2909 118.764 94.5339 106.468 94.5339 91.3562C94.5339 76.2442 82.2891 63.9463 67.2401 63.9463C52.191 63.9463 39.9444 76.2424 39.9444 91.3562Z" fill="url(#paint0_linear_36_2004)"/>
<path d="M85.867 91.7574C85.4675 103.266 77.28 109.355 72.0585 108.115C67.6814 107.075 67.1384 97.3054 69.8754 94.7429C71.6734 93.0596 75.2459 92.6018 75.2877 91.3871C75.3294 90.1725 71.7988 89.4667 70.1206 87.6611C67.5688 84.9126 68.7875 75.2064 73.2263 74.475C78.5223 73.6032 86.2666 80.251 85.8652 91.7592" fill="#3B2D55"/>
<g opacity="0.15">
<path d="M80.4494 77.198C82.8159 80.1872 84.4795 84.568 84.2888 90.0576C83.8893 101.566 75.7018 107.656 70.4803 106.415C70.1388 106.333 69.8228 106.195 69.5268 106.014C70.1461 107.081 70.987 107.862 72.0585 108.115C77.2801 109.355 85.4676 103.267 85.8671 91.7592C86.0978 85.1115 83.6096 80.0905 80.4476 77.198" fill="#3B2D55"/>
</g>
<path d="M50.4494 130.054C67.0422 132.485 84.4468 128.328 98.1519 118.655C100.057 117.38 102.017 120.15 100.152 121.531C92.8867 126.508 84.6902 130.09 76.1304 132.032C67.578 133.978 58.6695 134.288 50.0226 132.946C49.2271 132.822 48.684 132.076 48.8057 131.279C48.9274 130.488 49.663 129.942 50.4494 130.055" fill="#4D9BB6"/>
<path d="M100.072 123.227C99.6048 121.013 97.6052 119.282 95.4057 119.204C93.0992 119.042 93.2517 115.638 95.5656 115.686C97.4399 115.936 99.1834 116.937 100.397 118.297C101.437 119.306 103.72 123.831 101.307 124.163C100.713 124.21 100.186 123.8 100.072 123.227Z" fill="#4D9BB6"/>
<path d="M49.9009 128.817C66.4937 131.248 83.8983 127.092 97.6034 117.418C99.5086 116.143 101.468 118.914 99.603 120.294C92.3382 125.272 84.1417 128.853 75.5819 130.796C67.0295 132.742 58.121 133.052 49.4741 131.71C48.6786 131.586 48.1355 130.84 48.2572 130.043C48.3789 129.251 49.1145 128.706 49.9009 128.819" fill="#3B2D55"/>
<path d="M99.523 121.991C99.0563 119.777 97.0567 118.046 94.8572 117.967C92.5507 117.805 92.7032 114.402 95.0171 114.449C96.8914 114.699 98.6349 115.7 99.8481 117.061C100.889 118.069 103.172 122.594 100.758 122.926C100.164 122.974 99.6375 122.563 99.523 121.991Z" fill="#3B2D55"/>
<path d="M72.4907 33.2205L45.037 10.7002L117.829 0.346436L175.231 46.4358L138.757 51.2196L72.4907 33.2205Z" fill="url(#paint1_linear_36_2004)"/>
<path d="M116.188 0.233447L117.829 0L175.691 46.383L173.413 46.6748L116.188 0.233447Z" fill="#191919"/>
<path d="M46.1122 11.583L44.6229 10.403L117.829 0L118.878 1.18912L46.1122 11.583Z" fill="#191919"/>
<path d="M141.953 43.3189C141.953 43.3189 128.016 28.3746 110.931 23.7349C110.827 23.7075 110.724 23.6838 110.62 23.6601C110.518 23.6291 110.417 23.5963 110.313 23.5671C93.2281 18.9273 73.6894 24.7781 73.6894 24.7781L68.4732 43.9827C68.4732 43.9827 88.7166 40.2257 104.933 44.612C121.141 49.031 136.737 62.5235 136.737 62.5235L141.953 43.3189Z" fill="url(#paint2_linear_36_2004)"/>
<path d="M141.953 43.3189C141.953 43.3189 128.016 28.3746 110.931 23.7349C110.827 23.7075 110.724 23.6838 110.62 23.6601C110.518 23.6291 110.417 23.5963 110.313 23.5671C93.2281 18.9273 73.6894 24.7781 73.6894 24.7781L73.368 25.9636C73.368 25.9636 94.0654 20.4484 110.282 24.8365C126.49 29.2555 141.663 44.3931 141.663 44.3931L141.953 43.3207V43.3189Z" fill="#191919"/>
<path d="M165.892 56.1441C165.842 55.7866 165.544 55.5148 165.184 55.5039H165.179C164.821 55.4948 164.507 55.7428 164.434 56.0948C164.407 56.2298 161.559 69.8408 159.002 83.616C153.771 111.79 154.812 113.193 155.255 113.791C156.485 115.449 160.251 116.072 163.593 116.158C164.656 116.185 165.675 116.158 166.555 116.094C168.806 115.926 171.637 115.447 172.355 114.108C173.564 111.848 167.716 69.1697 165.896 56.1441H165.892Z" fill="url(#paint3_linear_36_2004)"/>
<path d="M164.432 56.0948C164.405 56.2298 161.557 69.8408 159 83.616C153.769 111.79 154.81 113.193 155.253 113.791C155.729 114.431 156.581 114.918 157.642 115.277C159.559 84.6994 164.505 55.741 164.43 56.093L164.432 56.0948Z" fill="#FCC86B"/>
<path d="M166.45 54.882L163.924 54.8163C163.924 54.8163 164.318 39.3651 164.371 37.3242C164.332 37.2932 163.408 36.5528 163.094 36.2974C164.817 35.4475 166.919 36.6129 166.871 38.486C166.824 40.359 166.452 54.882 166.452 54.882H166.45Z" fill="url(#paint4_linear_36_2004)"/>
<path d="M165.282 59.6914C167.206 59.6914 168.766 58.1253 168.766 56.1934C168.766 54.2614 167.206 52.6953 165.282 52.6953C163.358 52.6953 161.799 54.2614 161.799 56.1934C161.799 58.1253 163.358 59.6914 165.282 59.6914Z" fill="black"/>
</g>
<defs>
<linearGradient id="paint0_linear_36_2004" x1="94.5339" y1="91.3562" x2="39.9444" y2="91.3562" gradientUnits="userSpaceOnUse">
<stop stop-color="#CECAD5"/>
<stop offset="0.66" stop-color="white"/>
<stop offset="1" stop-color="white"/>
</linearGradient>
<linearGradient id="paint1_linear_36_2004" x1="45.037" y1="25.783" x2="175.231" y2="25.783" gradientUnits="userSpaceOnUse">
<stop stop-color="#1E1E1E"/>
<stop offset="1"/>
</linearGradient>
<linearGradient id="paint2_linear_36_2004" x1="68.4732" y1="42.1516" x2="141.953" y2="42.1516" gradientUnits="userSpaceOnUse">
<stop stop-color="#323232"/>
<stop offset="1" stop-color="#1E1E1E"/>
</linearGradient>
<linearGradient id="paint3_linear_36_2004" x1="154.863" y1="85.8356" x2="172.514" y2="85.8356" gradientUnits="userSpaceOnUse">
<stop stop-color="#FAB533"/>
<stop offset="1" stop-color="#F97100"/>
</linearGradient>
<linearGradient id="paint4_linear_36_2004" x1="163.094" y1="45.4493" x2="166.871" y2="45.4493" gradientUnits="userSpaceOnUse">
<stop stop-color="#FAB533"/>
<stop offset="1" stop-color="#F97100"/>
</linearGradient>
<clipPath id="clip0_36_2004">
<rect width="200" height="200" fill="white"/>
</clipPath>
</defs>
</svg>
