<svg xmlns="http://www.w3.org/2000/svg" viewBox="0 0 25 25"><defs><style>.cls-1,.cls-2{fill:none;stroke:gray;stroke-linecap:round;stroke-linejoin:round;}.cls-2{stroke-width:1.13px;}</style></defs><title>icon-memory-management</title><g id="Calque_4" data-name="Calque 4"><rect class="cls-1" x="5.5" y="5.5" width="15" height="15" rx="2.74" ry="2.74"/><rect class="cls-1" x="9.5" y="9.5" width="7" height="7"/><line class="cls-2" x1="8.5" y1="5.5" x2="8.5" y2="1.5"/><line class="cls-2" x1="11.5" y1="5.5" x2="11.5" y2="1.5"/><line class="cls-2" x1="14.5" y1="5.5" x2="14.5" y2="1.5"/><line class="cls-2" x1="17.5" y1="5.5" x2="17.5" y2="1.5"/><line class="cls-2" x1="8.5" y1="24.5" x2="8.5" y2="20.5"/><line class="cls-2" x1="11.5" y1="24.5" x2="11.5" y2="20.5"/><line class="cls-2" x1="14.5" y1="24.5" x2="14.5" y2="20.5"/><line class="cls-2" x1="17.5" y1="24.5" x2="17.5" y2="20.5"/><line class="cls-2" x1="20.5" y1="8.5" x2="24.5" y2="8.5"/><line class="cls-2" x1="20.5" y1="11.5" x2="24.5" y2="11.5"/><line class="cls-2" x1="20.5" y1="14.5" x2="24.5" y2="14.5"/><line class="cls-2" x1="20.5" y1="17.5" x2="24.5" y2="17.5"/><line class="cls-2" x1="1.5" y1="8.5" x2="5.5" y2="8.5"/><line class="cls-2" x1="1.5" y1="11.5" x2="5.5" y2="11.5"/><line class="cls-2" x1="1.5" y1="14.5" x2="5.5" y2="14.5"/><line class="cls-2" x1="1.5" y1="17.5" x2="5.5" y2="17.5"/></g></svg>
