<svg xmlns="http://www.w3.org/2000/svg" viewBox="0 0 21 19"><defs><style>.cls-1,.cls-2{fill:none;stroke:#4d4d4d;}.cls-1{stroke-linecap:round;stroke-linejoin:round;}.cls-2{stroke-miterlimit:10;}</style></defs><g id="Layer_5" data-name="Layer 5"><path class="cls-1" d="M16.21,6.38a5.36,5.36,0,0,1-1.51,3.73,5,5,0,0,0-1.45,3.31H8.47a5.41,5.41,0,0,0-1.28-3.11,5.37,5.37,0,1,1,9-3.93Z"/><line class="cls-1" x1="13.23" y1="15.67" x2="8.45" y2="15.67"/><path class="cls-1" d="M13.24,13.4H8.44v4.16a.7.7,0,0,0,.71.7h3.38a.7.7,0,0,0,.71-.7Z"/><path class="cls-2" d="M10.84,8.21a1.65,1.65,0,1,1,1.64-1.65h0A1.65,1.65,0,0,1,10.84,8.21Z"/><line class="cls-2" x1="10.84" y1="8.67" x2="10.84" y2="13.31"/></g></svg>
