<svg xmlns="http://www.w3.org/2000/svg" viewBox="0 0 21 19"><defs><style>.cls-1{fill:none;stroke:#4d4d4d;stroke-linecap:round;stroke-linejoin:round;}.cls-2{fill:#4d4d4d;}</style></defs><g id="Calque_4" data-name="Calque 4"><rect class="cls-1" x="6.5" y="11.5" width="8" height="1"/><path class="cls-1" d="M15.65,6.55a3.42,3.42,0,0,0-3.15,2"/><path class="cls-2" d="M10.06,2.8A5.17,5.17,0,0,1,15,6.35l.24,0a4.84,4.84,0,0,1,0,9.67h-11a3.45,3.45,0,0,1,0-6.9A3.17,3.17,0,0,1,5,9.2,5.33,5.33,0,0,1,4.86,8a5.2,5.2,0,0,1,5.2-5.2m0-.8a6,6,0,0,0-6,6c0,.1,0,.2,0,.31a4.25,4.25,0,0,0,.18,8.49h11a5.63,5.63,0,0,0,.3-11.26A6,6,0,0,0,10.06,2Z"/></g></svg>
