<svg id="Calque_1" data-name="Calque 1" xmlns="http://www.w3.org/2000/svg" viewBox="0 0 25 25"><defs><style>.cls-1,.cls-2{fill:none;}.cls-1,.cls-2,.cls-3{stroke:#4d4d4d;stroke-linecap:round;stroke-linejoin:round;}.cls-2,.cls-3{stroke-width:1.1px;}.cls-3{fill:#4d4d4d;}</style></defs><polyline class="cls-1" points="16.5 22 17.5 15.5 7.5 15.53 8.5 21.96"/><path class="cls-2" d="M3.46,12A5.69,5.69,0,0,1,5,7.5"/><path class="cls-1" d="M14.62,5A2.33,2.33,0,0,1,12.37,7.5c-1.33,0-2-1.12-1.95-2.44s.7-2.5,2-2.48A2.27,2.27,0,0,1,14.62,5Z"/><path class="cls-1" d="M17.58,12a3.23,3.23,0,0,0-3.46-3.5H11A3.26,3.26,0,0,0,7.5,12"/><circle class="cls-3" cx="4.94" cy="6.96" r="1.01"/><polyline class="cls-1" points="7.54 18.5 4.5 18.5 2.5 12.5 22.5 12.5 20.5 18.5 17.5 18.5"/></svg>
