<?xml version="1.0" encoding="UTF-8" standalone="no"?>
<svg
   viewBox="0 0 16.000794 16"
   version="1.1"
   id="svg10"
   sodipodi:docname="icon-expand.svg"
   width="16.000793"
   height="16"
   inkscape:version="1.1.1 (3bf5ae0d25, 2021-09-20)"
   xmlns:inkscape="http://www.inkscape.org/namespaces/inkscape"
   xmlns:sodipodi="http://sodipodi.sourceforge.net/DTD/sodipodi-0.dtd"
   xmlns="http://www.w3.org/2000/svg"
   xmlns:svg="http://www.w3.org/2000/svg">
  <defs
     id="defs14" />
  <sodipodi:namedview
     id="namedview12"
     pagecolor="#ffffff"
     bordercolor="#666666"
     borderopacity="1.0"
     inkscape:pageshadow="2"
     inkscape:pageopacity="0.0"
     inkscape:pagecheckerboard="0"
     showgrid="false"
     width="23px"
     fit-margin-bottom="0"
     fit-margin-top="0"
     fit-margin-left="0"
     fit-margin-right="0"
     inkscape:zoom="24.100556"
     inkscape:cx="7.1575112"
     inkscape:cy="8.111846"
     inkscape:window-width="1920"
     inkscape:window-height="1003"
     inkscape:window-x="-8"
     inkscape:window-y="-8"
     inkscape:window-maximized="1"
     inkscape:current-layer="svg10" />
  <title
     id="title2" />
  <path
     d="m 5.0007927,13 a 1,1 0 0 1 -0.71,-0.29 l -4,-4 a 1,1 0 0 1 0,-1.41 l 4,-4 a 1.0005623,1.0005623 0 0 1 1.42,1.41 l -3.3,3.29 3.29,3.29 a 1,1 0 0 1 -0.7,1.71 z"
     id="path4" />
  <path
     d="M 11.000793,9 H 1.0007927 a 1,1 0 0 1 0,-2 H 11.000793 a 1,1 0 0 1 0,2 z"
     id="path6" />
  <path
     d="m 15.000793,16 a 1,1 0 0 1 -1,-1 V 1 a 1,1 0 0 1 2,0 v 14 a 1,1 0 0 1 -1,1 z"
     id="path8" />
</svg>
