<svg width="200" height="200" viewBox="0 0 200 200" fill="none" xmlns="http://www.w3.org/2000/svg">
<g clip-path="url(#clip0_36_2561)">
<path d="M68.5006 196.609C66.8061 197.676 64.9771 198.055 62.9874 197.865C59.7628 197.622 57.3472 194.733 56.4953 191.759C55.6415 189.14 56.5289 186.581 57.3285 184.014C58.1617 181.308 59.0902 178.478 58.9968 175.588C58.9576 174.888 58.8063 173.438 58.7185 172.857C58.3859 176.029 57.562 178 57.1678 179.314C56.6989 180.873 56.0618 182.523 55.7125 183.887C55.1931 185.915 54.7746 187.455 54.8811 189.708C54.9857 191.227 55.3426 193.124 56.0282 194.479C57.392 197.228 59.69 199.429 62.8585 199.644C65.2442 199.855 68.0634 199.11 70.0475 197.745C70.9349 197.12 69.4421 196.075 68.5006 196.61V196.609Z" fill="#3B2D55"/>
<path d="M151.019 196.609C152.713 197.676 154.542 198.055 156.532 197.865C159.756 197.622 162.172 194.733 163.024 191.759C163.878 189.14 162.99 186.581 162.191 184.014C161.357 181.308 160.429 178.478 160.522 175.588C160.562 174.888 160.713 173.438 160.801 172.857C161.133 176.029 161.957 178 162.351 179.314C162.82 180.873 163.457 182.523 163.807 183.887C164.326 185.915 164.745 187.455 164.638 189.708C164.533 191.227 164.177 193.124 163.491 194.479C162.127 197.228 159.829 199.429 156.661 199.644C154.275 199.855 151.456 199.11 149.472 197.745C148.584 197.12 150.077 196.075 151.019 196.61V196.609Z" fill="#3B2D55"/>
<path d="M161.434 169.632C168.044 150.865 187.003 142.528 187.003 107.917C187.003 71.1084 152.087 43.3645 109.749 43.3645C67.4113 43.3645 32.494 71.1084 32.494 107.917C32.494 142.528 51.4529 150.863 58.0627 169.632C60.8725 177.612 53.2426 187.029 57.3285 193.805C60.2355 199.168 64.7715 198.649 68.7471 196.609C68.026 195.994 67.3759 195.294 66.8247 194.497C66.3558 193.795 65.9915 193.01 65.7692 192.173C65.2479 189.721 65.9952 187.322 66.5165 185.02C67.2451 182.112 68.1624 179.2 68.3156 176.225C68.3529 175.517 69.3935 175.502 69.4365 176.225C69.5019 179.331 68.6556 182.381 68.0185 185.377C67.6897 186.852 67.3815 188.326 67.2694 189.752C67.2227 190.46 67.2376 191.16 67.3945 191.746C68.6126 195.802 73.4719 197.908 77.4438 198.04C79.2915 198.122 81.0625 197.452 82.5216 196.332C82.0845 195.81 81.6959 195.233 81.3689 194.604C80.5338 192.976 80.1508 191.098 80.3358 189.286C80.6571 185.941 81.8098 182.758 82.0471 179.42C82.1013 178.62 82.0714 177.828 81.8976 177.098C81.8267 176.798 82.0135 176.495 82.3143 176.424C82.5982 176.357 82.8841 176.522 82.9738 176.794C83.2689 177.681 83.3399 178.586 83.3399 179.46C83.3138 182.829 82.2713 186.094 81.9911 189.416C81.8042 191.688 82.6076 194.008 84.2161 195.627C86.0638 197.518 88.8736 198.44 91.491 198.051C93.4097 197.747 95.4498 197.355 97.0976 196.34C98.3213 195.591 99.0013 194.43 99.2274 193.036C98.9509 192.474 98.723 191.882 98.5548 191.266C98.2167 190.07 98.2223 188.789 98.2634 187.565C98.3456 185.22 98.6595 182.917 98.7846 180.598C98.8538 179.456 98.8762 178.314 98.7454 177.222C98.68 176.52 99.6945 176.348 99.8514 177.048C100.459 180.565 99.8701 184.091 99.8589 187.602C99.7785 189.84 100.208 191.828 101.602 193.635C103.388 196.004 106.188 197.581 109.122 198.008C110.431 198.231 111.778 197.98 113.03 197.572C116.071 196.553 118.569 193.984 119.333 190.856C119.608 189.792 119.642 188.709 119.634 187.604C119.602 185.297 119.393 182.973 119.373 180.643C119.376 179.462 119.401 178.263 119.64 177.052C119.7 176.747 119.995 176.551 120.297 176.611C120.587 176.667 120.779 176.938 120.746 177.225C120.615 178.317 120.637 179.46 120.705 180.604C120.83 182.922 121.144 185.226 121.228 187.57C121.271 188.787 121.265 190.053 120.972 191.251C120.854 191.77 120.695 192.276 120.499 192.765C121.405 195.718 124.359 197.351 127.279 197.93C130.175 198.531 133.681 198.371 135.651 195.888C136.82 194.462 137.375 192.45 137.517 190.559C137.571 189.379 137.381 188.203 137.186 187.012C136.773 184.513 136.175 182.026 136.153 179.465C136.153 178.592 136.226 177.688 136.519 176.802C136.616 176.508 136.934 176.348 137.227 176.447C137.504 176.538 137.663 176.826 137.597 177.104C137.423 177.834 137.394 178.625 137.448 179.426C137.623 181.888 138.303 184.292 138.772 186.723C139.109 188.421 139.38 190.236 139.051 191.981C138.784 193.7 138.244 195.134 137.485 196.293C138.879 197.271 140.482 197.938 142.176 198.04C145.743 198.178 149.603 196.567 151.417 193.404C151.704 192.892 151.932 192.347 152.091 191.783C152.274 191.089 152.274 190.359 152.207 189.564C151.915 186.661 151.026 183.74 150.501 180.826C150.228 179.314 150.014 177.782 150.058 176.23C150.068 175.921 150.327 175.678 150.638 175.689C150.935 175.698 151.172 175.939 151.179 176.23C151.329 179.161 152.224 182.03 152.943 184.892C153.313 186.383 153.683 187.861 153.842 189.413C153.931 190.29 153.954 191.283 153.714 192.222C153.247 193.988 152.239 195.502 150.921 196.702C154.854 198.667 159.301 199.095 162.165 193.81C166.252 187.035 158.622 177.617 161.432 169.637L161.434 169.632Z" fill="#57D1E5"/>
<path d="M161.434 169.632C168.044 150.865 187.003 142.528 187.003 107.917C187.003 85.1755 173.675 65.8949 153.503 54.4785C166.121 64.2616 184.966 83.9734 184.258 108.163C183.898 120.502 178.708 137.397 170.667 147.632C163.304 157.004 159.665 163.463 159.076 170.377C158.488 177.291 164.541 183.493 162.168 193.803C166.256 187.027 158.626 177.61 161.436 169.63L161.434 169.632Z" fill="#93E1EF"/>
<path d="M137.031 195.953C138.526 197.115 140.295 197.919 142.176 198.035C145.743 198.173 149.603 196.562 151.417 193.398C151.704 192.887 151.932 192.342 152.091 191.778C152.274 191.083 152.274 190.354 152.207 189.558C151.915 186.656 151.026 183.734 150.501 180.821C150.228 179.309 150.014 177.776 150.058 176.225C150.068 175.915 150.327 175.672 150.638 175.684C150.935 175.693 151.172 175.934 151.179 176.225C151.329 179.156 152.224 182.025 152.943 184.886C153.313 186.378 153.683 187.856 153.842 189.407C153.931 190.284 153.954 191.278 153.715 192.216C152.674 196.151 148.954 198.836 145.096 199.577C143.499 199.894 141.819 199.944 140.237 199.517C138.658 199.106 137.196 198.302 135.961 197.249C135.148 196.519 136.161 195.293 137.031 195.953Z" fill="#3B2D55"/>
<path d="M120.466 192.644C121.331 195.672 124.323 197.338 127.281 197.925C130.177 198.526 133.683 198.365 135.652 195.882C136.822 194.456 137.377 192.444 137.519 190.553C137.573 189.373 137.382 188.197 137.188 187.007C136.775 184.507 136.177 182.021 136.155 179.46C136.155 178.586 136.228 177.683 136.521 176.796C136.618 176.503 136.936 176.342 137.229 176.441C137.506 176.533 137.664 176.82 137.599 177.098C137.425 177.828 137.395 178.62 137.45 179.421C137.625 181.883 138.305 184.287 138.774 186.717C139.111 188.416 139.381 190.23 139.053 191.976C138.034 198.518 133.115 200.96 126.926 199.668C124.282 199.127 121.641 197.88 120.034 195.621C119.487 194.86 119.083 193.992 118.848 193.088C118.605 192.015 120.133 191.6 120.469 192.644H120.466Z" fill="#3B2D55"/>
<path d="M84.2142 197.109C82.4338 198.871 79.9136 199.935 77.3933 199.821C73.3467 199.647 69.1936 197.917 66.8247 194.496C66.3558 193.794 65.9915 193.008 65.7692 192.172C65.2479 189.719 65.9952 187.32 66.5165 185.019C67.2451 182.11 68.1624 179.198 68.3156 176.223C68.3529 175.516 69.3935 175.501 69.4365 176.223C69.5019 179.329 68.6556 182.379 68.0185 185.375C67.6897 186.85 67.3814 188.324 67.2694 189.751C67.2226 190.458 67.2376 191.158 67.3945 191.744C68.6126 195.8 73.4719 197.906 77.4438 198.038C79.525 198.13 81.509 197.271 83.0597 195.886C83.8836 195.173 84.9746 196.323 84.2142 197.109Z" fill="#3B2D55"/>
<path d="M100.928 193.049C100.487 197.396 96.8268 198.897 93.0305 199.597C88.4944 200.725 83.5604 198.824 81.369 194.604C80.5339 192.976 80.1509 191.098 80.3358 189.286C80.6572 185.941 81.8099 182.758 82.0471 179.421C82.1013 178.62 82.0714 177.828 81.8977 177.098C81.8267 176.798 82.0135 176.496 82.3143 176.425C82.5983 176.357 82.8841 176.522 82.9738 176.794C83.269 177.681 83.34 178.586 83.34 179.46C83.3138 182.829 82.2713 186.094 81.9911 189.416C81.8043 191.688 82.6076 194.008 84.2162 195.627C86.0639 197.518 88.8737 198.44 91.4911 198.052C93.4098 197.747 95.4499 197.355 97.0977 196.34C98.3811 195.556 99.0668 194.318 99.2573 192.832C99.4404 191.753 101.019 191.955 100.926 193.047L100.928 193.049Z" fill="#3B2D55"/>
<path d="M99.8533 177.046C100.46 180.563 99.8719 184.089 99.8607 187.6C99.7804 189.838 100.21 191.826 101.604 193.633C103.39 196.002 106.19 197.579 109.123 198.007C110.433 198.229 111.78 197.979 113.032 197.57C116.073 196.551 118.571 193.982 119.335 190.854C119.61 189.79 119.643 188.707 119.636 187.602C119.604 185.295 119.395 182.971 119.374 180.641C119.378 179.46 119.402 178.261 119.642 177.05C119.701 176.746 119.997 176.55 120.299 176.609C120.589 176.665 120.781 176.936 120.748 177.223C120.617 178.315 120.639 179.458 120.707 180.602C120.832 182.92 121.146 185.224 121.23 187.568C121.273 188.785 121.267 190.051 120.974 191.249C120.135 194.968 117.166 198.007 113.572 199.181C112.07 199.666 110.459 199.926 108.888 199.681C104.285 199.041 99.8159 195.882 98.553 191.27C98.2148 190.073 98.2204 188.793 98.2615 187.568C98.3437 185.224 98.6576 182.92 98.7828 180.602C98.8519 179.46 98.8743 178.317 98.7435 177.225C98.6781 176.523 99.6926 176.352 99.8495 177.052L99.8533 177.046Z" fill="#3B2D55"/>
<path d="M13.6268 44.2831L33.1984 34.991C34.5342 34.3488 35.9783 35.7283 35.4104 37.0816L24.9632 64.5512L22.7886 62.4437L45.5437 53.6107C46.1098 53.3905 46.7468 53.6724 46.9673 54.2379C47.1803 54.7867 46.9206 55.4046 46.3863 55.6417L24.0534 65.4882C22.7232 66.0837 21.3239 64.7135 21.8788 63.3808L32.3259 35.9112L34.5379 38.0019L14.5198 46.2916C13.1989 46.7956 12.3582 44.9383 13.6268 44.2831Z" fill="#657BC4"/>
<path d="M38.0483 3.03568L48.6617 5.80765C50.0087 6.14738 50.2946 7.97669 49.1344 8.71402L49.0634 8.76068L38.067 15.9025L37.4393 12.8953L50.5449 15.6355C51.139 15.7606 51.522 16.343 51.3968 16.9366C51.2791 17.5003 50.7448 17.8718 50.1825 17.8027L36.8956 16.147C35.3599 15.9529 34.9526 13.9201 36.2679 13.1398L47.2643 5.99805L47.666 8.95108L37.3851 5.13006C36.0979 4.60927 36.6938 2.72582 38.0483 3.03382V3.03568Z" fill="#657BC4"/>
<path d="M81.4643 142.676C81.0981 146.338 79.2168 149.722 76.3322 150C74.2566 150.198 71.5664 146.704 71.2002 144.141" fill="#4D9BB6"/>
<path d="M95.3957 142.31C95.3957 146.338 97.3798 150.723 100.528 150.551C103.674 150.379 105.66 147.803 106.026 143.409" fill="#4D9BB6"/>
<path d="M66.9406 143.43C77.5914 140.893 88.6196 139.958 99.5563 140.525C103.211 140.708 106.854 141.134 110.457 141.78C111.354 141.94 111.95 142.797 111.789 143.693C111.633 144.567 110.812 145.155 109.942 145.035C99.3638 143.613 88.642 143.139 78.0006 144.162C74.449 144.496 70.9069 144.968 67.3852 145.582C65.999 145.784 65.5674 143.809 66.9406 143.43Z" fill="#4D9BB6"/>
<path d="M80.2386 141.246C79.8725 144.908 77.9911 148.292 75.1066 148.571C73.031 148.768 70.3407 145.274 69.9745 142.711" fill="white"/>
<path d="M94.1682 140.88C94.1682 144.908 96.1523 149.293 99.3003 149.121C102.446 148.949 104.432 146.373 104.798 141.979" fill="white"/>
<path d="M65.7131 142C76.3639 139.463 87.3921 138.528 98.3288 139.095C101.983 139.278 105.626 139.704 109.23 140.35C110.127 140.51 110.723 141.367 110.562 142.263C110.405 143.137 109.585 143.725 108.714 143.605C98.1364 142.183 87.4145 141.709 76.7731 142.732C73.2216 143.066 69.6794 143.538 66.1578 144.152C64.7715 144.354 64.34 142.379 65.7131 142Z" fill="#3B2D55"/>
<path d="M56.9044 110.864C64.2148 118.939 74.7573 124.799 85.948 124.119C98.0037 123.388 106.908 118.167 116.284 104.953C111.025 121.592 95.0314 129.473 84.7318 129.034C74.4322 128.596 61.7245 121.59 56.9044 110.862V110.864Z" fill="#4D9BB6"/>
<path d="M118.545 97.8986C119.13 116.156 103.773 131.539 85.5538 131.41C67.3105 131.521 51.9947 116.179 52.5626 97.8986C52.6504 96.4837 54.6793 96.4856 54.7615 97.8986C54.9689 109.961 62.7445 121.394 73.9689 125.846C89.2305 132.221 107.304 124.765 113.757 109.569C115.36 105.91 116.223 101.925 116.346 97.8949C116.423 96.4968 118.455 96.4725 118.545 97.8986Z" fill="#3B2D55"/>
<path d="M137.031 195.953C138.526 197.114 140.295 197.919 142.176 198.035C145.743 198.173 149.603 196.562 151.417 193.398C151.704 192.886 151.932 192.341 152.091 191.778C152.274 191.083 152.274 190.353 152.207 189.558C151.915 186.656 151.026 183.734 150.501 180.82C150.228 179.308 150.014 177.776 150.058 176.225C150.068 175.915 150.327 175.672 150.638 175.683C150.935 175.693 151.172 175.934 151.179 176.225C151.329 179.155 152.224 182.024 152.943 184.886C153.313 186.377 153.683 187.856 153.842 189.407C153.931 190.284 153.954 191.277 153.715 192.216C152.674 196.151 148.954 198.835 145.096 199.577C143.499 199.894 141.82 199.944 140.237 199.517C138.658 199.106 137.196 198.302 135.961 197.249C135.148 196.519 136.161 195.293 137.031 195.953Z" fill="#3B2D55"/>
<path d="M120.466 192.644C121.331 195.672 124.323 197.338 127.281 197.925C130.177 198.526 133.683 198.365 135.652 195.882C136.822 194.456 137.377 192.444 137.519 190.553C137.573 189.373 137.382 188.197 137.188 187.007C136.775 184.507 136.177 182.021 136.155 179.46C136.155 178.586 136.228 177.683 136.521 176.796C136.618 176.503 136.936 176.342 137.229 176.441C137.506 176.533 137.665 176.82 137.599 177.098C137.425 177.828 137.396 178.62 137.45 179.421C137.625 181.883 138.305 184.287 138.774 186.717C139.111 188.416 139.381 190.23 139.053 191.976C138.034 198.518 133.115 200.96 126.926 199.668C124.282 199.127 121.641 197.88 120.034 195.621C119.487 194.86 119.083 193.992 118.848 193.088C118.605 192.015 120.133 191.6 120.469 192.644H120.466Z" fill="#3B2D55"/>
<path d="M84.2143 197.109C82.4339 198.871 79.9136 199.935 77.3934 199.821C73.3468 199.648 69.1937 197.917 66.8248 194.496C66.3558 193.794 65.9915 193.008 65.7692 192.172C65.248 189.719 65.9953 187.32 66.5165 185.019C67.2451 182.111 68.1624 179.199 68.3156 176.223C68.353 175.516 69.3936 175.501 69.4366 176.223C69.502 179.329 68.6556 182.379 68.0186 185.375C67.6898 186.85 67.3815 188.325 67.2694 189.751C67.2227 190.458 67.2377 191.158 67.3946 191.744C68.6127 195.801 73.472 197.906 77.4438 198.039C79.525 198.13 81.5091 197.271 83.0597 195.886C83.8836 195.173 84.9747 196.323 84.2143 197.109Z" fill="#3B2D55"/>
<path d="M100.928 193.049C100.487 197.396 96.8268 198.897 93.0305 199.597C88.4944 200.725 83.5604 198.824 81.369 194.604C80.5339 192.976 80.1509 191.098 80.3358 189.286C80.6572 185.941 81.8099 182.758 82.0471 179.421C82.1013 178.62 82.0714 177.828 81.8977 177.098C81.8267 176.798 82.0135 176.496 82.3143 176.425C82.5983 176.357 82.8841 176.522 82.9738 176.794C83.269 177.681 83.34 178.586 83.34 179.46C83.3138 182.829 82.2713 186.094 81.9911 189.416C81.8043 191.688 82.6076 194.008 84.2162 195.627C86.0639 197.518 88.8737 198.44 91.4911 198.052C93.4098 197.747 95.4499 197.355 97.0977 196.34C98.3811 195.556 99.0668 194.318 99.2573 192.832C99.4404 191.753 101.019 191.955 100.926 193.047L100.928 193.049Z" fill="#3B2D55"/>
<path d="M99.8533 177.046C100.461 180.563 99.872 184.089 99.8608 187.6C99.7805 189.838 100.21 191.826 101.604 193.633C103.39 196.002 106.19 197.579 109.124 198.007C110.433 198.229 111.78 197.979 113.032 197.57C116.073 196.551 118.571 193.982 119.335 190.854C119.61 189.79 119.644 188.707 119.636 187.602C119.604 185.295 119.395 182.971 119.375 180.641C119.378 179.46 119.403 178.261 119.642 177.05C119.701 176.746 119.997 176.55 120.299 176.609C120.589 176.665 120.781 176.936 120.748 177.223C120.617 178.315 120.639 179.458 120.707 180.602C120.832 182.92 121.146 185.224 121.23 187.568C121.273 188.785 121.267 190.051 120.974 191.249C120.135 194.968 117.166 198.007 113.572 199.181C112.07 199.666 110.459 199.926 108.888 199.681C104.285 199.041 99.816 195.882 98.553 191.27C98.2149 190.073 98.2205 188.793 98.2616 187.568C98.3438 185.224 98.6577 182.92 98.7828 180.602C98.852 179.46 98.8744 178.317 98.7436 177.225C98.6782 176.523 99.6927 176.352 99.8496 177.052L99.8533 177.046Z" fill="#3B2D55"/>
</g>
<defs>
<clipPath id="clip0_36_2561">
<rect width="200" height="200" fill="white"/>
</clipPath>
</defs>
</svg>
