<svg width="24" height="31" viewBox="0 0 24 31" fill="none" xmlns="http://www.w3.org/2000/svg">
<path fill-rule="evenodd" clip-rule="evenodd" d="M21.9489 0.113037L23.9922 11.7823L21.4782 12.2148L19.4351 0.545553L21.9489 0.113037ZM3.97631 26.1138L15.9209 26.1082L15.9194 23.5781L3.97528 23.5842L3.97631 26.1138ZM16.2082 20.3364L4.3145 19.2498L4.08032 21.7692L15.9742 22.8548L16.2082 20.3364ZM5.45843 13.9607L16.9928 17.0352L16.3309 19.4782L4.79572 16.4033L5.45843 13.9607ZM18.4986 14.1417L8.21058 8.12476L6.91394 10.3029L17.2025 16.3203L18.4986 14.1417ZM14.2917 2.58179L21.0214 12.3675L18.9138 13.7922L12.1838 4.00688L14.2917 2.58179Z" fill="black"/>
<path d="M17.9494 17.7888V28.13H2.28271V17.7888H0.242188V30.1148H19.9797V17.7888H17.9494Z" fill="black"/>
</svg>
