<svg id="Calque_1" data-name="Calque 1" xmlns="http://www.w3.org/2000/svg" viewBox="0 0 25 25"><defs><style>.cls-1{fill:none;stroke:gray;stroke-linecap:round;stroke-linejoin:round;}.cls-2{fill:gray;}</style></defs><title>icon-events</title><polyline class="cls-1" points="22.5 23.5 1.5 23.5 1.5 3.5 23.5 3.5 23.5 18.71"/><path class="cls-1" d="M4.42,3.5c0-1.36,1.09-2,2.45-2a2.46,2.46,0,1,1,0,4.91,2.61,2.61,0,0,1-1-.21"/><path class="cls-1" d="M10.67,3.5c0-1.36,1.1-2,2.46-2a2.46,2.46,0,0,1,0,4.91,2.61,2.61,0,0,1-1-.21"/><path class="cls-1" d="M16.93,3.5c0-1.36,1.1-2,2.45-2a2.46,2.46,0,1,1,0,4.91,2.52,2.52,0,0,1-1-.21"/><rect class="cls-2" x="7" y="9" width="3" height="3"/><rect class="cls-2" x="12" y="9" width="3" height="3"/><rect class="cls-2" x="17" y="9" width="3" height="3"/><rect class="cls-2" x="7" y="14" width="3" height="3"/><rect class="cls-2" x="12" y="14" width="3" height="3"/><rect class="cls-2" x="17" y="14" width="3" height="3"/><line class="cls-1" x1="3.5" y1="3.67" x2="3.5" y2="20.33"/><path class="cls-1" d="M3.5,20.43c0,1.29.44,2.33,1.73,2.33s2.33-1.9,2.33-3.19L24.5,19.5c0,1.29-.55,3.12-1.83,3.12H6.3"/></svg>
