<?xml version="1.0" encoding="UTF-8"?><svg id="Layer_3" xmlns="http://www.w3.org/2000/svg" viewBox="0 0 20 20"><defs><style>.cls-1{fill:none;stroke:#000;stroke-linecap:round;stroke-linejoin:round;}</style></defs><path class="cls-1" d="m17.5,2.91c0,1.28-3.67,2.59-8,2.59S1.5,4.19,1.5,2.91,5.09.5,9.42.5s8.08,1.13,8.08,2.41Z"/><path class="cls-1" d="m17.5,7.66c0,1.28-3.63,2.8-7.96,2.8S1.5,8.93,1.5,7.66"/><path class="cls-1" d="m17.5,12.47c0,1.28-3.67,3.03-8,3.03S1.5,13.75,1.5,12.47"/><path class="cls-1" d="m17.5,17.29c0,1.28-3.75,2.3-8.08,2.3s-7.92-1.03-7.92-2.3"/><line class="cls-1" x1="1.5" y1="17.19" x2="1.5" y2="2.91"/><line class="cls-1" x1="17.5" y1="17.19" x2="17.5" y2="2.91"/></svg>