<svg id="Layer_1" data-name="Layer 1" xmlns="http://www.w3.org/2000/svg" viewBox="13.05 39.43 298.02 213.57"><defs><style>.cls-1{fill:#b03831;}.cls-2{fill:#57d1e5;}.cls-3{fill:#3b2d55;}.cls-4{fill:#fff;}.cls-5{fill:#fab533;}.cls-6{fill:#e5e5e4;}</style></defs><title>scylla-manager</title><path class="cls-1" d="M138.28,242.68a3,3,0,0,1,.21-4.07h0a3,3,0,0,1,4.07.21h0a3,3,0,0,1-.21,4.08h0a3.45,3.45,0,0,1-1.93.64h0A3,3,0,0,1,138.28,242.68Zm148.77-5.79a3,3,0,0,1-.64-4.07h0a3,3,0,0,1,4.07-.64h0a3,3,0,0,1,.64,4.07h0a3.44,3.44,0,0,1-2.35,1.07h0A1.88,1.88,0,0,1,287.05,236.89ZM128.84,230a3.06,3.06,0,0,1,.86-4.07h0a3,3,0,0,1,4.07.86h0a3.09,3.09,0,0,1-.85,4.07h0a3.87,3.87,0,0,1-1.5.43h0A2.81,2.81,0,0,1,128.84,230Zm167-6a2.89,2.89,0,0,1-1.29-3.86h0a2.88,2.88,0,0,1,3.86-1.28h0a2.89,2.89,0,0,1,1.29,3.86h0a2.6,2.6,0,0,1-2.57,1.5h0A1.42,1.42,0,0,1,295.84,224Zm-174.5-8.14a2.91,2.91,0,0,1,1.5-3.86h0a2.9,2.9,0,0,1,3.86,1.5h0a2.91,2.91,0,0,1-1.5,3.86h0a2.38,2.38,0,0,1-1.07.21h0A2.87,2.87,0,0,1,121.34,215.89Zm180.93-5.79a3,3,0,0,1-1.93-3.65h0a2.71,2.71,0,0,1,3.65-1.71h0a3,3,0,0,1,1.93,3.64h0a2.77,2.77,0,0,1-2.79,1.93h0C302.92,210.31,302.7,210.1,302.27,210.1Zm-185.86-9.22h0a2.88,2.88,0,0,1,2.14-3.43h0a2.88,2.88,0,0,1,3.43,2.14h0a2.88,2.88,0,0,1-2.14,3.43h-.64A2.77,2.77,0,0,1,116.41,200.88Zm189.94-5.57a2.87,2.87,0,0,1-2.36-3.22h0a2.87,2.87,0,0,1,3.21-2.36h0a2.88,2.88,0,0,1,2.36,3.22h0a2.76,2.76,0,0,1-2.79,2.36h-.42ZM113.84,185.23a2.71,2.71,0,0,1,2.57-3h0a2.71,2.71,0,0,1,3,2.57h0a2.71,2.71,0,0,1-2.57,3h-.22A2.65,2.65,0,0,1,113.84,185.23Zm191.43-8.15h0v-.42h0a2.84,2.84,0,0,1,2.79-2.79h0a3.19,3.19,0,0,1,3,2.79h0v.21h0v.21h0a2.84,2.84,0,0,1-2.79,2.79h0A2.89,2.89,0,0,1,305.27,177.08Zm0-.42Zm-188.86-4.29a2.83,2.83,0,0,1-2.57-3h0a2.84,2.84,0,0,1,3-2.58h0a2.84,2.84,0,0,1,2.57,3h0a2.79,2.79,0,0,1-2.79,2.57h-.21ZM304,161.65a2.87,2.87,0,0,1,2.36-3.22h0a2.87,2.87,0,0,1,3.21,2.36h0A2.88,2.88,0,0,1,307.2,164h-.43A2.59,2.59,0,0,1,304,161.65Zm-185.65-4.5a2.88,2.88,0,0,1-2.14-3.43h0a2.89,2.89,0,0,1,3.43-2.15h0a2.88,2.88,0,0,1,2.14,3.43h0a2.77,2.77,0,0,1-2.79,2.15h-.64Zm182-9.86a2.88,2.88,0,0,1,1.72-3.65h0a2.87,2.87,0,0,1,3.64,1.72h0A2.86,2.86,0,0,1,304,149h0a1.28,1.28,0,0,1-.86.22h0A3.06,3.06,0,0,1,300.34,147.29Zm-177.5-4.93a2.91,2.91,0,0,1-1.5-3.86h0a2.9,2.9,0,0,1,3.86-1.5h0a2.91,2.91,0,0,1,1.5,3.86h0a3.33,3.33,0,0,1-2.79,1.71h0A9.61,9.61,0,0,1,122.84,142.36Zm171.5-8.79a2.83,2.83,0,0,1,1.29-3.86h0a2.82,2.82,0,0,1,3.86,1.28h0a2.83,2.83,0,0,1-1.29,3.86h0a3,3,0,0,1-1.29.43h0A4.26,4.26,0,0,1,294.34,133.57Zm-164.85-5.15a3,3,0,0,1-.86-4.07h0a3,3,0,0,1,4.07-.86h0a3,3,0,0,1,.86,4.07h0a2.69,2.69,0,0,1-2.36,1.29h0A4,4,0,0,1,129.49,128.42Zm156.92-7.5a3,3,0,0,1,.64-4.07h0a3,3,0,0,1,4.07.64h0a3,3,0,0,1-.64,4.07h0a2.42,2.42,0,0,1-1.71.64h0A5.07,5.07,0,0,1,286.41,120.92Zm-148.13-5.15a2.78,2.78,0,0,1-.22-4.07h0a2.78,2.78,0,0,1,4.08-.21h0a2.79,2.79,0,0,1,.21,4.07h0a3,3,0,0,1-2.14,1.07h0A7.29,7.29,0,0,1,138.28,115.77Zm138-6a2.79,2.79,0,0,1,0-4.07h0a2.79,2.79,0,0,1,4.08,0h0a2.79,2.79,0,0,1,0,4.07h0a2.78,2.78,0,0,1-2.15.86h0A8,8,0,0,1,276.33,109.77Zm-127.12-5.14a2.81,2.81,0,0,1,.43-4.08h0a2.81,2.81,0,0,1,4.07.43h0a2.8,2.8,0,0,1-.43,4.07h0a2.43,2.43,0,0,1-1.71.65h0A2.34,2.34,0,0,1,149.21,104.63Zm115.55-4.29h0a2.81,2.81,0,0,1-.65-4.07h0a2.82,2.82,0,0,1,4.08-.65h0a2.83,2.83,0,0,1,.64,4.08h0a3,3,0,0,1-2.36,1.28h0C265.83,100.77,265.4,100.55,264.76,100.34ZM161.64,95.62a2.65,2.65,0,0,1,1.08-3.86h0a2.64,2.64,0,0,1,3.85,1.08h0a2.64,2.64,0,0,1-1.07,3.85h0a3.05,3.05,0,0,1-1.5.43h0A3.49,3.49,0,0,1,161.64,95.62Zm90.25-2.78A2.67,2.67,0,0,1,250.61,89h0a2.67,2.67,0,0,1,3.86-1.29h0a2.67,2.67,0,0,1,1.28,3.86h0a2.78,2.78,0,0,1-2.57,1.71h0C252.54,93.05,252.11,93.05,251.89,92.84Zm-76.53-4.29a2.72,2.72,0,0,1,1.72-3.65h0a2.71,2.71,0,0,1,3.64,1.72h0A2.7,2.7,0,0,1,179,90.26h0a1.9,1.9,0,0,1-1.07.22h0A3.43,3.43,0,0,1,175.36,88.55Zm62.39-1.07a2.89,2.89,0,0,1-1.93-3.65h0a2.88,2.88,0,0,1,3.64-1.93h0a3.09,3.09,0,0,1,1.93,3.65h0a3,3,0,0,1-2.79,2.14h0A1.29,1.29,0,0,1,237.75,87.48Zm-47.81-3.86a3.08,3.08,0,0,1,2.14-3.43h0a2.88,2.88,0,0,1,3.43,2.14h0a2.88,2.88,0,0,1-2.14,3.43h-.64A2.41,2.41,0,0,1,189.94,83.62Zm33.23,1.07a3,3,0,0,1-2.57-3.22h0a3,3,0,0,1,3.21-2.57h0a3,3,0,0,1,2.57,3.22h0a3,3,0,0,1-3,2.57h-.21Zm-18-3.43a2.88,2.88,0,0,1,2.79-3h0A2.88,2.88,0,0,1,211,81h0a2.88,2.88,0,0,1-2.79,3H208A2.71,2.71,0,0,1,205.16,81.26Z"/><path class="cls-2" d="M134.4,230.51a11.65,11.65,0,0,0,22.86,4.41c21.18-99.38,21.32-95.7,21.32-120.53,0-42.8-34-73-81.82-73s-81.82,30.21-81.82,73c0,20.49,21.32,120.53,21.32,120.53a11.65,11.65,0,0,0,22.87-4.41"/><path class="cls-3" d="M47.63,245.93a13.59,13.59,0,0,1-13.21-10.59c-.87-4.12-21.36-100.49-21.36-120.95,0-21.23,8.38-40.39,23.6-54s36.49-20.94,60.1-20.94,45,7.44,60.11,20.94,23.6,32.73,23.6,54-.25,22.5-13.24,83c-2.29,10.65-5,23.14-8.12,37.92a13.57,13.57,0,0,1-15.41,10.43,13.55,13.55,0,0,1-11.17-15.55,1.89,1.89,0,0,1,3.73.61,9.76,9.76,0,0,0,19.16,3.7c3.15-14.76,5.83-27.25,8.12-37.9,13.16-61.28,13.16-61.28,13.16-82.22,0-20.14-7.94-38.3-22.35-51.14s-34.9-20-57.59-20-43.13,7.1-57.59,20-22.34,31-22.34,51.14S37.9,233.53,38.11,234.53a9.76,9.76,0,0,0,19.16-3.72A1.88,1.88,0,1,1,61,230.2a13.55,13.55,0,0,1-13.36,15.73Z"/><path class="cls-2" d="M41.52,201.84l5.81,32.59a11.65,11.65,0,0,0,23-3.43"/><path class="cls-3" d="M42.75,201.62s.91,4.22,2.18,10.57c.62,3.17,1.39,6.87,2.14,10.85l1.17,6.12c.2,1,.4,2.09.61,3.15l.3,1.58,0,.2s0-.16,0-.07v.08l0,.09.09.4.09.39.05.19,0,.15a10.79,10.79,0,0,0,1.13,2.36,10.48,10.48,0,0,0,1.76,2,9.55,9.55,0,0,0,2.2,1.43,4.41,4.41,0,0,0,.59.26l.6.22a11.17,11.17,0,0,0,1.24.3,10.68,10.68,0,0,0,2.45.14c.21,0,.4-.05.6-.07l.3,0h.11s.11,0-.07,0h0l.17,0a8.6,8.6,0,0,0,1.25-.32l.49-.17.51-.23a7.42,7.42,0,0,0,1-.51c.32-.19.59-.41.89-.6s.53-.44.77-.68a10.47,10.47,0,0,0,2.13-3,9.06,9.06,0,0,0,.81-2.71c0-.19,0-.38.08-.55s0-.34,0-.49a4,4,0,0,0,0-.78l0-.65V231a1.88,1.88,0,0,1,3.76-.25s0,.31.07.89a7.26,7.26,0,0,1,0,1.08c0,.22,0,.45,0,.69s-.06.5-.09.78a13.2,13.2,0,0,1-1.08,3.8,13.66,13.66,0,0,1-2.94,4.19c-.33.33-.72.63-1.09.95s-.8.59-1.24.85a12.77,12.77,0,0,1-1.37.73l-.73.33-.82.27a10.52,10.52,0,0,1-1.47.39l-.18,0-.14,0H61l-.41.06-.84.1a13.14,13.14,0,0,1-3.47-.22,13.29,13.29,0,0,1-1.73-.44l-.84-.33a4.77,4.77,0,0,1-.83-.37,13.12,13.12,0,0,1-3-2,14.3,14.3,0,0,1-2.43-2.82,16.33,16.33,0,0,1-.89-1.65c-.12-.3-.26-.56-.37-.88l-.32-1-.07-.24,0-.2-.09-.39-.09-.4-.06-.29,0-.2L45.17,233c-.17-1.06-.34-2.11-.52-3.16-.34-2.09-.69-4.16-1-6.15-.67-4-1.23-7.72-1.74-10.92-1-6.39-1.61-10.66-1.61-10.66a1.26,1.26,0,0,1,2.47-.45Z"/><circle class="cls-4" cx="124.46" cy="106.84" r="36.5"/><path class="cls-3" d="M124.46,145.23a38.39,38.39,0,1,1,38.39-38.39A38.44,38.44,0,0,1,124.46,145.23Zm0-73a34.62,34.62,0,1,0,34.61,34.62A34.66,34.66,0,0,0,124.46,72.22Z"/><path class="cls-3" d="M116.9,82.92c6.3,1.26,7.56,15.11,3.78,18.88-2.48,2.48-7.55,3.31-7.55,5s5.07,2.55,7.55,5c3.78,3.78,2.52,17.63-3.78,18.89C109.4,132.26,98,123.2,98,106.84S109.4,81.42,116.9,82.92Z"/><path class="cls-3" d="M100.93,150.73l-1.76-.52c-.56-.15-1.3-.47-2.12-.77-.42-.15-.83-.34-1.26-.54l-1.36-.63c-.92-.47-1.92-1-3-1.59s-2.09-1.23-3.15-2-2.14-1.48-3.23-2.28c-.55-.39-1.07-.82-1.61-1.23s-1.08-.84-1.59-1.29l-1.57-1.31-1.51-1.35c-1-.89-1.93-1.83-2.86-2.71s-1.77-1.79-2.55-2.66-1.55-1.69-2.2-2.49-1.26-1.51-1.77-2.18-1-1.24-1.3-1.74L67,123.92a1.89,1.89,0,0,1,3.09-2.17h0l.06.08s.36.54,1,1.47c.3.47.72,1,1.2,1.65s1,1.33,1.64,2.09,1.31,1.55,2,2.4,1.57,1.69,2.41,2.58,1.75,1.78,2.71,2.64L82.64,136l1.48,1.28c.49.44,1,.84,1.51,1.25s1,.83,1.52,1.21c1,.77,2,1.54,3,2.21s2,1.31,3,1.91,1.88,1.07,2.73,1.51l1.25.6a11.4,11.4,0,0,0,1.11.5l1,.39a8.26,8.26,0,0,0,.86.32l1.76.54h0a1.58,1.58,0,0,1-.9,3Z"/><path class="cls-3" d="M63.18,125l.26-.45a5,5,0,0,1,.35-.55c.16-.23.34-.5.55-.76s.44-.52.71-.79l.42-.39.22-.21.28-.22.43-.33.22-.17.29-.18a11.13,11.13,0,0,1,1.21-.67,11.34,11.34,0,0,1,2.48-.84,9.09,9.09,0,0,1,1.21-.18,10.52,10.52,0,0,1,1.09-.06l.93,0,.71.1.62.09a1.9,1.9,0,0,1-.56,3.75l-.18,0-.17,0-.41-.11-.47-.12-.63-.08a5.86,5.86,0,0,0-.75,0,4.91,4.91,0,0,0-.84,0,5.66,5.66,0,0,0-.89.14,5.88,5.88,0,0,0-.91.26,7,7,0,0,0-.82.33l-.2.09-.24.15-.46.28-.12.07-.05,0h0l.06,0h0l-.17.14-.34.26a7.84,7.84,0,0,0-.59.53c-.17.16-.29.32-.42.45a3.55,3.55,0,0,0-.35.44l-.3.42a1.26,1.26,0,0,1-1.76.29A1.27,1.27,0,0,1,63.18,125Z"/><path class="cls-2" d="M123.16,231a11.65,11.65,0,0,0,23,3.43L152,201.84"/><path class="cls-3" d="M125.05,231.13s0,.27,0,.77c0,.13,0,.27,0,.42l0,.39c0,.13,0,.28,0,.44s0,.35.07.55a9.3,9.3,0,0,0,.81,2.7,10.09,10.09,0,0,0,2.13,3,9.86,9.86,0,0,0,3.68,2.21A10.46,10.46,0,0,0,134,242l.37,0a1.13,1.13,0,0,0,.32,0l.56,0a4.27,4.27,0,0,0,.59-.05,6.17,6.17,0,0,0,.62-.08,11.28,11.28,0,0,0,2.43-.78,10.8,10.8,0,0,0,2.19-1.45,10.23,10.23,0,0,0,1.77-2,10,10,0,0,0,1.15-2.43,5,5,0,0,0,.18-.66l.08-.33,0-.16,0-.2.3-1.58q.3-1.59.6-3.15c.4-2.09.8-4.14,1.18-6.12.74-4,1.51-7.68,2.13-10.85,1.28-6.35,2.18-10.57,2.18-10.57a1.26,1.26,0,0,1,2.48.45s-.61,4.27-1.61,10.66c-.52,3.2-1.07,6.93-1.75,10.92-.33,2-.67,4.06-1,6.15-.18,1-.35,2.1-.53,3.16l-.26,1.59,0,.2L148,235l-.11.45a8.65,8.65,0,0,1-.23.91,13.63,13.63,0,0,1-4,6.23,15.31,15.31,0,0,1-3,2,14.71,14.71,0,0,1-3.41,1.14,8.7,8.7,0,0,1-.87.13,6.4,6.4,0,0,1-.89.08l-.94,0a2.53,2.53,0,0,1-.4,0l-.37,0a13.45,13.45,0,0,1-3.26-.63,13.65,13.65,0,0,1-5.19-3.12,13.32,13.32,0,0,1-2.94-4.19,12.86,12.86,0,0,1-1.08-3.81c0-.27-.07-.52-.09-.78s0-.51,0-.73,0-.44,0-.64,0-.29,0-.42c.05-.5.07-.77.07-.77a1.89,1.89,0,0,1,3.77.26Z"/><path class="cls-2" d="M106.35,231.75a11.64,11.64,0,0,0,23.2,1.93L133.22,201"/><path class="cls-3" d="M108.24,231.76v.77c0,.12,0,.26,0,.42s0,.24,0,.38,0,.28,0,.44.07.35.11.54a8.9,8.9,0,0,0,1,2.63,10,10,0,0,0,2.3,2.82,9.83,9.83,0,0,0,3.8,2,10,10,0,0,0,2.32.3c.24,0,.51,0,.71,0l.55-.05a4.58,4.58,0,0,0,.58-.09c.21,0,.41-.07.61-.12a10.11,10.11,0,0,0,2.37-.92,9.91,9.91,0,0,0,2.1-1.55,9.78,9.78,0,0,0,2.66-4.58,3.51,3.51,0,0,0,.14-.66l.12-.67.2-1.6c.13-1.06.26-2.12.4-3.17.26-2.1.52-4.16.77-6.16.49-4,1-7.73,1.43-10.92.85-6.39,1.48-10.65,1.48-10.65a1.26,1.26,0,0,1,2.5.28s-.32,4.29-.91,10.71c-.3,3.21-.62,7-1,11l-.62,6.18c-.1,1.05-.21,2.11-.31,3.18l-.16,1.6c0,.29-.09.61-.14.91a5.78,5.78,0,0,1-.19.92,13.65,13.65,0,0,1-6.53,8.62,14.35,14.35,0,0,1-3.32,1.34l-.86.18a7.93,7.93,0,0,1-.89.13l-.93.08h-.75a13.33,13.33,0,0,1-8.64-3.23,13.13,13.13,0,0,1-3.19-4,13,13,0,0,1-1.31-3.71c0-.28-.11-.52-.14-.78s0-.5-.06-.73l0-.63c0-.15,0-.29,0-.42,0-.5,0-.77,0-.77a1.89,1.89,0,0,1,3.78,0Z"/><path class="cls-2" d="M87.18,231.75l-18.9-21.59a6.77,6.77,0,0,1-6.72,2L64,233.68a11.65,11.65,0,0,0,23.21-1.93Z"/><path class="cls-3" d="M61.55,200.89s.63,4.26,1.49,10.65c.42,3.19.94,6.92,1.43,10.92.25,2,.51,4.06.77,6.16.13,1,.27,2.11.4,3.17l.2,1.6a11.89,11.89,0,0,0,.27,1.4l.16.59.25.62a3.42,3.42,0,0,0,.27.62c.11.19.2.4.31.59a10.44,10.44,0,0,0,1.64,2.09,9.67,9.67,0,0,0,4.47,2.46,10.23,10.23,0,0,0,2.44.29l.6,0h.37s-.16,0-.07,0h.07l.17,0,.7-.12.17,0,.13,0,.25-.07c.16-.05.32-.08.49-.14l.53-.2a6.93,6.93,0,0,0,1-.45c.32-.17.62-.36.91-.54s.57-.4.81-.63a10.21,10.21,0,0,0,2.31-2.82,9.24,9.24,0,0,0,1-2.64q.06-.28.12-.54c0-.18,0-.34,0-.49a4.58,4.58,0,0,0,0-.78c0-.42,0-.64,0-.64v-.2a1.88,1.88,0,0,1,3.76,0s0,.31,0,.9a8.65,8.65,0,0,1,0,1.07q0,.31-.06.69c0,.24-.09.49-.14.76a13.18,13.18,0,0,1-1.31,3.71,13.57,13.57,0,0,1-3.19,4c-.35.31-.75.58-1.14.87s-.83.54-1.28.78a15.1,15.1,0,0,1-1.41.64l-.75.28-.82.23-.42.1-.22.05-.17,0-.7.12-.17,0-.19,0H77l-.42,0-.84,0A13.6,13.6,0,0,1,66,242.06a14.53,14.53,0,0,1-2.26-2.95c-.15-.27-.28-.55-.42-.83a6.55,6.55,0,0,1-.37-.86l-.33-.88-.26-1c0-.16-.09-.34-.11-.47l-.06-.4-.06-.4,0-.2,0-.1,0-.14v-.05l-.16-1.6c-.11-1.07-.21-2.13-.32-3.18-.21-2.1-.41-4.18-.61-6.18-.42-4-.73-7.76-1-11-.59-6.42-.92-10.71-.92-10.71a1.26,1.26,0,0,1,2.5-.28Z"/><path class="cls-2" d="M84.18,200l.94,32.73a11.65,11.65,0,0,0,23.29,0l.94-32.73"/><path class="cls-3" d="M85.43,200s.09,1.58.25,4.35.37,6.73.6,11.47.44,10.29.69,16.23l0,.56,0,.46a6.22,6.22,0,0,0,.12,1,9.32,9.32,0,0,0,.5,1.77,9.7,9.7,0,0,0,9.1,6.22H97c-.19,0,0,0-.07,0h.08l.15,0,.59,0,.3,0,.21,0,.44-.08c.28,0,.62-.16.93-.23s.61-.23.92-.34a9.5,9.5,0,0,0,3.2-2.22,9.89,9.89,0,0,0,2.07-3.25,5.59,5.59,0,0,0,.3-.9,7.36,7.36,0,0,0,.21-.93,5.76,5.76,0,0,0,.11-.93c0-.16,0-.3,0-.48l0-.56c.26-5.94.46-11.48.7-16.23s.43-8.7.6-11.47.25-4.35.25-4.35a1.26,1.26,0,0,1,2.52.07v4.36c0,2.78,0,6.74-.06,11.49s-.16,10.3-.24,16.24v.56c0,.19,0,.42,0,.63a9.41,9.41,0,0,1-.15,1.3,8,8,0,0,1-.28,1.29,9.36,9.36,0,0,1-.4,1.27,13.74,13.74,0,0,1-7.27,7.71c-.44.17-.86.36-1.3.49s-.87.27-1.36.36l-.74.13-.37.06-.29,0-.59,0-.15,0h-.6a13.58,13.58,0,0,1-12.67-8.84,12.67,12.67,0,0,1-.68-2.63,10.74,10.74,0,0,1-.14-1.21v-1.21c-.09-5.94-.21-11.49-.24-16.24s-.08-8.71-.07-11.49V200a1.26,1.26,0,0,1,2.51-.07Z"/><path class="cls-5" d="M260.78,154.32l-9.19-3.07-.72-4.5,7.47-4.17-2.57-7.87H246l-2.24-3.21,3.37-8.83-6.26-6.26-9.16,4.5-3.05-1.45L228,108.87l-7.87-1.77-7.54,8-2.73-.16-4.34-8-9.31,1.6-1.76,10.92-3.21,1.77-7.87-4.66-7.23,5.78,3.7,9.8-2.25,2.72-9.31-.64-3.54,8,6.91,7.23-.48,3.37-8.51,3.85,1.44,10.92,24.25-7.55,6.51-.22a13.82,13.82,0,0,1-.3-2.67c0-8.33,7.34-17.59,16.8-17.59s17.45,9.26,17.45,17.59a13.24,13.24,0,0,1-.24,2.1l30.72,6Z"/><path class="cls-1" d="M162.68,163.78a2.37,2.37,0,0,1-2.34-1.89,27.06,27.06,0,0,1-.56-5,5.31,5.31,0,0,1,2.94-4.75,39.61,39.61,0,0,1,6.6-2.61c0-.21.08-.42.13-.64s0-.46,0-.71a43.23,43.23,0,0,1-5.76-4.58,5.46,5.46,0,0,1-1.38-5.09,41.11,41.11,0,0,1,2.28-5.71,5.32,5.32,0,0,1,4.71-2.77c2.49.18,4.68.36,6.84.67l.08-.12c.11-.15.23-.31.35-.49a2.2,2.2,0,0,1,.3-.37l.09-.13a60.58,60.58,0,0,1-3.07-6.85,1.55,1.55,0,0,1-.07-.23,5.45,5.45,0,0,1,1.3-5.11,33.73,33.73,0,0,1,4.44-4,4.86,4.86,0,0,1,5.38-.53c2.23,1.31,4.09,2.52,5.82,3.77a7.86,7.86,0,0,1,.93-.39l.29-.15a33.26,33.26,0,0,1,1.2-8.46,5.17,5.17,0,0,1,3.57-3.81l.93-.24a38,38,0,0,1,4.68-1,4.74,4.74,0,0,1,5.16,2.42,65.57,65.57,0,0,1,3.26,5.78h1.32a72.19,72.19,0,0,1,3.92-6.37,2,2,0,0,1,.26-.32,5.65,5.65,0,0,1,5.09-1.61l.77.25a2.74,2.74,0,0,0,.45.16,1.63,1.63,0,0,1,.75.15,19.75,19.75,0,0,0,1.89.59c.56.15,1.15.32,1.78.52l.31.13a5.16,5.16,0,0,1,3,4.47,49.84,49.84,0,0,1,.16,6.92.77.77,0,0,0,.17.07l.31.13a6.28,6.28,0,0,1,.8.47,65.28,65.28,0,0,1,6.31-3.6,4.87,4.87,0,0,1,5.32.64,4.25,4.25,0,0,1,.86.71,2.44,2.44,0,0,1,.6.47l2.86,2.82a4.9,4.9,0,0,1,1,5.58c-1.06,2.37-2,4.36-3.07,6.21l.07.09a3.26,3.26,0,0,1,.44.61l.2.4a64.35,64.35,0,0,1,7.4-.35,5.19,5.19,0,0,1,4.52,2.94,2.43,2.43,0,0,1,.25,1.06c.2.37.34.68.49,1a13.12,13.12,0,0,1,1.17,3.35,5.37,5.37,0,0,1-1.57,4.92l-.22.2c-1.76,1.39-3.56,2.81-5.53,4.12l0,.4a2.64,2.64,0,0,1,0,.29l.07.67a59.59,59.59,0,0,1,6.79,3.13,5.29,5.29,0,0,1,2.69,4.67,2.56,2.56,0,0,1,0,.39c-.1.61-.15,1.18-.2,1.72a18.58,18.58,0,0,1-.26,2.15,2.37,2.37,0,1,1-4.66-.9,14.76,14.76,0,0,0,.2-1.66c.05-.57.1-1.16.2-1.79a.88.88,0,0,0-.17-.41,57.07,57.07,0,0,0-7.54-3.35,2.37,2.37,0,0,1-1.56-2l-.25-2.13a2.11,2.11,0,0,1,0-.26v-.09l-.23-1.75a2.39,2.39,0,0,1,1.12-2.34,62.59,62.59,0,0,0,6.23-4.51c.28-.32.24-.49.21-.62a8.82,8.82,0,0,0-.81-2.23c-.18-.39-.36-.76-.51-1.14a4.69,4.69,0,0,1-.33-1,.53.53,0,0,0-.17-.12,48.77,48.77,0,0,0-8.05.51,2.35,2.35,0,0,1-2.07-.65,3.54,3.54,0,0,1-.65-.88,6.51,6.51,0,0,1-.86-1.34,7.92,7.92,0,0,1-.66-.95,2.49,2.49,0,0,0-.25-.38,2.56,2.56,0,0,1-.36-2.88A71.17,71.17,0,0,0,244.4,121l-2.69-2.84a5.18,5.18,0,0,1-.77-.64,2.75,2.75,0,0,1-.6-.48,49.33,49.33,0,0,0-7.13,4.11,2.36,2.36,0,0,1-2.84-.07,3.09,3.09,0,0,1-.56-.34c-.22-.12-.4-.24-.58-.36l-.24-.15a7.51,7.51,0,0,1-1.21-.61,3.24,3.24,0,0,0-.48-.25,2.37,2.37,0,0,1-1.63-2.45,47.41,47.41,0,0,0-.06-7.89.58.58,0,0,0-.26-.39c-.48-.15-.93-.27-1.36-.39-.7-.19-1.36-.38-2-.62a6.11,6.11,0,0,1-1.42-.38l-.46-.16c.09,0-.12.14-.31.28a75.67,75.67,0,0,0-4.16,6.94,2.4,2.4,0,0,1-2.08,1.25l-4.26,0a2.4,2.4,0,0,1-2.22-1.48,49.16,49.16,0,0,0-3.66-6.73c-.1,0-.18-.07-.28-.07h0a33.93,33.93,0,0,0-4.21.92l-.95.25s-.12.2-.17.41a29.64,29.64,0,0,0-1.06,8.68,2.36,2.36,0,0,1-1.6,2.26,3.85,3.85,0,0,0-.48.27,7.09,7.09,0,0,1-1.41.7,5.63,5.63,0,0,0-1,.5l-.61.33a2.38,2.38,0,0,1-2.51-.23,62.93,62.93,0,0,0-6.43-4.3h-.09l-.22.17a28.71,28.71,0,0,0-3.87,3.51.77.77,0,0,0-.11.53,54.47,54.47,0,0,0,3.4,7.32,2.38,2.38,0,0,1-.38,2.81,2.75,2.75,0,0,0-.24.38,7.1,7.1,0,0,1-.76,1.1c-.12.18-.25.35-.37.52a2.89,2.89,0,0,0-.41.65,2.38,2.38,0,0,1-2.67,1.6c-2.5-.44-5-.65-7.84-.86a1.4,1.4,0,0,0-.33.18,40.67,40.67,0,0,0-1.93,4.86,1.19,1.19,0,0,0,.15.42,47.09,47.09,0,0,0,6.35,4.9,2.36,2.36,0,0,1,.91,2.69,5,5,0,0,0-.11,1.38,2.1,2.1,0,0,1-.11.75,5.1,5.1,0,0,0-.11,1.39,2.36,2.36,0,0,1-1.78,2.31,36.17,36.17,0,0,0-7.32,2.72.57.57,0,0,0-.34.49,22.17,22.17,0,0,0,.45,4,2.36,2.36,0,0,1-1.84,2.8A2.4,2.4,0,0,1,162.68,163.78Zm67.5-42.91Zm-47.43-3.93Z"/><path class="cls-1" d="M194.42,158.34A2.38,2.38,0,0,1,192,156a19.22,19.22,0,0,1,16.91-19.31,18.85,18.85,0,0,1,14.15,3.83,19.4,19.4,0,0,1,7.31,12.77l0,.3,0,1.9a2.37,2.37,0,0,1-4.74,0l0-1.75a14.59,14.59,0,0,0-5.51-9.51,14.1,14.1,0,0,0-10.63-2.88A14.51,14.51,0,0,0,196.77,156,2.38,2.38,0,0,1,194.42,158.34Z"/><path class="cls-6" d="M209,158.73c-28.17.2-58.05,7.57-58,20.83l.36,50.94a7.86,7.86,0,0,0,.7,3.27c4.33,9.91,28,16.69,57.55,16.48,28.17-.2,58.05-7.57,58-20.83l-.36-50.69C267.11,165.47,237.12,158.53,209,158.73Z"/><path class="cls-3" d="M209.53,222.68c-30,.22-54.07-6.23-58.47-15.67a7.06,7.06,0,0,1-.71-3.12l-.2-28c-.09-12.62,30.28-19.66,58.9-19.86s59.09,6.4,59.18,19l.2,27.74C268.52,215.45,238.15,222.48,209.53,222.68Zm-.44-61.89c-22.68.16-54.26,6-54.2,15.09l.2,28a2.44,2.44,0,0,0,.23,1.08c3,6.45,24.55,13.21,54.17,13,22.68-.16,54.26-6,54.2-15.09l-.2-27.74C263.45,169,242.73,160.55,209.09,160.79Z"/><path class="cls-3" d="M209.33,194.94c-28.62.2-59.09-6.4-59.18-19s30.28-19.66,58.9-19.86,59.09,6.4,59.18,19S238,194.74,209.33,194.94Zm-.24-34.15c-33.65.24-54.24,9-54.2,15.09s20.76,14.56,54.4,14.32,54.24-8.95,54.2-15.09S242.73,160.55,209.09,160.79Z"/><path class="cls-3" d="M209.2,253c-30,0-54-6.61-58.35-16.08a7,7,0,0,1-.69-3.12V200.34l4.74,5.51v28a2.39,2.39,0,0,0,.23,1.07c3,6.48,24.45,13.39,54.07,13.39,22.68,0,54.31-5.59,54.31-14.7V206.08l4.74-5.39v32.9C268.25,246.22,237.83,253,209.2,253Z"/></svg>
