<svg id="Layer_1" data-name="Layer 1" xmlns="http://www.w3.org/2000/svg" viewBox="13.29 30.29 253.73 220.13"><defs><style>.cls-1,.cls-6{fill:#57d1e5;}.cls-1,.cls-4,.cls-5{stroke:#3b2d55;}.cls-1,.cls-10,.cls-11,.cls-4,.cls-5,.cls-7{stroke-linecap:round;stroke-linejoin:round;}.cls-1,.cls-4{stroke-width:3.89px;}.cls-2{fill:#5fc8de;}.cls-3{fill:#3b2d55;}.cls-4,.cls-5{fill:#fff;}.cls-5{stroke-width:3.24px;}.cls-7{fill:#7772af;stroke-width:3.57px;}.cls-10,.cls-11,.cls-7{stroke:#392c54;}.cls-8{fill:#eaeae9;}.cls-9{fill:#392c54;}.cls-10{fill:#fab533;}.cls-10,.cls-11{stroke-width:3.88px;}.cls-11{fill:#b03831;}</style></defs><title>scylla-docs</title><path class="cls-1" d="M63.5,229.6A12,12,0,0,1,40,234.14S18,131.2,18,110.12C18,66.08,53,35,102.22,35s84.19,31.08,84.19,75.12c0,21.08-21.94,124-21.94,124a12,12,0,0,1-23.53-4.54"/><path class="cls-2" d="M159.06,200.1l-6,33.54a12,12,0,0,1-23.7-3.54"/><path class="cls-3" d="M160.34,200.33,159,209.11l-1.39,8.77-1.43,8.76-.73,4.38a43.35,43.35,0,0,1-.88,4.58,13.92,13.92,0,0,1-24.69,4.07,14.05,14.05,0,0,1-2.46-9.8,1.94,1.94,0,0,1,3.86.46,10,10,0,0,0,1.89,7,9.87,9.87,0,0,0,6,3.93,10.06,10.06,0,0,0,7.12-1.13,9.92,9.92,0,0,0,4.52-5.65c.32-1.09.58-2.7.86-4.12l.84-4.36,1.68-8.71,1.73-8.71,1.81-8.69a1.3,1.3,0,0,1,2.55.45Z"/><circle class="cls-4" cx="73.73" cy="102.35" r="37.56"/><path class="cls-3" d="M81.5,77.74C75,79,73.73,93.28,77.61,97.17c2.55,2.55,7.77,3.4,7.77,5.18s-5.22,2.63-7.77,5.18C73.73,111.42,75,125.66,81.5,127c7.72,1.54,19.42-7.77,19.42-24.61S89.22,76.2,81.5,77.74Z"/><path class="cls-5" d="M55.59,152.86c1.3,3.89,5.18,10.36,10.36,9.07,2.52-.63,3.89-3.89,3.89-9.07"/><path class="cls-4" d="M89.27,150.27c1.29,5.18,2.59,9.07,6.47,9.07s9.07-5.18,7.77-14.25"/><path class="cls-3" d="M48.06,150a99.75,99.75,0,0,0,71.19-16.83,1.94,1.94,0,0,1,2.22,3.19h0a103.33,103.33,0,0,1-73.87,16.84,1.62,1.62,0,0,1,.48-3.21Z"/><path class="cls-3" d="M122.16,139.29a8.29,8.29,0,0,0-2.62-4.55,7.92,7.92,0,0,0-4.64-2,1.95,1.95,0,1,1,.29-3.88l.21,0h0a11.55,11.55,0,0,1,6.39,3.53,11.23,11.23,0,0,1,2.89,6.48,1.3,1.3,0,0,1-2.56.38Z"/><path class="cls-6" d="M75.06,230.1a12,12,0,0,1-23.7,3.54l-6-33.54"/><path class="cls-3" d="M77,229.87a13.94,13.94,0,0,1-10.93,15.37,13.83,13.83,0,0,1-10-1.67,14.11,14.11,0,0,1-6.22-8A41.52,41.52,0,0,1,49,231l-.73-4.38-1.43-8.76-1.39-8.77-1.31-8.78a1.28,1.28,0,0,1,1.09-1.47,1.3,1.3,0,0,1,1.46,1l1.8,8.69,1.74,8.71L51.87,226l.84,4.36c.28,1.42.53,3,.86,4.11a10.15,10.15,0,0,0,4.53,5.66,10.07,10.07,0,0,0,15-9.79h0a1.94,1.94,0,0,1,3.86-.45Z"/><path class="cls-6" d="M92.36,230.87a12,12,0,0,1-23.88,2L64.7,199.27"/><path class="cls-3" d="M94.3,230.77a13.91,13.91,0,0,1-11.83,14.61,13.85,13.85,0,0,1-9.85-2.24,14,14,0,0,1-5.74-8.26,36.65,36.65,0,0,1-.61-4.64l-.44-4.4L65,217l-.82-8.81-.73-8.82a1.29,1.29,0,0,1,2.57-.29l1.24,8.76,1.16,8.77,1.12,8.78.55,4.38a38,38,0,0,0,.61,4.12,10,10,0,0,0,19.75-3h0a1.94,1.94,0,0,1,3.88-.2Z"/><path class="cls-6" d="M139.73,199.27,136,232.86a12,12,0,0,1-23.88-2"/><path class="cls-3" d="M141,199.41l-.74,8.82-.81,8.81-.86,8.8-.44,4.4a38,38,0,0,1-.6,4.63,13.92,13.92,0,0,1-24.36,5.49,14.06,14.06,0,0,1-3.07-9.59,1.94,1.94,0,0,1,3.88.2,10.1,10.1,0,0,0,2.32,6.84,9.9,9.9,0,0,0,6.24,3.54,10.06,10.06,0,0,0,7-1.54,9.92,9.92,0,0,0,4.18-5.87c.27-1.1.41-2.68.6-4.13l.55-4.38,1.11-8.78,1.17-8.77,1.24-8.76a1.29,1.29,0,0,1,2.57.29Z"/><path class="cls-6" d="M115.17,198.19l-1,33.68a12,12,0,0,1-24,0l-1-33.68"/><path class="cls-3" d="M116.47,198.23c0,8.7,0,17.39-.21,26.08l-.11,6.52a17.25,17.25,0,0,1-.31,3.59,13.34,13.34,0,0,1-1.27,3.57,14,14,0,0,1-12.35,7.55,13.34,13.34,0,0,1-3.76-.53A13,13,0,0,1,95,243.48,14.05,14.05,0,0,1,89.87,238a14.42,14.42,0,0,1-1.28-3.56,18,18,0,0,1-.31-3.59l-.11-6.52c-.16-8.7-.21-17.39-.2-26.09a1.3,1.3,0,0,1,2.59-.07q.78,13,1.31,26.05l.27,6.51a16.18,16.18,0,0,0,.28,2.89,10.17,10.17,0,0,0,4.65,6.44,9.49,9.49,0,0,0,2.48,1,9.29,9.29,0,0,0,2.67.35,9.94,9.94,0,0,0,8.86-5.29,9.2,9.2,0,0,0,.94-2.55,15.16,15.16,0,0,0,.29-2.89l.27-6.51c.34-8.69.79-17.37,1.3-26.05a1.29,1.29,0,0,1,1.37-1.22A1.31,1.31,0,0,1,116.47,198.23Z"/><rect class="cls-7" x="97.35" y="157.86" width="138.67" height="38.63" transform="translate(343.86 10.5) rotate(90)"/><rect class="cls-8" x="129.75" y="150.81" width="73.85" height="18.39" transform="translate(326.68 -6.68) rotate(90)"/><circle class="cls-9" cx="166.68" cy="225.86" r="7.8"/><rect class="cls-10" x="135.92" y="157.86" width="138.67" height="38.63" transform="translate(382.43 -28.07) rotate(90)"/><rect class="cls-8" x="168.33" y="150.81" width="73.85" height="18.39" transform="translate(365.25 -45.25) rotate(90)"/><circle class="cls-9" cx="205.25" cy="225.86" r="7.8"/><rect class="cls-11" x="174.49" y="157.86" width="138.67" height="38.63" transform="translate(421 -66.64) rotate(90)"/><rect class="cls-8" x="206.9" y="150.81" width="73.85" height="18.39" transform="translate(403.82 -83.82) rotate(90)"/><circle class="cls-9" cx="243.82" cy="225.86" r="7.8"/><path class="cls-9" d="M146.57,106.25l-10.19,6a1.56,1.56,0,0,0-.76,1.33V242.43a1.54,1.54,0,0,0,.94,1.42l10.08,4.3Z"/></svg>
