<?xml version="1.0" encoding="UTF-8"?> <svg xmlns="http://www.w3.org/2000/svg" version="1.1" viewBox="0 0 1200 300"><defs><style> .cls-1 { fill: #fff; } .cls-2 { fill: #57d1e5; } .cls-3 { fill: #3b2d55; } .cls-4 { fill: #4d9bb6; } .cls-5 { fill: #93e1ef; } </style></defs><g><g id="Layer_1"><g id="Layer_1-2" data-name="Layer_1"><g><g><path class="cls-3" d="M314.6,203c4.3,6.4,9.7,11.1,16.3,14.1,6.6,3,13.5,4.5,20.5,4.5s7.9-.6,12-1.8,7.8-3.1,11.2-5.5c3.4-2.5,6.1-5.5,8.2-9.1s3.2-7.8,3.2-12.5-2.1-11.8-6.4-15.4c-4.3-3.5-9.5-6.5-15.8-8.8-6.3-2.4-13.2-4.7-20.6-6.9-7.5-2.2-14.3-5.3-20.6-9.2-6.3-3.9-11.6-9.2-15.8-15.8-4.3-6.6-6.4-15.6-6.4-26.9s1.1-10.5,3.3-16.2c2.2-5.7,5.7-11,10.4-15.7,4.7-4.7,10.8-8.7,18.3-11.9,7.5-3.2,16.4-4.8,26.9-4.8s18.6,1.3,27.3,3.9c8.7,2.6,16.3,7.9,22.8,16l-19.2,17.4c-2.9-4.6-7.1-8.3-12.5-11.1-5.4-2.8-11.5-4.2-18.4-4.2s-12,.9-16.3,2.6-7.8,3.9-10.4,6.6-4.5,5.6-5.5,8.7c-1.1,3.1-1.6,6-1.6,8.6,0,7.4,2.1,13,6.4,16.9,4.3,3.9,9.5,7.1,15.8,9.6s13.2,4.7,20.6,6.6c7.5,2,14.3,4.7,20.6,8.2,6.3,3.5,11.6,8.3,15.8,14.2,4.3,6,6.4,14.2,6.4,24.7s-1.6,15.9-4.8,22.6c-3.2,6.7-7.5,12.4-12.9,16.9-5.4,4.6-11.8,8.1-19.2,10.6-7.4,2.5-15.2,3.7-23.6,3.7s-21.7-2-31.7-5.9-17.9-10-23.8-18.2l19.4-16.7v.2Z"></path><path class="cls-3" d="M519,153.9c-4.1-4.3-8.4-7.5-12.9-9.7s-9.9-3.3-16.1-3.3-11.3,1.1-15.8,3.3-8.3,5.2-11.3,9.1c-3,3.8-5.3,8.3-6.9,13.3s-2.3,10.2-2.3,15.6.9,10.5,2.7,15.4c1.8,4.8,4.3,9.1,7.6,12.7,3.3,3.6,7.2,6.4,11.8,8.5,4.6,2,9.7,3.1,15.5,3.1s11.5-1.1,16-3.3c4.4-2.2,8.5-5.4,12.3-9.7l15.7,15.7c-5.7,6.4-12.4,11-20,13.8-7.6,2.8-15.7,4.2-24.2,4.2s-17.2-1.5-24.7-4.4-13.9-7.1-19.3-12.4c-5.4-5.3-9.6-11.7-12.5-19.2-2.9-7.4-4.4-15.7-4.4-24.7s1.5-17.3,4.4-24.8,7.1-14,12.4-19.4,11.7-9.6,19.2-12.7c7.5-3,15.8-4.5,24.9-4.5s16.7,1.5,24.4,4.5c7.8,3,14.5,7.7,20.3,13.9l-16.7,15.2v-.2Z"></path><path class="cls-3" d="M543.8,123h25.5l34.5,90.9h.5l33.1-90.9h23.6l-55.3,141.5c-2,5.1-4,9.7-6.1,13.9-2.1,4.2-4.6,7.7-7.6,10.7-2.9,2.9-6.5,5.2-10.6,6.9-4.2,1.6-9.3,2.5-15.3,2.5s-6.6-.2-9.9-.6c-3.3-.4-6.6-1.3-9.7-2.6l2.7-20.1c4.4,1.8,8.8,2.7,13.2,2.7s6.3-.5,8.7-1.4,4.4-2.2,6.1-3.9c1.7-1.7,3.1-3.7,4.3-6,1.1-2.3,2.3-4.9,3.4-7.9l7.2-18.4-48.2-117.2h-.1Z"></path><path class="cls-3" d="M677.4,53.7h22.1v185.7h-22.1V53.7Z"></path><path class="cls-3" d="M723.5,53.7h22.1v185.7h-22.1V53.7Z"></path><path class="cls-3" d="M776.6,137.2c6.2-5.7,13.4-10,21.6-12.9,8.2-2.9,16.4-4.3,24.6-4.3s15.8,1.1,22,3.2c6.1,2.1,11.2,5,15.1,8.6,3.9,3.6,6.8,7.7,8.7,12.4s2.8,9.5,2.8,14.6v59.4c0,4.1,0,7.9.2,11.3.2,3.4.4,6.7.7,9.8h-19.7c-.5-5.9-.7-11.8-.7-17.7h-.5c-4.9,7.5-10.7,12.9-17.4,16s-14.5,4.7-23.3,4.7-10.6-.7-15.5-2.2-9.2-3.7-12.9-6.6c-3.7-2.9-6.6-6.6-8.7-10.9-2.1-4.3-3.2-9.4-3.2-15.1s1.7-13.8,5-18.9c3.4-5.1,7.9-9.2,13.8-12.4,5.8-3.2,12.6-5.5,20.4-6.9,7.8-1.4,16.1-2.1,24.9-2.1h16.2v-4.9c0-2.9-.6-5.9-1.7-8.8-1.1-2.9-2.9-5.6-5.2-8s-5.2-4.3-8.6-5.6c-3.4-1.4-7.5-2.1-12.3-2.1s-8,.4-11.2,1.2-6.1,1.8-8.7,3.1c-2.6,1.2-5,2.7-7.1,4.3s-4.2,3.2-6.1,4.7l-13.3-13.8h.1ZM839,183.4c-5.2,0-10.6.3-16.1.9-5.5.6-10.5,1.7-15,3.3s-8.2,3.9-11.1,6.9c-2.9,2.9-4.3,6.7-4.3,11.3,0,6.7,2.2,11.5,6.8,14.5,4.5,2.9,10.6,4.4,18.3,4.4s11.2-1,15.5-3.1c4.3-2,7.7-4.7,10.3-8s4.5-6.9,5.6-10.9,1.7-8,1.7-11.9v-7.4h-11.8,0Z"></path><path class="cls-3" d="M900.6,65.5h60.7c12.3,0,23,1.4,32.3,4.2,9.3,2.8,17.3,6.5,24.1,11.2,6.8,4.7,12.4,10,16.9,16.1s8.1,12.3,10.7,18.7,4.5,12.8,5.6,19.2,1.7,12.3,1.7,17.7c0,11.1-2.1,21.9-6.1,32.3-4.1,10.4-10.2,19.7-18.2,27.8s-18,14.6-29.8,19.5c-11.9,4.9-25.6,7.4-41.1,7.4h-56.7V65.5h0ZM924.2,217.3h29.7c10,0,19.4-1.4,28.4-4.1,8.9-2.7,16.7-6.8,23.5-12.2,6.7-5.4,12-12.2,16-20.3,3.9-8.1,5.9-17.6,5.9-28.4s-.9-12.1-2.7-19.5c-1.8-7.4-5.2-14.5-10.2-21.2s-11.9-12.4-20.8-17.1c-8.8-4.7-20.3-7-34.4-7h-35.4v129.7h0Z"></path><path class="cls-3" d="M1079.1,65.5h60.4c7.5,0,14.5.9,21,2.7,6.5,1.8,12,4.5,16.7,8s8.4,8,11.1,13.5,4.1,11.9,4.1,19.3-2.8,18.1-8.4,24.4c-5.6,6.3-12.8,10.9-21.6,13.9v.5c5.2.3,10.2,1.7,14.7,4.1,4.6,2.4,8.6,5.5,11.9,9.3,3.4,3.8,6,8.3,8,13.4,2,5.1,2.9,10.6,2.9,16.5s-1.6,14.8-4.8,20.8c-3.2,6-7.6,11-13.1,15.1-5.6,4.1-12,7.2-19.4,9.3s-15.3,3.2-23.8,3.2h-59.7V65.5h0ZM1102.7,137.7h32.2c4.4,0,8.6-.4,12.5-1.4,3.9-.9,7.4-2.4,10.3-4.5s5.3-4.8,7-8.1c1.7-3.3,2.6-7.3,2.6-12,0-6.9-2.2-12.9-6.6-17.9-4.4-5.1-11.4-7.6-20.9-7.6h-37.1v51.6h0ZM1102.7,218.8h34.6c3.6,0,7.6-.4,11.9-1.1,4.3-.7,8.4-2.2,12.2-4.4,3.8-2.2,7-5.2,9.6-9s3.9-8.8,3.9-15c0-10.3-3.4-18.1-10.1-23.2-6.7-5.2-15.8-7.7-27.3-7.7h-34.9v60.4h.1Z"></path></g><g><g><path class="cls-2" d="M112.5,3C46.3,3,0,44.2,0,103.2s10,70.1,18.4,112.4c6,30.5,11.3,55.1,11.4,55.6,1.7,7.5,8.9,12.3,16.5,11.1l1.6-.2-1.1-1.1c-2.1-2.2-3.7-4.8-4.6-7.6-.5-1.6-.7-3-.9-4.3,0-.6-.2-1.2-.3-1.8l-2.9-17.8c-1.3-8.1-2.5-16.1-3.7-23.8,0-.5.3-1,.8-1.1.5,0,1,.3,1.1.7,1.6,7.6,3.2,15.6,4.8,23.6l3.4,17.8c0,.6.2,1.1.3,1.7.3,1.4.5,2.9.9,3.9.9,3,2.9,5.7,5.6,7.6.3.2.6.4.9.6,1.5.9,3.2,1.5,4.9,1.8,1.8.3,3.6.2,5.3-.1,1.9-.4,3.8-1.2,5.4-2.4l.6-.5-.5-.7c-1.3-1.9-2.2-3.9-2.8-6.1-.4-1.7-.5-3.1-.6-4.5,0-.6,0-1.2-.2-1.7l-1.8-17.9c-.8-8.2-1.5-16.2-2.1-23.9,0-.3,0-.5.2-.7s.4-.3.6-.3c.5,0,.9.3,1,.8,1.1,7.6,2.2,15.6,3.3,23.8l2.3,17.9c0,.5,0,1.1.2,1.7.2,1.5.4,2.9.6,4,.3,1.3.9,2.6,1.6,3.8,1,1.7,2.4,3.2,4.1,4.4h0c0,.2.2.2.3.3,2.9,1.9,6.6,2.8,10.1,2.2,3.5-.5,6.7-2.4,9-5.1.6-.7,1.1-1.4,1.5-2.2l.2-.3v-.3c-.4-.8-.6-1.6-.8-2.5-.3-1.2-.4-2.8-.4-4.7v-8.9c-.3-11.2-.4-22.8-.4-35.4s.4-.9.9-.9.9.4.9.9c.8,12.6,1.3,24.2,1.8,35.4l.4,8.8c0,1.6,0,2.8.4,4.1.3,1,.7,2.4,1.4,3.6,0,0,0,.1.2.3,2.5,4.5,7.3,7.4,12.4,7.4h.2c5,.1,10.1-2.8,12.6-7.4,0,0,0-.1,0-.2.6-1,1-2.2,1.4-3.7.3-1.2.3-2.4.4-3.9l.4-9c.4-10.6,1-22.1,1.8-35.4,0-.5.5-.9,1-.9s.9.4.9.9c0,13.2,0,24.8-.3,35.4v8.9c-.2,1.2-.2,3.1-.5,4.7-.2.9-.4,1.7-.7,2.5v.3c-.1,0,0,.3,0,.3.4.8.9,1.5,1.5,2.2,2.3,2.8,5.5,4.6,9,5.1s7.2-.3,10.1-2.2c0,0,.2-.1.3-.2h.1c1.6-1.2,3-2.8,4.1-4.5.7-1.2,1.2-2.5,1.6-3.8.3-1.1.5-2.6.6-4.1,0-.5.1-1.1.2-1.6l2.3-17.9c1.1-8.1,2.2-16.2,3.3-23.8,0-.3.2-.5.4-.6.2-.2.5-.2.7-.2.5,0,.8.5.8,1-.6,7.7-1.3,15.7-2.1,23.9l-1.8,17.9c0,.6-.1,1.1-.2,1.7-.1,1.4-.3,2.8-.6,4.5-.5,2.2-1.4,4.2-2.7,6.1l-.5.7.6.5c1.7,1.2,3.5,2,5.4,2.4,1.7.4,3.5.4,5.3.1s3.4-.9,5-1.8c.3-.2.6-.4.9-.6,2.7-1.8,4.7-4.5,5.6-7.6.3-1.1.6-2.6.9-4,.1-.6.2-1.1.3-1.7l3.4-17.8c1.6-8.1,3.2-16,4.8-23.6.1-.5.6-.8,1.1-.7s.8.6.7,1.1c-1.1,7.7-2.4,15.7-3.7,23.8l-2.9,17.8c-.1.6-.2,1.2-.3,1.8-.2,1.3-.4,2.7-.9,4.3-.8,2.8-2.4,5.4-4.5,7.6l-1,1,1.4.3h0c.8.1,1.6.2,2.4.2,6.6,0,12.6-4.6,14.1-11.3.1-.6,5.5-26.1,11.7-57.3,8.3-42.1,18-94.6,18-110.7,0-59-46.3-100.2-112.5-100.2h0Z"></path><path class="cls-3" d="M206.7,215.5c-6.2,31.6-11.4,55.3-11.5,55.7-1.4,6.4-7.5,11-14,11s-1.5,0-2.3-.2l-.8-.2.5-.6c2.2-2.2,3.8-4.9,4.6-7.7.5-1.6.7-3,.9-4.4v-.2c.1-.5.2-1,.3-1.6l2.9-17.8c1.3-8.1,2.5-16.1,3.7-23.8.1-.7-.4-1.3-1-1.5-.4,0-.7,0-1,.2s-.5.5-.6.8c-1.6,7.5-3.2,15.5-4.8,23.6l-3.4,17.7c0,.4-.2.8-.2,1.2v.5c-.4,1.4-.6,2.8-1,3.9-.9,3-2.8,5.6-5.5,7.4-.3.2-.6.4-.9.6-1.5.9-3.1,1.4-4.8,1.7-1.7.3-3.4.2-5.1-.1-1.9-.4-3.7-1.2-5.3-2.4l-.3-.2.2-.3c1.3-1.9,2.3-4,2.8-6.2.4-1.7.5-3.1.6-4.5,0-.6.1-1.1.2-1.7l1.8-17.9c.8-8.3,1.5-16.4,2.1-23.9,0-.7-.4-1.3-1.1-1.4-.4,0-.7,0-1,.3-.3.2-.5.5-.5.9-1.1,7.6-2.2,15.6-3.3,23.8l-2.3,17.9c0,.5-.1,1.1-.2,1.7-.2,1.5-.4,2.9-.6,4-.3,1.3-.8,2.5-1.5,3.7-1,1.7-2.4,3.2-4,4.3h-.1c0,.2-.2.2-.3.3-2.8,1.9-6.4,2.7-9.8,2.2-3.4-.5-6.6-2.3-8.7-5-.5-.6-1-1.3-1.4-2.1v-.4c.3-.8.5-1.6.7-2.5.4-1.7.4-3.6.4-4.8v-8.9c.3-10.5.4-22,.4-35.4s-.6-1.3-1.3-1.3-1.4.5-1.4,1.2c-.8,13.1-1.3,24.7-1.8,35.4l-.4,9c0,1.5,0,2.6-.4,3.8-.3,1.4-.8,2.6-1.3,3.6v.2c-2.5,4.3-7.3,7.2-12.2,7.2s-.2,0-.3,0h-.2c-4.9,0-9.6-2.8-12-7.2,0-.1,0-.2-.2-.2-.7-1.2-1.1-2.5-1.3-3.5-.3-1.3-.3-2.4-.4-4l-.4-8.8c-.4-11.1-1-22.7-1.8-35.4,0-.7-.6-1.2-1.3-1.2s-1.3.6-1.3,1.3c0,12.7,0,24.2.3,35.4v8.9c0,2,.3,3.5.6,4.8.2.9.4,1.7.7,2.5v.4c-.4.7-.9,1.5-1.5,2.1-2.2,2.7-5.4,4.5-8.7,5-3.4.5-7-.3-9.8-2.2,0,0,0-.1-.3-.2h0c-1.6-1.2-3-2.7-3.9-4.4-.7-1.2-1.2-2.4-1.5-3.7-.3-1.1-.4-2.5-.6-4,0-.5,0-1.1-.2-1.6l-2.3-17.9c-1.1-8.3-2.2-16.3-3.3-23.8,0-.7-.7-1.2-1.4-1.1-.4,0-.7.2-.9.5s-.3.6-.3,1c.6,7.7,1.3,15.8,2.1,23.9l1.8,17.9c0,.6,0,1.1.2,1.7,0,1.4.3,2.8.6,4.5.5,2.2,1.5,4.3,2.8,6.2l.2.3-.3.3c-1.6,1.2-3.4,2-5.3,2.4-1.7.4-3.4.4-5.2.1-1.7-.3-3.3-.9-4.8-1.7-.3-.2-.6-.4-.9-.6-2.6-1.8-4.6-4.4-5.5-7.4-.3-1-.6-2.4-.8-3.8v-.2c0-.5-.2-1.1-.4-1.6l-3.4-17.8c-1.6-8.1-3.2-16-4.8-23.6,0-.7-.8-1.1-1.5-1s-1.2.8-1.1,1.5c1.1,7.7,2.4,15.8,3.7,23.8l2.9,17.8c0,.5.2,1.1.3,1.6v.2c.2,1.3.5,2.7.9,4.4.8,2.8,2.5,5.5,4.6,7.7l.6.6h-.8c-7.4,1.4-14.4-3.4-16.1-10.7-.6-2.6-6-26.3-11.8-55.6,0,0,8.4,56.3,8.4,56.5.1.5.2,1,.4,1.5l.2.5c.1.3.2.6.4.9,0,.2.2.4.3.6.1.2.2.5.4.7h0c.1.3.2.5.3.7,0,.1.1.2.2.3h0c.4.7.8,1.3,1.2,1.8h0c.2.4.5.6.8,1h.1c.3.4.5.7.8,1h0c3.3,3,7.4,4.7,11.8,4.7s1.9,0,2.9-.2l6.5-1c1.1.4,2.2.7,3.4.9,2.1.3,4.3.3,6.4-.2,2.3-.5,4.6-1.5,6.6-3l1.6-1.1c.5.4,1,.8,1.5,1.2h0c0,.2.3.3.4.4,3.5,2.3,8,3.3,12.2,2.7,4.2-.6,8.2-2.9,10.9-6.2.5-.6.9-1.2,1.4-1.9,3.1,5,8.8,8.2,14.6,8.2h.5c5.8,0,11.5-3.2,14.6-8.2.4.7.9,1.3,1.4,1.9,2.7,3.3,6.7,5.6,10.9,6.2.8.1,1.7.2,2.5.2,3.4,0,6.9-1,9.7-2.9.1,0,.3-.2.4-.3h0c.5-.4,1-.8,1.5-1.3l1.6,1.1c2,1.5,4.3,2.5,6.6,2.9,2.1.4,4.3.5,6.4.1,1.5-.2,2.9-.6,4.2-1.2l5.5,1.3h.2c.9.2,1.9.3,2.8.3,8.1,0,15.3-5.8,17-13.7,0-.3,8.5-56.4,8.5-56.4l.3-.4Z"></path></g><path class="cls-5" d="M32.2,30.3C11.9,48,0,73.3,0,103.2s29.2,166.6,29.5,168c.7,3,2.8,5.3,4.9,7.2C27.1,243.5,3.5,130.4,3.5,104.1S14,49.3,32.2,30.3"></path><g><path class="cls-4" d="M82.4,46.2c-27,0-48.9,22-48.9,48.9s22,48.9,48.9,48.9,48.9-22,48.9-48.9-22-48.9-48.9-48.9"></path><path class="cls-1" d="M28.6,91.2c0,27,22,48.9,48.9,48.9s48.9-22,48.9-48.9-22-48.9-48.9-48.9-48.9,22-48.9,48.9"></path><path class="cls-3" d="M110.9,92c-.7,20.6-15.4,31.4-24.8,29.2-7.8-1.9-8.8-19.3-3.9-23.9,3.2-3,9.6-3.8,9.7-6,0-2.2-6.3-3.4-9.3-6.7-4.6-4.9-2.4-22.2,5.6-23.5,9.5-1.6,23.4,10.3,22.7,30.9"></path><g><path class="cls-4" d="M47.4,160.3c29.8,4.3,61-3.1,85.5-20.4,3.4-2.3,6.9,2.7,3.6,5.1-13,8.9-27.7,15.3-43.1,18.8-15.3,3.5-31.3,4-46.8,1.6-1.4-.2-2.4-1.6-2.2-3s1.5-2.4,2.9-2.2"></path><path class="cls-4" d="M136.4,148.1c-.8-4-4.4-7-8.4-7.2-4.1-.3-3.9-6.4.3-6.3,3.4.4,6.5,2.2,8.7,4.7,1.9,1.8,6,9.9,1.6,10.5-1.1,0-2-.6-2.2-1.7"></path></g><path class="cls-3" d="M46.4,158.1c29.8,4.3,61-3.1,85.5-20.4,3.4-2.3,6.9,2.7,3.6,5.1-13,8.9-27.7,15.3-43.1,18.8-15.3,3.5-31.3,4-46.8,1.6-1.4-.2-2.4-1.6-2.2-3s1.5-2.4,2.9-2.2"></path><path class="cls-3" d="M135.4,145.9c-.8-4-4.4-7-8.4-7.2-4.1-.3-3.9-6.4.3-6.3,3.4.4,6.5,2.2,8.7,4.7,1.9,1.8,6,9.9,1.6,10.5-1.1,0-2-.6-2.2-1.7"></path></g></g></g></g></g></g></svg> 