<svg id="Calque_1" data-name="Calque 1" xmlns="http://www.w3.org/2000/svg" viewBox="0 0 25 25"><defs><style>.cls-1{fill:none;stroke:gray;stroke-linecap:round;stroke-linejoin:round;}</style></defs><title>icon-news</title><path class="cls-1" d="M3,15.17,16.31,3.82a1.48,1.48,0,0,1,2.22.46l5.15,9.65a1.46,1.46,0,0,1-.93,2.12L5.69,19.9Z"/><path class="cls-1" d="M8.71,19.33l.76,2.22a1.51,1.51,0,0,0,1.85,1l3.58-1.06a1.5,1.5,0,0,0,1-1.86L15.45,18"/><path class="cls-1" d="M5.54,20,3.71,21a.92.92,0,0,1-1.25-.37L.61,17.49A.92.92,0,0,1,1,16.24l1.83-1"/><line class="cls-1" x1="8.5" y1="14" x2="15.88" y2="8.5"/></svg>
