<?xml version="1.0" encoding="utf-8"?>
<!-- Generator: Adobe Illustrator 27.5.0, SVG Export Plug-In . SVG Version: 6.00 Build 0)  -->
<svg version="1.1" id="Layer_2_00000016768066019263232770000005475809511828666036_"
	 xmlns="http://www.w3.org/2000/svg" xmlns:xlink="http://www.w3.org/1999/xlink" x="0px" y="0px" viewBox="0 0 43 31"
	 style="enable-background:new 0 0 43 31;" xml:space="preserve">
<style type="text/css">
	.st0{fill:none;stroke:#1D1D1B;stroke-linecap:round;stroke-linejoin:round;}
</style>
<g id="Layer_3">
	<polyline class="st0" points="29.6,9.5 33.6,7.5 40.5,11.6 40.5,27.5 42.5,27.5 	"/>
	<line class="st0" x1="33.6" y1="27.5" x2="33.6" y2="7.6"/>
	<polyline class="st0" points="14.6,27.5 14.6,4.8 22.5,0.5 29.6,5 29.6,27.5 	"/>
	<line class="st0" x1="22.5" y1="27.5" x2="22.5" y2="1"/>
	<line class="st0" x1="24.5" y1="5.6" x2="27.5" y2="7.6"/>
	<line class="st0" x1="24.5" y1="9.6" x2="27.5" y2="11.6"/>
	<line class="st0" x1="24.5" y1="13.6" x2="27.5" y2="15.6"/>
	<line class="st0" x1="24.5" y1="17.5" x2="27.5" y2="19.5"/>
	<line class="st0" x1="24.5" y1="21.5" x2="27.5" y2="23.5"/>
	<line class="st0" x1="35.4" y1="11.6" x2="38.4" y2="13.6"/>
	<line class="st0" x1="35.4" y1="15.6" x2="38.4" y2="17.5"/>
	<line class="st0" x1="35.4" y1="19.5" x2="38.4" y2="21.5"/>
	<line class="st0" x1="35.4" y1="23.5" x2="38.4" y2="25.4"/>
	<line class="st0" x1="18.5" y1="5.8" x2="18.5" y2="27.5"/>
	<polyline class="st0" points="14.6,9.7 10.5,7.2 2.5,11.6 2.5,27.5 0.5,27.5 	"/>
	<line class="st0" x1="10.5" y1="27.5" x2="10.5" y2="7.2"/>
	<line class="st0" x1="12.5" y1="11.6" x2="14.5" y2="12.6"/>
	<line class="st0" x1="12.5" y1="15.6" x2="14.5" y2="16.5"/>
	<line class="st0" x1="12.5" y1="19.5" x2="14.5" y2="20.5"/>
	<line class="st0" x1="12.5" y1="23.5" x2="14.6" y2="24.5"/>
	<line class="st0" x1="6.4" y1="12.4" x2="6.4" y2="27.5"/>
	<line class="st0" x1="0.5" y1="30.5" x2="42.5" y2="30.5"/>
</g>
</svg>
