<svg xmlns="http://www.w3.org/2000/svg" viewBox="0 0 25 25"><defs><style>.cls-1{fill:none;stroke:#4d4d4d;stroke-linecap:round;stroke-linejoin:round;}</style></defs><g id="Calque_4" data-name="Calque 4"><path class="cls-1" d="M14.56,12.7l-1.25-1.57L12,11.89a6,6,0,0,0-1.65-1l.08-1.49-2-.4-.53,1.44a5.73,5.73,0,0,0-1.87.31L5.15,9.56l-1.77,1L3.92,12A6.3,6.3,0,0,0,2.7,13.41l-1.5-.35L.46,14.93l1.38.8a6.23,6.23,0,0,0,0,1.83l-1.41.72.64,1.91,1.59-.28a7.63,7.63,0,0,0,.48.68,5.86,5.86,0,0,0,.67.73l-.62,1.46,1.72,1,1-1.24a6.46,6.46,0,0,0,1.79.35l.46,1.52,2-.3v-1.6a6.43,6.43,0,0,0,1.62-.89l1.3.85L14.43,21l-1-1.2a6.24,6.24,0,0,0,.68-1.75l1.51-.19.05-2-1.51-.26a6.07,6.07,0,0,0-.62-1.81ZM9.21,18.21a1.93,1.93,0,1,1,.31-2.71A1.92,1.92,0,0,1,9.21,18.21Z"/><path class="cls-1" d="M24.31,8.05,24.18,6.4l-1.25-.09a5.26,5.26,0,0,0-.67-1.44l.75-1L21.85,2.7l-1,.74a5.18,5.18,0,0,0-1.43-.66l-.06-1.24-1.65-.17-.32,1.25A5.77,5.77,0,0,0,15.87,3L15,2.1,13.63,3l.58,1.18a4.88,4.88,0,0,0-.86,1.25l-1.3-.16-.45,1.6,1.22.55a5.17,5.17,0,0,0,0,.68A4.28,4.28,0,0,0,13,9l-1.11.72.69,1.51,1.28-.37a4.94,4.94,0,0,0,1.07,1.07l-.39,1.26,1.5.71.74-1.09a5.07,5.07,0,0,0,1.52.14l.5,1.19,1.61-.41-.13-1.29a5.14,5.14,0,0,0,1.27-.88l1.12.57,1-1.35-.91-.88a4.9,4.9,0,0,0,.42-1.52Zm-6.2,1.43a1.74,1.74,0,1,1,1.6-1.86A1.74,1.74,0,0,1,18.11,9.48Z"/></g></svg>
