<svg xmlns="http://www.w3.org/2000/svg" viewBox="0 0 25 25"><defs><style>.cls-1,.cls-2{fill:none;stroke:gray;}.cls-1{stroke-linecap:round;stroke-linejoin:round;}.cls-2{stroke-miterlimit:10;}</style></defs><title>icon-tech-talks</title><g id="Calque_4" data-name="Calque 4"><polyline class="cls-1" points="8.39 4.5 23.5 4.5 23.5 17.5 8.5 17.5"/><circle class="cls-2" cx="4.5" cy="6.5" r="2"/><path class="cls-1" d="M1.5,9.5h2l.8.86L5,9.5c1,0,5.58,0,5.58,0a1,1,0,1,1,0,2H6.5V22.38a1,1,0,0,1-1,1.12,1,1,0,0,1-1-1,1,1,0,0,1-1,1,.93.93,0,0,1-1-1v-6c-.78,0-2-.47-2-1v-5A1,1,0,0,1,1.5,9.5Z"/></g></svg>
