<svg xmlns="http://www.w3.org/2000/svg" viewBox="0 0 25 25"><defs><style>.cls-1,.cls-2,.cls-4{fill:none;}.cls-1,.cls-2,.cls-3,.cls-4{stroke:gray;}.cls-1,.cls-2,.cls-3{stroke-miterlimit:10;}.cls-2,.cls-4{stroke-linecap:round;}.cls-3{fill:gray;stroke-width:0.95px;}.cls-4{stroke-linejoin:round;}</style></defs><title>icon-comparison</title><g id="Calque_4" data-name="Calque 4"><polyline class="cls-1" points="4.5 13.63 4.5 16.51 10.56 16.51"/><polyline class="cls-1" points="20.5 13.54 20.5 16.5 15 16.51"/><line class="cls-2" x1="12.5" y1="18.5" x2="12.5" y2="21.22"/><line class="cls-2" x1="7.5" y1="21.5" x2="17.5" y2="21.5"/><circle class="cls-3" cx="12.5" cy="16.5" r="2"/><path class="cls-4" d="M5.06,13.58H3.88A3.1,3.1,0,0,1,.5,10.5h8A3.16,3.16,0,0,1,5.06,13.58Z"/><path class="cls-4" d="M21,13.58H19.83a3.09,3.09,0,0,1-3.37-3.07h8A3.16,3.16,0,0,1,21,13.58Z"/><path class="cls-4" d="M7.46,5.12c0,.57-1.1.46-2.79.46S1.58,5.6,1.58,5,3,4.4,4.69,4.4,7.46,4.56,7.46,5.12Z"/><line class="cls-4" x1="1.5" y1="9.85" x2="1.5" y2="5.31"/><line class="cls-4" x1="7.5" y1="10.35" x2="7.5" y2="5.81"/><path class="cls-4" d="M23.5,5.12c0,.57-1.1.46-2.79.46s-3.09,0-3.09-.54S19,4.4,20.73,4.4,23.5,4.56,23.5,5.12Z"/><line class="cls-4" x1="17.54" y1="9.85" x2="17.54" y2="5.31"/><line class="cls-4" x1="23.54" y1="10.35" x2="23.54" y2="5.81"/></g></svg>
