<svg width="34" height="34" viewBox="0 0 34 34" fill="none" xmlns="http://www.w3.org/2000/svg">
<g clip-path="url(#clip0)">
<path d="M11.6705 22.1299C11.5262 22.1299 11.382 22.0751 11.2723 21.9646C11.0521 21.7445 11.0521 21.3876 11.2723 21.1674L21.1682 11.2716C21.3883 11.0514 21.7452 11.0514 21.9653 11.2716C22.1855 11.4917 22.1855 11.8486 21.9653 12.0687L12.0687 21.9646C11.959 22.0751 11.8148 22.1299 11.6705 22.1299Z" fill="white"/>
<path d="M21.5664 22.1299C21.4221 22.1299 21.2779 22.0751 21.1682 21.9646L11.2716 12.0687C11.0514 11.8486 11.0514 11.4917 11.2716 11.2716C11.4917 11.0514 11.8486 11.0514 12.0687 11.2716L21.9646 21.1674C22.1848 21.3876 22.1848 21.7445 21.9646 21.9646C21.8549 22.0751 21.7107 22.1299 21.5664 22.1299Z" fill="white"/>
<path d="M16.6189 33.237C7.45479 33.237 0 25.7822 0 16.6189C0 7.45554 7.45479 0 16.6189 0C25.783 0 33.2378 7.45479 33.2378 16.6189C33.2378 25.783 25.7822 33.237 16.6189 33.237ZM16.6189 1.12701C8.0769 1.12701 1.12701 8.0769 1.12701 16.6189C1.12701 25.1609 8.0769 32.1107 16.6189 32.1107C25.1609 32.1107 32.1107 25.1609 32.1107 16.6189C32.1107 8.0769 25.1609 1.12701 16.6189 1.12701Z" fill="white"/>
</g>
<defs>
<clipPath id="clip0">
<rect width="33.237" height="33.237" fill="white"/>
</clipPath>
</defs>
</svg>
