<svg width="17" height="17" viewBox="0 0 17 17" fill="none" xmlns="http://www.w3.org/2000/svg">
<rect width="17" height="17" rx="1" fill="#B3BAC5"/>
<path fill-rule="evenodd" clip-rule="evenodd" d="M9.5 5C9.5 4.44771 9.05229 4 8.5 4C7.94771 4 7.5 4.44771 7.5 5V7.5H5C4.44771 7.5 4 7.94771 4 8.5C4 9.05228 4.44771 9.5 5 9.5H7.5V12C7.5 12.5523 7.94771 13 8.5 13C9.05229 13 9.5 12.5523 9.5 12V9.5H12C12.5523 9.5 13 9.05229 13 8.5C13 7.94771 12.5523 7.5 12 7.5H9.5V5Z" fill="white"/>
<path fill-rule="evenodd" clip-rule="evenodd" d="M9.5 5C9.5 4.44771 9.05229 4 8.5 4C7.94771 4 7.5 4.44771 7.5 5V7.5H5C4.44771 7.5 4 7.94771 4 8.5C4 9.05228 4.44771 9.5 5 9.5H7.5V12C7.5 12.5523 7.94771 13 8.5 13C9.05229 13 9.5 12.5523 9.5 12V9.5H12C12.5523 9.5 13 9.05229 13 8.5C13 7.94771 12.5523 7.5 12 7.5H9.5V5Z" fill="white"/>
<path fill-rule="evenodd" clip-rule="evenodd" d="M9.5 5C9.5 4.44771 9.05229 4 8.5 4C7.94771 4 7.5 4.44771 7.5 5V7.5H5C4.44771 7.5 4 7.94771 4 8.5C4 9.05228 4.44771 9.5 5 9.5H7.5V12C7.5 12.5523 7.94771 13 8.5 13C9.05229 13 9.5 12.5523 9.5 12V9.5H12C12.5523 9.5 13 9.05229 13 8.5C13 7.94771 12.5523 7.5 12 7.5H9.5V5Z" fill="white"/>
<path fill-rule="evenodd" clip-rule="evenodd" d="M9.5 5C9.5 4.44771 9.05229 4 8.5 4C7.94771 4 7.5 4.44771 7.5 5V7.5H5C4.44771 7.5 4 7.94771 4 8.5C4 9.05228 4.44771 9.5 5 9.5H7.5V12C7.5 12.5523 7.94771 13 8.5 13C9.05229 13 9.5 12.5523 9.5 12V9.5H12C12.5523 9.5 13 9.05229 13 8.5C13 7.94771 12.5523 7.5 12 7.5H9.5V5Z" fill="white"/>
<path fill-rule="evenodd" clip-rule="evenodd" d="M9.5 5C9.5 4.44771 9.05229 4 8.5 4C7.94771 4 7.5 4.44771 7.5 5V7.5H5C4.44771 7.5 4 7.94771 4 8.5C4 9.05228 4.44771 9.5 5 9.5H7.5V12C7.5 12.5523 7.94771 13 8.5 13C9.05229 13 9.5 12.5523 9.5 12V9.5H12C12.5523 9.5 13 9.05229 13 8.5C13 7.94771 12.5523 7.5 12 7.5H9.5V5Z" fill="white"/>
</svg>
