<svg xmlns="http://www.w3.org/2000/svg" viewBox="0 0 25 25"><defs><style>.cls-1,.cls-3{fill:none;stroke:gray;}.cls-1{stroke-linecap:round;stroke-linejoin:round;}.cls-2{fill:gray;}.cls-3{stroke-miterlimit:10;}</style></defs><title>icon-support</title><g id="Calque_4" data-name="Calque 4"><path class="cls-1" d="M18.19,7.5a10,10,0,0,1,.21,2.07c0,4.36-2.63,6.93-5.9,6.93S6.56,13.93,6.56,9.57a10.51,10.51,0,0,1,.22-2.12"/><path class="cls-1" d="M7.67,2.23A6.58,6.58,0,0,1,12.5.5a5.65,5.65,0,0,1,4.29,1.7c1.93,1.94,2.35,5.07,2.43,6.72a1.49,1.49,0,0,0-.79.05,8.68,8.68,0,0,0-.08-1.16h0a5.53,5.53,0,0,1-1.77-2.34L16.49,5l-.38.22A19,19,0,0,1,6.8,7.38a.52.52,0,0,0-.42.16c-.23.24-.15.65-.07,1.08,0,.11,0,.22.05.32a1.4,1.4,0,0,0-.58,0C5.68,7.49,5.72,4.26,7.67,2.23Z"/><path class="cls-1" d="M6.38,9c-.65-.08-1,.1-1.14.79a2.06,2.06,0,0,0,1.37,2.29"/><path class="cls-1" d="M18.56,9c.65-.08,1.05.1,1.14.79a2.06,2.06,0,0,1-1.37,2.29"/><line class="cls-1" x1="9.5" y1="18.23" x2="9.5" y2="15.5"/><line class="cls-1" x1="15.5" y1="15.5" x2="15.5" y2="18.23"/><path class="cls-1" d="M2.5,24.16c.24-2,.59-3.63,2.43-4.49A24.29,24.29,0,0,1,9.75,18.3"/><path class="cls-1" d="M22.5,24.33c-.24-2-.42-3.8-2.26-4.66a24.29,24.29,0,0,0-4.82-1.37"/><path class="cls-1" d="M15.39,18.39a4.37,4.37,0,0,1-2.91,1.07,4.42,4.42,0,0,1-2.89-1.05"/><rect class="cls-2" x="11" y="13" width="3" height="2"/><path class="cls-3" d="M18.07,12a9.21,9.21,0,0,1-5.53,2.07"/></g></svg>
