<?xml version="1.0" encoding="UTF-8"?><svg id="Layer_2" xmlns="http://www.w3.org/2000/svg" viewBox="0 0 43.04 32.03"><defs><style>.cls-1{fill:none;stroke:#1d1d1b;stroke-linecap:round;stroke-linejoin:round;}</style></defs><g id="Layer_3"><path class="cls-1" d="m42.54,4.06c0,1.68-3.63,2.44-9,2.44s-10-.73-10-2.4,4.13-3.6,9.5-3.6,9.5,1.89,9.5,3.56Z"/><path class="cls-1" d="m42.54,9.63c0,1.68-3.76,2.91-9.12,2.91s-9.84-1.23-9.84-2.91"/><path class="cls-1" d="m42.54,15.34c0,1.68-3.68,3.25-9.04,3.25-4,0-7.6-.96-9.09-2.04"/><path class="cls-1" d="m42.54,20.65c0,1.68-3.72,2.97-9.08,2.97"/><line class="cls-1" x1="23.54" y1="15.46" x2="23.54" y2="4.1"/><line class="cls-1" x1="42.54" y1="20.77" x2="42.54" y2="4.1"/><path class="cls-1" d="m28.11,21.08c-.87,0-1.67.23-2.39.61,0-.07.01-.14.01-.21,0-4.85-3.83-8.9-8.68-8.9s-8.88,4.05-8.88,8.9c0,.17.02.34.03.51-.84-.57-1.85-.91-2.95-.91-2.88,0-4.74,2.57-4.74,5.46s1.86,4.99,4.74,4.99h22.86c2.88,0,5.52-2.27,5.52-5.16s-2.63-5.29-5.52-5.29Z"/></g></svg>