<svg xmlns="http://www.w3.org/2000/svg" viewBox="0 0 25 25"><defs><style>.cls-1,.cls-2{fill:none;stroke:gray;stroke-linecap:round;stroke-linejoin:round;}.cls-1{stroke-width:0.98px;}</style></defs><title>icon-users-blog</title><g id="Calque_4" data-name="Calque 4"><polygon class="cls-1" points="23.5 2.5 1.5 2.5 1.5 18.5 14.5 18.5 14.5 22.67 18.54 18.5 23.5 18.46 23.5 2.5"/><path class="cls-2" d="M10.85,8A10.38,10.38,0,0,1,11,9.5c0,2.47-1.21,4-3,4s-3.5-2-3.5-4.5a4.18,4.18,0,0,1,0-1"/><path class="cls-2" d="M5.2,5.07a3.22,3.22,0,0,1,2.5-1,3.16,3.16,0,0,1,2.4,1,6.22,6.22,0,0,1,1.3,3.81.74.74,0,0,0-.42,0c0-.24,0-.44-.05-.66h0A3,3,0,0,1,10,6.9l0-.24-.21.12A9.62,9.62,0,0,1,4.73,8a.25.25,0,0,0-.22.09c-.13.14-.09.37,0,.61l0,.18a.85.85,0,0,0-.32,0A5.37,5.37,0,0,1,5.2,5.07Z"/><path class="cls-2" d="M4.51,8.93c-.35,0-.57.05-.61.44a1.17,1.17,0,0,0,.73,1.3"/><path class="cls-2" d="M11,8.93c.36,0,.57.05.62.44a1.17,1.17,0,0,1-.74,1.3"/><line class="cls-2" x1="6.31" y1="14.13" x2="6.31" y2="13.29"/><line class="cls-2" x1="9.25" y1="13.19" x2="9.25" y2="14.13"/><path class="cls-2" d="M2.42,18C2.55,16.85,3,15.48,4,15a14.71,14.71,0,0,1,2.31-.82"/><path class="cls-2" d="M13.5,18c-.13-1.15-.51-2.52-1.5-3s-2.5-1-2.5-1"/><path class="cls-2" d="M9.34,14.22a2.23,2.23,0,0,1-1.56.61,2.32,2.32,0,0,1-1.55-.59"/><line class="cls-2" x1="21.5" y1="6.5" x2="14.5" y2="6.5"/><line class="cls-2" x1="21.5" y1="9.5" x2="14.5" y2="9.5"/><line class="cls-2" x1="18.5" y1="12.5" x2="14.5" y2="12.5"/></g></svg>
