<svg xmlns="http://www.w3.org/2000/svg" viewBox="4.81 1.01 28.32 27.64"><defs><style>.cls-1{fill:#4d4d4d;}</style></defs><g id="Calque_2" data-name="Calque 2"><path id="path10351" class="cls-1" d="M32.52,18h0s-.09,0-.09-.05-.08,0-.17,0a2.19,2.19,0,0,0-.51,0,.47.47,0,0,1-.26-.05h0A9.29,9.29,0,0,1,30,17.58a.54.54,0,0,1-.3-.31h0l-.34-.08a11.25,11.25,0,0,0-.18-3.79,11.55,11.55,0,0,0-1.5-3.52l.26-.26h0v0a.59.59,0,0,1,.13-.39,7.73,7.73,0,0,1,1.2-.86h0l.26-.13L30,7.94s.09,0,.13-.08,0-.05,0-.09h0a.84.84,0,0,0,.17-1.2.78.78,0,0,0-.6-.3,1,1,0,0,0-.6.21h0l0,0c-.05.05-.09.09-.13.09a3.08,3.08,0,0,0-.35.39c0,.08-.13.13-.17.17h0a5.64,5.64,0,0,1-1.07.94.58.58,0,0,1-.26.09.25.25,0,0,1-.17,0h-.05l-.34.21-1.08-1A11,11,0,0,0,19.83,5.1l0-.34h0v0a.6.6,0,0,1-.22-.34A8.18,8.18,0,0,1,19.66,3V3c0-.08,0-.17,0-.25s.05-.35.09-.52V1.92h0a.82.82,0,0,0-1.46-.6.86.86,0,0,0-.26.6h0v.22a1.82,1.82,0,0,0,.09.51.59.59,0,0,1,0,.26V3a8.82,8.82,0,0,1,.08,1.47.59.59,0,0,1-.21.34v.09h0l0,.34c-.48,0-1,.13-1.47.22a10.16,10.16,0,0,0-5.28,3L11,8.24h0s-.08,0-.17,0a.73.73,0,0,1-.26-.09,7.8,7.8,0,0,1-1.07-1h0c0-.08-.13-.13-.17-.17S9.08,6.78,9,6.65s-.08,0-.13-.08l0-.05h0a1,1,0,0,0-.6-.21.64.64,0,0,0-.6.3.91.91,0,0,0,.17,1.2h0s0,.05,0,.05.09.08.13.08a5,5,0,0,0,.47.26l.26.13h0a6.61,6.61,0,0,1,1.21.86.47.47,0,0,1,.13.39V9.53h0l.25.26a2.53,2.53,0,0,1-.13.22,10.2,10.2,0,0,0-1.5,7l-.35.09h0a0,0,0,0,1,0,0c0,.13-.17.21-.3.3a8.56,8.56,0,0,1-1.46.26h0a.59.59,0,0,0-.26,0c-.17,0-.34,0-.52,0s-.08.05-.17.05,0,0-.08,0h0a.84.84,0,0,0-.69,1h0a.79.79,0,0,0,.86.6.39.39,0,0,0,.21,0h0c.05,0,.05,0,.05,0s.13,0,.17,0a3.61,3.61,0,0,0,.47-.17.65.65,0,0,1,.26-.08h0a7.65,7.65,0,0,1,1.42-.39h0a.49.49,0,0,1,.35.13,0,0,0,0,1,0,0h0l.39,0a10.32,10.32,0,0,0,3.53,5,6.31,6.31,0,0,0,1.16.77l-.22.3h0s0,0,0,0a.51.51,0,0,1,0,.43,6.54,6.54,0,0,1-.69,1.24v.05a.78.78,0,0,1-.17.21c-.09.09-.17.26-.3.43s0,.09-.09.13,0,.05,0,.05h0a.88.88,0,0,0,.34,1.16.9.9,0,0,0,.3.08,1,1,0,0,0,.82-.51h0s0,0,0,0,0-.08.09-.13.13-.3.17-.47l.09-.26h0a7.07,7.07,0,0,1,.56-1.33.62.62,0,0,1,.34-.26s0,0,0,0h0l.17-.35a10.05,10.05,0,0,0,3.75.69,8.45,8.45,0,0,0,2.32-.3,11.46,11.46,0,0,0,1.37-.39l.18.31h0s0,0,0,0a.62.62,0,0,1,.34.26,7.07,7.07,0,0,1,.56,1.33v0l.09.26a1.31,1.31,0,0,0,.17.47c0,.05,0,.09.09.13s0,0,0,0h0a1,1,0,0,0,.82.51,1.05,1.05,0,0,0,.34-.08.76.76,0,0,0,.39-.48,1.08,1.08,0,0,0-.05-.64h0a0,0,0,0,0,0,0,.2.2,0,0,0-.08-.13,1.53,1.53,0,0,0-.31-.43.65.65,0,0,0-.17-.22v-.09a5.22,5.22,0,0,1-.69-1.24.51.51,0,0,1,.05-.43s0,0,0,0h0l-.13-.34A10.68,10.68,0,0,0,29,18.82l.34.05h0s0-.05,0-.05a.54.54,0,0,1,.35-.13h0a7.82,7.82,0,0,1,1.38.39h0a.62.62,0,0,0,.26.09,2.42,2.42,0,0,0,.47.21s.09,0,.17,0,0,0,.09,0h0a.39.39,0,0,0,.21,0,.94.94,0,0,0,.86-.6,1,1,0,0,0-.77-.9ZM20.09,16.67l-1.16.56-1.16-.56-.3-1.25.81-1h1.29l.82,1Zm7-2.79a8,8,0,0,1,.17,2.71l-4.15-.75c-.38-.08-.68-.9-.71-1.22a4,4,0,0,1,.21-.74l3.45-2.54A8.58,8.58,0,0,1,27.1,13.88ZM24.78,9.75l-3.22,2.69a1.28,1.28,0,0,1-1.25-.37c-.09-.09-.37-.25-.37-.38l0-4.26a8.07,8.07,0,0,1,4.86,2.32ZM17,7.56l1-.18-.06,4.31h0c0,.38-.64.68-1,.68a1.11,1.11,0,0,1-.35-.08L13,9.75A8.41,8.41,0,0,1,17,7.56Zm-5.24,3.78,3.37,2.47.32.53a1.14,1.14,0,0,1-.25,1,.78.78,0,0,1-.38.31l-4.31.9A9,9,0,0,1,11.75,11.34ZM11,18.61l4.1-1.23c.35,0,.84.71.89,1.06a.51.51,0,0,1-.05.43h0l-1.63,3.95A8.41,8.41,0,0,1,11,18.61Zm9.76,5.33a8.67,8.67,0,0,1-1.85.21,9.59,9.59,0,0,1-2.71-.43l1.66-4c.21-.26,1-.2,1.31,0a2.48,2.48,0,0,1,.34.3l2.07,3.74A5.72,5.72,0,0,0,20.78,23.94ZM26,20.2a8.36,8.36,0,0,1-2.58,2.58L21.5,19.06a1.15,1.15,0,0,1,.41-1c.21-.25.59-.59.71-.59l4.22,1.06A6.27,6.27,0,0,1,26,20.2Z"/></g></svg>