<svg xmlns="http://www.w3.org/2000/svg" viewBox="0 0 25 25"><defs><style>.cls-1,.cls-2{fill:none;stroke:gray;}.cls-1{stroke-linecap:round;stroke-linejoin:round;}.cls-2{stroke-miterlimit:10;}</style></defs><title>icon-training</title><g id="Calque_2" data-name="Calque 2"><polyline class="cls-1" points="17.5 15.5 0.5 15.5 0.5 2.5 18.5 2.5"/><polyline class="cls-1" points="5.5 25 9.5 20.7 13.5 25"/><circle class="cls-2" cx="21" cy="4" r="2.5"/><path class="cls-1" d="M23.41,7.5H21.89L21,9,20.1,7.5H13A1.8,1.8,0,0,0,11.5,9,1.8,1.8,0,0,0,13,10.5h4.5V23.74A1.41,1.41,0,0,0,19,25a1.42,1.42,0,0,0,1.5-1.22,1.53,1.53,0,0,0,3,0V16.67a1.11,1.11,0,0,0,1.09-1.18V8.67A1.18,1.18,0,0,0,23.41,7.5Z"/><line class="cls-1" x1="9.5" y1="15.44" x2="9.5" y2="20.82"/></g></svg>
