<?xml version="1.0" encoding="UTF-8"?><svg id="Layer_3" xmlns="http://www.w3.org/2000/svg" viewBox="0 0 20 20"><defs><style>.cls-1{fill:none;stroke:#000;stroke-linecap:round;stroke-linejoin:round;stroke-width:.8px;}</style></defs><path class="cls-1" d="m6.28,19.48c-.12.08-.08.07-.23.1-.58.09-1.12-.28-1.25-.84,0,0-2.3-9.18-2.3-11.11C2.5,3.6,5.88.44,10.38.44s7.12,3.04,7.12,7.06c0,1.93-1.32,11.23-1.32,11.23-.13.56-.67.94-1.25.84-.12-.02-.13,0-.23-.07"/><path d="m15.75,15.75c-.17,1.15-.22,2.34-.55,3.46-.37.85-1.63,1.06-2.22.33-.25-.28.19-.68.44-.4.43.46,1.24.18,1.31-.44,0,0,.06-.34.06-.34.19-.89.35-1.79.57-2.68.05-.24.42-.17.39.07h0Z"/><path class="cls-1" d="m11.5,7c0,1.9-1.56,3.5-3.46,3.5s-3.54-1.6-3.54-3.5,1.64-3.5,3.54-3.5,3.46,1.6,3.46,3.5Z"/><path d="m8.55,4.75c-.59.12-.71,1.42-.36,1.78.23.23.71.31.71.47s-.48.24-.71.47c-.36.36-.24,1.66.36,1.78.71.14,1.78-.71,1.78-2.25s-1.07-2.39-1.78-2.25Z"/><path d="m6.51,12.2c2.12.31,4.34-.2,5.68-1.96.32-.41.96.11.62.51-.76.9-1.78,1.63-2.93,1.95-1.14.33-2.33.31-3.46.16-.18-.02-.31-.19-.29-.38.02-.18.19-.31.37-.29h0Z"/><path d="m7.97,19.59c-.99.96-2.36.08-2.36-1.15-.12-.9-.27-1.79-.37-2.69-.01-.11.07-.21.18-.22.1-.01.19.06.21.15.22.88.38,1.77.56,2.66.01.78.68,1.38,1.35.83.27-.27.69.16.42.43h0Z"/><path d="m9.75,19.27c-.42.9-1.8.96-2.32.11-.5-1.13-.31-2.5-.47-3.72,0-.11.08-.2.19-.21.1,0,.19.07.21.17.17.95.28,1.91.42,2.87.01.45.23.74.57.85.33.1.71-.05.88-.36.18-.34.71-.05.52.29h0Z"/><path d="m14.03,15.66c-.16,1.23.03,2.57-.46,3.72-.52.86-1.91.79-2.32-.11-.17-.34.35-.61.53-.28.42.71,1.48.38,1.45-.49.14-.96.25-1.92.42-2.87.04-.24.41-.2.4.04h0Z"/><path d="m11.85,15.54c.02.79.01,1.58.01,2.37-.02.41.07.9-.14,1.29-.43,1.02-2.01,1.02-2.45,0-.21-.39-.13-.89-.14-1.29,0-.79,0-1.58.01-2.37,0-.11.1-.2.21-.19.1,0,.18.08.19.18.07.79.1,1.58.15,2.37.03.27,0,.82.13,1.04.13.26.4.43.68.42.46,0,.79-.4.77-.87,0,0,.03-.59.03-.59.04-.79.08-1.58.15-2.37.02-.24.4-.23.4.01h0Z"/></svg>