<svg xmlns="http://www.w3.org/2000/svg" viewBox="0 0 25 25"><defs><style>.cls-1,.cls-3,.cls-4{fill:none;stroke:gray;stroke-linecap:round;stroke-linejoin:round;}.cls-2{fill:gray;}.cls-3{stroke-width:0.68px;}.cls-4{stroke-width:0.85px;}</style></defs><title>icon-ressource-center</title><g id="Calque_4" data-name="Calque 4"><polygon class="cls-1" points="5.5 2.5 12.41 2.5 12.5 22.5 5.5 22.5 5.5 2.5"/><polygon class="cls-2" points="8 4 10 4 10 14.97 8 15 8 4"/><polyline class="cls-1" points="5.36 2.29 2.5 3.5 2.5 21.5 5.29 22.64"/><line class="cls-3" x1="12.57" y1="21.86" x2="14.14" y2="22.61"/><line class="cls-4" x1="14.11" y1="2.5" x2="12.57" y2="3.07"/><circle class="cls-2" cx="9" cy="19" r="1"/><polygon class="cls-1" points="14.5 2.5 21.44 2.5 21.5 22.5 14.5 22.5 14.5 2.5"/><polygon class="cls-2" points="17 4 19 4 19 14.97 17 15 17 4"/><circle class="cls-2" cx="18" cy="19" r="1"/><rect class="cls-2" x="12.6" y="2.73" width="1.67" height="19.87"/><polygon class="cls-2" points="2.58 21.5 5.33 22.6 5.33 2.73 2.67 3.67 2.58 21.5"/></g></svg>
