<svg width="24" height="24" viewBox="0 0 24 24" fill="none" xmlns="http://www.w3.org/2000/svg">
<path d="M12 24C5.4 24 0 18.6 0 12C0 5.4 5.4 0 12 0C18.6 0 24 5.4 24 12C24 18.6 18.6 24 12 24ZM12 2C6.5 2 2 6.5 2 12C2 17.5 6.5 22 12 22C17.5 22 22 17.5 22 12C22 6.5 17.5 2 12 2Z" fill="white"/>
<path d="M11 16C10.7 16 10.5 15.9 10.3 15.7L7.3 12.7C6.9 12.3 6.9 11.7 7.3 11.3C7.7 10.9 8.3 10.9 8.7 11.3L11.7 14.3C12.1 14.7 12.1 15.3 11.7 15.7C11.5 15.9 11.3 16 11 16Z" fill="white"/>
<path d="M11 16C10.7 16 10.5 15.9 10.3 15.7C9.9 15.3 9.9 14.7 10.3 14.3L16.3 8.3C16.7 7.9 17.3 7.9 17.7 8.3C18.1 8.7 18.1 9.3 17.7 9.7L11.7 15.7C11.5 15.9 11.3 16 11 16Z" fill="white"/>
</svg>
