<?xml version="1.0" encoding="UTF-8"?>
<svg xmlns="http://www.w3.org/2000/svg" version="1.1" viewBox="0 0 650 150">
  <defs>
    <style>
      .cls-1 {
        fill: #fff;
      }

      .cls-2 {
        fill: #57d1e5;
      }

      .cls-3 {
        fill: #4d9bb6;
      }

      .cls-4 {
        fill: #3b2d55;
      }

      .cls-5 {
        fill: #93e1ef;
      }
    </style>
  </defs>
  <!-- Generator: Adobe Illustrator 28.6.0, SVG Export Plug-In . SVG Version: 1.2.0 Build 709)  -->
  <g>
    <g id="Layer_1">
      <g>
        <path class="cls-1" d="M185.4,103.1c2.1,3.1,4.8,5.5,8,6.9,3.3,1.5,6.6,2.2,10.1,2.2s3.9-.3,5.9-.9c2-.6,3.8-1.5,5.5-2.7,1.6-1.2,3-2.7,4-4.5,1-1.8,1.6-3.8,1.6-6.2s-1-5.8-3.1-7.5c-2.1-1.7-4.7-3.2-7.8-4.3-3.1-1.2-6.5-2.3-10.2-3.4-3.7-1.1-7.1-2.6-10.2-4.5-3.1-1.9-5.7-4.5-7.8-7.8-2.1-3.3-3.1-7.7-3.1-13.2s.5-5.2,1.6-8c1.1-2.8,2.8-5.4,5.1-7.7,2.3-2.3,5.3-4.3,9-5.9,3.7-1.6,8.1-2.4,13.2-2.4s9.1.6,13.4,1.9c4.3,1.3,8,3.9,11.2,7.9l-9.4,8.6c-1.5-2.3-3.5-4.1-6.2-5.4-2.7-1.4-5.7-2.1-9.1-2.1s-5.9.4-8,1.3c-2.1.8-3.8,1.9-5.1,3.3-1.3,1.3-2.2,2.8-2.7,4.3-.5,1.5-.8,2.9-.8,4.2,0,3.6,1,6.4,3.1,8.3,2.1,1.9,4.7,3.5,7.8,4.7,3.1,1.2,6.5,2.3,10.2,3.3,3.7,1,7.1,2.3,10.2,4,3.1,1.7,5.7,4.1,7.8,7,2.1,2.9,3.1,7,3.1,12.1s-.8,7.8-2.4,11.1c-1.6,3.3-3.7,6.1-6.3,8.3-2.7,2.3-5.8,4-9.4,5.2-3.6,1.2-7.5,1.8-11.6,1.8s-10.7-1-15.6-2.9c-4.9-1.9-8.8-4.9-11.7-8.9l9.5-8.2Z"/>
        <path class="cls-1" d="M286,79c-2-2.1-4.1-3.7-6.3-4.8-2.2-1.1-4.9-1.6-7.9-1.6s-5.6.5-7.8,1.6c-2.2,1.1-4.1,2.6-5.6,4.5-1.5,1.9-2.6,4.1-3.4,6.5-.8,2.5-1.1,5-1.1,7.7s.4,5.2,1.3,7.5c.9,2.4,2.1,4.5,3.7,6.2s3.5,3.2,5.8,4.2c2.3,1,4.8,1.5,7.6,1.5s5.7-.5,7.9-1.6c2.2-1.1,4.2-2.7,6-4.8l7.7,7.7c-2.8,3.1-6.1,5.4-9.9,6.8-3.7,1.4-7.7,2.1-11.9,2.1s-8.5-.7-12.2-2.2c-3.7-1.5-6.8-3.5-9.5-6.1s-4.7-5.8-6.2-9.4c-1.5-3.7-2.2-7.7-2.2-12.1s.7-8.5,2.2-12.2c1.5-3.7,3.5-6.9,6.1-9.5,2.6-2.7,5.8-4.7,9.4-6.2,3.7-1.5,7.8-2.2,12.3-2.2s8.2.7,12,2.2c3.8,1.5,7.2,3.8,10,6.8l-8.2,7.5Z"/>
        <path class="cls-1" d="M298.2,63.7h12.6l17,44.7h.2l16.3-44.7h11.6l-27.2,69.6c-1,2.5-2,4.8-3,6.8-1,2.1-2.3,3.8-3.7,5.3-1.4,1.5-3.2,2.6-5.2,3.4-2,.8-4.6,1.2-7.5,1.2s-3.2-.1-4.9-.3c-1.6-.2-3.2-.6-4.8-1.3l1.3-9.9c2.2.9,4.3,1.3,6.5,1.3s3.1-.2,4.3-.7c1.2-.4,2.2-1.1,3-1.9.8-.8,1.5-1.8,2.1-3,.6-1.1,1.1-2.4,1.7-3.9l3.5-9.1-23.7-57.6h0Z"/>
        <path class="cls-1" d="M363.9,29.7h10.9v91.3h-10.9V29.7Z"/>
        <path class="cls-1" d="M386.6,29.7h10.9v91.3h-10.9V29.7Z"/>
        <path class="cls-1" d="M412.7,70.7c3.1-2.8,6.6-4.9,10.6-6.3,4-1.4,8.1-2.1,12.1-2.1s7.8.5,10.8,1.6c3,1,5.5,2.5,7.4,4.2,1.9,1.8,3.4,3.8,4.3,6.1.9,2.3,1.4,4.7,1.4,7.2v29.2c0,2,0,3.9.1,5.6,0,1.7.2,3.3.4,4.8h-9.7c-.2-2.9-.4-5.8-.4-8.7h-.2c-2.4,3.7-5.3,6.3-8.6,7.9-3.3,1.5-7.1,2.3-11.5,2.3s-5.2-.4-7.6-1.1c-2.4-.7-4.5-1.8-6.3-3.3-1.8-1.5-3.2-3.2-4.3-5.4-1-2.1-1.6-4.6-1.6-7.4s.8-6.8,2.5-9.3c1.6-2.5,3.9-4.5,6.8-6.1,2.9-1.6,6.2-2.7,10-3.4,3.8-.7,7.9-1,12.3-1h8v-2.4c0-1.5-.3-2.9-.8-4.3-.6-1.5-1.4-2.8-2.5-3.9-1.1-1.2-2.5-2.1-4.2-2.8-1.7-.7-3.7-1-6-1s-3.9.2-5.5.6c-1.6.4-3,.9-4.3,1.5-1.3.6-2.5,1.3-3.5,2.1-1,.8-2.1,1.6-3,2.3l-6.5-6.8h0ZM443.4,93.5c-2.6,0-5.2.1-7.9.4-2.7.3-5.2.8-7.4,1.6-2.2.8-4,1.9-5.4,3.4-1.4,1.5-2.1,3.3-2.1,5.6,0,3.3,1.1,5.7,3.3,7.1,2.2,1.5,5.2,2.2,9,2.2s5.5-.5,7.6-1.5c2.1-1,3.8-2.3,5.1-3.9,1.3-1.6,2.2-3.4,2.8-5.4.6-2,.8-3.9.8-5.9v-3.6h-5.8Z"/>
        <path class="cls-1" d="M473.8,35.5h29.9c6,0,11.3.7,15.9,2.1,4.6,1.4,8.5,3.2,11.8,5.5,3.3,2.3,6.1,4.9,8.3,7.9,2.2,3,4,6,5.3,9.2,1.3,3.1,2.2,6.3,2.8,9.4.6,3.1.8,6,.8,8.7,0,5.5-1,10.8-3,15.9-2,5.1-5,9.7-8.9,13.7-4,4-8.8,7.2-14.7,9.6-5.8,2.4-12.6,3.6-20.3,3.6h-27.9V35.5h0ZM485.4,110.1h14.6c4.9,0,9.6-.7,14-2,4.4-1.3,8.2-3.3,11.5-6,3.3-2.7,5.9-6,7.9-10,1.9-4,2.9-8.6,2.9-14s-.4-5.9-1.3-9.6c-.9-3.7-2.6-7.1-5-10.5-2.5-3.3-5.9-6.1-10.2-8.4-4.3-2.3-10-3.4-16.9-3.4h-17.4v63.8Z"/>
        <path class="cls-1" d="M561.6,35.5h29.7c3.7,0,7.2.4,10.3,1.3,3.2.9,5.9,2.2,8.2,3.9,2.3,1.7,4.1,3.9,5.4,6.6,1.3,2.7,2,5.9,2,9.5s-1.4,8.9-4.1,12c-2.7,3.1-6.3,5.4-10.6,6.8v.2c2.6.2,5,.8,7.3,2,2.3,1.2,4.2,2.7,5.9,4.6,1.6,1.9,3,4.1,3.9,6.6,1,2.5,1.5,5.2,1.5,8.1s-.8,7.3-2.4,10.2c-1.6,2.9-3.7,5.4-6.5,7.4-2.7,2-5.9,3.5-9.5,4.6-3.6,1-7.5,1.6-11.7,1.6h-29.4V35.5ZM573.2,71h15.8c2.2,0,4.2-.2,6.2-.7,1.9-.4,3.6-1.2,5.1-2.2,1.5-1,2.6-2.4,3.4-4,.8-1.6,1.3-3.6,1.3-5.9,0-3.4-1.1-6.3-3.3-8.8-2.2-2.5-5.6-3.7-10.3-3.7h-18.3v25.4h0ZM573.2,110.9h17c1.8,0,3.7-.2,5.9-.5,2.1-.4,4.1-1.1,6-2.2,1.9-1.1,3.4-2.6,4.7-4.4,1.3-1.9,1.9-4.3,1.9-7.4,0-5.1-1.7-8.9-5-11.4-3.3-2.5-7.8-3.8-13.4-3.8h-17.2v29.7Z"/>
      </g>
      <g>
        <path class="cls-2" d="M86.3,4.2c-32.9,0-55.9,20.5-55.9,49.8s4.9,34.8,9.1,55.8c3,15.1,5.6,27.3,5.7,27.6.8,3.7,4.4,6.1,8.2,5.5h.8c0-.1-.6-.7-.6-.7-1.1-1.1-1.8-2.4-2.3-3.8-.2-.8-.3-1.5-.4-2.1,0-.3,0-.6-.1-.9l-1.5-8.9c-.6-4-1.3-8-1.8-11.8,0-.3.1-.5.4-.5.3,0,.5.1.5.4.8,3.8,1.6,7.7,2.4,11.7l1.7,8.8c0,.3.1.6.2.9.1.7.3,1.4.4,2,.5,1.5,1.5,2.8,2.8,3.8.1.1.3.2.4.3.8.4,1.6.7,2.5.9.9.1,1.8.1,2.6,0,.9-.2,1.9-.6,2.7-1.2l.3-.2-.2-.3c-.7-.9-1.1-1.9-1.4-3-.2-.8-.3-1.5-.3-2.2,0-.3,0-.6,0-.9l-.9-8.9c-.4-4.1-.7-8.1-1-11.9,0-.1,0-.2.1-.3,0,0,.2-.2.3-.2.3,0,.5.2.5.4.5,3.8,1.1,7.8,1.6,11.8l1.1,8.9c0,.3,0,.5.1.8,0,.7.2,1.4.3,2,.2.7.4,1.3.8,1.9.5.9,1.2,1.6,2,2.2h0c0,0,0,.1.1.1,1.4,1,3.3,1.4,5,1.1,1.7-.3,3.3-1.2,4.5-2.5.3-.3.5-.7.7-1.1v-.2c0,0,0-.2,0-.2-.1-.4-.2-.8-.4-1.2-.1-.6-.2-1.4-.2-2.3v-4.4c-.2-5.6-.2-11.3-.2-17.6,0-.3.2-.5.5-.5s.5.2.5.4c.4,6.3.7,12,.9,17.6l.2,4.4c0,.8,0,1.4.2,2,.1.5.3,1.2.7,1.8,0,0,0,0,0,.1,1.2,2.2,3.6,3.7,6.1,3.7h.1c2.5,0,5-1.4,6.3-3.7,0,0,0,0,0,0,.3-.5.5-1.1.7-1.8.1-.6.2-1.2.2-1.9l.2-4.5c.2-5.3.5-11,.9-17.6,0-.3.2-.5.5-.4.2,0,.4.2.4.5,0,6.6,0,12.3-.1,17.6v4.4c0,.6,0,1.5-.3,2.3,0,.4-.2.8-.3,1.2v.2c0,0,0,.2,0,.2.2.4.5.7.7,1.1,1.1,1.4,2.7,2.3,4.5,2.5,1.7.3,3.6-.1,5-1.1,0,0,0,0,.1,0h0c.8-.6,1.5-1.4,2-2.2.4-.6.6-1.2.8-1.9.1-.6.2-1.3.3-2,0-.3,0-.5.1-.8l1.1-8.9c.5-4,1.1-8,1.6-11.8,0-.1,0-.2.2-.3.1,0,.2-.1.3,0,.2,0,.4.3.4.5-.3,3.8-.7,7.8-1,11.9l-.9,8.9c0,.3,0,.6,0,.8,0,.7-.1,1.4-.3,2.2-.3,1.1-.7,2.1-1.4,3l-.2.3.3.2c.8.6,1.8,1,2.7,1.2.9.2,1.7.2,2.6,0,.9-.1,1.7-.4,2.5-.9.2,0,.3-.2.4-.3,1.3-.9,2.3-2.3,2.8-3.8.2-.5.3-1.3.4-2,0-.3.1-.6.2-.8l1.7-8.8c.8-4,1.6-8,2.4-11.7,0-.3.3-.4.6-.4.2,0,.4.3.4.5-.6,3.8-1.2,7.8-1.8,11.8l-1.5,8.9c0,.3-.1.6-.1.9-.1.7-.2,1.3-.4,2.2-.4,1.4-1.2,2.7-2.3,3.8l-.5.5.7.2h0c.4,0,.8.1,1.2.1,3.3,0,6.3-2.3,7-5.6,0-.3,2.8-12.9,5.8-28.5,4.1-20.9,9-47,9-55,0-29.3-23-49.8-55.9-49.8Z"/>
        <path class="cls-4" d="M133.1,109.7c-3.1,15.7-5.7,27.5-5.7,27.7-.7,3.2-3.7,5.4-7,5.4s-.8,0-1.2,0h-.4c0,0,.3-.4.3-.4,1.1-1.1,1.9-2.4,2.3-3.8.2-.8.3-1.5.4-2.2h0c0-.4,0-.6.1-.9l1.5-8.9c.6-4,1.3-8,1.8-11.8,0-.3-.2-.7-.5-.7-.2,0-.3,0-.5,0-.1,0-.3.2-.3.4-.8,3.7-1.6,7.7-2.4,11.7l-1.7,8.8c0,.2,0,.4-.1.6v.3c-.2.7-.3,1.4-.5,1.9-.4,1.5-1.4,2.8-2.7,3.7-.1,0-.3.2-.4.3-.7.4-1.5.7-2.4.8-.9.1-1.7.1-2.6,0-.9-.2-1.8-.6-2.6-1.2h-.2c0-.1.1-.3.1-.3.7-1,1.1-2,1.4-3.1.2-.8.3-1.5.3-2.3,0-.3,0-.6,0-.8l.9-8.9c.4-4.1.7-8.1,1-11.9,0-.3-.2-.7-.6-.7-.2,0-.3,0-.5.1-.1.1-.2.3-.3.4-.5,3.8-1.1,7.7-1.6,11.8l-1.1,8.9c0,.3,0,.5-.1.8,0,.7-.2,1.4-.3,2-.2.6-.4,1.2-.8,1.8-.5.8-1.2,1.6-2,2.1h0c0,0,0,.1-.1.1-1.4.9-3.2,1.3-4.9,1.1-1.7-.2-3.3-1.1-4.3-2.5-.3-.3-.5-.7-.7-1h0c0,0,0-.2,0-.2.1-.4.3-.8.4-1.2.2-.8.2-1.8.2-2.4v-4.4c.2-5.2.2-10.9.2-17.6,0-.3-.3-.6-.6-.7-.4,0-.7.3-.7.6-.4,6.5-.7,12.3-.9,17.6l-.2,4.5c0,.7,0,1.3-.2,1.9-.2.7-.4,1.3-.7,1.8,0,0,0,0,0,0-1.2,2.2-3.6,3.6-6,3.6h-.2c-2.4,0-4.8-1.4-6-3.6,0,0,0,0,0-.1-.3-.6-.5-1.2-.7-1.7-.1-.6-.2-1.2-.2-2l-.2-4.4c-.2-5.5-.5-11.3-.9-17.6,0-.3-.3-.6-.7-.6-.4,0-.7.3-.7.7,0,6.3,0,12,.1,17.6v4.4c0,1,.1,1.8.3,2.4.1.4.2.9.4,1.2h0c0,0,0,.2,0,.2-.2.4-.5.7-.7,1-1.1,1.3-2.7,2.2-4.3,2.5-1.7.3-3.5-.1-4.9-1.1,0,0,0,0-.1,0h0c-.8-.6-1.5-1.3-2-2.2-.3-.6-.6-1.2-.8-1.8-.1-.5-.2-1.2-.3-2,0-.3,0-.5-.1-.8l-1.1-8.9c-.5-4.1-1.1-8.1-1.6-11.8,0-.4-.3-.6-.7-.6-.2,0-.3,0-.4.2-.1.1-.2.3-.2.5.3,3.8.7,7.8,1,11.9l.9,8.9c0,.3,0,.6,0,.9,0,.7.1,1.4.3,2.2.3,1.1.7,2.1,1.4,3.1v.2c.1,0,0,.1,0,.1-.8.6-1.7,1-2.6,1.2-.8.2-1.7.2-2.6,0-.9-.1-1.7-.4-2.4-.9-.1,0-.3-.2-.4-.3-1.3-.9-2.3-2.2-2.7-3.7-.2-.5-.3-1.2-.4-1.9h0c0-.4-.1-.7-.2-.9l-1.7-8.8c-.8-4-1.6-8-2.4-11.7,0-.3-.4-.6-.7-.5-.4,0-.6.4-.6.7.6,3.8,1.2,7.8,1.8,11.8l1.5,8.9c0,.3,0,.5.1.8h0c.1.8.2,1.5.4,2.3.4,1.4,1.2,2.7,2.3,3.8l.3.3h-.4c-3.7.7-7.2-1.7-8-5.3-.3-1.3-3-13.1-5.9-27.6,0,0,4.2,28,4.2,28,0,.2.1.5.2.7v.2c.1.2.2.3.3.5,0,0,0,.2.1.3,0,.1.1.2.2.4h0c0,.1.1.2.2.3,0,0,0,.1,0,.2h0c.2.3.4.6.6.9h0c.1.2.2.3.4.5h0c.1.2.3.3.4.5h0c1.6,1.5,3.7,2.3,5.9,2.3s1,0,1.4-.1l3.2-.5c.5.2,1.1.4,1.7.4,1.1.2,2.2.1,3.2,0,1.1-.2,2.3-.7,3.3-1.5l.8-.6c.2.2.5.4.8.6h0c0,0,.1.1.2.2,1.7,1.1,4,1.6,6.1,1.3,2.1-.3,4.1-1.4,5.4-3.1.2-.3.5-.6.7-.9,1.5,2.5,4.4,4.1,7.3,4.1h.2c2.9,0,5.7-1.6,7.2-4.1.2.3.4.7.7.9,1.3,1.7,3.3,2.8,5.4,3.1.4,0,.8,0,1.3,0,1.7,0,3.4-.5,4.8-1.4,0,0,.1,0,.2-.1h0c.3-.2.5-.4.8-.6l.8.6c1,.7,2.1,1.2,3.3,1.5,1,.2,2.1.2,3.2,0,.7-.1,1.4-.3,2.1-.6l2.7.7h.1c.5.1.9.1,1.4.1,4,0,7.6-2.9,8.5-6.8,0-.1,4.2-28,4.2-28h0Z"/>
        <path class="cls-5" d="M46.4,17.7c-10.1,8.8-16,21.4-16,36.2s14.5,82.8,14.7,83.5c.3,1.5,1.4,2.6,2.4,3.6-3.6-17.4-15.4-73.5-15.4-86.6s5.2-27.2,14.3-36.7Z"/>
        <path class="cls-3" d="M71.3,25.6c-13.4,0-24.3,10.9-24.3,24.3s10.9,24.3,24.3,24.3,24.3-10.9,24.3-24.3-10.9-24.3-24.3-24.3Z"/>
        <path class="cls-1" d="M44.6,48c0,13.4,10.9,24.3,24.3,24.3s24.3-10.9,24.3-24.3-10.9-24.3-24.3-24.3-24.3,10.9-24.3,24.3Z"/>
        <path class="cls-3" d="M53.9,82.3c14.8,2.2,30.3-1.5,42.5-10.1,1.7-1.1,3.4,1.3,1.8,2.5-6.5,4.4-13.8,7.6-21.4,9.3-7.6,1.7-15.6,2-23.3.8-.7-.1-1.2-.8-1.1-1.5.1-.7.8-1.2,1.5-1.1"/>
        <path class="cls-3" d="M98.1,76.3c-.4-2-2.2-3.5-4.2-3.6-2.1-.1-1.9-3.2.1-3.1,1.7.2,3.2,1.1,4.3,2.3.9.9,3,4.9.8,5.2-.5,0-1-.3-1.1-.8"/>
        <path class="cls-4" d="M53.5,81.2c14.8,2.2,30.3-1.5,42.5-10.1,1.7-1.1,3.4,1.3,1.8,2.5-6.5,4.4-13.8,7.6-21.4,9.3-7.6,1.7-15.6,2-23.3.8-.7-.1-1.2-.8-1.1-1.5.1-.7.8-1.2,1.5-1.1"/>
        <path class="cls-4" d="M97.7,75.2c-.4-2-2.2-3.5-4.2-3.6-2.1-.1-1.9-3.2.1-3.1,1.7.2,3.2,1.1,4.3,2.3.9.9,3,4.9.8,5.2-.5,0-1-.3-1.1-.8"/>
        <path class="cls-4" d="M85.5,48.3c-.4,10.2-7.6,15.6-12.3,14.5-3.9-.9-4.4-9.6-1.9-11.9,1.6-1.5,4.8-1.9,4.8-3,0-1.1-3.1-1.7-4.6-3.3-2.3-2.4-1.2-11,2.8-11.7,4.7-.8,11.6,5.1,11.3,15.3"/>
      </g>
    </g>
  </g>
</svg>