<svg width="200" height="200" viewBox="0 0 200 200" fill="none" xmlns="http://www.w3.org/2000/svg">
<path d="M112.631 190.708C112.219 192.558 111.19 194.212 109.713 195.399C108.236 196.586 106.398 197.235 104.504 197.24C104.05 197.238 103.597 197.201 103.149 197.131H103.102L102.285 196.936L102.861 196.344C104.086 195.132 104.986 193.63 105.477 191.977C105.7 191.156 105.869 190.321 105.983 189.478C106.037 189.128 106.092 188.785 106.162 188.435L107.851 178.151C108.629 173.48 109.307 168.864 109.961 164.403C109.973 164.333 109.971 164.26 109.956 164.191C109.94 164.121 109.911 164.055 109.869 163.996C109.828 163.937 109.776 163.888 109.715 163.849C109.655 163.811 109.587 163.785 109.517 163.773C109.446 163.76 109.374 163.762 109.304 163.778C109.234 163.793 109.168 163.823 109.11 163.864C109.051 163.905 109.001 163.957 108.963 164.018C108.925 164.078 108.899 164.146 108.886 164.216C107.96 168.607 107.034 173.184 106.115 177.84L104.145 188.077L103.959 189.058C103.828 189.829 103.659 190.592 103.453 191.346C102.908 193.134 101.764 194.679 100.214 195.722C100.049 195.84 99.8772 195.949 99.7003 196.049C98.819 196.566 97.8465 196.91 96.8355 197.061C95.8251 197.224 94.7933 197.2 93.7916 196.99C92.6664 196.752 91.6049 196.277 90.6777 195.597L90.304 195.325L90.5531 194.951C91.2917 193.885 91.8202 192.688 92.1101 191.424C92.2923 190.569 92.4171 189.703 92.4837 188.832C92.4837 188.505 92.5149 188.178 92.5772 187.851L93.597 177.513C94.0407 172.803 94.4533 168.171 94.8114 163.718C94.8227 163.58 94.7806 163.442 94.6938 163.333C94.607 163.225 94.4819 163.154 94.3443 163.134C94.2735 163.124 94.2013 163.127 94.1318 163.145C94.0624 163.162 93.997 163.193 93.9395 163.235C93.8818 163.278 93.8334 163.331 93.7972 163.393C93.7611 163.454 93.738 163.523 93.7293 163.594C93.091 168.008 92.4604 172.624 91.8454 177.318L90.5531 187.61C90.5064 187.929 90.4675 188.24 90.4363 188.552C90.3553 189.337 90.2305 190.116 90.0627 190.887C89.8773 191.658 89.5754 192.395 89.1674 193.075C88.5749 194.072 87.7792 194.934 86.832 195.605L86.7541 195.667L86.5984 195.776C84.8786 196.892 82.8122 197.346 80.7831 197.053C78.7496 196.749 76.9016 195.7 75.5984 194.11C75.2735 193.723 74.9867 193.306 74.7421 192.865L74.6409 192.678L74.711 192.483C74.8709 192.016 75.0035 191.541 75.108 191.058C75.2772 190.163 75.3554 189.253 75.3415 188.342L75.4272 183.235C75.544 177.124 75.5907 170.444 75.5907 162.807C75.5907 162.663 75.5332 162.524 75.4311 162.422C75.3289 162.32 75.1903 162.262 75.0457 162.262C74.9012 162.262 74.7626 162.32 74.6604 162.422C74.5582 162.524 74.5008 162.663 74.5008 162.807C74.0493 170.429 73.7223 177.1 73.481 183.204L73.263 188.419C73.2575 189.172 73.1819 189.923 73.0372 190.661C72.8819 191.401 72.6197 192.115 72.2588 192.779L72.1965 192.888C71.4688 194.185 70.4087 195.264 69.1253 196.016C67.8418 196.767 66.3814 197.162 64.8943 197.162H64.7697C63.3134 197.143 61.8879 196.74 60.6372 195.993C59.3865 195.247 58.3549 194.184 57.6466 192.911C57.612 192.861 57.5808 192.809 57.5532 192.756C57.2034 192.094 56.9417 191.39 56.7747 190.661C56.6247 189.892 56.5465 189.11 56.5412 188.326L56.2999 183.18C56.0507 176.742 55.716 170.071 55.28 162.784C55.28 162.639 55.2226 162.501 55.1204 162.399C55.0182 162.296 54.8796 162.239 54.7351 162.239C54.5906 162.239 54.452 162.296 54.3498 162.399C54.2476 162.501 54.1902 162.639 54.1902 162.784C54.1902 170.055 54.1902 176.742 54.3459 183.211L54.4315 188.318C54.4203 189.232 54.5011 190.145 54.6728 191.043C54.7794 191.523 54.9145 191.996 55.0776 192.46L55.1477 192.662L55.0465 192.849C54.8017 193.288 54.5149 193.703 54.1902 194.087C52.8895 195.679 51.043 196.731 49.01 197.037C46.9769 197.344 44.9025 196.883 43.1902 195.745L43.0345 195.636L42.9567 195.574C42.0088 194.904 41.2129 194.042 40.6212 193.044C40.2121 192.366 39.9051 191.631 39.7104 190.864C39.5412 190.093 39.419 189.314 39.3445 188.528C39.3445 188.209 39.2667 187.882 39.2199 187.571L37.9199 177.256C37.3049 172.585 36.6743 167.914 36.036 163.531C36.0184 163.393 35.9474 163.268 35.8381 163.182C35.7289 163.096 35.5902 163.057 35.4521 163.072C35.3817 163.077 35.3131 163.096 35.2503 163.128C35.1875 163.161 35.1317 163.205 35.0862 163.259C34.9925 163.369 34.9451 163.511 34.9539 163.656C35.312 168.085 35.7323 172.733 36.1683 177.458L37.1881 187.797C37.1881 188.124 37.2582 188.451 37.2893 188.785C37.3459 189.655 37.4683 190.519 37.6552 191.37C37.9491 192.625 38.4774 193.814 39.2122 194.873L39.4768 195.254L39.111 195.527C38.1813 196.206 37.1211 196.686 35.997 196.936C33.9778 197.361 31.8728 197.022 30.0883 195.986C29.9113 195.884 29.7398 195.772 29.5745 195.651C28.0319 194.602 26.8882 193.064 26.3283 191.284C26.1203 190.539 25.954 189.783 25.83 189.019C25.7678 188.684 25.7055 188.342 25.6354 188.022L23.6814 177.824C22.7706 173.153 21.8364 168.591 20.91 164.201C20.88 164.065 20.8001 163.946 20.6862 163.867C20.5722 163.787 20.4326 163.754 20.295 163.773C20.1528 163.794 20.0248 163.87 19.9387 163.986C19.8527 164.101 19.8157 164.245 19.8357 164.388C20.4897 168.856 21.1981 173.48 21.9454 178.136L23.6425 188.427C23.7048 188.777 23.7593 189.12 23.8138 189.47C23.9276 190.313 24.0967 191.148 24.3198 191.969C24.8259 193.614 25.7297 195.109 26.9511 196.321L27.5972 196.975L26.6864 197.123C24.5835 197.474 22.4261 197.007 20.656 195.819C18.8859 194.631 17.6372 192.811 17.1655 190.731C17.0955 190.389 14.0516 176.205 10.5951 158.635C13.6234 179.257 15.6241 190.879 15.6631 191.058C15.7253 191.331 15.8032 191.603 15.8966 191.907C15.9178 191.981 15.9439 192.054 15.9745 192.125V192.187C16.0367 192.366 16.099 192.538 16.1691 192.709C16.2391 192.88 16.2703 192.935 16.3248 193.051C16.3793 193.168 16.4571 193.324 16.5272 193.456V193.503C16.5805 193.615 16.6403 193.724 16.7062 193.83C16.7062 193.892 16.7763 193.947 16.8074 194.001V194.056C17.016 194.393 17.2448 194.718 17.4925 195.029C17.6171 195.192 17.7572 195.348 17.9284 195.535L17.9985 195.605C18.1542 195.776 18.3099 195.924 18.4656 196.072C20.2868 197.759 22.678 198.696 25.1606 198.695C25.7029 198.694 26.2444 198.65 26.7798 198.563L27.6828 198.423L30.5944 197.964C31.228 198.208 31.8855 198.385 32.5561 198.493C33.0708 198.578 33.5914 198.622 34.1131 198.625C34.7963 198.627 35.4777 198.554 36.1449 198.407C37.4882 198.119 38.756 197.551 39.8661 196.741L40.2398 196.469L40.917 195.978C41.2279 196.261 41.5583 196.521 41.9057 196.757L41.968 196.804L42.186 196.959C43.806 198.019 45.6995 198.584 47.6353 198.586C48.1149 198.586 48.5936 198.549 49.0678 198.477C51.4712 198.107 53.6546 196.866 55.2022 194.99C55.6018 194.606 55.969 194.189 56.2999 193.744C57.1502 195.233 58.3747 196.474 59.8522 197.343C61.3296 198.213 63.0087 198.682 64.723 198.703H65.0033C66.7168 198.678 68.3944 198.208 69.8712 197.338C71.348 196.469 72.5732 195.23 73.4265 193.744C73.7049 194.235 74.0281 194.699 74.3918 195.13C75.9339 197.015 78.1245 198.256 80.534 198.61C81.0031 198.679 81.4767 198.713 81.9509 198.711C83.8856 198.709 85.7784 198.147 87.4002 197.092L87.626 196.936L87.6805 196.889C88.0267 196.652 88.357 196.392 88.6692 196.111L89.3387 196.593L89.7123 196.866C90.8241 197.681 92.0987 198.247 93.4491 198.524C94.1119 198.664 94.7877 198.735 95.4653 198.734C95.9867 198.731 96.5071 198.69 97.0223 198.61C97.8687 198.48 98.6936 198.237 99.4745 197.886L101.872 198.462L102.651 198.656H102.705H102.752H102.806C103.337 198.743 103.873 198.788 104.41 198.789C106.664 198.79 108.851 198.026 110.613 196.622C112.376 195.217 113.609 193.256 114.11 191.058C114.149 190.856 116.157 178.774 119.396 157.63C115.83 175.668 112.709 190.366 112.631 190.708Z" fill="#3B2D55"/>
<path d="M64.9023 36C26.6866 36 0.00794983 59.7671 0.00794983 93.7946C0.00794983 103.245 5.75315 134.213 10.5953 158.634C14.0751 176.205 17.0956 190.389 17.1657 190.731C17.6374 192.817 18.8908 194.642 20.6678 195.831C22.4448 197.02 24.6101 197.482 26.7177 197.123L27.6285 196.975L26.9824 196.321C25.761 195.108 24.8573 193.614 24.3511 191.969C24.128 191.148 23.959 190.313 23.8451 189.47C23.7906 189.12 23.7361 188.777 23.6738 188.427L21.9456 178.135C21.1671 173.464 20.4898 168.856 19.8359 164.387C19.8158 164.245 19.8529 164.1 19.9389 163.985C20.0249 163.87 20.153 163.794 20.2952 163.772C20.4328 163.753 20.5724 163.787 20.6863 163.866C20.8003 163.946 20.8802 164.065 20.9102 164.201C21.8366 168.591 22.7708 173.176 23.6816 177.824L25.6512 188.069C25.7212 188.388 25.7835 188.731 25.8458 189.065C25.9697 189.829 26.1361 190.585 26.344 191.331C26.8977 193.122 28.0421 194.672 29.5903 195.729C29.7556 195.85 29.9271 195.961 30.1041 196.064C31.8885 197.1 33.9935 197.438 36.0128 197.014C37.1368 196.764 38.1971 196.284 39.1267 195.605L39.4926 195.332L39.2279 194.951C38.4931 193.891 37.9649 192.703 37.6709 191.447C37.484 190.596 37.3617 189.732 37.305 188.863C37.305 188.528 37.2428 188.201 37.2038 187.874L36.184 177.536C35.7403 172.811 35.3277 168.194 34.9696 163.733C34.9608 163.589 35.0082 163.447 35.1019 163.336C35.1474 163.282 35.2032 163.238 35.266 163.206C35.3289 163.174 35.3975 163.155 35.4678 163.15C35.606 163.134 35.7446 163.174 35.8539 163.26C35.9631 163.346 36.0342 163.471 36.0517 163.609C36.69 168.007 37.3206 172.632 37.9356 177.334L39.2357 187.648C39.2824 187.96 39.3213 188.287 39.3602 188.606C39.4348 189.391 39.557 190.171 39.7261 190.941C39.9209 191.709 40.2278 192.443 40.637 193.121C41.2287 194.119 42.0245 194.982 42.9724 195.651L43.0503 195.714L43.206 195.822C44.9183 196.961 46.9926 197.421 49.0257 197.115C51.0588 196.808 52.9052 195.757 54.2059 194.164C54.5307 193.78 54.8175 193.366 55.0622 192.927L55.1634 192.74L55.0934 192.537C54.9303 192.074 54.7951 191.6 54.6886 191.12C54.5169 190.223 54.436 189.31 54.4472 188.396L54.3616 183.273C54.2448 176.804 54.1903 170.117 54.2059 162.846C54.2059 162.701 54.2633 162.563 54.3655 162.461C54.4677 162.358 54.6063 162.301 54.7509 162.301C54.8954 162.301 55.034 162.358 55.1362 162.461C55.2384 162.563 55.2958 162.701 55.2958 162.846C55.7317 170.133 56.0743 176.804 56.3156 183.242L56.5336 188.349C56.5389 189.133 56.6171 189.915 56.7671 190.685C56.9341 191.414 57.1958 192.118 57.5456 192.779C57.5732 192.833 57.6044 192.885 57.639 192.934C58.3473 194.207 59.3788 195.27 60.6296 196.017C61.8803 196.763 63.3058 197.166 64.7621 197.185H64.8633C66.3504 197.186 67.8109 196.79 69.0943 196.039C70.3778 195.288 71.4379 194.208 72.1655 192.911L72.2278 192.802C72.5887 192.138 72.851 191.424 73.0063 190.685C73.1509 189.946 73.2265 189.195 73.232 188.442L73.45 183.227C73.6913 177.123 74.0183 170.452 74.4698 162.83C74.4698 162.686 74.5272 162.547 74.6294 162.445C74.7316 162.343 74.8702 162.285 75.0148 162.285C75.1593 162.285 75.2979 162.343 75.4001 162.445C75.5023 162.547 75.5597 162.686 75.5597 162.83C75.5597 170.467 75.513 177.147 75.3962 183.258L75.3106 188.365C75.3245 189.276 75.2462 190.186 75.077 191.082C74.9725 191.564 74.84 192.039 74.68 192.506L74.6099 192.701L74.7111 192.888C74.9558 193.329 75.2425 193.747 75.5675 194.133C76.8706 195.724 78.7186 196.772 80.7522 197.076C82.7812 197.369 84.8477 196.915 86.5674 195.799L86.7231 195.69L86.801 195.628C87.7482 194.958 88.5439 194.096 89.1364 193.098C89.5444 192.418 89.8464 191.681 90.0317 190.91C90.1996 190.139 90.3243 189.36 90.4054 188.575C90.4054 188.263 90.4754 187.952 90.5221 187.633L91.8222 177.326C92.4372 172.655 93.0678 167.984 93.7061 163.601C93.7148 163.53 93.7379 163.462 93.774 163.4C93.8102 163.339 93.8586 163.285 93.9163 163.243C93.9738 163.2 94.0392 163.169 94.1087 163.152C94.1781 163.135 94.2503 163.131 94.3211 163.142C94.4588 163.161 94.5838 163.232 94.6706 163.341C94.7574 163.45 94.7995 163.587 94.7882 163.726C94.4301 168.163 94.0097 172.811 93.5738 177.52L92.554 187.859C92.5125 188.186 92.4813 188.513 92.4605 188.84C92.3939 189.711 92.2691 190.577 92.0869 191.432C91.797 192.696 91.2685 193.893 90.5299 194.958L90.2652 195.332L90.6389 195.605C91.5661 196.285 92.6277 196.76 93.7528 196.998C94.7546 197.208 95.7864 197.232 96.7967 197.068C97.8077 196.918 98.7803 196.574 99.6615 196.056C99.8384 195.956 100.01 195.847 100.175 195.729C101.726 194.686 102.869 193.141 103.414 191.354C103.621 190.6 103.79 189.836 103.92 189.065L104.107 188.084L106.123 177.824C107.042 173.153 107.968 168.591 108.894 164.201C108.919 164.058 108.999 163.931 109.118 163.848C109.236 163.765 109.382 163.732 109.525 163.757C109.667 163.782 109.794 163.862 109.877 163.98C109.961 164.098 109.993 164.245 109.969 164.387C109.315 168.848 108.606 173.472 107.859 178.135L106.17 188.419C106.1 188.769 106.045 189.112 105.991 189.462C105.877 190.306 105.708 191.14 105.485 191.961C104.994 193.614 104.094 195.116 102.869 196.329L102.293 196.92L103.11 197.115H103.157C103.605 197.186 104.058 197.222 104.511 197.224C106.406 197.22 108.244 196.571 109.721 195.383C111.198 194.196 112.227 192.542 112.639 190.692C112.717 190.35 115.838 175.652 119.404 157.638C124.199 133.365 129.804 103.074 129.804 93.8023C129.797 59.7671 103.11 36 64.9023 36Z" fill="#57D1E5"/>
<path d="M47.4563 60.9429C41.8826 60.9429 36.4341 62.5957 31.7998 65.6922C27.1654 68.7888 23.5534 73.1901 21.4204 78.3395C19.2874 83.4889 18.7294 89.1552 19.8167 94.6218C20.9041 100.088 23.5881 105.11 27.5293 109.051C31.4705 112.992 36.4919 115.676 41.9585 116.764C47.4251 117.851 53.0913 117.293 58.2408 115.16C63.3902 113.027 67.7915 109.415 70.888 104.781C73.9846 100.146 75.6374 94.6976 75.6374 89.1239C75.6271 81.653 72.6547 74.491 67.372 69.2083C62.0892 63.9255 54.9272 60.9532 47.4563 60.9429Z" fill="#4D9BB6"/>
<path d="M16.4727 86.8505C16.4712 92.4261 18.1231 97.8769 21.2196 102.514C24.3161 107.15 28.7181 110.764 33.8688 112.899C39.0195 115.034 44.6876 115.593 50.1562 114.506C55.6248 113.42 60.6483 110.736 64.5914 106.794C68.5344 102.852 71.2199 97.8288 72.3082 92.3605C73.3965 86.8922 72.8388 81.224 70.7054 76.0727C68.5721 70.9214 64.9591 66.5184 60.3233 63.4207C55.6875 60.3229 50.2371 58.6694 44.6616 58.6694C37.1893 58.6777 30.0253 61.6491 24.7409 66.9321C19.4565 72.2151 16.483 79.3782 16.4727 86.8505Z" fill="url(#paint0_linear_37_4)"/>
<path d="M63.8901 87.2632C63.4775 99.0961 55.0232 105.355 49.6361 104.078C45.1131 103.012 44.5526 92.9695 47.3785 90.3304C49.239 88.6022 52.9291 88.1273 52.968 86.8817C53.0069 85.6361 49.3636 84.9044 47.6354 83.0516C44.9963 80.2257 46.2575 70.2455 50.8505 69.4904C56.2999 68.5952 64.3105 75.4302 63.8979 87.2632" fill="#3B2D55"/>
<g opacity="0.15">
<path d="M58.3006 72.293C60.7372 75.4069 62.4577 79.8676 62.2631 85.5272C61.8505 97.3601 53.3961 103.627 48.0013 102.35C47.6547 102.265 47.3237 102.126 47.0204 101.938C47.2836 102.458 47.6519 102.919 48.1021 103.29C48.5524 103.661 49.0747 103.935 49.6361 104.094C55.0232 105.371 63.4775 99.1117 63.8901 87.2788C64.1314 80.4437 61.5546 75.2823 58.3006 72.3085" fill="#3B2D55"/>
</g>
<path d="M18.5824 51.71C6.85843 61.9237 0 76.528 0 93.748C0 110.003 16.9943 189.867 17.1266 190.685C17.498 192.328 18.3616 193.819 19.6022 194.959C15.4217 174.835 2.01627 109.473 2.01627 94.3241C2.01627 77.3454 8.03394 62.6866 18.5824 51.71Z" fill="#93E1EF"/>
<path d="M34.1287 126.545C44.8764 128.865 56.0986 127.304 65.8051 122.139C68.9794 120.435 71.9781 118.422 74.7577 116.129C75.2269 115.844 75.7818 115.732 76.3249 115.815C76.868 115.898 77.3644 116.17 77.727 116.583C78.0895 116.996 78.295 117.523 78.3072 118.072C78.3194 118.621 78.1376 119.157 77.7938 119.586C71.8784 124.991 64.6187 128.707 56.7747 130.344C49.0252 132.061 40.966 131.774 33.358 129.511C33.0255 129.358 32.7576 129.093 32.6013 128.762C32.445 128.431 32.4102 128.056 32.5032 127.702C32.5961 127.348 32.8107 127.038 33.1094 126.826C33.4081 126.615 33.7717 126.515 34.1365 126.545" fill="#4D9BB6"/>
<path d="M32.7741 125.837C43.5227 128.159 54.7463 126.595 64.4506 121.423C67.6264 119.724 70.6253 117.714 73.4031 115.421C73.8641 115.047 74.4519 114.866 75.0434 114.916C75.6348 114.966 76.184 115.243 76.5756 115.689C76.9673 116.135 77.171 116.716 77.1441 117.308C77.1172 117.901 76.8618 118.461 76.4314 118.87C70.5196 124.282 63.2588 128.001 55.4124 129.636C47.6656 131.34 39.6128 131.045 32.0112 128.78C31.6788 128.627 31.4109 128.361 31.2546 128.031C31.0982 127.7 31.0635 127.324 31.1564 126.97C31.2493 126.616 31.4639 126.306 31.7626 126.095C32.0613 125.883 32.4249 125.784 32.7897 125.814" fill="#3B2D55"/>
<path d="M199.735 159.078C199.735 159.187 199.735 159.296 199.681 159.405C199.626 159.514 199.634 159.6 199.603 159.693C199.572 159.787 199.533 159.911 199.494 160.02C199.455 160.129 199.408 160.207 199.362 160.3C199.315 160.394 199.253 160.518 199.19 160.62C199.128 160.721 199.074 160.814 199.011 160.908C198.949 161.001 198.863 161.118 198.786 161.227C198.708 161.336 198.638 161.414 198.552 161.507L198.256 161.834L197.976 162.106L197.61 162.433L197.291 162.698C197.127 162.83 196.948 162.955 196.769 163.08L196.442 163.313C196.232 163.461 196.006 163.601 195.773 163.741L195.477 163.92C195.096 164.138 194.699 164.364 194.255 164.574L193.905 164.746L192.838 165.236L192.324 165.454L191.639 165.726C191.429 165.812 191.211 165.898 190.985 165.976C190.759 166.053 190.503 166.155 190.253 166.24L189.545 166.489L188.767 166.746L187.988 166.98L187.132 167.229L186.034 167.533C185.333 167.727 184.602 167.906 183.862 168.077L183.216 168.225C182.648 168.358 182.064 168.482 181.464 168.607L180.873 168.731C180.094 168.887 179.316 169.035 178.537 169.175L178.109 169.245C177.432 169.362 176.755 169.471 176.062 169.572L175.205 169.704L174.053 169.86L173.072 169.993L171.897 170.133L170.908 170.249L169.701 170.382L168.697 170.483L167.467 170.592L166.51 170.678L163.839 170.872H163.45L161.115 170.997L160.22 171.036L158.663 171.098H157.713H156.117H155.222H150.551H149.188H148.254L146.775 171.051H145.997L144.222 170.973H143.723L141.466 170.841H141.092L139.177 170.709L138.399 170.639L136.935 170.506L136.157 170.436L134.6 170.265L133.72 170.164L132.295 169.993L131.517 169.884C130.738 169.782 130.022 169.681 129.283 169.564L128.893 169.51C128.047 169.375 127.214 169.235 126.394 169.089L125.873 168.996C124.806 168.794 123.763 168.591 122.759 168.365L122.455 168.295C121.389 168.062 120.346 167.813 119.341 167.517C112.335 165.656 107.991 163.368 106.255 160.97C105.715 160.277 105.415 159.427 105.399 158.549L105.313 184.239C105.313 187.477 109.984 190.731 119.256 193.199C120.252 193.464 121.295 193.713 122.37 193.978L122.673 194.048C123.685 194.266 124.736 194.476 125.787 194.67L126.068 194.725L126.309 194.772C127.129 194.917 127.962 195.057 128.808 195.192L129.197 195.247L131.431 195.566L131.805 195.62L132.241 195.675L133.666 195.846L134.553 195.947C135.075 196.009 135.604 196.064 136.11 196.111L136.709 196.173H136.873L138.321 196.297C138.593 196.297 138.858 196.352 139.099 196.368C139.73 196.422 140.36 196.469 140.999 196.508H141.357L143.615 196.632C143.786 196.632 143.957 196.632 144.128 196.632L145.888 196.718H145.927H146.705L148.137 196.765H149.087C149.539 196.765 149.982 196.765 150.434 196.765H153.75H155.128H155.385H156.031H157.588H158.554L160.111 196.702H160.64H161.006C161.784 196.702 162.563 196.624 163.341 196.57H163.731C164.626 196.515 165.521 196.453 166.401 196.375H166.65L167.35 196.313L168.588 196.196L169.592 196.095L170.799 195.97L171.788 195.854L172.971 195.714L173.944 195.581L175.096 195.418L175.595 195.348L175.953 195.293L178.008 194.958L178.428 194.888C179.207 194.748 179.985 194.6 180.764 194.445L181.355 194.328C181.947 194.203 182.539 194.079 183.107 193.946L183.753 193.799C184.493 193.619 185.224 193.44 185.925 193.254L186.501 193.098L187.023 192.95L187.879 192.701L188.658 192.46L189.436 192.203L190.144 191.961L190.923 191.697L191.569 191.448L192.254 191.175L192.534 191.058L192.768 190.949C193.142 190.794 193.492 190.63 193.834 190.459L194.185 190.295C194.613 190.077 195.026 189.859 195.407 189.641H195.461C195.547 189.595 195.617 189.54 195.703 189.486C195.936 189.346 196.162 189.205 196.372 189.065L196.699 188.832C196.886 188.707 197.057 188.575 197.221 188.45L197.361 188.341L197.54 188.186L197.906 187.859L198.186 187.586L198.482 187.251C198.533 187.206 198.579 187.157 198.622 187.104L198.716 186.971L198.941 186.66L199.128 186.372L199.292 186.053C199.327 185.998 199.359 185.941 199.385 185.881C199.385 185.842 199.385 185.804 199.424 185.765C199.463 185.726 199.502 185.547 199.533 185.445C199.565 185.351 199.591 185.255 199.611 185.157C199.611 185.048 199.65 184.939 199.665 184.83C199.681 184.721 199.665 184.698 199.665 184.636V184.441L199.751 158.751C199.751 158.86 199.746 158.97 199.735 159.078Z" fill="#E5E5E4"/>
<path d="M185.824 149.729C204.328 154.641 204.43 162.62 186.042 167.533C167.654 172.445 137.737 172.453 119.232 167.533C100.728 162.613 100.627 154.641 119.022 149.721C137.418 144.801 167.319 144.809 185.824 149.729Z" fill="#D6D6D6"/>
<path d="M186.042 167.206C167.654 172.126 137.737 172.126 119.232 167.206C110.116 164.785 105.477 161.624 105.305 158.448C105.157 161.733 109.797 165.034 119.232 167.54C137.737 172.453 167.654 172.453 186.042 167.54C195.384 165.049 199.93 161.764 199.751 158.494C199.619 161.647 195.057 164.8 186.042 167.206Z" fill="white"/>
<path d="M199.899 130.531C199.899 130.64 199.899 130.749 199.852 130.858C199.805 130.967 199.798 131.045 199.774 131.146C199.751 131.248 199.704 131.357 199.657 131.465C199.611 131.574 199.58 131.66 199.533 131.754C199.486 131.847 199.424 131.972 199.362 132.073L199.183 132.361C199.105 132.462 199.035 132.571 198.949 132.672L198.723 132.952C198.628 133.07 198.527 133.181 198.42 133.287C198.334 133.381 198.241 133.466 198.139 133.56C198.038 133.653 197.906 133.778 197.774 133.887C197.641 133.996 197.571 134.066 197.454 134.151C197.338 134.237 197.12 134.408 196.941 134.533L196.606 134.766L195.944 135.187L195.648 135.373C195.267 135.591 194.87 135.809 194.418 136.027C194.309 136.082 194.185 136.136 194.076 136.199L193.001 136.689L192.488 136.907L191.81 137.18L191.156 137.429L190.378 137.693L189.677 137.935C189.413 138.028 189.148 138.106 188.899 138.192L188.12 138.433L187.264 138.682L186.174 138.986C185.466 139.18 184.742 139.359 184.002 139.531L183.356 139.678L181.604 140.06L181.005 140.185C180.227 140.332 179.448 140.48 178.67 140.62L178.241 140.698C177.572 140.807 176.887 140.924 176.194 141.025L175.338 141.15C174.956 141.212 174.559 141.259 174.193 141.313L173.212 141.446L172.037 141.586L171.04 141.703L169.834 141.835L168.837 141.928L167.623 142.014L166.673 142.092C165.786 142.17 164.898 142.232 164.003 142.294C163.871 142.294 163.738 142.294 163.606 142.294L161.27 142.419H160.367L158.849 142.481H157.892H156.335H155.447H150.777H149.422H148.488L147.009 142.434H146.23L144.455 142.349H143.957L141.699 142.216H141.334C140.69 142.18 140.052 142.133 139.418 142.076L138.64 142.014L137.176 141.882L136.398 141.804C135.869 141.757 135.339 141.703 134.841 141.64L133.961 141.539L132.529 141.368L131.75 141.259C130.972 141.158 130.256 141.056 129.524 140.94L129.127 140.885C128.286 140.753 127.453 140.613 126.636 140.465L126.114 140.364C125.048 140.169 124.005 139.959 123 139.741L122.697 139.671C121.63 139.437 120.595 139.188 119.583 138.892C112.576 137.039 108.24 134.751 106.504 132.353C105.963 131.66 105.66 130.811 105.64 129.932L105.391 155.676C105.391 158.915 110.062 162.161 119.334 164.637C120.33 164.901 121.373 165.15 122.448 165.415L122.751 165.485C123.763 165.703 124.814 165.913 125.865 166.108L126.145 166.162L126.387 166.209C127.207 166.36 128.04 166.5 128.886 166.63L129.275 166.684L131.509 167.003L131.883 167.058L132.319 167.112L133.743 167.283L134.631 167.385C135.152 167.447 135.682 167.501 136.188 167.548L136.787 167.61H136.951L138.399 167.735C138.671 167.735 138.936 167.79 139.177 167.805C139.808 167.86 140.438 167.906 141.077 167.945H141.435L143.692 168.07H144.206L145.966 168.155H146.004H146.783L148.215 168.202H149.165C149.617 168.202 150.06 168.202 150.512 168.202H153.828H155.206H155.463H156.109H157.666H158.631L160.188 168.14H160.718H161.084C161.862 168.14 162.641 168.062 163.419 168.007H163.808C164.704 167.953 165.599 167.883 166.479 167.813H166.728L167.428 167.751L168.666 167.634L169.67 167.533L170.877 167.408L171.866 167.291L173.049 167.151L174.022 167.019L175.174 166.855L175.672 166.785L176.031 166.731L178.086 166.396L178.506 166.326C179.285 166.186 180.063 166.038 180.842 165.882L181.433 165.765C182.025 165.641 182.616 165.516 183.185 165.384L183.831 165.236C184.57 165.057 185.302 164.878 186.003 164.691L186.579 164.535L187.101 164.388L187.957 164.138L188.735 163.897L189.514 163.64L190.222 163.399L191.001 163.134L191.647 162.885L192.332 162.613L192.612 162.496L192.846 162.387C193.219 162.231 193.57 162.068 193.912 161.896L194.263 161.733C194.691 161.515 195.103 161.297 195.485 161.079H195.539C195.625 161.032 195.695 160.978 195.781 160.923C196.014 160.783 196.24 160.643 196.45 160.503L196.777 160.269C196.964 160.145 197.135 160.012 197.299 159.888L197.439 159.779L197.618 159.623L197.984 159.296L198.264 159.024L198.56 158.689C198.61 158.644 198.657 158.594 198.7 158.541L198.793 158.409L199.019 158.097L199.206 157.809L199.369 157.49C199.405 157.436 199.436 157.378 199.463 157.319C199.463 157.319 199.463 157.241 199.502 157.202C199.541 157.163 199.58 156.984 199.611 156.875C199.644 156.784 199.67 156.69 199.689 156.595C199.689 156.486 199.728 156.377 199.743 156.268C199.759 156.159 199.743 156.136 199.743 156.073V155.879L200 130.142C199.974 130.274 199.94 130.404 199.899 130.531Z" fill="#E5E5E4"/>
<path d="M185.995 121.182C204.5 126.094 204.593 134.073 186.213 138.986C167.833 143.898 137.9 143.906 119.396 138.986C100.891 134.066 100.798 126.094 119.186 121.174C137.573 116.254 167.483 116.262 185.995 121.182Z" fill="#D6D6D6"/>
<path d="M186.213 138.659C167.818 143.579 137.9 143.579 119.396 138.659C110.28 136.237 105.64 133.077 105.469 129.901C105.329 133.186 109.968 136.487 119.396 138.986C137.9 143.906 167.818 143.906 186.213 138.986C195.555 136.494 200.101 133.209 199.922 129.94C199.782 133.1 195.228 136.245 186.213 138.659Z" fill="white"/>
<path d="M199.899 102.233C199.899 102.342 199.899 102.451 199.852 102.56C199.805 102.669 199.798 102.747 199.774 102.848C199.751 102.95 199.704 103.059 199.657 103.168C199.611 103.276 199.58 103.362 199.533 103.456L199.362 103.775L199.183 104.063C199.105 104.164 199.035 104.273 198.949 104.374L198.762 104.647C198.667 104.764 198.566 104.876 198.459 104.981C198.373 105.075 198.28 105.16 198.178 105.254C198.077 105.347 197.945 105.472 197.812 105.581C197.68 105.69 197.61 105.76 197.493 105.845C197.377 105.931 197.159 106.102 196.979 106.227L196.645 106.46L195.983 106.881L195.687 107.068C195.306 107.286 194.909 107.504 194.457 107.722C194.348 107.776 194.224 107.831 194.115 107.893L193.04 108.383L192.527 108.601L191.849 108.874L191.195 109.123L190.417 109.388L189.716 109.629L188.938 109.886L188.159 110.127L187.303 110.376L186.213 110.68C185.505 110.874 184.781 111.054 184.041 111.225L183.395 111.373L181.643 111.754L181.044 111.879C180.265 112.027 179.487 112.175 178.709 112.315L178.28 112.393C177.611 112.502 176.926 112.618 176.233 112.719L175.377 112.844C174.995 112.906 174.598 112.953 174.232 113.008L173.251 113.14L172.076 113.28L171.079 113.397L169.873 113.529L168.876 113.623L167.638 113.739L166.689 113.817C165.801 113.895 164.914 113.957 164.019 114.02H163.622C162.843 114.074 162.065 114.113 161.286 114.152H160.383L158.865 114.214H157.907H156.35H155.463H150.792H149.438H148.503L147.024 114.167H146.246L144.471 114.082H143.973L141.715 113.949H141.349C140.706 113.908 140.067 113.861 139.434 113.809L138.656 113.747L137.192 113.615L136.414 113.537C135.884 113.49 135.355 113.436 134.857 113.373L133.977 113.272L132.544 113.101L131.766 112.992C130.988 112.891 130.271 112.79 129.54 112.673L129.143 112.618C128.302 112.486 127.469 112.346 126.651 112.198L126.13 112.097C125.063 111.902 124.02 111.692 123.016 111.474L122.712 111.404C121.646 111.17 120.61 110.921 119.598 110.625C112.592 108.773 108.256 106.484 106.52 104.086C105.978 103.393 105.675 102.544 105.656 101.665L105.344 127.223C105.344 130.461 109.976 133.707 119.295 136.183C120.291 136.448 121.327 136.697 122.409 136.961L122.712 137.032C123.732 137.249 124.775 137.46 125.826 137.654L126.106 137.709L126.348 137.748C127.165 137.896 127.998 138.036 128.839 138.168L129.236 138.23L131.47 138.55L131.836 138.604L132.272 138.659L133.704 138.83L134.584 138.931L136.141 139.094L136.74 139.157H136.904L138.36 139.281L139.138 139.351C139.769 139.406 140.407 139.445 141.046 139.492H141.404C142.182 139.546 142.906 139.585 143.661 139.624H144.183L145.934 139.702H145.981H146.76L148.192 139.748H149.15H150.489H153.813H155.183H155.44H156.086H157.643H158.6L160.157 139.694H160.694H161.06L163.396 139.562H163.785C164.68 139.507 165.568 139.437 166.455 139.367H166.704L167.405 139.305L168.643 139.188L169.639 139.087L170.846 138.962L171.842 138.845L173.018 138.697L173.991 138.573L175.143 138.409L175.649 138.339L175.999 138.285L178.055 137.95L178.475 137.88C179.274 137.74 180.053 137.592 180.81 137.436L181.41 137.312C182.001 137.195 182.585 137.063 183.161 136.938L183.808 136.79C184.547 136.611 185.271 136.432 185.98 136.245L186.556 136.09L187.069 135.934L187.934 135.685L188.712 135.451L189.49 135.194L190.191 134.953L190.931 134.688L191.585 134.439L192.262 134.167L192.542 134.05C192.622 134.018 192.7 133.982 192.776 133.941L193.85 133.45L194.193 133.287C194.628 133.069 195.041 132.851 195.423 132.625H195.469L195.718 132.47L196.388 132.049L196.715 131.816C196.894 131.691 197.065 131.559 197.229 131.434L197.377 131.325C197.439 131.271 197.486 131.216 197.548 131.17C197.61 131.123 197.797 130.952 197.914 130.843C198.03 130.734 198.108 130.656 198.194 130.562C198.28 130.469 198.404 130.344 198.498 130.235C198.591 130.126 198.591 130.142 198.63 130.087C198.669 130.033 198.692 130.002 198.731 129.955L198.957 129.644L199.136 129.356L199.307 129.036L199.541 128.78C199.541 128.741 199.541 128.702 199.58 128.663C199.619 128.624 199.657 128.445 199.696 128.336C199.735 128.227 199.751 128.149 199.774 128.048C199.797 127.943 199.813 127.836 199.821 127.729C199.821 127.659 199.821 115.903 199.821 115.841C199.821 115.779 199.821 127.402 199.821 127.339L199.907 101.844C199.912 101.974 199.909 102.104 199.899 102.233Z" fill="#E5E5E4"/>
<path d="M185.995 92.8839C204.5 97.7961 204.593 105.776 186.213 110.688C167.833 115.6 137.9 115.608 119.396 110.688C100.891 105.768 100.798 97.8039 119.186 92.8839C137.573 87.9638 167.483 87.9638 185.995 92.8839Z" fill="#D6D6D6"/>
<path d="M186.213 110.361C167.818 115.281 137.9 115.281 119.396 110.361C110.28 107.94 105.64 104.779 105.469 101.603C105.329 104.888 109.968 108.189 119.396 110.688C137.9 115.608 167.818 115.608 186.213 110.688C195.555 108.197 200.101 104.912 199.922 101.642C199.782 104.803 195.228 107.948 186.213 110.361Z" fill="white"/>
<path d="M163.816 187.516V91.148L91.137 90.6731V186.263L94.321 199.622H148.558C158.522 199.622 163.816 194.297 163.816 187.516Z" fill="url(#paint1_linear_37_4)"/>
<path d="M147.336 91.1169H159.986L147.336 78.4666V91.1169Z" fill="#B03831"/>
<path d="M147.343 78.4509H99.1008V98.31H147.343V78.4509Z" fill="#FAB533"/>
<path d="M106.201 88.6178C106.195 87.8903 106.336 87.1691 106.614 86.4967C106.891 85.8244 107.301 85.2145 107.818 84.7029C108.336 84.1914 108.95 83.7887 109.626 83.5184C110.301 83.2482 111.024 83.1159 111.751 83.1295C112.621 83.0896 113.487 83.269 114.269 83.6513C115.051 84.0336 115.725 84.6064 116.227 85.317L114.024 87.0141C113.761 86.6382 113.412 86.3306 113.005 86.1167C112.599 85.9028 112.148 85.7888 111.689 85.7841C111.337 85.7968 110.992 85.8801 110.673 86.029C110.355 86.1779 110.069 86.3894 109.834 86.6508C109.599 86.9123 109.418 87.2184 109.304 87.551C109.189 87.8835 109.142 88.2357 109.167 88.5866C109.139 88.939 109.183 89.2934 109.296 89.6282C109.41 89.9631 109.59 90.2715 109.825 90.5349C110.061 90.7983 110.348 91.0111 110.668 91.1607C110.988 91.3102 111.336 91.3932 111.689 91.4047C112.161 91.4015 112.625 91.2827 113.04 91.0588C113.455 90.8349 113.809 90.5126 114.071 90.1202L116.266 91.6772C115.599 92.6545 114.637 93.3926 113.52 93.7834C112.403 94.1742 111.19 94.1973 110.059 93.8493C108.928 93.5013 107.938 92.8005 107.234 91.8493C106.53 90.8982 106.149 89.7466 106.146 88.5633L106.201 88.6178Z" fill="#3B2D55"/>
<path d="M117.566 83.3086H121.692C125.445 83.3086 127.632 85.4806 127.632 88.5244C127.632 91.5683 125.414 93.8259 121.63 93.8259H117.566V83.3086ZM120.494 85.8854V91.2647H121.692C123.452 91.2647 124.612 90.3072 124.612 88.6023C124.612 86.913 123.452 85.9165 121.692 85.9165L120.494 85.8854Z" fill="#3B2D55"/>
<path d="M128.769 88.6177C128.764 87.8902 128.904 87.169 129.182 86.4967C129.46 85.8243 129.869 85.2144 130.387 84.7029C130.904 84.1914 131.518 83.7886 132.194 83.5184C132.869 83.2481 133.592 83.1159 134.319 83.1294C135.189 83.0888 136.055 83.268 136.838 83.6503C137.62 84.0326 138.293 84.6058 138.796 85.317L136.593 87.014C136.33 86.6368 135.981 86.3281 135.575 86.114C135.169 85.9 134.717 85.7868 134.257 85.784C133.906 85.7967 133.561 85.8801 133.243 86.029C132.924 86.178 132.639 86.3896 132.405 86.6512C132.17 86.9128 131.99 87.219 131.877 87.5515C131.763 87.884 131.717 88.2361 131.743 88.5866C131.714 88.9386 131.757 89.2927 131.869 89.6276C131.982 89.9624 132.161 90.2709 132.396 90.5344C132.631 90.7979 132.917 91.011 133.237 91.1605C133.557 91.3101 133.904 91.3932 134.257 91.4047C134.729 91.4021 135.193 91.2836 135.608 91.0596C136.024 90.8357 136.378 90.5131 136.639 90.1202L138.842 91.6772C138.172 92.6493 137.209 93.3824 136.094 93.7698C134.979 94.1573 133.769 94.179 132.64 93.8318C131.512 93.4845 130.523 92.7864 129.819 91.8389C129.114 90.8915 128.73 89.744 128.722 88.5632L128.769 88.6177Z" fill="#3B2D55"/>
<path d="M81.6239 182.954H139.644C139.644 182.954 139.193 199.661 152.022 199.661H95.224C85.9523 199.661 81.6239 190.412 81.6239 182.954Z" fill="#D6D6D6"/>
<path d="M150.878 111.801H101.608V116.814H150.878V111.801Z" fill="#3B2D55"/>
<path d="M150.878 122.964H101.608V127.978H150.878V122.964Z" fill="#3B2D55"/>
<path d="M150.878 134.128H101.608V139.141H150.878V134.128Z" fill="#3B2D55"/>
<path d="M150.878 145.291H101.608V150.305H150.878V145.291Z" fill="#3B2D55"/>
<path d="M150.878 156.463H101.608V161.476H150.878V156.463Z" fill="#3B2D55"/>
<path d="M150.878 167.626H101.608V172.639H150.878V167.626Z" fill="#3B2D55"/>
<defs>
<linearGradient id="paint0_linear_37_4" x1="72.8427" y1="86.8505" x2="16.4805" y2="86.8505" gradientUnits="userSpaceOnUse">
<stop stop-color="#CECAD5"/>
<stop offset="0.66" stop-color="white"/>
<stop offset="1" stop-color="white"/>
</linearGradient>
<linearGradient id="paint1_linear_37_4" x1="91.137" y1="145.128" x2="163.816" y2="145.128" gradientUnits="userSpaceOnUse">
<stop stop-color="white"/>
<stop offset="1" stop-color="#F0F0F0"/>
</linearGradient>
</defs>
</svg>
