<svg width="200" height="200" viewBox="0 0 200 200" fill="none" xmlns="http://www.w3.org/2000/svg">
<g clip-path="url(#clip0_54_112)">
<path d="M76.6837 167.902C76.5144 167.14 76.3452 166.378 76.0913 165.617L75.4989 163.924C77.2761 172.641 78.5455 184.912 79.561 190.666L79.7302 191.766C79.7302 192.105 79.8149 192.359 79.8995 192.613C79.8995 192.697 79.8995 192.782 79.8995 192.867V193.036C80.0687 193.628 80.4073 194.474 80.915 195.236C81.6767 196.59 82.8614 197.775 84.3001 198.621C85.6541 199.467 87.262 199.975 88.9545 200.06C89.293 200.06 89.5469 200.06 89.8008 200.06C90.7317 200.06 91.4933 199.467 91.8318 198.706C91.8318 198.621 91.8318 198.452 91.9165 198.367C92.0857 198.452 92.1703 198.536 92.3396 198.621C94.4553 199.891 96.9941 200.314 99.3636 199.891C100.21 199.721 100.971 199.467 101.818 199.044C102.326 198.79 102.749 198.283 102.918 197.775C103.172 197.944 103.426 198.198 103.68 198.367C105.711 199.721 108.165 200.314 110.619 199.975C112.735 199.721 114.766 198.706 116.289 197.098C116.458 196.929 116.543 196.759 116.627 196.59C117.304 197.436 118.151 198.113 119.082 198.621C119.928 199.129 120.689 199.467 121.536 199.637C122.297 199.891 123.144 199.975 124.159 199.975C127.036 200.06 129.829 198.706 131.776 196.505C131.86 196.675 132.029 196.844 132.114 197.013C133.637 198.537 135.668 199.552 137.784 199.891C140.238 200.229 142.692 199.637 144.723 198.283C144.977 198.113 145.231 197.944 145.485 197.69C145.654 198.283 146.077 198.706 146.585 198.96C147.431 199.383 148.193 199.637 149.039 199.806C151.409 200.229 154.032 199.806 156.063 198.536C156.148 198.536 156.233 198.452 156.317 198.367C156.317 198.452 156.317 198.621 156.402 198.706C156.74 199.552 157.502 200.06 158.433 200.144H158.602C158.687 200.144 158.856 200.144 158.941 200.144C160.464 200.144 161.987 199.637 163.341 198.79C164.611 198.029 165.711 197.013 166.642 195.744C167.488 194.559 168.165 193.29 168.757 191.766C170.535 187.027 172.735 173.741 174.004 167.14C173.496 169.848 172.904 172.472 172.312 175.095C170.788 181.357 169.18 186.604 167.403 191.259C166.896 192.697 166.303 193.797 165.542 194.813C164.695 195.913 163.764 196.844 162.664 197.521C161.564 198.198 160.295 198.536 159.025 198.621C158.941 198.621 158.856 198.621 158.771 198.621H158.602C158.348 198.621 158.094 198.452 157.925 198.198C157.841 197.944 157.925 197.606 158.094 197.436C159.364 196.167 160.295 194.644 160.802 192.951C161.056 192.02 161.141 191.259 161.226 190.497C161.226 190.158 161.31 189.82 161.395 189.481L162.918 179.242L163.849 172.387L164.78 165.532C164.78 165.363 164.695 165.194 164.526 165.109C164.357 165.109 164.188 165.194 164.103 165.363L162.833 172.133L161.564 178.903L159.787 189.058C159.787 189.397 159.702 189.735 159.618 189.989C159.448 190.835 159.364 191.682 159.11 192.274C158.518 194.221 157.164 195.998 155.386 197.098C153.609 198.113 151.494 198.536 149.378 198.113C148.701 197.944 148.024 197.775 147.347 197.436C147.178 197.352 147.008 197.182 147.008 196.929C147.008 196.759 147.008 196.505 147.178 196.336C148.193 195.151 148.87 193.713 149.209 192.274C149.209 192.02 149.293 191.851 149.378 191.597V191.174C149.378 191.089 149.462 191.005 149.462 190.92L150.563 178.48L151.155 171.625L151.663 164.771C151.663 164.601 151.578 164.432 151.324 164.432C151.24 164.432 151.07 164.432 151.07 164.432C151.07 164.432 150.986 164.517 150.901 164.686L149.97 171.541L149.124 178.395L147.939 188.635C147.939 188.974 147.939 189.228 147.855 189.566C147.77 190.412 147.685 191.259 147.516 191.936C147.008 193.967 145.739 195.744 144.046 196.929C142.354 198.029 140.238 198.537 138.123 198.283C136.345 198.029 134.653 197.182 133.299 195.913C133.045 195.659 133.045 195.321 133.214 195.067C133.214 194.898 133.214 194.813 133.299 194.728C133.722 193.967 133.976 193.12 134.23 192.105C134.399 191.174 134.484 190.074 134.484 189.481V184.404C134.653 180.68 134.653 177.38 134.653 174.249C134.653 170.948 134.653 167.648 134.653 164.094C134.653 163.924 134.484 163.755 134.314 163.755C134.145 163.755 133.976 163.924 133.976 164.094C133.722 167.563 133.553 170.948 133.383 174.249C133.214 177.295 133.045 180.68 132.876 184.404L132.622 189.735C132.622 190.497 132.622 191.174 132.368 191.851C132.199 192.697 131.945 193.374 131.606 193.967C130.168 196.675 127.121 198.452 124.159 198.367C123.398 198.367 122.636 198.283 121.959 198.113C121.282 197.944 120.605 197.606 119.843 197.267C118.574 196.505 117.474 195.321 116.712 193.967C116.289 193.29 116.035 192.443 115.95 191.851C115.781 191.089 115.781 190.412 115.697 189.481L115.443 184.404C115.273 180.511 115.104 177.295 114.935 174.249C114.766 171.033 114.596 167.563 114.342 164.094C114.342 163.924 114.173 163.755 114.004 163.755C113.835 163.755 113.665 163.924 113.665 164.094C113.665 167.563 113.665 170.948 113.665 174.249C113.665 177.295 113.665 180.511 113.75 184.404V189.481C113.75 190.582 113.919 191.428 114.089 192.19C114.342 193.205 114.596 194.051 115.019 194.813C115.019 194.813 115.019 194.982 115.104 194.982C115.273 195.405 115.189 195.744 115.019 195.913C113.75 197.267 111.973 198.113 110.196 198.367C108.165 198.621 105.964 198.198 104.272 197.013C102.579 195.828 101.31 194.051 100.802 192.02C100.633 191.343 100.548 190.582 100.464 189.735C100.464 189.397 100.464 189.058 100.379 188.804L99.1943 178.565L98.3481 171.71L97.4172 164.94C97.4172 164.771 97.2479 164.601 97.0787 164.601C96.9941 164.601 96.9094 164.601 96.8248 164.686C96.8248 164.686 96.7402 164.855 96.7402 164.94L97.2479 171.795L97.8403 178.649L98.9405 191.089C98.9405 191.089 98.9405 191.259 98.9405 191.343V191.597C98.9405 191.851 99.0251 192.105 99.1097 192.359C99.4482 193.882 100.125 195.236 101.141 196.505C101.31 196.675 101.31 196.929 101.31 197.098C101.31 197.267 101.141 197.521 100.971 197.606C100.294 197.944 99.6175 198.198 98.9405 198.283C96.9094 198.706 94.7091 198.283 92.932 197.267C91.1548 196.167 89.8008 194.474 89.2084 192.443C89.0392 191.851 88.8699 191.005 88.7007 190.158C88.7007 189.82 88.616 189.481 88.5314 189.228L86.7542 179.072L85.4848 172.302L84.2154 165.532C84.2154 165.363 84.0462 165.194 83.7923 165.278C83.7077 165.278 83.6231 165.363 83.5384 165.448C83.5384 165.448 83.5384 165.617 83.5384 165.701L84.4693 172.556L85.4002 179.411L86.9235 189.651C86.9235 189.989 87.0081 190.328 87.0927 190.666C87.1774 191.428 87.3466 192.19 87.6005 193.12C88.0236 194.728 88.9545 196.252 90.2239 197.521C90.3932 197.69 90.4778 198.029 90.3932 198.283C90.3086 198.537 90.0547 198.706 89.8008 198.706C89.5469 198.706 89.3777 198.706 89.1238 198.706C87.6851 198.621 86.3311 198.198 85.1463 197.436C83.9616 196.675 82.9461 195.659 82.269 194.474C81.8459 193.882 81.592 193.12 81.4228 192.613C81.4228 192.528 81.4228 192.443 81.4228 192.359C81.4228 192.19 81.3381 191.936 81.2535 191.682L81.0843 190.582C80.0687 184.827 78.9686 178.734 77.6992 172.556C77.3607 171.033 77.0222 169.594 76.6837 168.071V167.902Z" fill="#3B2D55"/>
<path d="M50.9572 73.9663C45.0334 84.6292 42.4946 96.9847 43.9332 108.832C44.2717 111.794 44.8641 114.756 45.7104 117.718C45.795 118.057 45.9643 118.395 46.0489 118.734C46.3874 119.834 46.7259 120.934 47.149 121.95C47.3183 122.288 47.4029 122.627 47.5722 122.965C47.9953 123.981 48.3338 125.081 48.8416 126.096C51.2957 131.512 54.5962 136.59 58.7429 141.16C60.0969 142.683 61.5356 144.206 62.8896 145.73C63.5666 146.491 64.2436 147.168 64.9206 147.93C67.3748 150.553 69.2366 152.838 70.8445 155.038C71.0137 155.292 71.183 155.546 71.3522 155.715C71.6061 156.139 71.9446 156.562 72.1985 156.985L73.3833 159.101C73.5525 159.439 73.7218 159.778 73.891 160.116L74.9065 162.316C74.9912 162.486 75.0758 162.739 75.1604 162.993C75.1604 163.163 75.2451 163.247 75.3297 163.416L75.4989 164.009L76.0913 165.701C76.3452 166.463 76.5145 167.225 76.6837 167.986C77.0222 169.51 77.3607 171.033 77.6992 172.472C78.9686 178.649 80.0688 184.827 81.0843 190.497L81.2535 191.597C81.2535 191.851 81.3382 192.105 81.4228 192.274C81.4228 192.359 81.4228 192.443 81.4228 192.528C81.592 193.036 81.8459 193.797 82.2691 194.39C82.9461 195.575 83.9616 196.59 85.1464 197.352C86.2465 198.029 87.6852 198.452 89.1238 198.621C89.3777 198.621 89.5469 198.621 89.8008 198.621C90.0547 198.621 90.3086 198.452 90.3932 198.198C90.4778 197.944 90.3932 197.606 90.2239 197.436C88.9546 196.167 88.1083 194.644 87.6005 193.036C87.3466 192.105 87.262 191.343 87.0928 190.582C87.0928 190.243 87.0081 189.905 86.9235 189.566L85.4002 179.326L84.4693 172.472L83.5385 165.617C83.5385 165.532 83.5385 165.448 83.5385 165.363C83.5385 165.363 83.6231 165.278 83.7923 165.194C83.9616 165.194 84.1308 165.278 84.2155 165.448L85.4849 172.218L86.7543 178.988L88.5314 189.143C88.5314 189.481 88.616 189.82 88.7007 190.074C88.8699 190.92 88.9545 191.766 89.2084 192.359C89.8008 194.305 91.1548 196.082 92.932 197.182C94.7092 198.283 96.9094 198.621 98.9405 198.198C99.6175 198.029 100.294 197.859 100.972 197.521C101.141 197.436 101.31 197.267 101.31 197.013C101.31 196.844 101.31 196.59 101.141 196.421C100.125 195.236 99.4482 193.797 99.1097 192.274C99.1097 192.02 99.0251 191.766 98.9405 191.513V191.259C98.9405 191.174 98.9405 191.089 98.9405 191.005L97.8403 178.565L97.2479 171.71L96.7402 164.855C96.7402 164.771 96.7402 164.601 96.8248 164.601C96.8248 164.601 96.9094 164.517 97.0787 164.517C97.248 164.517 97.4172 164.601 97.4172 164.855L98.3481 171.625L99.1944 178.48L100.379 188.72C100.379 189.058 100.379 189.312 100.464 189.651C100.548 190.497 100.633 191.343 100.802 191.936C101.31 193.967 102.579 195.744 104.272 196.929C105.964 198.113 108.08 198.537 110.196 198.283C111.973 198.029 113.75 197.182 115.02 195.828C115.273 195.575 115.273 195.236 115.104 194.982C115.104 194.813 115.104 194.728 115.02 194.644C114.596 193.882 114.342 193.12 114.089 192.02C113.919 191.343 113.835 190.412 113.835 189.312V184.235C113.665 180.342 113.665 177.126 113.665 174.079C113.665 170.779 113.665 167.394 113.665 163.924C113.665 163.755 113.835 163.586 114.004 163.586C114.173 163.586 114.343 163.755 114.343 163.924C114.596 167.394 114.766 170.779 114.935 174.079C115.104 177.126 115.273 180.342 115.443 184.235L115.697 189.312C115.697 190.243 115.697 190.92 115.95 191.682C116.12 192.274 116.374 193.12 116.712 193.797C117.474 195.151 118.574 196.336 119.843 197.098C120.52 197.521 121.282 197.775 121.959 197.944C122.636 198.113 123.398 198.198 124.159 198.198C127.206 198.283 130.168 196.505 131.606 193.797C131.945 193.205 132.199 192.528 132.368 191.682C132.537 191.005 132.537 190.328 132.622 189.566L132.876 184.235C133.045 180.511 133.214 177.211 133.383 174.079C133.553 170.864 133.722 167.394 133.976 163.924C133.976 163.755 134.145 163.586 134.314 163.586C134.484 163.586 134.653 163.755 134.653 163.924C134.653 167.479 134.653 170.779 134.653 174.079C134.653 177.126 134.653 180.511 134.568 184.235V189.312C134.484 189.905 134.484 191.005 134.23 191.936C133.976 192.951 133.722 193.797 133.299 194.559C133.299 194.559 133.299 194.644 133.214 194.728C133.045 195.151 133.13 195.49 133.299 195.659C134.568 197.013 136.345 197.859 138.123 198.113C140.154 198.367 142.354 197.944 144.046 196.759C145.824 195.575 147.093 193.797 147.516 191.766C147.685 191.089 147.77 190.243 147.855 189.397C147.855 189.058 147.855 188.804 147.939 188.466L149.124 178.226L149.97 171.371L150.901 164.517C150.901 164.432 150.986 164.347 151.07 164.263C151.07 164.263 151.24 164.178 151.324 164.263C151.494 164.263 151.663 164.432 151.663 164.601L151.155 171.456L150.563 178.311L149.463 190.751C149.463 190.835 149.463 190.92 149.463 191.005V191.428C149.378 191.682 149.378 191.851 149.293 192.105C148.955 193.544 148.278 194.982 147.262 196.167C147.093 196.336 147.093 196.59 147.093 196.759C147.093 196.929 147.262 197.182 147.431 197.267C148.108 197.606 148.785 197.859 149.463 197.944C151.494 198.367 153.694 197.944 155.471 196.929C157.248 195.828 158.687 194.136 159.195 192.105C159.364 191.428 159.533 190.666 159.702 189.82C159.702 189.481 159.787 189.143 159.872 188.889L161.649 178.734L162.918 171.964L164.188 165.194C164.188 165.024 164.441 164.855 164.611 164.94C164.78 164.94 164.949 165.109 164.865 165.363L163.934 172.218L163.003 179.072L161.479 189.312C161.479 189.651 161.395 189.989 161.31 190.328C161.226 191.089 161.056 191.851 160.887 192.782C160.464 194.474 159.533 195.998 158.179 197.267C158.01 197.436 157.925 197.775 158.01 198.029C158.094 198.283 158.348 198.452 158.687 198.452H158.856C158.941 198.452 159.025 198.452 159.11 198.452C160.379 198.452 161.649 198.029 162.749 197.352C163.849 196.675 164.78 195.828 165.626 194.644C166.388 193.628 166.98 192.443 167.488 191.089C169.265 186.435 170.873 181.103 172.396 174.926C172.989 172.302 173.581 169.679 174.089 166.971C175.697 158.762 176.797 150.13 177.474 141.329C178.32 129.058 178.151 117.972 176.966 107.394C175.527 94.7844 172.904 84.0368 168.842 74.5587C167.488 71.5121 166.134 68.8887 164.695 66.4345C163.003 63.7265 161.31 61.2723 159.448 58.9874C157.502 56.6178 155.386 54.4175 153.101 52.3865C150.901 50.4401 148.532 48.5783 145.824 46.8858C143.369 45.2779 140.661 43.8392 137.784 42.6545C134.907 41.4697 131.945 40.4542 129.152 39.7772C124.498 38.5924 119.505 38 114.427 38C109.35 38 112.142 38 111.042 38.0846C107.742 38.2539 104.78 38.5924 101.987 39.1001C100.887 39.2694 99.8714 39.5233 98.8559 39.6925C98.4327 39.7772 98.0096 39.8618 97.5018 40.031L95.3015 40.6234C94.7092 40.7927 93.8629 40.9619 93.1012 41.2158L90.901 41.8928L88.7853 42.6545C87.7698 42.993 86.7543 43.4161 85.7387 43.8392C85.3156 44.0085 84.8925 44.1777 84.4693 44.347C82.1844 45.3625 79.2225 46.7165 76.3452 48.3244C75.3297 48.8322 74.3988 49.4246 73.4679 50.017C73.1294 50.1862 72.7909 50.4401 72.4524 50.6094C72.0292 50.8632 71.6061 51.1171 71.2676 51.4556C71.0137 51.6249 70.8445 51.7941 70.5906 51.8788C69.9136 52.3865 69.2366 52.8096 68.7288 53.2328C66.5285 54.8407 64.3282 56.7025 61.7894 59.1566C57.3889 63.4726 53.6653 68.2963 50.788 73.4585L50.9572 73.9663Z" fill="#57D1E5"/>
<path d="M50.7033 128.72C50.8726 129.058 50.9572 129.481 51.1265 129.82C51.3804 130.581 51.7189 131.258 51.9727 132.02C50.8726 130.074 49.7725 128.127 48.9262 126.181C48.4184 125.165 47.9953 124.065 47.6568 123.05C47.4875 122.711 47.4029 122.373 47.2337 122.034C46.8105 120.934 46.472 119.834 46.1335 118.818C46.0489 118.48 45.9643 118.141 45.795 117.803C44.9487 114.926 44.3564 111.879 44.0179 108.917C42.5792 97.0693 45.0334 84.7139 51.0419 74.0509C53.9192 68.8887 57.6427 64.065 62.0433 59.749C64.5821 57.2949 66.7824 55.4331 68.9827 53.8252C69.4904 53.402 70.0828 52.9789 70.8445 52.4712C71.0983 52.3019 71.2676 52.1326 71.5215 52.048C71.9446 51.7941 72.3677 51.4556 72.7062 51.2018C73.0447 50.9479 73.3833 50.7786 73.7218 50.6094C74.6527 50.017 75.5835 49.4246 76.5991 48.9168C79.4764 47.2243 82.4383 45.8703 84.7232 44.9394C85.1463 44.7701 85.5695 44.6009 85.9926 44.4316C87.0081 44.0085 88.0236 43.5854 89.0392 43.2469L91.1548 42.4852L93.3551 41.8082C94.1168 41.5543 94.963 41.3005 95.5554 41.2158L97.7557 40.6234C98.2635 40.5388 98.6866 40.4542 99.1097 40.2849C100.125 40.0311 101.225 39.7772 102.241 39.6925C103.849 39.354 105.626 39.1002 107.403 38.9309C107.065 38.9309 106.641 39.1002 106.303 39.1848L103.933 39.7772C103.256 39.9464 102.41 40.2003 101.479 40.4542L99.1097 41.2158L96.7402 42.0621C95.64 42.4006 94.4553 42.9084 93.4397 43.3315C93.0166 43.5007 92.5089 43.67 92.0857 43.9239C89.5469 45.024 86.2465 46.5473 83.1153 48.3245C82.0152 48.9168 80.915 49.5939 79.8995 50.1862C79.561 50.4401 79.1379 50.6094 78.7994 50.8632C78.3762 51.1171 77.8685 51.4556 77.4453 51.7941C77.1914 51.9634 76.9376 52.1326 76.6837 52.3019C75.9221 52.8097 75.245 53.3174 74.6527 53.7405C72.2831 55.4331 69.8289 57.5487 67.0363 60.2568C62.1279 64.9959 58.0659 70.3273 54.9347 75.9973C48.4184 87.6758 45.6258 101.301 47.2337 114.333C47.6568 117.634 48.3338 120.934 49.1801 124.065C49.2647 124.404 49.434 124.827 49.5186 125.165C49.8571 126.35 50.2802 127.535 50.7033 128.72Z" fill="#93E1EF"/>
<path d="M93.1859 76.5897L85.6541 82.1751L72.7909 87.6758L65.0899 86.9988C61.197 91.9071 58.8275 98.1695 58.8275 105.024C58.8275 121.019 71.6907 133.967 87.6005 133.967C103.426 133.967 116.374 121.019 116.374 105.024C116.374 90.9762 106.388 79.2978 93.1859 76.6744V76.5897Z" fill="#4D9BB6"/>
<path d="M113.158 98.6771C110.619 84.9676 98.5173 75.3202 85.0617 75.3202C71.6061 75.3202 81.5074 75.4894 79.8149 75.828C64.2436 78.7053 54.0038 93.5995 56.8811 109.171C59.7584 124.657 74.7373 134.897 90.3086 132.02C105.88 129.143 116.12 114.248 113.242 98.6771H113.158Z" fill="white"/>
<path d="M113.158 98.6771C110.619 84.9676 98.5173 75.3202 85.0617 75.3202C71.6061 75.3202 81.5074 75.4894 79.8149 75.828C64.2436 78.7053 54.0038 93.5995 56.8811 109.171C59.7584 124.657 74.7373 134.897 90.3086 132.02C105.88 129.143 116.12 114.248 113.242 98.6771H113.158Z" fill="url(#paint0_linear_54_112)"/>
<path d="M67.2902 118.649C58.9968 109.256 61.0278 98.3388 66.1054 95.4615C70.3367 93.0073 78.0377 100.37 77.7838 104.432C77.6146 107.14 75.0758 110.102 76.0067 111.117C76.8529 112.133 80.238 110.017 82.8614 110.186C86.9235 110.44 93.1859 118.988 90.2239 122.88C86.6696 127.535 75.5835 128.043 67.2902 118.649Z" fill="#3B2D55"/>
<path d="M102.495 144.46C109.603 143.106 116.289 139.89 121.874 135.236C127.46 130.581 131.945 124.488 134.314 117.634C134.653 116.618 134.145 115.433 133.13 115.01C132.029 114.587 130.845 115.01 130.337 116.195C129.068 119.241 127.46 122.119 125.598 124.827C120.012 133.12 111.381 139.129 101.818 141.837C100.125 142.344 100.718 144.883 102.495 144.545V144.46Z" fill="#4D9BB6"/>
<path d="M101.056 144.46C108.165 143.106 114.85 139.89 120.436 135.236C126.021 130.581 130.506 124.488 132.876 117.634C133.214 116.618 132.706 115.433 131.691 115.01C130.591 114.587 129.406 115.01 128.898 116.195C127.629 119.241 126.021 122.119 124.159 124.827C118.574 133.12 109.942 139.129 100.379 141.837C98.6866 142.344 99.279 144.883 101.056 144.545V144.46Z" fill="#3B2D55"/>
<path d="M52.0574 173.826C54.3423 176.872 56.5426 179.749 58.7429 182.711C60.4354 184.912 62.1279 187.112 63.7359 189.397C64.9206 191.089 64.9206 193.036 63.9051 194.728C62.8896 196.505 61.1124 197.267 59.0814 197.013C57.3042 196.844 56.1195 195.828 55.2732 194.221C53.6653 191.089 52.0574 187.958 50.4495 184.827C49.1801 182.288 47.8261 179.749 46.472 177.126C42.7485 177.888 39.1942 177.464 35.8937 175.687C33.0164 174.164 30.5623 172.133 28.4466 169.679C24.6384 165.278 22.1842 160.285 21.2533 154.531C20.8302 151.992 20.9148 149.453 21.6765 146.999C22.3535 144.545 23.7075 142.514 25.9078 141.16C26.5002 140.737 27.1772 140.398 27.7696 139.975C31.8317 136.928 36.1476 137.098 40.5482 139.213C46.8952 142.26 51.0419 147.422 53.9192 153.769C55.1039 156.392 55.8656 159.185 56.0348 162.062C56.2887 166.548 55.6117 170.61 51.9728 173.741L52.0574 173.826ZM48.3338 172.387C48.9262 171.117 49.6878 169.848 50.111 168.494C50.788 166.378 50.7034 164.093 50.2802 161.893C48.6723 154.108 44.5256 148.014 37.5016 144.122C34.9628 142.683 32.1702 141.921 29.2082 143.106C27.8542 144.799 27.0926 146.745 26.9233 148.945C26.2463 157.746 32.6779 168.325 40.8867 171.71C43.1716 172.641 45.4565 172.979 48.3338 172.302V172.387Z" fill="#3B3253"/>
</g>
<defs>
<linearGradient id="paint0_linear_54_112" x1="108.249" y1="120.172" x2="61.3663" y2="87.2525" gradientUnits="userSpaceOnUse">
<stop stop-color="#CECAD5"/>
<stop offset="0.7" stop-color="white"/>
<stop offset="1" stop-color="white"/>
</linearGradient>
<clipPath id="clip0_54_112">
<rect width="200" height="200" fill="white"/>
</clipPath>
</defs>
</svg>
