<svg width="200" height="200" viewBox="0 0 200 200" fill="none" xmlns="http://www.w3.org/2000/svg">
<g clip-path="url(#clip0_36_3070)">
<path d="M80.6308 167.554L126.039 174.671L125.814 177.689C125.758 178.425 125.247 179.041 124.533 179.223L44.7416 200.383C43.9922 200.579 43.2007 200.502 42.5073 200.159L7.0454 182.55C6.23993 182.151 5.70761 181.346 5.64458 180.449L5.37842 177.423L80.6308 167.554Z" fill="#4F3A82"/>
<path d="M77.1078 118.469L81.3103 163.436C81.3103 163.436 7.20652 177.136 5.38545 177.493C5.00022 175.959 1.13394 134.299 0.0132793 122.308C-0.140812 120.669 1.0639 119.219 2.70287 119.065C2.73789 119.065 2.77991 119.065 2.81493 119.058L73.9629 115.766C75.5669 115.668 76.9607 116.866 77.1078 118.469Z" fill="#4F3A82"/>
<path d="M81.3032 163.324L126.095 174.691L44.7907 195.977C44.2654 196.117 43.7051 196.068 43.2078 195.837L5.38544 177.402L81.3032 163.324Z" fill="#3B2D55"/>
<path d="M8.5093 173.949L78.2985 161.972L74.159 118.896L3.52936 122.938L8.5093 173.949Z" fill="#7772AF"/>
<path d="M107.723 166.272C108.031 167.512 108.297 168.766 108.556 169.985C109.621 175.091 110.531 180.162 111.358 184.882L111.519 185.793C111.547 185.989 111.582 186.185 111.638 186.374L111.701 186.612V186.668C112.542 189.491 115.063 191.487 118.005 191.655C118.187 191.655 118.369 191.655 118.551 191.655C118.866 191.648 119.119 191.382 119.112 191.067C119.112 190.92 119.049 190.78 118.943 190.675C117.942 189.659 117.213 188.405 116.828 187.033C116.653 186.36 116.52 185.681 116.443 184.987C116.401 184.707 116.366 184.427 116.317 184.147L115.084 175.742L114.3 170.139L113.564 164.5C113.557 164.423 113.578 164.346 113.627 164.283C113.669 164.22 113.739 164.178 113.816 164.171C113.971 164.15 114.104 164.255 114.139 164.402L115.203 170.006L116.219 175.609L117.69 184.014C117.739 184.273 117.788 184.546 117.83 184.812C117.921 185.45 118.054 186.08 118.215 186.703C119.245 190.128 122.705 192.216 126.214 191.536C126.802 191.417 127.369 191.221 127.909 190.962C128.196 190.822 128.315 190.472 128.168 190.185C128.147 190.15 128.126 190.114 128.105 190.079C127.299 189.092 126.732 187.929 126.445 186.689C126.389 186.472 126.347 186.255 126.319 186.038V185.576L125.415 175.343L124.96 169.697L124.547 164.045C124.547 163.968 124.568 163.891 124.617 163.835C124.666 163.779 124.736 163.737 124.813 163.73C124.967 163.73 125.093 163.835 125.121 163.982L125.864 169.585L126.564 175.189L127.552 183.636C127.552 183.895 127.608 184.161 127.643 184.42C127.699 185.065 127.79 185.702 127.923 186.332C128.833 190.058 132.587 192.335 136.314 191.431C137.56 191.123 138.702 190.479 139.606 189.561C139.795 189.379 139.83 189.085 139.697 188.861L139.641 188.763L139.55 188.602C139.199 187.922 138.947 187.201 138.786 186.458C138.625 185.73 138.541 184.98 138.541 184.231L138.471 180.029C138.422 176.807 138.387 174.152 138.373 171.673V163.317C138.373 163.163 138.506 163.037 138.66 163.03C138.814 163.03 138.933 163.149 138.947 163.303C139.122 166.16 139.283 168.962 139.41 171.645C139.543 174.138 139.669 176.793 139.795 179.994L139.97 184.196C139.977 184.854 140.04 185.506 140.166 186.15C140.306 186.76 140.53 187.341 140.824 187.894C141.42 189.008 142.309 189.939 143.388 190.591C143.92 190.92 144.502 191.165 145.104 191.326C145.699 191.494 146.309 191.578 146.925 191.571C149.495 191.599 151.87 190.185 153.075 187.915C153.376 187.362 153.6 186.767 153.733 186.15C153.852 185.569 153.915 184.98 153.922 184.385L154.104 180.022C154.23 176.94 154.356 174.208 154.489 171.673C154.616 168.99 154.777 166.188 154.952 163.331C154.98 163.17 155.127 163.058 155.288 163.086C155.414 163.107 155.512 163.205 155.533 163.331V171.687C155.533 174.229 155.491 176.961 155.435 180.043L155.372 184.245C155.379 184.98 155.316 185.716 155.183 186.444C155.029 187.201 154.77 187.929 154.412 188.609L154.328 188.756L154.279 188.854C154.146 189.078 154.181 189.372 154.37 189.554C155.435 190.64 156.822 191.34 158.328 191.543C160.023 191.781 161.746 191.389 163.175 190.437C164.61 189.477 165.64 188.013 166.046 186.332C166.172 185.688 166.27 185.043 166.333 184.392L166.417 183.629L167.405 175.182L168.105 169.578L168.848 163.975C168.869 163.821 169.016 163.709 169.17 163.73C169.324 163.751 169.429 163.884 169.422 164.038L169.009 169.683L168.554 175.336L167.65 185.562V185.8L167.601 186.136C167.58 186.332 167.545 186.521 167.489 186.71C167.209 187.943 166.649 189.099 165.85 190.079C165.738 190.213 165.696 190.395 165.738 190.563C165.773 190.731 165.885 190.878 166.046 190.955C166.579 191.221 167.146 191.41 167.734 191.522C169.422 191.845 171.159 191.536 172.637 190.661C174.129 189.778 175.229 188.356 175.719 186.696C175.88 186.073 176.013 185.436 176.104 184.798C176.146 184.532 176.195 184.266 176.244 184L177.715 175.595L178.731 169.992L179.795 164.388C179.823 164.234 179.963 164.136 180.118 164.157C180.118 164.157 180.132 164.157 180.139 164.157C180.286 164.192 180.391 164.325 180.37 164.479L179.634 170.083L178.85 175.686L177.617 184.091C177.568 184.371 177.533 184.651 177.491 184.931C177.4 185.639 177.253 186.339 177.064 187.026C176.665 188.426 175.908 189.701 174.857 190.717C174.626 190.941 174.626 191.312 174.857 191.536C174.963 191.641 175.103 191.704 175.257 191.711H175.635C176.7 191.669 177.743 191.354 178.654 190.801C179.578 190.22 180.384 189.47 181.028 188.588C181.686 187.684 182.212 186.689 182.59 185.639C184.215 181.289 185.56 176.842 186.61 172.317C187.122 170.167 187.591 167.988 188.011 165.775C186.968 171.217 185.21 182.2 183.683 186.087C183.269 187.25 182.681 188.349 181.953 189.351C181.217 190.36 180.293 191.221 179.228 191.88C178.135 192.545 176.889 192.923 175.614 192.972H175.159C174.423 192.958 173.765 192.503 173.492 191.816C173.457 191.718 173.422 191.62 173.401 191.515L173.169 191.662C171.425 192.692 169.373 193.056 167.384 192.685C166.684 192.538 166.011 192.307 165.374 191.985C164.933 191.767 164.596 191.382 164.442 190.92C164.232 191.095 164.015 191.256 163.791 191.41C162.11 192.531 160.079 192.993 158.083 192.72C156.303 192.475 154.658 191.655 153.397 190.374C153.278 190.248 153.173 190.114 153.089 189.96C151.52 191.774 149.229 192.797 146.834 192.762C146.126 192.762 145.419 192.671 144.733 192.482C144.018 192.293 143.332 191.999 142.694 191.613C141.938 191.165 141.259 190.591 140.684 189.925C140.607 190.079 140.502 190.22 140.383 190.339C139.122 191.613 137.483 192.447 135.704 192.699C133.701 192.965 131.67 192.496 129.989 191.375C129.765 191.228 129.548 191.06 129.338 190.892C129.183 191.354 128.847 191.732 128.413 191.95C127.776 192.272 127.103 192.503 126.41 192.65C124.421 193.035 122.354 192.678 120.61 191.634L120.295 191.431C120.274 191.529 120.246 191.62 120.211 191.711C119.938 192.391 119.294 192.839 118.565 192.86H117.9C116.548 192.776 115.238 192.363 114.083 191.655C112.36 190.591 111.085 188.938 110.489 187.005C110.489 186.942 110.489 186.886 110.447 186.837C110.433 186.774 110.419 186.71 110.398 186.647C110.335 186.416 110.286 186.185 110.251 185.947L110.097 185.036C109.271 180.323 108.206 170.188 106.77 162.98L107.24 164.346C107.415 165.047 107.583 165.67 107.73 166.265L107.723 166.272Z" fill="#3B2D55"/>
<path d="M86.5984 88.7998C89.0288 84.4433 92.0826 80.4649 95.6547 76.9909C97.4408 75.2539 99.3459 73.6429 101.349 72.165C101.783 71.8288 102.288 71.4646 102.876 71.0724L103.415 70.6942C103.744 70.47 104.074 70.2389 104.417 69.9937L105.25 69.4684C106.021 68.9852 106.812 68.4879 107.632 68.0676C109.803 66.8419 112.044 65.7352 114.342 64.7617L115.364 64.3484C116.17 64.0192 117.003 63.683 117.858 63.3959L119.602 62.7795L121.402 62.2192C122.053 62.009 122.719 61.8269 123.216 61.7009L125.016 61.2246L126.13 60.9794C126.97 60.7903 127.839 60.5942 128.714 60.4611C131.166 59.9918 133.652 59.6907 136.146 59.5576C137.091 59.5086 138.03 59.4875 138.947 59.4875C143.024 59.4875 147.086 59.9778 151.043 60.9584C153.474 61.5398 155.855 62.3242 158.153 63.2978C160.464 64.2714 162.684 65.4411 164.793 66.7999C166.894 68.1447 168.89 69.6505 170.76 71.3105C172.616 72.9915 174.353 74.8056 175.95 76.7317C177.526 78.6789 178.969 80.7311 180.279 82.8744C181.553 85.0316 182.702 87.2659 183.711 89.5633C187.045 97.4149 189.223 106.275 190.379 116.662C191.352 125.957 191.485 135.321 190.764 144.637C190.246 151.725 189.307 158.778 187.962 165.761C187.535 167.975 187.066 170.153 186.561 172.303C185.518 176.828 184.187 181.282 182.569 185.632C182.191 186.683 181.665 187.677 181.007 188.581C180.363 189.463 179.557 190.213 178.633 190.794C177.722 191.347 176.679 191.663 175.614 191.705H175.236C174.913 191.698 174.661 191.431 174.668 191.109C174.668 190.962 174.731 190.815 174.843 190.71C175.894 189.701 176.658 188.434 177.064 187.033C177.239 186.36 177.365 185.674 177.442 184.981C177.484 184.7 177.519 184.42 177.568 184.14L178.801 175.735L179.585 170.132L180.321 164.529C180.342 164.374 180.237 164.241 180.09 164.206C179.942 164.171 179.788 164.262 179.753 164.409C179.753 164.409 179.753 164.423 179.753 164.43L178.689 170.034L177.673 175.637L176.202 184.042C176.153 184.308 176.104 184.574 176.062 184.841C175.971 185.478 175.838 186.115 175.677 186.739C175.187 188.399 174.087 189.82 172.595 190.703C171.117 191.579 169.38 191.887 167.692 191.564C167.104 191.452 166.537 191.263 166.004 190.997C165.843 190.92 165.731 190.773 165.696 190.605C165.654 190.437 165.696 190.255 165.808 190.122C166.607 189.141 167.167 187.985 167.447 186.753C167.503 186.564 167.538 186.374 167.559 186.178L167.608 185.842V185.604L168.512 175.378L168.967 169.726L169.38 164.08C169.387 163.926 169.282 163.793 169.128 163.772C168.974 163.751 168.827 163.863 168.806 164.017L168.063 169.621L167.363 175.224L166.375 183.671L166.291 184.434C166.228 185.086 166.13 185.73 166.004 186.374C165.598 188.055 164.568 189.519 163.133 190.479C161.704 191.431 159.981 191.824 158.286 191.586C156.78 191.382 155.393 190.682 154.328 189.596C154.139 189.414 154.104 189.12 154.237 188.896L154.286 188.798L154.37 188.651C154.728 187.971 154.987 187.243 155.141 186.487C155.288 185.744 155.365 184.988 155.358 184.231L155.421 180.029C155.477 176.947 155.512 174.215 155.519 171.673V163.317C155.491 163.156 155.344 163.044 155.183 163.072C155.057 163.093 154.959 163.191 154.938 163.317C154.763 166.175 154.601 168.976 154.475 171.659C154.342 174.194 154.216 176.926 154.09 180.008L153.908 184.371C153.908 184.967 153.838 185.555 153.719 186.136C153.586 186.753 153.362 187.348 153.061 187.901C151.856 190.171 149.481 191.586 146.911 191.557C146.295 191.557 145.685 191.48 145.09 191.312C144.488 191.151 143.906 190.906 143.374 190.577C142.295 189.926 141.406 188.994 140.81 187.88C140.516 187.327 140.292 186.746 140.152 186.136C140.026 185.506 139.963 184.869 139.949 184.231L139.774 180.029C139.648 176.828 139.522 174.173 139.389 171.68C139.262 168.997 139.101 166.196 138.926 163.338C138.912 163.184 138.793 163.065 138.639 163.065C138.485 163.065 138.359 163.198 138.352 163.352V171.708C138.352 174.187 138.401 176.842 138.45 180.064L138.52 184.266C138.506 185.002 138.569 185.744 138.709 186.465C138.87 187.208 139.122 187.929 139.473 188.609L139.564 188.77L139.62 188.868C139.753 189.092 139.718 189.386 139.529 189.568C138.464 190.647 137.07 191.347 135.571 191.564C132.048 192.048 128.721 189.792 127.867 186.339C127.734 185.709 127.643 185.072 127.587 184.427C127.587 184.168 127.524 183.902 127.495 183.643L126.508 175.196L125.807 169.593L125.065 163.989C125.037 163.842 124.911 163.73 124.757 163.737C124.68 163.744 124.61 163.786 124.561 163.842C124.512 163.898 124.484 163.975 124.491 164.052L124.904 169.705L125.359 175.35L126.263 185.583V186.045C126.291 186.262 126.333 186.479 126.389 186.697C126.676 187.936 127.243 189.099 128.049 190.087C128.252 190.339 128.21 190.703 127.958 190.906C127.923 190.934 127.888 190.955 127.853 190.969C127.313 191.228 126.746 191.424 126.158 191.543C122.649 192.223 119.189 190.136 118.159 186.711C117.998 186.087 117.865 185.457 117.774 184.82C117.732 184.553 117.683 184.28 117.634 184.021L116.163 175.616L115.147 170.013L114.083 164.409C114.048 164.262 113.914 164.157 113.76 164.178C113.683 164.185 113.613 164.227 113.571 164.29C113.522 164.353 113.501 164.43 113.508 164.508L114.244 170.146L115.028 175.749L116.261 184.154C116.31 184.434 116.345 184.714 116.387 184.995C116.485 185.681 116.639 186.367 116.835 187.033C117.213 188.406 117.942 189.659 118.936 190.675C119.161 190.899 119.161 191.263 118.936 191.487C118.831 191.593 118.691 191.656 118.544 191.656H117.998C116.849 191.586 115.736 191.235 114.755 190.64C113.284 189.736 112.191 188.322 111.694 186.669V186.613L111.631 186.374C111.575 186.185 111.54 185.989 111.512 185.793L111.351 184.883C110.524 180.162 109.614 175.077 108.549 169.985C108.29 168.766 108.024 167.512 107.716 166.273C107.576 165.677 107.408 165.054 107.219 164.409L106.749 163.044L106.581 162.567C106.546 162.469 106.511 162.35 106.469 162.238C106.413 162.049 106.343 161.867 106.266 161.692L105.439 159.892C105.327 159.612 105.187 159.331 105.033 159.072L104.039 157.342C103.836 156.999 103.604 156.642 103.338 156.32L102.939 155.738C101.44 153.665 99.8081 151.704 98.0361 149.862L96.3411 148.041C95.1994 146.822 94.0227 145.561 92.9301 144.294C89.6101 140.581 86.8715 136.386 84.8123 131.847C84.4061 131 84.0418 130.131 83.7337 129.249L83.4185 128.408C83.0613 127.526 82.7741 126.608 82.5079 125.726C82.4239 125.438 82.3328 125.158 82.2418 124.871C81.5834 122.469 81.0931 120.031 80.7849 117.559C79.6502 107.599 81.6885 97.534 86.6054 88.7998H86.5984Z" fill="#57D1E5"/>
<path d="M86.3462 133.949C85.954 132.982 85.6458 131.974 85.3446 131C85.2536 130.685 85.1555 130.377 85.0575 130.061C84.329 127.421 83.7897 124.731 83.4535 122.014C82.1788 111.073 84.3851 99.9996 89.7572 90.383C92.4398 85.5921 95.8018 81.2145 99.7381 77.3903C101.713 75.4711 103.822 73.6851 106.042 72.0461C106.511 71.6749 107.064 71.2757 107.716 70.8414L108.311 70.4282C108.675 70.176 109.012 69.9239 109.411 69.6857L110.328 69.1114C111.176 68.5791 112.044 68.0328 112.948 67.5495C115.336 66.1977 117.802 64.979 120.323 63.9073L121.458 63.4521C122.34 63.0948 123.258 62.7516 124.197 62.4084L126.116 61.708L128.098 61.0917C128.798 60.8605 129.541 60.6644 130.094 60.5243L132.069 59.999L132.994 59.7959C131.502 59.95 130.094 60.1531 128.749 60.4123C127.874 60.5453 127.005 60.7415 126.165 60.9306L125.051 61.1757L123.251 61.652C122.754 61.7781 122.088 61.9602 121.437 62.1703L119.637 62.7306L117.893 63.347C117.038 63.6342 116.205 63.9704 115.399 64.2996L114.37 64.7128C112.072 65.6864 109.838 66.793 107.667 68.0188C106.847 68.46 106.056 68.9573 105.285 69.4196L104.452 69.9449C104.109 70.162 103.752 70.3932 103.45 70.6453L102.911 71.0235C102.323 71.4158 101.818 71.78 101.384 72.1162C99.3739 73.601 97.4758 75.226 95.6897 76.977C92.1176 80.4511 89.0638 84.4294 86.6334 88.786C81.7375 97.5272 79.7273 107.592 80.883 117.545C81.1912 120.017 81.6815 122.455 82.3399 124.857C82.4309 125.144 82.522 125.425 82.606 125.712C82.8722 126.594 83.1523 127.512 83.5166 128.394L83.8318 129.235C84.1399 130.117 84.5041 130.986 84.9104 131.833C85.6598 133.493 86.5003 135.118 87.4389 136.68C87.1867 136.078 86.9556 135.462 86.7385 134.866C86.6194 134.551 86.5073 134.243 86.3883 133.935" fill="#93E1EF"/>
<path d="M129.436 94.6905C140.488 101.751 143.724 116.431 136.671 127.484C129.611 138.536 114.93 141.772 103.878 134.719C92.8251 127.659 89.5892 112.978 96.6423 101.926C98.6945 98.7108 101.496 96.0353 104.802 94.1301L110.461 96.9738L121.962 96.6936L129.436 94.6905Z" fill="#4D9BB6"/>
<mask id="mask0_36_3070" style="mask-type:luminance" maskUnits="userSpaceOnUse" x="91" y="89" width="48" height="48">
<path d="M119.399 90.0046C106.658 87.5462 94.331 95.8881 91.8725 108.629C89.4141 121.369 97.756 133.696 110.497 136.155C123.237 138.613 135.564 130.271 138.023 117.531C140.159 106.436 134.107 95.3908 123.601 91.2303C122.242 90.691 120.835 90.2848 119.399 90.0046Z" fill="white"/>
</mask>
<g mask="url(#mask0_36_3070)">
<path d="M124.306 65.7034L66.2411 103.888L104.691 162.356L162.756 124.172L124.306 65.7034Z" fill="url(#paint0_linear_36_3070)"/>
</g>
<path d="M113.046 129.263C116.548 127.162 114.342 118.715 111.302 117.272C109.313 116.326 106.133 116.908 105.769 115.871C105.404 114.834 108.234 113.287 109.18 111.29C110.623 108.258 106.959 100.315 102.96 100.896C98.1972 101.597 93.3644 109.357 96.8104 119.051C100.256 128.745 108.914 131.721 113.046 129.249" fill="#3B2D55"/>
<path d="M126.053 143.852C130.654 145.449 135.76 144.223 139.136 140.714C142.358 137.352 143.815 132.653 143.885 128.107C143.955 126.006 147.254 126.006 147.436 128.107C147.765 133.654 145.636 139.068 141.616 142.907C137.252 147.074 130.829 148.251 125.275 145.89C124.694 145.673 124.4 145.029 124.617 144.455C124.834 143.873 125.478 143.579 126.053 143.789" fill="#3B2D55"/>
<g opacity="0.33">
<path d="M127.334 144.308C131.936 145.905 137.042 144.686 140.418 141.177C143.647 137.808 145.097 133.108 145.167 128.569C145.244 126.468 148.543 126.468 148.718 128.569C149.047 134.117 146.918 139.531 142.898 143.369C138.548 147.565 132.118 148.755 126.55 146.409C125.969 146.192 125.674 145.547 125.892 144.973C126.109 144.392 126.753 144.098 127.327 144.308" fill="#3B2D55"/>
</g>
<path d="M83.0893 96.6304C84.0979 93.7868 85.3516 91.0341 86.8435 88.4076C86.3322 88.3095 85.8069 88.3235 85.3026 88.4496C84.8193 88.4986 84.336 88.5757 83.8668 88.6667C83.8668 88.6247 83.8668 88.5827 83.8317 88.5477C82.613 83.953 83.4045 79.0571 86.01 75.0857C91.053 67.3251 102.953 62.3662 120.428 60.7553C144.137 58.57 158.328 59.0533 166.445 62.3102C173.45 65.1118 176.384 69.9097 177.316 79.9746C177.33 80.1847 177.386 80.3879 177.463 80.584C176.805 80.8501 176.174 81.1653 175.565 81.5295C174.864 81.9918 174.297 82.349 173.583 82.9304C168.883 86.7966 166.095 93.5346 166.775 100.924C167.783 111.85 176.013 120.031 185.161 119.191C186.75 119.002 188.298 118.581 189.769 117.951C196.416 114.897 200.731 106.856 199.897 97.8702C198.903 87.0208 190.792 78.882 181.686 79.5894C180.895 71.0233 178.703 62.5063 168.063 58.2338C159.196 54.6547 144.845 54.0733 120.043 56.3567C100.894 58.1567 88.2023 63.613 82.3118 72.6833C78.9639 77.7823 77.9903 84.086 79.6503 89.9625C79.6713 90.0326 79.6993 90.1026 79.7343 90.1656C73.6407 93.5206 69.7815 101.218 70.5659 109.777C71.1403 116.018 74.4252 122.56 79.8744 125.887C80.806 126.51 81.8706 126.916 82.9772 127.084C81.3663 122.294 80.5538 117.265 80.5748 112.208C80.5888 106.913 81.4363 101.659 83.0893 96.6304ZM188.487 112.642C188.151 112.663 187.815 112.663 187.479 112.642C187.066 112.621 186.652 112.558 186.246 112.467C181.708 111.437 177.897 106.163 177.281 99.4251C176.98 96.4623 177.4 93.4716 178.521 90.712C178.71 90.2497 178.927 89.8014 179.172 89.3672C179.389 88.9609 179.641 88.5687 179.907 88.1905C181.245 86.1032 183.431 84.7164 185.889 84.4082C191.352 83.9039 196.395 89.8224 197.096 97.597C197.796 105.302 194.056 111.913 188.691 112.586L188.487 112.642Z" fill="#3B2D55"/>
<path d="M197.103 97.6181C197.803 105.323 194.063 111.935 188.698 112.607H188.459C188.123 112.628 187.787 112.628 187.451 112.607C187.038 112.586 186.624 112.523 186.218 112.432C181.679 111.402 177.869 106.128 177.253 99.3901C176.952 96.4274 177.372 93.4366 178.493 90.677C178.682 90.2147 178.899 89.7664 179.144 89.3322C179.361 88.9259 179.613 88.5337 179.879 88.1555C181.217 86.0682 183.402 84.6814 185.861 84.3732C191.352 83.925 196.381 89.8435 197.103 97.6181Z" fill="#CDDCE2"/>
<path d="M34.1865 159.577L24.4157 161.02L23.232 149.806L33.0448 148.552L34.1865 159.577Z" fill="white"/>
<path d="M47.8375 157.552L38.0737 158.995L35.9515 138.34L45.8063 137.261L47.8375 157.552Z" fill="white"/>
<path d="M61.4885 155.535L51.7248 156.978L48.5939 125.501L58.4978 124.626L61.4885 155.535Z" fill="white"/>
<path d="M64.4443 159.857L22.4546 166.455L22.2374 164.382L64.2622 157.938L64.4443 159.857Z" fill="white"/>
</g>
<defs>
<linearGradient id="paint0_linear_36_3070" x1="126.652" y1="132.438" x2="100.74" y2="93.0358" gradientUnits="userSpaceOnUse">
<stop stop-color="#CECAD5"/>
<stop offset="0.07" stop-color="#CECAD5"/>
<stop offset="0.66" stop-color="white"/>
<stop offset="1" stop-color="white"/>
</linearGradient>
<clipPath id="clip0_36_3070">
<rect width="200" height="200" fill="white"/>
</clipPath>
</defs>
</svg>
