<svg width="200" height="200" viewBox="0 0 200 200" fill="none" xmlns="http://www.w3.org/2000/svg">
<path d="M154.102 170.334H125.341L123.021 186.827H156.422L154.102 170.334Z" fill="#D6D6D6"/>
<path d="M115.736 188.692C115.736 187.178 116.967 185.95 118.483 185.95H160.96C162.476 185.95 163.706 187.178 163.706 188.692H115.735H115.736Z" fill="#F2F2F2"/>
<path d="M154.102 170.334H125.341L124.128 178.952H155.315L154.102 170.334Z" fill="#C7C7C7"/>
<path d="M197.32 93.3651H82.123C80.6428 93.3651 79.4429 94.563 79.4429 96.0406V169.804C79.4429 171.282 80.6428 172.48 82.123 172.48H197.32C198.8 172.48 200 171.282 200 169.804V96.0406C200 94.563 198.8 93.3651 197.32 93.3651Z" fill="#3B2D55"/>
<path d="M193.687 99.6667H85.7557V166.178H193.687V99.6667Z" fill="#548DFF"/>
<path d="M190.214 102.663H88.7856V162.827H190.214V102.663Z" fill="#EFEFEF"/>
<path d="M153.984 138.034C149.921 138.034 145.165 137.186 144.274 135.325C144.176 135.158 144.127 134.957 144.127 134.725V128.857C144.127 126.665 149.084 125.52 153.984 125.52C158.884 125.52 163.842 126.665 163.842 128.857V134.665C163.842 134.665 163.842 134.674 163.842 134.679C163.842 134.685 163.842 134.69 163.842 134.695C163.842 136.886 158.882 138.032 153.984 138.032V138.034ZM153.984 126.553C148.598 126.553 145.16 127.918 145.16 128.858V134.727C145.16 134.788 145.169 134.811 145.169 134.811C145.183 134.832 145.19 134.846 145.2 134.871C145.664 135.897 149.153 137.004 153.982 137.004C159.352 137.004 162.784 135.648 162.807 134.707C162.807 134.704 162.807 134.702 162.807 134.7C162.807 134.688 162.807 134.678 162.807 134.665V134.658V128.86C162.807 127.92 159.369 126.555 153.982 126.555L153.984 126.553Z" fill="#3B2D55"/>
<path d="M153.984 132.195C149.086 132.195 144.127 131.049 144.127 128.858C144.127 126.667 149.084 125.521 153.984 125.521C158.884 125.521 163.842 126.667 163.842 128.858C163.842 131.049 158.882 132.195 153.984 132.195ZM153.984 126.553C148.598 126.553 145.16 127.918 145.16 128.858C145.16 129.798 148.598 131.163 153.984 131.163C159.371 131.163 162.808 129.798 162.808 128.858C162.808 127.918 159.371 126.553 153.984 126.553Z" fill="#3B2D55"/>
<path d="M153.984 143.887C149.921 143.887 145.165 143.039 144.274 141.178C144.176 141.011 144.127 140.809 144.127 140.578V134.709C144.127 134.425 144.359 134.193 144.643 134.193C144.928 134.193 145.16 134.425 145.16 134.709V140.578C145.16 140.639 145.169 140.662 145.169 140.662C145.183 140.683 145.19 140.697 145.2 140.722C145.664 141.748 149.153 142.855 153.982 142.855C159.352 142.855 162.784 141.499 162.807 140.558C162.807 140.555 162.807 140.553 162.807 140.551C162.807 140.539 162.807 140.529 162.807 140.516V140.509V134.711C162.807 134.427 163.039 134.195 163.323 134.195C163.608 134.195 163.84 134.427 163.84 134.711V140.52C163.84 140.52 163.84 140.529 163.84 140.534C163.84 140.539 163.84 140.544 163.84 140.55C163.84 142.741 158.881 143.887 153.982 143.887H153.984Z" fill="#3B2D55"/>
<path d="M153.984 149.737C149.921 149.737 145.165 148.89 144.274 147.029C144.176 146.862 144.127 146.66 144.127 146.429V140.56C144.127 140.276 144.359 140.044 144.643 140.044C144.928 140.044 145.16 140.276 145.16 140.56V146.429C145.16 146.49 145.169 146.513 145.169 146.513C145.183 146.534 145.19 146.548 145.2 146.572C145.664 147.599 149.153 148.706 153.982 148.706C159.352 148.706 162.784 147.35 162.807 146.409C162.807 146.406 162.807 146.404 162.807 146.402C162.807 146.39 162.807 146.379 162.807 146.367V146.36V140.562C162.807 140.278 163.039 140.046 163.323 140.046C163.608 140.046 163.84 140.278 163.84 140.562V146.371C163.84 146.371 163.84 146.379 163.84 146.385C163.84 146.39 163.84 146.395 163.84 146.401C163.84 148.592 158.881 149.737 153.982 149.737H153.984Z" fill="#3B2D55"/>
<path d="M112.401 126.721C112.401 124.585 110.666 122.853 108.525 122.853C106.385 122.853 104.65 124.585 104.65 126.721C104.65 128.858 106.385 130.59 108.525 130.59C110.666 130.59 112.401 128.858 112.401 126.721Z" fill="#326DE6"/>
<path d="M132.83 126.721C132.83 124.585 131.095 122.853 128.954 122.853C126.814 122.853 125.079 124.585 125.079 126.721C125.079 128.858 126.814 130.59 128.954 130.59C131.095 130.59 132.83 128.858 132.83 126.721Z" fill="#326DE6"/>
<path d="M136.995 142.59C136.995 140.454 135.26 138.722 133.119 138.722C130.979 138.722 129.244 140.454 129.244 142.59C129.244 144.727 130.979 146.458 133.119 146.458C135.26 146.458 136.995 144.727 136.995 142.59Z" fill="#326DE6"/>
<path d="M109.095 142.59C109.095 140.454 107.36 138.722 105.22 138.722C103.079 138.722 101.344 140.454 101.344 142.59C101.344 144.727 103.079 146.458 105.22 146.458C107.36 146.458 109.095 144.727 109.095 142.59Z" fill="#326DE6"/>
<path d="M122.685 152.462C122.685 150.325 120.95 148.594 118.81 148.594C116.67 148.594 114.935 150.325 114.935 152.462C114.935 154.598 116.67 156.33 118.81 156.33C120.95 156.33 122.685 154.598 122.685 152.462Z" fill="#326DE6"/>
<path d="M111.566 150.134C111.438 150.051 111.285 150.022 111.137 150.053C110.988 150.085 110.859 150.171 110.775 150.299C110.605 150.562 110.678 150.916 110.94 151.087C111.033 151.148 111.141 151.18 111.253 151.18C111.446 151.18 111.624 151.083 111.731 150.922C111.814 150.794 111.844 150.643 111.812 150.494C111.78 150.344 111.694 150.216 111.566 150.134Z" fill="#326DE6"/>
<path d="M115.654 125.358C115.522 125.281 115.369 125.258 115.222 125.297C115.074 125.334 114.949 125.427 114.872 125.558C114.794 125.688 114.772 125.842 114.809 125.99C114.872 126.242 115.1 126.42 115.362 126.42C115.406 126.42 115.454 126.414 115.503 126.402C115.809 126.323 115.993 126.013 115.916 125.709C115.879 125.562 115.786 125.437 115.654 125.36V125.358Z" fill="#326DE6"/>
<path d="M108.367 147.199C108.172 146.96 107.821 146.92 107.575 147.109C107.327 147.304 107.283 147.662 107.476 147.909C107.584 148.048 107.749 148.129 107.926 148.129C108.055 148.129 108.178 148.085 108.276 148.008C108.396 147.915 108.473 147.78 108.492 147.629C108.511 147.478 108.469 147.329 108.376 147.209C108.373 147.206 108.371 147.202 108.367 147.199Z" fill="#326DE6"/>
<path d="M105.301 136.33C104.991 136.279 104.696 136.49 104.645 136.8C104.594 137.109 104.805 137.404 105.116 137.455C105.148 137.46 105.178 137.462 105.209 137.462C105.49 137.462 105.728 137.262 105.772 136.985C105.823 136.674 105.612 136.381 105.301 136.33Z" fill="#326DE6"/>
<path d="M117.55 124.907C117.236 124.934 117.002 125.209 117.028 125.523C117.053 125.816 117.302 126.044 117.596 126.044C117.612 126.044 117.629 126.044 117.645 126.042C117.958 126.016 118.192 125.741 118.165 125.427C118.153 125.276 118.081 125.137 117.965 125.039C117.849 124.941 117.701 124.893 117.548 124.907H117.55Z" fill="#326DE6"/>
<path d="M106.942 132.123C106.807 132.049 106.652 132.034 106.506 132.077C106.36 132.121 106.241 132.22 106.169 132.353C106.097 132.486 106.079 132.639 106.123 132.786C106.167 132.932 106.264 133.053 106.399 133.125C106.483 133.17 106.575 133.193 106.671 133.193C106.882 133.193 107.074 133.079 107.174 132.897C107.176 132.893 107.178 132.89 107.179 132.886C107.322 132.611 107.218 132.27 106.944 132.123H106.942Z" fill="#326DE6"/>
<path d="M105.946 134.158C105.647 134.057 105.322 134.218 105.221 134.514C105.12 134.811 105.278 135.136 105.576 135.239C105.636 135.258 105.698 135.269 105.761 135.269C106.004 135.269 106.221 135.114 106.301 134.883C106.402 134.586 106.243 134.262 105.946 134.158Z" fill="#326DE6"/>
<path d="M109.439 148.651C109.286 148.658 109.146 148.723 109.044 148.836C108.94 148.948 108.888 149.093 108.893 149.246C108.9 149.393 108.961 149.53 109.067 149.632C109.07 149.636 109.072 149.639 109.076 149.643C109.181 149.739 109.318 149.793 109.464 149.793C109.624 149.793 109.777 149.727 109.882 149.609C109.986 149.499 110.039 149.353 110.033 149.202C110.028 149.05 109.961 148.908 109.849 148.804C109.736 148.7 109.589 148.648 109.438 148.655L109.439 148.651Z" fill="#326DE6"/>
<path d="M119.91 124.902C119.758 124.891 119.61 124.937 119.494 125.037C119.378 125.135 119.308 125.274 119.295 125.425C119.283 125.577 119.331 125.723 119.431 125.839C119.529 125.955 119.666 126.025 119.819 126.037C119.835 126.037 119.851 126.041 119.867 126.041C120.162 126.041 120.411 125.809 120.434 125.514C120.447 125.362 120.399 125.214 120.301 125.099C120.202 124.983 120.063 124.913 119.912 124.9L119.91 124.902Z" fill="#326DE6"/>
<path d="M131.919 135.19C132.063 135.141 132.179 135.037 132.246 134.9C132.313 134.764 132.322 134.609 132.273 134.465C132.169 134.169 131.844 134.011 131.545 134.113C131.248 134.216 131.09 134.541 131.193 134.837C131.274 135.067 131.49 135.221 131.733 135.221C131.796 135.221 131.861 135.211 131.918 135.19H131.919Z" fill="#326DE6"/>
<path d="M129.942 147.099C129.821 147.004 129.671 146.962 129.52 146.981C129.369 147.001 129.234 147.076 129.141 147.197C129.046 147.316 129.005 147.467 129.023 147.618C129.042 147.769 129.118 147.904 129.237 147.999C129.339 148.076 129.464 148.12 129.589 148.12C129.765 148.12 129.93 148.039 130.039 147.899C130.232 147.651 130.186 147.292 129.939 147.101L129.942 147.099Z" fill="#326DE6"/>
<path d="M132.856 136.749C132.803 136.441 132.508 136.228 132.2 136.283C132.049 136.307 131.918 136.39 131.83 136.513C131.74 136.637 131.707 136.788 131.731 136.937C131.779 137.213 132.014 137.413 132.294 137.413C132.324 137.413 132.357 137.413 132.389 137.406C132.54 137.381 132.671 137.299 132.759 137.174C132.847 137.049 132.882 136.899 132.858 136.749H132.856Z" fill="#326DE6"/>
<path d="M131.366 132.744C131.408 132.599 131.392 132.444 131.32 132.311C131.248 132.177 131.127 132.081 130.981 132.037C130.835 131.993 130.68 132.011 130.547 132.083C130.271 132.234 130.167 132.579 130.318 132.856C130.42 133.039 130.612 133.153 130.821 133.153C130.916 133.153 131.011 133.128 131.095 133.083C131.229 133.011 131.327 132.89 131.369 132.744H131.366Z" fill="#326DE6"/>
<path d="M122.239 125.285C121.933 125.207 121.624 125.393 121.547 125.699C121.469 126.002 121.656 126.313 121.961 126.39C121.965 126.39 121.967 126.39 121.97 126.39C122.012 126.4 122.056 126.404 122.1 126.404C122.362 126.404 122.591 126.227 122.656 125.972C122.731 125.667 122.545 125.358 122.241 125.281L122.239 125.285Z" fill="#326DE6"/>
<path d="M126.383 150.046C126.237 150.016 126.09 150.043 125.965 150.122C125.961 150.123 125.958 150.125 125.954 150.127C125.691 150.301 125.617 150.653 125.791 150.916C125.898 151.078 126.076 151.174 126.269 151.174C126.378 151.174 126.487 151.143 126.582 151.081C126.845 150.908 126.919 150.555 126.745 150.292C126.661 150.164 126.533 150.076 126.383 150.046Z" fill="#326DE6"/>
<path d="M127.678 148.785C127.678 148.785 127.671 148.79 127.668 148.794C127.438 149.008 127.422 149.369 127.635 149.599C127.742 149.716 127.896 149.783 128.055 149.783C128.199 149.783 128.336 149.729 128.441 149.632C128.554 149.529 128.619 149.388 128.626 149.237C128.633 149.085 128.578 148.939 128.476 148.827C128.265 148.601 127.91 148.583 127.678 148.787V148.785Z" fill="#326DE6"/>
<path d="M174.422 138.758H169.026C168.694 138.758 168.424 138.488 168.424 138.157C168.424 137.825 168.694 137.555 169.026 137.555H174.422C174.754 137.555 175.025 137.825 175.025 138.157C175.025 138.488 174.754 138.758 174.422 138.758Z" fill="#326DE6"/>
<path d="M160.587 153.829H147.866C147.534 153.829 147.264 153.559 147.264 153.227C147.264 152.895 147.534 152.625 147.866 152.625H160.587C160.919 152.625 161.19 152.895 161.19 153.227C161.19 153.559 160.919 153.829 160.587 153.829Z" fill="#3B2D55"/>
<path d="M166.891 111.539H113.048C112.715 111.539 112.445 111.269 112.445 110.937C112.445 110.606 112.715 110.335 113.048 110.335H166.891C167.223 110.335 167.494 110.606 167.494 110.937C167.494 111.269 167.223 111.539 166.891 111.539Z" fill="#3B2D55"/>
<path d="M156.086 116.663H123.851C123.519 116.663 123.248 116.393 123.248 116.062C123.248 115.73 123.519 115.46 123.851 115.46H156.086C156.418 115.46 156.689 115.73 156.689 116.062C156.689 116.393 156.418 116.663 156.086 116.663Z" fill="#3B2D55"/>
<path d="M180.499 143.125H169.026C168.694 143.125 168.424 142.855 168.424 142.523C168.424 142.192 168.694 141.922 169.026 141.922H180.499C180.831 141.922 181.102 142.192 181.102 142.523C181.102 142.855 180.831 143.125 180.499 143.125Z" fill="#326DE6"/>
<path d="M178.619 147.494H169.028C168.696 147.494 168.425 147.224 168.425 146.892C168.425 146.56 168.696 146.29 169.028 146.29H178.619C178.951 146.29 179.221 146.56 179.221 146.892C179.221 147.224 178.951 147.494 178.619 147.494Z" fill="#326DE6"/>
<path d="M11.3691 183.336C11.9455 185.896 14.218 187.657 16.7557 187.657C17.0528 187.657 17.3533 187.633 17.6556 187.584L17.6854 187.577L18.2267 187.448L17.8436 187.054C17.0176 186.229 16.4201 185.231 16.109 184.166C15.9368 183.548 15.8542 183.022 15.7733 182.512C15.7382 182.283 15.7013 182.055 15.6591 181.822L14.5378 175.02C14.0405 171.938 13.5694 168.878 13.1371 165.931C13.1107 165.743 13.2355 165.564 13.4201 165.525C13.6134 165.485 13.8067 165.61 13.8471 165.804C14.4605 168.706 15.0791 171.74 15.6854 174.817L16.9912 181.59C17.0334 181.803 17.0738 182.019 17.116 182.236C17.218 182.776 17.3216 183.336 17.4482 183.754C17.7979 184.915 18.5607 185.941 19.5958 186.645C19.7083 186.722 19.8208 186.796 19.9368 186.862C20.5167 187.199 21.1547 187.426 21.8331 187.533C22.5062 187.64 23.1846 187.624 23.8506 187.485C24.5782 187.338 25.2988 187.019 25.9297 186.562L26.1775 186.384L26.0035 186.133C25.5009 185.415 25.1477 184.631 24.9543 183.803C24.8102 183.166 24.7593 182.619 24.7118 182.089C24.6925 181.871 24.6714 181.657 24.6468 181.438L23.9719 174.603C23.6767 171.483 23.406 168.413 23.1687 165.476C23.1547 165.287 23.29 165.117 23.4781 165.09C23.573 165.076 23.6679 165.101 23.7452 165.159C23.8225 165.217 23.8735 165.301 23.8876 165.396C24.3093 168.311 24.7294 171.366 25.1354 174.475L25.9983 181.292C26.0264 181.499 26.051 181.708 26.0774 181.915C26.1477 182.489 26.2127 183.033 26.3216 183.466C26.4447 183.966 26.645 184.452 26.9174 184.912C27.3076 185.569 27.8454 186.148 28.471 186.587L28.5202 186.624C28.5536 186.648 28.5888 186.673 28.6239 186.698C29.7329 187.429 31.1406 187.74 32.4816 187.541C33.8032 187.355 35.0545 186.647 35.9157 185.594C36.1248 185.345 36.3164 185.068 36.4833 184.773L36.5519 184.65L36.5044 184.517C36.399 184.222 36.3093 183.906 36.2373 183.576C36.0984 182.962 36.0897 182.25 36.0844 181.778L36.0299 178.399C35.9543 174.359 35.9174 169.94 35.9209 164.889C35.9209 164.697 36.0703 164.539 36.2619 164.529C36.4587 164.52 36.6327 164.669 36.6433 164.868C36.9385 169.911 37.1582 174.324 37.3164 178.361L37.4605 181.812C37.4868 182.394 37.5044 182.813 37.6134 183.291C37.7434 183.847 37.9139 184.305 38.1336 184.694C38.1441 184.713 38.16 184.74 38.1758 184.764C39.1512 186.519 41.0897 187.638 43.0106 187.596H43.0932C45.0123 187.596 46.8629 186.499 47.8137 184.784C47.8454 184.736 47.8612 184.71 47.877 184.68C48.1406 184.217 48.2918 183.696 48.3937 183.296C48.5062 182.791 48.5238 182.348 48.5484 181.736L48.6907 178.361C48.8577 174.099 49.0791 169.687 49.3673 164.868C49.3796 164.678 49.5378 164.529 49.7276 164.529C49.928 164.529 50.0897 164.69 50.0897 164.889C50.1002 169.701 50.0651 174.12 49.986 178.399L49.9315 181.778C49.928 182.517 49.877 183.105 49.7733 183.58C49.6942 183.922 49.6046 184.229 49.5027 184.519L49.4552 184.652L49.5238 184.775C49.6907 185.069 49.8805 185.347 50.0932 185.598C50.9473 186.64 52.1986 187.35 53.522 187.547C54.8594 187.745 56.2637 187.434 57.3796 186.694C57.413 186.671 57.4482 186.647 57.4816 186.62L57.5325 186.584C58.1564 186.141 58.6925 185.562 59.0826 184.908C59.355 184.45 59.5589 183.964 59.6854 183.466C59.7962 183.038 59.8612 182.501 59.9297 181.931C59.9561 181.719 59.9807 181.506 60.0088 181.298L60.8717 174.475C61.2777 171.361 61.696 168.308 62.1178 165.397C62.1459 165.21 62.3093 165.071 62.5044 165.09C62.6011 165.097 62.689 165.143 62.7505 165.217C62.812 165.29 62.8436 165.383 62.8348 165.48C62.5976 168.41 62.3287 171.482 62.0317 174.608L61.355 181.448C61.3287 181.664 61.3093 181.883 61.29 182.103C61.2426 182.629 61.1934 183.175 61.0457 183.81C60.8471 184.633 60.4939 185.415 59.9912 186.131L59.8155 186.382L60.0633 186.561C60.6942 187.019 61.4148 187.341 62.1459 187.492C62.8085 187.634 63.4921 187.652 64.1723 187.541C64.8454 187.433 65.4798 187.205 66.0616 186.866C66.1775 186.798 66.2918 186.722 66.4043 186.645C67.4289 185.943 68.1934 184.919 68.5536 183.757C68.6819 183.345 68.7839 182.791 68.884 182.257C68.9262 182.036 68.9666 181.812 69.0106 181.599L70.3181 174.822C70.9227 171.748 71.5413 168.717 72.1547 165.811C72.1951 165.627 72.3691 165.503 72.5607 165.529C72.7575 165.559 72.8946 165.741 72.8665 165.938C72.4341 168.89 71.9614 171.95 71.4658 175.029L70.3445 181.836C70.3023 182.066 70.2654 182.294 70.2303 182.526C70.1512 183.034 70.0686 183.561 69.8928 184.178C69.5747 185.243 68.9737 186.24 68.1529 187.061L67.7206 187.492L68.3252 187.587C71.2338 188.068 73.993 186.206 74.6345 183.359C74.6819 183.134 76.6819 173.752 78.9912 162.127L78.9965 162.132C76.9877 175.775 75.6608 183.464 75.6362 183.58V183.585L75.631 183.605C75.5905 183.782 75.5413 183.964 75.4763 184.164C75.4605 184.213 75.4429 184.261 75.4253 184.31L75.4095 184.352C75.3673 184.469 75.3234 184.584 75.276 184.696C75.2443 184.769 75.2109 184.845 75.1775 184.92C75.1336 185.013 75.0897 185.101 75.0422 185.191L75.0246 185.224C74.9877 185.296 74.9491 185.368 74.9087 185.44C74.8858 185.48 74.8612 185.517 74.8383 185.554L74.8173 185.585C74.6784 185.812 74.5255 186.029 74.3656 186.231L74.3427 186.259C74.2601 186.362 74.1688 186.468 74.0563 186.589L74.0088 186.64C73.9034 186.75 73.8032 186.852 73.6995 186.947L73.696 186.95C73.696 186.95 73.6872 186.959 73.6837 186.962H73.6802V186.966C72.457 188.087 70.8858 188.699 69.2443 188.699C68.8858 188.699 68.5238 188.67 68.167 188.61L67.5712 188.517L65.6433 188.215C65.225 188.377 64.7909 188.492 64.341 188.566C63.993 188.622 63.638 188.652 63.29 188.652C62.8366 188.652 62.3832 188.603 61.9403 188.508C61.0791 188.329 60.225 187.948 59.4763 187.406L59.2285 187.227L58.7821 186.903C58.5747 187.096 58.355 187.273 58.1248 187.436L58.0844 187.466C58.0369 187.501 57.986 187.538 57.935 187.571C56.8946 188.262 55.6081 188.645 54.3234 188.645C54.0071 188.645 53.689 188.622 53.3779 188.577C51.8067 188.345 50.3252 187.503 49.3146 186.268C49.0844 185.994 48.8682 185.684 48.6767 185.354C47.5448 187.35 45.3621 188.638 43.0984 188.638H43.0264C42.9895 188.638 42.9508 188.638 42.9139 188.638C40.6608 188.638 38.4816 187.352 37.3375 185.357C37.1494 185.684 36.935 185.991 36.6977 186.275C35.6854 187.512 34.2004 188.354 32.6292 188.573C32.3252 188.619 32.0053 188.641 31.689 188.641C30.4025 188.641 29.1195 188.261 28.0738 187.571C28.0194 187.534 27.9719 187.499 27.9227 187.464L27.8858 187.436C27.6573 187.275 27.4394 187.098 27.232 186.908L26.7856 187.233L26.5378 187.412C25.7874 187.954 24.9332 188.333 24.0633 188.508C23.6274 188.599 23.1758 188.645 22.7276 188.645C22.3814 188.645 22.0317 188.617 21.6872 188.562C21.1213 188.475 20.5782 188.313 20.0633 188.085L18.4728 188.464L17.9315 188.592L17.9157 188.596L17.8999 188.599L17.8682 188.606L17.8506 188.61L17.8331 188.613C17.4816 188.671 17.1231 188.701 16.768 188.701C13.7417 188.701 11.0615 186.552 10.3937 183.591C10.3656 183.459 9.03869 175.466 6.89282 161.483C9.2531 173.397 11.3234 183.119 11.3709 183.345L11.3691 183.336Z" fill="#3B2D55"/>
<path d="M43.0018 81C68.3216 81 86.0035 96.7212 86.0035 119.228C86.0035 125.483 82.1968 145.966 78.9877 162.118C76.6784 173.743 74.6784 183.126 74.6309 183.35C73.9895 186.198 71.2302 188.059 68.3216 187.578L67.7171 187.484L68.1494 187.052C68.9701 186.231 69.5712 185.234 69.8893 184.169C70.065 183.552 70.1476 183.026 70.2267 182.517C70.2619 182.287 70.2988 182.059 70.341 181.827L71.4622 175.02C71.9578 171.941 72.4288 168.882 72.8629 165.929C72.891 165.732 72.754 165.548 72.5571 165.52C72.3656 165.494 72.1916 165.618 72.1512 165.803C71.536 168.708 70.9192 171.741 70.3146 174.813L69.007 181.59C68.9631 181.805 68.9227 182.027 68.8805 182.248C68.7803 182.783 68.6766 183.338 68.5501 183.748C68.1898 184.91 67.4271 185.936 66.4007 186.636C66.2882 186.713 66.174 186.789 66.058 186.857C65.478 187.196 64.8418 187.422 64.1687 187.533C63.4868 187.643 62.8049 187.627 62.1424 187.484C61.4113 187.333 60.6907 187.01 60.0598 186.552L59.812 186.373L59.9877 186.122C60.4903 185.406 60.8436 184.626 61.0422 183.801C61.1898 183.166 61.239 182.622 61.2865 182.094C61.3076 181.873 61.3269 181.655 61.3515 181.44L62.0281 174.599C62.3234 171.473 62.594 168.401 62.8313 165.471C62.8383 165.375 62.8084 165.282 62.7469 165.208C62.6837 165.134 62.5975 165.09 62.5009 165.082C62.3058 165.064 62.1424 165.203 62.1142 165.389C61.6925 168.299 61.2742 171.352 60.8682 174.466L60.0053 181.289C59.9772 181.498 59.9508 181.71 59.9262 181.922C59.8577 182.492 59.7926 183.029 59.6819 183.457C59.5554 183.955 59.3533 184.441 59.0791 184.899C58.6889 185.554 58.1529 186.133 57.529 186.575L57.478 186.612C57.4446 186.638 57.4095 186.662 57.3761 186.685C56.2601 187.426 54.8559 187.736 53.5185 187.538C52.1933 187.343 50.942 186.631 50.0896 185.589C49.8787 185.338 49.6872 185.061 49.5202 184.766L49.4517 184.643L49.4991 184.51C49.6011 184.222 49.6907 183.913 49.7698 183.571C49.8735 183.096 49.9244 182.508 49.9279 181.769L49.9824 178.39C50.0615 174.111 50.0949 169.692 50.0861 164.88C50.0861 164.682 49.9244 164.52 49.7241 164.52C49.5343 164.52 49.3761 164.669 49.3638 164.859C49.0756 169.678 48.8541 174.09 48.6872 178.352L48.5448 181.727C48.5202 182.338 48.5026 182.78 48.3902 183.287C48.2882 183.687 48.1371 184.208 47.8735 184.671C47.8594 184.699 47.8418 184.726 47.8102 184.775C46.8594 186.491 45.0088 187.587 43.0896 187.587H43.007C41.0861 187.627 39.1476 186.51 38.1722 184.755C38.1547 184.731 38.1388 184.705 38.1301 184.685C37.9104 184.296 37.7399 183.838 37.6098 183.282C37.5009 182.805 37.4833 182.385 37.4569 181.803L37.3128 178.352C37.1564 174.315 36.9367 169.901 36.6397 164.859C36.6274 164.66 36.4552 164.51 36.2584 164.52C36.0685 164.531 35.9192 164.69 35.9174 164.88C35.9139 169.932 35.949 174.35 36.0264 178.39L36.0808 181.769C36.0861 182.24 36.0949 182.952 36.2337 183.568C36.3058 183.898 36.3954 184.215 36.5009 184.508L36.5483 184.641L36.4798 184.764C36.3128 185.059 36.1213 185.336 35.9121 185.585C35.051 186.636 33.7997 187.347 32.478 187.533C31.1371 187.729 29.7294 187.42 28.6204 186.689C28.5852 186.664 28.5518 186.641 28.5167 186.615L28.4675 186.578C27.8418 186.14 27.3058 185.561 26.9139 184.903C26.6415 184.443 26.4411 183.957 26.3181 183.457C26.2091 183.024 26.1441 182.482 26.0738 181.906C26.0492 181.699 26.0229 181.49 25.9947 181.283L25.1318 174.466C24.7258 171.357 24.3058 168.303 23.884 165.387C23.8699 165.292 23.819 165.206 23.7417 165.15C23.6643 165.092 23.5694 165.068 23.4745 165.082C23.2865 165.108 23.1511 165.278 23.1652 165.468C23.4025 168.404 23.6731 171.475 23.9684 174.594L24.6432 181.429C24.6678 181.648 24.6889 181.862 24.7083 182.08C24.7575 182.61 24.8067 183.159 24.9508 183.794C25.1441 184.622 25.4974 185.406 26 186.124L26.174 186.375L25.9262 186.554C25.2935 187.012 24.5747 187.331 23.8471 187.477C23.181 187.615 22.5026 187.631 21.8295 187.524C21.1511 187.417 20.5114 187.191 19.9332 186.854C19.8172 186.785 19.703 186.712 19.5923 186.636C18.5571 185.933 17.7944 184.906 17.4446 183.745C17.3199 183.327 17.2144 182.768 17.1125 182.227C17.0721 182.01 17.0316 181.794 16.9877 181.582L15.6819 174.808C15.0756 171.731 14.4587 168.697 13.8436 165.796C13.8032 165.601 13.6098 165.476 13.4165 165.517C13.2302 165.555 13.1055 165.734 13.1336 165.922C13.5659 168.869 14.0369 171.929 14.5343 175.011L15.6555 181.813C15.6977 182.047 15.7346 182.275 15.7698 182.503C15.8506 183.013 15.9332 183.541 16.1054 184.157C16.4148 185.222 17.0141 186.222 17.8401 187.045L18.2232 187.44L17.6819 187.568L17.652 187.575C17.3497 187.626 17.0492 187.648 16.7522 187.648C14.2144 187.648 11.942 185.885 11.3656 183.327C11.3163 183.101 9.2478 173.38 6.88752 161.466C3.71002 145.416 0 125.376 0 119.228C0 96.7212 17.6837 81 43.0018 81Z" fill="#57D1E5"/>
<path d="M73.6959 91.4124C81.4639 98.1686 86.0052 107.828 86.0052 119.23C86.0052 129.985 74.7469 182.815 74.6326 183.35C74.3796 184.478 73.7891 185.447 72.9929 186.18C75.7855 172.84 84.6731 129.602 84.6731 119.579C84.6731 108.348 80.6695 98.6528 73.6959 91.4106" fill="#93E1EF"/>
<path d="M56.6696 142.627C50.0176 142.794 43.3515 140.599 38.1934 136.409C36.4939 135.027 34.9086 133.504 33.5097 131.809C33.0194 131.211 32.1336 131.123 31.5343 131.616C30.9561 132.092 30.8594 132.937 31.3023 133.53C34.1723 137.443 38.2109 140.457 42.6696 142.339C47.0967 144.231 52.0123 144.992 56.7891 144.488C57.9614 144.341 57.8559 142.623 56.6679 142.629" fill="#4D9BB6"/>
<path d="M57.5625 142.353C50.9104 142.52 44.2443 140.325 39.0862 136.136C37.3867 134.753 35.8015 133.23 34.4025 131.536C33.9122 130.937 33.0264 130.85 32.4271 131.343C31.8489 131.818 31.7523 132.664 32.1951 133.257C35.0651 137.169 39.1037 140.183 43.5624 142.066C47.9895 143.957 52.9052 144.718 57.682 144.215C58.8542 144.067 58.7487 142.35 57.5607 142.355" fill="#3B2D55"/>
<path d="M40.1389 104.93C34.703 112.032 34.8893 122.281 41.0756 129.306C48.1108 137.295 60.2848 138.136 68.2109 131.179C76.1389 124.223 76.863 112.063 69.8278 104.074C66.8331 100.674 62.9069 98.5685 58.7733 97.8071L55.232 101.511L46.3797 104.423L40.1371 104.93H40.1389Z" fill="#4D9BB6"/>
<mask id="mask0_36_1871" style="mask-type:luminance" maskUnits="userSpaceOnUse" x="37" y="95" width="39" height="40">
<path d="M46.5097 98.6353C55.5607 93.2616 67.2619 96.2283 72.645 105.263C78.0282 114.299 75.0545 125.979 66.0036 131.353C56.9526 136.727 45.2531 133.758 39.8682 124.725C35.1002 116.721 36.8876 106.642 43.6486 100.709C44.5203 99.9441 45.4746 99.2476 46.508 98.6336" fill="white"/>
</mask>
<g mask="url(#mask0_36_1871)">
<path d="M36.1471 81.4685L22.7444 136.436L77.4256 149.723L90.8283 94.7549L36.1471 81.4685Z" fill="url(#paint0_linear_36_1871)"/>
</g>
<path d="M62.0474 126.8C58.84 126.164 58.1898 119.123 60.1107 117.199C61.3725 115.935 63.956 115.511 63.9543 114.634C63.9543 113.755 61.369 113.337 60.1036 112.078C58.1775 110.16 58.8084 103.116 62.0158 102.472C65.84 101.704 71.6397 106.302 71.652 114.625C71.6625 122.948 65.8734 127.56 62.0474 126.8Z" fill="#3B2D55"/>
<defs>
<linearGradient id="paint0_linear_36_1871" x1="52.1959" y1="133.497" x2="61.1702" y2="96.5622" gradientUnits="userSpaceOnUse">
<stop stop-color="#CECAD5"/>
<stop offset="0.07" stop-color="#CECAD5"/>
<stop offset="0.66" stop-color="white"/>
<stop offset="1" stop-color="white"/>
</linearGradient>
</defs>
</svg>
