<svg fill="none" xmlns="http://www.w3.org/2000/svg" viewBox="2.3 5.03 107.54 23.95">
<path d="M7.74625 27.1659C7.80067 27.5112 7.71656 27.8637 7.51159 28.1493C7.30663 28.435 6.99677 28.6316 6.64713 28.6978C6.2975 28.764 5.93531 28.6947 5.63669 28.5044C5.33807 28.3141 5.12626 28.0177 5.04578 27.6774C5.04578 27.6774 2.52832 16.0823 2.52832 13.7082C2.52832 8.74751 6.5423 5.24902 12.1912 5.24902C17.8402 5.24902 21.8542 8.74987 21.8542 13.7082C21.8542 16.0823 19.3367 27.6738 19.3367 27.6738C19.2549 28.0123 19.043 28.3068 18.7453 28.4958C18.4475 28.6848 18.0869 28.7537 17.7386 28.6882C17.3903 28.6227 17.0813 28.4278 16.8759 28.1442C16.6705 27.8606 16.5846 27.5102 16.6362 27.1659" fill="#57D1E5"/>
<path d="M7.74625 27.1659C7.80067 27.5112 7.71656 27.8637 7.51159 28.1493C7.30663 28.435 6.99677 28.6316 6.64713 28.6978C6.2975 28.764 5.93531 28.6947 5.63669 28.5044C5.33807 28.3141 5.12626 28.0177 5.04578 27.6774C5.04578 27.6774 2.52832 16.0823 2.52832 13.7082C2.52832 8.74751 6.5423 5.24902 12.1912 5.24902C17.8402 5.24902 21.8542 8.74987 21.8542 13.7082C21.8542 16.0823 19.3367 27.6738 19.3367 27.6738C19.2549 28.0123 19.043 28.3068 18.7453 28.4958C18.4475 28.6848 18.0869 28.7537 17.7386 28.6882C17.3903 28.6227 17.0813 28.4278 16.8759 28.1442C16.6705 27.8606 16.5846 27.5102 16.6362 27.1659" stroke="#3B2D55" stroke-width="0.17246" stroke-linecap="round" stroke-linejoin="round"/>
<path d="M18.717 23.8408L18.0295 27.6204C17.9629 27.9629 17.7637 28.2667 17.4738 28.4684C17.1839 28.67 16.8257 28.7538 16.4742 28.7022C16.1228 28.6506 15.8053 28.4676 15.5882 28.1916C15.3712 27.9155 15.2714 27.5678 15.3098 27.2212" fill="#57D1E5"/>
<path d="M18.8621 23.8655L18.7116 24.8552L18.5527 25.8427L18.3878 26.8289L18.3047 27.3214C18.2804 27.4951 18.2467 27.6674 18.2036 27.8376C18.0888 28.2144 17.8337 28.5352 17.4891 28.7361C17.1444 28.937 16.7353 29.0035 16.343 28.9223C15.9508 28.8411 15.6039 28.6182 15.3714 28.2978C15.1388 27.9774 15.0376 27.5829 15.0877 27.1927C15.0946 27.135 15.1245 27.0824 15.1709 27.0465C15.2173 27.0105 15.2764 26.994 15.3352 27.0008C15.3939 27.0075 15.4475 27.0368 15.4842 27.0824C15.5209 27.1279 15.5377 27.1858 15.5308 27.2435C15.5003 27.5234 15.5776 27.8044 15.7475 28.0313C15.9131 28.2593 16.1604 28.4175 16.4398 28.4742C16.7186 28.5316 17.0092 28.4862 17.2561 28.3466C17.5045 28.206 17.6898 27.9787 17.775 27.71C17.8123 27.5919 17.8412 27.4065 17.8737 27.247L17.97 26.7557L18.1638 25.7742L18.3625 24.7938L18.5696 23.8147C18.5764 23.7766 18.5984 23.7428 18.6307 23.7206C18.663 23.6985 18.7029 23.6898 18.7417 23.6966C18.7805 23.7033 18.815 23.7249 18.8376 23.7566C18.8602 23.7882 18.869 23.8274 18.8621 23.8655Z" fill="#3B2D55"/>
<path d="M8.92171 17.0627C11.3028 17.0627 13.2331 15.1691 13.2331 12.8331C13.2331 10.4972 11.3028 8.60352 8.92171 8.60352C6.54061 8.60352 4.61035 10.4972 4.61035 12.8331C4.61035 15.1691 6.54061 17.0627 8.92171 17.0627Z" fill="white" stroke="#3B2D55" stroke-width="0.17246" stroke-linecap="round" stroke-linejoin="round"/>
<path d="M9.81235 10.0616C9.06951 10.2081 8.92143 11.812 9.36689 12.249C9.65945 12.5372 10.259 12.6329 10.259 12.8325C10.259 13.0321 9.65704 13.129 9.36689 13.416C8.92143 13.853 9.06951 15.4582 9.81235 15.6034C10.6997 15.7782 12.0433 14.7282 12.0433 12.8325C12.0433 10.9368 10.6997 9.88798 9.81235 10.0616Z" fill="#3B2D55"/>
<path d="M6.83984 18.5205C6.98793 18.9575 7.4346 19.6875 8.02935 19.541C8.31709 19.4701 8.47481 19.104 8.47481 18.5205" fill="white"/>
<path d="M6.83984 18.5205C6.98793 18.9575 7.4346 19.6875 8.02935 19.541C8.31709 19.4701 8.47481 19.104 8.47481 18.5205" stroke="#3B2D55" stroke-width="0.144027" stroke-linecap="round" stroke-linejoin="round"/>
<path d="M10.7041 18.23C10.8534 18.8134 11.0015 19.2505 11.4481 19.2505C11.8948 19.2505 12.4884 18.667 12.3403 17.6465" fill="white"/>
<path d="M10.7041 18.23C10.8534 18.8134 11.0015 19.2505 11.4481 19.2505C11.8948 19.2505 12.4884 18.667 12.3403 17.6465" stroke="#3B2D55" stroke-width="0.17246" stroke-linecap="round" stroke-linejoin="round"/>
<path d="M5.97465 18.1948C8.84479 18.6003 11.7649 17.9228 14.1459 16.2991C14.1692 16.278 14.1968 16.262 14.227 16.2523C14.2571 16.2425 14.289 16.2391 14.3205 16.2424C14.3521 16.2457 14.3826 16.2556 14.4099 16.2714C14.4373 16.2872 14.4608 16.3086 14.4791 16.334C14.4973 16.3595 14.5098 16.3885 14.5157 16.419C14.5217 16.4496 14.5208 16.4811 14.5133 16.5113C14.5058 16.5416 14.4918 16.5699 14.4723 16.5944C14.4527 16.6189 14.428 16.6391 14.3999 16.6535C11.9192 18.3138 8.8889 18.9892 5.92047 18.5433C5.87903 18.5296 5.84383 18.5021 5.82107 18.4655C5.79831 18.4289 5.78946 18.3856 5.79609 18.3432C5.80271 18.3008 5.82438 18.2621 5.85727 18.2339C5.89016 18.2057 5.93216 18.1897 5.97585 18.1889L5.97465 18.1948Z" fill="#3B2D55"/>
<path d="M14.4794 16.993C14.4385 16.7948 14.3333 16.615 14.1796 16.4804C14.0308 16.352 13.8438 16.2741 13.6463 16.2583C13.5903 16.2502 13.5394 16.2215 13.5041 16.1781C13.4687 16.1347 13.4514 16.0798 13.4557 16.0244C13.46 15.969 13.4855 15.9172 13.5271 15.8796C13.5687 15.8419 13.6234 15.821 13.68 15.8213H13.7029H13.7089C13.9908 15.8726 14.248 16.0123 14.4421 16.2193C14.6309 16.4205 14.7472 16.677 14.7732 16.9493C14.7752 16.9683 14.7733 16.9875 14.7676 17.0058C14.7619 17.0241 14.7526 17.0412 14.7402 17.0559C14.7277 17.0706 14.7124 17.0828 14.6952 17.0916C14.6779 17.1005 14.659 17.1059 14.6395 17.1075C14.6027 17.1108 14.5659 17.1006 14.5363 17.0787C14.5067 17.0569 14.4864 17.0251 14.4794 16.9894V16.993Z" fill="#3B2D55"/>
<path d="M9.07418 27.2173C9.11742 27.5663 9.02015 27.9182 8.80304 28.1979C8.58594 28.4777 8.26613 28.6633 7.91166 28.7154C7.55719 28.7674 7.19602 28.6816 6.90497 28.4764C6.61393 28.2712 6.41599 27.9627 6.35325 27.6165L5.66699 23.8369" fill="#57D1E5"/>
<path d="M9.29424 27.1915C9.34526 27.5818 9.24465 27.9767 9.01242 28.2975C8.78019 28.6183 8.43336 28.8417 8.04093 28.923C7.64789 29.0053 7.23766 28.9377 6.89356 28.7341C6.55032 28.5332 6.29576 28.2139 6.17962 27.8388C6.13579 27.6687 6.10163 27.4964 6.07728 27.3226L5.99421 26.8289L5.82927 25.8427L5.67034 24.8552L5.51985 23.8655C5.51645 23.8466 5.51687 23.8273 5.52108 23.8086C5.52529 23.7899 5.53321 23.7722 5.54439 23.7566C5.56697 23.7249 5.60145 23.7033 5.64025 23.6966C5.67904 23.6898 5.71898 23.6985 5.75126 23.7206C5.78355 23.7428 5.80555 23.7766 5.81241 23.8147L6.01949 24.7938L6.21935 25.7742L6.41198 26.7557L6.5083 27.2458C6.5408 27.4065 6.5697 27.5872 6.60702 27.7088C6.69414 27.9755 6.87898 28.2011 7.1258 28.3418C7.37262 28.4826 7.66387 28.5285 7.94321 28.4707C8.22255 28.413 8.47014 28.2557 8.63808 28.0292C8.80603 27.8027 8.88238 27.5232 8.85239 27.2447C8.84812 27.1886 8.86608 27.133 8.90251 27.0896C8.93895 27.0461 8.99106 27.0181 9.04799 27.0114C9.10493 27.0047 9.1623 27.0199 9.20817 27.0536C9.25404 27.0874 9.28487 27.1372 9.29424 27.1927V27.1915Z" fill="#3B2D55"/>
<path d="M11.0594 27.3052C11.0864 27.6599 10.9696 28.0108 10.7342 28.2814C10.4988 28.552 10.164 28.7205 9.80267 28.7501C9.44131 28.7797 9.08266 28.668 8.80481 28.4394C8.52696 28.2108 8.35241 27.8838 8.31916 27.5296L7.88574 23.75" fill="#57D1E5"/>
<path d="M11.282 27.2931C11.306 27.6841 11.1799 28.0697 10.9285 28.374C10.6772 28.6783 10.3188 28.8792 9.92396 28.9373C9.52835 28.9955 9.12491 28.9048 8.79465 28.6833C8.46529 28.4651 8.23019 28.1347 8.13489 27.7561C8.10017 27.5838 8.07684 27.4094 8.06506 27.2341L8.01449 26.7392L7.91456 25.747L7.82547 24.7561L7.74119 23.7628C7.73672 23.7244 7.74798 23.6858 7.77247 23.6556C7.79697 23.6254 7.83271 23.6059 7.87182 23.6015C7.91094 23.5971 7.95023 23.6082 7.98105 23.6322C8.01187 23.6562 8.03169 23.6913 8.03616 23.7297L8.17823 24.7171L8.30705 25.7033L8.43588 26.6931L8.49968 27.1868C8.52256 27.3498 8.53701 27.527 8.56951 27.651C8.64145 27.9209 8.81259 28.1552 9.05001 28.3088C9.28742 28.4623 9.57434 28.5243 9.85555 28.4829C10.1368 28.4414 10.3924 28.2993 10.5733 28.084C10.7542 27.8688 10.8475 27.5955 10.8354 27.3168C10.8339 27.2881 10.8381 27.2594 10.8479 27.2323C10.8577 27.2052 10.8729 27.1803 10.8925 27.159C10.9121 27.1376 10.9358 27.1203 10.9623 27.108C10.9887 27.0956 11.0174 27.0885 11.0466 27.087C11.0759 27.0856 11.1052 27.0897 11.1328 27.0994C11.1604 27.109 11.1857 27.1238 11.2075 27.1431C11.2292 27.1623 11.2469 27.1856 11.2595 27.2115C11.2721 27.2375 11.2793 27.2656 11.2808 27.2943L11.282 27.2931Z" fill="#3B2D55"/>
<path d="M16.4941 23.7461L16.0607 27.5257C16.02 27.8742 15.8425 28.1936 15.566 28.416C15.2894 28.6384 14.9355 28.7465 14.5791 28.7174C14.2227 28.6882 13.8919 28.524 13.6567 28.2597C13.4216 27.9954 13.3005 27.6516 13.3193 27.3013" fill="#57D1E5"/>
<path d="M16.6459 23.7628L16.5604 24.7561L16.4677 25.7471L16.3678 26.7381L16.3184 27.2341C16.3072 27.4092 16.2855 27.5836 16.2534 27.7562C16.1837 28.0406 16.0341 28.3002 15.8218 28.5056C15.6094 28.711 15.3427 28.854 15.0518 28.9184C14.7609 28.9828 14.4574 28.9661 14.1757 28.8701C13.894 28.774 13.6454 28.6026 13.4578 28.3751C13.2083 28.0699 13.0827 27.685 13.1051 27.2944C13.1071 27.2654 13.1149 27.2371 13.1281 27.2111C13.1413 27.1851 13.1596 27.1619 13.182 27.1429C13.2044 27.1239 13.2304 27.1094 13.2586 27.1004C13.2867 27.0913 13.3164 27.0878 13.3459 27.09C13.4042 27.0934 13.4589 27.1192 13.4979 27.1619C13.5369 27.2046 13.5571 27.2607 13.5542 27.318C13.5431 27.5983 13.6383 27.8727 13.8214 28.0881C14.001 28.3037 14.2559 28.446 14.5366 28.4873C14.8177 28.5277 15.1041 28.4659 15.342 28.3137C15.582 28.1603 15.754 27.9236 15.8236 27.6511C15.8549 27.533 15.8706 27.3499 15.8922 27.1869L15.9561 26.6932L16.0837 25.7058L16.2173 24.7183L16.3594 23.7309C16.3659 23.6941 16.3865 23.6611 16.4169 23.6386C16.4474 23.6162 16.4855 23.6061 16.5234 23.6103C16.5612 23.6145 16.596 23.6328 16.6206 23.6614C16.6452 23.69 16.6577 23.7267 16.6555 23.764L16.6459 23.7628Z" fill="#3B2D55"/>
<path d="M13.6779 23.6221L13.5659 27.4135C13.5659 27.7712 13.421 28.1143 13.1632 28.3673C12.9053 28.6202 12.5556 28.7623 12.191 28.7623C11.8263 28.7623 11.4766 28.6202 11.2188 28.3673C10.9609 28.1143 10.8161 27.7712 10.8161 27.4135L10.7041 23.6221" fill="#57D1E5"/>
<path d="M13.8263 23.6297C13.8263 24.6092 13.8187 25.5884 13.8034 26.5672L13.7914 27.3018C13.7927 27.4373 13.7806 27.5726 13.7553 27.7058C13.6802 28.0587 13.4837 28.3756 13.1987 28.6033C12.9138 28.8311 12.5577 28.9558 12.1901 28.9566C12.0439 28.9571 11.8984 28.9372 11.7579 28.8975C11.6169 28.8592 11.4823 28.8011 11.3582 28.7251C11.1107 28.5758 10.9089 28.3635 10.7743 28.1109C10.7067 27.9843 10.6573 27.8492 10.6274 27.7093C10.6015 27.5762 10.5894 27.4409 10.5913 27.3054L10.5793 26.5707C10.5608 25.5912 10.5532 24.612 10.5564 23.6332C10.5585 23.5966 10.5746 23.5621 10.6014 23.5365C10.6282 23.511 10.6638 23.4962 10.7012 23.4952C10.7386 23.4941 10.775 23.5069 10.8032 23.5309C10.8315 23.555 10.8495 23.5885 10.8538 23.625C10.9127 24.6029 10.9645 25.5809 11.003 26.5589L11.0343 27.2924C11.0354 27.4014 11.0463 27.5101 11.0669 27.6172C11.1237 27.8683 11.2663 28.0928 11.471 28.2535C11.6758 28.4142 11.9304 28.5014 12.1925 28.5007C12.4013 28.5018 12.6064 28.4468 12.7855 28.3416C12.9647 28.2365 13.111 28.0852 13.2087 27.9042C13.2586 27.8145 13.2951 27.7182 13.317 27.6184C13.3376 27.5108 13.3485 27.4018 13.3495 27.2924L13.3809 26.5589C13.4194 25.5809 13.4711 24.6029 13.5289 23.625C13.5332 23.5885 13.5512 23.555 13.5795 23.5309C13.6077 23.5069 13.6441 23.4941 13.6815 23.4952C13.7189 23.4962 13.7545 23.511 13.7813 23.5365C13.8081 23.5621 13.8242 23.5966 13.8263 23.6332V23.6297Z" fill="#3B2D55"/>
<path fill-rule="evenodd" clip-rule="evenodd" d="M49.6486 14.5143C47.7625 14.5143 46.3727 16.0198 46.3727 18.0595C46.3727 20.0993 47.7625 21.6048 49.5493 21.6048C50.542 21.6048 51.3858 21.1677 51.8821 20.4392L53.9668 21.9448C53.0237 23.256 51.4354 23.8388 49.8968 23.8388C46.3727 23.8388 43.8414 21.6048 43.8414 18.0595C43.8414 14.5143 46.3727 12.2803 49.8968 12.2803C51.1376 12.2803 52.7259 12.7174 53.669 13.8829L51.7829 15.437C51.2865 14.8542 50.5917 14.5143 49.6486 14.5143ZM34.9568 14.5146C34.2619 14.5146 33.2693 14.806 33.2693 15.6316C33.2693 16.4917 34.1871 16.756 35.2488 17.0617C36.7048 17.4809 38.4312 17.9779 38.4312 20.1968C38.4312 22.6736 36.4459 23.8392 34.113 23.8392C32.6736 23.8392 31.3831 23.4506 30.3408 22.4793L32.0284 20.6338C32.5744 21.2652 33.3685 21.6537 34.2123 21.6537C35.0561 21.6537 35.9495 21.2652 35.9495 20.4882C35.9495 19.6184 34.9929 19.3226 33.8955 18.9833C32.4193 18.5268 30.6883 17.9916 30.6883 15.8745C30.6883 13.4948 32.7729 12.2806 35.0065 12.2806C36.2473 12.2806 37.4882 12.6206 38.4312 13.4462L36.7437 15.2431C36.3466 14.7575 35.5524 14.5146 34.9568 14.5146ZM64.6879 18.8844L68.9068 12.5709H65.9784L63.447 16.699L61.0646 12.5709H57.9872L62.2062 18.8844V23.5952H64.6879V18.8844ZM80.9678 23.5467H73.9197V12.5709H76.4014V21.3127H80.9678V23.5467ZM86.5767 23.5467H93.6248V21.3127H89.0584V12.5709H86.5767V23.5467ZM104.892 12.523L109.806 23.5473H107.076L106.083 21.2161L105.239 19.1764L103.85 15.7768L102.46 19.1764L101.666 21.2161L100.723 23.5473H97.9927L102.857 12.523H104.892Z" fill="#3A2D55"/>
</svg>
