<svg width="200" height="200" viewBox="0 0 200 200" fill="none" xmlns="http://www.w3.org/2000/svg">
<g clip-path="url(#clip0_37_127)">
<path d="M117.029 167.652C141.241 167.652 160.87 148.024 160.87 123.812C160.87 99.5993 141.241 79.9712 117.029 79.9712C92.8165 79.9712 73.1884 99.5993 73.1884 123.812C73.1884 148.024 92.8165 167.652 117.029 167.652Z" fill="url(#paint0_radial_37_127)"/>
<path d="M48.913 164.754C67.9228 164.754 83.3333 149.343 83.3333 130.333C83.3333 111.324 67.9228 95.9131 48.913 95.9131C29.9032 95.9131 14.4927 111.324 14.4927 130.333C14.4927 149.343 29.9032 164.754 48.913 164.754Z" fill="url(#paint1_radial_37_127)"/>
<path d="M157.667 140.725C169.041 140.725 178.261 131.504 178.261 120.131C178.261 108.757 169.041 99.5364 157.667 99.5364C146.293 99.5364 137.073 108.757 137.073 120.131C137.073 131.504 146.293 140.725 157.667 140.725Z" fill="url(#paint2_radial_37_127)"/>
<mask id="mask0_37_127" style="mask-type:luminance" maskUnits="userSpaceOnUse" x="18" y="27" width="114" height="141">
<path d="M18.4783 77.1957C18.4783 91.3116 33.2319 160.659 33.3841 161.362C34.2246 165.116 37.8551 167.565 41.6522 166.928L42.442 166.797L41.8768 166.232C40.8189 165.181 40.029 163.877 39.5942 162.449C39.3986 161.732 39.2536 161.007 39.1522 160.275C39.1087 159.971 39.058 159.674 39 159.37L37.5507 150.435C36.8986 146.391 36.2826 142.377 35.7102 138.5C35.6957 138.239 35.8986 138.007 36.1594 137.993C36.3768 137.978 36.5797 138.123 36.6449 138.333C37.4493 142.145 38.2609 146.13 39.0507 150.159L40.7681 159.058C40.8261 159.341 40.8768 159.63 40.9348 159.92C41.0435 160.587 41.1884 161.246 41.3696 161.891C41.8551 163.435 42.8478 164.768 44.1812 165.681C44.3261 165.783 44.4783 165.884 44.6304 165.971C46.1812 166.877 48.0073 167.174 49.7609 166.797C50.7464 166.58 51.6739 166.167 52.4928 165.572L52.8116 165.341L52.587 165.007C51.9348 164.087 51.471 163.058 51.2029 161.964C51.0362 161.225 50.9348 160.478 50.8841 159.725L50.7971 158.862L49.9131 149.884C49.5217 145.783 49.1884 141.746 48.8551 137.899C48.8478 137.775 48.8841 137.652 48.971 137.558C49.0507 137.464 49.1667 137.406 49.2899 137.391C49.5435 137.37 49.7609 137.551 49.7971 137.797C50.3478 141.616 50.8986 145.623 51.4348 149.71L52.5652 158.667C52.5652 158.942 52.6304 159.217 52.6667 159.5C52.7319 160.174 52.8333 160.848 52.9855 161.514C53.1594 162.181 53.4203 162.819 53.7754 163.406C54.2971 164.261 54.9855 165 55.8044 165.58L55.8696 165.623L56.0073 165.725C59.3551 167.92 63.8478 166.986 66.0435 163.638C66.1377 163.493 66.2246 163.348 66.3044 163.203L66.3913 163.043L66.3261 162.87C66.1957 162.493 66.0797 162.087 65.971 161.638C65.8261 160.862 65.7536 160.065 65.7681 159.275L65.6957 154.833C65.5942 149.217 65.5507 143.42 65.558 137.101C65.587 136.841 65.8261 136.652 66.0942 136.688C66.3116 136.717 66.4855 136.884 66.5073 137.101C66.8841 143.428 67.1739 149.225 67.3913 154.819L67.5797 159.246C67.5797 159.935 67.6522 160.616 67.7826 161.29C67.9275 161.92 68.1522 162.536 68.4565 163.109L68.5435 163.246C69.7899 165.493 72.1449 166.891 74.7102 166.928H74.8189C77.4493 166.928 79.8768 165.507 81.1594 163.21C81.1812 163.181 81.1957 163.152 81.2102 163.123C81.5362 162.543 81.7826 161.928 81.9348 161.283C82.058 160.645 82.1232 159.993 82.1304 159.341L82.3189 154.812C82.5218 149.507 82.8116 143.717 83.2029 137.094C83.2029 136.833 83.4131 136.623 83.6739 136.623C83.9348 136.623 84.1449 136.833 84.1449 137.094C84.1449 143.725 84.1449 149.529 84.0073 154.826L83.9348 159.268C83.9493 160.058 83.8768 160.848 83.7319 161.623C83.6449 162.043 83.529 162.457 83.3841 162.862L83.3189 163.036L83.4131 163.196C83.6232 163.572 83.8696 163.935 84.1377 164.275C85.2681 165.652 86.8696 166.565 88.6377 166.826C90.4058 167.087 92.2102 166.696 93.7102 165.717L93.8406 165.623L93.9058 165.572C94.7319 165 95.4275 164.261 95.942 163.399C96.2971 162.812 96.5652 162.167 96.7246 161.5C96.8696 160.826 96.9783 160.145 97.0435 159.464C97.0435 159.196 97.1087 158.92 97.1449 158.652L98.2754 149.696C98.8044 145.616 99.3551 141.609 99.9131 137.783C99.9276 137.659 99.9928 137.543 100.094 137.471C100.312 137.333 100.601 137.391 100.746 137.616C100.797 137.696 100.826 137.79 100.819 137.884C100.515 141.739 100.159 145.775 99.7681 149.87L98.8841 158.841C98.8841 159.13 98.8261 159.413 98.7971 159.696C98.7391 160.449 98.6377 161.203 98.4783 161.942C98.2174 163.036 97.7536 164.08 97.1087 165L96.8768 165.333L97.2029 165.565C98.0145 166.159 98.942 166.572 99.9275 166.783C100.797 166.964 101.688 166.978 102.565 166.841C103.442 166.71 104.283 166.413 105.051 165.964C105.21 165.87 105.355 165.775 105.5 165.674C106.848 164.768 107.841 163.428 108.319 161.877C108.478 161.333 108.616 160.594 108.754 159.891C108.804 159.601 108.855 159.319 108.913 159.043L110.623 150.152C111.42 146.109 112.232 142.13 113.036 138.319C113.08 138.065 113.326 137.891 113.587 137.942C113.841 137.986 114.015 138.232 113.964 138.493C113.399 142.362 112.783 146.377 112.13 150.42L110.681 159.355C110.63 159.659 110.58 159.957 110.536 160.261C110.435 160.993 110.283 161.717 110.094 162.435C109.667 163.87 108.884 165.181 107.819 166.232L107.319 166.746L108.043 166.913H108.08C108.471 166.978 108.862 167.007 109.261 167.007C112.652 167 115.58 164.645 116.319 161.333C116.471 160.609 131.217 91.2391 131.217 77.1884C131.217 47.6304 108.029 27 74.8696 27C41.7102 27 18.4783 47.6449 18.4783 77.1957Z" fill="white"/>
</mask>
<g mask="url(#mask0_37_127)">
<path d="M131.174 27.0144H18.4783V167.543H131.174V27.0144Z" fill="#57D1E5"/>
</g>
<g opacity="0.33">
<path d="M59.6812 48.6665C46.1667 48.6665 35.2101 59.623 35.2101 73.1375C35.2101 86.652 46.1667 97.6085 59.6812 97.6085C73.1957 97.6085 84.1522 86.652 84.1522 73.1375C84.1377 59.6303 73.1884 48.681 59.6812 48.6665Z" fill="#3C2D55"/>
</g>
<path d="M32.7826 71.1666C32.7826 84.6811 43.7391 95.6376 57.2536 95.6376C70.7681 95.6376 81.7246 84.6811 81.7246 71.1666C81.7246 57.6521 70.7681 46.6956 57.2536 46.6956H57.2464C43.7391 46.71 32.7971 57.6593 32.7826 71.1666Z" fill="url(#paint3_linear_37_127)"/>
<path d="M73.9566 71.5217C73.5942 81.797 66.2537 87.2318 61.5725 86.1231C57.6522 85.1956 57.1667 76.4782 59.616 74.1883C61.2319 72.6811 64.4348 72.2753 64.4711 71.1883C64.5073 70.1014 61.3406 69.4782 59.8406 67.8622C57.5508 65.4057 58.645 56.7825 62.6232 56.0579C67.3696 55.2825 74.3116 61.2173 73.9566 71.4927" fill="#3C2D55"/>
<g opacity="0.15">
<path d="M69.0942 58.5217C71.5797 61.8116 72.7971 65.884 72.5362 70C72.1811 80.2754 64.8406 85.7174 60.1594 84.6087C59.855 84.529 59.5724 84.413 59.3043 84.2464C59.7681 85.1594 60.5869 85.8406 61.5724 86.1232C66.2536 87.2319 73.5942 81.7754 73.9565 71.5217C74.1594 65.5869 71.9348 61.1014 69.0942 58.5217Z" fill="#3C2D55"/>
</g>
<path d="M41.7101 104.609C56.7319 106.746 72.0072 103.123 84.4638 94.4637C85.1739 93.971 86.1522 94.1449 86.6449 94.855C87.1377 95.5652 86.9638 96.5434 86.2536 97.0362C73.1087 106.007 57.0507 109.645 41.3261 107.225C40.6159 107.101 40.1377 106.427 40.2609 105.717C40.3768 105.029 41.0217 104.551 41.7101 104.645" fill="#3C2D55"/>
<path d="M86.2319 98.5145C85.8044 96.5073 84.1015 95.029 82.0507 94.8913C81.1884 94.8116 80.5507 94.0435 80.6377 93.174C80.7174 92.3696 81.3913 91.7537 82.1957 91.7537C83.8696 92 85.4131 92.8189 86.5435 94.0797C87.471 94.9855 89.5218 99.0218 87.3551 99.3189C86.8261 99.3551 86.3551 99 86.2464 98.4855" fill="#3C2D55"/>
<g opacity="0.33">
<path d="M42.2029 105.71C57.2247 107.855 72.5 104.225 84.9566 95.5653C85.6812 95.1015 86.6522 95.3117 87.116 96.0436C87.558 96.732 87.3913 97.6378 86.7464 98.1305C73.6015 107.102 57.5435 110.739 41.8189 108.319C41.1087 108.196 40.6305 107.522 40.7537 106.812C40.8696 106.123 41.5145 105.645 42.2029 105.739" fill="#3C2D55"/>
<path d="M86.6884 99.6159C86.2608 97.6086 84.5507 96.1303 82.5072 95.9927C81.6449 95.913 81.0072 95.1448 81.0942 94.2753C81.1739 93.4709 81.8478 92.855 82.6521 92.855C84.3333 93.1014 85.8695 93.9274 87 95.1883C87.9275 96.0869 89.9782 100.123 87.8116 100.42C87.2826 100.464 86.8043 100.109 86.7029 99.5869" fill="#3C2D55"/>
</g>
<path opacity="0.35" d="M34.6087 40.6812C24.4275 49.5362 18.4783 62.2246 18.4783 77.1956C18.4783 91.3116 33.2319 160.659 33.3841 161.362C33.7102 162.79 34.471 164.087 35.558 165.072C31.8841 147.565 20.2246 90.8406 20.2246 77.6522C20.2246 62.913 25.471 50.1812 34.6087 40.6956" fill="white"/>
<path d="M168.478 189.391C185.887 189.391 200 175.279 200 157.87C200 140.461 185.887 126.348 168.478 126.348C151.069 126.348 136.957 140.461 136.957 157.87C136.957 175.279 151.069 189.391 168.478 189.391Z" fill="url(#paint4_radial_37_127)"/>
<path d="M64.7681 192.29C86.3793 192.29 103.899 174.771 103.899 153.159C103.899 131.548 86.3793 114.029 64.7681 114.029C43.157 114.029 25.6377 131.548 25.6377 153.159C25.6377 174.771 43.157 192.29 64.7681 192.29Z" fill="url(#paint5_radial_37_127)"/>
<path d="M28.6232 186.493C44.4313 186.493 57.2464 173.678 57.2464 157.87C57.2464 142.061 44.4313 129.246 28.6232 129.246C12.815 129.246 0 142.061 0 157.87C0 173.678 12.815 186.493 28.6232 186.493Z" fill="url(#paint6_radial_37_127)"/>
<path d="M112.783 200.261C138.996 200.261 160.246 179.011 160.246 152.797C160.246 126.584 138.996 105.333 112.783 105.333C86.5691 105.333 65.3188 126.584 65.3188 152.797C65.3188 179.011 86.5691 200.261 112.783 200.261Z" fill="url(#paint7_radial_37_127)"/>
</g>
<defs>
<radialGradient id="paint0_radial_37_127" cx="0" cy="0" r="1" gradientUnits="userSpaceOnUse" gradientTransform="translate(138.609 74.9784) scale(53.2971 53.2971)">
<stop stop-color="#FBFBFC"/>
<stop offset="0.26" stop-color="#F8F9FA"/>
<stop offset="0.53" stop-color="#E5EAEE"/>
<stop offset="0.78" stop-color="#C0CED8"/>
<stop offset="1" stop-color="#C7D4DD"/>
</radialGradient>
<radialGradient id="paint1_radial_37_127" cx="0" cy="0" r="1" gradientUnits="userSpaceOnUse" gradientTransform="translate(48.913 130.333) scale(34.4203 34.4203)">
<stop stop-color="#FBFBFC"/>
<stop offset="0.26" stop-color="#F8F9FA"/>
<stop offset="0.53" stop-color="#E5EAEE"/>
<stop offset="0.78" stop-color="#C0CED8"/>
<stop offset="1" stop-color="#C7D4DD"/>
</radialGradient>
<radialGradient id="paint2_radial_37_127" cx="0" cy="0" r="1" gradientUnits="userSpaceOnUse" gradientTransform="translate(158.254 91.348) scale(51.413 51.413)">
<stop stop-color="#FBFBFC"/>
<stop offset="0.26" stop-color="#F8F9FA"/>
<stop offset="0.53" stop-color="#E5EAEE"/>
<stop offset="0.78" stop-color="#C0CED8"/>
<stop offset="1" stop-color="#C7D4DD"/>
</radialGradient>
<linearGradient id="paint3_linear_37_127" x1="81.7246" y1="71.1666" x2="32.7826" y2="71.1666" gradientUnits="userSpaceOnUse">
<stop stop-color="#CCC8D3"/>
<stop offset="0.66" stop-color="white"/>
<stop offset="1" stop-color="white"/>
</linearGradient>
<radialGradient id="paint4_radial_37_127" cx="0" cy="0" r="1" gradientUnits="userSpaceOnUse" gradientTransform="translate(197.536 118.768) scale(54.8841)">
<stop stop-color="#FBFBFC"/>
<stop offset="0.26" stop-color="#F8F9FA"/>
<stop offset="0.53" stop-color="#E5EAEE"/>
<stop offset="0.78" stop-color="#C0CED8"/>
<stop offset="1" stop-color="#C7D4DD"/>
</radialGradient>
<radialGradient id="paint5_radial_37_127" cx="0" cy="0" r="1" gradientUnits="userSpaceOnUse" gradientTransform="translate(61.1667 124.29) scale(75.2754)">
<stop stop-color="#FBFBFC"/>
<stop offset="0.26" stop-color="#F8F9FA"/>
<stop offset="0.53" stop-color="#E5EAEE"/>
<stop offset="0.78" stop-color="#C0CED8"/>
<stop offset="1" stop-color="#C7D4DD"/>
</radialGradient>
<radialGradient id="paint6_radial_37_127" cx="0" cy="0" r="1" gradientUnits="userSpaceOnUse" gradientTransform="translate(43.2681 139.841) scale(53.0145)">
<stop stop-color="#FBFBFC"/>
<stop offset="0.26" stop-color="#F8F9FA"/>
<stop offset="0.53" stop-color="#E5EAEE"/>
<stop offset="0.78" stop-color="#C0CED8"/>
<stop offset="1" stop-color="#C7D4DD"/>
</radialGradient>
<radialGradient id="paint7_radial_37_127" cx="0" cy="0" r="1" gradientUnits="userSpaceOnUse" gradientTransform="translate(74.7754 127.768) scale(91.4783)">
<stop stop-color="#FBFBFC"/>
<stop offset="0.26" stop-color="#F8F9FA"/>
<stop offset="0.53" stop-color="#E5EAEE"/>
<stop offset="0.78" stop-color="#C0CED8"/>
<stop offset="1" stop-color="#C7D4DD"/>
</radialGradient>
<clipPath id="clip0_37_127">
<rect width="200" height="200" fill="white"/>
</clipPath>
</defs>
</svg>
