<svg width="200" height="200" viewBox="0 0 200 200" fill="none" xmlns="http://www.w3.org/2000/svg">
<g clip-path="url(#clip0_36_1622)">
<path d="M163.699 162.652C163.61 171.527 163.199 186.414 163.141 187.605C163.141 187.605 163.138 187.725 163.125 187.939C163.077 188.956 163.033 189.736 162.723 191.065C162.359 192.617 161.66 193.664 160.329 195.495C159.364 196.824 157.574 198.333 155.31 198.353H155.237C154.656 198.353 154.051 198.28 153.39 198.13C153.144 198.075 152.948 197.889 152.878 197.648C152.807 197.405 152.873 197.144 153.049 196.966C153.603 196.4 154.091 195.783 154.498 195.131C155.348 193.738 155.848 192.135 155.938 190.496C155.954 190.154 155.946 189.779 155.938 189.417L155.933 189.244L155.689 185.912C155.551 183.869 155.373 181.794 155.2 179.788C155.119 178.84 155.038 177.893 154.96 176.945L154.956 176.905C154.677 173.988 154.39 170.97 154.026 168.014C154.008 167.867 153.883 167.758 153.735 167.758H153.734C153.574 167.758 153.445 167.891 153.445 168.05C153.463 171.045 153.563 174.087 153.661 177.032C153.704 177.967 153.745 178.913 153.785 179.86C153.872 181.873 153.96 183.955 154.084 185.998L154.272 189.684C154.272 189.924 154.272 190.154 154.257 190.391C154.139 191.789 153.717 193.115 153.04 194.242C152.312 195.412 151.325 196.397 150.181 197.099C149.047 197.789 147.721 198.217 146.348 198.341C146.334 198.341 146.323 198.343 146.311 198.345C144.404 198.45 142.486 197.879 140.911 196.733C140.602 196.508 140.533 196.076 140.755 195.765C141.028 195.384 141.258 195.021 141.458 194.66C142.224 193.268 142.634 191.661 142.645 190.012C142.662 189.734 142.639 189.47 142.612 189.189C142.599 189.041 142.586 188.891 142.577 188.745C142.552 188.532 142.516 188.309 142.479 188.086C142.458 187.954 142.436 187.823 142.416 187.687L142.071 185.496C141.757 183.43 141.398 181.337 141.053 179.311C140.905 178.446 140.757 177.581 140.612 176.716C140.028 173.483 139.534 170.782 138.948 167.992C138.918 167.847 138.782 167.744 138.638 167.761C138.478 167.774 138.359 167.917 138.373 168.077C138.643 171.123 139.001 174.192 139.317 176.9C139.43 177.76 139.539 178.629 139.649 179.495C139.906 181.53 140.172 183.631 140.471 185.69L140.778 187.895C140.795 188.024 140.813 188.151 140.832 188.277C140.868 188.532 140.905 188.785 140.925 189.011C140.926 189.029 140.928 189.051 140.928 189.069C140.928 189.17 140.936 189.269 140.945 189.367C140.96 189.568 140.978 189.796 140.951 190.049C140.903 191.416 140.554 192.75 139.943 193.86C139.285 195.061 138.367 196.091 137.286 196.836C136.209 197.583 134.924 198.09 133.572 198.3C129.806 198.746 126.282 196.706 124.78 193.224C124.714 193.07 124.706 192.895 124.757 192.734C125.114 191.636 125.275 190.451 125.225 189.309C125.227 188.974 125.179 188.641 125.129 188.289L125.098 188.064C125.076 187.876 125.043 187.745 125.006 187.593L124.319 184.879C123.616 182.147 122.827 179.286 121.973 176.375C121.224 173.83 120.339 170.872 119.294 167.982C119.246 167.849 119.112 167.764 118.969 167.793C118.864 167.809 118.806 167.874 118.778 167.912C118.751 167.949 118.711 168.027 118.728 168.132C119.238 171.16 119.917 174.154 120.513 176.724C121.196 179.652 121.912 182.518 122.643 185.243L123.365 187.89C123.427 188.102 123.488 188.314 123.505 188.508C123.511 188.55 123.526 188.628 123.54 188.708C123.578 188.923 123.619 189.164 123.624 189.44C123.692 190.463 123.599 191.471 123.344 192.399C123.327 192.461 123.3 192.519 123.267 192.574C123.257 192.592 123.247 192.611 123.237 192.627C123.214 192.664 123.204 192.682 123.194 192.7C123.178 192.732 123.164 192.755 123.154 192.782C123.149 192.795 123.138 192.819 123.128 192.838C122.093 195.618 119.754 197.623 116.866 198.205C113.755 198.83 110.473 197.606 108.506 195.078C108.161 194.602 107.854 194.096 107.581 193.559C107.568 193.534 107.556 193.506 107.548 193.479C107.51 193.374 107.467 193.273 107.424 193.171C107.334 192.957 107.233 192.714 107.168 192.439L106.869 191.358L106.513 190.04C106.213 188.928 105.904 187.776 105.578 186.652C104.796 183.874 103.916 180.893 102.804 177.265C101.888 174.22 100.876 171.09 99.7949 167.957C99.7467 167.818 99.6005 167.736 99.4594 167.768C99.3564 167.789 99.2999 167.856 99.2766 167.894C99.2517 167.932 99.2135 168.011 99.2368 168.114C99.9294 171.354 100.677 174.556 101.459 177.629C102.378 181.304 103.16 184.308 103.924 187.089C104.221 188.204 104.543 189.328 104.856 190.416L105.42 192.374L105.63 193.018C105.714 193.309 105.839 193.584 105.972 193.875C106.027 194 106.083 194.123 106.136 194.246C106.261 194.479 106.392 194.707 106.528 194.933C106.693 195.201 106.655 195.547 106.437 195.775C105.401 196.859 104.095 197.649 102.663 198.057C99.662 198.879 96.3534 197.931 94.2241 195.645C94.0397 195.474 93.867 195.247 93.7142 195.048C93.6511 194.966 93.5896 194.883 93.5232 194.805C93.5016 194.78 93.4833 194.753 93.4667 194.725C93.4102 194.632 93.3504 194.54 93.2906 194.45C93.1544 194.246 93.0166 194.035 92.8987 193.79C92.7342 193.509 92.618 193.221 92.5033 192.943L92.4303 192.767L90.2478 186.812L86.6851 177.338C85.456 174.146 84.2468 171.02 82.9845 167.927C82.928 167.791 82.7719 167.718 82.6291 167.759C82.4763 167.806 82.3899 167.969 82.4364 168.122C83.4097 171.293 84.4113 174.359 85.5274 177.752L88.7613 187.339L90.8823 193.411C91.0401 193.818 91.1895 194.203 91.3855 194.559C91.6015 194.989 91.8506 195.399 92.1396 195.8C92.3655 196.109 92.2957 196.545 91.9868 196.771C91.3025 197.27 90.5767 197.654 89.8259 197.917C89.6117 197.992 89.3941 198.049 89.1782 198.107C86.3164 198.819 83.1406 197.929 81.0811 195.839C80.4865 195.217 80.033 194.615 79.6809 193.988C79.5945 193.855 79.5364 193.727 79.4833 193.612C79.4617 193.562 79.4401 193.514 79.4135 193.466L79.362 193.359C79.2906 193.214 79.2192 193.065 79.1411 192.872L76.6032 186.9L72.4459 177.373L70.3282 172.628L68.1607 167.906C68.0975 167.769 67.9381 167.703 67.7952 167.754C67.6458 167.811 67.5694 167.979 67.6258 168.129L69.4512 173.001L71.3247 177.845L75.1549 187.507L77.6047 193.519C77.6778 193.709 77.7791 193.928 77.8788 194.143C77.9137 194.213 77.9519 194.296 77.9901 194.381C78.0515 194.517 78.108 194.645 78.1728 194.748C78.598 195.548 79.1527 196.287 79.8902 197.049L79.9533 197.107C80.1377 197.288 80.2074 197.558 80.131 197.806C80.0563 198.054 79.8487 198.24 79.5945 198.287C79.0863 198.381 78.583 198.43 78.0881 198.43C75.0403 198.43 72.2997 196.641 70.4112 193.361L69.9379 192.547C66.621 186.863 61.9155 178.444 57.0291 168.553C57.9708 170.745 59.1102 173.374 60.5934 176.707C64.3172 185.073 66.0529 189.006 68.5825 193.341L68.6108 193.389L69.0542 194.153C69.0692 194.178 69.0875 194.208 69.1057 194.238L69.109 194.244C69.2004 194.401 69.2967 194.559 69.3947 194.712C69.4412 194.785 69.4877 194.856 69.5359 194.928C69.614 195.046 69.692 195.161 69.7718 195.276C69.8498 195.387 69.9312 195.5 70.0159 195.613C70.094 195.718 70.172 195.823 70.2518 195.923C70.3398 196.034 70.4295 196.142 70.5125 196.24C70.5474 196.28 70.579 196.319 70.6105 196.355C72.6668 198.741 75.2529 200.002 78.0881 200.002C78.681 200.002 79.2856 199.945 79.8852 199.832C79.9035 199.829 79.9201 199.822 79.9384 199.819V199.822C81.1243 199.534 82.0012 199.097 82.4613 198.771C83.8997 199.513 85.5224 199.917 87.18 199.917C87.9873 199.917 88.7862 199.82 89.5552 199.629H89.5651L89.5751 199.624C89.7927 199.567 90.0634 199.496 90.3408 199.399C91.2361 199.085 92.0997 198.628 92.9086 198.04C93.2059 197.822 93.4351 197.546 93.5929 197.238C95.4449 198.952 97.913 199.922 100.471 199.922C101.354 199.922 102.23 199.805 103.072 199.574H103.08L103.089 199.569C104.788 199.085 106.336 198.148 107.566 196.863C107.638 196.789 107.703 196.711 107.761 196.63C109.659 198.714 112.401 199.938 115.24 199.938C115.889 199.938 116.54 199.873 117.175 199.747C120.04 199.168 122.45 197.41 123.88 194.923C125.662 198.002 128.949 199.935 132.547 199.935C132.949 199.935 133.356 199.91 133.758 199.864L133.786 199.86L133.814 199.855C135.4 199.609 136.912 199.013 138.184 198.13C138.579 197.857 138.956 197.553 139.312 197.22C139.468 197.523 139.696 197.796 139.99 198.009C141.697 199.25 143.783 199.933 145.864 199.933C146.042 199.933 146.221 199.928 146.399 199.918H146.434L146.457 199.913L146.49 199.91C147.974 199.777 149.409 199.333 150.669 198.633C151.521 199.213 152.352 199.601 153.614 199.785C153.651 199.79 153.684 199.794 153.717 199.799C154.244 199.885 154.747 199.932 155.24 199.932H155.265H155.333C158.016 199.907 159.77 198.939 161.416 196.818C163.553 194.065 164.037 191.538 164 188.775V187.61C164 179.86 163.753 171.544 163.703 162.657L163.699 162.652Z" fill="#3B2D55"/>
<path d="M163.699 162.652C163.61 171.527 163.143 180.133 163.141 187.605C163.199 186.414 163.61 171.529 163.699 162.652Z" fill="#57D1E5"/>
<path d="M163.713 96.3297C163.713 80.1055 157.282 65.4582 145.605 55.0845C133.929 44.7125 117.464 39 99.2434 39C81.0229 39 64.6128 44.7125 52.9963 55.0829C41.3913 65.4432 35 80.0922 35 96.3297C35 118.767 46.4405 147.115 57.0323 168.55C61.9188 178.439 66.6242 186.858 69.9411 192.544L70.4145 193.358C72.3013 196.64 75.0435 198.426 78.0914 198.426C78.5863 198.426 79.0896 198.378 79.5978 198.283C79.8519 198.235 80.0596 198.05 80.1343 197.802C80.2107 197.555 80.1409 197.285 79.9566 197.104L79.8935 197.046C79.156 196.285 78.6013 195.545 78.1761 194.745C78.1113 194.64 78.0532 194.512 77.9934 194.377C77.9552 194.292 77.917 194.209 77.8821 194.139C77.7824 193.925 77.6794 193.705 77.608 193.516L75.1581 187.504L71.328 177.842L69.4545 172.998L67.6291 168.125C67.5726 167.976 67.649 167.808 67.7985 167.751C67.9414 167.7 68.1008 167.764 68.1639 167.902L70.3315 172.625L72.4492 177.37L76.6065 186.896L79.1444 192.869C79.2225 193.061 79.2955 193.21 79.3653 193.356L79.4168 193.462C79.4417 193.511 79.4649 193.561 79.4865 193.609C79.5397 193.724 79.5978 193.852 79.6842 193.985C80.0363 194.61 80.4897 195.214 81.0844 195.836C83.1439 197.924 86.3196 198.816 89.1814 198.104C89.3974 198.047 89.6149 197.989 89.8292 197.914C90.5783 197.651 91.3058 197.265 91.9901 196.768C92.299 196.542 92.3688 196.107 92.1429 195.796C91.8522 195.395 91.6047 194.988 91.3888 194.555C91.1928 194.199 91.0433 193.815 90.8856 193.407L88.7645 187.336L85.5307 177.749C84.4145 174.355 83.413 171.289 82.4397 168.119C82.3932 167.964 82.4795 167.803 82.6324 167.756C82.7752 167.714 82.9297 167.786 82.9878 167.924C84.2501 171.017 85.4576 174.142 86.6884 177.335L90.2511 186.808L92.4335 192.764L92.5066 192.94C92.6196 193.22 92.7375 193.506 92.9019 193.787C93.0199 194.031 93.1577 194.243 93.2939 194.447C93.3537 194.537 93.4135 194.629 93.47 194.722C93.4866 194.75 93.5065 194.777 93.5264 194.802C93.5912 194.881 93.6543 194.963 93.7174 195.044C93.8719 195.244 94.0447 195.469 94.2274 195.642C96.3567 197.929 99.6653 198.877 102.667 198.054C104.098 197.646 105.402 196.856 106.44 195.771C106.658 195.543 106.696 195.199 106.532 194.93C106.395 194.703 106.264 194.475 106.14 194.243C106.086 194.119 106.03 193.996 105.975 193.872C105.842 193.58 105.718 193.306 105.633 193.015L105.424 192.371L104.859 190.413C104.547 189.325 104.225 188.201 103.927 187.086C103.163 184.305 102.381 181.3 101.462 177.626C100.68 174.555 99.9327 171.353 99.2401 168.11C99.2185 168.007 99.2567 167.929 99.2799 167.891C99.3048 167.853 99.3596 167.786 99.4626 167.764C99.6038 167.733 99.7516 167.814 99.7981 167.954C100.878 171.086 101.889 174.217 102.808 177.261C103.919 180.89 104.799 183.871 105.582 186.649C105.907 187.773 106.216 188.924 106.517 190.037L106.872 191.355L107.171 192.436C107.236 192.712 107.337 192.955 107.427 193.168C107.47 193.269 107.513 193.371 107.551 193.476C107.561 193.502 107.573 193.531 107.585 193.556C107.857 194.093 108.164 194.599 108.51 195.074C110.476 197.603 113.758 198.826 116.869 198.202C119.758 197.618 122.096 195.615 123.131 192.835C123.141 192.815 123.153 192.794 123.158 192.779C123.169 192.754 123.181 192.729 123.197 192.697C123.207 192.679 123.217 192.661 123.241 192.624C123.251 192.607 123.262 192.589 123.271 192.571C123.304 192.516 123.329 192.458 123.347 192.396C123.603 191.468 123.696 190.46 123.628 189.437C123.624 189.161 123.581 188.918 123.543 188.705C123.53 188.625 123.515 188.547 123.508 188.505C123.491 188.31 123.43 188.098 123.368 187.886L122.646 185.24C121.915 182.515 121.199 179.649 120.517 176.721C119.92 174.151 119.243 171.155 118.731 168.129C118.713 168.024 118.754 167.946 118.781 167.909C118.808 167.873 118.867 167.808 118.972 167.789C119.113 167.761 119.249 167.846 119.298 167.979C120.342 170.869 121.228 173.826 121.977 176.371C122.829 179.283 123.618 182.144 124.322 184.875L125.009 187.59C125.046 187.742 125.081 187.873 125.101 188.061L125.132 188.286C125.182 188.638 125.23 188.969 125.229 189.305C125.279 190.448 125.117 191.633 124.76 192.73C124.709 192.892 124.717 193.066 124.784 193.221C126.283 196.703 129.81 198.744 133.575 198.297C134.927 198.087 136.213 197.581 137.289 196.833C138.37 196.087 139.289 195.058 139.946 193.857C140.558 192.747 140.906 191.415 140.954 190.046C140.981 189.793 140.963 189.565 140.948 189.363C140.94 189.265 140.933 189.167 140.931 189.066C140.931 189.047 140.931 189.026 140.928 189.007C140.908 188.781 140.871 188.528 140.835 188.274C140.817 188.147 140.798 188.021 140.782 187.891L140.474 185.687C140.176 183.628 139.91 181.527 139.652 179.492C139.543 178.624 139.433 177.755 139.32 176.897C139.003 174.189 138.644 171.12 138.377 168.074C138.362 167.914 138.481 167.771 138.641 167.758C138.785 167.741 138.922 167.844 138.951 167.989C139.538 170.779 140.033 173.48 140.616 176.712C140.76 177.579 140.908 178.443 141.056 179.308C141.401 181.332 141.76 183.426 142.074 185.492L142.419 187.683C142.439 187.82 142.461 187.953 142.483 188.083C142.519 188.305 142.556 188.528 142.581 188.741C142.591 188.889 142.602 189.037 142.615 189.185C142.64 189.467 142.664 189.733 142.649 190.009C142.639 191.657 142.228 193.264 141.461 194.657C141.262 195.018 141.031 195.38 140.759 195.761C140.536 196.072 140.606 196.505 140.915 196.73C142.491 197.876 144.409 198.446 146.314 198.341C146.326 198.341 146.338 198.34 146.351 198.338C147.724 198.213 149.048 197.786 150.184 197.096C151.329 196.393 152.315 195.407 153.043 194.239C153.722 193.111 154.142 191.786 154.26 190.388C154.275 190.149 154.275 189.921 154.275 189.681L154.088 185.995C153.963 183.952 153.873 181.871 153.789 179.856C153.749 178.91 153.709 177.965 153.664 177.029C153.568 174.086 153.466 171.042 153.448 168.047C153.448 167.886 153.578 167.754 153.737 167.754H153.739C153.887 167.754 154.011 167.864 154.029 168.011C154.393 170.967 154.68 173.984 154.96 176.902L154.963 176.942C155.041 177.89 155.122 178.837 155.204 179.785C155.375 181.791 155.554 183.866 155.692 185.908L155.936 189.24L155.941 189.413C155.949 189.776 155.959 190.15 155.941 190.493C155.85 192.13 155.351 193.734 154.501 195.128C154.094 195.78 153.606 196.397 153.053 196.962C152.877 197.142 152.81 197.403 152.882 197.644C152.951 197.886 153.147 198.07 153.393 198.127C154.054 198.278 154.659 198.351 155.24 198.351H155.313C157.577 198.33 159.368 196.823 160.333 195.494C161.663 193.662 162.362 192.616 162.726 191.064C163.037 189.734 163.08 188.954 163.128 187.938C163.133 187.83 163.138 187.718 163.145 187.603C163.145 180.131 163.613 171.527 163.703 162.651C163.713 161.724 163.719 160.794 163.719 159.863C163.723 129.527 163.723 97.0866 163.716 96.3297H163.713Z" fill="#57D1E5"/>
<path d="M51.2806 95.0372C48.4188 79.6829 58.5272 64.9126 73.8577 62.0463C89.1881 59.1801 103.936 69.3042 106.797 84.6585C109.659 100.013 99.5507 114.783 84.2219 117.649C68.8915 120.516 54.144 110.391 51.2822 95.0372" fill="#4D9BB6"/>
<path d="M115.947 106.124C120.65 107.773 120.65 122.37 123.94 123.312C126.29 123.312 132.404 114.129 131.698 105.181C131.434 101.821 129.348 99.2957 126.996 99.5302C124.644 99.7648 119.474 103.533 115.947 106.123" fill="#4D9BB6"/>
<path d="M86.5356 125.644C89.6332 124.619 92.5465 122.928 95.3535 121.091C104.015 115.35 111.068 108.107 119.547 101.809C121.904 100.214 124.36 98.449 127.463 98.1246C130.173 97.8185 132.055 99.8181 133.236 102.031C135.658 106.479 134.655 111.918 132.46 116.167C130.293 120.278 127.131 124.08 122.766 125.955C121.556 126.393 118.563 127.398 118.439 125.223C118.45 124.523 119.015 123.966 119.699 123.941C120.958 123.851 122.345 123.096 123.555 122.147C128.708 118.007 133.92 108.207 128.778 102.453C126.855 100.314 116.022 109.771 113.85 111.389C111.164 113.542 108.47 115.72 105.694 117.826C100.051 122.029 94.1941 126.185 87.278 128.153C85.6636 128.562 84.9211 126.205 86.5356 125.646" fill="#4D9BB6"/>
<path d="M70.6387 60.2148C55.3083 63.081 45.2015 77.8514 48.0616 93.2056C50.9234 108.56 65.6725 118.682 81.003 115.818C96.3334 112.952 106.44 98.1812 103.578 82.827C101.044 69.2261 89.1814 59.7307 75.8507 59.7307C74.1317 59.7307 72.3893 59.8887 70.6387 60.2165" fill="url(#paint0_linear_36_1622)"/>
<path d="M72.3179 107.47C76.8124 105.662 75.8291 95.202 72.5039 92.9196C70.3215 91.4208 66.4448 91.5106 66.2057 90.2264C65.9665 88.9438 69.6139 87.6263 71.1104 85.4388C73.3875 82.1101 70.539 71.9993 65.6957 71.936C59.919 71.8612 52.7371 80.1638 55.001 92.3208C57.2665 104.478 66.9564 109.626 72.3179 107.469" fill="#3B2D55"/>
<path d="M114.559 105.429C119.261 107.078 119.261 121.675 122.551 122.617C124.901 122.617 131.015 113.434 130.31 104.486C130.045 101.126 127.959 98.6004 125.607 98.8349C123.256 99.0695 118.085 102.837 114.559 105.427" fill="#3B2D55"/>
<path d="M85.147 124.949C88.2447 123.924 91.1579 122.232 93.9649 120.396C102.627 114.655 109.679 107.412 118.158 101.114C120.515 99.5187 122.972 97.7537 126.074 97.4293C128.785 97.1232 130.667 99.1228 131.848 101.335C134.269 105.783 133.266 111.223 131.072 115.472C128.904 119.582 125.742 123.385 121.377 125.26C120.168 125.697 117.175 126.702 117.05 124.528C117.062 123.828 117.627 123.27 118.311 123.245C119.57 123.156 120.957 122.4 122.166 121.452C127.32 117.312 132.532 107.512 127.39 101.758C125.466 99.6185 114.634 109.076 112.461 110.694C109.775 112.847 107.081 115.024 104.306 117.13C98.6621 121.334 92.8056 125.489 85.8895 127.457C84.275 127.867 83.5326 125.509 85.147 124.951" fill="#3B2D55"/>
<path d="M57.7399 51.5079C58.1402 51.1503 58.5471 50.7976 58.9574 50.45C56.8546 51.8706 54.8631 53.416 52.9963 55.0828C41.3913 65.4432 35 80.0905 35 96.3297C35 129.119 59.4357 174.538 69.9411 192.544L70.4145 193.358C71.0689 194.495 71.828 195.45 72.6651 196.215C59.9107 173.444 37.9448 129.485 37.9448 96.8803C37.9448 79.0175 44.9756 62.9047 57.7399 51.5096" fill="#93E1EF"/>
</g>
<defs>
<linearGradient id="paint0_linear_36_1622" x1="47.5783" y1="88.0155" x2="104.063" y2="88.0155" gradientUnits="userSpaceOnUse">
<stop stop-color="white"/>
<stop offset="0.27" stop-color="white"/>
<stop offset="1" stop-color="#CECAD5"/>
</linearGradient>
<clipPath id="clip0_36_1622">
<rect width="200" height="200" fill="white"/>
</clipPath>
</defs>
</svg>
