<svg width="200" height="200" viewBox="0 0 200 200" fill="none" xmlns="http://www.w3.org/2000/svg">
<path d="M160.479 71.224C157.544 65.9377 153.771 61.0246 149.267 56.6233C146.664 54.1289 144.427 52.2219 142.22 50.6197C141.687 50.2028 141.065 49.7538 140.337 49.2654C140.115 49.1152 139.89 48.9592 139.667 48.8047C139.258 48.5218 138.848 48.239 138.431 47.9679C138.076 47.7492 137.736 47.5363 137.396 47.3235C136.447 46.7287 135.465 46.1134 134.449 45.5682C131.531 43.8741 128.481 42.4921 126.151 41.4803C125.712 41.3068 125.296 41.1377 124.881 40.9686C123.884 40.5618 122.851 40.1434 121.8 39.7906L119.637 39.0281L117.411 38.3371C116.604 38.0718 115.785 37.8545 115.163 37.6942L112.94 37.1096C112.457 37.0061 112.008 36.9055 111.558 36.8034C110.519 36.5701 109.445 36.3281 108.362 36.1605C105.564 35.6298 102.548 35.2785 99.1647 35.0904C97.997 35.0306 96.8381 35.0015 95.6836 35.0015C90.5225 35.0015 85.5088 35.5992 80.733 36.7815C77.8269 37.4726 74.864 38.4566 71.9287 39.7046C68.9702 40.9554 66.2042 42.4075 63.7098 44.0214C60.9964 45.7665 58.5049 47.6471 56.3082 49.6123C54.0429 51.6548 51.8827 53.9058 49.8846 56.3098C48.0163 58.606 46.2181 61.1588 44.5352 63.9054C43.0478 66.3867 41.6569 69.0882 40.2819 72.1716C36.1615 81.8752 33.4656 92.8239 32.0338 105.658C30.8369 116.446 30.6807 127.758 31.5565 140.237C32.2162 149.219 33.3693 157.966 34.9895 166.346C35.5178 169.08 36.0973 171.774 36.7249 174.424C38.2575 180.771 39.8922 186.171 41.7211 190.936C42.2568 192.371 42.8712 193.531 43.6507 194.583C44.5104 195.728 45.4985 196.647 46.5917 197.315C47.7098 197.997 49.003 198.388 50.3297 198.442C50.4275 198.446 50.5253 198.447 50.6246 198.447C50.683 198.447 50.7413 198.447 50.7983 198.446C51.0873 198.44 51.3427 198.262 51.4478 197.995C51.5529 197.729 51.4887 197.424 51.2843 197.224C49.9648 195.934 49.0205 194.355 48.5534 192.658C48.3038 191.713 48.1914 190.903 48.082 190.118C48.0338 189.773 47.9871 189.43 47.9287 189.079L46.4064 178.664L45.4357 171.708L44.5264 164.746C44.5031 164.559 44.6286 164.384 44.8125 164.349C45.0125 164.311 45.1934 164.439 45.2314 164.632L46.5523 171.535L47.8119 178.442L49.6321 188.818C49.6919 189.142 49.7474 189.47 49.8028 189.798C49.9517 190.671 50.0918 191.498 50.2801 192.146C50.861 194.171 52.252 195.96 54.0911 197.051C55.8689 198.122 58.0845 198.51 60.1688 198.113C60.8636 197.984 61.5671 197.749 62.2575 197.415C62.4531 197.319 62.5947 197.141 62.6414 196.93C62.6895 196.718 62.637 196.497 62.4998 196.328C61.5058 195.094 60.8038 193.654 60.4681 192.162C60.398 191.919 60.3659 191.696 60.3309 191.46L60.2695 191.044C60.2535 190.941 60.2389 190.836 60.2287 190.745L59.1121 178.104L58.5443 171.124L58.0364 164.141C58.0232 163.952 58.159 163.786 58.3458 163.761C58.4713 163.744 58.5662 163.796 58.6115 163.831C58.6552 163.865 58.7311 163.941 58.7472 164.068L59.6697 171.016L60.5308 177.964L61.751 188.397C61.7904 188.712 61.8255 189.029 61.8605 189.343C61.9598 190.231 62.0532 191.069 62.2166 191.741C62.7041 193.797 63.9973 195.647 65.7634 196.815C67.4785 197.971 69.6693 198.474 71.7609 198.185C73.5883 197.946 75.3296 197.073 76.6593 195.727C76.8811 195.502 76.9293 195.16 76.776 194.883L76.7089 194.765C76.6739 194.704 76.6388 194.642 76.6082 194.58C76.1864 193.798 75.8769 192.931 75.6536 191.906C75.4391 190.945 75.4274 189.805 75.4201 189.193L75.3398 184.023C75.2727 180.212 75.2333 176.836 75.2172 173.697C75.1851 170.377 75.1793 166.999 75.1968 163.368C75.1982 163.183 75.3456 163.025 75.531 163.014C75.7266 162.998 75.8974 163.151 75.9105 163.347C76.1338 166.878 76.3279 170.348 76.487 173.658C76.652 176.795 76.8082 180.17 76.9614 183.976L77.1891 189.374C77.2256 190.19 77.2548 190.836 77.4197 191.55C77.6226 192.415 77.8883 193.129 78.2342 193.74C79.6908 196.519 82.7604 198.345 85.8445 198.258C85.8547 198.258 85.8634 198.258 85.8737 198.258C86.6779 198.258 87.4427 198.156 88.1273 197.956C88.8235 197.78 89.5445 197.475 90.2451 197.054C91.5529 196.282 92.6841 195.097 93.4241 193.721C93.8386 192.991 94.0751 192.181 94.2313 191.559C94.4079 190.764 94.4356 190.089 94.475 189.15L94.694 183.976C94.8531 180.023 95.0049 176.745 95.1683 173.66C95.3289 170.348 95.523 166.88 95.7463 163.347C95.7595 163.162 95.9142 163.014 96.101 163.012H96.1039C96.2995 163.012 96.4601 163.171 96.4615 163.366C96.4805 166.876 96.4747 170.35 96.444 173.694C96.4294 176.761 96.39 180.042 96.3214 184.023L96.2411 189.191C96.2382 190.305 96.1594 191.193 96.0047 191.912C95.7565 192.983 95.4529 193.827 95.0559 194.561C95.018 194.634 94.9815 194.696 94.945 194.757L94.8779 194.873C94.7202 195.15 94.7669 195.497 94.9917 195.724C96.317 197.062 98.0569 197.939 99.8901 198.192C101.977 198.479 104.164 197.975 105.89 196.806C107.649 195.629 108.945 193.781 109.442 191.738C109.605 191.078 109.699 190.248 109.795 189.371C109.831 189.047 109.868 188.722 109.907 188.404L111.129 177.96L111.99 171.012L112.911 164.071C112.936 163.884 113.101 163.754 113.291 163.761C113.419 163.772 113.499 163.842 113.536 163.884C113.572 163.926 113.631 164.015 113.622 164.143L113.114 171.134L112.546 178.113L111.428 190.757C111.421 190.84 111.405 190.947 111.389 191.05L111.346 191.333C111.304 191.617 111.266 191.884 111.196 192.13C110.843 193.654 110.136 195.093 109.141 196.325C109.005 196.494 108.953 196.715 108.999 196.927C109.046 197.138 109.188 197.318 109.382 197.412C110.071 197.749 110.776 197.987 111.479 198.121C113.54 198.528 115.759 198.137 117.561 197.049C119.386 195.96 120.775 194.174 121.374 192.149C121.565 191.505 121.704 190.683 121.853 189.812C121.908 189.481 121.965 189.149 122.023 188.83L123.845 178.442L125.105 171.533L126.424 164.636C126.459 164.451 126.63 164.327 126.821 164.349C126.949 164.365 127.024 164.441 127.059 164.485C127.116 164.56 127.142 164.654 127.129 164.75L126.218 171.719L125.249 178.673L123.724 189.098C123.665 189.441 123.619 189.788 123.57 190.137C123.462 190.916 123.352 191.721 123.096 192.665C122.628 194.319 121.711 195.864 120.446 197.135C120.244 197.336 120.183 197.638 120.288 197.902C120.393 198.166 120.645 198.342 120.93 198.35C121.153 198.355 121.377 198.357 121.6 198.35C123.079 198.248 124.461 197.812 125.62 197.093C126.856 196.331 127.876 195.295 128.564 194.099C128.967 193.456 129.225 192.741 129.403 192.193C129.41 192.17 129.416 192.146 129.422 192.123C129.444 192.018 129.472 191.922 129.498 191.824C129.552 191.626 129.612 191.401 129.651 191.11L129.848 189.98C130.87 184.148 131.995 177.881 133.315 171.57C133.637 170.062 133.969 168.511 134.347 166.982C134.523 166.243 134.728 165.472 134.96 164.681L135.542 162.993L135.746 162.401C135.793 162.276 135.841 162.133 135.889 161.99C135.97 161.751 136.044 161.527 136.139 161.322L137.158 159.092C137.321 158.727 137.476 158.386 137.666 158.08L138.893 155.941C139.144 155.52 139.429 155.109 139.731 154.676C139.896 154.44 140.059 154.204 140.22 153.963C141.836 151.673 143.755 149.358 146.25 146.697C146.949 145.934 147.649 145.188 148.346 144.445C149.754 142.941 151.209 141.387 152.561 139.814C156.734 135.136 160.117 129.959 162.609 124.437C163.128 123.407 163.541 122.298 163.943 121.223C164.073 120.875 164.203 120.527 164.337 120.18C164.781 119.095 165.128 117.962 165.462 116.866C165.569 116.516 165.677 116.165 165.786 115.816C166.604 112.851 167.209 109.817 167.593 106.774C169.066 94.709 166.541 82.0881 160.481 71.2327L160.479 71.224Z" fill="#57D1E5"/>
<path d="M160.789 127.023C161.276 125.83 161.657 124.584 162.026 123.377C162.145 122.992 162.261 122.605 162.382 122.221C163.283 118.958 163.949 115.621 164.37 112.275C165.991 99.0038 163.212 85.119 156.547 73.1789C153.318 67.3649 149.169 61.9605 144.213 57.1175C141.351 54.3737 138.89 52.2773 136.463 50.5133C135.878 50.054 135.192 49.5613 134.392 49.0248C134.147 48.8586 133.9 48.688 133.655 48.5174C133.205 48.2054 132.754 47.8949 132.296 47.5975C131.905 47.3569 131.531 47.1237 131.157 46.889C130.114 46.2344 129.034 45.5579 127.917 44.9573C124.708 43.0941 121.352 41.5735 118.789 40.4597C118.304 40.2687 117.847 40.0821 117.391 39.897C116.293 39.4509 115.159 38.9887 114.001 38.6024L111.622 37.7641L109.175 37.0031C108.287 36.7115 107.387 36.4724 106.702 36.296L104.256 35.6516C103.857 35.5671 103.482 35.4825 103.111 35.3994C104.959 35.5919 106.702 35.8412 108.365 36.1575C109.446 36.3252 110.52 36.5672 111.561 36.8004C112.009 36.9025 112.459 37.0031 112.942 37.1066L115.165 37.6912C115.787 37.8516 116.607 38.0688 117.413 38.3341L119.637 39.0252L121.8 39.7876C122.851 40.139 123.884 40.5589 124.881 40.9641C125.297 41.1318 125.712 41.3009 126.153 41.4759C128.482 42.4876 131.533 43.8697 134.45 45.5638C135.466 46.109 136.447 46.7242 137.397 47.319C137.737 47.5319 138.077 47.7447 138.432 47.9634C138.85 48.2331 139.26 48.5174 139.668 48.8003C139.892 48.9548 140.116 49.1108 140.338 49.2609C141.067 49.7493 141.688 50.1969 142.221 50.6153C144.428 52.219 146.666 54.1244 149.268 56.6189C153.772 61.0217 157.545 65.9347 160.481 71.2195C166.539 82.0749 169.066 94.6958 167.593 106.761C167.209 109.804 166.604 112.838 165.786 115.803C165.675 116.153 165.569 116.503 165.462 116.853C165.128 117.949 164.781 119.083 164.337 120.166C164.203 120.513 164.073 120.862 163.943 121.21C163.541 122.283 163.128 123.394 162.609 124.423C161.686 126.469 160.64 128.466 159.478 130.408C159.792 129.665 160.079 128.908 160.357 128.166C160.5 127.782 160.643 127.399 160.79 127.018" fill="#93E1EF"/>
<g opacity="0.33">
<path d="M104.717 66.8563C111.952 78.601 110.072 94.3068 99.4873 104.133C87.4501 115.306 68.6418 114.708 57.5606 102.799C46.4794 90.8895 47.2588 72.1091 59.2961 60.9359C64.4207 56.1788 70.7713 53.5575 77.2315 53.0312L82.089 59.2651L95.218 65.1112L104.717 66.8578V66.8563Z" fill="#3B2D55"/>
</g>
<path d="M54.1641 112.641C54.5217 110.893 54.4225 109.039 53.6693 107.43C52.6812 105.213 50.2174 103.353 47.7434 103.808C46.9932 103.945 46.2707 104.405 45.7292 104.895C45.1731 105.419 44.8592 106.021 44.7162 106.802C44.4476 108.349 44.7527 110.457 44.1382 112.103C43.531 113.991 42.2728 115.907 42.4101 117.803C42.899 122.003 49.5971 122.451 51.9514 119.255C52.5921 118.424 53.8562 119.235 53.3789 120.159C51.3632 123.693 46.1495 124.582 42.7443 122.608C40.5739 121.377 39.2807 118.732 39.7857 116.255C40.0499 114.691 40.876 113.188 41.4526 111.855C41.8262 111.065 42.0014 110.327 42.051 109.423C42.1371 107.999 42.1342 106.019 42.9983 104.601C43.5952 103.542 44.579 102.732 45.6211 102.197C47.199 101.323 49.2336 101.369 50.8304 102.028C54.0313 103.3 56.0207 106.516 56.1433 109.84C56.1915 110.919 56.0674 111.989 55.8178 113.013C55.5215 114.074 53.9773 113.718 54.1685 112.641H54.1641Z" fill="#3B2D55"/>
<path d="M50.6494 113.36C50.4582 113.973 50.1663 114.565 49.6803 115.092C48.9446 115.936 47.5726 116.42 46.6034 115.603C44.9322 114.194 46.1408 110.015 48.1068 109.361C48.9636 109.043 49.9444 109.498 50.3838 110.27C50.9574 111.241 50.9326 112.373 50.6523 113.36H50.6494ZM48.2177 112.638C48.3506 112.201 48.4075 111.734 48.3681 111.346C48.3681 111.326 48.3681 111.316 48.3856 111.314C48.39 111.311 48.3944 111.31 48.4017 111.314C48.4192 111.317 48.4367 111.323 48.4571 111.327C48.5184 111.335 48.5316 111.342 48.6002 111.327C48.6148 111.323 48.6279 111.316 48.6366 111.304C48.641 111.297 48.641 111.294 48.6366 111.294L48.6279 111.284C48.5067 111.279 48.3856 111.367 48.2426 111.497C47.993 111.73 47.7945 112.096 47.6762 112.476C47.5653 112.86 47.5332 113.274 47.6149 113.606C47.6646 113.793 47.7186 113.933 47.8207 113.995L47.8339 113.991C47.8485 113.987 47.828 113.95 47.8207 113.941C47.7755 113.893 47.7565 113.889 47.7025 113.863C47.6835 113.857 47.666 113.851 47.6485 113.844C47.6398 113.844 47.6354 113.841 47.6339 113.835C47.6193 113.825 47.6281 113.815 47.6368 113.799C47.882 113.495 48.0878 113.074 48.2163 112.634L48.2177 112.638Z" fill="#3B2D55"/>
<path opacity="0.35" d="M49.3358 112.895C48.9592 114.161 48.0791 115.019 47.3697 114.809C46.6603 114.599 46.3918 113.4 46.7683 112.134C47.1449 110.867 48.0251 110.009 48.7344 110.219C49.4423 110.429 49.7123 111.628 49.3358 112.895Z" fill="#3B2D55"/>
<path d="M95.9201 56.2006C82.8699 46.5465 64.4543 49.2873 54.7889 62.3222C45.1235 75.3571 47.8675 93.7527 60.9177 103.407C73.9679 113.061 92.3821 110.32 102.049 97.2851C110.611 85.7387 109.436 69.9878 99.9851 59.8307C98.7663 58.5215 97.4104 57.3042 95.9201 56.202" fill="url(#paint0_linear_36_1298)"/>
<path d="M61.1176 90.8879C65.6803 93.0339 72.9505 84.8887 72.3316 80.744C71.9259 78.0207 69.1103 75.1311 69.9175 74.0407C70.7246 72.9516 74.3138 74.7988 77.0403 74.392C81.1899 73.7753 86.8706 64.4551 83.4858 60.7215C79.4471 56.2676 68.0317 56.6656 60.3791 66.9845C52.7264 77.3048 55.6734 88.3279 61.1176 90.8879Z" fill="#3B2D55"/>
<path opacity="0.35" d="M47.9098 122.123C51.2931 121.056 54.3335 117.883 52.8987 121.047C51.3136 124.54 48.0236 127.348 43.9003 125.737C39.777 124.126 38.7217 118.592 39.739 116.538C44.2783 123.358 47.9098 122.124 47.9098 122.124V122.123Z" fill="#3B2D55"/>
<path opacity="0.35" d="M49.5912 106.438C47.8324 106.161 46.3115 107.152 44.2841 109.683C43.2216 104.579 47.7988 100.769 51.2639 103.287C54.729 105.805 55.5361 110.999 54.1948 112.666C52.6724 107.987 51.3267 106.71 49.5912 106.438Z" fill="#3B2D55"/>
<path d="M135.542 162.986L134.96 164.674C134.729 165.464 134.523 166.237 134.347 166.975C133.969 168.504 133.636 170.055 133.315 171.563C131.995 177.874 130.868 184.14 129.848 189.973L129.651 191.103C129.613 191.394 129.552 191.619 129.498 191.817C129.472 191.915 129.445 192.011 129.422 192.116C129.418 192.139 129.41 192.164 129.403 192.186C129.225 192.734 128.967 193.45 128.564 194.091C127.875 195.288 126.856 196.323 125.62 197.086C124.462 197.806 123.079 198.24 121.6 198.342C121.377 198.351 121.152 198.35 120.93 198.342C120.645 198.335 120.393 198.159 120.288 197.895C120.183 197.631 120.244 197.329 120.446 197.128C121.711 195.858 122.629 194.313 123.096 192.658C123.353 191.713 123.464 190.909 123.571 190.13C123.619 189.78 123.667 189.433 123.724 189.091L125.249 178.665L126.218 171.711L127.129 164.743C127.141 164.646 127.116 164.553 127.059 164.477C127.024 164.434 126.949 164.358 126.821 164.342C126.63 164.32 126.46 164.444 126.424 164.629L125.105 171.526L123.845 178.435L122.023 188.822C121.965 189.143 121.908 189.476 121.853 189.805C121.704 190.675 121.564 191.499 121.374 192.142C120.775 194.166 119.386 195.951 117.561 197.042C115.76 198.129 113.54 198.52 111.479 198.113C110.776 197.979 110.071 197.74 109.382 197.405C109.188 197.309 109.046 197.131 108.999 196.919C108.951 196.708 109.004 196.486 109.141 196.317C110.136 195.085 110.843 193.647 111.196 192.123C111.266 191.877 111.306 191.61 111.346 191.326L111.389 191.043C111.405 190.939 111.421 190.834 111.428 190.75L112.546 178.106L113.114 171.127L113.622 164.136C113.632 164.008 113.572 163.919 113.536 163.877C113.499 163.834 113.421 163.764 113.291 163.754C113.101 163.747 112.936 163.877 112.911 164.063L111.99 171.004L111.129 177.952L109.907 188.397C109.868 188.714 109.831 189.04 109.795 189.363C109.697 190.241 109.605 191.07 109.442 191.731C108.944 193.775 107.648 195.623 105.89 196.798C104.164 197.968 101.977 198.471 99.8901 198.185C98.0569 197.931 96.317 197.055 94.9917 195.717C94.767 195.489 94.7203 195.142 94.8779 194.865L94.945 194.75C94.9815 194.689 95.0165 194.626 95.056 194.553C95.453 193.82 95.7566 192.976 96.0047 191.904C96.1609 191.186 96.2382 190.299 96.2411 189.184L96.3214 184.016C96.39 180.033 96.4294 176.753 96.444 173.687C96.4761 170.344 96.482 166.868 96.4615 163.359C96.4615 163.164 96.301 163.005 96.1039 163.005H96.101C95.9142 163.005 95.758 163.155 95.7463 163.34C95.523 166.871 95.3289 170.341 95.1683 173.653C95.0049 176.738 94.8545 180.015 94.694 183.969L94.475 189.143C94.4371 190.081 94.4079 190.757 94.2313 191.552C94.0737 192.174 93.8387 192.983 93.4241 193.714C92.6841 195.09 91.5544 196.275 90.2452 197.046C89.5445 197.468 88.8235 197.774 88.1273 197.949C87.4427 198.148 86.6779 198.251 85.8737 198.251C85.8635 198.251 85.8547 198.251 85.8445 198.251C82.7604 198.338 79.6923 196.511 78.2342 193.733C77.8883 193.122 77.6226 192.407 77.4197 191.543C77.2548 190.828 77.2256 190.183 77.1891 189.366L76.9614 183.969C76.8082 180.163 76.6535 176.789 76.4871 173.65C76.328 170.341 76.1338 166.873 75.9105 163.34C75.8974 163.143 75.7266 162.99 75.531 163.006C75.3457 163.018 75.1982 163.174 75.1968 163.361C75.1778 166.992 75.1851 170.37 75.2172 173.69C75.2333 176.828 75.2727 180.205 75.3398 184.016L75.4201 189.185C75.4259 189.798 75.4391 190.938 75.6536 191.899C75.8769 192.923 76.1864 193.791 76.6082 194.572C76.6403 194.635 76.6739 194.696 76.7089 194.757L76.7761 194.876C76.9293 195.153 76.8811 195.495 76.6593 195.72C75.3296 197.065 73.5883 197.939 71.7609 198.178C69.6693 198.465 67.4785 197.963 65.7635 196.807C63.9973 195.638 62.7042 193.788 62.2167 191.734C62.0546 191.063 61.9598 190.225 61.8605 189.336C61.8255 189.022 61.7904 188.704 61.751 188.389L60.5308 177.957L59.6697 171.009L58.7472 164.06C58.7311 163.932 58.6538 163.858 58.6115 163.824C58.5662 163.789 58.4713 163.737 58.3458 163.754C58.159 163.779 58.0247 163.945 58.0364 164.133L58.5443 171.116L59.1121 178.097L60.2287 190.738C60.2389 190.828 60.255 190.933 60.2696 191.037L60.3309 191.452C60.3659 191.689 60.398 191.912 60.4681 192.155C60.8038 193.648 61.5073 195.088 62.4998 196.32C62.6356 196.489 62.6881 196.711 62.6414 196.922C62.5932 197.134 62.4531 197.313 62.2575 197.408C61.5671 197.742 60.8636 197.978 60.1688 198.106C58.0846 198.503 55.8689 198.115 54.0911 197.043C52.252 195.953 50.8625 194.166 50.2801 192.139C50.0933 191.489 49.9532 190.664 49.8028 189.79C49.7474 189.464 49.6919 189.134 49.6321 188.811L47.812 178.435L46.5523 171.528L45.2314 164.624C45.1949 164.432 45.0125 164.304 44.8125 164.342C44.6286 164.377 44.5016 164.552 44.5264 164.738L45.4357 171.701L46.4064 178.657L47.9287 189.072C47.9871 189.423 48.0338 189.766 48.082 190.111C48.1915 190.895 48.3038 191.705 48.5534 192.651C49.022 194.348 49.9649 195.927 51.2843 197.217C51.4887 197.418 51.5543 197.723 51.4478 197.988C51.3412 198.255 51.0858 198.433 50.7983 198.439C50.7399 198.439 50.683 198.44 50.6246 198.44C50.5268 198.44 50.429 198.439 50.3298 198.434C49.003 198.379 47.7112 197.99 46.5917 197.307C45.4985 196.64 44.5089 195.721 43.6507 194.575C42.8712 193.523 42.2568 192.362 41.7211 190.929C39.8922 186.163 38.2575 180.763 36.7249 174.417C36.0973 171.767 35.5178 169.072 34.9895 166.339C34.9865 166.342 34.9822 166.343 34.9792 166.346C36.2666 173.076 38.4808 186.647 40.3301 191.468C40.9183 193.043 41.5985 194.324 42.4713 195.501C43.4478 196.804 44.5833 197.855 45.8444 198.625C47.0647 199.37 48.4542 199.824 49.886 199.949C50.3327 200 50.6903 200.013 51.0333 199.975C51.1223 199.968 51.2084 199.955 51.2945 199.937C51.6186 199.877 51.9484 199.774 52.3484 199.615C52.7001 199.475 53.1687 199.2 53.5146 198.931C54.6618 199.328 55.4923 199.512 57.2482 199.714C57.2628 199.716 57.2789 199.717 57.2935 199.72C57.3898 199.732 57.4861 199.742 57.5883 199.754C57.5883 199.754 57.5883 199.754 57.5883 199.752C58.5589 199.847 59.5441 199.809 60.506 199.627C61.3365 199.472 62.1729 199.192 62.9902 198.796C63.539 198.528 63.9492 198.058 64.1404 197.487C64.4017 197.702 64.6731 197.902 64.9519 198.087C66.9837 199.458 69.5613 200.051 72.0149 199.708C74.1838 199.426 76.2433 198.393 77.8109 196.806C77.9612 196.654 78.0868 196.482 78.186 196.298C80.1229 198.533 83.0187 199.88 85.9277 199.793C86.8866 199.793 87.7799 199.673 88.5608 199.444C89.4146 199.229 90.2656 198.869 91.0859 198.376C92.0112 197.831 92.8534 197.124 93.5701 196.293C93.6708 196.478 93.7963 196.651 93.9481 196.803C95.5113 198.382 97.5664 199.415 99.7339 199.714C102.198 200.051 104.775 199.456 106.806 198.081C107.084 197.895 107.353 197.695 107.613 197.481C107.804 198.049 108.213 198.519 108.762 198.79C109.57 199.185 110.404 199.466 111.237 199.627C112.161 199.81 113.113 199.857 114.053 199.775C114.053 199.775 114.053 199.775 114.053 199.777C114.07 199.774 114.088 199.773 114.105 199.77C114.565 199.727 115.022 199.654 115.471 199.551C116.594 199.329 117.363 199.061 118.246 198.737C118.504 199.065 118.935 199.412 119.29 199.547C120.329 199.937 120.936 200.006 122.217 199.838C123.77 199.666 125.24 199.172 126.49 198.396C127.948 197.497 129.142 196.284 129.931 194.909C130.425 194.123 130.727 193.289 130.936 192.643C130.959 192.571 130.978 192.496 130.99 192.436C131.003 192.377 131.017 192.32 131.048 192.209C131.106 191.99 131.188 191.69 131.229 191.365L131.426 190.237C132.446 184.412 133.76 171.891 135.544 162.984H135.541L135.542 162.986Z" fill="#3B2E54"/>
<defs>
<linearGradient id="paint0_linear_36_1298" x1="107.826" y1="79.8037" x2="49.0118" y2="79.8037" gradientUnits="userSpaceOnUse">
<stop stop-color="#CECAD5"/>
<stop offset="0.66" stop-color="white"/>
<stop offset="1" stop-color="white"/>
</linearGradient>
</defs>
</svg>
