<svg width="200" height="200" viewBox="0 0 200 200" fill="none" xmlns="http://www.w3.org/2000/svg">
<g clip-path="url(#clip0_36_1705)">
<path d="M67.4662 180.002L35.7815 182.455L65.0917 186.604L67.4662 180.002Z" fill="#326DE6"/>
<path d="M35.7815 182.455L65.0917 186.603L65.162 189.907L36.59 185.543C36.126 185.471 35.7815 185.073 35.7815 184.603V182.453V182.455Z" fill="#195ACE"/>
<path d="M62.8753 186.587L71.572 149.518C71.7865 148.56 72.5915 147.834 73.4931 147.785L117.226 145.378C117.873 145.353 119.889 146.07 119.868 146.054L118.979 147.495L112.219 182.173C112.033 183.109 111.224 183.836 110.291 183.911L64.6716 188.854C63.443 188.954 62.5765 187.861 62.8736 186.587H62.8753Z" fill="#195ACE"/>
<path d="M97.8819 166.366C97.4109 168.833 95.1049 170.973 92.7321 171.144C90.3593 171.314 88.8618 169.438 89.3838 166.953C89.9041 164.47 92.2066 162.334 94.5284 162.18C96.8502 162.026 98.3512 163.899 97.8819 166.366Z" fill="#2767C4"/>
<path d="M112.117 186.161L65.5451 189.99C64.2797 190.093 63.3868 188.975 63.6909 187.668L72.2083 150.302C72.428 149.319 73.2541 148.572 74.1821 148.52L119.19 145.967C120.411 145.896 121.33 146.997 121.095 148.246L114.098 184.372C113.908 185.33 113.077 186.08 112.117 186.159V186.161Z" fill="#326DE6"/>
<path opacity="0.35" d="M112.117 186.161L65.5451 189.99C64.2796 190.093 63.3938 189.005 63.6908 187.668C63.9931 188.35 64.4783 188.739 64.8772 188.954C65.2006 189.129 65.5697 189.205 65.9371 189.171L111.697 185.215C112.345 185.159 112.878 184.686 113.01 184.05L120.355 148.334C120.355 148.334 120.701 147.055 119.61 145.982C120.569 146.147 121.306 147.148 121.098 148.245L114.101 184.37C113.911 185.329 113.08 186.079 112.12 186.158L112.117 186.161Z" fill="#548DFF"/>
<path opacity="0.35" d="M94.9783 171.06C96.9363 171.06 98.5235 169.478 98.5235 167.526C98.5235 165.574 96.9363 163.992 94.9783 163.992C93.0204 163.992 91.4332 165.574 91.4332 167.526C91.4332 169.478 93.0204 171.06 94.9783 171.06Z" fill="#548DFF"/>
<path d="M54.3931 160.156C54.1944 160.959 54.0187 161.773 53.85 162.567C53.1557 165.882 52.5634 169.175 52.0255 172.238L51.9218 172.832C51.9007 172.984 51.8691 173.103 51.841 173.207C51.8269 173.258 51.8129 173.308 51.8006 173.364C51.7988 173.377 51.7953 173.389 51.79 173.401C51.6969 173.689 51.5615 174.065 51.3489 174.402C50.9868 175.031 50.4507 175.574 49.7986 175.975C49.1887 176.354 48.4611 176.582 47.6824 176.636C47.5647 176.641 47.4469 176.639 47.3292 176.636C47.1798 176.632 47.0462 176.539 46.9917 176.401C46.9355 176.263 46.9688 176.105 47.0743 175.998C47.7404 175.33 48.2238 174.519 48.4699 173.65C48.6052 173.154 48.6632 172.73 48.7194 172.322C48.7458 172.138 48.7704 171.956 48.8003 171.775L49.6035 166.299L50.1132 162.646L50.5931 158.986C50.6001 158.935 50.586 158.886 50.5562 158.847C50.5386 158.824 50.4982 158.784 50.4314 158.775C50.3312 158.763 50.2415 158.83 50.2222 158.926L49.5279 162.55L48.8653 166.179L47.9074 171.635C47.8758 171.803 47.8459 171.978 47.8178 172.152C47.7387 172.609 47.6666 173.042 47.5664 173.38C47.2518 174.444 46.5207 175.381 45.5592 175.954C44.6101 176.525 43.4431 176.73 42.3586 176.517C41.9877 176.447 41.6169 176.32 41.2548 176.143C41.1529 176.093 41.079 176 41.0544 175.888C41.0298 175.777 41.0562 175.66 41.1283 175.571C41.652 174.924 42.0246 174.167 42.2092 173.368C42.2461 173.238 42.2672 173.098 42.2883 172.949L42.3094 172.8C42.3182 172.746 42.3252 172.69 42.3305 172.646L42.9193 166.003L43.2181 162.338L43.4852 158.665C43.4905 158.598 43.4589 158.551 43.4395 158.528C43.4202 158.506 43.378 158.469 43.3112 158.463C43.211 158.46 43.1249 158.528 43.1109 158.626L42.6258 162.273L42.1723 165.923L41.529 171.409C41.5079 171.575 41.4886 171.747 41.4692 171.917C41.4183 172.378 41.3691 172.814 41.2829 173.161C41.021 174.235 40.3391 175.206 39.4128 175.825C38.5041 176.44 37.3529 176.702 36.2544 176.552C35.2894 176.419 34.3737 175.958 33.6759 175.255C33.5582 175.136 33.5336 174.954 33.6162 174.808L33.6513 174.747C33.6707 174.714 33.69 174.682 33.7093 174.644C33.9185 174.258 34.0784 173.815 34.2085 173.252C34.2911 172.876 34.3315 172.409 34.3333 171.824L34.3755 169.11C34.4106 167.018 34.4317 165.295 34.4405 163.683C34.4563 161.928 34.4598 160.102 34.4493 158.258C34.4493 158.155 34.3649 158.073 34.2612 158.073C34.1628 158.073 34.0802 158.152 34.0749 158.248C33.9571 160.104 33.8552 161.926 33.7708 163.666C33.6847 165.287 33.6056 167.007 33.5213 169.086L33.4053 171.803C33.3842 172.296 33.3701 172.651 33.2769 173.068C33.1943 173.396 33.0695 173.82 32.8516 174.204C32.4632 174.927 31.8673 175.549 31.1783 175.954C30.8092 176.175 30.4296 176.336 30.064 176.429C29.7037 176.534 29.3012 176.587 28.8776 176.587C28.8723 176.587 28.8671 176.587 28.8618 176.587C27.2395 176.632 25.6242 175.672 24.8562 174.213C24.6751 173.892 24.5345 173.515 24.4273 173.061C24.3412 172.686 24.3254 172.346 24.306 171.919L24.1865 169.084C24.1057 167.084 24.0248 165.311 23.9369 163.662C23.8526 161.924 23.7506 160.102 23.6329 158.246C23.6258 158.143 23.5362 158.062 23.4325 158.071C23.3341 158.078 23.2567 158.159 23.2567 158.257C23.2462 160.165 23.2497 161.938 23.2673 163.683C23.2761 165.332 23.2971 167.107 23.3323 169.108L23.3745 171.824C23.378 172.147 23.385 172.744 23.4975 173.249C23.6153 173.787 23.777 174.242 24.0002 174.652C24.016 174.686 24.0354 174.717 24.0529 174.75L24.0881 174.812C24.1689 174.957 24.1443 175.138 24.0266 175.255C23.327 175.963 22.4095 176.42 21.4481 176.547C20.3479 176.697 19.1949 176.434 18.2914 175.826C17.3616 175.213 16.6814 174.241 16.4248 173.161C16.3387 172.809 16.2895 172.367 16.2385 171.901C16.221 171.737 16.2016 171.57 16.1805 171.404L15.539 165.923L15.0855 162.273L14.6004 158.623C14.5916 158.556 14.5512 158.516 14.5284 158.499C14.5055 158.481 14.4545 158.453 14.3895 158.462C14.2911 158.474 14.2208 158.562 14.226 158.661L14.4932 162.331L14.792 165.998L15.379 172.639C15.3843 172.686 15.3931 172.741 15.4001 172.797L15.4318 173.014C15.4494 173.138 15.4669 173.256 15.5038 173.384C15.6814 174.169 16.0505 174.924 16.5742 175.572C16.6463 175.662 16.6727 175.777 16.6481 175.889C16.6234 176.002 16.5479 176.094 16.4459 176.145C16.0821 176.32 15.713 176.445 15.3474 176.513C14.2507 176.722 13.0836 176.518 12.1485 175.956C11.1801 175.383 10.4489 174.444 10.1431 173.38C10.0447 173.039 9.97083 172.606 9.89174 172.147C9.86186 171.975 9.83374 171.801 9.8021 171.631L8.8442 166.18L8.18157 162.551L7.48731 158.924C7.46798 158.823 7.37131 158.756 7.26761 158.775C7.17094 158.793 7.10415 158.886 7.11645 158.984L7.59453 162.643L8.10599 166.296L8.90747 171.768C8.93911 171.952 8.96372 172.133 8.98832 172.315C9.04632 172.727 9.10433 173.152 9.23615 173.648C9.48221 174.54 9.97962 175.369 10.6739 176.047C10.7811 176.152 10.8163 176.312 10.76 176.452C10.7038 176.592 10.5702 176.685 10.4173 176.688C10.3874 176.688 10.3558 176.688 10.3259 176.688C10.2749 176.688 10.2222 176.688 10.1712 176.685C9.47343 176.655 8.79323 176.452 8.20442 176.093C7.62792 175.742 7.10766 175.26 6.65595 174.658C6.24467 174.106 5.92302 173.496 5.64005 172.742C4.67687 170.238 3.81739 167.402 3.01064 164.069C2.6802 162.676 2.37614 161.26 2.09667 159.825C2.09667 159.825 2.09316 159.827 2.0914 159.828C2.76984 163.364 3.93339 170.493 4.90712 173.026C5.21646 173.853 5.57501 174.526 6.03375 175.145C6.54874 175.83 7.14457 176.382 7.80896 176.785C8.51552 177.214 9.3293 177.461 10.1624 177.496C10.2257 177.5 10.2907 177.5 10.3575 177.5H10.463C10.9446 177.489 11.3699 177.197 11.5474 176.75C11.572 176.687 11.5914 176.62 11.6054 176.555C11.6564 176.589 11.7074 176.62 11.7583 176.65C12.8621 177.314 14.2366 177.554 15.5267 177.31C15.9643 177.23 16.4037 177.083 16.8344 176.874C17.1244 176.734 17.3388 176.487 17.4407 176.186C17.5778 176.298 17.7202 176.405 17.8678 176.501C18.9382 177.221 20.2934 177.533 21.5852 177.353C22.7277 177.204 23.8104 176.662 24.6365 175.828C24.7156 175.747 24.7823 175.658 24.8333 175.562C25.8527 176.736 27.3766 177.444 28.9075 177.398C29.4119 177.398 29.8812 177.335 30.2925 177.214C30.7425 177.102 31.1889 176.911 31.6213 176.652C32.1081 176.366 32.551 175.993 32.9289 175.556C32.9817 175.655 33.0485 175.744 33.1275 175.825C33.9501 176.653 35.0311 177.197 36.1735 177.354C37.4706 177.531 38.8275 177.219 39.8944 176.497C40.0403 176.399 40.1827 176.294 40.3198 176.182C40.4199 176.482 40.6344 176.727 40.9244 176.869C41.3497 177.076 41.7891 177.225 42.2268 177.309C43.5081 177.563 44.8861 177.321 46.0039 176.646C46.0725 176.604 46.141 176.562 46.2096 176.517C46.2236 176.578 46.2412 176.638 46.2658 176.697C46.4416 177.137 46.8616 177.43 47.3379 177.444C47.4733 177.447 47.6086 177.449 47.7686 177.442C48.6737 177.379 49.5332 177.109 50.2556 176.662C51.0237 176.189 51.6512 175.553 52.0677 174.829C52.3278 174.416 52.486 173.978 52.5968 173.64C52.6091 173.601 52.6196 173.562 52.6249 173.531C52.6319 173.499 52.6389 173.47 52.6548 173.412C52.6864 173.296 52.7286 173.14 52.7497 172.968L52.8534 172.376C53.3895 169.317 54.082 162.739 55.0205 158.059C55.0205 158.059 55.0205 158.059 55.0188 158.059L54.7129 158.945C54.5917 159.361 54.4827 159.765 54.3913 160.154L54.3931 160.156Z" fill="#3B2D55"/>
<path d="M68.1465 109.855C66.6016 107.077 64.6154 104.496 62.2444 102.185C60.8752 100.874 59.6976 99.8739 58.5358 99.0311C58.2546 98.8121 57.9277 98.5755 57.5445 98.3197C57.4268 98.2408 57.309 98.1585 57.1912 98.0779C56.9768 97.9289 56.7606 97.78 56.5409 97.6381C56.3546 97.5224 56.1753 97.412 55.9961 97.2999C55.4969 96.988 54.9801 96.6638 54.4441 96.3782C52.9079 95.4881 51.3032 94.7627 50.0764 94.23C49.8444 94.1389 49.6264 94.0495 49.4085 93.9619C48.8829 93.7481 48.3398 93.5291 47.7862 93.3434L46.6472 92.9438L45.4767 92.5811C45.0513 92.4427 44.6207 92.3271 44.2938 92.243L43.1232 91.9363C42.8684 91.882 42.6328 91.8294 42.3955 91.7751C41.8489 91.6524 41.283 91.5263 40.7135 91.4369C39.2406 91.1583 37.6535 90.9726 35.873 90.8745C35.2578 90.8429 34.6479 90.8271 34.0416 90.8271C31.3243 90.8271 28.6861 91.1408 26.1727 91.7628C24.6435 92.1256 23.0828 92.6425 21.5396 93.2978C19.9823 93.9549 18.527 94.7189 17.2141 95.5652C15.7851 96.4816 14.4739 97.4699 13.3174 98.5019C12.1257 99.5743 10.9885 100.757 9.93572 102.02C8.95145 103.226 8.00585 104.568 7.12001 106.01C6.33611 107.314 5.60493 108.733 4.88079 110.352C2.71188 115.45 1.29348 121.202 0.539458 127.943C-0.0897714 133.61 -0.17238 139.553 0.288118 146.108C0.636128 150.827 1.24251 155.421 2.09496 159.825C2.37266 161.262 2.67849 162.676 3.00892 164.069C3.81567 167.401 4.67515 170.24 5.63833 172.742C5.92131 173.496 6.24295 174.105 6.65424 174.657C7.10595 175.26 7.6262 175.742 8.2027 176.092C8.79151 176.452 9.47171 176.655 10.1695 176.685C10.2205 176.686 10.2732 176.688 10.3242 176.688C10.354 176.688 10.3857 176.688 10.4156 176.688C10.5667 176.685 10.702 176.592 10.7583 176.452C10.8145 176.312 10.7794 176.152 10.6722 176.047C9.97791 175.369 9.4805 174.54 9.23443 173.648C9.10261 173.152 9.04285 172.726 8.98661 172.315C8.962 172.134 8.93739 171.954 8.90576 171.768L8.10428 166.296L7.59281 162.642L7.11474 158.984C7.10243 158.886 7.16922 158.793 7.26589 158.775C7.37135 158.756 7.46626 158.822 7.48559 158.924L8.17986 162.551L8.84248 166.18L9.80039 171.631C9.83202 171.801 9.86015 171.973 9.89003 172.146C9.96912 172.606 10.0429 173.038 10.1414 173.38C10.4472 174.444 11.1784 175.383 12.1468 175.956C13.0819 176.518 14.2489 176.722 15.3457 176.513C15.7113 176.445 16.0821 176.322 16.4442 176.145C16.5479 176.094 16.6217 176.001 16.6463 175.889C16.6709 175.779 16.6446 175.661 16.5725 175.572C16.0505 174.924 15.6796 174.169 15.5021 173.384C15.4652 173.256 15.4476 173.138 15.4301 173.014L15.3984 172.797C15.3896 172.742 15.3826 172.688 15.3773 172.639L14.7903 165.998L14.4915 162.33L14.2243 158.661C14.2173 158.563 14.2894 158.476 14.3878 158.462C14.4546 158.453 14.5038 158.481 14.5266 158.498C14.5495 158.516 14.5899 158.556 14.5987 158.623L15.0838 162.273L15.5373 165.923L16.1788 171.403C16.1999 171.57 16.2175 171.736 16.2368 171.901C16.2895 172.367 16.3388 172.809 16.4231 173.161C16.6797 174.24 17.3599 175.213 18.2897 175.826C19.1931 176.434 20.3461 176.697 21.4464 176.546C22.4078 176.42 23.3253 175.963 24.0248 175.255C24.1426 175.138 24.1672 174.957 24.0864 174.812L24.0512 174.75C24.0319 174.717 24.0143 174.685 23.9985 174.652C23.777 174.242 23.6136 173.787 23.4958 173.249C23.3833 172.744 23.3763 172.145 23.3728 171.824L23.3306 169.108C23.2954 167.107 23.2743 165.332 23.2656 163.683C23.248 161.94 23.2445 160.165 23.255 158.257C23.255 158.158 23.3341 158.076 23.4308 158.071C23.5345 158.062 23.6241 158.143 23.6311 158.246C23.7489 160.102 23.8508 161.924 23.9352 163.662C24.0213 165.311 24.1039 167.082 24.1848 169.084L24.3043 171.919C24.3236 172.348 24.3395 172.686 24.4256 173.061C24.5328 173.515 24.6717 173.89 24.8544 174.212C25.6208 175.672 27.236 176.632 28.8601 176.587C28.8654 176.587 28.8706 176.587 28.8759 176.587C29.2995 176.587 29.702 176.534 30.0623 176.429C30.4279 176.336 30.8093 176.177 31.1766 175.954C31.8656 175.549 32.4597 174.927 32.8499 174.204C33.0678 173.82 33.1926 173.394 33.2752 173.068C33.3684 172.651 33.3824 172.295 33.4035 171.803L33.5195 169.085C33.6039 167.009 33.683 165.286 33.7691 163.666C33.8535 161.926 33.9554 160.103 34.0732 158.248C34.0802 158.15 34.1611 158.073 34.2595 158.073C34.3632 158.073 34.4476 158.157 34.4476 158.258C34.4581 160.102 34.4546 161.927 34.4388 163.683C34.4317 165.293 34.4107 167.018 34.3737 169.11L34.3316 171.824C34.3298 172.409 34.2894 172.875 34.2068 173.252C34.0767 173.815 33.9168 174.258 33.7076 174.643C33.6865 174.682 33.6689 174.715 33.6496 174.747L33.6145 174.808C33.5318 174.954 33.5565 175.136 33.6742 175.255C34.372 175.958 35.2877 176.418 36.2527 176.552C37.3512 176.702 38.5024 176.438 39.4111 175.824C40.3374 175.206 41.0193 174.235 41.2812 173.161C41.3673 172.814 41.4166 172.378 41.4675 171.917C41.4869 171.747 41.5062 171.577 41.5273 171.409L42.1706 165.923L42.624 162.273L43.1091 158.626C43.1214 158.528 43.2093 158.46 43.3095 158.463C43.3781 158.469 43.4185 158.505 43.4378 158.528C43.4572 158.551 43.487 158.596 43.4835 158.665L43.2164 162.337L42.9176 166.003L42.3288 172.646C42.3252 172.69 42.3165 172.746 42.3077 172.8L42.2866 172.949C42.2655 173.098 42.2444 173.238 42.2075 173.368C42.0212 174.169 41.6503 174.924 41.1265 175.57C41.0545 175.66 41.0281 175.775 41.0527 175.887C41.0773 175.998 41.1511 176.092 41.2531 176.143C41.6152 176.32 41.986 176.445 42.3569 176.517C43.4413 176.73 44.6102 176.525 45.5575 175.954C46.5172 175.381 47.2501 174.444 47.5647 173.38C47.6649 173.042 47.7387 172.609 47.8161 172.152C47.8459 171.978 47.8758 171.803 47.9057 171.635L48.8636 166.178L49.5262 162.549L50.2205 158.926C50.2398 158.829 50.3295 158.763 50.4296 158.775C50.4964 158.784 50.5369 158.824 50.5544 158.847C50.5843 158.887 50.5984 158.936 50.5914 158.985L50.1115 162.646L49.6018 166.299L48.7986 171.775C48.7687 171.955 48.7423 172.138 48.7177 172.322C48.6615 172.73 48.6017 173.154 48.4681 173.65C48.2221 174.519 47.7387 175.33 47.0726 175.998C46.9671 176.103 46.9337 176.262 46.99 176.401C47.0462 176.539 47.178 176.632 47.3274 176.636C47.4452 176.639 47.563 176.639 47.6807 176.636C48.4594 176.581 49.187 176.354 49.7969 175.975C50.4472 175.574 50.9851 175.031 51.3471 174.402C51.5598 174.063 51.6951 173.688 51.7883 173.401C51.7918 173.389 51.7953 173.377 51.7988 173.364C51.8111 173.31 51.8252 173.259 51.8393 173.207C51.8674 173.103 51.899 172.984 51.9201 172.832L52.0238 172.238C52.5617 169.175 53.154 165.882 53.8482 162.567C54.017 161.775 54.1927 160.96 54.3913 160.156C54.4845 159.769 54.5917 159.362 54.713 158.947L55.0188 158.06L55.126 157.75C55.1506 157.684 55.1752 157.61 55.2016 157.535C55.2438 157.408 55.2825 157.291 55.3334 157.184L55.8695 156.012C55.9556 155.821 56.0365 155.642 56.1367 155.479L56.7835 154.356C56.9153 154.135 57.0664 153.92 57.2246 153.692C57.3108 153.568 57.3969 153.443 57.4812 153.317C58.3319 152.113 59.3408 150.897 60.6538 149.499C61.0229 149.099 61.3902 148.707 61.7575 148.316C62.4993 147.526 63.2656 146.711 63.9757 145.884C66.1727 143.427 67.9532 140.706 69.2644 137.806C69.5368 137.265 69.7547 136.683 69.9657 136.119C70.0342 135.937 70.1028 135.753 70.1731 135.57C70.4068 135.001 70.5896 134.405 70.7654 133.829C70.8216 133.645 70.8779 133.461 70.9359 133.277C71.3665 131.719 71.6846 130.124 71.8867 128.526C72.6619 122.189 71.3331 115.558 68.143 109.855H68.1465Z" fill="#57D1E5"/>
<path d="M68.3098 139.168C68.5665 138.541 68.7668 137.887 68.9602 137.253C69.0217 137.049 69.0832 136.848 69.1482 136.646C69.6228 134.933 69.9726 133.179 70.194 131.421C71.0465 124.449 69.5841 117.155 66.0759 110.883C64.3763 107.829 62.1915 104.991 59.585 102.446C58.0787 101.006 56.7833 99.9038 55.5055 98.9769C55.198 98.7351 54.8359 98.4775 54.4158 98.1954C54.2857 98.1078 54.1574 98.0184 54.0274 97.9291C53.7901 97.7661 53.5528 97.6014 53.312 97.4455C53.1064 97.3193 52.9095 97.1966 52.7127 97.0722C52.1625 96.7288 51.5948 96.3731 51.006 96.0577C49.3169 95.0782 47.5505 94.2809 46.2007 93.6957C45.9458 93.5958 45.705 93.4977 45.4642 93.3996C44.886 93.1648 44.2901 92.923 43.6802 92.7197L42.4288 92.2799L41.1405 91.8804C40.6729 91.7279 40.1984 91.6018 39.8381 91.5089L38.5515 91.1707C38.3423 91.1269 38.1437 91.0814 37.9486 91.0393C38.9206 91.1409 39.8381 91.2724 40.7134 91.4371C41.2828 91.5247 41.8488 91.6526 42.3954 91.7752C42.6309 91.8278 42.8682 91.8821 43.1231 91.9364L44.2936 92.2431C44.6206 92.3272 45.0529 92.4411 45.4765 92.5813L46.6471 92.944L47.786 93.3452C48.3397 93.5292 48.8828 93.75 49.4083 93.9638C49.6263 94.0514 49.846 94.1408 50.078 94.2319C51.3048 94.7646 52.9095 95.49 54.4457 96.3801C54.98 96.6675 55.4967 96.9899 55.9959 97.3018C56.1752 97.4139 56.3527 97.5261 56.5408 97.64C56.7605 97.7819 56.9767 97.9308 57.1911 98.0798C57.3089 98.1604 57.4266 98.2427 57.5444 98.3216C57.9275 98.5792 58.2545 98.814 58.5357 99.033C59.6975 99.8758 60.8751 100.876 62.2443 102.187C64.6153 104.5 66.6014 107.081 68.1464 109.858C71.3365 115.56 72.6652 122.192 71.8901 128.53C71.688 130.128 71.3699 131.723 70.9392 133.28C70.8812 133.464 70.825 133.648 70.7688 133.832C70.593 134.409 70.4102 135.005 70.1764 135.574C70.1061 135.756 70.0376 135.938 69.969 136.122C69.7581 136.687 69.5402 137.27 69.2677 137.81C68.7826 138.884 68.2307 139.934 67.6208 140.953C67.7861 140.563 67.9372 140.165 68.0831 139.776C68.1587 139.574 68.2343 139.373 68.3116 139.173" fill="#93E1EF"/>
<path d="M45.5486 111.271C38.4882 112.676 33.1486 118.958 33.1486 126.47C33.1486 135.013 40.0543 141.963 48.5419 141.963C57.0294 141.963 63.9369 135.012 63.9369 126.47C63.9369 122.834 62.6855 119.485 60.5939 116.839L56.4846 117.199L49.5876 114.271L45.5469 111.273L45.5486 111.271Z" fill="#4D9BB6"/>
<mask id="mask0_36_1705" style="mask-type:luminance" maskUnits="userSpaceOnUse" x="34" y="110" width="32" height="32">
<path d="M52.7462 110.847C61.0703 112.396 66.5594 120.38 65.0056 128.679C63.4519 136.979 55.4424 142.45 47.1165 140.901C38.7924 139.352 33.3033 131.367 34.8571 123.068C36.2333 115.718 42.675 110.584 49.9146 110.584C50.8479 110.584 51.7953 110.67 52.7462 110.847Z" fill="white"/>
</mask>
<g mask="url(#mask0_36_1705)">
<path d="M55.6188 95.008L18.2857 121.069L44.2451 158.029L81.5782 131.968L55.6188 95.008Z" fill="url(#paint0_linear_36_1705)"/>
</g>
<path d="M47.1498 136.06C45.5504 133.978 48.904 129.385 51.0869 129.243C52.5212 129.151 54.3069 130.262 54.7744 129.731C55.242 129.2 53.9026 127.581 53.8077 126.151C53.6636 123.975 57.7923 120.06 60.0719 121.369C62.791 122.93 63.8491 128.774 59.4286 133.799C55.0082 138.825 49.0586 138.543 47.1498 136.06Z" fill="#3B2D55"/>
<path d="M40.919 146.151C35.7639 144.721 31.1519 141.472 28.171 137.048C27.1902 135.588 26.329 134.046 25.6523 132.417C25.415 131.842 24.7541 131.569 24.1794 131.805C23.6222 132.035 23.3498 132.662 23.5502 133.221C24.8368 136.899 27.2342 140.16 30.2204 142.65C33.1802 145.14 36.7816 146.876 40.5745 147.608C41.5113 147.77 41.8348 146.426 40.919 146.151Z" fill="#4D9BB6"/>
<path d="M41.6696 146.151C36.5145 144.721 31.9025 141.472 28.9215 137.048C27.9408 135.588 27.0796 134.046 26.4029 132.417C26.1656 131.842 25.5047 131.569 24.93 131.805C24.3728 132.035 24.1004 132.662 24.3008 133.221C25.5873 136.899 27.9847 140.16 30.9709 142.65C33.9308 145.14 37.5322 146.876 41.3251 147.608C42.2619 147.77 42.5853 146.426 41.6696 146.151Z" fill="#3B2D55"/>
<path d="M190.853 173.158C190.389 175.213 188.561 176.629 186.521 176.629C186.282 176.629 186.041 176.61 185.797 176.569L185.772 176.564L185.336 176.461L185.646 176.143C186.31 175.481 186.791 174.68 187.039 173.824C187.178 173.328 187.245 172.905 187.308 172.495C187.336 172.311 187.366 172.129 187.401 171.942L188.303 166.478C188.702 164.002 189.082 161.546 189.43 159.178C189.451 159.028 189.351 158.884 189.201 158.852C189.045 158.819 188.89 158.921 188.857 159.077C188.363 161.407 187.865 163.843 187.379 166.315L186.327 171.756C186.292 171.926 186.261 172.101 186.227 172.275C186.146 172.709 186.062 173.158 185.96 173.492C185.679 174.425 185.065 175.25 184.232 175.814C184.143 175.875 184.051 175.935 183.958 175.989C183.492 176.261 182.979 176.441 182.433 176.527C181.891 176.613 181.346 176.601 180.81 176.489C180.225 176.371 179.647 176.114 179.139 175.747L178.94 175.604L179.081 175.402C179.485 174.826 179.768 174.197 179.924 173.531C180.04 173.019 180.081 172.579 180.12 172.154C180.135 171.98 180.151 171.807 180.172 171.631L180.715 166.142C180.953 163.636 181.171 161.171 181.36 158.812C181.373 158.66 181.264 158.523 181.113 158.502C181.037 158.491 180.96 158.511 180.898 158.558C180.837 158.604 180.794 158.672 180.784 158.749C180.445 161.09 180.107 163.543 179.78 166.04L179.088 171.516C179.065 171.682 179.046 171.849 179.025 172.015C178.968 172.476 178.916 172.912 178.829 173.259C178.731 173.661 178.569 174.051 178.35 174.421C178.035 174.948 177.604 175.415 177.102 175.767L177.061 175.797C177.035 175.818 177.007 175.837 176.979 175.856C176.088 176.445 174.956 176.692 173.876 176.534C172.815 176.385 171.808 175.816 171.115 174.971C170.946 174.771 170.794 174.549 170.66 174.311L170.604 174.213L170.642 174.106C170.727 173.869 170.799 173.615 170.857 173.35C170.968 172.856 170.976 172.285 170.98 171.907L171.024 169.192C171.085 165.947 171.113 162.399 171.11 158.341C171.11 158.188 170.989 158.06 170.836 158.052C170.678 158.045 170.539 158.164 170.528 158.323C170.291 162.374 170.113 165.919 169.987 169.161L169.871 171.933C169.85 172.401 169.836 172.737 169.748 173.121C169.642 173.568 169.505 173.936 169.329 174.248C169.322 174.263 169.308 174.284 169.294 174.304C168.51 175.712 166.951 176.611 165.406 176.578H165.34C163.796 176.578 162.308 175.697 161.543 174.319C161.519 174.281 161.505 174.26 161.492 174.237C161.28 173.866 161.158 173.447 161.077 173.124C160.988 172.718 160.972 172.362 160.953 171.872L160.838 169.161C160.703 165.739 160.526 162.194 160.295 158.323C160.285 158.171 160.158 158.052 160.005 158.05C159.845 158.05 159.715 158.18 159.715 158.339C159.708 162.203 159.735 165.753 159.798 169.191L159.842 171.905C159.845 172.497 159.886 172.97 159.968 173.352C160.032 173.627 160.104 173.874 160.186 174.106L160.225 174.213L160.169 174.311C160.035 174.547 159.882 174.77 159.712 174.971C159.025 175.807 158.019 176.38 156.954 176.536C155.878 176.695 154.748 176.445 153.852 175.851C153.824 175.833 153.797 175.812 153.769 175.791L153.729 175.761C153.228 175.406 152.797 174.941 152.483 174.416C152.263 174.048 152.099 173.659 151.998 173.258C151.91 172.914 151.857 172.481 151.801 172.024C151.78 171.854 151.76 171.682 151.737 171.516L151.043 166.037C150.716 163.536 150.381 161.083 150.041 158.746C150.018 158.595 149.887 158.484 149.73 158.498C149.653 158.506 149.583 158.541 149.532 158.6C149.482 158.66 149.458 158.733 149.463 158.81C149.653 161.164 149.871 163.631 150.108 166.142L150.651 171.635C150.672 171.808 150.688 171.984 150.704 172.161C150.743 172.585 150.783 173.021 150.901 173.531C151.061 174.191 151.345 174.821 151.748 175.395L151.889 175.597L151.69 175.74C151.182 176.108 150.604 176.368 150.015 176.489C149.482 176.603 148.932 176.617 148.386 176.527C147.844 176.44 147.333 176.257 146.867 175.986C146.774 175.931 146.682 175.87 146.591 175.809C145.767 175.246 145.153 174.423 144.863 173.489C144.76 173.158 144.677 172.713 144.598 172.283C144.565 172.105 144.531 171.926 144.496 171.754L143.445 166.31C142.958 163.841 142.461 161.407 141.967 159.073C141.935 158.924 141.795 158.826 141.64 158.845C141.482 158.868 141.371 159.017 141.394 159.175C141.742 161.547 142.121 164.004 142.52 166.476L143.422 171.943C143.455 172.127 143.485 172.311 143.513 172.497C143.577 172.905 143.644 173.328 143.786 173.824C144.041 174.679 144.526 175.479 145.185 176.138L145.533 176.485L145.048 176.56C142.708 176.946 140.489 175.451 139.974 173.165C139.935 172.984 138.327 165.45 136.471 156.114L136.467 156.119C138.084 167.076 139.149 173.252 139.169 173.343V173.347L139.172 173.363C139.204 173.505 139.244 173.652 139.297 173.811C139.309 173.85 139.323 173.89 139.337 173.929L139.35 173.962C139.383 174.057 139.418 174.148 139.457 174.239C139.481 174.298 139.508 174.36 139.536 174.419C139.571 174.493 139.606 174.565 139.645 174.637L139.659 174.663C139.689 174.721 139.721 174.778 139.752 174.836C139.771 174.868 139.789 174.898 139.808 174.927L139.824 174.954C139.937 175.136 140.06 175.311 140.188 175.472L140.206 175.495C140.272 175.577 140.346 175.663 140.436 175.76L140.473 175.8C140.557 175.889 140.638 175.97 140.722 176.047H140.724C140.724 176.047 140.731 176.056 140.735 176.059H140.736V176.061C141.721 176.962 142.984 177.452 144.304 177.452C144.593 177.452 144.884 177.428 145.171 177.381L145.649 177.305L147.199 177.063C147.535 177.193 147.885 177.286 148.247 177.345C148.526 177.391 148.811 177.414 149.092 177.414C149.456 177.414 149.822 177.375 150.178 177.298C150.871 177.155 151.558 176.848 152.159 176.413L152.358 176.27L152.716 176.01C152.883 176.164 153.059 176.308 153.244 176.44L153.275 176.462C153.314 176.49 153.354 176.52 153.395 176.546C154.231 177.102 155.265 177.409 156.298 177.409C156.553 177.409 156.81 177.389 157.059 177.353C158.323 177.167 159.513 176.49 160.329 175.499C160.513 175.28 160.689 175.031 160.842 174.764C161.751 176.368 163.508 177.402 165.329 177.402H165.387C165.417 177.402 165.449 177.402 165.479 177.402C167.291 177.402 169.043 176.37 169.964 174.766C170.115 175.027 170.287 175.276 170.479 175.502C171.293 176.496 172.488 177.172 173.752 177.349C173.996 177.386 174.253 177.403 174.509 177.403C175.543 177.403 176.576 177.098 177.416 176.545C177.46 176.515 177.499 176.487 177.538 176.459L177.567 176.436C177.752 176.306 177.928 176.164 178.093 176.012L178.452 176.271L178.65 176.415C179.253 176.851 179.94 177.155 180.64 177.296C180.991 177.368 181.353 177.407 181.714 177.407C181.991 177.407 182.274 177.384 182.55 177.34C183.006 177.268 183.441 177.14 183.856 176.958L185.136 177.263L185.572 177.367L185.584 177.37L185.596 177.374L185.621 177.379L185.635 177.382H185.649C185.932 177.431 186.22 177.456 186.507 177.456C188.941 177.456 191.096 175.73 191.634 173.352C191.657 173.247 192.723 166.827 194.449 155.597C192.551 165.166 190.887 172.974 190.848 173.154L190.853 173.158Z" fill="#3B2D55"/>
<path d="M165.415 90.9675C145.053 90.9675 130.832 103.594 130.832 121.67C130.832 126.694 133.894 143.144 136.474 156.117C138.332 165.453 139.938 172.989 139.977 173.168C140.492 175.455 142.712 176.95 145.051 176.564L145.536 176.489L145.188 176.142C144.529 175.483 144.044 174.682 143.789 173.827C143.647 173.331 143.582 172.909 143.517 172.501C143.489 172.317 143.459 172.133 143.426 171.947L142.524 166.48C142.125 164.008 141.745 161.551 141.397 159.178C141.374 159.021 141.485 158.873 141.643 158.849C141.798 158.828 141.939 158.928 141.97 159.077C142.464 161.411 142.962 163.846 143.448 166.313L144.499 171.758C144.535 171.929 144.568 172.108 144.601 172.287C144.682 172.716 144.765 173.161 144.867 173.492C145.157 174.425 145.77 175.248 146.595 175.812C146.684 175.874 146.776 175.935 146.871 175.989C147.336 176.261 147.848 176.443 148.389 176.531C148.937 176.62 149.486 176.606 150.018 176.492C150.605 176.371 151.185 176.112 151.693 175.744L151.892 175.6L151.751 175.399C151.347 174.824 151.062 174.197 150.904 173.534C150.786 173.025 150.746 172.588 150.707 172.164C150.692 171.987 150.676 171.812 150.655 171.639L150.112 166.145C149.874 163.634 149.656 161.167 149.467 158.814C149.459 158.737 149.484 158.661 149.535 158.604C149.586 158.544 149.656 158.509 149.734 158.502C149.89 158.488 150.022 158.598 150.045 158.749C150.384 161.087 150.721 163.54 151.047 166.04L151.741 171.519C151.764 171.688 151.785 171.858 151.804 172.028C151.86 172.485 151.911 172.918 152.001 173.261C152.103 173.662 152.266 174.051 152.486 174.419C152.801 174.945 153.231 175.409 153.732 175.765L153.773 175.795C153.801 175.816 153.827 175.837 153.855 175.854C154.752 176.448 155.882 176.699 156.958 176.539C158.023 176.382 159.028 175.811 159.715 174.975C159.886 174.773 160.039 174.551 160.172 174.314L160.228 174.216L160.19 174.109C160.107 173.878 160.037 173.631 159.972 173.356C159.889 172.974 159.847 172.502 159.845 171.908L159.801 169.194C159.738 165.758 159.71 162.208 159.719 158.343C159.719 158.183 159.849 158.053 160.009 158.053C160.162 158.053 160.29 158.174 160.299 158.327C160.531 162.197 160.708 165.742 160.842 169.164L160.956 171.875C160.975 172.366 160.991 172.721 161.081 173.128C161.162 173.45 161.285 173.867 161.496 174.241C161.508 174.263 161.52 174.284 161.547 174.323C162.311 175.7 163.8 176.582 165.343 176.582H165.41C166.955 176.615 168.514 175.716 169.298 174.307C169.312 174.286 169.324 174.267 169.333 174.251C169.51 173.939 169.646 173.571 169.751 173.124C169.837 172.742 169.853 172.404 169.874 171.936L169.99 169.164C170.117 165.923 170.293 162.378 170.532 158.327C170.542 158.167 170.681 158.046 170.839 158.055C170.992 158.064 171.113 158.192 171.113 158.344C171.117 162.402 171.087 165.951 171.027 169.196L170.983 171.91C170.98 172.289 170.971 172.86 170.86 173.354C170.802 173.619 170.73 173.873 170.646 174.109L170.607 174.216L170.663 174.314C170.797 174.551 170.952 174.773 171.119 174.975C171.811 175.819 172.818 176.389 173.88 176.538C174.957 176.695 176.091 176.448 176.982 175.86C177.01 175.84 177.038 175.821 177.065 175.8L177.105 175.77C177.608 175.418 178.04 174.952 178.353 174.425C178.573 174.055 178.733 173.664 178.833 173.263C178.919 172.916 178.974 172.48 179.028 172.019C179.047 171.852 179.068 171.686 179.091 171.519L179.784 166.044C180.111 163.547 180.448 161.094 180.787 158.753C180.798 158.675 180.838 158.607 180.902 158.562C180.963 158.514 181.04 158.495 181.116 158.506C181.267 158.527 181.376 158.663 181.364 158.816C181.174 161.174 180.956 163.641 180.719 166.145L180.176 171.635C180.155 171.81 180.139 171.984 180.123 172.157C180.084 172.583 180.044 173.023 179.928 173.534C179.771 174.2 179.489 174.829 179.084 175.406L178.944 175.607L179.142 175.751C179.65 176.119 180.228 176.375 180.814 176.492C181.348 176.603 181.895 176.617 182.436 176.531C182.983 176.445 183.496 176.263 183.962 175.993C184.055 175.938 184.146 175.879 184.236 175.818C185.067 175.253 185.681 174.428 185.964 173.496C186.064 173.161 186.148 172.711 186.231 172.278C186.264 172.105 186.296 171.929 186.331 171.759L187.382 166.319C187.869 163.848 188.366 161.411 188.86 159.08C188.894 158.924 189.048 158.824 189.205 158.856C189.354 158.888 189.454 159.031 189.433 159.182C189.085 161.549 188.707 164.006 188.307 166.482L187.405 171.945C187.37 172.133 187.342 172.315 187.312 172.499C187.247 172.909 187.182 173.333 187.043 173.827C186.793 174.682 186.312 175.485 185.649 176.147L185.34 176.464L185.776 176.568L185.8 176.573C186.043 176.613 186.285 176.632 186.524 176.632C188.565 176.632 190.393 175.217 190.857 173.161C190.896 172.979 192.56 165.171 194.458 155.604C197.017 142.707 200 126.611 200 121.675C200 103.598 185.779 90.9728 165.417 90.9728L165.415 90.9675Z" fill="#57D1E5"/>
<path d="M156.117 104.218C147.837 104.218 141.098 110.934 141.098 119.191C141.098 127.447 147.835 134.163 156.117 134.163C164.399 134.163 171.136 127.447 171.136 119.191C171.136 110.934 164.399 104.218 156.117 104.218Z" fill="#4D9BB6"/>
<path d="M139.61 117.982C139.61 126.236 146.347 132.954 154.629 132.954C162.911 132.954 169.648 126.238 169.648 117.982C169.648 109.725 162.911 103.009 154.629 103.009C146.347 103.009 139.61 109.725 139.61 117.982Z" fill="url(#paint1_linear_36_1705)"/>
<path d="M164.879 118.203C164.659 124.49 160.155 127.815 157.281 127.137C154.873 126.569 154.574 121.232 156.08 119.832C157.07 118.912 159.035 118.663 159.06 117.999C159.082 117.335 157.14 116.95 156.218 115.963C154.813 114.462 155.485 109.159 157.926 108.76C160.84 108.283 165.101 111.914 164.881 118.201" fill="#3B2D55"/>
<g opacity="0.15">
<path d="M161.896 110.247C163.199 111.88 164.115 114.272 164.009 117.272C163.789 123.559 159.285 126.885 156.411 126.207C156.223 126.163 156.049 126.086 155.887 125.988C156.228 126.571 156.69 126.997 157.281 127.135C160.155 127.813 164.659 124.488 164.879 118.201C165.006 114.568 163.637 111.826 161.898 110.247" fill="#3B2D55"/>
</g>
<path d="M140.731 99.3311C134.483 104.758 130.832 112.515 130.832 121.672C130.832 130.309 139.886 172.739 139.979 173.17C140.183 174.076 140.657 174.854 141.297 175.443C139.051 164.728 131.904 130.002 131.904 121.954C131.904 112.934 135.124 105.147 140.733 99.3311" fill="#93E1EF"/>
<path d="M172.694 134.153C174.854 135.756 172.497 143.254 174.043 144.267C175.256 144.645 179.891 140.915 180.972 136.207C181.378 134.439 180.71 132.806 179.459 132.548C178.207 132.29 174.931 133.391 172.694 134.153Z" fill="#4D9BB6"/>
<path d="M154.37 139.436C156.133 139.408 157.91 139.01 159.654 138.518C165.05 136.965 169.857 134.383 175.247 132.515C176.72 132.075 178.272 131.565 179.926 131.898C181.374 132.178 182.023 133.508 182.274 134.835C182.805 137.509 181.41 140.14 179.592 141.97C177.81 143.731 175.566 145.175 173.012 145.434C172.317 145.464 170.611 145.497 170.897 144.36C171.017 144.002 171.398 143.806 171.755 143.904C172.419 144.06 173.256 143.897 174.033 143.605C177.36 142.31 181.631 138.117 179.907 134.333C179.26 132.925 172.145 136.037 170.764 136.517C169.031 137.19 167.289 137.873 165.519 138.507C161.928 139.757 158.237 140.946 154.351 140.843C153.451 140.794 153.449 139.462 154.372 139.436" fill="#4D9BB6"/>
<path d="M172.089 133.571C174.249 135.175 171.892 142.672 173.439 143.685C174.652 144.064 179.286 140.333 180.367 135.625C180.773 133.857 180.105 132.224 178.854 131.966C177.603 131.709 174.326 132.809 172.089 133.571Z" fill="#3B2D55"/>
<path d="M153.766 138.854C155.529 138.826 157.306 138.428 159.049 137.936C164.445 136.384 169.252 133.801 174.643 131.933C176.116 131.493 177.668 130.983 179.322 131.316C180.77 131.596 181.418 132.926 181.67 134.253C182.201 136.927 180.805 139.559 178.988 141.388C177.205 143.149 174.961 144.593 172.407 144.852C171.713 144.882 170.006 144.915 170.293 143.778C170.412 143.421 170.794 143.224 171.15 143.322C171.815 143.478 172.651 143.315 173.428 143.023C176.755 141.728 181.026 137.535 179.302 133.752C178.655 132.343 171.541 135.455 170.159 135.935C168.426 136.608 166.684 137.291 164.914 137.926C161.323 139.175 157.632 140.365 153.746 140.261C152.846 140.212 152.845 138.88 153.767 138.854" fill="#3B2D55"/>
</g>
<defs>
<linearGradient id="paint0_linear_36_1705" x1="37.6303" y1="134.808" x2="62.7274" y2="117.181" gradientUnits="userSpaceOnUse">
<stop stop-color="#CECAD5"/>
<stop offset="0.07" stop-color="#CECAD5"/>
<stop offset="0.66" stop-color="white"/>
<stop offset="1" stop-color="white"/>
</linearGradient>
<linearGradient id="paint1_linear_36_1705" x1="169.648" y1="117.982" x2="139.61" y2="117.982" gradientUnits="userSpaceOnUse">
<stop stop-color="#CECAD5"/>
<stop offset="0.66" stop-color="white"/>
<stop offset="1" stop-color="white"/>
</linearGradient>
<clipPath id="clip0_36_1705">
<rect width="200" height="200" fill="white"/>
</clipPath>
</defs>
</svg>
