<svg width="200" height="200" viewBox="0 0 200 200" fill="none" xmlns="http://www.w3.org/2000/svg">
<g clip-path="url(#clip0_36_2964)">
<path d="M15.1614 181.808C15.5263 183.443 16.4366 184.906 17.7428 185.955C19.049 187.005 20.6734 187.579 22.349 187.583C22.7523 187.585 23.155 187.552 23.5528 187.485H23.5875L24.2833 187.311L23.7754 186.783C22.6899 185.711 21.8928 184.383 21.4584 182.921C21.2715 182.184 21.132 181.435 21.0409 180.68C20.9922 180.381 20.9435 180.075 20.8879 179.762L19.3919 170.668C18.6961 166.549 18.0977 162.457 17.5202 158.519C17.5035 158.397 17.5337 158.273 17.6047 158.173C17.6757 158.072 17.7823 158.002 17.9029 157.977C17.965 157.963 18.0292 157.963 18.0917 157.974C18.1541 157.986 18.2136 158.01 18.2667 158.045C18.3197 158.08 18.3653 158.125 18.4008 158.178C18.4363 158.231 18.461 158.29 18.4734 158.352C19.2945 162.228 20.1155 166.284 20.9226 170.397L22.6691 179.442L22.8361 180.305C22.9482 180.989 23.0945 181.667 23.2744 182.336C23.7519 183.931 24.7643 185.312 26.1411 186.247C26.2889 186.352 26.4422 186.45 26.6004 186.539C27.3792 186.992 28.2358 187.297 29.1261 187.437C30.0203 187.576 30.9321 187.555 31.8188 187.374C32.8247 187.166 33.7739 186.743 34.602 186.135L34.929 185.899L34.6994 185.565C34.0391 184.625 33.5665 183.567 33.3078 182.448C33.1438 181.694 33.0345 180.929 32.9808 180.159C32.9808 179.866 32.9252 179.581 32.8904 179.289L31.9928 170.153C31.5962 165.978 31.2344 161.88 30.9213 157.956C30.9121 157.863 30.9302 157.77 30.9732 157.687C31.0161 157.605 31.0822 157.536 31.1633 157.49C31.2444 157.445 31.3371 157.424 31.43 157.43C31.5229 157.436 31.6121 157.469 31.6866 157.524C31.7905 157.602 31.8604 157.716 31.8815 157.844C32.4381 161.741 33.0017 165.825 33.5444 169.979L34.6925 179.094C34.7342 179.372 34.7621 179.651 34.7968 179.922C34.8629 180.624 34.9721 181.321 35.1239 182.009C35.2906 182.69 35.558 183.342 35.9171 183.944C36.4475 184.829 37.1588 185.593 38.0045 186.184L38.0671 186.233L38.2063 186.33C39.7284 187.32 41.5589 187.72 43.3552 187.457C45.1423 187.185 46.7643 186.257 47.9057 184.855C48.1897 184.514 48.4435 184.148 48.6641 183.763L48.7545 183.596L48.6919 183.415C48.548 183.005 48.4295 182.587 48.3371 182.162C48.1911 181.369 48.1235 180.562 48.1353 179.755L48.0588 175.239C47.9613 169.84 47.9126 163.933 47.9126 157.183C47.9156 157.06 47.9642 156.942 48.049 156.852C48.1337 156.762 48.2487 156.707 48.3719 156.696C48.4999 156.691 48.6251 156.736 48.7201 156.822C48.8152 156.908 48.8726 157.028 48.8798 157.156C49.2764 163.891 49.5756 169.791 49.7774 175.191L49.9722 179.804C49.977 180.467 50.0446 181.129 50.174 181.78C50.3117 182.435 50.5462 183.066 50.8698 183.651C50.8845 183.686 50.9032 183.719 50.9254 183.749C51.5667 184.897 52.5024 185.852 53.6362 186.518C54.7701 187.183 56.0609 187.534 57.3755 187.534H57.4868C58.7692 187.511 60.023 187.152 61.1223 186.491C62.2215 185.83 63.1274 184.892 63.749 183.77C63.7805 183.728 63.8085 183.684 63.8325 183.638C64.1478 183.055 64.382 182.433 64.5283 181.787C64.6634 181.099 64.7333 180.4 64.737 179.699L64.9249 175.191C65.1475 169.492 65.4467 163.592 65.8294 157.156C65.8294 157.028 65.88 156.906 65.97 156.816C66.0601 156.726 66.1822 156.675 66.3095 156.675C66.4368 156.675 66.559 156.726 66.649 156.816C66.739 156.906 66.7896 157.028 66.7896 157.156C66.7896 163.585 66.7896 169.492 66.6574 175.211L66.5809 179.727C66.5968 180.535 66.5268 181.342 66.3721 182.135C66.277 182.561 66.1561 182.982 66.0103 183.394L65.9477 183.568L66.0382 183.735C66.2682 184.13 66.5312 184.505 66.8244 184.855C67.9771 186.264 69.6127 187.195 71.4132 187.465C73.2136 187.735 75.0502 187.325 76.5656 186.316L76.6978 186.219L76.7673 186.17C77.612 185.577 78.323 184.814 78.8548 183.93C79.2181 183.331 79.4901 182.681 79.6619 182.002C79.8106 181.313 79.9198 180.616 79.9889 179.915C80.0237 179.63 80.0515 179.344 80.0933 179.066L81.2413 169.951C81.784 165.776 82.3407 161.706 82.9043 157.817C82.9187 157.725 82.959 157.639 83.0205 157.57C83.0819 157.5 83.1619 157.45 83.2511 157.424C83.3403 157.399 83.4349 157.399 83.5238 157.425C83.6128 157.452 83.6923 157.503 83.7532 157.573C83.8351 157.672 83.875 157.8 83.8645 157.928C83.5514 161.838 83.1687 165.943 82.793 170.125L81.8536 179.289C81.8188 179.581 81.798 179.873 81.7701 180.166C81.7159 180.933 81.6067 181.696 81.4431 182.448C81.1766 183.56 80.7047 184.612 80.0515 185.551L79.8149 185.885L80.142 186.122C80.9718 186.728 81.9202 187.152 82.9252 187.367C83.813 187.558 84.7291 187.58 85.6249 187.43C86.5146 187.288 87.3707 186.983 88.1506 186.532C88.3037 186.442 88.4567 186.337 88.6029 186.233C89.966 185.308 90.9763 183.95 91.4696 182.378C91.6548 181.717 91.8034 181.045 91.9149 180.367L92.0819 179.491L93.8283 170.445C94.6354 166.333 95.4565 162.284 96.2775 158.401C96.3114 158.286 96.3864 158.188 96.488 158.125C96.5896 158.062 96.7108 158.039 96.8286 158.059C96.9464 158.08 97.0524 158.143 97.1266 158.237C97.2007 158.331 97.2378 158.449 97.2308 158.568C96.6532 162.513 96.0201 166.604 95.3591 170.717L93.8631 179.818C93.8074 180.124 93.7587 180.43 93.71 180.736C93.6087 181.483 93.4576 182.222 93.2578 182.949C92.8131 184.404 92.0174 185.728 90.9408 186.803L90.3632 187.381L91.1704 187.506C93.0298 187.818 94.9378 187.406 96.5033 186.355C98.0687 185.305 99.173 183.695 99.5895 181.856C99.6521 181.557 102.317 169.012 105.399 153.475C102.714 171.712 100.946 182.002 100.918 182.142C100.863 182.378 100.793 182.622 100.71 182.893C100.71 182.956 100.668 183.018 100.64 183.088V183.137C100.585 183.297 100.529 183.45 100.466 183.603L100.334 183.902C100.278 184.027 100.216 184.145 100.153 184.264V184.306L100 184.591L99.9026 184.744V184.786C99.7185 185.085 99.5164 185.373 99.2973 185.648V185.69C99.1859 185.822 99.0677 185.968 98.9146 186.129L98.852 186.198C98.7128 186.344 98.5806 186.476 98.4414 186.609C96.8283 188.096 94.7147 188.923 92.5202 188.926C92.04 188.925 91.5607 188.885 91.0869 188.807L90.2867 188.682L87.7192 188.279C86.7187 188.667 85.6544 188.865 84.5812 188.863C83.9751 188.865 83.3707 188.799 82.779 188.668C81.5909 188.416 80.4694 187.916 79.4879 187.2L79.1609 186.957L78.5625 186.525C78.2841 186.774 77.9913 187.006 77.6858 187.221L77.6371 187.256L77.4353 187.402C76.0007 188.336 74.3256 188.834 72.6134 188.835C72.192 188.836 71.771 188.806 71.354 188.745C70.0578 188.531 68.8245 188.035 67.7421 187.29C66.6597 186.546 65.7548 185.572 65.0919 184.438C64.3425 185.754 63.2617 186.851 61.9568 187.62C60.6519 188.389 59.1684 188.803 57.6538 188.821H57.4033C55.8888 188.799 54.4062 188.383 53.1018 187.613C51.7974 186.843 50.7164 185.746 49.9652 184.431C49.6644 184.892 49.3221 185.326 48.9424 185.725C47.5769 187.386 45.6424 188.48 43.5152 188.793C43.0983 188.855 42.6773 188.885 42.2558 188.884C40.5478 188.896 38.8729 188.412 37.4339 187.492L37.2321 187.346L37.1834 187.311C36.8772 187.101 36.5865 186.868 36.3137 186.616L35.7153 187.054L35.3883 187.29C34.4025 188.007 33.2761 188.508 32.0832 188.759C31.497 188.878 30.9003 188.939 30.302 188.94C29.8358 188.941 29.3703 188.904 28.9104 188.828C28.1627 188.711 27.4331 188.498 26.7395 188.195L24.6521 188.696L23.9563 188.87H23.8241C21.624 189.236 19.3673 188.743 17.5198 187.494C15.6722 186.245 14.3748 184.334 13.8951 182.155C13.8951 181.982 12.086 171.294 9.22629 152.605C12.3365 168.511 15.0988 181.501 15.1614 181.808Z" fill="#3B2D55"/>
<path d="M57.3685 45C91.1495 45 114.744 66.0131 114.744 96.0994C114.744 104.449 109.665 131.836 105.385 153.426C102.303 168.963 99.6382 181.509 99.5756 181.808C99.159 183.646 98.0548 185.256 96.4893 186.307C94.9239 187.357 93.0158 187.769 91.1564 187.458L90.3493 187.332L90.9268 186.755C92.0035 185.679 92.7992 184.356 93.2438 182.9C93.4437 182.173 93.5948 181.434 93.6961 180.687C93.7448 180.381 93.7935 180.075 93.8492 179.769L95.3451 170.668C96.0061 166.556 96.6393 162.465 97.2168 158.519C97.2239 158.4 97.1868 158.282 97.1127 158.188C97.0385 158.095 96.9324 158.031 96.8147 158.011C96.6969 157.99 96.5757 158.014 96.4741 158.077C96.3724 158.14 96.2975 158.238 96.2636 158.352C95.4426 162.235 94.6215 166.284 93.8144 170.397L92.0679 179.442L91.9009 180.319C91.7895 180.997 91.6409 181.668 91.4556 182.33C90.9786 183.922 89.9722 185.304 88.6029 186.247C88.4567 186.351 88.3037 186.456 88.1506 186.546C87.3707 186.997 86.5146 187.302 85.6248 187.444C84.7291 187.594 83.813 187.572 82.9252 187.381C81.9202 187.166 80.9718 186.742 80.142 186.136L79.8149 185.899L80.0515 185.565C80.7047 184.626 81.1766 183.574 81.4431 182.462C81.6067 181.71 81.7159 180.947 81.7701 180.18C81.7701 179.887 81.8188 179.595 81.8536 179.303L82.7582 170.16C83.1548 165.985 83.5166 161.873 83.8297 157.963C83.8402 157.834 83.8003 157.707 83.7184 157.608C83.6575 157.538 83.578 157.487 83.489 157.46C83.4001 157.434 83.3055 157.433 83.2163 157.459C83.1271 157.485 83.0471 157.535 82.9857 157.605C82.9242 157.674 82.8839 157.76 82.8695 157.851C82.3059 161.741 81.7493 165.825 81.2065 169.986L80.0585 179.101C80.0167 179.379 79.9889 179.665 79.9541 179.95C79.885 180.651 79.7758 181.348 79.6271 182.037C79.4553 182.716 79.1833 183.366 78.82 183.965C78.2882 184.849 77.5772 185.612 76.7326 186.205L76.663 186.254L76.5308 186.351C75.0154 187.36 73.1788 187.77 71.3784 187.499C69.5779 187.229 67.9423 186.299 66.7896 184.89C66.507 184.545 66.2533 184.177 66.0312 183.791L65.9407 183.624L66.0034 183.45C66.1492 183.038 66.27 182.617 66.3652 182.19C66.5198 181.398 66.5898 180.591 66.5739 179.783L66.6505 175.267C66.7548 169.548 66.7966 163.64 66.7827 157.211C66.7827 157.084 66.7321 156.962 66.642 156.872C66.552 156.782 66.4299 156.731 66.3026 156.731C66.1752 156.731 66.0531 156.782 65.9631 156.872C65.873 156.962 65.8225 157.084 65.8225 157.211C65.4398 163.647 65.1267 169.548 64.9179 175.246L64.73 179.755C64.7263 180.456 64.6564 181.155 64.5213 181.842C64.375 182.488 64.1409 183.111 63.8255 183.693C63.8015 183.74 63.7736 183.784 63.742 183.826C63.1205 184.947 62.2145 185.886 61.1153 186.547C60.016 187.207 58.7622 187.567 57.4798 187.59H57.3685C56.0539 187.59 54.7631 187.239 53.6293 186.573C52.4955 185.908 51.5597 184.952 50.9185 183.805C50.8962 183.774 50.8775 183.742 50.8628 183.707C50.5393 183.121 50.3048 182.491 50.167 181.836C50.0376 181.185 49.9701 180.523 49.9652 179.859L49.7704 175.246C49.5617 169.847 49.2694 163.947 48.8728 157.211C48.8656 157.083 48.8083 156.963 48.7132 156.877C48.6181 156.791 48.493 156.746 48.3649 156.752C48.2418 156.762 48.1268 156.818 48.042 156.908C47.9572 156.998 47.9087 157.116 47.9057 157.239C47.9057 163.988 47.9544 169.896 48.0518 175.295L48.1283 179.811C48.1166 180.618 48.1842 181.424 48.3301 182.218C48.4226 182.643 48.5411 183.061 48.685 183.471L48.7476 183.652L48.6571 183.819C48.436 184.185 48.1847 184.531 47.9057 184.855C46.7574 186.263 45.1245 187.191 43.3273 187.458C41.5311 187.72 39.7006 187.32 38.1784 186.33L38.0393 186.233L37.9766 186.184C37.1309 185.593 36.4196 184.829 35.8892 183.944C35.5302 183.342 35.2628 182.69 35.096 182.009C34.9442 181.321 34.835 180.624 34.769 179.922C34.7342 179.651 34.7064 179.372 34.6646 179.094L33.5166 169.979C32.9739 165.804 32.4103 161.741 31.8536 157.844C31.8325 157.717 31.7627 157.602 31.6588 157.524C31.5842 157.469 31.4951 157.436 31.4022 157.43C31.3092 157.424 31.2166 157.445 31.1355 157.491C31.0544 157.536 30.9883 157.605 30.9453 157.687C30.9023 157.77 30.8843 157.863 30.8934 157.956C31.2065 161.88 31.5892 165.985 31.9649 170.153L32.8764 179.289C32.9112 179.581 32.9391 179.866 32.9669 180.159C33.0206 180.929 33.1298 181.694 33.2939 182.448C33.5526 183.567 34.0251 184.625 34.6855 185.565L34.9151 185.899L34.5881 186.136C33.76 186.743 32.8107 187.166 31.8049 187.374C30.9182 187.555 30.0063 187.576 29.1122 187.437C28.2218 187.297 27.3653 186.993 26.5864 186.539C26.4283 186.45 26.275 186.352 26.1272 186.247C24.7593 185.324 23.7479 183.962 23.2605 182.385C23.0805 181.716 22.9342 181.038 22.8222 180.353L22.6552 179.491L20.9087 170.445C20.1016 166.333 19.2806 162.277 18.4595 158.401C18.4471 158.339 18.4224 158.28 18.3869 158.227C18.3514 158.174 18.3058 158.129 18.2527 158.094C18.1997 158.059 18.1402 158.035 18.0777 158.023C18.0153 158.011 17.9511 158.012 17.889 158.025C17.7683 158.051 17.6618 158.121 17.5908 158.221C17.5198 158.322 17.4896 158.446 17.5063 158.568C18.0838 162.506 18.717 166.598 19.378 170.717L20.8739 179.811C20.9296 180.124 20.9783 180.43 21.027 180.729C21.1284 181.475 21.2772 182.214 21.4723 182.942C21.9067 184.404 22.7038 185.732 23.7893 186.804L24.2973 187.332L23.6015 187.506H23.5667C23.1689 187.573 22.7662 187.606 22.3629 187.604C20.6873 187.6 19.0629 187.026 17.7567 185.976C16.4505 184.927 15.5402 183.464 15.1754 181.829C15.1127 181.522 12.3504 168.532 9.19845 152.605C4.95408 131.14 6.15059e-06 104.358 6.15059e-06 96.1411C-0.0139098 66.034 23.5875 45 57.3685 45Z" fill="#57D1E5"/>
<path d="M72.7943 67.0708C77.7243 67.0694 82.5439 68.5302 86.6436 71.2683C90.7434 74.0064 93.9389 77.8988 95.8262 82.4533C97.7135 87.0077 98.2076 92.0196 97.2461 96.8549C96.2847 101.69 93.9108 106.132 90.4248 109.618C86.9388 113.104 82.4972 115.478 77.6619 116.439C72.8265 117.401 67.8147 116.906 63.2602 115.019C58.7058 113.132 54.8133 109.936 52.0752 105.837C49.3371 101.737 47.8764 96.9173 47.8778 91.9873C47.887 85.3819 50.5151 79.0496 55.1858 74.3788C59.8566 69.7081 66.1888 67.08 72.7943 67.0708Z" fill="#4D9BB6"/>
<path d="M100.181 89.9763C100.181 94.9043 98.7196 99.7217 95.9818 103.819C93.2439 107.917 89.3525 111.11 84.7996 112.996C80.2467 114.882 75.2368 115.375 70.4035 114.414C65.5702 113.453 61.1305 111.08 57.6458 107.595C54.1612 104.11 51.7881 99.6706 50.8267 94.8373C49.8653 90.004 50.3587 84.9941 52.2446 80.4412C54.1305 75.8883 57.3241 71.9969 61.4216 69.259C65.5191 66.5211 70.3364 65.0598 75.2645 65.0598C81.8705 65.0672 88.2038 67.6947 92.875 72.3658C97.5461 77.037 100.174 83.3703 100.181 89.9763Z" fill="url(#paint0_linear_36_2964)"/>
<path d="M58.2591 90.3449C58.621 100.782 66.0938 106.348 70.867 105.214C74.8609 104.268 75.3549 95.3894 72.857 93.0585C71.2149 91.5277 67.9516 91.1102 67.9168 90.0039C67.882 88.8976 71.1036 88.2575 72.6343 86.6154C74.9652 84.1175 73.852 75.2948 69.7955 74.6337C64.9249 73.8405 57.8904 79.8801 58.2591 90.3449Z" fill="#3B2D55"/>
<g opacity="0.15">
<path d="M63.2062 77.104C61.0423 79.8246 59.5255 83.8045 59.7273 88.8004C60.096 99.2373 67.5689 104.804 72.3351 103.67C72.6427 103.593 72.9362 103.469 73.2049 103.301C72.9726 103.762 72.6474 104.17 72.2499 104.499C71.8523 104.828 71.391 105.072 70.8948 105.214C66.1216 106.341 58.6488 100.81 58.287 90.345C58.0713 84.2985 60.3744 79.7341 63.2341 77.1249" fill="#3B2D55"/>
</g>
<path d="M98.344 58.9158C108.711 67.9611 114.772 80.8543 114.772 96.0992C114.772 110.474 99.7495 181.091 99.5964 181.808C99.267 183.26 98.5024 184.578 97.4047 185.586C101.127 167.773 112.956 109.98 112.956 96.5862C112.956 81.5779 107.626 68.6152 98.344 58.9158Z" fill="#93E1EF"/>
<path d="M70.0389 127.633C60.3666 126.624 51.3652 122.219 44.6354 115.199C42.4355 112.897 40.4705 110.382 38.7698 107.691C38.4783 107.261 38.0333 106.96 37.5262 106.848C37.0191 106.736 36.4884 106.822 36.0431 107.09C35.5979 107.357 35.2718 107.784 35.1319 108.284C34.992 108.784 35.0488 109.319 35.2908 109.779C38.7662 115.951 43.8401 121.073 49.9791 124.606C56.0163 128.182 62.865 130.16 69.8789 130.353C70.1868 130.301 70.468 130.146 70.6773 129.914C70.8866 129.682 71.0117 129.386 71.0326 129.075C71.0535 128.763 70.9689 128.453 70.7924 128.196C70.616 127.938 70.3579 127.747 70.0598 127.654" fill="#4D9BB6"/>
<path d="M71.3749 127.41C61.7025 126.402 52.7012 121.996 45.9713 114.976C43.7714 112.675 41.8065 110.16 40.1057 107.469C39.8142 107.039 39.3692 106.737 38.8621 106.625C38.355 106.513 37.8244 106.6 37.3791 106.867C36.9338 107.134 36.6077 107.562 36.4678 108.062C36.3279 108.562 36.3848 109.097 36.6267 109.556C40.1041 115.727 45.1775 120.848 51.315 124.384C57.3522 127.959 64.201 129.937 71.2148 130.131C71.5227 130.078 71.804 129.923 72.0132 129.691C72.2225 129.46 72.3476 129.164 72.3685 128.852C72.3894 128.541 72.3048 128.231 72.1284 127.973C71.9519 127.715 71.6939 127.524 71.3957 127.431" fill="#3B2D55"/>
<path d="M172.843 128.21L166.31 125.928L165.795 122.581L171.104 119.478L169.274 113.626H162.316L160.722 111.24L163.116 104.672L158.67 100.017L152.164 103.357L150 102.285L149.541 94.4016L143.974 93.0865L138.61 99.0565L136.669 98.9382L133.593 92.9683L126.976 94.165L125.717 102.285L123.393 103.6L117.826 100.121L112.691 104.421L115.321 111.706L113.721 113.731L107.104 113.258L104.606 119.242L109.512 124.613L109.171 127.125L103.124 129.985L104.154 138.105L121.375 132.497L126.009 132.33C125.873 131.677 125.801 131.013 125.793 130.347C125.793 124.147 131.005 117.259 137.726 117.259C144.448 117.259 150.132 124.147 150.132 130.347C150.116 130.869 150.06 131.39 149.965 131.905L171.785 136.386L172.843 128.21Z" fill="#FBAE17"/>
<path d="M150.118 130.347C150.102 130.869 150.046 131.39 149.951 131.905L171.772 136.386L172.843 128.21L166.309 125.928L165.795 122.581L171.104 119.478L169.274 113.626H162.316L160.722 111.24L163.116 104.672L158.67 100.017L152.164 103.357L150 102.285L149.541 94.4016L143.974 93.0865L138.61 99.0565L136.669 98.9382L133.593 92.9683L126.976 94.165L125.724 102.285L123.393 103.6L123.601 103.885L128.667 101.728L129.363 96.5307L132.048 96.0437L134.915 101.61L139.737 101.909L144.9 96.162L146.904 96.6351L147.335 104.059L152.206 106.46L158.12 103.419L159.964 105.353L157.675 111.616L160.868 116.389H167.228L167.799 118.212L162.775 121.155L163.819 127.988L169.802 130.075L169.406 133.109L152.832 129.699C152.456 122.533 145.971 116.751 137.691 116.751V117.266C144.434 117.259 150.118 124.147 150.118 130.347Z" fill="#F7C172"/>
<path d="M174.443 164.413C174.443 164.503 174.443 164.601 174.402 164.698C174.387 164.783 174.366 164.867 174.339 164.948C174.318 165.043 174.29 165.136 174.256 165.227L174.151 165.477L174.019 165.756C173.977 165.839 173.93 165.92 173.88 165.999C173.824 166.097 173.762 166.187 173.699 166.277L173.518 166.521L173.281 166.806L173.066 167.043L172.773 167.328L172.523 167.558C172.398 167.669 172.259 167.78 172.119 167.892C171.98 168.003 171.952 168.031 171.862 168.093C171.772 168.156 171.514 168.337 171.333 168.462L171.104 168.622C170.804 168.81 170.477 169.005 170.136 169.193L169.865 169.332C169.601 169.478 169.315 169.617 169.03 169.763L168.62 169.951L168.091 170.188L167.576 170.404L166.998 170.64L166.442 170.849L165.816 171.072L165.224 171.28L164.528 171.496L163.666 171.76C163.109 171.927 162.538 172.08 161.961 172.233L161.453 172.359C161.001 172.477 160.541 172.581 160.061 172.693L159.595 172.797C158.983 172.929 158.37 173.061 157.744 173.18L157.41 173.242C156.875 173.347 156.339 173.437 155.796 173.535L155.1 173.646L154.203 173.785L153.43 173.896L152.505 174.022L151.726 174.119L150.779 174.23L149.993 174.321L149.026 174.418L148.274 174.488L146.187 174.662H145.881C145.269 174.704 144.656 174.745 144.037 174.773L143.341 174.808L142.144 174.864H141.4H140.148H139.452H138.366H135.764H134.692H133.997L132.835 174.822H132.195L130.803 174.752H130.413L128.639 174.641H128.347L126.844 174.523L126.225 174.467L125.077 174.349L124.478 174.286C124.061 174.237 123.643 174.196 123.233 174.14L122.537 174.056L121.41 173.903L120.777 173.813L119.023 173.535L118.717 173.486C118.021 173.368 117.402 173.242 116.755 173.117L116.344 173.034C115.509 172.867 114.688 172.686 113.888 172.491L113.652 172.428C112.817 172.227 112.003 172.011 111.216 171.774C105.726 170.167 102.303 168.17 100.939 166.09C100.505 165.478 100.263 164.752 100.244 164.002L100.174 186.344C100.174 189.162 103.813 191.98 111.126 194.13C111.912 194.36 112.726 194.576 113.561 194.784L113.805 194.847C114.598 195.035 115.426 195.216 116.261 195.39L116.477 195.438L116.664 195.473C117.311 195.598 117.966 195.724 118.627 195.835L118.933 195.891L120.693 196.169L120.978 196.211L121.326 196.259L122.446 196.412L123.142 196.496L124.388 196.642L124.861 196.698H124.986L126.127 196.809L126.76 196.872L128.256 196.99H128.535C129.126 197.039 129.718 197.073 130.309 197.108H130.719L132.111 197.178H132.146H132.779L133.906 197.22H134.658H135.715H136.411C136.801 197.22 137.183 197.22 137.573 197.22H138.332H139.41H139.612H140.12H141.365H142.117L143.313 197.164H143.731H144.016C144.635 197.164 145.248 197.094 145.86 197.053H146.166C146.862 197.004 147.558 196.948 148.254 196.886H148.448L148.998 196.83L149.972 196.733L150.758 196.642L151.705 196.531L152.484 196.433L153.409 196.308L154.175 196.197L155.079 196.051L155.476 195.995L155.754 195.939C156.297 195.849 156.833 195.758 157.362 195.654L157.696 195.591C158.322 195.473 158.941 195.341 159.546 195.209L160.013 195.104L161.404 194.77L161.912 194.645C162.49 194.492 163.067 194.339 163.617 194.172L164.069 194.033L164.48 193.908L165.175 193.685L165.767 193.483L166.393 193.26L166.943 193.052L167.52 192.815L168.035 192.599L168.571 192.363L168.787 192.265C168.851 192.237 168.914 192.205 168.974 192.168C169.267 192.029 169.545 191.89 169.816 191.744L170.088 191.604C170.429 191.41 170.784 191.222 171.048 191.027H171.09L171.284 190.895C171.465 190.77 171.639 190.651 171.806 190.526L172.064 190.324L172.474 189.99L172.586 189.9L172.725 189.761C172.822 189.663 172.92 189.573 173.01 189.475C173.101 189.378 173.156 189.315 173.226 189.239L173.462 188.953L173.574 188.821C173.599 188.786 173.623 188.749 173.643 188.71C173.708 188.62 173.769 188.528 173.824 188.432L173.97 188.181C174.018 188.093 174.06 188.003 174.095 187.91C174.138 187.824 174.168 187.733 174.186 187.638C174.186 187.638 174.186 187.576 174.186 187.541C174.186 187.506 174.249 187.353 174.276 187.256L174.339 187.012C174.339 186.915 174.339 186.817 174.339 186.727C174.339 186.636 174.339 186.616 174.339 186.56V186.393L174.409 164.051C174.428 164.171 174.44 164.291 174.443 164.413Z" fill="url(#paint1_linear_36_2964)"/>
<path d="M163.519 156.286C178.055 160.558 178.131 167.488 163.693 171.76C149.255 176.033 125.751 176.033 111.223 171.76C96.6949 167.488 96.6114 160.558 111.056 156.286C125.501 152.014 148.984 152.014 163.519 156.286Z" fill="#D6D6D6"/>
<path d="M163.693 171.475C149.248 175.748 125.751 175.748 111.223 171.475C104.063 169.388 100.417 166.605 100.285 163.863C100.174 166.716 103.813 169.583 111.223 171.761C125.751 176.033 149.248 176.033 163.693 171.761C171.02 169.597 174.596 166.744 174.457 163.898C174.353 166.646 170.769 169.381 163.693 171.475Z" fill="#FEFEFF"/>
<path d="M174.576 139.628C174.576 139.719 174.576 139.816 174.534 139.914C174.492 140.011 174.492 140.074 174.471 140.157C174.45 140.241 174.423 140.345 174.388 140.442L174.283 140.693C174.242 140.783 174.2 140.874 174.151 140.964C174.108 141.051 174.059 141.134 174.005 141.215C173.949 141.312 173.894 141.403 173.831 141.493L173.65 141.737L173.414 142.022L173.191 142.258L172.906 142.544L172.655 142.773C172.53 142.885 172.391 142.996 172.252 143.107L171.987 143.309C171.827 143.434 171.646 143.553 171.465 143.678L171.236 143.831C170.93 144.026 170.61 144.214 170.269 144.408L169.997 144.548C169.726 144.694 169.448 144.833 169.155 144.972L168.752 145.167L168.216 145.403L167.708 145.619C167.52 145.696 167.325 145.779 167.131 145.849L166.574 146.064L165.948 146.287L165.356 146.489L164.66 146.712L163.805 146.976C163.248 147.143 162.677 147.296 162.093 147.449L161.592 147.574L160.2 147.908L159.734 148.013C159.122 148.145 158.51 148.277 157.883 148.395L157.542 148.458C157.014 148.562 156.478 148.653 155.935 148.743L155.239 148.855L154.342 148.994L153.569 149.112L152.644 149.237L151.865 149.335L150.918 149.446L150.132 149.536L149.165 149.634L148.414 149.703C147.718 149.766 147.022 149.822 146.326 149.87H146.02C145.408 149.912 144.795 149.954 144.176 149.982L143.48 150.017L142.284 150.072H141.539L140.287 150.107H139.591H138.505H135.917H134.846H134.15L132.988 150.065H132.348L130.956 149.996H130.566L128.792 149.884H128.5L126.997 149.766L126.378 149.703L125.223 149.592L124.631 149.529C124.214 149.481 123.796 149.439 123.386 149.383L122.69 149.3L121.57 149.147L120.937 149.056L119.183 148.778L118.877 148.722C118.181 148.611 117.555 148.486 116.915 148.361L116.504 148.277C115.669 148.103 114.848 147.922 114.048 147.734L113.812 147.672C112.977 147.463 112.163 147.247 111.376 147.018C105.886 145.403 102.463 143.413 101.099 141.333C100.665 140.722 100.423 139.995 100.404 139.246L100.202 161.616C100.202 164.399 103.841 167.251 111.154 169.401C111.94 169.631 112.754 169.847 113.589 170.056L113.832 170.118C114.626 170.306 115.454 170.487 116.289 170.661L116.504 170.71L116.692 170.744C117.339 170.87 117.993 170.995 118.654 171.106L118.961 171.162C119.545 171.259 120.129 171.35 120.721 171.433L121.006 171.482L121.354 171.531L122.474 171.677L123.17 171.767L124.416 171.913L124.889 171.962H125.014L126.155 172.073L126.788 172.136L128.284 172.254H128.563L130.351 172.331H130.761L132.153 172.4H132.188H132.821L133.948 172.442H134.699H135.757H138.359H139.438H139.64H140.148L141.393 172.407H142.144L143.341 172.359H143.759H144.044L145.888 172.247H146.194C146.89 172.199 147.586 172.143 148.281 172.08H148.476L149.026 172.032L150 171.934L150.786 171.844L151.733 171.732L152.512 171.635L153.437 171.51L154.203 171.391L155.107 171.252C155.239 171.252 155.372 171.252 155.504 171.19L155.782 171.141L157.389 170.856L157.723 170.793C158.35 170.675 158.969 170.543 159.574 170.41L160.04 170.299L161.432 169.972L161.94 169.847C162.517 169.694 163.095 169.534 163.645 169.374L164.097 169.234L164.507 169.102L165.203 168.887L165.795 168.685L166.421 168.462L166.971 168.246L167.548 168.017L168.063 167.801L168.599 167.565L168.814 167.467L169.002 167.37C169.294 167.231 169.573 167.091 169.844 166.945L170.116 166.799C170.456 166.611 170.811 166.423 171.076 166.229H171.117L171.312 166.089C171.493 165.971 171.667 165.853 171.834 165.728L172.092 165.526L172.502 165.192L172.613 165.101L172.753 164.962L173.038 164.677C173.114 164.6 173.184 164.517 173.254 164.44L173.49 164.155C173.525 164.106 173.567 164.065 173.601 164.023C173.627 163.987 173.65 163.95 173.671 163.912C173.741 163.814 173.796 163.724 173.852 163.633L173.998 163.383C174.046 163.295 174.087 163.204 174.123 163.111C174.153 163.063 174.179 163.011 174.2 162.958C174.2 162.924 174.2 162.896 174.2 162.861C174.2 162.826 174.262 162.673 174.29 162.576L174.353 162.325C174.353 162.235 174.353 162.137 174.353 162.047C174.353 161.956 174.353 161.936 174.353 161.88V161.713L174.555 139.343C174.567 139.438 174.574 139.533 174.576 139.628Z" fill="url(#paint2_linear_36_2964)"/>
<path d="M163.652 131.481C178.187 135.753 178.263 142.683 163.825 146.955C149.388 151.227 125.884 151.227 111.355 146.955C96.8272 142.683 96.7437 135.753 111.188 131.481C125.633 127.209 149.137 127.209 163.652 131.481Z" fill="#D6D6D6"/>
<path d="M163.825 146.67C149.381 150.942 125.884 150.942 111.355 146.67C104.196 144.582 100.55 141.799 100.417 139.058C100.299 141.911 103.945 144.777 111.355 146.955C125.884 151.227 149.381 151.227 163.825 146.955C171.152 144.784 174.729 141.938 174.589 139.093C174.485 141.841 170.902 144.576 163.825 146.67Z" fill="#FEFEFF"/>
<path d="M183.774 176.061C183.349 175.74 183.062 175.269 182.973 174.743C182.883 174.218 182.998 173.679 183.294 173.236C183.615 172.808 184.087 172.52 184.614 172.431C185.141 172.342 185.682 172.458 186.126 172.755C186.553 173.076 186.841 173.549 186.93 174.076C187.02 174.603 186.904 175.144 186.606 175.587C186.182 176.045 185.594 176.318 184.971 176.346C184.763 176.401 184.545 176.404 184.336 176.354C184.127 176.305 183.934 176.204 183.774 176.061ZM189.793 167.015C189.316 166.781 188.951 166.368 188.778 165.866C188.604 165.365 188.637 164.815 188.867 164.336C189.103 163.861 189.516 163.497 190.017 163.324C190.518 163.151 191.068 163.182 191.546 163.411C192.022 163.646 192.385 164.059 192.557 164.561C192.729 165.063 192.696 165.612 192.465 166.09C192.315 166.429 192.064 166.713 191.746 166.903C191.429 167.094 191.06 167.182 190.69 167.154C190.543 167.21 190.385 167.23 190.229 167.212C190.073 167.193 189.923 167.138 189.793 167.05V167.015ZM194.162 157.274C193.651 157.113 193.222 156.762 192.963 156.293C192.704 155.824 192.635 155.273 192.771 154.755C192.845 154.501 192.971 154.266 193.142 154.064C193.313 153.862 193.524 153.699 193.762 153.584C194 153.469 194.26 153.405 194.524 153.397C194.789 153.39 195.052 153.437 195.296 153.538C195.807 153.699 196.237 154.05 196.496 154.519C196.755 154.988 196.824 155.538 196.688 156.056C196.569 156.469 196.315 156.83 195.967 157.082C195.619 157.335 195.197 157.463 194.768 157.448C194.608 157.448 194.461 157.302 194.162 157.302V157.274ZM196.883 146.955C196.373 146.871 195.915 146.593 195.605 146.18C195.295 145.766 195.157 145.249 195.22 144.736C195.304 144.226 195.582 143.768 195.996 143.458C196.409 143.148 196.926 143.01 197.439 143.073C197.951 143.154 198.411 143.431 198.721 143.845C199.032 144.26 199.169 144.779 199.102 145.292C199.04 145.755 198.81 146.179 198.456 146.484C198.102 146.789 197.649 146.954 197.182 146.948H196.883V146.955ZM195.999 134.285V133.986C196.003 133.475 196.204 132.985 196.56 132.619C196.917 132.253 197.402 132.04 197.913 132.023C198.429 132.052 198.92 132.26 199.3 132.61C199.681 132.96 199.928 133.432 200 133.944V134.09V134.243C199.997 134.755 199.794 135.245 199.436 135.61C199.077 135.975 198.591 136.186 198.08 136.198C197.555 136.217 197.044 136.031 196.656 135.679C196.267 135.326 196.032 134.836 195.999 134.313V134.285ZM194.99 123.549C194.915 123.037 195.041 122.516 195.342 122.096C195.643 121.675 196.096 121.388 196.605 121.294C197.116 121.219 197.637 121.345 198.058 121.646C198.478 121.947 198.765 122.4 198.859 122.909C198.934 123.42 198.808 123.941 198.507 124.362C198.206 124.782 197.753 125.069 197.245 125.163H196.945C196.478 125.206 196.012 125.065 195.647 124.77C195.282 124.475 195.046 124.05 194.99 123.583V123.549ZM192.346 113.585C192.165 113.092 192.186 112.548 192.403 112.07C192.621 111.592 193.018 111.219 193.508 111.031C194.002 110.853 194.546 110.875 195.024 111.094C195.502 111.312 195.874 111.71 196.062 112.2C196.242 112.693 196.22 113.237 196.002 113.714C195.783 114.191 195.384 114.562 194.893 114.747C194.718 114.868 194.506 114.924 194.294 114.907C193.88 114.905 193.475 114.782 193.129 114.553C192.783 114.324 192.511 114 192.346 113.62V113.585ZM188.102 104.143C187.977 103.911 187.899 103.655 187.875 103.392C187.851 103.129 187.88 102.864 187.96 102.613C188.041 102.362 188.171 102.129 188.344 101.929C188.517 101.729 188.728 101.566 188.965 101.45C189.197 101.325 189.452 101.248 189.715 101.223C189.978 101.199 190.243 101.228 190.495 101.309C190.746 101.389 190.979 101.52 191.178 101.692C191.378 101.865 191.541 102.076 191.657 102.313C191.783 102.546 191.86 102.802 191.884 103.065C191.909 103.328 191.88 103.594 191.799 103.846C191.719 104.098 191.588 104.331 191.416 104.532C191.243 104.732 191.032 104.896 190.795 105.013C190.525 105.181 190.22 105.286 189.904 105.319C189.177 105.168 188.533 104.748 188.102 104.143ZM182.487 95.4037C182.18 94.9668 182.053 94.4291 182.13 93.9011C182.208 93.3732 182.485 92.895 182.904 92.5648C183.341 92.2583 183.879 92.1308 184.407 92.2084C184.935 92.2861 185.413 92.563 185.743 92.9823C186.041 93.4178 186.162 93.9497 186.083 94.4712C186.005 94.9927 185.731 95.465 185.319 95.7933C184.997 96.0952 184.57 96.2599 184.129 96.2525C183.5 96.1208 182.919 95.8174 182.452 95.3758L182.487 95.4037ZM175.39 87.7499C175.195 87.5689 175.04 87.3497 174.934 87.1061C174.828 86.8625 174.773 86.5996 174.773 86.3339C174.773 86.0682 174.828 85.8054 174.934 85.5618C175.04 85.3182 175.195 85.099 175.39 84.918C175.571 84.7235 175.79 84.5684 176.033 84.4623C176.277 84.3563 176.54 84.3015 176.806 84.3015C177.071 84.3015 177.334 84.3563 177.578 84.4623C177.821 84.5684 178.041 84.7235 178.222 84.918C178.416 85.099 178.571 85.3182 178.677 85.5618C178.783 85.8054 178.838 86.0682 178.838 86.3339C178.838 86.5996 178.783 86.8625 178.677 87.1061C178.571 87.3497 178.416 87.5689 178.222 87.7499C178.034 87.9538 177.804 88.1143 177.548 88.2201C177.292 88.3259 177.016 88.3744 176.74 88.3622C176.247 88.21 175.78 87.9848 175.355 87.6942L175.39 87.7499ZM167.228 81.2233C167.003 81.0747 166.812 80.8814 166.665 80.6555C166.518 80.4296 166.42 80.1759 166.375 79.9103C166.331 79.6446 166.342 79.3727 166.407 79.1114C166.472 78.8501 166.591 78.605 166.755 78.3914C166.903 78.167 167.095 77.9755 167.321 77.8289C167.546 77.6823 167.799 77.5837 168.064 77.5393C168.329 77.4949 168.601 77.5056 168.861 77.5708C169.122 77.636 169.367 77.7543 169.58 77.9183C169.806 78.065 169.998 78.2569 170.146 78.4819C170.294 78.7069 170.394 78.9601 170.439 79.2255C170.484 79.491 170.474 79.7629 170.408 80.0241C170.343 80.2853 170.224 80.5302 170.06 80.7432C169.877 81.012 169.634 81.2343 169.35 81.3925C169.066 81.5508 168.749 81.6406 168.425 81.6547C167.979 81.5155 167.68 81.3694 167.228 81.2233ZM158.224 76.1022C157.973 76.0046 157.746 75.8533 157.559 75.6591C157.372 75.4648 157.229 75.2321 157.141 74.9772C157.053 74.7223 157.022 74.4512 157.049 74.1829C157.076 73.9146 157.161 73.6554 157.299 73.4234C157.397 73.172 157.548 72.9449 157.742 72.7579C157.936 72.5708 158.169 72.4283 158.424 72.3403C158.679 72.2522 158.95 72.2207 159.218 72.2479C159.487 72.2752 159.746 72.3605 159.978 72.498C160.229 72.5964 160.455 72.7481 160.641 72.9427C160.828 73.1373 160.969 73.3701 161.057 73.625C161.144 73.8798 161.175 74.1506 161.147 74.4186C161.12 74.6865 161.034 74.9453 160.896 75.1768C160.753 75.5314 160.508 75.8356 160.193 76.0511C159.877 76.2666 159.504 76.3836 159.122 76.3875C158.677 76.2414 158.377 76.2484 158.224 76.1022ZM148.337 72.4771C148.079 72.406 147.837 72.2838 147.626 72.1179C147.416 71.9519 147.24 71.7455 147.111 71.5109C146.981 71.2762 146.9 71.0179 146.871 70.7513C146.843 70.4847 146.868 70.2151 146.945 69.9584C147.017 69.6991 147.139 69.4567 147.305 69.2455C147.472 69.0343 147.679 68.8587 147.914 68.729C148.15 68.5992 148.409 68.518 148.676 68.4902C148.944 68.4623 149.214 68.4883 149.471 68.5668C149.973 68.7404 150.394 69.0939 150.651 69.559C150.907 70.0241 150.983 70.568 150.863 71.0855C150.743 71.5094 150.492 71.8844 150.145 72.1569C149.799 72.4294 149.376 72.5853 148.935 72.6024C148.728 72.6296 148.517 72.5855 148.337 72.4771ZM115.043 70.1532C114.956 69.6431 115.056 69.1186 115.326 68.677C115.596 68.2355 116.017 67.907 116.511 67.7527C117.023 67.6345 117.561 67.7213 118.009 67.9943C118.458 68.2674 118.782 68.7051 118.912 69.2139C119.03 69.7274 118.942 70.2667 118.668 70.7166C118.394 71.1665 117.954 71.4912 117.444 71.6213H116.998C116.773 71.6597 116.542 71.6517 116.319 71.5978C116.097 71.5439 115.888 71.4452 115.705 71.3078C115.522 71.1704 115.369 70.9972 115.255 70.7986C115.141 70.6001 115.069 70.3805 115.043 70.1532ZM138.171 70.6472C137.643 70.5792 137.16 70.3114 136.822 69.8986C136.484 69.4859 136.317 68.9595 136.355 68.4276C136.425 67.8999 136.694 67.4187 137.106 67.0825C137.519 66.7462 138.044 66.5802 138.575 66.6185C139.101 66.6881 139.582 66.9556 139.918 67.3667C140.254 67.7777 140.421 68.3014 140.384 68.8312C140.318 69.3365 140.069 69.8002 139.684 70.1347C139.3 70.4692 138.806 70.6515 138.297 70.6472H138.151H138.171ZM125.619 68.3998C125.599 67.8687 125.789 67.3509 126.149 66.9598C126.509 66.5686 127.009 66.3359 127.54 66.3124C128.07 66.2897 128.588 66.4785 128.979 66.8373C129.371 67.196 129.604 67.6954 129.627 68.2258C129.648 68.7569 129.457 69.2746 129.098 69.6658C128.738 70.0569 128.238 70.2897 127.707 70.3132H127.567C127.312 70.3227 127.057 70.28 126.819 70.1877C126.581 70.0953 126.364 69.9553 126.181 69.7762C125.999 69.5971 125.855 69.3826 125.758 69.1459C125.662 68.9093 125.614 68.6554 125.619 68.3998Z" fill="#E35A01"/>
</g>
<defs>
<linearGradient id="paint0_linear_36_2964" x1="50.341" y1="89.9763" x2="100.181" y2="89.9763" gradientUnits="userSpaceOnUse">
<stop stop-color="#CECAD5"/>
<stop offset="0.66" stop-color="white"/>
<stop offset="1" stop-color="white"/>
</linearGradient>
<linearGradient id="paint1_linear_36_2964" x1="169.037" y1="180.639" x2="116.602" y2="180.639" gradientUnits="userSpaceOnUse">
<stop stop-color="#F0F0F0"/>
<stop offset="1" stop-color="#F0F0F0"/>
</linearGradient>
<linearGradient id="paint2_linear_36_2964" x1="169.162" y1="155.847" x2="116.637" y2="155.847" gradientUnits="userSpaceOnUse">
<stop stop-color="#F0F0F0"/>
<stop offset="1" stop-color="#F0F0F0"/>
</linearGradient>
<clipPath id="clip0_36_2964">
<rect width="200" height="200" fill="white"/>
</clipPath>
</defs>
</svg>
