<svg width="200" height="200" viewBox="0 0 200 200" fill="none" xmlns="http://www.w3.org/2000/svg">
<g clip-path="url(#clip0_94_76)">
<path d="M20.1617 192.806C20.9358 196.22 23.9746 198.575 27.3751 198.575C27.7731 198.575 28.1782 198.546 28.5834 198.474H28.6268L29.3503 198.294L28.8366 197.768C27.7297 196.667 26.9266 195.334 26.5142 193.915C26.2826 193.094 26.1741 192.389 26.0656 191.704C26.0149 191.402 25.9715 191.099 25.9136 190.782L24.416 181.701C23.7503 177.581 23.1209 173.498 22.5421 169.565C22.5059 169.313 22.6723 169.075 22.9183 169.025C23.1787 168.975 23.432 169.14 23.4899 169.4C24.3147 173.274 25.1395 177.322 25.9498 181.434L27.7007 190.48C27.7586 190.761 27.8092 191.049 27.8671 191.344C28.0046 192.064 28.1421 192.813 28.3085 193.368C28.7788 194.916 29.7989 196.292 31.1808 197.228C31.3328 197.329 31.4847 197.43 31.6366 197.516C32.4108 197.97 33.2646 198.273 34.1762 198.409C35.0806 198.553 35.985 198.532 36.8749 198.345C37.8516 198.15 38.8139 197.725 39.6604 197.113L39.9932 196.875L39.7617 196.544C39.0889 195.586 38.6186 194.542 38.3581 193.433C38.1628 192.583 38.0976 191.848 38.0325 191.143C38.0036 190.854 37.9819 190.566 37.9457 190.271L37.0413 181.146C36.6434 176.983 36.2816 172.878 35.9633 168.96C35.9416 168.708 36.1224 168.478 36.3757 168.442C36.5059 168.427 36.6289 168.456 36.7374 168.535C36.8387 168.615 36.9111 168.723 36.9255 168.852C37.4899 172.749 38.0542 176.825 38.5969 180.973L39.7545 190.077C39.7907 190.35 39.8268 190.631 39.8558 190.905C39.9498 191.668 40.0367 192.396 40.1814 192.972C40.3478 193.642 40.6155 194.29 40.9772 194.902C41.4982 195.781 42.2217 196.551 43.0537 197.142L43.1188 197.192C43.1622 197.228 43.2129 197.257 43.2563 197.293C44.7395 198.273 46.6279 198.683 48.4222 198.424C50.1876 198.179 51.8661 197.228 53.0165 195.824C53.2987 195.493 53.5519 195.118 53.7762 194.729L53.8703 194.564L53.8052 194.383C53.6677 193.987 53.5447 193.57 53.4506 193.13C53.2625 192.309 53.2553 191.359 53.2481 190.732L53.1757 186.224C53.0744 180.829 53.0238 174.931 53.031 168.182C53.031 167.93 53.2336 167.714 53.4868 167.7C53.7545 167.685 53.9788 167.887 54.0005 168.154C54.3984 174.888 54.6879 180.779 54.8977 186.173L55.093 190.782C55.1292 191.56 55.1509 192.122 55.2956 192.756C55.4692 193.498 55.7008 194.11 55.9902 194.628C56.0046 194.657 56.0264 194.686 56.0481 194.722C57.3576 197.063 59.9478 198.561 62.5235 198.503H62.632C65.2005 198.503 67.6822 197.041 68.9556 194.751C68.999 194.686 69.0207 194.65 69.0424 194.614C69.3969 193.995 69.5995 193.303 69.737 192.763C69.8889 192.086 69.9106 191.495 69.9468 190.682L70.1349 186.173C70.3592 180.484 70.6558 174.592 71.0393 168.154C71.0538 167.902 71.2708 167.7 71.5241 167.7C71.7918 167.7 72.0088 167.916 72.0088 168.182C72.0233 174.607 71.9726 180.505 71.8713 186.224L71.799 190.732C71.799 191.719 71.7266 192.504 71.5892 193.138C71.4806 193.591 71.3649 194.002 71.2274 194.391L71.1623 194.571L71.2564 194.736C71.4807 195.133 71.7339 195.5 72.016 195.831C73.1592 197.221 74.8378 198.172 76.6104 198.431C78.4047 198.698 80.2858 198.28 81.7763 197.293C81.8197 197.264 81.8703 197.228 81.9137 197.192L81.9789 197.142C82.8109 196.551 83.5344 195.781 84.0553 194.902C84.4243 194.29 84.692 193.642 84.8584 192.979C85.0032 192.41 85.09 191.69 85.184 190.927C85.2202 190.646 85.2491 190.358 85.2926 190.084L86.4502 180.973C86.9928 176.818 87.5572 172.741 88.1215 168.852C88.1577 168.6 88.3747 168.42 88.6424 168.442C88.7727 168.449 88.8884 168.514 88.9753 168.607C89.0621 168.708 89.0983 168.831 89.091 168.96C88.7727 172.871 88.4109 176.976 88.013 181.146L87.1086 190.278C87.0724 190.566 87.0507 190.862 87.0218 191.15C86.9566 191.856 86.8915 192.583 86.6962 193.426C86.4285 194.528 85.9582 195.572 85.2853 196.523L85.0538 196.854L85.3866 197.091C86.2331 197.704 87.1954 198.136 88.1721 198.337C89.0621 198.525 89.9737 198.553 90.8853 198.402C91.7897 198.258 92.6362 197.956 93.4104 197.502C93.5696 197.408 93.7215 197.308 93.8662 197.207C95.2409 196.27 96.2611 194.902 96.7458 193.354C96.9195 192.806 97.0569 192.064 97.1872 191.351C97.245 191.056 97.2957 190.754 97.3536 190.473L99.1045 181.42C99.9148 177.315 100.74 173.267 101.564 169.385C101.615 169.14 101.854 168.975 102.107 169.011C102.375 169.047 102.556 169.292 102.519 169.558C101.941 173.498 101.311 177.588 100.646 181.693L99.1406 190.782C99.0828 191.092 99.0321 191.395 98.9887 191.704C98.8802 192.381 98.7717 193.087 98.5329 193.908C98.106 195.327 97.3029 196.659 96.2032 197.754L95.6244 198.33L96.4347 198.453C100.327 199.094 104.024 196.609 104.885 192.806C104.95 192.504 107.627 179.979 110.717 164.459C108.025 182.68 106.253 192.95 106.217 193.102V193.138C106.166 193.375 106.094 193.62 106.007 193.887C105.985 193.951 105.963 194.016 105.942 194.081L105.92 194.139C105.862 194.297 105.804 194.448 105.739 194.6C105.696 194.7 105.652 194.801 105.609 194.902C105.551 195.024 105.493 195.147 105.428 195.262L105.406 195.305C105.356 195.399 105.305 195.5 105.247 195.593C105.218 195.644 105.182 195.694 105.153 195.745L105.124 195.788C104.936 196.09 104.733 196.378 104.516 196.652L104.487 196.688C104.379 196.825 104.256 196.969 104.104 197.127L104.039 197.192C103.901 197.344 103.764 197.473 103.626 197.603C103.626 197.603 103.612 197.617 103.612 197.624C101.977 199.122 99.8714 199.936 97.6719 199.936C97.1944 199.936 96.7096 199.893 96.2321 199.821L95.4362 199.699L92.8533 199.295C92.2962 199.511 91.7101 199.67 91.1096 199.763C90.6466 199.835 90.1691 199.879 89.6988 199.879C89.091 199.879 88.4833 199.814 87.89 199.684C86.7396 199.447 85.5892 198.935 84.5907 198.215L84.2579 197.977L83.6574 197.545C83.3825 197.804 83.0858 198.042 82.7747 198.258L82.7241 198.294C82.659 198.345 82.5938 198.388 82.5287 198.438C81.1323 199.36 79.4104 199.871 77.6956 199.871C77.2688 199.871 76.8419 199.843 76.4295 199.778C74.3241 199.468 72.3416 198.345 70.9887 196.695C70.6775 196.328 70.3881 195.918 70.1349 195.471C68.6228 198.136 65.6998 199.857 62.6682 199.857H62.5742C62.5235 199.857 62.4729 199.857 62.4222 199.857C59.4052 199.857 56.4894 198.143 54.9555 195.478C54.7023 195.91 54.4129 196.328 54.1018 196.703C52.7488 198.352 50.7592 199.475 48.6537 199.771C48.2486 199.828 47.8217 199.864 47.3948 199.864C45.6728 199.864 43.9509 199.36 42.5545 198.438C42.4821 198.388 42.417 198.345 42.3519 198.294L42.3013 198.258C41.9974 198.042 41.7007 197.804 41.4258 197.552L40.8325 197.985L40.4997 198.222C39.494 198.95 38.3509 199.454 37.186 199.684C36.6 199.807 35.9994 199.864 35.3989 199.864C34.9359 199.864 34.4656 199.828 34.0098 199.756C33.2501 199.641 32.5266 199.425 31.8392 199.122L29.7121 199.627L28.9886 199.799H28.9669L28.9452 199.807H28.9018L28.8801 199.821H28.8583C28.3881 199.9 27.9105 199.943 27.433 199.943C23.3813 199.943 19.7927 197.077 18.8955 193.123C18.8594 192.95 17.0795 182.277 14.2072 163.602C17.3689 179.511 20.14 192.489 20.2051 192.792L20.1617 192.806Z" fill="#3B2D55"/>
<path d="M62.5163 56.1689C96.4202 56.1689 120.094 77.1557 120.094 107.21C120.094 115.557 114.993 142.91 110.702 164.473C107.613 179.994 104.936 192.518 104.871 192.821C104.01 196.623 100.32 199.108 96.4202 198.467L95.6099 198.345L96.1887 197.768C97.2884 196.674 98.0915 195.341 98.5184 193.923C98.7572 193.094 98.8657 192.396 98.9742 191.719C99.0249 191.409 99.0683 191.107 99.1262 190.797L100.631 181.708C101.297 177.596 101.926 173.512 102.505 169.572C102.541 169.313 102.36 169.068 102.093 169.025C101.832 168.989 101.601 169.155 101.55 169.4C100.725 173.282 99.9003 177.329 99.09 181.434L97.3391 190.487C97.2812 190.775 97.2233 191.071 97.1727 191.366C97.0352 192.079 96.8977 192.821 96.7313 193.368C96.2466 194.916 95.2264 196.285 93.8517 197.221C93.6998 197.322 93.5479 197.423 93.3959 197.516C92.6217 197.97 91.768 198.273 90.8708 198.417C89.9592 198.568 89.0476 198.539 88.1577 198.352C87.1809 198.15 86.2186 197.718 85.3721 197.106L85.0393 196.868L85.2708 196.537C85.9437 195.579 86.414 194.535 86.6817 193.44C86.877 192.59 86.9422 191.863 87.0073 191.164C87.0362 190.869 87.0579 190.581 87.0941 190.293L87.9985 181.161C88.3964 176.983 88.7582 172.885 89.0765 168.975C89.0838 168.845 89.0476 168.723 88.9608 168.622C88.8739 168.521 88.7582 168.463 88.628 168.456C88.3675 168.435 88.1504 168.615 88.107 168.867C87.5427 172.749 86.9783 176.832 86.4357 180.988L85.2781 190.098C85.2419 190.379 85.2057 190.66 85.1695 190.941C85.0755 191.704 84.9887 192.417 84.844 192.994C84.6775 193.663 84.4026 194.312 84.0409 194.916C83.5199 195.788 82.8036 196.566 81.9644 197.156L81.8993 197.207C81.8558 197.243 81.8052 197.279 81.7618 197.308C80.2713 198.294 78.3902 198.712 76.5959 198.445C74.8233 198.186 73.1447 197.236 72.0016 195.846C71.7194 195.507 71.4589 195.14 71.2419 194.751L71.1478 194.585L71.2129 194.405C71.3504 194.023 71.4662 193.606 71.5747 193.152C71.7122 192.518 71.7845 191.733 71.7845 190.746L71.8569 186.238C71.9654 180.527 72.0088 174.621 71.9943 168.197C71.9943 167.93 71.7773 167.714 71.5096 167.714C71.2563 167.714 71.0393 167.916 71.0248 168.168C70.6413 174.599 70.3447 180.498 70.1204 186.188L69.9323 190.696C69.8961 191.51 69.8744 192.1 69.7225 192.777C69.585 193.31 69.3824 194.009 69.0279 194.628C69.0062 194.664 68.9845 194.7 68.9411 194.765C67.6677 197.055 65.1933 198.518 62.6176 198.518H62.509C59.9333 198.575 57.3431 197.077 56.0336 194.736C56.0119 194.7 55.9902 194.664 55.9757 194.643C55.6791 194.124 55.4548 193.512 55.2811 192.77C55.1364 192.136 55.1147 191.575 55.0785 190.797L54.8832 186.188C54.6734 180.8 54.3767 174.902 53.986 168.168C53.9716 167.902 53.74 167.7 53.4723 167.714C53.2191 167.729 53.0165 167.938 53.0165 168.197C53.0165 174.945 53.0599 180.844 53.1612 186.238L53.2336 190.746C53.2408 191.373 53.2553 192.324 53.4362 193.145C53.5302 193.584 53.6532 194.009 53.7907 194.398L53.8558 194.578L53.7617 194.744C53.5374 195.14 53.2842 195.507 53.002 195.838C51.8517 197.243 50.1731 198.193 48.4077 198.438C46.6134 198.705 44.725 198.287 43.2418 197.308C43.1912 197.279 43.1478 197.243 43.1044 197.207L43.0392 197.156C42.2 196.573 41.4837 195.795 40.9627 194.916C40.601 194.304 40.3261 193.656 40.1669 192.986C40.0222 192.41 39.9354 191.683 39.8413 190.919C39.8051 190.646 39.7762 190.365 39.74 190.091L38.5824 180.988C38.0397 176.839 37.4754 172.756 36.9111 168.867C36.8894 168.737 36.8242 168.629 36.7229 168.55C36.6217 168.471 36.4914 168.442 36.3612 168.456C36.108 168.492 35.9271 168.723 35.9488 168.975C36.2671 172.893 36.6289 176.998 37.0268 181.161L37.9312 190.286C37.9674 190.581 37.9891 190.862 38.018 191.157C38.0832 191.863 38.1483 192.597 38.3436 193.447C38.6041 194.556 39.0744 195.601 39.7472 196.559L39.9788 196.89L39.646 197.128C38.7994 197.74 37.8372 198.165 36.8604 198.359C35.9705 198.546 35.0589 198.568 34.1617 198.424C33.2501 198.28 32.3963 197.977 31.6222 197.531C31.463 197.437 31.3111 197.344 31.1663 197.243C29.7844 196.306 28.757 194.931 28.294 193.382C28.1276 192.828 27.9829 192.079 27.8526 191.359C27.7948 191.071 27.7441 190.783 27.6862 190.494L25.9353 181.449C25.125 177.343 24.293 173.289 23.4754 169.414C23.4175 169.155 23.1643 168.989 22.9038 169.04C22.6578 169.09 22.4914 169.328 22.5276 169.58C23.1064 173.512 23.7358 177.603 24.4015 181.715L25.8992 190.797C25.957 191.107 26.0077 191.416 26.0511 191.719C26.1596 192.403 26.2681 193.102 26.4997 193.93C26.9121 195.356 27.7152 196.688 28.8222 197.783L29.3359 198.309L28.6123 198.481H28.5689C28.1638 198.554 27.7586 198.59 27.3607 198.59C23.9601 198.59 20.9214 196.234 20.1472 192.821C20.0821 192.518 17.311 179.54 14.1493 163.631C9.88775 142.19 4.92444 115.435 4.92444 107.224C4.92444 77.1701 28.6051 56.1833 62.5018 56.1833L62.5163 56.1689Z" fill="#57D1E5"/>
<path d="M103.612 70.076C114.016 79.1002 120.094 91.9919 120.094 107.217C120.094 121.578 105.023 192.115 104.864 192.828C104.524 194.333 103.735 195.629 102.671 196.609C106.412 178.798 118.314 121.067 118.314 107.685C118.314 92.6905 112.953 79.7412 103.619 70.076" fill="#93E1EF"/>
<path d="M77.9275 78.2072C91.7396 78.2072 102.976 89.3921 102.976 103.141C102.976 116.89 91.7396 128.075 77.9275 128.075C64.1154 128.075 52.8791 116.89 52.8791 103.141C52.8791 89.3921 64.1154 78.2072 77.9275 78.2072Z" fill="#4D9BB6"/>
<path d="M80.4164 126.058C94.2503 126.058 105.465 114.895 105.465 101.124C105.465 87.3538 94.2503 76.1906 80.4164 76.1906C66.5825 76.1906 55.368 87.3538 55.368 101.124C55.368 114.895 66.5825 126.058 80.4164 126.058Z" fill="url(#paint0_linear_94_76)"/>
<path d="M95.8203 136.328C80.5901 138.539 64.6219 134.758 52.0398 125.957C50.2889 124.797 48.4945 127.318 50.202 128.571C56.8657 133.101 64.3904 136.357 72.2479 138.121C80.0981 139.893 88.2739 140.174 96.211 138.949C96.9418 138.834 97.441 138.157 97.3252 137.43C97.2167 136.71 96.5366 136.213 95.8131 136.313" fill="#4D9BB6"/>
<path d="M50.2817 130.12C50.7085 128.103 52.5463 126.533 54.5649 126.461C56.6776 126.31 56.5402 123.22 54.4202 123.263C52.6982 123.494 51.0993 124.401 49.985 125.64C49.03 126.555 46.9318 130.674 49.153 130.977C49.6956 131.02 50.1804 130.645 50.2889 130.127" fill="#4D9BB6"/>
<path d="M96.3268 135.204C81.0966 137.415 65.1284 133.634 52.5463 124.833C50.7953 123.674 49.001 126.195 50.7085 127.448C57.3722 131.978 64.8968 135.233 72.7543 136.998C80.6046 138.769 88.7804 139.05 96.7175 137.826C97.4482 137.711 97.9475 137.034 97.8317 136.306C97.7232 135.586 97.043 135.089 96.3195 135.19" fill="#3B2D55"/>
<path d="M50.7881 128.996C51.215 126.98 53.0527 125.41 55.0713 125.337C57.184 125.186 57.0466 122.097 54.9266 122.14C53.2047 122.37 51.6057 123.278 50.4914 124.516C49.5364 125.431 47.4382 129.551 49.6594 129.853C50.202 129.896 50.6868 129.522 50.7953 129.003" fill="#3B2D55"/>
<path d="M63.3196 101.492C63.6886 111.964 71.1988 117.502 75.9957 116.371C80.0113 115.428 80.5105 106.54 77.9999 104.207C76.3503 102.673 73.0727 102.262 73.0293 101.153C72.9931 100.051 76.2345 99.4031 77.7684 97.761C80.1126 95.2618 78.9911 86.432 74.9177 85.7622C70.0556 84.97 62.9506 91.0126 63.3196 101.484" fill="#3B2D55"/>
<path d="M195.564 114.697L141.891 89.0647C139.441 87.8947 136.502 88.9232 135.327 91.3618L99.4206 165.861C98.2453 168.299 99.2785 171.225 101.728 172.395L155.402 198.027C157.852 199.197 160.79 198.169 161.966 195.73L197.872 121.231C199.047 118.793 198.014 115.867 195.564 114.697Z" fill="#FAB533"/>
<path d="M158.035 193.203L115.912 173.087L110.363 154.067L139.853 92.8781L193.936 118.705L158.035 193.203Z" fill="white"/>
<path d="M115.962 173.109L110.362 154.059L122.38 159.8L115.962 173.109Z" fill="#E5E5E4"/>
<path d="M147.019 113.859L141.657 111.298L139.085 116.636L144.447 119.197L147.019 113.859Z" stroke="#3B2D55" stroke-width="2.45" stroke-linecap="round" stroke-linejoin="round"/>
<path d="M149.864 118.495L149.86 118.502C149.51 119.23 149.818 120.103 150.549 120.452L176.441 132.817C177.172 133.166 178.049 132.859 178.4 132.131L178.403 132.125C178.754 131.397 178.446 130.524 177.714 130.174L151.823 117.81C151.092 117.46 150.214 117.767 149.864 118.495Z" fill="#3B2D55"/>
<path d="M141.542 125.226L136.18 122.665L133.607 128.003L138.969 130.564L141.542 125.226Z" stroke="#3B2D55" stroke-width="2.45" stroke-linecap="round" stroke-linejoin="round"/>
<path d="M144.389 129.861L144.386 129.867C144.035 130.595 144.343 131.469 145.074 131.818L170.966 144.183C171.697 144.532 172.574 144.225 172.925 143.497L172.928 143.49C173.279 142.762 172.971 141.889 172.239 141.54L146.348 129.175C145.617 128.826 144.74 129.133 144.389 129.861Z" fill="#3B2D55"/>
<path d="M136.067 136.579L130.705 134.018L128.132 139.356L133.495 141.917L136.067 136.579Z" stroke="#3B2D55" stroke-width="2.45" stroke-linecap="round" stroke-linejoin="round"/>
<path d="M138.914 141.219L138.911 141.226C138.56 141.954 138.868 142.827 139.6 143.176L165.491 155.541C166.222 155.89 167.099 155.583 167.45 154.855L167.453 154.849C167.804 154.121 167.496 153.247 166.765 152.898L140.873 140.533C140.142 140.184 139.265 140.491 138.914 141.219Z" fill="#3B2D55"/>
<path d="M130.589 147.946L125.227 145.385L122.655 150.723L128.017 153.284L130.589 147.946Z" stroke="#3B2D55" stroke-width="2.45" stroke-linecap="round" stroke-linejoin="round"/>
<path d="M133.439 152.585L133.436 152.591C133.085 153.319 133.393 154.192 134.125 154.542L160.016 166.906C160.747 167.256 161.624 166.949 161.975 166.221L161.978 166.214C162.329 165.486 162.021 164.613 161.29 164.264L135.398 151.899C134.667 151.549 133.79 151.857 133.439 152.585Z" fill="#3B2D55"/>
<path d="M183.699 104.164L177.715 101.305C176.992 100.959 176.478 100.116 177.151 98.7118C177.151 98.719 177.136 98.7262 177.136 98.7406C178.424 95.867 177.194 92.4748 174.322 91.1064C171.457 89.7379 168.027 90.8975 166.58 93.6991V93.6847C166.551 93.7351 166.53 93.7856 166.501 93.836C166.501 93.836 166.501 93.836 166.501 93.8432C165.828 95.0891 164.902 95.1828 164.207 94.8515L158.223 91.9922C156.603 91.2144 154.656 91.8986 153.882 93.5119L150.402 100.728L181.752 115.702L185.233 108.485C186.014 106.872 185.327 104.934 183.706 104.164H183.699ZM170.965 98.078C169.952 97.5955 169.518 96.3783 170.01 95.37C170.494 94.3617 171.717 93.9296 172.73 94.4193C173.743 94.9091 174.177 96.119 173.685 97.1273C173.2 98.1356 171.978 98.5678 170.965 98.078Z" fill="#E5E5E4"/>
<path d="M151.059 99.3543L150.364 100.796L181.716 115.768L182.41 114.327L151.059 99.3543Z" fill="#3B2D55"/>
<path d="M141.199 113.361L142.161 116.083L151.031 112.979" stroke="#39B54A" stroke-width="3" stroke-linecap="round" stroke-linejoin="round"/>
<path d="M135.765 124.646L136.727 127.369L145.59 124.265" stroke="#39B54A" stroke-width="3" stroke-linecap="round" stroke-linejoin="round"/>
<path d="M3.76681 85.3016C2.29084 76.3278 3.78851 67.2676 7.73891 59.3958C8.44795 55.0529 10.235 49.9395 13.7296 46.5689C17.434 42.9967 24.0759 40.8073 29.1188 38.6971C31.7669 37.588 34.3498 36.6733 37.0558 36.126C40.1741 35.4922 43.6976 35.8235 46.8015 35.8883C59.8393 36.1476 72.2765 42.3773 80.2207 52.9716C80.2207 52.9716 94.7489 47.4332 97.8094 48.6863C99.0249 49.1833 100.863 52.525 100.863 52.525L1.3575 94.1673C1.3575 94.1673 -0.342761 90.5735 0.0624075 88.9674C0.467576 87.3614 3.76681 85.3016 3.76681 85.3016Z" fill="url(#paint1_linear_94_76)"/>
<path d="M31.1736 74.5201C30.7757 74.5201 30.3922 74.2824 30.233 73.8935C30.016 73.3749 30.262 72.7772 30.7829 72.5611L75.2508 53.958C75.7717 53.7419 76.3722 53.9868 76.5893 54.5053C76.8063 55.0239 76.5603 55.6217 76.0394 55.8377L31.5716 74.4408C31.4413 74.4985 31.3111 74.5201 31.1736 74.5201Z" fill="#F97100"/>
<path d="M52.8218 63.3068C52.4745 63.3068 52.1345 63.1339 51.9464 62.817C42.5767 47.4045 29.1119 39.5469 19.1924 43.6954C13.7008 45.9928 9.7721 51.5169 7.86199 59.5185C7.73176 60.0658 7.47853 60.0298 7.56535 59.4753C8.98346 50.595 12.8326 45.0782 19.0043 42.4998C29.8789 37.948 43.785 45.4743 53.6973 61.7655C53.9867 62.2481 53.8348 62.8747 53.35 63.1627C53.1836 63.2636 53.0027 63.3068 52.8218 63.3068Z" fill="#F97100"/>
<path d="M12.3913 56.2847C14.0482 53.1373 16.4358 50.3861 19.5542 49.0321C21.117 48.3983 22.7739 48.0094 24.4814 47.995C26.1889 47.9806 27.8964 48.3119 29.5605 48.8233C31.2246 49.3346 32.8164 50.1196 34.372 50.9623C35.8841 51.8842 37.4035 52.8277 38.7855 53.9584C41.5927 56.1766 44.1613 58.7262 46.5344 61.463C46.7153 61.6719 47.0264 61.6935 47.2362 61.5206C47.4316 61.355 47.4678 61.0597 47.3158 60.8508C45.1597 57.8692 42.678 55.0963 39.8346 52.6836C38.4382 51.452 36.9043 50.3717 35.3125 49.3634L34.0753 48.6792L33.4531 48.3335L32.8092 48.0382C32.375 47.8438 31.9482 47.6349 31.514 47.4549L30.1683 46.9723C28.345 46.3961 26.4349 46.0072 24.4669 46.0216C22.5062 46.0576 20.5454 46.5114 18.7655 47.3396C16.9929 48.1895 15.4446 49.4715 14.2363 50.9623C13.6285 51.7041 13.1003 52.5036 12.6518 53.339C12.1959 54.1673 11.8052 55.0243 11.4941 55.903C11.4001 56.1622 11.5375 56.4503 11.798 56.544C12.0368 56.6304 12.29 56.5224 12.4058 56.3063L12.3913 56.2847Z" fill="#F97100"/>
<path d="M53.4872 63.9692C53.1399 63.9692 52.2862 64.0485 52.1053 63.7316C42.9021 47.7428 29.1189 39.554 19.1994 43.6952C18.6785 43.9113 17.3906 43.6736 17.7451 43.2415C17.8754 43.083 18.2661 42.7661 18.787 42.5429L33.0983 36.6659C46.6933 31.4588 63.3417 38.7185 73.7025 54.8081C74.0064 55.2835 72.6172 55.2835 72.1397 55.586C71.6622 55.8884 71.0617 56.7167 70.7578 56.2413C60.9468 41.0016 45.4561 32.7119 33.6699 37.6382L26.4708 40.6487C35.7754 41.513 47.453 49.781 55.0573 62.2911C55.3467 62.7737 54.6955 63.141 54.218 63.4291C54.0516 63.5299 53.6754 63.9692 53.4945 63.9692H53.4872Z" fill="#F97100"/>
</g>
<defs>
<linearGradient id="paint0_linear_94_76" x1="55.3607" y1="101.124" x2="105.458" y2="101.124" gradientUnits="userSpaceOnUse">
<stop stop-color="white"/>
<stop offset="0.66" stop-color="white"/>
<stop offset="1" stop-color="white"/>
</linearGradient>
<linearGradient id="paint1_linear_94_76" x1="0.0045263" y1="64.9558" x2="100.87" y2="64.9558" gradientUnits="userSpaceOnUse">
<stop stop-color="#FA9B20"/>
<stop offset="1" stop-color="#FAAF2F"/>
</linearGradient>
<clipPath id="clip0_94_76">
<rect width="200" height="200" fill="white"/>
</clipPath>
</defs>
</svg>
