<svg xmlns="http://www.w3.org/2000/svg" viewBox="0 0 38 30"><defs><style>.cls-1{fill:#4d4d4d;}.cls-2,.cls-3{fill:none;stroke:#4d4d4d;stroke-linecap:round;stroke-linejoin:round;}.cls-3{stroke-width:1.11px;}</style></defs><g id="Calque_4" data-name="Calque 4"><path class="cls-1" d="M22.1,12H15.94A1.06,1.06,0,0,1,15,10.93h0a.93.93,0,0,1,.94-.93H22.1a.93.93,0,0,1,.94.93h0A1.06,1.06,0,0,1,22.1,12Z"/><polyline class="cls-2" points="13.44 4.49 9.51 4.49 9.51 28.49 28.51 28.49 28.51 10.67 28.51 4.49 24.5 4.49"/><polyline class="cls-3" points="13 3.49 8.5 3.49 8.42 29.59 29.5 29.59 29.5 3.39 25 3.39"/><line class="cls-2" x1="12.5" y1="18.38" x2="25.5" y2="18.38"/><line class="cls-2" x1="12.5" y1="15.49" x2="25.5" y2="15.49"/><line class="cls-2" x1="12.5" y1="21.43" x2="25.5" y2="21.43"/><line class="cls-2" x1="12.5" y1="24.47" x2="25.5" y2="24.47"/><rect class="cls-2" x="13.5" y="2.5" width="11" height="3.98"/><polygon class="cls-3" points="21.5 0.5 16.46 0.5 16.46 2.45 21.5 2.5 21.5 0.5"/></g></svg>
