<svg xmlns="http://www.w3.org/2000/svg" viewBox="0 0 21 19"><defs><style>.cls-1{fill:none;stroke:#4d4d4d;stroke-linecap:round;stroke-linejoin:round;}.cls-2{fill:#4d4d4d;}</style></defs><g id="Calque_4" data-name="Calque 4"><rect class="cls-1" x="2.5" y="2.5" width="13" height="16"/><path class="cls-1" d="M15.58,17.21H17.5V.5H4.5a2.34,2.34,0,0,0-2,2"/><path class="cls-2" d="M4.8,13.93a1,1,0,0,0,.75-.43,6,6,0,0,0,.52-1.08L8.94,5.35H9.3l2.88,6.79a8.92,8.92,0,0,0,.72,1.47.76.76,0,0,0,.68.32v.32H9.4v-.32a3.24,3.24,0,0,0,.83-.11c.13-.06.2-.19.2-.42a1.59,1.59,0,0,0-.1-.46c0-.12-.1-.27-.17-.44l-.33-.78H6.93c-.19.51-.31.85-.36,1a2.38,2.38,0,0,0-.17.73c0,.18.12.32.37.4a2.56,2.56,0,0,0,.66.08v.32H4.8Zm4.84-2.72-1.24-3H8.29l-1.16,3Z"/></g></svg>
