<svg width="17" height="17" viewBox="0 0 17 17" fill="none" xmlns="http://www.w3.org/2000/svg">
<rect width="17" height="17" rx="1" fill="#B3BAC5"/>
<path d="M13 8.5C13 9.05229 12.5523 9.5 12 9.5L5 9.5C4.44772 9.5 4 9.05228 4 8.5C4 7.94772 4.44772 7.5 5 7.5L12 7.5C12.5523 7.5 13 7.94772 13 8.5Z" fill="white"/>
<path d="M13 8.5C13 9.05229 12.5523 9.5 12 9.5L5 9.5C4.44772 9.5 4 9.05228 4 8.5C4 7.94772 4.44772 7.5 5 7.5L12 7.5C12.5523 7.5 13 7.94772 13 8.5Z" fill="white"/>
<path d="M13 8.5C13 9.05229 12.5523 9.5 12 9.5L5 9.5C4.44772 9.5 4 9.05228 4 8.5C4 7.94772 4.44772 7.5 5 7.5L12 7.5C12.5523 7.5 13 7.94772 13 8.5Z" fill="white"/>
<path d="M13 8.5C13 9.05229 12.5523 9.5 12 9.5L5 9.5C4.44772 9.5 4 9.05228 4 8.5C4 7.94772 4.44772 7.5 5 7.5L12 7.5C12.5523 7.5 13 7.94772 13 8.5Z" fill="white"/>
<path d="M13 8.5C13 9.05229 12.5523 9.5 12 9.5L5 9.5C4.44772 9.5 4 9.05228 4 8.5C4 7.94772 4.44772 7.5 5 7.5L12 7.5C12.5523 7.5 13 7.94772 13 8.5Z" fill="white"/>
</svg>
