<svg xmlns="http://www.w3.org/2000/svg" viewBox="0 0 25 25"><defs><style>.cls-1,.cls-2{fill:none;stroke:gray;stroke-miterlimit:10;}.cls-2{stroke-linecap:round;}</style></defs><title>icon-about-team</title><g id="Calque_4" data-name="Calque 4"><path class="cls-1" d="M4.66,9.81,2.63,11A2.08,2.08,0,0,0,1.5,12.83v7.81C1.69,21.75,2,22.17,3,22.11H3"/><line class="cls-1" x1="7.06" y1="9.94" x2="8.5" y2="10.88"/><line class="cls-2" x1="3.5" y1="18.5" x2="3.5" y2="23.84"/><line class="cls-2" x1="9.5" y1="18.5" x2="9.5" y2="23.84"/><line class="cls-2" x1="8.54" y1="18.42" x2="8.54" y2="23.75"/><line class="cls-2" x1="15.5" y1="18.5" x2="15.5" y2="23.84"/><line class="cls-2" x1="16.5" y1="18.5" x2="16.5" y2="23.84"/><line class="cls-2" x1="3.33" y1="20.53" x2="8.41" y2="20.53"/><path class="cls-2" d="M11.45,8.84l.06.06a1.65,1.65,0,0,0,2.34,0h0"/><path class="cls-1" d="M12.42,7.5h0A1.81,1.81,0,0,1,10.5,5.73V5A1.94,1.94,0,0,1,12.42,3h0A2.07,2.07,0,0,1,14.5,5v.77A2,2,0,0,1,12.42,7.5Z"/><path class="cls-1" d="M11.42,8.74,9.63,9.9A2.07,2.07,0,0,0,8.5,11.75v7.82A1.47,1.47,0,0,0,10,21"/><path class="cls-1" d="M13.75,9.18l2,.65c.7.35.76,1.06.76,1.84v7.9c0,.77-.23,1.24-1,1.24"/><line class="cls-2" x1="9.93" y1="19.5" x2="15.33" y2="19.5"/><path class="cls-1" d="M19.42,9.12h0A2.07,2.07,0,0,0,21.5,7.19V6.42A2.07,2.07,0,0,0,19.42,4.5h0A1.93,1.93,0,0,0,17.5,6.42v.77A1.94,1.94,0,0,0,19.42,9.12Z"/><path class="cls-1" d="M5.59,9.12h0A1.93,1.93,0,0,0,7.51,7.19V6.42A1.93,1.93,0,0,0,5.59,4.5h0A2.08,2.08,0,0,0,3.5,6.42v.77A2.08,2.08,0,0,0,5.59,9.12Z"/><path class="cls-1" d="M20.44,9.81l2,1.17a2.06,2.06,0,0,1,1.13,1.85v7.81c-.18,1.11-.47,1.53-1.47,1.47h0"/><line class="cls-1" x1="18.04" y1="9.94" x2="16.6" y2="10.87"/><line class="cls-2" x1="21.6" y1="18.5" x2="21.6" y2="23.84"/><line class="cls-2" x1="21.77" y1="20.53" x2="16.69" y2="20.53"/></g></svg>
