<svg xmlns="http://www.w3.org/2000/svg" viewBox="0 0 25 25"><defs><style>.cls-1{fill:none;stroke:gray;stroke-linecap:round;stroke-linejoin:round;}</style></defs><title>icon-overview</title><g id="Calque_4" data-name="Calque 4"><path class="cls-1" d="M22.61,3.45C22.61,5.06,18,6.5,12.5,6.5s-10-1.44-10-3S7,.5,12.5.5,22.61,1.83,22.61,3.45Z"/><path class="cls-1" d="M22.61,9.44c0,1.61-4.64,3.06-10.11,3.06s-10-1.45-10-3.06"/><path class="cls-1" d="M22.61,15.51c0,1.62-4.64,3-10.11,3s-10-1.37-10-3"/><path class="cls-1" d="M22.61,21.59c0,1.62-4.64,2.91-10.11,2.91s-10-1.29-10-2.91"/><line class="cls-1" x1="2.5" y1="21.47" x2="2.5" y2="3.45"/><line class="cls-1" x1="22.5" y1="21.47" x2="22.5" y2="3.45"/></g></svg>
