<svg xmlns="http://www.w3.org/2000/svg" viewBox="0 0 25 25"><defs><style>.cls-1,.cls-2,.cls-5{fill:none;}.cls-1,.cls-2,.cls-3,.cls-4,.cls-5,.cls-6,.cls-7{stroke:gray;}.cls-1{stroke-linecap:round;stroke-linejoin:round;}.cls-2,.cls-3,.cls-4,.cls-5,.cls-6,.cls-7{stroke-miterlimit:10;}.cls-2{stroke-width:0.98px;}.cls-3,.cls-4,.cls-6,.cls-7{fill:gray;}.cls-3{stroke-width:0.99px;}.cls-4{stroke-width:0.99px;}.cls-5{stroke-width:0.99px;}.cls-6{stroke-width:0.99px;}.cls-7{stroke-width:0.99px;}</style></defs><title>icon-architecture</title><g id="Calque_2" data-name="Calque 2"><path class="cls-1" d="M1.9,10.27a10.83,10.83,0,0,1,8.73-8.38"/><path class="cls-1" d="M10.51,23.08A10.79,10.79,0,0,1,1.77,14"/><path class="cls-1" d="M23.23,14a10.81,10.81,0,0,1-9,9.11"/><path class="cls-1" d="M14.27,1.88a10.81,10.81,0,0,1,8.83,8.37"/><circle class="cls-2" cx="12.25" cy="1.75" r="1.75"/><circle class="cls-2" cx="12.25" cy="22.75" r="1.75"/><circle class="cls-3" cx="4.92" cy="4.75" r="1.75"/><circle class="cls-4" cx="20.09" cy="19.91" r="1.75"/><circle class="cls-5" cx="1.75" cy="12.25" r="1.75"/><circle class="cls-5" cx="23.25" cy="12.25" r="1.75"/><circle class="cls-6" cx="4.75" cy="19.64" r="1.75"/><circle class="cls-7" cx="19.91" cy="4.48" r="1.75"/></g></svg>
