<svg id="Calque_1" data-name="Calque 1" xmlns="http://www.w3.org/2000/svg" viewBox="0 0 25 25"><defs><style>.cls-1{fill:none;stroke:gray;stroke-linecap:round;stroke-linejoin:round;}.cls-2{fill:gray;}</style></defs><title>icon-careers</title><path class="cls-1" d="M1.5,11.55v8c0,.56,1.07,2,2,2h18c.89,0,2-1.44,2-2v-8"/><path class="cls-1" d="M23.31,3.5H1.81c-.48,0-1.31.55-1.31,1v6l10,2a8.45,8.45,0,0,0,4,0l10-2v-6C24.5,4.05,23.78,3.5,23.31,3.5Z"/><path class="cls-1" d="M15.62,3.5v-1c0-.76-.61-1-1.38-1H10.79c-.76,0-1.38.24-1.38,1v1"/><rect class="cls-2" x="10" y="11" width="5" height="3.99" rx="0.55" ry="0.55"/></svg>
