<svg id="Layer_1" data-name="Layer 1" xmlns="http://www.w3.org/2000/svg" viewBox="10.8 45.47 284.32 200.88"><defs><style>.cls-1{fill:#3b2d55;}.cls-2{fill:#cddce2;}.cls-3{fill:#57d1e5;}.cls-4{fill:#fff;}.cls-5{fill:#7772af;}.cls-6,.cls-7{fill:none;stroke:#fff;stroke-linecap:round;stroke-width:2.94px;}.cls-6{stroke-linejoin:round;}.cls-7{stroke-miterlimit:10;}</style></defs><title>scylla-monitor</title><path class="cls-1" d="M155.7,240.48c-.79-1.77-4.61-3.24-8.72-3.37a4.63,4.63,0,0,0-3.52-1.3,4.9,4.9,0,0,0-3.35,1.12l-3.7-.1a4.57,4.57,0,0,0-3.53-1.31,4.89,4.89,0,0,0-3.36,1.12l-3.68-.1a4.58,4.58,0,0,0-3.54-1.32,4.85,4.85,0,0,0-3.37,1.14l-3.66-.1a4.56,4.56,0,0,0-3.55-1.34,4.84,4.84,0,0,0-3.38,1.15l-3.64-.1a4.56,4.56,0,0,0-3.55-1.34,4.84,4.84,0,0,0-3.4,1.16l-3.62-.1a4.53,4.53,0,0,0-3.56-1.36,4.83,4.83,0,0,0-3.41,1.17l-3.6-.09A4.5,4.5,0,0,0,80,234a4.8,4.8,0,0,0-3.42,1.18l-3.58-.1a4.5,4.5,0,0,0-3.58-1.38h-.16a24,24,0,0,1-6-10.2,13.4,13.4,0,0,1-.26-7.13l60.41,0A7,7,0,0,0,129,213.9a6.19,6.19,0,0,0,.94-5.79l-19.36-64.43a11.22,11.22,0,0,0-10.39-7.43H17.48a7,7,0,0,0-5.33,3.08,6.77,6.77,0,0,0-1,6.06L32.28,209c1.36,4.08,6.13,7.4,10.64,7.4H55a21.52,21.52,0,0,0,.66,9,31.07,31.07,0,0,0,4.44,9.36l-2.93-.07a26.06,26.06,0,0,0-12.73,3.35c-2.25,1.46-3.88,3.32-4.14,4.73a1.62,1.62,0,0,0,.26,1.32c1.06,1.4,5.42,2.23,9,2.23h96.29c3.56,0,8-.47,9.19-1.26S156.5,242.3,155.7,240.48ZM42.92,215.08Z"/><path class="cls-1" d="M295.11,115.39c0,13-7.27,24-17.23,27.54,3,35.13-3.5,72.26-11.47,92.88-2.71,7-8.44,10.74-14.6,9.52a13.19,13.19,0,0,1-2-.59,11.48,11.48,0,0,1-2.12.64,12.77,12.77,0,0,1-3.19.25l-.78-.09-.38,0h-.14l-.13,0-.16,0a10.87,10.87,0,0,1-1.37-.34l-.76-.24-.68-.29c-.45-.18-.86-.44-1.27-.65-.16-.09-.31-.2-.47-.3a12,12,0,0,1-3.63,1.62,12.69,12.69,0,0,1-3.16.41l-.78,0-.39,0h-.18l-.09,0-.16,0-.64-.1-.16,0-.2,0-.39-.09c-.25-.07-.52-.13-.76-.21l-.69-.25a12.79,12.79,0,0,1-1.3-.58c-.41-.22-.81-.46-1.19-.7s-.74-.52-1.06-.8-.42-.37-.62-.56a12.52,12.52,0,0,1-8.59,3.47h-.69l-.55-.05-.27,0-.34-.05-.68-.12c-.46-.08-.83-.22-1.25-.33s-.8-.3-1.2-.45a12.36,12.36,0,0,1-3.61-2.44c-.2.2-.4.38-.63.57a12.77,12.77,0,0,1-5,2.54,13.68,13.68,0,0,1-3,.36c-.23,0-.43,0-.7,0l-.84-.08a4.86,4.86,0,0,1-.82-.13c-.27-.06-.54-.1-.8-.17a13.65,13.65,0,0,1-3-1.26l-.59-.37a12.64,12.64,0,0,1-3.12,1.48,13.43,13.43,0,0,1-3,.52c-.24,0-.42,0-.71,0l-.86,0a6.69,6.69,0,0,1-.81-.09c-.27-.05-.54-.07-.81-.14a12.92,12.92,0,0,1-2.09-.64,12.32,12.32,0,0,1-4.48.83,12.52,12.52,0,0,1-12.24-10c0-.27-3.86-22.71-5.95-29.89-2.71-9.29-8-15-14.2-21.56-6.84-7.29-14.58-15.56-19.6-30.39a70,70,0,0,1-3.45-16.6c-.14.88-.25,1.77-.33,2.66-7.4-5.46-11.25-15.32-11.25-24.36,0-12.41,6.58-23,15.79-27a1.76,1.76,0,0,1-.1-.3,30.42,30.42,0,0,1,6.12-24.51c9.67-12.27,28.65-18.49,56.42-18.49h0c35.94,0,56.55,2.7,68.91,9,14.73,7.56,16.76,20.1,16.76,32.53h0C284.51,86.87,295.11,99.64,295.11,115.39Zm-18.06,19.73c7.77-.26,14-9.33,14-20.45,0-11.28-6.45-20.46-14.38-20.46a12.1,12.1,0,0,0-9.11,4.65,18.11,18.11,0,0,0-1.21,1.6,17.6,17.6,0,0,0-1.11,1.84,26.4,26.4,0,0,0-2.94,12.37c0,9.72,4.78,17.87,11.17,20a11.44,11.44,0,0,0,1.75.42,11.78,11.78,0,0,0,1.45.1Zm-13.89,99.44c7.8-20.18,14.15-56.42,11.33-90.75a20.21,20.21,0,0,1-3.41.29c-13.27,0-24-12.85-24-28.71,0-10.72,4.9-20,12.17-25C241.53,62,208.05,51.71,172.54,65c-39.28,14.7-58.94,51.53-46.76,87.57,4.77,14.12,11.92,21.75,18.83,29.13,6.21,6.62,12.07,12.88,15,23,2.15,7.36,5.88,29.3,6,30.23a9,9,0,0,0,9.21,7.18,12.56,12.56,0,0,1-3.31-5.51,5.73,5.73,0,0,1-.21-.84c0-.27-.13-.58-.16-.82l-.22-1.48c-.14-1-.28-2-.43-2.92-.28-1.93-.56-3.83-.83-5.68-.56-3.68-1-7.12-1.44-10.08-.82-5.9-1.31-9.84-1.31-9.84a1.16,1.16,0,0,1,2.29-.37s.13.62.33,1.73c.33,1.68.86,4.5,1.51,8,.52,2.94,1.17,6.35,1.8,10q.47,2.76,1,5.66c.17,1,.33,1.93.5,2.91l.26,1.47c0,.24.08.41.13.63a3.33,3.33,0,0,0,.16.6,9,9,0,0,0,2.63,4.12,8.58,8.58,0,0,0,1.53,1.1l.46.26a8.7,8.7,0,0,0,1.44.55,7,7,0,0,0,.79.2,5.62,5.62,0,0,0,.57.09c.19,0,.38.06.55.06l.33,0h.17c.17,0,.44,0,.64,0a9.49,9.49,0,0,0,2.15-.38,8.76,8.76,0,0,0,1.34-.55,13.16,13.16,0,0,1-1.72-2.74A12.82,12.82,0,0,1,185,236l-.09-.39v0l-.07-.43c0-.28-.08-.58-.12-.84l-.12-1.48c-.09-.93-.17-1.85-.25-2.77a.88.88,0,0,1,0-.16c-.18-1.95-.34-3.86-.51-5.7-.11-1.16-.21-2.28-.3-3.37-.2-2.43-.38-4.71-.55-6.75-.48-5.92-.75-9.88-.75-9.88a1.17,1.17,0,0,1,1.09-1.24,1.15,1.15,0,0,1,1.22,1s.09.63.24,1.74c.22,1.69.6,4.52,1,8.09.35,2.95.8,6.39,1.21,10.08,0,.23.06.47.08.7.19,1.62.39,3.29.58,5,.08.68.16,1.37.23,2.06,0,.29.07.58.11.87l.17,1.47.1.62,0,.31.08.3a9,9,0,0,0,1.92,3.7c.16.19.32.36.5.54a7,7,0,0,0,.82.72,12.32,12.32,0,0,0,1.1.73l.45.23a10.22,10.22,0,0,0,1.72.64,5.72,5.72,0,0,0,.57.11,2.67,2.67,0,0,0,.53.09l.51.06h.65a9.5,9.5,0,0,0,2.14-.26,9.16,9.16,0,0,0,3.52-1.79c.26-.22.49-.44.71-.66a11.35,11.35,0,0,1-.85-1.8,7.86,7.86,0,0,1-.38-1.16,13.33,13.33,0,0,1-.39-2.39c0-.19,0-.41,0-.59v-.51c0-.42,0-.83,0-1.24,0-2.1-.07-4.15-.1-6.11,0-2.71-.09-5.27-.11-7.62,0-4.39-.07-8-.06-10.6v-4a1.17,1.17,0,0,1,2.33-.07v0c0,.22.09,1.64.23,4,.16,2.56.34,6.2.55,10.58.18,3.5.33,7.48.51,11.73l.09,2.09c0,.38,0,.75,0,1.14l0,.51c0,.17,0,.3,0,.44a5.18,5.18,0,0,0,.11.87,5,5,0,0,0,.19.85s0,.1,0,.16a6.13,6.13,0,0,0,.24.68,8.6,8.6,0,0,0,.8,1.57,9,9,0,0,0,1.1,1.42,1.09,1.09,0,0,0,.11.1,8.65,8.65,0,0,0,2.84,1.94c.29.1.56.24.85.32s.6.18.86.21l.41.07.19,0,.28,0,.54,0h.41a8.91,8.91,0,0,0,6.37-2.64,1.13,1.13,0,0,0,.11-.11,8.54,8.54,0,0,0,1.12-1.42,8.88,8.88,0,0,0,.79-1.57c.09-.22.16-.46.23-.69s.17-.65.22-.94a5.42,5.42,0,0,0,.12-.94l0-.43,0-.51c0-.39,0-.76,0-1.14l.09-2.09c.17-4.25.33-8.23.5-11.73.22-4.38.4-8,.55-10.58.14-2.34.23-3.76.24-4v0a1.16,1.16,0,0,1,2.32.07v4c0,2.56,0,6.21-.06,10.6,0,2.35-.06,4.91-.1,7.62,0,2-.07,4-.1,6.11,0,.41,0,.82,0,1.24v.86l0,.25a8.42,8.42,0,0,1-.12,1.12,11.29,11.29,0,0,1-.63,2.42,12.31,12.31,0,0,1-.85,1.8,8.79,8.79,0,0,0,.7.66c.24.21.5.37.76.57s.55.34.84.5.6.3.93.4l.48.18c.16,0,.31.07.46.12l.24.06.11,0,.16,0,.64.1.16,0h.06l.28,0,.55,0a10.13,10.13,0,0,0,2.25-.29,8.11,8.11,0,0,0,1.72-.63,9.33,9.33,0,0,0,1.55-1,8,8,0,0,0,.83-.71,5,5,0,0,0,.49-.54,8.68,8.68,0,0,0,1-1.4c.11-.17.19-.36.29-.54s.18-.38.25-.57l.21-.58.15-.54a10.14,10.14,0,0,0,.23-1.3l.18-1.47c0-.29.06-.58.1-.87.08-.69.15-1.38.23-2.06.2-1.69.39-3.36.58-5,0-.23.06-.47.08-.7.41-3.69.87-7.13,1.22-10.08.44-3.56.81-6.39,1-8.09.14-1.11.23-1.74.23-1.74a1.16,1.16,0,0,1,2.31.24s-.26,4-.74,9.88c-.18,2-.35,4.32-.56,6.75-.09,1.09-.19,2.22-.3,3.37-.16,1.84-.33,3.75-.51,5.7,0,.05,0,.11,0,.16-.08.92-.17,1.84-.25,2.77l-.13,1.48,0,.18,0,.09,0,.18-.06.36,0,.38a.29.29,0,0,0,0,.09c0,.12-.06.23-.08.34l-.23.9-.29.81a5.28,5.28,0,0,1-.29.69l-.05.11c-.12.25-.24.52-.38.77a14.12,14.12,0,0,1-1.29,1.87,2.48,2.48,0,0,0,.37.17l.48.21.45.14a9.06,9.06,0,0,0,1.15.29l.13,0h.09l.27,0,.55.06h.81a7.16,7.16,0,0,0,1.45-.16c.27,0,.54-.12.8-.19a8.8,8.8,0,0,0,1.9-.82,9.06,9.06,0,0,0,1.53-1.09,9.83,9.83,0,0,0,1.6-1.86c.19-.37.43-.71.59-1.1.07-.19.17-.38.23-.56l.18-.54A3.68,3.68,0,0,0,254,235l.08-.37,0-.18h0l0-.08.26-1.47c.16-1,.33-1.95.5-2.91q.49-2.89,1-5.66c.63-3.67,1.27-7.08,1.79-10,.65-3.54,1.18-6.36,1.51-8l.33-1.73a1.17,1.17,0,0,1,2.3.37s-.5,3.94-1.32,9.85c-.42,3-.88,6.39-1.43,10.07-.27,1.85-.56,3.75-.84,5.68-.14,1-.28,2-.43,2.93l-.21,1.47,0,.09,0,.18,0,.18-.08.37a6.33,6.33,0,0,1-.18.77l-.28.89c-.1.29-.22.54-.33.81a13.1,13.1,0,0,1-.8,1.53,13.7,13.7,0,0,1-1.88,2.33C258.51,242.18,261.73,238.26,263.16,234.56Zm2-147a2.9,2.9,0,0,1-.13-.89c0-14.6-3.61-21.88-13.3-26.85-11.24-5.77-31.6-8.34-66-8.34h0c-25.35,0-43.13,5.56-51.41,16.06a24.07,24.07,0,0,0-4.92,19.07.86.86,0,0,0,0,.17,20.74,20.74,0,0,1,2.09-.11,6,6,0,0,1,3.09.47c-1.16-.61-3.9,4.36-6.45,9.85,9.08-15.72,24.3-28.17,43.22-35.25,37.23-13.94,72.38-3.08,90.94,26.94A20.56,20.56,0,0,1,265.12,87.56Z"/><path class="cls-2" d="M291.08,114.67c0,11.12-6.26,20.19-14,20.45l-.35,0a11.78,11.78,0,0,1-1.45-.1,11.44,11.44,0,0,1-1.75-.42c-6.39-2.08-11.17-10.23-11.17-20a26.4,26.4,0,0,1,2.94-12.37,17.6,17.6,0,0,1,1.11-1.84,18.11,18.11,0,0,1,1.21-1.6,12.1,12.1,0,0,1,9.11-4.65C284.63,94.21,291.08,103.39,291.08,114.67Z"/><path class="cls-3" d="M274.49,143.81c2.82,34.33-3.53,70.57-11.33,90.75-1.43,3.7-4.65,7.62-9.26,7.5a13.7,13.7,0,0,0,1.88-2.33,13.1,13.1,0,0,0,.8-1.53c.11-.27.23-.52.33-.81l.28-.89a6.33,6.33,0,0,0,.18-.77l.08-.37,0-.18,0-.18,0-.09.21-1.47c.15-1,.29-2,.43-2.93.28-1.93.57-3.83.84-5.68.55-3.68,1-7.12,1.43-10.07.82-5.91,1.32-9.85,1.32-9.85a1.17,1.17,0,0,0-2.3-.37l-.33,1.73c-.33,1.68-.86,4.5-1.51,8-.52,2.93-1.16,6.34-1.79,10q-.48,2.76-1,5.66c-.17,1-.34,1.94-.5,2.91l-.26,1.47,0,.08h0l0,.18L254,235a3.68,3.68,0,0,1-.17.66l-.18.54c-.06.18-.16.37-.23.56-.16.39-.4.73-.59,1.1a9.83,9.83,0,0,1-1.6,1.86,9.06,9.06,0,0,1-1.53,1.09,8.8,8.8,0,0,1-1.9.82c-.26.07-.53.14-.8.19a7.16,7.16,0,0,1-1.45.16h-.81l-.55-.06-.27,0h-.09l-.13,0a9.06,9.06,0,0,1-1.15-.29l-.45-.14-.48-.21a2.48,2.48,0,0,1-.37-.17,14.12,14.12,0,0,0,1.29-1.87c.14-.25.26-.52.38-.77l.05-.11a5.28,5.28,0,0,0,.29-.69l.29-.81.23-.9c0-.11,0-.22.08-.34a.29.29,0,0,1,0-.09l0-.38.06-.36,0-.18,0-.09,0-.18.13-1.48c.08-.93.17-1.85.25-2.77,0,0,0-.11,0-.16.18-1.95.35-3.86.51-5.7.11-1.15.21-2.28.3-3.37.21-2.43.38-4.71.56-6.75.48-5.92.74-9.88.74-9.88a1.16,1.16,0,0,0-2.31-.24s-.09.63-.23,1.74c-.23,1.7-.6,4.53-1,8.09-.35,2.95-.81,6.39-1.22,10.08,0,.23-.05.47-.08.7-.19,1.62-.38,3.29-.58,5-.08.68-.15,1.37-.23,2.06,0,.29-.07.58-.1.87l-.18,1.47a10.14,10.14,0,0,1-.23,1.3l-.15.54-.21.58c-.07.19-.16.38-.25.57s-.18.37-.29.54a8.68,8.68,0,0,1-1,1.4,5,5,0,0,1-.49.54,8,8,0,0,1-.83.71,9.33,9.33,0,0,1-1.55,1,8.11,8.11,0,0,1-1.72.63,10.13,10.13,0,0,1-2.25.29l-.55,0-.28,0h-.06l-.16,0-.64-.1-.16,0-.11,0-.24-.06c-.15-.05-.3-.07-.46-.12l-.48-.18c-.33-.1-.62-.28-.93-.4s-.57-.33-.84-.5-.52-.36-.76-.57a8.79,8.79,0,0,1-.7-.66,12.31,12.31,0,0,0,.85-1.8,11.29,11.29,0,0,0,.63-2.42,8.42,8.42,0,0,0,.12-1.12l0-.25v-.86c0-.42,0-.83,0-1.24,0-2.1.07-4.15.1-6.11,0-2.71.08-5.27.1-7.62,0-4.39.07-8,.06-10.6v-4a1.16,1.16,0,0,0-2.32-.07v0c0,.22-.1,1.64-.24,4-.15,2.56-.33,6.2-.55,10.58-.17,3.5-.33,7.48-.5,11.73l-.09,2.09c0,.38,0,.75,0,1.14l0,.51,0,.43a5.42,5.42,0,0,1-.12.94c-.05.29-.13.62-.22.94s-.14.47-.23.69a8.88,8.88,0,0,1-.79,1.57,8.54,8.54,0,0,1-1.12,1.42,1.13,1.13,0,0,1-.11.11,8.91,8.91,0,0,1-6.37,2.64H214l-.54,0-.28,0-.19,0-.41-.07c-.26,0-.57-.15-.86-.21s-.56-.22-.85-.32a8.65,8.65,0,0,1-2.84-1.94,1.09,1.09,0,0,1-.11-.1,9,9,0,0,1-1.1-1.42,8.6,8.6,0,0,1-.8-1.57,6.13,6.13,0,0,1-.24-.68c0-.06,0-.11,0-.16a5,5,0,0,1-.19-.85,5.18,5.18,0,0,1-.11-.87c0-.14,0-.27,0-.44l0-.51c0-.39,0-.76,0-1.14l-.09-2.09c-.18-4.25-.33-8.23-.51-11.73-.21-4.38-.39-8-.55-10.58-.14-2.34-.22-3.76-.23-4v0a1.17,1.17,0,0,0-2.33.07v4c0,2.56,0,6.21.06,10.6,0,2.35.06,4.91.11,7.62,0,2,.06,4,.1,6.11,0,.41,0,.82,0,1.24v.51c0,.18,0,.4,0,.59a13.33,13.33,0,0,0,.39,2.39,7.86,7.86,0,0,0,.38,1.16,11.35,11.35,0,0,0,.85,1.8c-.22.22-.45.44-.71.66a9.16,9.16,0,0,1-3.52,1.79,9.5,9.5,0,0,1-2.14.26h-.65l-.51-.06a2.67,2.67,0,0,1-.53-.09,5.72,5.72,0,0,1-.57-.11,10.22,10.22,0,0,1-1.72-.64l-.45-.23a12.32,12.32,0,0,1-1.1-.73,7,7,0,0,1-.82-.72c-.18-.18-.34-.35-.5-.54a9,9,0,0,1-1.92-3.7l-.08-.3,0-.31-.1-.62-.17-1.47c0-.29-.07-.58-.11-.87-.07-.69-.15-1.38-.23-2.06-.19-1.69-.39-3.36-.58-5,0-.23-.05-.47-.08-.7-.41-3.69-.86-7.13-1.21-10.08-.44-3.57-.82-6.4-1-8.09-.15-1.11-.24-1.74-.24-1.74a1.15,1.15,0,0,0-1.22-1,1.17,1.17,0,0,0-1.09,1.24s.27,4,.75,9.88c.17,2,.35,4.32.55,6.75.09,1.09.19,2.21.3,3.37.17,1.84.33,3.75.51,5.7a.88.88,0,0,0,0,.16c.08.92.16,1.84.25,2.77l.12,1.48c0,.26.08.56.12.84l.07.43v0l.09.39a12.82,12.82,0,0,0,.8,2.33,13.16,13.16,0,0,0,1.72,2.74,8.76,8.76,0,0,1-1.34.55A9.49,9.49,0,0,1,184,242c-.2,0-.47,0-.64,0h-.17l-.33,0c-.17,0-.36,0-.55-.06a5.62,5.62,0,0,1-.57-.09,7,7,0,0,1-.79-.2,8.7,8.7,0,0,1-1.44-.55l-.46-.26a8.58,8.58,0,0,1-1.53-1.1,9,9,0,0,1-2.63-4.12,3.33,3.33,0,0,1-.16-.6c0-.22-.09-.39-.13-.63l-.26-1.47c-.17-1-.33-1.95-.5-2.91q-.51-2.89-1-5.66c-.63-3.67-1.28-7.08-1.8-10-.65-3.53-1.18-6.35-1.51-8-.2-1.11-.33-1.73-.33-1.73a1.16,1.16,0,0,0-2.29.37s.49,3.94,1.31,9.84c.43,3,.88,6.4,1.44,10.08.27,1.85.55,3.75.83,5.68.15,1,.29,2,.43,2.92l.22,1.48c0,.24.11.55.16.82a5.73,5.73,0,0,0,.21.84,12.56,12.56,0,0,0,3.31,5.51,9,9,0,0,1-9.21-7.18c-.16-.93-3.89-22.87-6-30.23-2.94-10.09-8.8-16.35-15-23-6.91-7.38-14.06-15-18.83-29.13-12.18-36,7.48-72.87,46.76-87.57,35.51-13.29,69-3,86.69,25.41-7.27,4.93-12.17,14.26-12.17,25,0,15.86,10.75,28.71,24,28.71A20.21,20.21,0,0,0,274.49,143.81Zm-47.32,15.6a7.18,7.18,0,0,0-.78-5.68,12.29,12.29,0,0,0-7.43-5.61,29.94,29.94,0,0,0-.91-3.26c-.21-.62-.39-1.1-.51-1.43l-.2-.5a1.74,1.74,0,0,0-3.26,1.22v0l.16.46c.11.29.26.73.42,1.29a33.1,33.1,0,0,1,1,4.72c.14,1,.26,2.07.32,3.22a31.12,31.12,0,0,1,0,3.6,29.9,29.9,0,0,1-.56,3.79,25.11,25.11,0,0,1-1.16,3.76,20.7,20.7,0,0,1-1.8,3.47,18.45,18.45,0,0,1-2.36,2.93,16.27,16.27,0,0,1-2.72,2.21,16.65,16.65,0,0,1-2.8,1.45,18.6,18.6,0,0,1-4.63,1.2c-.59.07-1,.11-1.35.12l-.51,0a1.16,1.16,0,0,0,.07,2.32h.51c.3,0,.87,0,1.51,0a20.52,20.52,0,0,0,4.68-.86,1.46,1.46,0,0,0,.42.4,15.51,15.51,0,0,0,7.49,2.09,8.25,8.25,0,0,0,2-.23,4,4,0,0,0,2.68-1.8,5.53,5.53,0,0,0,.59-4.36,7.68,7.68,0,0,0-2.76-4,23.62,23.62,0,0,0,2-3.62,25.8,25.8,0,0,0,1.11-3c.52,0,1.06,0,1.62,0C222.94,163.38,226.07,162.77,227.17,159.41Zm-38,9a35.4,35.4,0,0,0-21.82-63.3,35.4,35.4,0,1,0,21.82,63.3Z"/><path class="cls-1" d="M226.39,153.73a7.18,7.18,0,0,1,.78,5.68c-1.1,3.36-4.23,4-7.12,4-.56,0-1.1,0-1.62,0a25.8,25.8,0,0,1-1.11,3,23.62,23.62,0,0,1-2,3.62,7.68,7.68,0,0,1,2.76,4,5.53,5.53,0,0,1-.59,4.36,4,4,0,0,1-2.68,1.8,8.25,8.25,0,0,1-2,.23,15.51,15.51,0,0,1-7.49-2.09,1.46,1.46,0,0,1-.42-.4,20.52,20.52,0,0,1-4.68.86c-.64,0-1.21.06-1.51,0h-.51a1.16,1.16,0,0,1-.07-2.32l.51,0c.35,0,.76,0,1.35-.12a18.6,18.6,0,0,0,4.63-1.2,16.65,16.65,0,0,0,2.8-1.45,16.27,16.27,0,0,0,2.72-2.21,18.45,18.45,0,0,0,2.36-2.93,20.7,20.7,0,0,0,1.8-3.47,25.11,25.11,0,0,0,1.16-3.76,29.9,29.9,0,0,0,.56-3.79,31.12,31.12,0,0,0,0-3.6c-.06-1.15-.18-2.22-.32-3.22a33.1,33.1,0,0,0-1-4.72c-.16-.56-.31-1-.42-1.29l-.16-.46v0a1.74,1.74,0,0,1,3.26-1.22l.2.5c.12.33.3.81.51,1.43a29.94,29.94,0,0,1,.91,3.26A12.29,12.29,0,0,1,226.39,153.73Zm-2.52,4.59a3.88,3.88,0,0,0-.53-2.9,8.3,8.3,0,0,0-3.77-3.32,32.85,32.85,0,0,1,0,5.68c-.06.7-.16,1.39-.28,2.09C222.28,160,223.47,159.54,223.87,158.32ZM215,176.82a2.69,2.69,0,0,0,.27-2.12,4.88,4.88,0,0,0-1.73-2.45c-.43.48-.87.94-1.34,1.37a19.43,19.43,0,0,1-3.32,2.47l-.69.38a11,11,0,0,0,5.92.82A1.49,1.49,0,0,0,215,176.82Z"/><path class="cls-4" d="M223.34,155.42a3.88,3.88,0,0,1,.53,2.9c-.4,1.22-1.59,1.65-4.63,1.55.12-.7.22-1.39.28-2.09a32.85,32.85,0,0,0,0-5.68A8.3,8.3,0,0,1,223.34,155.42Z"/><path class="cls-4" d="M215.28,174.7a2.69,2.69,0,0,1-.27,2.12,1.49,1.49,0,0,1-.89.47,11,11,0,0,1-5.92-.82l.69-.38a19.43,19.43,0,0,0,3.32-2.47c.47-.43.91-.89,1.34-1.37A4.88,4.88,0,0,1,215.28,174.7Z"/><path class="cls-1" d="M195.24,118.7a35.45,35.45,0,0,1-6.1,49.69,35.4,35.4,0,1,1,6.1-49.69ZM187,165.64a31.92,31.92,0,0,0-19.67-57.07A31.92,31.92,0,1,0,187,165.64Z"/><path class="cls-4" d="M192.5,120.84a32,32,0,0,1-5.51,44.8,31.92,31.92,0,1,1,5.51-44.8Z"/><path class="cls-1" d="M164.31,147.14c4.61,1.71,8.87,13.8,4.08,17.28-5.72,4.14-18.73.91-25-12.81s-.22-25.67,6.65-27.3c5.76-1.36,12.13,9.77,10.41,14.38-1.13,3-5.06,5.68-4.4,7.12S161.27,146,164.31,147.14Z"/><path class="cls-5" d="M20,140.76h82.07a3.38,3.38,0,0,1,3.24,2.42l18.92,63.49A3.39,3.39,0,0,1,121,211l-79.93-.15a3.38,3.38,0,0,1-3.2-2.31L16.83,145.21A3.38,3.38,0,0,1,20,140.76Z"/><path class="cls-6" d="M73.94,167.58H63.49a.67.67,0,0,0-.67.91l7.43,26.57H82.39l-7.27-26.57A1.31,1.31,0,0,0,73.94,167.58Z"/><path class="cls-6" d="M59,179.5H48.64a.66.66,0,0,0-.66.91l4.22,14.65H64.34l-4.13-14.65A1.31,1.31,0,0,0,59,179.5Z"/><path class="cls-6" d="M87.59,150.18H77.06a.69.69,0,0,0-.69.91l11.93,44h12.14l-11.67-44A1.3,1.3,0,0,0,87.59,150.18Z"/><line class="cls-7" x1="105.77" y1="201.58" x2="49.7" y2="201.58"/></svg>
