<svg id="Layer_1" data-name="Layer 1" xmlns="http://www.w3.org/2000/svg" viewBox="1.38 31.22 320.87 228.37"><defs><style>.cls-1{fill:#f2f2f2;}.cls-2{fill:#e5e5e4;}.cls-3{fill:#d2d2d2;}.cls-4,.cls-5,.cls-7{fill:none;}.cls-4,.cls-5,.cls-6,.cls-7{stroke:#3b2d55;stroke-miterlimit:10;}.cls-4,.cls-7{stroke-linecap:round;}.cls-4{stroke-width:2.91px;}.cls-5{stroke-width:2.49px;}.cls-6,.cls-8{fill:#3b2d55;}.cls-6{stroke-width:1.34px;}.cls-7{stroke-width:2.5px;}.cls-9{fill:#cddce2;}.cls-10{fill:#57d1e5;}.cls-11{fill:#fff;}</style></defs><title>scylla-enterprise</title><polygon class="cls-1" points="48.88 244.7 17.23 244.7 17.23 153.99 48.88 136.54 48.88 244.7"/><polygon class="cls-2" points="48.84 244.7 64.98 244.7 65.52 145.74 48.84 136.54 48.84 244.7"/><polygon class="cls-2" points="135.1 243.31 166.75 243.31 166.75 153.99 135.1 136.54 135.1 243.31"/><polygon class="cls-3" points="135.14 244.7 119 244.7 118.46 145.74 135.14 136.54 135.14 244.7"/><polygon class="cls-3" points="65.32 113.39 65.32 243.06 91.82 243.06 91.82 95.64 65.32 113.39"/><polygon class="cls-2" points="118.33 113.39 118.33 243.06 91.82 243.06 91.82 95.64 118.33 113.39"/><polyline class="cls-4" points="91.67 243.58 65.17 243.58 65.17 113.31 91.67 95.45"/><polyline class="cls-4" points="65.22 145.49 48.84 136.39 17.41 153.59 17.41 243.58 66.05 243.58"/><polyline class="cls-4" points="89.85 243.58 118.17 243.58 118.17 113.31 91.67 95.45"/><polyline class="cls-4" points="118.83 145.49 135.2 136.39 166.63 153.59 166.63 243.58 118 243.58"/><line class="cls-5" x1="91.75" y1="95.52" x2="91.75" y2="244.57"/><polygon class="cls-6" points="16.92 167.08 17.74 168.89 44.59 156.71 44.59 154.53 16.92 167.08"/><polygon class="cls-6" points="17.02 182.43 17.64 184.31 44.59 175.38 44.59 173.29 17.02 182.43"/><polygon class="cls-6" points="17.12 197.45 17.54 199.39 44.59 193.57 44.59 191.54 17.12 197.45"/><polygon class="cls-6" points="17.22 212.16 17.44 214.13 44.59 211.13 44.59 209.13 17.22 212.16"/><rect class="cls-6" x="17.66" y="226.38" width="26.93" height="1.99"/><line class="cls-7" x1="73.67" y1="121.04" x2="73.67" y2="234.06"/><line class="cls-7" x1="81.94" y1="116.08" x2="81.94" y2="234.06"/><line class="cls-7" x1="109.65" y1="121.04" x2="109.65" y2="234.06"/><line class="cls-7" x1="101.38" y1="116.08" x2="101.38" y2="234.06"/><polygon class="cls-6" points="154.31 209.08 156.3 209.3 156.3 199.81 154.31 199.38 154.31 209.08"/><polygon class="cls-6" points="154.31 183.3 154.31 193.29 156.3 193.72 156.3 183.95 154.31 183.3"/><polygon class="cls-6" points="154.31 224.39 156.3 224.39 156.3 215.29 154.31 215.07 154.31 224.39"/><polygon class="cls-6" points="154.31 177.02 156.3 177.68 156.3 167.76 154.31 166.86 154.31 177.02"/><polygon class="cls-6" points="148.02 164.01 146.04 163.11 146.04 174.28 148.02 174.94 148.02 164.01"/><polygon class="cls-6" points="148.02 181.21 146.04 180.56 146.04 191.51 148.02 191.94 148.02 181.21"/><polygon class="cls-6" points="148.02 214.38 146.04 214.16 146.04 224.39 148.02 224.39 148.02 214.38"/><polygon class="cls-6" points="148.02 198.03 146.04 197.6 146.04 208.16 148.02 208.38 148.02 198.03"/><path class="cls-8" d="M322.22,105.42c0,12.61-6.42,23.43-15.57,28.05,2.76,6.57,6.83,20.41-2,31.07-3.11,3.74-7.61,6.07-12.54,7.49-5.62,30-12.12,60.56-12.6,62.81A13.26,13.26,0,0,1,264.4,245a12.77,12.77,0,0,1-3.27-1,4.13,4.13,0,0,1-.53.24c-.28.11-.55.23-.83.32a12.69,12.69,0,0,1-1.69.43,12.54,12.54,0,0,1-3.39.21c-.28,0-.55-.06-.82-.09l-.41,0-.1,0h-.05l-.14,0-.17,0a13.05,13.05,0,0,1-1.44-.38l-.8-.27-.71-.32a13.1,13.1,0,0,1-1.34-.72c-.44-.25-.82-.55-1.22-.83,0,0-.05-.05-.08-.06a13.29,13.29,0,0,1-4.94,2.44,12.92,12.92,0,0,1-3.36.4l-.82-.05-.42,0h-.1l-.17,0-.18,0-.68-.11-.16,0-.21,0-.42-.11-.81-.22-.72-.27a14.48,14.48,0,0,1-1.38-.63c-.44-.24-.85-.49-1.26-.75s-.77-.56-1.11-.86a13.19,13.19,0,0,1-1.8-1.88c-.24.29-.47.58-.72.85a13.28,13.28,0,0,1-9.62,4.19h-.73l-.58,0-.29,0-.36-.06-.72-.13a13.62,13.62,0,0,1-1.33-.35c-.43-.13-.85-.31-1.27-.47a13.32,13.32,0,0,1-4.35-3.09c-.25-.27-.48-.56-.71-.85a13.28,13.28,0,0,1-1.81,1.88,13.51,13.51,0,0,1-5.23,2.73,14,14,0,0,1-3.22.42h-.73l-.91-.08a5.87,5.87,0,0,1-.87-.13c-.27-.06-.56-.1-.84-.18a14.08,14.08,0,0,1-3.24-1.3,14.59,14.59,0,0,1-1.7-1.16,12.94,12.94,0,0,1-7.28,2.82l-.36,0a2.4,2.4,0,0,1-.39,0h-.91a7.93,7.93,0,0,1-.88-.09,8.32,8.32,0,0,1-.85-.13,13.69,13.69,0,0,1-3.06-1,12.7,12.7,0,0,1-3.26,1,13.06,13.06,0,0,1-2.14.18,13.28,13.28,0,0,1-12.92-10.35c-.7-3.32-14.43-67.89-19.24-101.68-9.88-5.1-15.06-17-15.06-27.76,0-13.15,7-24.35,16.74-28.61,0-.11-.08-.21-.1-.32a32.23,32.23,0,0,1,6.49-26c10.25-13,30.37-19.6,59.8-19.6h0c38.1,0,59.95,2.87,73,9.59,15.62,8,17.77,21.3,17.77,34.48h0C311,75.18,322.22,88.73,322.22,105.42Zm-4.27-.76c0-12-6.84-21.69-15.24-21.69a12.34,12.34,0,0,0-8.64,3.83c-.46.46-.9,1-1.33,1.47a19.92,19.92,0,0,0-1.22,1.7,27.2,27.2,0,0,0-4,14.69c0,8.6,3.54,16,8.64,19.56a13.33,13.33,0,0,0,1.75,1,10.73,10.73,0,0,0,1.78.69,10.86,10.86,0,0,0,3.07.45C311.11,126.36,318,116.63,318,104.66Zm-17.13,56.73c7.22-8.67,3.55-20.65,1.2-26.19a21.89,21.89,0,0,1-3.71.59c-1.33,8.93-3.19,19.69-5.23,30.77A18.27,18.27,0,0,0,300.82,161.39Zm-11.73,6.38c2.14-11.53,4.1-22.78,5.49-32-13.05-1.31-23.3-14.38-23.3-30.32,0-11.84,5.66-22.09,13.91-27.13C271.94,59,248.1,47.14,218.52,47.14c-46,0-78.12,28.59-78.12,69.51,0,19.61,20.59,116.44,20.8,117.42a9.54,9.54,0,0,0,10.85,7.32h0a13,13,0,0,1-1.79-2.2,13.26,13.26,0,0,1-1.54-3.33,8.93,8.93,0,0,1-.23-.89l-.1-.45-.05-.22,0-.2-.26-1.55-.51-3.1c-.34-2-.67-4.06-1-6-.66-3.9-1.21-7.54-1.71-10.67-1-6.24-1.58-10.42-1.58-10.42a1.23,1.23,0,0,1,2.43-.43l.39,1.83c.37,1.78,1,4.75,1.74,8.49.61,3.11,1.36,6.72,2.08,10.6q.57,2.92,1.15,6c.2,1,.4,2.05.59,3.08l.3,1.54,0,.2,0,.16.08.32c.06.21.09.44.17.64a9.76,9.76,0,0,0,2.86,4.34,10.61,10.61,0,0,0,.85.65,12,12,0,0,0,1.29.75,5,5,0,0,0,.48.21,11,11,0,0,0,1.89.56l.21,0,.4,0a4.13,4.13,0,0,0,.58.05l.54,0a1.81,1.81,0,0,0,.32,0l.36,0a9.91,9.91,0,0,0,2.27-.43A9.24,9.24,0,0,0,187,239.6a13.31,13.31,0,0,1-2-4.45,8.79,8.79,0,0,1-.19-.89c0-.3-.09-.61-.13-.9l-.16-1.56c-.05-.56-.11-1.11-.16-1.66s-.09-1-.14-1.45c-.21-2.06-.41-4.08-.61-6,0-.48-.09-1-.14-1.43-.33-3.38-.6-6.53-.86-9.29-.57-6.27-.9-10.46-.9-10.46a1.23,1.23,0,0,1,2.45-.28s.1.67.27,1.84c.25,1.8.68,4.8,1.18,8.57.41,3.12.92,6.76,1.4,10.67.12.95.24,1.92.36,2.89s.26,2.08.4,3.13c.07.61.15,1.23.22,1.85.06.42.11.83.16,1.25l.19,1.56.12.66a4.69,4.69,0,0,0,.14.65,9,9,0,0,0,1,2.48,9.37,9.37,0,0,0,1.23,1.64,3.61,3.61,0,0,0,.33.35,8.89,8.89,0,0,0,1.11.92c.31.21.62.41.94.6a9.92,9.92,0,0,0,2.32.89c.19.05.4.08.59.12a4.44,4.44,0,0,0,.57.09l.53.05h.7a10.69,10.69,0,0,0,2.27-.29,9.69,9.69,0,0,0,5.92-4.61,7.9,7.9,0,0,1-.35-1.11,10.9,10.9,0,0,1-.28-1.26,10.72,10.72,0,0,1-.14-1.27c0-.21,0-.44,0-.63v-.54c0-.53,0-1,0-1.56q0-1.68-.06-3.3c-.06-4-.12-7.69-.15-11,0-4.64-.07-8.52-.06-11.22v-4.27a1.23,1.23,0,0,1,2.46-.06v0c0,.23.1,1.73.25,4.22.16,2.7.36,6.57.58,11.21.2,4.09.38,8.78.6,13.82,0,.19,0,.38,0,.58s0,.64,0,1c0,.16,0,.32,0,.49l0,.54c0,.18,0,.31,0,.47s0,.41.07.62a2.54,2.54,0,0,0,0,.29,7.06,7.06,0,0,0,.21.91,6.48,6.48,0,0,0,.29.88,11.94,11.94,0,0,0,.6,1.25,10.21,10.21,0,0,0,1.42,1.93,9.36,9.36,0,0,0,3.13,2.17c.3.1.59.24.9.32a8.67,8.67,0,0,0,.91.23l.42.08.22,0,.29,0,.58,0h.43a9.43,9.43,0,0,0,6.87-2.91,9.88,9.88,0,0,0,1.43-1.92,10.15,10.15,0,0,0,.59-1.25,8.2,8.2,0,0,0,.48-1.73,1.22,1.22,0,0,0,.06-.3c0-.22,0-.47.06-.7l0-.45,0-.54c0-.17,0-.33,0-.5,0-.33,0-.65,0-1s0-.45,0-.66c.21-5,.38-9.67.59-13.74.22-4.64.41-8.51.58-11.21.15-2.49.23-4,.24-4.22v0a1.23,1.23,0,0,1,2.46.06v4.27c0,2.7,0,6.58-.06,11.22,0,3.32-.1,7-.16,11,0,1.08,0,2.18-.06,3.29,0,.52,0,1,0,1.56v.91l0,.27a8.25,8.25,0,0,1-.13,1.19,11.38,11.38,0,0,1-.61,2.43,10.11,10.11,0,0,0,2.2,2.68c.24.22.53.4.8.62s.57.36.89.53a8.8,8.8,0,0,0,1,.44l.51.19.49.13.24.07.12,0,.17,0,.68.11.17,0h.36l.58,0a10.26,10.26,0,0,0,2.39-.28,9.2,9.2,0,0,0,3.25-1.49,11,11,0,0,0,1.12-.92,3.59,3.59,0,0,0,.32-.36,10.92,10.92,0,0,0,1.25-1.62l0-.06c.11-.19.2-.39.3-.58a2.69,2.69,0,0,0,.27-.6l.24-.61.16-.57a13.91,13.91,0,0,0,.26-1.38l.2-1.56c.05-.42.1-.83.16-1.25.07-.62.15-1.24.23-1.85.13-1,.26-2.1.39-3.13s.25-1.94.36-2.89c.48-3.91,1-7.55,1.4-10.67.5-3.77.93-6.77,1.19-8.57.16-1.17.26-1.84.26-1.84a1.23,1.23,0,0,1,2.45.28s-.33,4.19-.89,10.47c-.27,2.75-.54,5.9-.87,9.28,0,.47-.09.95-.14,1.43-.2,2-.4,4-.6,6l-.15,1.45c0,.55-.11,1.1-.16,1.66l-.16,1.56v0l0,.14,0,.1,0,.19-.06.4-.06.38c0,.13-.07.31-.11.47l-.25.94-.32.86a6.24,6.24,0,0,1-.36.84l-.41.82c-.22.37-.45.72-.7,1.07.21.14.42.29.65.43a9.32,9.32,0,0,0,.94.5l.51.23.48.15a8.89,8.89,0,0,0,1.22.33l.11,0h.11l.29,0,.59.07a11.59,11.59,0,0,0,2.19-.1l.21,0a10,10,0,0,0,1.2-.29l.59-.22.09,0a5.16,5.16,0,0,0,.49-.21,7.23,7.23,0,0,0,1.29-.75c.29-.21.58-.42.86-.65a10.32,10.32,0,0,0,1.72-1.95,11,11,0,0,0,1.1-2.31l.05-.14.05-.19.09-.38.09-.39,0-.09v-.07l0-.14.29-1.54c.2-1,.39-2.06.59-3.08.39-2,.78-4,1.15-6,.73-3.88,1.48-7.49,2.09-10.6.75-3.74,1.36-6.71,1.74-8.49.24-1.17.38-1.83.38-1.83a1.23,1.23,0,0,1,2.43.43s-.6,4.18-1.58,10.42c-.5,3.13-1,6.77-1.71,10.67-.32,1.95-.65,4-1,6l-.51,3.1-.26,1.55,0,.2-.06.28-.09.39-.09.38,0,.2-.07.23-.31.94c-.11.31-.25.56-.37.85a14,14,0,0,1-.87,1.62,14.63,14.63,0,0,1-1.78,2.2h0a9.55,9.55,0,0,0,10.86-7.34c.11-.53,6.58-30.93,12.26-61.09A66,66,0,0,1,276,174c-2.38,0-4.63-.1-6.63-.25-2.36,3-7.7,5.11-13.92,5.11-8.4,0-15.21-3.84-15.21-8.57s6.81-8.57,15.21-8.57c7.54,0,13.8,3.1,15,7.16A66.06,66.06,0,0,0,289.09,167.77Zm1.34-91.85a3.29,3.29,0,0,1-.14-.94c0-15.48-3.82-23.19-14.09-28.46-11.92-6.11-33.5-8.84-70-8.84h0c-26.78,0-45.59,5.85-54.41,16.92a25.43,25.43,0,0,0-5.3,20.33.86.86,0,0,1,0,.17c.73-.07,1.48-.12,2.22-.12.37,0,.71,0,1,0a68.21,68.21,0,0,1,10-11.06c14.8-13.2,35.66-20.47,58.74-20.47s43.94,7.27,58.75,20.47a67.86,67.86,0,0,1,11.14,12.73C289.08,76.38,289.75,76.13,290.43,75.92Z"/><path class="cls-9" d="M302.71,83c8.4,0,15.24,9.73,15.24,21.69s-6.84,21.7-15.24,21.7a10.86,10.86,0,0,1-3.07-.45,10.73,10.73,0,0,1-1.78-.69,13.33,13.33,0,0,1-1.75-1c-5.1-3.51-8.64-11-8.64-19.56a27.2,27.2,0,0,1,4-14.69,19.92,19.92,0,0,1,1.22-1.7c.43-.52.87-1,1.33-1.47A12.34,12.34,0,0,1,302.71,83Z"/><path class="cls-10" d="M294.58,135.74c-1.39,9.25-3.35,20.5-5.49,32a66.06,66.06,0,0,1-18.64,1.12c-1.2-4.06-7.46-7.16-15-7.16-8.4,0-15.21,3.84-15.21,8.57s6.81,8.57,15.21,8.57c6.22,0,11.56-2.1,13.92-5.11,2,.15,4.25.25,6.63.25a66,66,0,0,0,12.11-1c-5.68,30.16-12.15,60.56-12.26,61.09A9.55,9.55,0,0,1,265,241.39h0a14.63,14.63,0,0,0,1.78-2.2,14,14,0,0,0,.87-1.62c.12-.29.26-.54.37-.85l.31-.94.07-.23,0-.2.09-.38.09-.39.06-.28,0-.2.26-1.55.51-3.1c.34-2,.67-4.06,1-6,.66-3.9,1.21-7.54,1.71-10.67,1-6.24,1.58-10.42,1.58-10.42a1.23,1.23,0,0,0-2.43-.43s-.14.66-.38,1.83c-.38,1.78-1,4.75-1.74,8.49-.61,3.11-1.36,6.72-2.09,10.6-.37,1.95-.76,3.95-1.15,6-.2,1-.39,2.05-.59,3.08l-.29,1.54,0,.14v.07l0,.09-.09.39-.09.38-.05.19-.05.14a11,11,0,0,1-1.1,2.31,10.32,10.32,0,0,1-1.72,1.95c-.28.23-.57.44-.86.65a7.23,7.23,0,0,1-1.29.75,5.16,5.16,0,0,1-.49.21l-.09,0-.59.22a10,10,0,0,1-1.2.29l-.21,0a11.59,11.59,0,0,1-2.19.1l-.59-.07-.29,0H254l-.11,0a8.89,8.89,0,0,1-1.22-.33l-.48-.15-.51-.23a9.32,9.32,0,0,1-.94-.5c-.23-.14-.44-.29-.65-.43.25-.35.48-.7.7-1.07l.41-.82a6.24,6.24,0,0,0,.36-.84l.32-.86.25-.94c0-.16.09-.34.11-.47l.06-.38.06-.4,0-.19,0-.1,0-.14v0l.16-1.56c.05-.56.11-1.11.16-1.66l.15-1.45c.2-2.06.4-4.08.6-6,.05-.48.1-1,.14-1.43.33-3.38.6-6.53.87-9.28.56-6.28.89-10.47.89-10.47a1.23,1.23,0,0,0-2.45-.28s-.1.67-.26,1.84c-.26,1.8-.69,4.8-1.19,8.57-.41,3.12-.92,6.76-1.4,10.67-.11.95-.24,1.92-.36,2.89s-.26,2.08-.39,3.13c-.08.61-.16,1.23-.23,1.85-.06.42-.11.83-.16,1.25l-.2,1.56a13.91,13.91,0,0,1-.26,1.38l-.16.57-.24.61a2.69,2.69,0,0,1-.27.6c-.1.19-.19.39-.3.58l0,.06a10.92,10.92,0,0,1-1.25,1.62,3.59,3.59,0,0,1-.32.36,11,11,0,0,1-1.12.92,9.2,9.2,0,0,1-3.25,1.49,10.26,10.26,0,0,1-2.39.28l-.58,0h-.36l-.17,0-.68-.11-.17,0-.12,0-.24-.07-.49-.13-.51-.19a8.8,8.8,0,0,1-1-.44c-.32-.17-.61-.36-.89-.53s-.56-.4-.8-.62a10.11,10.11,0,0,1-2.2-2.68,11.38,11.38,0,0,0,.61-2.43,8.25,8.25,0,0,0,.13-1.19l0-.27v-.91c0-.53,0-1,0-1.56,0-1.11,0-2.21.06-3.29.06-4,.13-7.7.16-11,0-4.64.07-8.52.06-11.22v-4.27a1.23,1.23,0,0,0-2.46-.06v0c0,.23-.09,1.73-.24,4.22-.17,2.7-.36,6.57-.58,11.21-.21,4.07-.38,8.73-.59,13.74,0,.21,0,.44,0,.66s0,.63,0,1c0,.17,0,.33,0,.5l0,.54,0,.45c0,.23,0,.48-.06.7a1.22,1.22,0,0,1-.06.3,8.2,8.2,0,0,1-.48,1.73,10.15,10.15,0,0,1-.59,1.25,9.88,9.88,0,0,1-1.43,1.92,9.43,9.43,0,0,1-6.87,2.91h-.43l-.58,0-.29,0-.22,0-.42-.08a8.67,8.67,0,0,1-.91-.23c-.31-.08-.6-.22-.9-.32a9.36,9.36,0,0,1-3.13-2.17,10.21,10.21,0,0,1-1.42-1.93,11.94,11.94,0,0,1-.6-1.25,6.48,6.48,0,0,1-.29-.88,7.06,7.06,0,0,1-.21-.91,2.54,2.54,0,0,1,0-.29c0-.21-.05-.41-.07-.62s0-.29,0-.47l0-.54c0-.17,0-.33,0-.49,0-.33,0-.65,0-1s0-.39,0-.58c-.22-5-.4-9.73-.6-13.82-.22-4.64-.42-8.51-.58-11.21-.15-2.49-.24-4-.25-4.22v0a1.23,1.23,0,0,0-2.46.06v4.27c0,2.7,0,6.58.06,11.22,0,3.32.09,7,.15,11q0,1.62.06,3.3c0,.52,0,1,0,1.56v.54c0,.19,0,.42,0,.63a10.72,10.72,0,0,0,.14,1.27,10.9,10.9,0,0,0,.28,1.26,7.9,7.9,0,0,0,.35,1.11,9.69,9.69,0,0,1-5.92,4.61,10.69,10.69,0,0,1-2.27.29h-.7l-.53-.05a4.44,4.44,0,0,1-.57-.09c-.19,0-.4-.07-.59-.12a9.92,9.92,0,0,1-2.32-.89c-.32-.19-.63-.39-.94-.6a8.89,8.89,0,0,1-1.11-.92,3.61,3.61,0,0,1-.33-.35,9.37,9.37,0,0,1-1.23-1.64,9,9,0,0,1-1-2.48,4.69,4.69,0,0,1-.14-.65l-.12-.66-.19-1.56c0-.42-.1-.83-.16-1.25-.07-.62-.15-1.24-.22-1.85-.14-1-.27-2.1-.4-3.13s-.24-1.94-.36-2.89c-.48-3.91-1-7.55-1.4-10.67-.5-3.77-.93-6.77-1.18-8.57-.17-1.17-.27-1.84-.27-1.84a1.23,1.23,0,0,0-2.45.28s.33,4.19.9,10.46c.26,2.76.53,5.91.86,9.29.05.47.1.95.14,1.43.2,2,.4,4,.61,6,.05.48.1,1,.14,1.45s.11,1.1.16,1.66l.16,1.56c0,.29.09.6.13.9a8.79,8.79,0,0,0,.19.89,13.31,13.31,0,0,0,2,4.45,9.24,9.24,0,0,1-2.61,1.36,9.91,9.91,0,0,1-2.27.43l-.36,0a1.81,1.81,0,0,1-.32,0l-.54,0a4.13,4.13,0,0,1-.58-.05l-.4,0-.21,0a11,11,0,0,1-1.89-.56,5,5,0,0,1-.48-.21,12,12,0,0,1-1.29-.75,10.61,10.61,0,0,1-.85-.65,9.76,9.76,0,0,1-2.86-4.34c-.08-.2-.11-.43-.17-.64l-.08-.32,0-.16,0-.2-.3-1.54c-.19-1-.39-2.06-.59-3.08q-.58-3.06-1.15-6c-.72-3.88-1.47-7.49-2.08-10.6-.75-3.74-1.37-6.71-1.74-8.49l-.39-1.83a1.23,1.23,0,0,0-2.43.43s.6,4.18,1.58,10.42c.5,3.13,1.05,6.77,1.71,10.67.32,1.95.65,4,1,6l.51,3.1.26,1.55,0,.2.05.22.1.45a8.93,8.93,0,0,0,.23.89,13.26,13.26,0,0,0,1.54,3.33,13,13,0,0,0,1.79,2.2h0a9.54,9.54,0,0,1-10.85-7.32c-.21-1-20.8-97.81-20.8-117.42,0-40.92,32.12-69.51,78.12-69.51,29.58,0,53.42,11.83,66.67,31.15-8.25,5-13.91,15.29-13.91,27.13C271.28,121.36,281.53,134.43,294.58,135.74Zm-28-4a16.16,16.16,0,0,0-.49-5.18,14.26,14.26,0,0,0-2.42-5l-.46-.57c-.16-.2-.28-.32-.42-.48l-.11-.12-.1-.1-.08-.08c-.1-.11-.22-.22-.33-.32a5.4,5.4,0,0,0-.78-.54,6,6,0,0,0-3.49-.69,11,11,0,0,0-2.94.7,19.85,19.85,0,0,0-2.51,1.16,44,44,0,0,0-4.47,2.83c-2.82,2-5.45,4.18-8,6.31s-5.05,4.28-7.47,6.31c-4.83,4.07-9.4,7.74-13.51,10.59a70.09,70.09,0,0,1-10.3,6.11c-1.3.61-2.35,1-3.07,1.28s-1.11.38-1.11.38a1.25,1.25,0,0,0-.83,1.49,1.23,1.23,0,0,0,1.5.88h.05l1.2-.36c.78-.25,1.92-.64,3.32-1.23s3.08-1.37,4.93-2.37c.78-.42,1.61-.89,2.44-1.4,3.21,4.17,5.91,5.22,7.8,5.22a4.67,4.67,0,0,0,1.88-.38c5.65-2.36,5-10.06,3.74-14.2,1.37-1.07,2.77-2.17,4.18-3.3l5.16-4.15c1.84,2.88,4.21,5.9,7.62,5.9a6.62,6.62,0,0,0,1.36-.16c1.08,4.31,2,8.47,3.57,10-.31.22-.61.41-.9.58a10.09,10.09,0,0,1-2.77,1.15,5.07,5.07,0,0,1-.74.11l-.25,0h-.1a1.23,1.23,0,0,0,.12,2.45h.37c.24,0,.6,0,1.06-.1a11.74,11.74,0,0,0,3.62-1.27,26.23,26.23,0,0,0,9.26-8.93,28.86,28.86,0,0,0,3.67-7.82A21.9,21.9,0,0,0,266.59,131.73ZM229,109.27a37.53,37.53,0,1,0-37.52,37.52A37.56,37.56,0,0,0,229,109.27Z"/><path class="cls-8" d="M266.1,126.55a16.16,16.16,0,0,1,.49,5.18,21.9,21.9,0,0,1-.83,4.77,28.86,28.86,0,0,1-3.67,7.82,26.23,26.23,0,0,1-9.26,8.93,11.74,11.74,0,0,1-3.62,1.27c-.46.06-.82.09-1.06.1h-.37a1.23,1.23,0,0,1-.12-2.45h.1l.25,0a5.07,5.07,0,0,0,.74-.11,10.09,10.09,0,0,0,2.77-1.15c.29-.17.59-.36.9-.58-1.55-1.53-2.49-5.69-3.57-10a6.62,6.62,0,0,1-1.36.16c-3.41,0-5.78-3-7.62-5.9l-5.16,4.15c-1.41,1.13-2.81,2.23-4.18,3.3,1.24,4.14,1.91,11.84-3.74,14.2a4.67,4.67,0,0,1-1.88.38c-1.89,0-4.59-1.05-7.8-5.22-.83.51-1.66,1-2.44,1.4-1.85,1-3.52,1.78-4.93,2.37s-2.54,1-3.32,1.23l-1.2.36h-.05a1.23,1.23,0,0,1-1.5-.88,1.25,1.25,0,0,1,.83-1.49s.42-.13,1.11-.38,1.77-.67,3.07-1.28A70.09,70.09,0,0,0,219,146.6c4.11-2.85,8.68-6.52,13.51-10.59,2.42-2,4.9-4.17,7.47-6.31s5.21-4.28,8-6.31a44,44,0,0,1,4.47-2.83A19.85,19.85,0,0,1,255,119.4a11,11,0,0,1,2.94-.7,6,6,0,0,1,3.49.69,5.4,5.4,0,0,1,.78.54c.11.1.23.21.33.32l.08.08.1.1.11.12c.14.16.26.28.42.48l.46.57A14.26,14.26,0,0,1,266.1,126.55ZM251,133.81a11.09,11.09,0,0,0,0-7.8l-.79.54c-1.72,1.2-3.39,2.48-5.06,3.77l-2.39,1.9c2.25,3.55,3.59,4.73,5.12,4.5a2.32,2.32,0,0,0,.42-.1A4.93,4.93,0,0,0,251,133.81ZM225.6,153.38c3-1.27,3.06-5.91,2.28-9.36-2.5,1.88-4.91,3.61-7.19,5.11l-.95.61C222,152.62,224.19,154,225.6,153.38Z"/><path class="cls-11" d="M251,126a11.09,11.09,0,0,1,0,7.8,4.93,4.93,0,0,1-2.67,2.81,2.32,2.32,0,0,1-.42.1c-1.53.23-2.87-.95-5.12-4.5l2.39-1.9c1.67-1.29,3.34-2.57,5.06-3.77Z"/><path class="cls-11" d="M227.88,144c.78,3.45.74,8.09-2.28,9.36-1.41.6-3.58-.76-5.86-3.64l.95-.61C223,147.63,225.38,145.9,227.88,144Z"/><path class="cls-8" d="M191.46,71.75a37.52,37.52,0,1,1-37.53,37.52A37.56,37.56,0,0,1,191.46,71.75Zm33.83,37.52a33.84,33.84,0,1,0-33.83,33.83A33.87,33.87,0,0,0,225.29,109.27Z"/><path class="cls-11" d="M191.46,75.44a33.83,33.83,0,1,1-33.84,33.83A33.87,33.87,0,0,1,191.46,75.44Z"/><path class="cls-8" d="M195.15,105.37c-3.7-3.68-2.51-17.22,3.64-18.47,7.33-1.49,18.47,7.33,18.52,23.32s-11,24.87-18.38,23.43c-6.16-1.21-7.43-14.74-3.75-18.44,2.42-2.43,7.37-3.26,7.36-4.95S197.58,107.78,195.15,105.37Z"/></svg>
