<svg id="Layer_1" data-name="Layer 1" xmlns="http://www.w3.org/2000/svg" viewBox="15.88 38.56 263.44 216.95"><defs><style>.cls-1,.cls-2{fill:#57d1e5;}.cls-1,.cls-4,.cls-5,.cls-8{stroke:#3b2d55;stroke-linecap:round;stroke-linejoin:round;}.cls-1,.cls-4,.cls-8{stroke-width:3.74px;}.cls-3{fill:#3b2d55;}.cls-4,.cls-5{fill:#fff;}.cls-5{stroke-width:3.12px;}.cls-6{fill:#2f74b7;}.cls-7{fill:#5193ce;}.cls-8{fill:none;}</style></defs><title>scylla-alternator</title><path class="cls-1" d="M64.22,230.62A11.55,11.55,0,0,1,41.55,235S20.41,135.8,20.41,115.48c0-42.43,33.7-72.39,81.13-72.39s81.13,30,81.13,72.39c0,20.32-21.14,119.52-21.14,119.52a11.55,11.55,0,0,1-22.68-4.38"/><path class="cls-2" d="M156.32,202.2l-5.77,32.31a11.55,11.55,0,0,1-22.84-3.4"/><path class="cls-3" d="M157.55,202.42l-1.27,8.46L155,219.33l-1.39,8.45-.69,4.22c-.27,1.43-.38,2.72-.85,4.41a13.42,13.42,0,0,1-23.8,3.92,13.55,13.55,0,0,1-2.37-9.44,1.87,1.87,0,0,1,3.72.44,9.7,9.7,0,0,0,1.82,6.74,9.59,9.59,0,0,0,5.81,3.79,9.72,9.72,0,0,0,6.86-1.1,9.55,9.55,0,0,0,4.36-5.44c.31-1,.56-2.6.83-4l.81-4.2,1.62-8.4,1.67-8.39,1.74-8.38a1.25,1.25,0,0,1,2.46.44Z"/><circle class="cls-4" cx="74.08" cy="108" r="36.2"/><path class="cls-3" d="M81.57,84.28c-6.24,1.25-7.49,15-3.75,18.72,2.46,2.46,7.49,3.28,7.49,5s-5,2.53-7.49,5c-3.74,3.74-2.49,17.47,3.75,18.72,7.44,1.49,18.72-7.49,18.72-23.71S89,82.79,81.57,84.28Z"/><path class="cls-5" d="M56.6,156.67c1.25,3.75,5,10,10,8.74,2.42-.61,3.74-3.74,3.74-8.74"/><path class="cls-4" d="M89.06,154.18c1.24,5,2.49,8.73,6.24,8.73s8.73-5,7.49-13.73"/><path class="cls-3" d="M49.34,153.88A96.11,96.11,0,0,0,118,137.66a1.87,1.87,0,0,1,2.14,3.07h0A99.46,99.46,0,0,1,48.89,157a1.56,1.56,0,0,1,.45-3.09Z"/><path class="cls-3" d="M120.75,143.6a8,8,0,0,0-2.52-4.39,7.64,7.64,0,0,0-4.47-1.9,1.88,1.88,0,1,1,.28-3.74l.2,0h0a11.14,11.14,0,0,1,6.16,3.4,10.81,10.81,0,0,1,2.78,6.25,1.25,1.25,0,0,1-2.47.36Z"/><path class="cls-2" d="M75.36,231.11a11.55,11.55,0,0,1-22.84,3.4L46.76,202.2"/><path class="cls-3" d="M77.22,230.88a13.4,13.4,0,0,1-10.53,14.81,13.26,13.26,0,0,1-9.63-1.61,13.51,13.51,0,0,1-6-7.66,40.84,40.84,0,0,1-.85-4.42l-.7-4.22-1.38-8.45-1.34-8.45-1.26-8.46A1.25,1.25,0,0,1,48,202l1.75,8.38,1.67,8.39,1.62,8.4.8,4.2c.28,1.36.52,2.92.84,4a9.68,9.68,0,0,0,18.84-4h0a1.87,1.87,0,0,1,3.72-.44Z"/><path class="cls-2" d="M92,231.85a11.55,11.55,0,0,1-23,1.92L65.38,201.4"/><path class="cls-3" d="M93.9,231.75a13.41,13.41,0,0,1-26.42,4,35.35,35.35,0,0,1-.59-4.47L66.47,227l-.83-8.48L64.85,210l-.71-8.5a1.25,1.25,0,0,1,2.49-.27l1.19,8.44,1.12,8.45L70,226.6l.53,4.23c.19,1.39.32,2.91.59,4a9.68,9.68,0,0,0,19-2.85h0a1.87,1.87,0,0,1,3.74-.19Z"/><path class="cls-2" d="M137.69,201.4l-3.64,32.37a11.55,11.55,0,0,1-23-1.92"/><path class="cls-3" d="M138.93,201.53l-.71,8.5-.78,8.49-.83,8.48-.43,4.24a35.07,35.07,0,0,1-.58,4.46,13.4,13.4,0,0,1-15,10.13,13.41,13.41,0,0,1-11.41-14.08,1.87,1.87,0,0,1,3.74.2,9.74,9.74,0,0,0,2.24,6.59,9.58,9.58,0,0,0,6,3.41,9.72,9.72,0,0,0,6.76-1.48,9.55,9.55,0,0,0,4-5.67c.26-1.06.39-2.57.58-4l.53-4.23,1.07-8.45,1.13-8.45,1.19-8.44a1.25,1.25,0,0,1,2.48.27Z"/><path class="cls-2" d="M114,200.36l-.94,32.45a11.55,11.55,0,0,1-23.09,0l-.93-32.45"/><path class="cls-3" d="M115.27,200.39c0,8.39,0,16.77-.2,25.14l-.11,6.28a17.24,17.24,0,0,1-.29,3.46,13.21,13.21,0,0,1-1.23,3.44,13.47,13.47,0,0,1-11.9,7.27,13.48,13.48,0,0,1-7-2,13.55,13.55,0,0,1-6.15-8.72,16.75,16.75,0,0,1-.31-3.46l-.1-6.29q-.23-12.56-.19-25.14a1.25,1.25,0,0,1,2.49-.07q.75,12.56,1.26,25.11l.26,6.28a16,16,0,0,0,.27,2.78,9.8,9.8,0,0,0,.92,2.45,9.69,9.69,0,0,0,17.07,0,9.46,9.46,0,0,0,.91-2.46,15.87,15.87,0,0,0,.27-2.78l.26-6.28q.49-12.56,1.25-25.11a1.24,1.24,0,0,1,1.32-1.17A1.26,1.26,0,0,1,115.27,200.39Z"/><path class="cls-6" d="M197.56,140.42c-25.91,0-53.46,6.17-53.46,17.61v80.09a6.36,6.36,0,0,0,.62,2.82c3.92,8.58,25.65,14.57,52.84,14.57,25.92,0,53.47-6.17,53.47-17.61V158C251,146.59,223.48,140.42,197.56,140.42Z"/><path class="cls-7" d="M196.26,140.42c0,3-17.79,1.82-16.17,4.09,0,.7,16.17,29.19,16.17,29.19v81.81c25.92,0,53.46-6.17,53.46-17.61V158C249.72,146.59,222.18,140.42,196.26,140.42Z"/><line class="cls-8" x1="239.3" y1="124.02" x2="239.3" y2="140.31"/><line class="cls-8" x1="275.57" y1="160.19" x2="259.28" y2="160.19"/><line class="cls-8" x1="265.26" y1="134.23" x2="253.74" y2="145.75"/><path class="cls-6" d="M224,143.22l-17.23-.82L224,170.53v82.18c13.8-2.85,24-7.86,24-14.81V158C248,151.08,237.84,146.07,224,143.22Z"/><path class="cls-3" d="M197.56,200.76c-27.19,0-48.92-6-52.84-14.57a6.4,6.4,0,0,1-.62-2.83V158c0-11.44,27.55-17.61,53.46-17.61S251,146.59,251,158v25.12C251,194.58,223.48,200.76,197.56,200.76Zm0-56c-20.53,0-49.16,5.07-49.16,13.32v25.33a2.26,2.26,0,0,0,.2,1c2.68,5.86,22.14,12.12,49,12.12,20.54,0,49.17-5.06,49.17-13.31V158C246.73,152.47,228,144.71,197.56,144.71Z"/><path class="cls-3" d="M197.56,175.63c-25.91,0-53.46-6.17-53.46-17.6s27.55-17.61,53.46-17.61S251,146.59,251,158,223.48,175.63,197.56,175.63Zm0-30.92c-30.46,0-49.16,7.76-49.16,13.32s18.7,13.31,49.16,13.31,49.17-7.75,49.17-13.31S228,144.71,197.56,144.71Z"/><path class="cls-3" d="M197.56,228.24c-27.19,0-48.92-6-52.84-14.57a6.4,6.4,0,0,1-.62-2.83V182.36l4.3,3.15v25.33a2.22,2.22,0,0,0,.2,1c2.68,5.86,22.14,12.12,49,12.12,20.54,0,49.17-5.06,49.17-13.31v-24.9l4.3-3.15v28C251,222.07,223.48,228.24,197.56,228.24Z"/><path class="cls-3" d="M197.56,255.51c-27.19,0-48.92-6-52.84-14.57a6.36,6.36,0,0,1-.62-2.82V209.64l4.3,3.14v25.34a2.26,2.26,0,0,0,.2,1c2.68,5.86,22.14,12.12,49,12.12,20.54,0,49.17-5.07,49.17-13.32V213l4.3-3.15V237.9C251,249.34,223.48,255.51,197.56,255.51Z"/></svg>
