<svg id="Layer_1" data-name="Layer 1" xmlns="http://www.w3.org/2000/svg" viewBox="11.07 9.95 339.72 238.43"><defs><style>.cls-1,.cls-5,.cls-7,.cls-8{fill:#fff;}.cls-2,.cls-6{fill:#3b2d55;}.cls-3,.cls-4{fill:#57d1e5;}.cls-3,.cls-5,.cls-6,.cls-7,.cls-8{stroke:#3b2d55;}.cls-3,.cls-5,.cls-7,.cls-8{stroke-linecap:round;stroke-linejoin:round;}.cls-3,.cls-5{stroke-width:3.73px;}.cls-6{stroke-miterlimit:10;stroke-width:1.38px;}.cls-7{stroke-width:3.11px;}.cls-8{stroke-width:3.95px;}</style></defs><title>scylla-cloud</title><path class="cls-1" d="M81.4,125h-.18a17.09,17.09,0,0,1-.41-34.16v-.38A34.23,34.23,0,0,1,122.88,57.2a51.12,51.12,0,0,1,101.49-.54,34.46,34.46,0,0,1,5.06-.37,34.11,34.11,0,0,1,29.65,17.16c.61,0,1.19-.07,1.75-.07a25.83,25.83,0,0,1,0,51.65H81.4Z"/><path class="cls-2" d="M173.66,14a49.16,49.16,0,0,1,49,45A32.2,32.2,0,0,1,258,75.54a24.21,24.21,0,0,1,2.85-.19,23.85,23.85,0,0,1,0,47.7H81.4a15.12,15.12,0,0,1,.12-30.23c.46,0,.92,0,1.36.07-.06-.8-.1-1.6-.1-2.41a32.23,32.23,0,0,1,41.85-30.75,49.15,49.15,0,0,1,49-45.76m0-4A53.11,53.11,0,0,0,121.2,54.84a36.63,36.63,0,0,0-6.2-.53A36.21,36.21,0,0,0,78.86,89.06,19.07,19.07,0,0,0,81.13,127h179.8a27.8,27.8,0,0,0-.1-55.6h-.66a36.09,36.09,0,0,0-30.74-17.1c-1.12,0-2.25,0-3.38.16A53.09,53.09,0,0,0,173.66,10Z"/><path class="cls-3" d="M59.44,230.56a11.46,11.46,0,0,1-9.54,13.15,11.58,11.58,0,0,1-13.16-8.81S15.58,136.53,15.58,116.38c0-42.09,33.73-71.79,81.22-71.79S178,74.29,178,116.38c0,20.15-21.17,118.52-21.17,118.52a11.58,11.58,0,0,1-13.15,8.81,11.46,11.46,0,0,1-9.55-13.15"/><path class="cls-4" d="M151.64,202.37l-5.77,32A11.57,11.57,0,0,1,123,231"/><path class="cls-2" d="M152.86,202.59c-.4,2.81-.84,5.61-1.27,8.42l-1.34,8.4c-.44,2.8-.93,5.59-1.39,8.39l-.7,4.19-.35,2.1c-.06.35-.11.69-.21,1.11a10.07,10.07,0,0,1-.31,1.2,13.42,13.42,0,0,1-10.68,9.23,13.51,13.51,0,0,1-13.08-5.41,13.29,13.29,0,0,1-2.38-9.4,1.86,1.86,0,0,1,3.7.43h0a9.7,9.7,0,0,0,7.63,10.43,9.9,9.9,0,0,0,6.85-1.05,9.5,9.5,0,0,0,4.39-5.37c.33-1,.56-2.56.84-3.92l.81-4.18c.54-2.78,1.06-5.57,1.62-8.35l1.68-8.34c.58-2.78,1.14-5.56,1.75-8.33a1.24,1.24,0,0,1,2.44.44Z"/><ellipse class="cls-5" cx="69.31" cy="108.95" rx="36.24" ry="35.9"/><path class="cls-6" d="M76.8,85.43c-6.24,1.24-7.49,14.86-3.74,18.57,2.46,2.44,7.49,3.25,7.49,5s-5,2.51-7.49,5c-3.75,3.72-2.5,17.33,3.74,18.57C84.26,134,95.55,125,95.55,109S84.26,84,76.8,85.43Z"/><path class="cls-7" d="M51.81,157.22c1.25,3.72,5,9.91,10,8.67,2.42-.6,3.75-3.71,3.75-8.67"/><path class="cls-5" d="M84.3,154.75c1.25,4.95,2.5,8.66,6.25,8.66s8.75-4.95,7.5-13.61"/><path class="cls-2" d="M44.54,154.45a97.45,97.45,0,0,0,35.9-1.58,96.56,96.56,0,0,0,32.8-14.52,1.87,1.87,0,0,1,2.12,3.08h0a100.34,100.34,0,0,1-71.25,16.08,1.55,1.55,0,0,1,.45-3.07Z"/><path class="cls-2" d="M116,144.26a7.83,7.83,0,0,0-2.53-4.35,7.6,7.6,0,0,0-2.11-1.31A7.82,7.82,0,0,0,109,138a1.87,1.87,0,0,1,.31-3.72l.19,0h0a11.62,11.62,0,0,1,3.36,1.2,10.84,10.84,0,0,1,5.59,8.38,1.25,1.25,0,0,1-2.46.37Z"/><path class="cls-4" d="M70.59,231a11.56,11.56,0,0,1-22.86,3.38l-5.78-32"/><path class="cls-2" d="M72.44,230.81a13.22,13.22,0,0,1-2.37,9.4,13.51,13.51,0,0,1-8.14,5.3,13.46,13.46,0,0,1-15.62-9.11,10.11,10.11,0,0,1-.32-1.2c-.1-.42-.15-.76-.21-1.11L45.43,232l-.7-4.2c-.46-2.8-.94-5.59-1.39-8.39L42,211c-.42-2.81-.87-5.61-1.27-8.42a1.23,1.23,0,0,1,1.05-1.4,1.25,1.25,0,0,1,1.4,1c.6,2.77,1.16,5.55,1.74,8.33l1.68,8.34c.56,2.78,1.08,5.57,1.62,8.35l.81,4.17c.28,1.37.51,2.89.85,3.92a9.55,9.55,0,0,0,4.4,5.37,9.71,9.71,0,0,0,6.84,1.06,9.68,9.68,0,0,0,7.62-10.43h0a1.86,1.86,0,0,1,3.7-.44Z"/><path class="cls-4" d="M87.28,231.78a11.56,11.56,0,0,1-23,1.9l-3.14-27.6"/><path class="cls-2" d="M89.14,231.68a13.06,13.06,0,0,1-.5,4.56,13.45,13.45,0,0,1-26.26-2.45L62,229.86,61.22,222l-.7-7.87c-.23-2.63-.45-5.26-.64-7.89a1.24,1.24,0,0,1,2.47-.28c.4,2.6.77,5.22,1.15,7.83l1.07,7.83,1,7.85.51,3.92a9.54,9.54,0,0,0,.93,3.16,9.74,9.74,0,0,0,4.66,4.5,9.9,9.9,0,0,0,6.44.58A9.74,9.74,0,0,0,83.49,238a9.56,9.56,0,0,0,1.93-6.16v0a1.86,1.86,0,0,1,3.72-.17Z"/><path class="cls-4" d="M133,201.58l-3.64,32.1a11.57,11.57,0,0,1-23-1.9"/><path class="cls-2" d="M134.23,201.72c-.22,2.81-.48,5.63-.72,8.44l-.78,8.44-.84,8.43-.42,4.22-.22,2.11-.05.52-.09.61a10,10,0,0,1-.25,1.21,13.29,13.29,0,0,1-5.58,7.87,13.35,13.35,0,0,1-9.44,2.07,13.43,13.43,0,0,1-8.42-4.77,13.22,13.22,0,0,1-3-9.19,1.86,1.86,0,0,1,3.72.19h0a9.71,9.71,0,0,0,8.25,9.9,9.84,9.84,0,0,0,6.75-1.43,9.52,9.52,0,0,0,4.06-5.58,5.19,5.19,0,0,0,.19-.87l.07-.44.07-.52.27-2.1.53-4.21,1.07-8.4,1.13-8.4c.4-2.8.77-5.6,1.19-8.39a1.25,1.25,0,0,1,2.48.28Z"/><path class="cls-4" d="M109.29,200.55l-.94,32.18a11.56,11.56,0,0,1-23.11,0l-.94-32.18"/><path class="cls-2" d="M110.54,200.58q0,6.25-.05,12.49l-.06,6.24-.1,6.24-.1,6.25c0,.52,0,1-.06,1.65a12.37,12.37,0,0,1-.25,1.8,13.17,13.17,0,0,1-1.24,3.41,13.69,13.69,0,0,1-1,1.55,15.53,15.53,0,0,1-1.16,1.39,12.94,12.94,0,0,1-2.83,2.28,14.35,14.35,0,0,1-3.34,1.44,15.59,15.59,0,0,1-1.78.36c-.3,0-.61.08-.91.1l-.91,0a5.58,5.58,0,0,1-.91,0c-.3,0-.6,0-.9-.08a13.56,13.56,0,0,1-1.79-.38,13.15,13.15,0,0,1-3.34-1.43,13.4,13.4,0,0,1-4.94-5.22,13.82,13.82,0,0,1-1.25-3.41,16.6,16.6,0,0,1-.31-3.45l-.11-6.24-.1-6.25-.05-6.24q-.07-6.24,0-12.49a1.24,1.24,0,0,1,2.48-.07q.39,6.24.69,12.47l.31,6.23.26,6.24.26,6.24c0,.51,0,1.06.09,1.46a9.21,9.21,0,0,0,.2,1.28,9.67,9.67,0,0,0,4.51,6.11,9.92,9.92,0,0,0,3.65,1.26c.21,0,.43,0,.64.06a4.71,4.71,0,0,0,.65,0,9.69,9.69,0,0,0,8.53-5,9.09,9.09,0,0,0,.92-2.42,9.35,9.35,0,0,0,.2-1.29c0-.39.07-.94.09-1.46l.26-6.24.26-6.24.31-6.23q.28-6.24.68-12.47a1.24,1.24,0,0,1,1.32-1.17A1.26,1.26,0,0,1,110.54,200.58Z"/><path class="cls-1" d="M82.56,244.44H82.3A25.67,25.67,0,1,1,97.38,198a32.47,32.47,0,0,1,48-23.68,65.58,65.58,0,0,1,119-36.56,38.9,38.9,0,0,1,54.49,25.49,41.4,41.4,0,0,1-11.24,81.2h-225Z"/><path class="cls-2" d="M210.92,112.22a63.55,63.55,0,0,1,52.75,28.07,36.93,36.93,0,0,1,53.48,24.55,39.42,39.42,0,0,1-9.75,77.62H82.56v0H82.3A23.7,23.7,0,1,1,99,202,30.48,30.48,0,0,1,147.38,178c0-.71-.06-1.42-.06-2.13a63.6,63.6,0,0,1,63.6-63.6m0-4a67.55,67.55,0,0,0-67.4,62.91A34.46,34.46,0,0,0,96,194.73,27.65,27.65,0,1,0,82.3,246.41H307.63a43.38,43.38,0,0,0,12.79-84.75A40.88,40.88,0,0,0,265,135.29a67.51,67.51,0,0,0-54-27Z"/><path class="cls-8" d="M137.94,190.24c4.47-8.25,14.44-13.75,25.44-12.38"/><path class="cls-8" d="M236.78,145.33c12.08-3.17,26.49,1.5,35.17,13.43"/><path class="cls-8" d="M197.27,63.41c9.56-2.51,21,1.19,27.84,10.63"/></svg>
